G04 #@! TF.GenerationSoftware,KiCad,Pcbnew,10.0.0*
G04 #@! TF.CreationDate,2026-04-05T21:15:08+02:00*
G04 #@! TF.ProjectId,4050 level shifter,34303530-206c-4657-9665-6c2073686966,rev?*
G04 #@! TF.SameCoordinates,Original*
G04 #@! TF.FileFunction,Copper,L1,Top*
G04 #@! TF.FilePolarity,Positive*
%FSLAX46Y46*%
G04 Gerber Fmt 4.6, Leading zero omitted, Abs format (unit mm)*
G04 Created by KiCad (PCBNEW 10.0.0) date 2026-04-05 21:15:08*
%MOMM*%
%LPD*%
G01*
G04 APERTURE LIST*
G04 Aperture macros list*
%AMRoundRect*
0 Rectangle with rounded corners*
0 $1 Rounding radius*
0 $2 $3 $4 $5 $6 $7 $8 $9 X,Y pos of 4 corners*
0 Add a 4 corners polygon primitive as box body*
4,1,4,$2,$3,$4,$5,$6,$7,$8,$9,$2,$3,0*
0 Add four circle primitives for the rounded corners*
1,1,$1+$1,$2,$3*
1,1,$1+$1,$4,$5*
1,1,$1+$1,$6,$7*
1,1,$1+$1,$8,$9*
0 Add four rect primitives between the rounded corners*
20,1,$1+$1,$2,$3,$4,$5,0*
20,1,$1+$1,$4,$5,$6,$7,0*
20,1,$1+$1,$6,$7,$8,$9,0*
20,1,$1+$1,$8,$9,$2,$3,0*%
G04 Aperture macros list end*
G04 #@! TA.AperFunction,ComponentPad*
%ADD10RoundRect,0.250000X-0.725000X0.600000X-0.725000X-0.600000X0.725000X-0.600000X0.725000X0.600000X0*%
G04 #@! TD*
G04 #@! TA.AperFunction,ComponentPad*
%ADD11O,1.950000X1.700000*%
G04 #@! TD*
G04 #@! TA.AperFunction,ComponentPad*
%ADD12RoundRect,0.250000X-0.550000X0.550000X-0.550000X-0.550000X0.550000X-0.550000X0.550000X0.550000X0*%
G04 #@! TD*
G04 #@! TA.AperFunction,ComponentPad*
%ADD13C,1.600000*%
G04 #@! TD*
G04 #@! TA.AperFunction,ComponentPad*
%ADD14R,1.700000X1.700000*%
G04 #@! TD*
G04 #@! TA.AperFunction,ComponentPad*
%ADD15C,1.700000*%
G04 #@! TD*
G04 #@! TA.AperFunction,ViaPad*
%ADD16C,0.600000*%
G04 #@! TD*
G04 #@! TA.AperFunction,Conductor*
%ADD17C,0.200000*%
G04 #@! TD*
G04 #@! TA.AperFunction,Conductor*
%ADD18C,0.800000*%
G04 #@! TD*
G04 APERTURE END LIST*
D10*
G04 #@! TO.P,J1,1,Pin_1_1*
G04 #@! TO.N,VSS*
X7620000Y-22860000D03*
D11*
G04 #@! TO.P,J1,2,Pin_2_2*
G04 #@! TO.N,Net-(J1-Pin_2)*
X7620000Y-25360000D03*
G04 #@! TO.P,J1,3,Pin_3_3*
G04 #@! TO.N,VDD*
X7620000Y-27860000D03*
G04 #@! TD*
D12*
G04 #@! TO.P,U1,1,Vdd_1*
G04 #@! TO.N,VDD*
X55880000Y-20320000D03*
D13*
G04 #@! TO.P,U1,2*
G04 #@! TO.N,Net-(J3-Pin_1)*
X53340000Y-20320000D03*
G04 #@! TO.P,U1,3*
G04 #@! TO.N,Net-(J2-Pin_1)*
X50800000Y-20320000D03*
G04 #@! TO.P,U1,4*
G04 #@! TO.N,Net-(J5-Pin_1)*
X48260000Y-20320000D03*
G04 #@! TO.P,U1,5*
G04 #@! TO.N,Net-(J4-Pin_1)*
X45720000Y-20320000D03*
G04 #@! TO.P,U1,6*
G04 #@! TO.N,Net-(J7-Pin_1)*
X43180000Y-20320000D03*
G04 #@! TO.P,U1,7*
G04 #@! TO.N,Net-(J6-Pin_1)*
X40640000Y-20320000D03*
G04 #@! TO.P,U1,8,Vss_8*
G04 #@! TO.N,VSS*
X38100000Y-20320000D03*
G04 #@! TO.P,U1,9*
G04 #@! TO.N,Net-(J8-Pin_1)*
X38100000Y-30480000D03*
G04 #@! TO.P,U1,10*
G04 #@! TO.N,Net-(J9-Pin_1)*
X40640000Y-30480000D03*
G04 #@! TO.P,U1,11*
G04 #@! TO.N,Net-(J10-Pin_1)*
X43180000Y-30480000D03*
G04 #@! TO.P,U1,12*
G04 #@! TO.N,Net-(J11-Pin_1)*
X45720000Y-30480000D03*
G04 #@! TO.P,U1,13*
G04 #@! TO.N,N/C*
X48260000Y-30480000D03*
G04 #@! TO.P,U1,14*
G04 #@! TO.N,Net-(J12-Pin_1)*
X50800000Y-30480000D03*
G04 #@! TO.P,U1,15*
G04 #@! TO.N,Net-(J13-Pin_1)*
X53340000Y-30480000D03*
G04 #@! TO.P,U1,16*
G04 #@! TO.N,N/C*
X55880000Y-30480000D03*
G04 #@! TD*
D14*
G04 #@! TO.P,J6,1,Pin_1_1*
G04 #@! TO.N,Net-(J6-Pin_1)*
X33020000Y-5080000D03*
D15*
G04 #@! TO.P,J6,2,Pin_2_2*
X30480000Y-5080000D03*
G04 #@! TD*
D14*
G04 #@! TO.P,J5,1,Pin_1_1*
G04 #@! TO.N,Net-(J5-Pin_1)*
X60960000Y-10160000D03*
D15*
G04 #@! TO.P,J5,2,Pin_2_2*
X63500000Y-10160000D03*
G04 #@! TD*
D14*
G04 #@! TO.P,J9,1,Pin_1_1*
G04 #@! TO.N,Net-(J9-Pin_1)*
X60960000Y-35560000D03*
D15*
G04 #@! TO.P,J9,2,Pin_2_2*
X63500000Y-35560000D03*
G04 #@! TD*
D14*
G04 #@! TO.P,J10,1,Pin_1_1*
G04 #@! TO.N,Net-(J10-Pin_1)*
X33020000Y-40640000D03*
D15*
G04 #@! TO.P,J10,2,Pin_2_2*
X30480000Y-40640000D03*
G04 #@! TD*
D14*
G04 #@! TO.P,J13,1,Pin_1_1*
G04 #@! TO.N,Net-(J13-Pin_1)*
X60960000Y-45720000D03*
D15*
G04 #@! TO.P,J13,2,Pin_2_2*
X63500000Y-45720000D03*
G04 #@! TD*
D14*
G04 #@! TO.P,J3,1,Pin_1_1*
G04 #@! TO.N,Net-(J3-Pin_1)*
X60960000Y-15240000D03*
D15*
G04 #@! TO.P,J3,2,Pin_2_2*
X63500000Y-15240000D03*
G04 #@! TD*
D14*
G04 #@! TO.P,J7,1,Pin_1_1*
G04 #@! TO.N,Net-(J7-Pin_1)*
X60960000Y-5080000D03*
D15*
G04 #@! TO.P,J7,2,Pin_2_2*
X63500000Y-5080000D03*
G04 #@! TD*
D14*
G04 #@! TO.P,J15,1,Pin_1_1*
G04 #@! TO.N,VSS*
X7620000Y-35560000D03*
D15*
G04 #@! TO.P,J15,2,Pin_2_2*
X10160000Y-35560000D03*
G04 #@! TO.P,J15,3,Pin_3_3*
X12700000Y-35560000D03*
G04 #@! TO.P,J15,4,Pin_4_4*
X15240000Y-35560000D03*
G04 #@! TD*
D14*
G04 #@! TO.P,J4,1,Pin_1_1*
G04 #@! TO.N,Net-(J4-Pin_1)*
X33020000Y-10160000D03*
D15*
G04 #@! TO.P,J4,2,Pin_2_2*
X30480000Y-10160000D03*
G04 #@! TD*
D14*
G04 #@! TO.P,J14,1,Pin_1_1*
G04 #@! TO.N,Net-(J1-Pin_2)*
X7620000Y-12700000D03*
D15*
G04 #@! TO.P,J14,2,Pin_2_2*
X10160000Y-12700000D03*
G04 #@! TO.P,J14,3,Pin_3_3*
X12700000Y-12700000D03*
G04 #@! TO.P,J14,4,Pin_4_4*
X15240000Y-12700000D03*
G04 #@! TD*
D14*
G04 #@! TO.P,J2,1,Pin_1_1*
G04 #@! TO.N,Net-(J2-Pin_1)*
X33020000Y-15240000D03*
D15*
G04 #@! TO.P,J2,2,Pin_2_2*
X30480000Y-15240000D03*
G04 #@! TD*
D14*
G04 #@! TO.P,J11,1,Pin_1_1*
G04 #@! TO.N,Net-(J11-Pin_1)*
X60960000Y-40640000D03*
D15*
G04 #@! TO.P,J11,2,Pin_2_2*
X63500000Y-40640000D03*
G04 #@! TD*
D14*
G04 #@! TO.P,J12,1,Pin_1_1*
G04 #@! TO.N,Net-(J12-Pin_1)*
X33020000Y-45720000D03*
D15*
G04 #@! TO.P,J12,2,Pin_2_2*
X30480000Y-45720000D03*
G04 #@! TD*
D14*
G04 #@! TO.P,J8,1,Pin_1_1*
G04 #@! TO.N,Net-(J8-Pin_1)*
X33020000Y-35560000D03*
D15*
G04 #@! TO.P,J8,2,Pin_2_2*
X30480000Y-35560000D03*
G04 #@! TD*
D16*
G04 #@! TO.N,VSS*
X50800000Y-12700000D03*
X68580000Y-25400000D03*
X50800000Y-35560000D03*
X43180000Y-40640000D03*
X22860000Y-22860000D03*
G04 #@! TD*
G04 #@! TO.N,VSS*
D17*
X56672590Y-18420000D02*
X50952590Y-12700000D01*
X61600000Y-18420000D02*
X56672590Y-18420000D01*
X68580000Y-25400000D02*
X61600000Y-18420000D01*
X63647006Y-25400000D02*
X68580000Y-25400000D01*
X53487006Y-35560000D02*
X63647006Y-25400000D01*
X50800000Y-35560000D02*
X53487006Y-35560000D01*
X45720000Y-40640000D02*
X50800000Y-35560000D01*
X43180000Y-40640000D02*
X45720000Y-40640000D01*
X25400000Y-22860000D02*
X43180000Y-40640000D01*
X22860000Y-22860000D02*
X25400000Y-22860000D01*
D18*
X30480000Y-20320000D02*
X15240000Y-35560000D01*
X38100000Y-20320000D02*
X30480000Y-20320000D01*
G04 #@! TO.N,VDD*
X54251270Y-18120000D02*
X18885000Y-18120000D01*
X55880000Y-19748730D02*
X54251270Y-18120000D01*
X9145000Y-27860000D02*
X7620000Y-27860000D01*
X55880000Y-20320000D02*
X55880000Y-19748730D01*
X18885000Y-18120000D02*
X9145000Y-27860000D01*
G04 #@! TD*
M02*
