M48
; DRILL file KiCad 10.0.0 date 2026-04-05T21:15:03
; FORMAT={-:-/ absolute / metric / decimal}
; #@! TF.CreationDate,2026-04-05T21:15:03+02:00
; #@! TF.GenerationSoftware,Kicad,Pcbnew,10.0.0
; #@! TF.FileFunction,Plated,1,2,PTH
FMAT,2
METRIC
; #@! TA.AperFunction,Plated,PTH,ViaDrill
T1C0.300
; #@! TA.AperFunction,Plated,PTH,ComponentDrill
T2C0.800
; #@! TA.AperFunction,Plated,PTH,ComponentDrill
T3C0.950
; #@! TA.AperFunction,Plated,PTH,ComponentDrill
T4C1.000
%
G90
G05
T1
X22.86Y-22.86
X43.18Y-40.64
X50.8Y-12.7
X50.8Y-35.56
X68.58Y-25.4
T2
X38.1Y-20.32
X38.1Y-30.48
X40.64Y-20.32
X40.64Y-30.48
X43.18Y-20.32
X43.18Y-30.48
X45.72Y-20.32
X45.72Y-30.48
X48.26Y-20.32
X48.26Y-30.48
X50.8Y-20.32
X50.8Y-30.48
X53.34Y-20.32
X53.34Y-30.48
X55.88Y-20.32
X55.88Y-30.48
T3
X7.62Y-22.86
X7.62Y-25.36
X7.62Y-27.86
T4
X7.62Y-12.7
X7.62Y-35.56
X10.16Y-12.7
X10.16Y-35.56
X12.7Y-12.7
X12.7Y-35.56
X15.24Y-12.7
X15.24Y-35.56
X30.48Y-5.08
X30.48Y-10.16
X30.48Y-15.24
X30.48Y-35.56
X30.48Y-40.64
X30.48Y-45.72
X33.02Y-5.08
X33.02Y-10.16
X33.02Y-15.24
X33.02Y-35.56
X33.02Y-40.64
X33.02Y-45.72
X60.96Y-5.08
X60.96Y-10.16
X60.96Y-15.24
X60.96Y-35.56
X60.96Y-40.64
X60.96Y-45.72
X63.5Y-5.08
X63.5Y-10.16
X63.5Y-15.24
X63.5Y-35.56
X63.5Y-40.64
X63.5Y-45.72
M30
