G04 #@! TF.GenerationSoftware,KiCad,Pcbnew,10.0.0*
G04 #@! TF.CreationDate,2026-04-05T21:10:05+02:00*
G04 #@! TF.ProjectId,4050 level shifter,34303530-206c-4657-9665-6c2073686966,rev?*
G04 #@! TF.SameCoordinates,Original*
G04 #@! TF.FileFunction,Copper,L2,Bot*
G04 #@! TF.FilePolarity,Positive*
%FSLAX46Y46*%
G04 Gerber Fmt 4.6, Leading zero omitted, Abs format (unit mm)*
G04 Created by KiCad (PCBNEW 10.0.0) date 2026-04-05 21:10:05*
%MOMM*%
%LPD*%
G01*
G04 APERTURE LIST*
G04 Aperture macros list*
%AMRoundRect*
0 Rectangle with rounded corners*
0 $1 Rounding radius*
0 $2 $3 $4 $5 $6 $7 $8 $9 X,Y pos of 4 corners*
0 Add a 4 corners polygon primitive as box body*
4,1,4,$2,$3,$4,$5,$6,$7,$8,$9,$2,$3,0*
0 Add four circle primitives for the rounded corners*
1,1,$1+$1,$2,$3*
1,1,$1+$1,$4,$5*
1,1,$1+$1,$6,$7*
1,1,$1+$1,$8,$9*
0 Add four rect primitives between the rounded corners*
20,1,$1+$1,$2,$3,$4,$5,0*
20,1,$1+$1,$4,$5,$6,$7,0*
20,1,$1+$1,$6,$7,$8,$9,0*
20,1,$1+$1,$8,$9,$2,$3,0*%
G04 Aperture macros list end*
G04 #@! TA.AperFunction,ComponentPad*
%ADD10RoundRect,0.250000X-0.725000X0.600000X-0.725000X-0.600000X0.725000X-0.600000X0.725000X0.600000X0*%
G04 #@! TD*
G04 #@! TA.AperFunction,ComponentPad*
%ADD11O,1.950000X1.700000*%
G04 #@! TD*
G04 #@! TA.AperFunction,ComponentPad*
%ADD12RoundRect,0.250000X-0.550000X0.550000X-0.550000X-0.550000X0.550000X-0.550000X0.550000X0.550000X0*%
G04 #@! TD*
G04 #@! TA.AperFunction,ComponentPad*
%ADD13C,1.600000*%
G04 #@! TD*
G04 #@! TA.AperFunction,ComponentPad*
%ADD14R,1.700000X1.700000*%
G04 #@! TD*
G04 #@! TA.AperFunction,ComponentPad*
%ADD15C,1.700000*%
G04 #@! TD*
G04 #@! TA.AperFunction,ViaPad*
%ADD16C,0.600000*%
G04 #@! TD*
G04 #@! TA.AperFunction,Conductor*
%ADD17C,0.800000*%
G04 #@! TD*
G04 APERTURE END LIST*
D10*
G04 #@! TO.P,J1,1,Pin_1_1*
G04 #@! TO.N,VSS*
X63500000Y-104140000D03*
D11*
G04 #@! TO.P,J1,2,Pin_2_2*
G04 #@! TO.N,Net-(J1-Pin_2)*
X63500000Y-106640000D03*
G04 #@! TO.P,J1,3,Pin_3_3*
G04 #@! TO.N,VDD*
X63500000Y-109140000D03*
G04 #@! TD*
D12*
G04 #@! TO.P,U1,1,Vdd_1*
G04 #@! TO.N,VDD*
X111760000Y-101600000D03*
D13*
G04 #@! TO.P,U1,2*
G04 #@! TO.N,Net-(J3-Pin_1)*
X109220000Y-101600000D03*
G04 #@! TO.P,U1,3*
G04 #@! TO.N,Net-(J2-Pin_1)*
X106680000Y-101600000D03*
G04 #@! TO.P,U1,4*
G04 #@! TO.N,Net-(J5-Pin_1)*
X104140000Y-101600000D03*
G04 #@! TO.P,U1,5*
G04 #@! TO.N,Net-(J4-Pin_1)*
X101600000Y-101600000D03*
G04 #@! TO.P,U1,6*
G04 #@! TO.N,Net-(J7-Pin_1)*
X99060000Y-101600000D03*
G04 #@! TO.P,U1,7*
G04 #@! TO.N,Net-(J6-Pin_1)*
X96520000Y-101600000D03*
G04 #@! TO.P,U1,8,Vss_8*
G04 #@! TO.N,VSS*
X93980000Y-101600000D03*
G04 #@! TO.P,U1,9*
G04 #@! TO.N,Net-(J8-Pin_1)*
X93980000Y-111760000D03*
G04 #@! TO.P,U1,10*
G04 #@! TO.N,Net-(J9-Pin_1)*
X96520000Y-111760000D03*
G04 #@! TO.P,U1,11*
G04 #@! TO.N,Net-(J10-Pin_1)*
X99060000Y-111760000D03*
G04 #@! TO.P,U1,12*
G04 #@! TO.N,Net-(J11-Pin_1)*
X101600000Y-111760000D03*
G04 #@! TO.P,U1,13*
G04 #@! TO.N,N/C*
X104140000Y-111760000D03*
G04 #@! TO.P,U1,14*
G04 #@! TO.N,Net-(J12-Pin_1)*
X106680000Y-111760000D03*
G04 #@! TO.P,U1,15*
G04 #@! TO.N,Net-(J13-Pin_1)*
X109220000Y-111760000D03*
G04 #@! TO.P,U1,16*
G04 #@! TO.N,N/C*
X111760000Y-111760000D03*
G04 #@! TD*
D14*
G04 #@! TO.P,J6,1,Pin_1_1*
G04 #@! TO.N,Net-(J6-Pin_1)*
X88900000Y-86360000D03*
D15*
G04 #@! TO.P,J6,2,Pin_2_2*
X86360000Y-86360000D03*
G04 #@! TD*
D14*
G04 #@! TO.P,J5,1,Pin_1_1*
G04 #@! TO.N,Net-(J5-Pin_1)*
X116840000Y-91440000D03*
D15*
G04 #@! TO.P,J5,2,Pin_2_2*
X119380000Y-91440000D03*
G04 #@! TD*
D14*
G04 #@! TO.P,J9,1,Pin_1_1*
G04 #@! TO.N,Net-(J9-Pin_1)*
X116840000Y-116840000D03*
D15*
G04 #@! TO.P,J9,2,Pin_2_2*
X119380000Y-116840000D03*
G04 #@! TD*
D14*
G04 #@! TO.P,J10,1,Pin_1_1*
G04 #@! TO.N,Net-(J10-Pin_1)*
X88900000Y-121920000D03*
D15*
G04 #@! TO.P,J10,2,Pin_2_2*
X86360000Y-121920000D03*
G04 #@! TD*
D14*
G04 #@! TO.P,J13,1,Pin_1_1*
G04 #@! TO.N,Net-(J13-Pin_1)*
X116840000Y-127000000D03*
D15*
G04 #@! TO.P,J13,2,Pin_2_2*
X119380000Y-127000000D03*
G04 #@! TD*
D14*
G04 #@! TO.P,J3,1,Pin_1_1*
G04 #@! TO.N,Net-(J3-Pin_1)*
X116840000Y-96520000D03*
D15*
G04 #@! TO.P,J3,2,Pin_2_2*
X119380000Y-96520000D03*
G04 #@! TD*
D14*
G04 #@! TO.P,J7,1,Pin_1_1*
G04 #@! TO.N,Net-(J7-Pin_1)*
X116840000Y-86360000D03*
D15*
G04 #@! TO.P,J7,2,Pin_2_2*
X119380000Y-86360000D03*
G04 #@! TD*
D14*
G04 #@! TO.P,J15,1,Pin_1_1*
G04 #@! TO.N,VSS*
X63500000Y-116840000D03*
D15*
G04 #@! TO.P,J15,2,Pin_2_2*
X66040000Y-116840000D03*
G04 #@! TO.P,J15,3,Pin_3_3*
X68580000Y-116840000D03*
G04 #@! TO.P,J15,4,Pin_4_4*
X71120000Y-116840000D03*
G04 #@! TD*
D14*
G04 #@! TO.P,J4,1,Pin_1_1*
G04 #@! TO.N,Net-(J4-Pin_1)*
X88900000Y-91440000D03*
D15*
G04 #@! TO.P,J4,2,Pin_2_2*
X86360000Y-91440000D03*
G04 #@! TD*
D14*
G04 #@! TO.P,J14,1,Pin_1_1*
G04 #@! TO.N,Net-(J1-Pin_2)*
X63500000Y-93980000D03*
D15*
G04 #@! TO.P,J14,2,Pin_2_2*
X66040000Y-93980000D03*
G04 #@! TO.P,J14,3,Pin_3_3*
X68580000Y-93980000D03*
G04 #@! TO.P,J14,4,Pin_4_4*
X71120000Y-93980000D03*
G04 #@! TD*
D14*
G04 #@! TO.P,J2,1,Pin_1_1*
G04 #@! TO.N,Net-(J2-Pin_1)*
X88900000Y-96520000D03*
D15*
G04 #@! TO.P,J2,2,Pin_2_2*
X86360000Y-96520000D03*
G04 #@! TD*
D14*
G04 #@! TO.P,J11,1,Pin_1_1*
G04 #@! TO.N,Net-(J11-Pin_1)*
X116840000Y-121920000D03*
D15*
G04 #@! TO.P,J11,2,Pin_2_2*
X119380000Y-121920000D03*
G04 #@! TD*
D14*
G04 #@! TO.P,J12,1,Pin_1_1*
G04 #@! TO.N,Net-(J12-Pin_1)*
X88900000Y-127000000D03*
D15*
G04 #@! TO.P,J12,2,Pin_2_2*
X86360000Y-127000000D03*
G04 #@! TD*
D14*
G04 #@! TO.P,J8,1,Pin_1_1*
G04 #@! TO.N,Net-(J8-Pin_1)*
X88900000Y-116840000D03*
D15*
G04 #@! TO.P,J8,2,Pin_2_2*
X86360000Y-116840000D03*
G04 #@! TD*
D16*
G04 #@! TO.N,VSS*
X106680000Y-93980000D03*
X124460000Y-106680000D03*
X106680000Y-116840000D03*
X99060000Y-121920000D03*
X78740000Y-104140000D03*
G04 #@! TD*
G04 #@! TO.N,VSS*
D17*
X63500000Y-104140000D02*
X64306981Y-104140000D01*
X71120000Y-116840000D02*
X63500000Y-116840000D01*
G04 #@! TO.N,Net-(J1-Pin_2)*
X63500000Y-93980000D02*
X61125000Y-96355000D01*
X61125000Y-105790000D02*
X61975000Y-106640000D01*
X61125000Y-96355000D02*
X61125000Y-105790000D01*
X61975000Y-106640000D02*
X63500000Y-106640000D01*
X63500000Y-93980000D02*
X71120000Y-93980000D01*
G04 #@! TO.N,Net-(J3-Pin_1)*
X109220000Y-100468630D02*
X109220000Y-101600000D01*
X116840000Y-96520000D02*
X119380000Y-96520000D01*
X113168630Y-96520000D02*
X109220000Y-100468630D01*
X116840000Y-96520000D02*
X113168630Y-96520000D01*
G04 #@! TO.N,Net-(J2-Pin_1)*
X106680000Y-99680000D02*
X106680000Y-101600000D01*
X103520000Y-96520000D02*
X106680000Y-99680000D01*
X88900000Y-96520000D02*
X103520000Y-96520000D01*
X86360000Y-96520000D02*
X88900000Y-96520000D01*
G04 #@! TO.N,Net-(J5-Pin_1)*
X105208630Y-103800000D02*
X104140000Y-102731370D01*
X115281981Y-103800000D02*
X105208630Y-103800000D01*
X121630000Y-97451981D02*
X115281981Y-103800000D01*
X116840000Y-91440000D02*
X119380000Y-91440000D01*
X119380000Y-91440000D02*
X121630000Y-93690000D01*
X121630000Y-93690000D02*
X121630000Y-97451981D01*
X104140000Y-102731370D02*
X104140000Y-101600000D01*
G04 #@! TO.N,Net-(J4-Pin_1)*
X88900000Y-91440000D02*
X86360000Y-91440000D01*
X84110000Y-93690000D02*
X84110000Y-97451981D01*
X100531370Y-99400000D02*
X101600000Y-100468630D01*
X101600000Y-100468630D02*
X101600000Y-101600000D01*
X86058019Y-99400000D02*
X100531370Y-99400000D01*
X86360000Y-91440000D02*
X84110000Y-93690000D01*
X84110000Y-97451981D02*
X86058019Y-99400000D01*
G04 #@! TO.N,Net-(J7-Pin_1)*
X123430000Y-98197565D02*
X116027565Y-105600000D01*
X116027565Y-105600000D02*
X100520000Y-105600000D01*
X116840000Y-86360000D02*
X119380000Y-86360000D01*
X119380000Y-86360000D02*
X123430000Y-90410000D01*
X99060000Y-104140000D02*
X99060000Y-101600000D01*
X123430000Y-90410000D02*
X123430000Y-98197565D01*
X100520000Y-105600000D02*
X99060000Y-104140000D01*
G04 #@! TO.N,Net-(J6-Pin_1)*
X82310000Y-90410000D02*
X82310000Y-98197565D01*
X86360000Y-86360000D02*
X82310000Y-90410000D01*
X96520000Y-102731370D02*
X96520000Y-101600000D01*
X95451370Y-103800000D02*
X96520000Y-102731370D01*
X87912435Y-103800000D02*
X95451370Y-103800000D01*
X82310000Y-98197565D02*
X87912435Y-103800000D01*
X86360000Y-86360000D02*
X88900000Y-86360000D01*
G04 #@! TO.N,Net-(J8-Pin_1)*
X88900000Y-116840000D02*
X93980000Y-111760000D01*
X86360000Y-116840000D02*
X88900000Y-116840000D01*
G04 #@! TO.N,Net-(J9-Pin_1)*
X119380000Y-116840000D02*
X116840000Y-116840000D01*
X103568730Y-119380000D02*
X96520000Y-112331270D01*
X96520000Y-112331270D02*
X96520000Y-111760000D01*
X114300000Y-119380000D02*
X103568730Y-119380000D01*
X116840000Y-116840000D02*
X114300000Y-119380000D01*
G04 #@! TO.N,Net-(J10-Pin_1)*
X99060000Y-110628630D02*
X99060000Y-111760000D01*
X84110000Y-119670000D02*
X84110000Y-115908019D01*
X86360000Y-121920000D02*
X84110000Y-119670000D01*
X84110000Y-115908019D02*
X90458019Y-109560000D01*
X97991370Y-109560000D02*
X99060000Y-110628630D01*
X90458019Y-109560000D02*
X97991370Y-109560000D01*
X88900000Y-121920000D02*
X86360000Y-121920000D01*
G04 #@! TO.N,Net-(J11-Pin_1)*
X101600000Y-112891370D02*
X101600000Y-111760000D01*
X121630000Y-115908019D02*
X119681981Y-113960000D01*
X119380000Y-121920000D02*
X121630000Y-119670000D01*
X121630000Y-119670000D02*
X121630000Y-115908019D01*
X116840000Y-121920000D02*
X119380000Y-121920000D01*
X102668630Y-113960000D02*
X101600000Y-112891370D01*
X119681981Y-113960000D02*
X102668630Y-113960000D01*
G04 #@! TO.N,Net-(J12-Pin_1)*
X82310000Y-122950000D02*
X82310000Y-115162435D01*
X106680000Y-110628630D02*
X106680000Y-111760000D01*
X86360000Y-127000000D02*
X82310000Y-122950000D01*
X90072435Y-107400000D02*
X103451370Y-107400000D01*
X88900000Y-127000000D02*
X86360000Y-127000000D01*
X82310000Y-115162435D02*
X90072435Y-107400000D01*
X103451370Y-107400000D02*
X106680000Y-110628630D01*
G04 #@! TO.N,Net-(J13-Pin_1)*
X119380000Y-127000000D02*
X123430000Y-122950000D01*
X123430000Y-115162435D02*
X117827565Y-109560000D01*
X123430000Y-122950000D02*
X123430000Y-115162435D01*
X116840000Y-127000000D02*
X119380000Y-127000000D01*
X110288630Y-109560000D02*
X109220000Y-110628630D01*
X117827565Y-109560000D02*
X110288630Y-109560000D01*
X109220000Y-110628630D02*
X109220000Y-111760000D01*
G04 #@! TD*
G04 #@! TA.AperFunction,Conductor*
G04 #@! TO.N,VSS*
G36*
X100204812Y-113242396D02*
G01*
X100254804Y-113291207D01*
X100264621Y-113313613D01*
X100302103Y-113428973D01*
X100302104Y-113428976D01*
X100402187Y-113625395D01*
X100531751Y-113803727D01*
X100531755Y-113803731D01*
X100531758Y-113803735D01*
X100687635Y-113959612D01*
X100691965Y-113963942D01*
X100691976Y-113963952D01*
X101597262Y-114869238D01*
X101597276Y-114869253D01*
X101600387Y-114872364D01*
X101600388Y-114872365D01*
X101756265Y-115028242D01*
X101756268Y-115028244D01*
X101756272Y-115028248D01*
X101924261Y-115150299D01*
X101924262Y-115150299D01*
X101924268Y-115150303D01*
X101934608Y-115157815D01*
X101971821Y-115176776D01*
X102131023Y-115257895D01*
X102131026Y-115257896D01*
X102235851Y-115291955D01*
X102340679Y-115326015D01*
X102558408Y-115360501D01*
X102558409Y-115360501D01*
X102783963Y-115360501D01*
X102783987Y-115360500D01*
X114985380Y-115360500D01*
X115052419Y-115380185D01*
X115098174Y-115432989D01*
X115108118Y-115502147D01*
X115095290Y-115541907D01*
X115070742Y-115588904D01*
X115056089Y-115616954D01*
X115000114Y-115812583D01*
X115000113Y-115812586D01*
X114989500Y-115931966D01*
X114989500Y-116658531D01*
X114969815Y-116725570D01*
X114953181Y-116746212D01*
X113756213Y-117943181D01*
X113694890Y-117976666D01*
X113668532Y-117979500D01*
X104200198Y-117979500D01*
X104133159Y-117959815D01*
X104112517Y-117943181D01*
X99769766Y-113600430D01*
X99736281Y-113539107D01*
X99741265Y-113469415D01*
X99783137Y-113413482D01*
X99809991Y-113398190D01*
X99858049Y-113378284D01*
X100062450Y-113260273D01*
X100071201Y-113253557D01*
X100136366Y-113228362D01*
X100204812Y-113242396D01*
G37*
G04 #@! TD.AperFunction*
G04 #@! TA.AperFunction,Conductor*
G36*
X128982539Y-81800185D02*
G01*
X129028294Y-81852989D01*
X129039500Y-81904500D01*
X129039500Y-131455500D01*
X129019815Y-131522539D01*
X128967011Y-131568294D01*
X128915500Y-131579500D01*
X56504500Y-131579500D01*
X56437461Y-131559815D01*
X56391706Y-131507011D01*
X56380500Y-131455500D01*
X56380500Y-126212486D01*
X58709500Y-126212486D01*
X58709500Y-126507513D01*
X58728482Y-126651690D01*
X58748007Y-126799993D01*
X58748008Y-126799995D01*
X58824361Y-127084951D01*
X58824364Y-127084961D01*
X58937254Y-127357500D01*
X58937258Y-127357510D01*
X59084761Y-127612993D01*
X59264352Y-127847040D01*
X59264358Y-127847047D01*
X59472952Y-128055641D01*
X59472959Y-128055647D01*
X59707006Y-128235238D01*
X59962489Y-128382741D01*
X59962490Y-128382741D01*
X59962493Y-128382743D01*
X60235048Y-128495639D01*
X60520007Y-128571993D01*
X60812494Y-128610500D01*
X60812501Y-128610500D01*
X61107499Y-128610500D01*
X61107506Y-128610500D01*
X61399993Y-128571993D01*
X61684952Y-128495639D01*
X61957507Y-128382743D01*
X62212994Y-128235238D01*
X62447042Y-128055646D01*
X62655646Y-127847042D01*
X62835238Y-127612994D01*
X62982743Y-127357507D01*
X63095639Y-127084952D01*
X63171993Y-126799993D01*
X63210500Y-126507506D01*
X63210500Y-126212494D01*
X63171993Y-125920007D01*
X63095639Y-125635048D01*
X62982743Y-125362493D01*
X62967895Y-125336776D01*
X62835238Y-125107006D01*
X62655647Y-124872959D01*
X62655641Y-124872952D01*
X62447047Y-124664358D01*
X62447040Y-124664352D01*
X62212993Y-124484761D01*
X61957510Y-124337258D01*
X61957500Y-124337254D01*
X61684961Y-124224364D01*
X61684954Y-124224362D01*
X61684952Y-124224361D01*
X61399993Y-124148007D01*
X61351113Y-124141571D01*
X61107513Y-124109500D01*
X61107506Y-124109500D01*
X60812494Y-124109500D01*
X60812486Y-124109500D01*
X60534085Y-124146153D01*
X60520007Y-124148007D01*
X60235048Y-124224361D01*
X60235038Y-124224364D01*
X59962499Y-124337254D01*
X59962489Y-124337258D01*
X59707006Y-124484761D01*
X59472959Y-124664352D01*
X59472952Y-124664358D01*
X59264358Y-124872952D01*
X59264352Y-124872959D01*
X59084761Y-125107006D01*
X58937258Y-125362489D01*
X58937254Y-125362499D01*
X58824364Y-125635038D01*
X58824361Y-125635048D01*
X58786339Y-125776951D01*
X58748008Y-125920004D01*
X58748006Y-125920015D01*
X58709500Y-126212486D01*
X56380500Y-126212486D01*
X56380500Y-115942155D01*
X62150000Y-115942155D01*
X62150000Y-116590000D01*
X63066988Y-116590000D01*
X63034075Y-116647007D01*
X63000000Y-116774174D01*
X63000000Y-116905826D01*
X63034075Y-117032993D01*
X63066988Y-117090000D01*
X62150000Y-117090000D01*
X62150000Y-117737844D01*
X62156401Y-117797372D01*
X62156403Y-117797379D01*
X62206645Y-117932086D01*
X62206649Y-117932093D01*
X62292809Y-118047187D01*
X62292812Y-118047190D01*
X62407906Y-118133350D01*
X62407913Y-118133354D01*
X62542620Y-118183596D01*
X62542627Y-118183598D01*
X62602155Y-118189999D01*
X62602172Y-118190000D01*
X63250000Y-118190000D01*
X63250000Y-117273012D01*
X63307007Y-117305925D01*
X63434174Y-117340000D01*
X63565826Y-117340000D01*
X63692993Y-117305925D01*
X63750000Y-117273012D01*
X63750000Y-118190000D01*
X64397828Y-118190000D01*
X64397844Y-118189999D01*
X64457372Y-118183598D01*
X64457379Y-118183596D01*
X64592086Y-118133354D01*
X64592093Y-118133350D01*
X64707187Y-118047190D01*
X64707190Y-118047187D01*
X64793350Y-117932093D01*
X64793354Y-117932086D01*
X64815529Y-117872632D01*
X64854319Y-117699390D01*
X64854682Y-117698734D01*
X64854642Y-117697984D01*
X64887642Y-117638802D01*
X65557037Y-116969408D01*
X65574075Y-117032993D01*
X65639901Y-117147007D01*
X65732993Y-117240099D01*
X65847007Y-117305925D01*
X65910590Y-117322962D01*
X65278282Y-117955269D01*
X65278282Y-117955270D01*
X65332449Y-117994624D01*
X65521782Y-118091095D01*
X65723870Y-118156757D01*
X65933754Y-118190000D01*
X66146246Y-118190000D01*
X66356127Y-118156757D01*
X66356130Y-118156757D01*
X66558217Y-118091095D01*
X66747554Y-117994622D01*
X66801716Y-117955270D01*
X66801717Y-117955270D01*
X66169408Y-117322962D01*
X66232993Y-117305925D01*
X66347007Y-117240099D01*
X66440099Y-117147007D01*
X66505925Y-117032993D01*
X66522962Y-116969408D01*
X67155270Y-117601717D01*
X67155270Y-117601716D01*
X67194622Y-117547554D01*
X67199514Y-117537954D01*
X67247488Y-117487157D01*
X67315308Y-117470361D01*
X67381444Y-117492897D01*
X67420486Y-117537954D01*
X67425375Y-117547550D01*
X67464728Y-117601716D01*
X68097037Y-116969408D01*
X68114075Y-117032993D01*
X68179901Y-117147007D01*
X68272993Y-117240099D01*
X68387007Y-117305925D01*
X68450590Y-117322962D01*
X67818282Y-117955269D01*
X67818282Y-117955270D01*
X67872449Y-117994624D01*
X68061782Y-118091095D01*
X68263870Y-118156757D01*
X68473754Y-118190000D01*
X68686246Y-118190000D01*
X68896127Y-118156757D01*
X68896130Y-118156757D01*
X69098217Y-118091095D01*
X69287554Y-117994622D01*
X69341716Y-117955270D01*
X69341717Y-117955270D01*
X68709408Y-117322962D01*
X68772993Y-117305925D01*
X68887007Y-117240099D01*
X68980099Y-117147007D01*
X69045925Y-117032993D01*
X69062962Y-116969408D01*
X69695270Y-117601717D01*
X69695270Y-117601716D01*
X69734622Y-117547554D01*
X69739514Y-117537954D01*
X69787488Y-117487157D01*
X69855308Y-117470361D01*
X69921444Y-117492897D01*
X69960486Y-117537954D01*
X69965375Y-117547550D01*
X70004728Y-117601716D01*
X70637037Y-116969408D01*
X70654075Y-117032993D01*
X70719901Y-117147007D01*
X70812993Y-117240099D01*
X70927007Y-117305925D01*
X70990590Y-117322962D01*
X70358282Y-117955269D01*
X70358282Y-117955270D01*
X70412449Y-117994624D01*
X70601782Y-118091095D01*
X70803870Y-118156757D01*
X71013754Y-118190000D01*
X71226246Y-118190000D01*
X71436127Y-118156757D01*
X71436130Y-118156757D01*
X71638217Y-118091095D01*
X71827554Y-117994622D01*
X71881716Y-117955270D01*
X71881717Y-117955270D01*
X71249408Y-117322962D01*
X71312993Y-117305925D01*
X71427007Y-117240099D01*
X71520099Y-117147007D01*
X71585925Y-117032993D01*
X71602962Y-116969408D01*
X72235270Y-117601717D01*
X72235270Y-117601716D01*
X72274622Y-117547554D01*
X72371095Y-117358217D01*
X72436757Y-117156130D01*
X72436757Y-117156127D01*
X72470000Y-116946246D01*
X72470000Y-116733753D01*
X72436757Y-116523872D01*
X72436757Y-116523869D01*
X72371095Y-116321782D01*
X72274624Y-116132449D01*
X72235270Y-116078282D01*
X72235269Y-116078282D01*
X71602962Y-116710590D01*
X71585925Y-116647007D01*
X71520099Y-116532993D01*
X71427007Y-116439901D01*
X71312993Y-116374075D01*
X71249409Y-116357037D01*
X71881716Y-115724728D01*
X71827550Y-115685375D01*
X71638217Y-115588904D01*
X71436129Y-115523242D01*
X71226246Y-115490000D01*
X71013754Y-115490000D01*
X70803872Y-115523242D01*
X70803869Y-115523242D01*
X70601782Y-115588904D01*
X70412439Y-115685380D01*
X70358282Y-115724727D01*
X70358282Y-115724728D01*
X70990591Y-116357037D01*
X70927007Y-116374075D01*
X70812993Y-116439901D01*
X70719901Y-116532993D01*
X70654075Y-116647007D01*
X70637037Y-116710591D01*
X70004728Y-116078282D01*
X70004727Y-116078282D01*
X69965380Y-116132440D01*
X69960483Y-116142051D01*
X69912506Y-116192845D01*
X69844684Y-116209638D01*
X69778550Y-116187098D01*
X69739516Y-116142048D01*
X69734626Y-116132452D01*
X69695270Y-116078282D01*
X69695269Y-116078282D01*
X69062962Y-116710590D01*
X69045925Y-116647007D01*
X68980099Y-116532993D01*
X68887007Y-116439901D01*
X68772993Y-116374075D01*
X68709409Y-116357037D01*
X69341716Y-115724728D01*
X69287550Y-115685375D01*
X69098217Y-115588904D01*
X68896129Y-115523242D01*
X68686246Y-115490000D01*
X68473754Y-115490000D01*
X68263872Y-115523242D01*
X68263869Y-115523242D01*
X68061782Y-115588904D01*
X67872439Y-115685380D01*
X67818282Y-115724727D01*
X67818282Y-115724728D01*
X68450591Y-116357037D01*
X68387007Y-116374075D01*
X68272993Y-116439901D01*
X68179901Y-116532993D01*
X68114075Y-116647007D01*
X68097037Y-116710591D01*
X67464728Y-116078282D01*
X67464727Y-116078282D01*
X67425380Y-116132440D01*
X67420483Y-116142051D01*
X67372506Y-116192845D01*
X67304684Y-116209638D01*
X67238550Y-116187098D01*
X67199516Y-116142048D01*
X67194626Y-116132452D01*
X67155270Y-116078282D01*
X67155269Y-116078282D01*
X66522962Y-116710590D01*
X66505925Y-116647007D01*
X66440099Y-116532993D01*
X66347007Y-116439901D01*
X66232993Y-116374075D01*
X66169409Y-116357037D01*
X66801716Y-115724728D01*
X66747550Y-115685375D01*
X66558217Y-115588904D01*
X66356129Y-115523242D01*
X66146246Y-115490000D01*
X65933754Y-115490000D01*
X65723872Y-115523242D01*
X65723869Y-115523242D01*
X65521782Y-115588904D01*
X65332439Y-115685380D01*
X65278282Y-115724727D01*
X65278282Y-115724728D01*
X65910591Y-116357037D01*
X65847007Y-116374075D01*
X65732993Y-116439901D01*
X65639901Y-116532993D01*
X65574075Y-116647007D01*
X65557037Y-116710591D01*
X64887642Y-116041196D01*
X64877133Y-116022090D01*
X64867566Y-116012714D01*
X64861488Y-115993644D01*
X64854319Y-115980609D01*
X64815527Y-115807364D01*
X64793354Y-115747913D01*
X64793350Y-115747906D01*
X64707190Y-115632812D01*
X64707187Y-115632809D01*
X64592093Y-115546649D01*
X64592086Y-115546645D01*
X64457379Y-115496403D01*
X64457372Y-115496401D01*
X64397844Y-115490000D01*
X63750000Y-115490000D01*
X63750000Y-116406988D01*
X63692993Y-116374075D01*
X63565826Y-116340000D01*
X63434174Y-116340000D01*
X63307007Y-116374075D01*
X63250000Y-116406988D01*
X63250000Y-115490000D01*
X62602155Y-115490000D01*
X62542627Y-115496401D01*
X62542620Y-115496403D01*
X62407913Y-115546645D01*
X62407906Y-115546649D01*
X62292812Y-115632809D01*
X62292809Y-115632812D01*
X62206649Y-115747906D01*
X62206645Y-115747913D01*
X62156403Y-115882620D01*
X62156401Y-115882627D01*
X62150000Y-115942155D01*
X56380500Y-115942155D01*
X56380500Y-96244778D01*
X59724499Y-96244778D01*
X59724499Y-96465222D01*
X59724499Y-96465227D01*
X59724500Y-96470356D01*
X59724500Y-105675362D01*
X59724499Y-105675377D01*
X59724499Y-105679778D01*
X59724499Y-105900222D01*
X59740174Y-105999184D01*
X59740224Y-105999500D01*
X59740224Y-105999501D01*
X59758985Y-106117952D01*
X59827103Y-106327603D01*
X59827104Y-106327606D01*
X59895122Y-106461096D01*
X59924479Y-106518712D01*
X59927187Y-106524025D01*
X60056751Y-106702357D01*
X60056755Y-106702361D01*
X60056758Y-106702365D01*
X60152207Y-106797814D01*
X60216965Y-106862572D01*
X60216976Y-106862582D01*
X60903632Y-107549238D01*
X60903646Y-107549253D01*
X60906757Y-107552364D01*
X60906758Y-107552365D01*
X61062635Y-107708242D01*
X61062638Y-107708244D01*
X61062641Y-107708247D01*
X61124722Y-107753350D01*
X61151217Y-107772600D01*
X61216433Y-107819982D01*
X61240979Y-107837816D01*
X61437389Y-107937894D01*
X61437400Y-107937898D01*
X61633827Y-108001719D01*
X61647049Y-108006015D01*
X61694131Y-108013472D01*
X61757266Y-108043401D01*
X61794198Y-108102712D01*
X61793200Y-108172574D01*
X61782122Y-108197944D01*
X61711775Y-108319789D01*
X61711773Y-108319794D01*
X61618947Y-108543895D01*
X61556161Y-108778214D01*
X61524500Y-109018711D01*
X61524500Y-109261288D01*
X61556161Y-109501785D01*
X61618947Y-109736104D01*
X61684601Y-109894606D01*
X61711776Y-109960212D01*
X61833064Y-110170289D01*
X61833066Y-110170292D01*
X61833067Y-110170293D01*
X61980733Y-110362736D01*
X61980739Y-110362743D01*
X62152256Y-110534260D01*
X62152262Y-110534265D01*
X62344711Y-110681936D01*
X62554788Y-110803224D01*
X62778900Y-110896054D01*
X63013211Y-110958838D01*
X63193586Y-110982584D01*
X63253711Y-110990500D01*
X63253712Y-110990500D01*
X63746289Y-110990500D01*
X63794388Y-110984167D01*
X63986789Y-110958838D01*
X64221100Y-110896054D01*
X64445212Y-110803224D01*
X64655289Y-110681936D01*
X64847738Y-110534265D01*
X65019265Y-110362738D01*
X65166936Y-110170289D01*
X65288224Y-109960212D01*
X65381054Y-109736100D01*
X65443838Y-109501789D01*
X65475500Y-109261288D01*
X65475500Y-109018712D01*
X65443838Y-108778211D01*
X65381054Y-108543900D01*
X65288224Y-108319788D01*
X65166936Y-108109711D01*
X65056266Y-107965483D01*
X65031074Y-107900317D01*
X65045112Y-107831873D01*
X65056261Y-107814523D01*
X65166936Y-107670289D01*
X65288224Y-107460212D01*
X65381054Y-107236100D01*
X65443838Y-107001789D01*
X65475500Y-106761288D01*
X65475500Y-106518712D01*
X65474664Y-106512365D01*
X65450887Y-106331756D01*
X65443838Y-106278211D01*
X65381054Y-106043900D01*
X65288224Y-105819788D01*
X65166936Y-105609711D01*
X65019265Y-105417262D01*
X65019260Y-105417256D01*
X64883987Y-105281983D01*
X64850502Y-105220660D01*
X64855486Y-105150968D01*
X64866130Y-105129204D01*
X64909355Y-105059126D01*
X64909358Y-105059119D01*
X64964505Y-104892697D01*
X64964506Y-104892690D01*
X64974999Y-104789986D01*
X64975000Y-104789973D01*
X64975000Y-104390000D01*
X63904146Y-104390000D01*
X63942630Y-104323343D01*
X63975000Y-104202535D01*
X63975000Y-104077465D01*
X63942630Y-103956657D01*
X63904146Y-103890000D01*
X64974999Y-103890000D01*
X64974999Y-103490028D01*
X64974998Y-103490013D01*
X64964505Y-103387302D01*
X64909358Y-103220880D01*
X64909356Y-103220875D01*
X64817315Y-103071654D01*
X64693345Y-102947684D01*
X64544124Y-102855643D01*
X64544119Y-102855641D01*
X64377697Y-102800494D01*
X64377690Y-102800493D01*
X64274986Y-102790000D01*
X63750000Y-102790000D01*
X63750000Y-103735854D01*
X63683343Y-103697370D01*
X63562535Y-103665000D01*
X63437465Y-103665000D01*
X63316657Y-103697370D01*
X63250000Y-103735854D01*
X63250000Y-102790000D01*
X62725028Y-102790000D01*
X62725010Y-102790001D01*
X62662101Y-102796428D01*
X62593408Y-102783658D01*
X62542524Y-102735777D01*
X62525500Y-102673070D01*
X62525500Y-96986467D01*
X62545185Y-96919428D01*
X62561814Y-96898790D01*
X63593787Y-95866817D01*
X63655110Y-95833333D01*
X63681468Y-95830499D01*
X64408028Y-95830499D01*
X64408036Y-95830499D01*
X64527418Y-95819886D01*
X64723049Y-95763909D01*
X64903407Y-95669698D01*
X64987279Y-95601308D01*
X65051674Y-95574199D01*
X65120504Y-95586208D01*
X65127639Y-95590023D01*
X65219777Y-95643218D01*
X65219780Y-95643219D01*
X65219788Y-95643224D01*
X65443900Y-95736054D01*
X65678211Y-95798838D01*
X65858586Y-95822584D01*
X65918711Y-95830500D01*
X65918712Y-95830500D01*
X66161289Y-95830500D01*
X66209388Y-95824167D01*
X66401789Y-95798838D01*
X66636100Y-95736054D01*
X66860212Y-95643224D01*
X67070289Y-95521936D01*
X67221219Y-95406123D01*
X67286387Y-95380930D01*
X67296704Y-95380500D01*
X67323296Y-95380500D01*
X67390335Y-95400185D01*
X67398769Y-95406114D01*
X67549711Y-95521936D01*
X67759788Y-95643224D01*
X67983900Y-95736054D01*
X68218211Y-95798838D01*
X68398586Y-95822584D01*
X68458711Y-95830500D01*
X68458712Y-95830500D01*
X68701289Y-95830500D01*
X68749388Y-95824167D01*
X68941789Y-95798838D01*
X69176100Y-95736054D01*
X69400212Y-95643224D01*
X69610289Y-95521936D01*
X69761219Y-95406123D01*
X69826387Y-95380930D01*
X69836704Y-95380500D01*
X69863296Y-95380500D01*
X69930335Y-95400185D01*
X69938769Y-95406114D01*
X70089711Y-95521936D01*
X70299788Y-95643224D01*
X70523900Y-95736054D01*
X70758211Y-95798838D01*
X70938586Y-95822584D01*
X70998711Y-95830500D01*
X70998712Y-95830500D01*
X71241289Y-95830500D01*
X71289388Y-95824167D01*
X71481789Y-95798838D01*
X71716100Y-95736054D01*
X71940212Y-95643224D01*
X72150289Y-95521936D01*
X72342738Y-95374265D01*
X72514265Y-95202738D01*
X72661936Y-95010289D01*
X72783224Y-94800212D01*
X72876054Y-94576100D01*
X72938838Y-94341789D01*
X72970500Y-94101288D01*
X72970500Y-93858712D01*
X72938838Y-93618211D01*
X72876054Y-93383900D01*
X72783224Y-93159788D01*
X72661936Y-92949711D01*
X72514265Y-92757262D01*
X72514260Y-92757256D01*
X72342743Y-92585739D01*
X72342736Y-92585733D01*
X72150293Y-92438067D01*
X72150292Y-92438066D01*
X72150289Y-92438064D01*
X71940212Y-92316776D01*
X71940205Y-92316773D01*
X71716104Y-92223947D01*
X71481785Y-92161161D01*
X71241289Y-92129500D01*
X71241288Y-92129500D01*
X70998712Y-92129500D01*
X70998711Y-92129500D01*
X70758214Y-92161161D01*
X70523895Y-92223947D01*
X70299794Y-92316773D01*
X70299785Y-92316777D01*
X70089710Y-92438064D01*
X70051456Y-92467418D01*
X69938780Y-92553876D01*
X69873613Y-92579070D01*
X69863296Y-92579500D01*
X69836704Y-92579500D01*
X69769665Y-92559815D01*
X69761230Y-92553885D01*
X69610289Y-92438064D01*
X69454356Y-92348036D01*
X69400214Y-92316777D01*
X69400205Y-92316773D01*
X69176104Y-92223947D01*
X68941785Y-92161161D01*
X68701289Y-92129500D01*
X68701288Y-92129500D01*
X68458712Y-92129500D01*
X68458711Y-92129500D01*
X68218214Y-92161161D01*
X67983895Y-92223947D01*
X67759794Y-92316773D01*
X67759785Y-92316777D01*
X67549710Y-92438064D01*
X67511456Y-92467418D01*
X67398780Y-92553876D01*
X67333613Y-92579070D01*
X67323296Y-92579500D01*
X67296704Y-92579500D01*
X67229665Y-92559815D01*
X67221230Y-92553885D01*
X67070289Y-92438064D01*
X66914356Y-92348036D01*
X66860214Y-92316777D01*
X66860205Y-92316773D01*
X66636104Y-92223947D01*
X66401785Y-92161161D01*
X66161289Y-92129500D01*
X66161288Y-92129500D01*
X65918712Y-92129500D01*
X65918711Y-92129500D01*
X65678214Y-92161161D01*
X65443895Y-92223947D01*
X65219794Y-92316773D01*
X65219789Y-92316775D01*
X65127640Y-92369977D01*
X65059740Y-92386449D01*
X64993713Y-92363596D01*
X64987281Y-92358691D01*
X64903412Y-92290305D01*
X64903408Y-92290303D01*
X64903407Y-92290302D01*
X64723049Y-92196091D01*
X64723048Y-92196090D01*
X64723045Y-92196089D01*
X64605829Y-92162550D01*
X64527418Y-92140114D01*
X64527415Y-92140113D01*
X64527413Y-92140113D01*
X64461102Y-92134217D01*
X64408037Y-92129500D01*
X64408032Y-92129500D01*
X62591971Y-92129500D01*
X62591965Y-92129500D01*
X62591964Y-92129501D01*
X62580316Y-92130536D01*
X62472584Y-92140113D01*
X62276954Y-92196089D01*
X62223625Y-92223946D01*
X62096593Y-92290302D01*
X62096591Y-92290303D01*
X62096590Y-92290304D01*
X61938890Y-92418890D01*
X61810304Y-92576590D01*
X61810302Y-92576593D01*
X61808784Y-92579500D01*
X61716089Y-92756954D01*
X61691352Y-92843409D01*
X61660936Y-92949711D01*
X61660114Y-92952583D01*
X61660113Y-92952586D01*
X61655253Y-93007257D01*
X61650448Y-93061308D01*
X61649500Y-93071966D01*
X61649500Y-93798531D01*
X61629815Y-93865570D01*
X61613181Y-93886212D01*
X60056758Y-95442634D01*
X59999146Y-95521932D01*
X59933736Y-95611961D01*
X59933735Y-95611962D01*
X59927190Y-95620969D01*
X59927181Y-95620984D01*
X59827104Y-95817393D01*
X59827103Y-95817396D01*
X59758985Y-96027047D01*
X59758985Y-96027049D01*
X59724499Y-96244778D01*
X56380500Y-96244778D01*
X56380500Y-90299778D01*
X80909499Y-90299778D01*
X80909499Y-90520222D01*
X80909499Y-90520227D01*
X80909500Y-90525345D01*
X80909500Y-98082927D01*
X80909499Y-98082942D01*
X80909499Y-98087343D01*
X80909499Y-98307787D01*
X80924485Y-98402402D01*
X80937122Y-98482186D01*
X80943985Y-98525517D01*
X81012103Y-98735168D01*
X81012104Y-98735171D01*
X81112187Y-98931590D01*
X81241751Y-99109922D01*
X81241755Y-99109926D01*
X81241758Y-99109930D01*
X81397635Y-99265807D01*
X81401965Y-99270137D01*
X81401976Y-99270147D01*
X86841067Y-104709238D01*
X86841081Y-104709253D01*
X86844192Y-104712364D01*
X86844193Y-104712365D01*
X87000070Y-104868242D01*
X87149455Y-104976776D01*
X87149456Y-104976777D01*
X87178410Y-104997814D01*
X87374824Y-105097894D01*
X87374835Y-105097898D01*
X87584481Y-105166014D01*
X87584484Y-105166015D01*
X87802214Y-105200501D01*
X87802215Y-105200501D01*
X88027768Y-105200501D01*
X88027792Y-105200500D01*
X95336013Y-105200500D01*
X95336037Y-105200501D01*
X95341148Y-105200501D01*
X95561591Y-105200501D01*
X95561592Y-105200501D01*
X95779321Y-105166015D01*
X95988976Y-105097895D01*
X96185392Y-104997815D01*
X96214350Y-104976776D01*
X96363735Y-104868242D01*
X96519612Y-104712365D01*
X96519613Y-104712363D01*
X96526673Y-104705303D01*
X96526679Y-104705296D01*
X97432361Y-103799614D01*
X97432365Y-103799612D01*
X97447825Y-103784152D01*
X97480627Y-103766243D01*
X97509142Y-103750673D01*
X97509145Y-103750673D01*
X97509150Y-103750671D01*
X97544495Y-103753201D01*
X97578834Y-103755657D01*
X97578837Y-103755659D01*
X97578841Y-103755660D01*
X97606702Y-103776519D01*
X97634767Y-103797529D01*
X97634768Y-103797532D01*
X97634772Y-103797535D01*
X97648980Y-103835635D01*
X97659184Y-103862993D01*
X97659184Y-103862998D01*
X97659185Y-103863001D01*
X97659184Y-103863003D01*
X97659500Y-103871839D01*
X97659500Y-104025362D01*
X97659499Y-104025377D01*
X97659499Y-104029778D01*
X97659499Y-104250222D01*
X97678520Y-104370315D01*
X97687021Y-104423985D01*
X97693984Y-104467946D01*
X97693986Y-104467956D01*
X97762103Y-104677603D01*
X97762104Y-104677606D01*
X97819118Y-104789500D01*
X97859239Y-104868241D01*
X97862187Y-104874025D01*
X97991751Y-105052357D01*
X97991755Y-105052361D01*
X97991758Y-105052365D01*
X98090361Y-105150968D01*
X98151965Y-105212572D01*
X98151976Y-105212582D01*
X98727213Y-105787819D01*
X98760698Y-105849142D01*
X98755714Y-105918834D01*
X98713842Y-105974767D01*
X98648378Y-105999184D01*
X98639532Y-105999500D01*
X90187792Y-105999500D01*
X90187768Y-105999499D01*
X90182657Y-105999499D01*
X89962213Y-105999499D01*
X89889636Y-106010994D01*
X89744482Y-106033985D01*
X89534831Y-106102103D01*
X89534828Y-106102104D01*
X89338409Y-106202187D01*
X89160076Y-106331752D01*
X89160071Y-106331756D01*
X81241759Y-114250068D01*
X81211388Y-114291871D01*
X81211387Y-114291870D01*
X81112187Y-114428409D01*
X81012104Y-114624828D01*
X81012103Y-114624831D01*
X80943985Y-114834482D01*
X80909499Y-115052214D01*
X80909499Y-115277767D01*
X80909500Y-115277792D01*
X80909500Y-122835362D01*
X80909499Y-122835377D01*
X80909499Y-123060220D01*
X80932168Y-123203344D01*
X80943985Y-123277952D01*
X81012103Y-123487603D01*
X81012104Y-123487606D01*
X81112187Y-123684025D01*
X81241751Y-123862357D01*
X81241755Y-123862361D01*
X81241758Y-123862365D01*
X81397635Y-124018242D01*
X81401965Y-124022572D01*
X81401976Y-124022582D01*
X84481072Y-127101678D01*
X84514557Y-127163001D01*
X84516330Y-127173173D01*
X84541161Y-127361785D01*
X84603947Y-127596104D01*
X84696773Y-127820205D01*
X84696776Y-127820212D01*
X84818064Y-128030289D01*
X84818066Y-128030292D01*
X84818067Y-128030293D01*
X84965733Y-128222736D01*
X84965739Y-128222743D01*
X85137256Y-128394260D01*
X85137263Y-128394266D01*
X85250321Y-128481018D01*
X85329711Y-128541936D01*
X85539788Y-128663224D01*
X85763900Y-128756054D01*
X85998211Y-128818838D01*
X86178586Y-128842584D01*
X86238711Y-128850500D01*
X86238712Y-128850500D01*
X86481289Y-128850500D01*
X86529388Y-128844167D01*
X86721789Y-128818838D01*
X86956100Y-128756054D01*
X87180212Y-128663224D01*
X87272359Y-128610022D01*
X87340257Y-128593550D01*
X87406284Y-128616402D01*
X87412719Y-128621308D01*
X87438666Y-128642465D01*
X87496593Y-128689698D01*
X87676951Y-128783909D01*
X87872582Y-128839886D01*
X87991963Y-128850500D01*
X89808036Y-128850499D01*
X89927418Y-128839886D01*
X90123049Y-128783909D01*
X90303407Y-128689698D01*
X90461109Y-128561109D01*
X90589698Y-128403407D01*
X90683909Y-128223049D01*
X90739886Y-128027418D01*
X90750500Y-127908037D01*
X90750499Y-126091964D01*
X90739886Y-125972582D01*
X90683909Y-125776951D01*
X90589698Y-125596593D01*
X90537684Y-125532803D01*
X90461109Y-125438890D01*
X90335875Y-125336776D01*
X90303407Y-125310302D01*
X90123049Y-125216091D01*
X90123048Y-125216090D01*
X90123045Y-125216089D01*
X90005829Y-125182550D01*
X89927418Y-125160114D01*
X89927415Y-125160113D01*
X89927413Y-125160113D01*
X89861102Y-125154217D01*
X89808037Y-125149500D01*
X89808032Y-125149500D01*
X87991971Y-125149500D01*
X87991965Y-125149500D01*
X87991964Y-125149501D01*
X87980316Y-125150536D01*
X87872584Y-125160113D01*
X87676954Y-125216089D01*
X87496591Y-125310303D01*
X87412718Y-125378692D01*
X87348321Y-125405800D01*
X87279492Y-125393790D01*
X87272358Y-125389976D01*
X87180215Y-125336777D01*
X87180205Y-125336773D01*
X86956104Y-125243947D01*
X86721785Y-125181161D01*
X86533173Y-125156330D01*
X86469277Y-125128063D01*
X86461678Y-125121072D01*
X83746819Y-122406213D01*
X83713334Y-122344890D01*
X83710500Y-122318532D01*
X83710500Y-121550468D01*
X83730185Y-121483429D01*
X83782989Y-121437674D01*
X83852147Y-121427730D01*
X83915703Y-121456755D01*
X83922181Y-121462787D01*
X84481072Y-122021678D01*
X84514557Y-122083001D01*
X84516330Y-122093173D01*
X84541161Y-122281785D01*
X84603947Y-122516104D01*
X84696773Y-122740205D01*
X84696776Y-122740212D01*
X84818064Y-122950289D01*
X84818066Y-122950292D01*
X84818067Y-122950293D01*
X84965733Y-123142736D01*
X84965739Y-123142743D01*
X85137256Y-123314260D01*
X85137263Y-123314266D01*
X85250321Y-123401018D01*
X85329711Y-123461936D01*
X85539788Y-123583224D01*
X85763900Y-123676054D01*
X85998211Y-123738838D01*
X86178586Y-123762584D01*
X86238711Y-123770500D01*
X86238712Y-123770500D01*
X86481289Y-123770500D01*
X86529388Y-123764167D01*
X86721789Y-123738838D01*
X86956100Y-123676054D01*
X87180212Y-123583224D01*
X87272359Y-123530022D01*
X87340257Y-123513550D01*
X87406284Y-123536402D01*
X87412719Y-123541308D01*
X87438666Y-123562465D01*
X87496593Y-123609698D01*
X87676951Y-123703909D01*
X87872582Y-123759886D01*
X87991963Y-123770500D01*
X89808036Y-123770499D01*
X89927418Y-123759886D01*
X90123049Y-123703909D01*
X90303407Y-123609698D01*
X90461109Y-123481109D01*
X90589698Y-123323407D01*
X90683909Y-123143049D01*
X90739886Y-122947418D01*
X90750500Y-122828037D01*
X90750499Y-121011964D01*
X90739886Y-120892582D01*
X90683909Y-120696951D01*
X90589698Y-120516593D01*
X90533965Y-120448242D01*
X90461109Y-120358890D01*
X90335875Y-120256776D01*
X90303407Y-120230302D01*
X90123049Y-120136091D01*
X90123048Y-120136090D01*
X90123045Y-120136089D01*
X90005829Y-120102550D01*
X89927418Y-120080114D01*
X89927415Y-120080113D01*
X89927413Y-120080113D01*
X89861102Y-120074217D01*
X89808037Y-120069500D01*
X89808032Y-120069500D01*
X87991971Y-120069500D01*
X87991965Y-120069500D01*
X87991964Y-120069501D01*
X87980316Y-120070536D01*
X87872584Y-120080113D01*
X87676954Y-120136089D01*
X87496591Y-120230303D01*
X87412718Y-120298692D01*
X87348321Y-120325800D01*
X87279492Y-120313790D01*
X87272358Y-120309976D01*
X87180215Y-120256777D01*
X87180205Y-120256773D01*
X86956104Y-120163947D01*
X86721785Y-120101161D01*
X86533173Y-120076330D01*
X86469277Y-120048063D01*
X86461678Y-120041072D01*
X85546819Y-119126213D01*
X85513334Y-119064890D01*
X85510500Y-119038532D01*
X85510500Y-118676671D01*
X85530185Y-118609632D01*
X85582989Y-118563877D01*
X85652147Y-118553933D01*
X85681947Y-118562108D01*
X85763900Y-118596054D01*
X85998211Y-118658838D01*
X86178586Y-118682584D01*
X86238711Y-118690500D01*
X86238712Y-118690500D01*
X86481289Y-118690500D01*
X86529388Y-118684167D01*
X86721789Y-118658838D01*
X86956100Y-118596054D01*
X87180212Y-118503224D01*
X87272359Y-118450022D01*
X87340257Y-118433550D01*
X87406284Y-118456402D01*
X87412719Y-118461308D01*
X87438666Y-118482465D01*
X87496593Y-118529698D01*
X87676951Y-118623909D01*
X87872582Y-118679886D01*
X87991963Y-118690500D01*
X89808036Y-118690499D01*
X89927418Y-118679886D01*
X90123049Y-118623909D01*
X90303407Y-118529698D01*
X90461109Y-118401109D01*
X90589698Y-118243407D01*
X90683909Y-118063049D01*
X90739886Y-117867418D01*
X90750500Y-117748037D01*
X90750499Y-117021466D01*
X90770183Y-116954428D01*
X90786813Y-116933791D01*
X94139757Y-113580847D01*
X94201078Y-113547364D01*
X94211246Y-113545591D01*
X94332014Y-113529693D01*
X94559993Y-113468606D01*
X94778049Y-113378284D01*
X94982450Y-113260273D01*
X95117885Y-113156350D01*
X95172920Y-113114121D01*
X95173814Y-113115286D01*
X95231619Y-113088469D01*
X95286422Y-113096013D01*
X95296306Y-113096839D01*
X95297569Y-113097548D01*
X95300835Y-113097998D01*
X95325677Y-113112870D01*
X95329605Y-113115896D01*
X95330301Y-113116592D01*
X95381929Y-113156207D01*
X95382114Y-113156350D01*
X95382254Y-113156543D01*
X95406753Y-113181691D01*
X95451758Y-113243635D01*
X95586403Y-113378280D01*
X95611965Y-113403842D01*
X95611976Y-113403852D01*
X102497362Y-120289238D01*
X102497376Y-120289253D01*
X102500487Y-120292364D01*
X102500488Y-120292365D01*
X102656365Y-120448242D01*
X102656368Y-120448244D01*
X102656371Y-120448247D01*
X102722304Y-120496149D01*
X102750443Y-120516593D01*
X102834708Y-120577815D01*
X102834710Y-120577816D01*
X103031119Y-120677894D01*
X103031130Y-120677898D01*
X103240776Y-120746014D01*
X103240779Y-120746015D01*
X103458509Y-120780501D01*
X103458510Y-120780501D01*
X103684063Y-120780501D01*
X103684087Y-120780500D01*
X114184643Y-120780500D01*
X114184667Y-120780501D01*
X114189778Y-120780501D01*
X114410221Y-120780501D01*
X114410222Y-120780501D01*
X114627951Y-120746015D01*
X114837606Y-120677895D01*
X114845859Y-120673690D01*
X114914527Y-120660792D01*
X114979269Y-120687066D01*
X115019528Y-120744171D01*
X115022522Y-120813977D01*
X115021373Y-120818284D01*
X115000114Y-120892582D01*
X115000113Y-120892586D01*
X114989500Y-121011966D01*
X114989500Y-122828028D01*
X114989501Y-122828034D01*
X115000113Y-122947415D01*
X115056089Y-123143045D01*
X115056090Y-123143048D01*
X115056091Y-123143049D01*
X115150302Y-123323407D01*
X115150304Y-123323409D01*
X115278890Y-123481109D01*
X115352719Y-123541308D01*
X115436593Y-123609698D01*
X115616951Y-123703909D01*
X115812582Y-123759886D01*
X115931963Y-123770500D01*
X117748036Y-123770499D01*
X117867418Y-123759886D01*
X118063049Y-123703909D01*
X118243407Y-123609698D01*
X118327279Y-123541308D01*
X118391674Y-123514199D01*
X118460504Y-123526208D01*
X118467639Y-123530023D01*
X118559777Y-123583218D01*
X118559780Y-123583219D01*
X118559788Y-123583224D01*
X118783900Y-123676054D01*
X119018211Y-123738838D01*
X119198586Y-123762584D01*
X119258711Y-123770500D01*
X119258712Y-123770500D01*
X119501289Y-123770500D01*
X119549388Y-123764167D01*
X119741789Y-123738838D01*
X119976100Y-123676054D01*
X120200212Y-123583224D01*
X120410289Y-123461936D01*
X120602738Y-123314265D01*
X120774265Y-123142738D01*
X120921936Y-122950289D01*
X121043224Y-122740212D01*
X121136054Y-122516100D01*
X121198838Y-122281789D01*
X121223669Y-122093172D01*
X121251934Y-122029278D01*
X121258914Y-122021690D01*
X121817820Y-121462785D01*
X121879142Y-121429301D01*
X121948834Y-121434285D01*
X122004767Y-121476157D01*
X122029184Y-121541621D01*
X122029500Y-121550467D01*
X122029500Y-122318531D01*
X122009815Y-122385570D01*
X121993181Y-122406212D01*
X119278320Y-125121072D01*
X119216997Y-125154557D01*
X119206825Y-125156330D01*
X119018214Y-125181161D01*
X118783895Y-125243947D01*
X118559794Y-125336773D01*
X118559789Y-125336775D01*
X118467640Y-125389977D01*
X118399740Y-125406449D01*
X118333713Y-125383596D01*
X118327281Y-125378691D01*
X118243412Y-125310305D01*
X118243408Y-125310303D01*
X118243407Y-125310302D01*
X118063049Y-125216091D01*
X118063048Y-125216090D01*
X118063045Y-125216089D01*
X117945829Y-125182550D01*
X117867418Y-125160114D01*
X117867415Y-125160113D01*
X117867413Y-125160113D01*
X117801102Y-125154217D01*
X117748037Y-125149500D01*
X117748032Y-125149500D01*
X115931971Y-125149500D01*
X115931965Y-125149500D01*
X115931964Y-125149501D01*
X115920316Y-125150536D01*
X115812584Y-125160113D01*
X115616954Y-125216089D01*
X115563625Y-125243946D01*
X115436593Y-125310302D01*
X115436591Y-125310303D01*
X115436590Y-125310304D01*
X115278890Y-125438890D01*
X115150304Y-125596590D01*
X115056089Y-125776954D01*
X115000114Y-125972583D01*
X115000113Y-125972586D01*
X114989500Y-126091966D01*
X114989500Y-127908028D01*
X114989501Y-127908034D01*
X115000113Y-128027415D01*
X115056089Y-128223045D01*
X115056090Y-128223048D01*
X115056091Y-128223049D01*
X115150302Y-128403407D01*
X115150304Y-128403409D01*
X115278890Y-128561109D01*
X115352719Y-128621308D01*
X115436593Y-128689698D01*
X115616951Y-128783909D01*
X115812582Y-128839886D01*
X115931963Y-128850500D01*
X117748036Y-128850499D01*
X117867418Y-128839886D01*
X118063049Y-128783909D01*
X118243407Y-128689698D01*
X118327279Y-128621308D01*
X118391674Y-128594199D01*
X118460504Y-128606208D01*
X118467639Y-128610023D01*
X118559777Y-128663218D01*
X118559780Y-128663219D01*
X118559788Y-128663224D01*
X118783900Y-128756054D01*
X119018211Y-128818838D01*
X119198586Y-128842584D01*
X119258711Y-128850500D01*
X119258712Y-128850500D01*
X119501289Y-128850500D01*
X119549388Y-128844167D01*
X119741789Y-128818838D01*
X119976100Y-128756054D01*
X120200212Y-128663224D01*
X120410289Y-128541936D01*
X120602738Y-128394265D01*
X120774265Y-128222738D01*
X120921936Y-128030289D01*
X121043224Y-127820212D01*
X121136054Y-127596100D01*
X121198838Y-127361789D01*
X121223669Y-127173172D01*
X121251934Y-127109278D01*
X121258914Y-127101690D01*
X122148118Y-126212486D01*
X123709500Y-126212486D01*
X123709500Y-126507513D01*
X123728482Y-126651690D01*
X123748007Y-126799993D01*
X123748008Y-126799995D01*
X123824361Y-127084951D01*
X123824364Y-127084961D01*
X123937254Y-127357500D01*
X123937258Y-127357510D01*
X124084761Y-127612993D01*
X124264352Y-127847040D01*
X124264358Y-127847047D01*
X124472952Y-128055641D01*
X124472959Y-128055647D01*
X124707006Y-128235238D01*
X124962489Y-128382741D01*
X124962490Y-128382741D01*
X124962493Y-128382743D01*
X125235048Y-128495639D01*
X125520007Y-128571993D01*
X125812494Y-128610500D01*
X125812501Y-128610500D01*
X126107499Y-128610500D01*
X126107506Y-128610500D01*
X126399993Y-128571993D01*
X126684952Y-128495639D01*
X126957507Y-128382743D01*
X127212994Y-128235238D01*
X127447042Y-128055646D01*
X127655646Y-127847042D01*
X127835238Y-127612994D01*
X127982743Y-127357507D01*
X128095639Y-127084952D01*
X128171993Y-126799993D01*
X128210500Y-126507506D01*
X128210500Y-126212494D01*
X128171993Y-125920007D01*
X128095639Y-125635048D01*
X127982743Y-125362493D01*
X127967895Y-125336776D01*
X127835238Y-125107006D01*
X127655647Y-124872959D01*
X127655641Y-124872952D01*
X127447047Y-124664358D01*
X127447040Y-124664352D01*
X127212993Y-124484761D01*
X126957510Y-124337258D01*
X126957500Y-124337254D01*
X126684961Y-124224364D01*
X126684954Y-124224362D01*
X126684952Y-124224361D01*
X126399993Y-124148007D01*
X126351113Y-124141571D01*
X126107513Y-124109500D01*
X126107506Y-124109500D01*
X125812494Y-124109500D01*
X125812486Y-124109500D01*
X125534085Y-124146153D01*
X125520007Y-124148007D01*
X125235048Y-124224361D01*
X125235038Y-124224364D01*
X124962499Y-124337254D01*
X124962489Y-124337258D01*
X124707006Y-124484761D01*
X124472959Y-124664352D01*
X124472952Y-124664358D01*
X124264358Y-124872952D01*
X124264352Y-124872959D01*
X124084761Y-125107006D01*
X123937258Y-125362489D01*
X123937254Y-125362499D01*
X123824364Y-125635038D01*
X123824361Y-125635048D01*
X123786339Y-125776951D01*
X123748008Y-125920004D01*
X123748006Y-125920015D01*
X123709500Y-126212486D01*
X122148118Y-126212486D01*
X124335296Y-124025309D01*
X124335303Y-124025303D01*
X124342363Y-124018243D01*
X124342365Y-124018242D01*
X124498242Y-123862365D01*
X124627815Y-123684022D01*
X124727895Y-123487606D01*
X124796015Y-123277951D01*
X124807832Y-123203343D01*
X124830501Y-123060222D01*
X124830501Y-122839778D01*
X124830501Y-122835377D01*
X124830500Y-122835362D01*
X124830500Y-115277792D01*
X124830501Y-115277767D01*
X124830501Y-115052215D01*
X124830501Y-115052213D01*
X124796015Y-114834484D01*
X124727896Y-114624831D01*
X124727894Y-114624824D01*
X124627816Y-114428414D01*
X124600687Y-114391075D01*
X124528611Y-114291870D01*
X124498242Y-114250070D01*
X124342365Y-114094193D01*
X124342364Y-114094192D01*
X124339253Y-114091081D01*
X124339238Y-114091067D01*
X118900147Y-108651976D01*
X118900138Y-108651966D01*
X118895807Y-108647635D01*
X118739930Y-108491758D01*
X118739926Y-108491755D01*
X118739922Y-108491751D01*
X118561590Y-108362187D01*
X118561589Y-108362186D01*
X118561587Y-108362185D01*
X118478373Y-108319785D01*
X118365171Y-108262104D01*
X118365168Y-108262103D01*
X118155517Y-108193985D01*
X118046651Y-108176742D01*
X117937787Y-108159499D01*
X117717343Y-108159499D01*
X117712232Y-108159499D01*
X117712208Y-108159500D01*
X110403987Y-108159500D01*
X110403963Y-108159499D01*
X110398852Y-108159499D01*
X110178408Y-108159499D01*
X110105831Y-108170994D01*
X109960677Y-108193985D01*
X109751026Y-108262103D01*
X109751023Y-108262104D01*
X109554604Y-108362187D01*
X109376271Y-108491752D01*
X109376266Y-108491756D01*
X108151756Y-109716266D01*
X108151752Y-109716271D01*
X108050318Y-109855885D01*
X107994989Y-109898551D01*
X107925375Y-109904530D01*
X107863580Y-109871925D01*
X107849682Y-109855885D01*
X107748247Y-109716271D01*
X107748243Y-109716266D01*
X107592364Y-109560387D01*
X106523728Y-108491751D01*
X105244156Y-107212180D01*
X105210672Y-107150858D01*
X105215656Y-107081166D01*
X105257528Y-107025233D01*
X105322992Y-107000816D01*
X105331838Y-107000500D01*
X115912208Y-107000500D01*
X115912232Y-107000501D01*
X115917343Y-107000501D01*
X116137786Y-107000501D01*
X116137787Y-107000501D01*
X116355516Y-106966015D01*
X116565171Y-106897895D01*
X116761587Y-106797815D01*
X116818970Y-106756124D01*
X116939930Y-106668242D01*
X117095807Y-106512365D01*
X117095808Y-106512363D01*
X117102868Y-106505303D01*
X117102874Y-106505296D01*
X124335296Y-99272874D01*
X124335303Y-99272868D01*
X124342363Y-99265808D01*
X124342365Y-99265807D01*
X124498242Y-99109930D01*
X124627815Y-98931587D01*
X124727895Y-98735171D01*
X124796015Y-98525516D01*
X124802878Y-98482185D01*
X124830501Y-98307787D01*
X124830501Y-98087343D01*
X124830501Y-98082942D01*
X124830500Y-98082927D01*
X124830500Y-90525357D01*
X124830501Y-90525332D01*
X124830501Y-90299779D01*
X124817430Y-90217256D01*
X124796015Y-90082049D01*
X124749699Y-89939500D01*
X124727895Y-89872394D01*
X124627815Y-89675978D01*
X124587989Y-89621162D01*
X124498248Y-89497642D01*
X124498244Y-89497638D01*
X124498242Y-89497635D01*
X124342365Y-89341758D01*
X124342364Y-89341757D01*
X124339253Y-89338646D01*
X124339238Y-89338632D01*
X121258926Y-86258320D01*
X121233899Y-86212486D01*
X123709500Y-86212486D01*
X123709500Y-86507513D01*
X123728482Y-86651690D01*
X123748007Y-86799993D01*
X123748008Y-86799995D01*
X123824361Y-87084951D01*
X123824364Y-87084961D01*
X123937254Y-87357500D01*
X123937258Y-87357510D01*
X124084761Y-87612993D01*
X124264352Y-87847040D01*
X124264358Y-87847047D01*
X124472952Y-88055641D01*
X124472959Y-88055647D01*
X124707006Y-88235238D01*
X124962489Y-88382741D01*
X124962490Y-88382741D01*
X124962493Y-88382743D01*
X125235048Y-88495639D01*
X125520007Y-88571993D01*
X125812494Y-88610500D01*
X125812501Y-88610500D01*
X126107499Y-88610500D01*
X126107506Y-88610500D01*
X126399993Y-88571993D01*
X126684952Y-88495639D01*
X126957507Y-88382743D01*
X127212994Y-88235238D01*
X127447042Y-88055646D01*
X127655646Y-87847042D01*
X127835238Y-87612994D01*
X127982743Y-87357507D01*
X128095639Y-87084952D01*
X128171993Y-86799993D01*
X128210500Y-86507506D01*
X128210500Y-86212494D01*
X128171993Y-85920007D01*
X128095639Y-85635048D01*
X127982743Y-85362493D01*
X127965476Y-85332586D01*
X127835238Y-85107006D01*
X127655647Y-84872959D01*
X127655641Y-84872952D01*
X127447047Y-84664358D01*
X127447040Y-84664352D01*
X127212993Y-84484761D01*
X126957510Y-84337258D01*
X126957500Y-84337254D01*
X126684961Y-84224364D01*
X126684954Y-84224362D01*
X126684952Y-84224361D01*
X126399993Y-84148007D01*
X126351113Y-84141571D01*
X126107513Y-84109500D01*
X126107506Y-84109500D01*
X125812494Y-84109500D01*
X125812486Y-84109500D01*
X125534085Y-84146153D01*
X125520007Y-84148007D01*
X125235048Y-84224361D01*
X125235038Y-84224364D01*
X124962499Y-84337254D01*
X124962489Y-84337258D01*
X124707006Y-84484761D01*
X124472959Y-84664352D01*
X124472952Y-84664358D01*
X124264358Y-84872952D01*
X124264352Y-84872959D01*
X124084761Y-85107006D01*
X123937258Y-85362489D01*
X123937254Y-85362499D01*
X123824364Y-85635038D01*
X123824361Y-85635048D01*
X123789836Y-85763900D01*
X123748008Y-85920004D01*
X123748006Y-85920015D01*
X123709500Y-86212486D01*
X121233899Y-86212486D01*
X121225441Y-86196997D01*
X121223670Y-86186840D01*
X121198838Y-85998211D01*
X121136054Y-85763900D01*
X121043224Y-85539788D01*
X120921936Y-85329711D01*
X120861018Y-85250321D01*
X120774266Y-85137263D01*
X120774260Y-85137256D01*
X120602743Y-84965739D01*
X120602736Y-84965733D01*
X120410293Y-84818067D01*
X120410292Y-84818066D01*
X120410289Y-84818064D01*
X120200212Y-84696776D01*
X120200205Y-84696773D01*
X119976104Y-84603947D01*
X119741785Y-84541161D01*
X119501289Y-84509500D01*
X119501288Y-84509500D01*
X119258712Y-84509500D01*
X119258711Y-84509500D01*
X119018214Y-84541161D01*
X118783895Y-84603947D01*
X118559794Y-84696773D01*
X118559789Y-84696775D01*
X118467640Y-84749977D01*
X118399740Y-84766449D01*
X118333713Y-84743596D01*
X118327281Y-84738691D01*
X118243412Y-84670305D01*
X118243408Y-84670303D01*
X118243407Y-84670302D01*
X118063049Y-84576091D01*
X118063048Y-84576090D01*
X118063045Y-84576089D01*
X117945829Y-84542550D01*
X117867418Y-84520114D01*
X117867415Y-84520113D01*
X117867413Y-84520113D01*
X117801102Y-84514217D01*
X117748037Y-84509500D01*
X117748032Y-84509500D01*
X115931971Y-84509500D01*
X115931965Y-84509500D01*
X115931964Y-84509501D01*
X115920316Y-84510536D01*
X115812584Y-84520113D01*
X115616954Y-84576089D01*
X115563625Y-84603946D01*
X115436593Y-84670302D01*
X115436591Y-84670303D01*
X115436590Y-84670304D01*
X115278890Y-84798890D01*
X115150304Y-84956590D01*
X115056089Y-85136954D01*
X115036444Y-85205613D01*
X115000936Y-85329711D01*
X115000114Y-85332583D01*
X115000113Y-85332586D01*
X114989500Y-85451966D01*
X114989500Y-87268028D01*
X114989501Y-87268034D01*
X115000113Y-87387415D01*
X115056089Y-87583045D01*
X115056090Y-87583048D01*
X115056091Y-87583049D01*
X115150302Y-87763407D01*
X115150304Y-87763409D01*
X115278890Y-87921109D01*
X115352719Y-87981308D01*
X115436593Y-88049698D01*
X115616951Y-88143909D01*
X115812582Y-88199886D01*
X115931963Y-88210500D01*
X117748036Y-88210499D01*
X117867418Y-88199886D01*
X118063049Y-88143909D01*
X118243407Y-88049698D01*
X118327279Y-87981308D01*
X118391674Y-87954199D01*
X118460504Y-87966208D01*
X118467639Y-87970023D01*
X118559777Y-88023218D01*
X118559780Y-88023219D01*
X118559788Y-88023224D01*
X118783900Y-88116054D01*
X119018211Y-88178838D01*
X119206825Y-88203669D01*
X119270720Y-88231934D01*
X119278320Y-88238926D01*
X121993181Y-90953787D01*
X122026666Y-91015110D01*
X122029500Y-91041468D01*
X122029500Y-91809532D01*
X122009815Y-91876571D01*
X121957011Y-91922326D01*
X121887853Y-91932270D01*
X121824297Y-91903245D01*
X121817819Y-91897213D01*
X121258926Y-91338320D01*
X121225441Y-91276997D01*
X121223670Y-91266840D01*
X121198838Y-91078211D01*
X121136054Y-90843900D01*
X121043224Y-90619788D01*
X120921936Y-90409711D01*
X120774265Y-90217262D01*
X120774260Y-90217256D01*
X120602743Y-90045739D01*
X120602736Y-90045733D01*
X120410293Y-89898067D01*
X120410292Y-89898066D01*
X120410289Y-89898064D01*
X120200212Y-89776776D01*
X120200205Y-89776773D01*
X119976104Y-89683947D01*
X119741785Y-89621161D01*
X119501289Y-89589500D01*
X119501288Y-89589500D01*
X119258712Y-89589500D01*
X119258711Y-89589500D01*
X119018214Y-89621161D01*
X118783895Y-89683947D01*
X118559794Y-89776773D01*
X118559789Y-89776775D01*
X118467640Y-89829977D01*
X118399740Y-89846449D01*
X118333713Y-89823596D01*
X118327281Y-89818691D01*
X118243412Y-89750305D01*
X118243408Y-89750303D01*
X118243407Y-89750302D01*
X118063049Y-89656091D01*
X118063048Y-89656090D01*
X118063045Y-89656089D01*
X117945829Y-89622550D01*
X117867418Y-89600114D01*
X117867415Y-89600113D01*
X117867413Y-89600113D01*
X117801102Y-89594217D01*
X117748037Y-89589500D01*
X117748032Y-89589500D01*
X115931971Y-89589500D01*
X115931965Y-89589500D01*
X115931964Y-89589501D01*
X115920316Y-89590536D01*
X115812584Y-89600113D01*
X115616954Y-89656089D01*
X115578879Y-89675978D01*
X115436593Y-89750302D01*
X115436591Y-89750303D01*
X115436590Y-89750304D01*
X115278890Y-89878890D01*
X115150304Y-90036590D01*
X115056089Y-90216954D01*
X115011332Y-90373376D01*
X115000936Y-90409711D01*
X115000114Y-90412583D01*
X115000113Y-90412586D01*
X114992607Y-90497016D01*
X114990088Y-90525357D01*
X114989500Y-90531966D01*
X114989500Y-92348028D01*
X114989501Y-92348034D01*
X115000113Y-92467415D01*
X115056089Y-92663045D01*
X115056090Y-92663048D01*
X115056091Y-92663049D01*
X115150302Y-92843407D01*
X115150304Y-92843409D01*
X115278890Y-93001109D01*
X115352719Y-93061308D01*
X115436593Y-93129698D01*
X115616951Y-93223909D01*
X115812582Y-93279886D01*
X115931963Y-93290500D01*
X117748036Y-93290499D01*
X117867418Y-93279886D01*
X118063049Y-93223909D01*
X118243407Y-93129698D01*
X118327279Y-93061308D01*
X118391674Y-93034199D01*
X118460504Y-93046208D01*
X118467639Y-93050023D01*
X118559777Y-93103218D01*
X118559780Y-93103219D01*
X118559788Y-93103224D01*
X118783900Y-93196054D01*
X119018211Y-93258838D01*
X119206825Y-93283669D01*
X119270720Y-93311934D01*
X119278320Y-93318926D01*
X120193181Y-94233787D01*
X120226666Y-94295110D01*
X120229500Y-94321468D01*
X120229500Y-94683328D01*
X120209815Y-94750367D01*
X120157011Y-94796122D01*
X120087853Y-94806066D01*
X120058048Y-94797889D01*
X119976107Y-94763948D01*
X119872144Y-94736091D01*
X119741789Y-94701162D01*
X119741788Y-94701161D01*
X119741785Y-94701161D01*
X119501289Y-94669500D01*
X119501288Y-94669500D01*
X119258712Y-94669500D01*
X119258711Y-94669500D01*
X119018214Y-94701161D01*
X118783895Y-94763947D01*
X118559794Y-94856773D01*
X118559789Y-94856775D01*
X118467640Y-94909977D01*
X118399740Y-94926449D01*
X118333713Y-94903596D01*
X118327281Y-94898691D01*
X118243412Y-94830305D01*
X118243408Y-94830303D01*
X118243407Y-94830302D01*
X118063049Y-94736091D01*
X118063048Y-94736090D01*
X118063045Y-94736089D01*
X117945829Y-94702550D01*
X117867418Y-94680114D01*
X117867415Y-94680113D01*
X117867413Y-94680113D01*
X117801102Y-94674217D01*
X117748037Y-94669500D01*
X117748032Y-94669500D01*
X115931971Y-94669500D01*
X115931965Y-94669500D01*
X115931964Y-94669501D01*
X115920316Y-94670536D01*
X115812584Y-94680113D01*
X115616954Y-94736089D01*
X115563625Y-94763946D01*
X115436593Y-94830302D01*
X115436591Y-94830303D01*
X115436590Y-94830304D01*
X115278890Y-94958890D01*
X115185145Y-95073861D01*
X115127524Y-95113378D01*
X115089043Y-95119500D01*
X113283987Y-95119500D01*
X113283963Y-95119499D01*
X113278852Y-95119499D01*
X113058408Y-95119499D01*
X112985831Y-95130994D01*
X112840677Y-95153985D01*
X112631026Y-95222103D01*
X112631023Y-95222104D01*
X112434604Y-95322187D01*
X112256271Y-95451752D01*
X112256266Y-95451756D01*
X108307635Y-99400388D01*
X108307634Y-99400389D01*
X108260478Y-99447544D01*
X108199155Y-99481028D01*
X108129463Y-99476043D01*
X108073530Y-99434171D01*
X108050325Y-99379260D01*
X108049967Y-99377004D01*
X108046015Y-99352049D01*
X107979400Y-99147027D01*
X107978339Y-99143266D01*
X107977895Y-99142394D01*
X107877815Y-98945978D01*
X107865750Y-98929372D01*
X107748248Y-98767642D01*
X107748244Y-98767638D01*
X107748242Y-98767635D01*
X107592365Y-98611758D01*
X107592364Y-98611757D01*
X107589253Y-98608646D01*
X107589238Y-98608632D01*
X104592582Y-95611976D01*
X104592573Y-95611966D01*
X104527864Y-95547257D01*
X104432365Y-95451758D01*
X104432361Y-95451755D01*
X104432357Y-95451751D01*
X104254025Y-95322187D01*
X104254024Y-95322186D01*
X104254022Y-95322185D01*
X104184493Y-95286758D01*
X104057606Y-95222104D01*
X104057603Y-95222103D01*
X103847952Y-95153985D01*
X103739086Y-95136742D01*
X103630222Y-95119499D01*
X103409778Y-95119499D01*
X103404667Y-95119499D01*
X103404643Y-95119500D01*
X90650957Y-95119500D01*
X90583918Y-95099815D01*
X90554855Y-95073861D01*
X90461109Y-94958890D01*
X90335875Y-94856776D01*
X90303407Y-94830302D01*
X90123049Y-94736091D01*
X90123048Y-94736090D01*
X90123045Y-94736089D01*
X90005829Y-94702550D01*
X89927418Y-94680114D01*
X89927415Y-94680113D01*
X89927413Y-94680113D01*
X89861102Y-94674217D01*
X89808037Y-94669500D01*
X89808032Y-94669500D01*
X87991971Y-94669500D01*
X87991965Y-94669500D01*
X87991964Y-94669501D01*
X87980316Y-94670536D01*
X87872584Y-94680113D01*
X87676954Y-94736089D01*
X87496591Y-94830303D01*
X87412718Y-94898692D01*
X87348321Y-94925800D01*
X87279492Y-94913790D01*
X87272358Y-94909976D01*
X87180215Y-94856777D01*
X87180205Y-94856773D01*
X86956104Y-94763947D01*
X86721785Y-94701161D01*
X86481289Y-94669500D01*
X86481288Y-94669500D01*
X86238712Y-94669500D01*
X86238711Y-94669500D01*
X85998214Y-94701161D01*
X85763892Y-94763948D01*
X85681952Y-94797889D01*
X85612483Y-94805358D01*
X85550004Y-94774083D01*
X85514352Y-94713994D01*
X85510500Y-94683328D01*
X85510500Y-94321467D01*
X85530185Y-94254428D01*
X85546815Y-94233790D01*
X86461680Y-93318924D01*
X86523001Y-93285441D01*
X86533154Y-93283671D01*
X86721789Y-93258838D01*
X86956100Y-93196054D01*
X87180212Y-93103224D01*
X87272359Y-93050022D01*
X87340257Y-93033550D01*
X87406284Y-93056402D01*
X87412719Y-93061308D01*
X87425790Y-93071966D01*
X87496593Y-93129698D01*
X87676951Y-93223909D01*
X87872582Y-93279886D01*
X87991963Y-93290500D01*
X89808036Y-93290499D01*
X89927418Y-93279886D01*
X90123049Y-93223909D01*
X90303407Y-93129698D01*
X90461109Y-93001109D01*
X90589698Y-92843407D01*
X90683909Y-92663049D01*
X90739886Y-92467418D01*
X90750500Y-92348037D01*
X90750499Y-90531964D01*
X90739886Y-90412582D01*
X90683909Y-90216951D01*
X90589698Y-90036593D01*
X90510529Y-89939500D01*
X90461109Y-89878890D01*
X90335875Y-89776776D01*
X90303407Y-89750302D01*
X90123049Y-89656091D01*
X90123048Y-89656090D01*
X90123045Y-89656089D01*
X90005829Y-89622550D01*
X89927418Y-89600114D01*
X89927415Y-89600113D01*
X89927413Y-89600113D01*
X89861102Y-89594217D01*
X89808037Y-89589500D01*
X89808032Y-89589500D01*
X87991971Y-89589500D01*
X87991965Y-89589500D01*
X87991964Y-89589501D01*
X87980316Y-89590536D01*
X87872584Y-89600113D01*
X87676954Y-89656089D01*
X87496591Y-89750303D01*
X87412718Y-89818692D01*
X87348321Y-89845800D01*
X87279492Y-89833790D01*
X87272358Y-89829976D01*
X87180215Y-89776777D01*
X87180205Y-89776773D01*
X86956104Y-89683947D01*
X86721785Y-89621161D01*
X86481289Y-89589500D01*
X86481288Y-89589500D01*
X86238712Y-89589500D01*
X86238711Y-89589500D01*
X85998214Y-89621161D01*
X85763895Y-89683947D01*
X85539794Y-89776773D01*
X85539785Y-89776777D01*
X85329706Y-89898067D01*
X85137263Y-90045733D01*
X85137256Y-90045739D01*
X84965739Y-90217256D01*
X84965733Y-90217263D01*
X84818067Y-90409706D01*
X84818064Y-90409710D01*
X84818064Y-90409711D01*
X84816406Y-90412583D01*
X84696777Y-90619785D01*
X84696773Y-90619794D01*
X84603947Y-90843895D01*
X84541161Y-91078214D01*
X84516330Y-91266825D01*
X84488063Y-91330721D01*
X84481072Y-91338320D01*
X83922181Y-91897212D01*
X83860858Y-91930697D01*
X83791167Y-91925713D01*
X83735233Y-91883842D01*
X83710816Y-91818377D01*
X83710500Y-91809531D01*
X83710500Y-91041467D01*
X83730185Y-90974428D01*
X83746814Y-90953791D01*
X86461680Y-88238924D01*
X86523001Y-88205441D01*
X86533154Y-88203671D01*
X86721789Y-88178838D01*
X86956100Y-88116054D01*
X87180212Y-88023224D01*
X87272359Y-87970022D01*
X87340257Y-87953550D01*
X87406284Y-87976402D01*
X87412719Y-87981308D01*
X87438666Y-88002465D01*
X87496593Y-88049698D01*
X87676951Y-88143909D01*
X87872582Y-88199886D01*
X87991963Y-88210500D01*
X89808036Y-88210499D01*
X89927418Y-88199886D01*
X90123049Y-88143909D01*
X90303407Y-88049698D01*
X90461109Y-87921109D01*
X90589698Y-87763407D01*
X90683909Y-87583049D01*
X90739886Y-87387418D01*
X90750500Y-87268037D01*
X90750499Y-85451964D01*
X90739886Y-85332582D01*
X90683909Y-85136951D01*
X90589698Y-84956593D01*
X90537684Y-84892803D01*
X90461109Y-84798890D01*
X90335875Y-84696776D01*
X90303407Y-84670302D01*
X90123049Y-84576091D01*
X90123048Y-84576090D01*
X90123045Y-84576089D01*
X90005829Y-84542550D01*
X89927418Y-84520114D01*
X89927415Y-84520113D01*
X89927413Y-84520113D01*
X89861102Y-84514217D01*
X89808037Y-84509500D01*
X89808032Y-84509500D01*
X87991971Y-84509500D01*
X87991965Y-84509500D01*
X87991964Y-84509501D01*
X87980316Y-84510536D01*
X87872584Y-84520113D01*
X87676954Y-84576089D01*
X87496591Y-84670303D01*
X87412718Y-84738692D01*
X87348321Y-84765800D01*
X87279492Y-84753790D01*
X87272358Y-84749976D01*
X87180215Y-84696777D01*
X87180205Y-84696773D01*
X86956104Y-84603947D01*
X86721785Y-84541161D01*
X86481289Y-84509500D01*
X86481288Y-84509500D01*
X86238712Y-84509500D01*
X86238711Y-84509500D01*
X85998214Y-84541161D01*
X85763895Y-84603947D01*
X85539794Y-84696773D01*
X85539785Y-84696777D01*
X85329706Y-84818067D01*
X85137263Y-84965733D01*
X85137256Y-84965739D01*
X84965739Y-85137256D01*
X84965733Y-85137263D01*
X84818067Y-85329706D01*
X84818064Y-85329710D01*
X84818064Y-85329711D01*
X84816406Y-85332583D01*
X84696777Y-85539785D01*
X84696773Y-85539794D01*
X84603947Y-85763895D01*
X84541161Y-85998214D01*
X84516330Y-86186825D01*
X84488063Y-86250721D01*
X84481072Y-86258320D01*
X81397638Y-89341755D01*
X81241759Y-89497633D01*
X81241754Y-89497638D01*
X81175014Y-89589500D01*
X81112187Y-89675974D01*
X81012104Y-89872393D01*
X81012103Y-89872396D01*
X80943985Y-90082047D01*
X80909499Y-90299778D01*
X56380500Y-90299778D01*
X56380500Y-86212486D01*
X58709500Y-86212486D01*
X58709500Y-86507513D01*
X58728482Y-86651690D01*
X58748007Y-86799993D01*
X58748008Y-86799995D01*
X58824361Y-87084951D01*
X58824364Y-87084961D01*
X58937254Y-87357500D01*
X58937258Y-87357510D01*
X59084761Y-87612993D01*
X59264352Y-87847040D01*
X59264358Y-87847047D01*
X59472952Y-88055641D01*
X59472959Y-88055647D01*
X59707006Y-88235238D01*
X59962489Y-88382741D01*
X59962490Y-88382741D01*
X59962493Y-88382743D01*
X60235048Y-88495639D01*
X60520007Y-88571993D01*
X60812494Y-88610500D01*
X60812501Y-88610500D01*
X61107499Y-88610500D01*
X61107506Y-88610500D01*
X61399993Y-88571993D01*
X61684952Y-88495639D01*
X61957507Y-88382743D01*
X62212994Y-88235238D01*
X62447042Y-88055646D01*
X62655646Y-87847042D01*
X62835238Y-87612994D01*
X62982743Y-87357507D01*
X63095639Y-87084952D01*
X63171993Y-86799993D01*
X63210500Y-86507506D01*
X63210500Y-86212494D01*
X63171993Y-85920007D01*
X63095639Y-85635048D01*
X62982743Y-85362493D01*
X62965476Y-85332586D01*
X62835238Y-85107006D01*
X62655647Y-84872959D01*
X62655641Y-84872952D01*
X62447047Y-84664358D01*
X62447040Y-84664352D01*
X62212993Y-84484761D01*
X61957510Y-84337258D01*
X61957500Y-84337254D01*
X61684961Y-84224364D01*
X61684954Y-84224362D01*
X61684952Y-84224361D01*
X61399993Y-84148007D01*
X61351113Y-84141571D01*
X61107513Y-84109500D01*
X61107506Y-84109500D01*
X60812494Y-84109500D01*
X60812486Y-84109500D01*
X60534085Y-84146153D01*
X60520007Y-84148007D01*
X60235048Y-84224361D01*
X60235038Y-84224364D01*
X59962499Y-84337254D01*
X59962489Y-84337258D01*
X59707006Y-84484761D01*
X59472959Y-84664352D01*
X59472952Y-84664358D01*
X59264358Y-84872952D01*
X59264352Y-84872959D01*
X59084761Y-85107006D01*
X58937258Y-85362489D01*
X58937254Y-85362499D01*
X58824364Y-85635038D01*
X58824361Y-85635048D01*
X58789836Y-85763900D01*
X58748008Y-85920004D01*
X58748006Y-85920015D01*
X58709500Y-86212486D01*
X56380500Y-86212486D01*
X56380500Y-81904500D01*
X56400185Y-81837461D01*
X56452989Y-81791706D01*
X56504500Y-81780500D01*
X128915500Y-81780500D01*
X128982539Y-81800185D01*
G37*
G04 #@! TD.AperFunction*
G04 #@! TD*
M02*
