G04 #@! TF.GenerationSoftware,KiCad,Pcbnew,10.0.0*
G04 #@! TF.CreationDate,2026-04-05T20:46:54+02:00*
G04 #@! TF.ProjectId,4050 level shifter,34303530-206c-4657-9665-6c2073686966,rev?*
G04 #@! TF.SameCoordinates,Original*
G04 #@! TF.FileFunction,Copper,L1,Top*
G04 #@! TF.FilePolarity,Positive*
%FSLAX46Y46*%
G04 Gerber Fmt 4.6, Leading zero omitted, Abs format (unit mm)*
G04 Created by KiCad (PCBNEW 10.0.0) date 2026-04-05 20:46:54*
%MOMM*%
%LPD*%
G01*
G04 APERTURE LIST*
G04 Aperture macros list*
%AMRoundRect*
0 Rectangle with rounded corners*
0 $1 Rounding radius*
0 $2 $3 $4 $5 $6 $7 $8 $9 X,Y pos of 4 corners*
0 Add a 4 corners polygon primitive as box body*
4,1,4,$2,$3,$4,$5,$6,$7,$8,$9,$2,$3,0*
0 Add four circle primitives for the rounded corners*
1,1,$1+$1,$2,$3*
1,1,$1+$1,$4,$5*
1,1,$1+$1,$6,$7*
1,1,$1+$1,$8,$9*
0 Add four rect primitives between the rounded corners*
20,1,$1+$1,$2,$3,$4,$5,0*
20,1,$1+$1,$4,$5,$6,$7,0*
20,1,$1+$1,$6,$7,$8,$9,0*
20,1,$1+$1,$8,$9,$2,$3,0*%
G04 Aperture macros list end*
G04 #@! TA.AperFunction,ComponentPad*
%ADD10RoundRect,0.250000X-0.725000X0.600000X-0.725000X-0.600000X0.725000X-0.600000X0.725000X0.600000X0*%
G04 #@! TD*
G04 #@! TA.AperFunction,ComponentPad*
%ADD11O,1.950000X1.700000*%
G04 #@! TD*
G04 #@! TA.AperFunction,ComponentPad*
%ADD12RoundRect,0.250000X-0.550000X0.550000X-0.550000X-0.550000X0.550000X-0.550000X0.550000X0.550000X0*%
G04 #@! TD*
G04 #@! TA.AperFunction,ComponentPad*
%ADD13C,1.600000*%
G04 #@! TD*
G04 #@! TA.AperFunction,ComponentPad*
%ADD14R,1.700000X1.700000*%
G04 #@! TD*
G04 #@! TA.AperFunction,ComponentPad*
%ADD15C,1.700000*%
G04 #@! TD*
G04 #@! TA.AperFunction,ViaPad*
%ADD16C,0.600000*%
G04 #@! TD*
G04 #@! TA.AperFunction,Conductor*
%ADD17C,0.200000*%
G04 #@! TD*
G04 #@! TA.AperFunction,Conductor*
%ADD18C,0.800000*%
G04 #@! TD*
G04 APERTURE END LIST*
D10*
G04 #@! TO.P,J1,1,Pin_1_1*
G04 #@! TO.N,VSS*
X63500000Y-104140000D03*
D11*
G04 #@! TO.P,J1,2,Pin_2_2*
G04 #@! TO.N,Net-(J1-Pin_2)*
X63500000Y-106640000D03*
G04 #@! TO.P,J1,3,Pin_3_3*
G04 #@! TO.N,VDD*
X63500000Y-109140000D03*
G04 #@! TD*
D12*
G04 #@! TO.P,U1,1,Vdd_1*
G04 #@! TO.N,VDD*
X111760000Y-101600000D03*
D13*
G04 #@! TO.P,U1,2*
G04 #@! TO.N,Net-(J3-Pin_1)*
X109220000Y-101600000D03*
G04 #@! TO.P,U1,3*
G04 #@! TO.N,Net-(J2-Pin_1)*
X106680000Y-101600000D03*
G04 #@! TO.P,U1,4*
G04 #@! TO.N,Net-(J5-Pin_1)*
X104140000Y-101600000D03*
G04 #@! TO.P,U1,5*
G04 #@! TO.N,Net-(J4-Pin_1)*
X101600000Y-101600000D03*
G04 #@! TO.P,U1,6*
G04 #@! TO.N,Net-(J7-Pin_1)*
X99060000Y-101600000D03*
G04 #@! TO.P,U1,7*
G04 #@! TO.N,Net-(J6-Pin_1)*
X96520000Y-101600000D03*
G04 #@! TO.P,U1,8,Vss_8*
G04 #@! TO.N,VSS*
X93980000Y-101600000D03*
G04 #@! TO.P,U1,9*
G04 #@! TO.N,Net-(J8-Pin_1)*
X93980000Y-111760000D03*
G04 #@! TO.P,U1,10*
G04 #@! TO.N,Net-(J9-Pin_1)*
X96520000Y-111760000D03*
G04 #@! TO.P,U1,11*
G04 #@! TO.N,Net-(J10-Pin_1)*
X99060000Y-111760000D03*
G04 #@! TO.P,U1,12*
G04 #@! TO.N,Net-(J11-Pin_1)*
X101600000Y-111760000D03*
G04 #@! TO.P,U1,13*
G04 #@! TO.N,N/C*
X104140000Y-111760000D03*
G04 #@! TO.P,U1,14*
G04 #@! TO.N,Net-(J12-Pin_1)*
X106680000Y-111760000D03*
G04 #@! TO.P,U1,15*
G04 #@! TO.N,Net-(J13-Pin_1)*
X109220000Y-111760000D03*
G04 #@! TO.P,U1,16*
G04 #@! TO.N,N/C*
X111760000Y-111760000D03*
G04 #@! TD*
D14*
G04 #@! TO.P,J6,1,Pin_1_1*
G04 #@! TO.N,Net-(J6-Pin_1)*
X88900000Y-86360000D03*
D15*
G04 #@! TO.P,J6,2,Pin_2_2*
X86360000Y-86360000D03*
G04 #@! TD*
D14*
G04 #@! TO.P,J5,1,Pin_1_1*
G04 #@! TO.N,Net-(J5-Pin_1)*
X116840000Y-91440000D03*
D15*
G04 #@! TO.P,J5,2,Pin_2_2*
X119380000Y-91440000D03*
G04 #@! TD*
D14*
G04 #@! TO.P,J9,1,Pin_1_1*
G04 #@! TO.N,Net-(J9-Pin_1)*
X116840000Y-116840000D03*
D15*
G04 #@! TO.P,J9,2,Pin_2_2*
X119380000Y-116840000D03*
G04 #@! TD*
D14*
G04 #@! TO.P,J10,1,Pin_1_1*
G04 #@! TO.N,Net-(J10-Pin_1)*
X88900000Y-121920000D03*
D15*
G04 #@! TO.P,J10,2,Pin_2_2*
X86360000Y-121920000D03*
G04 #@! TD*
D14*
G04 #@! TO.P,J13,1,Pin_1_1*
G04 #@! TO.N,Net-(J13-Pin_1)*
X116840000Y-127000000D03*
D15*
G04 #@! TO.P,J13,2,Pin_2_2*
X119380000Y-127000000D03*
G04 #@! TD*
D14*
G04 #@! TO.P,J3,1,Pin_1_1*
G04 #@! TO.N,Net-(J3-Pin_1)*
X116840000Y-96520000D03*
D15*
G04 #@! TO.P,J3,2,Pin_2_2*
X119380000Y-96520000D03*
G04 #@! TD*
D14*
G04 #@! TO.P,J7,1,Pin_1_1*
G04 #@! TO.N,Net-(J7-Pin_1)*
X116840000Y-86360000D03*
D15*
G04 #@! TO.P,J7,2,Pin_2_2*
X119380000Y-86360000D03*
G04 #@! TD*
D14*
G04 #@! TO.P,J15,1,Pin_1_1*
G04 #@! TO.N,VSS*
X63500000Y-116840000D03*
D15*
G04 #@! TO.P,J15,2,Pin_2_2*
X66040000Y-116840000D03*
G04 #@! TO.P,J15,3,Pin_3_3*
X68580000Y-116840000D03*
G04 #@! TO.P,J15,4,Pin_4_4*
X71120000Y-116840000D03*
G04 #@! TD*
D14*
G04 #@! TO.P,J4,1,Pin_1_1*
G04 #@! TO.N,Net-(J4-Pin_1)*
X88900000Y-91440000D03*
D15*
G04 #@! TO.P,J4,2,Pin_2_2*
X86360000Y-91440000D03*
G04 #@! TD*
D14*
G04 #@! TO.P,J14,1,Pin_1_1*
G04 #@! TO.N,Net-(J1-Pin_2)*
X63500000Y-93980000D03*
D15*
G04 #@! TO.P,J14,2,Pin_2_2*
X66040000Y-93980000D03*
G04 #@! TO.P,J14,3,Pin_3_3*
X68580000Y-93980000D03*
G04 #@! TO.P,J14,4,Pin_4_4*
X71120000Y-93980000D03*
G04 #@! TD*
D14*
G04 #@! TO.P,J2,1,Pin_1_1*
G04 #@! TO.N,Net-(J2-Pin_1)*
X88900000Y-96520000D03*
D15*
G04 #@! TO.P,J2,2,Pin_2_2*
X86360000Y-96520000D03*
G04 #@! TD*
D14*
G04 #@! TO.P,J11,1,Pin_1_1*
G04 #@! TO.N,Net-(J11-Pin_1)*
X116840000Y-121920000D03*
D15*
G04 #@! TO.P,J11,2,Pin_2_2*
X119380000Y-121920000D03*
G04 #@! TD*
D14*
G04 #@! TO.P,J12,1,Pin_1_1*
G04 #@! TO.N,Net-(J12-Pin_1)*
X88900000Y-127000000D03*
D15*
G04 #@! TO.P,J12,2,Pin_2_2*
X86360000Y-127000000D03*
G04 #@! TD*
D14*
G04 #@! TO.P,J8,1,Pin_1_1*
G04 #@! TO.N,Net-(J8-Pin_1)*
X88900000Y-116840000D03*
D15*
G04 #@! TO.P,J8,2,Pin_2_2*
X86360000Y-116840000D03*
G04 #@! TD*
D16*
G04 #@! TO.N,VSS*
X106680000Y-93980000D03*
X124460000Y-106680000D03*
X106680000Y-116840000D03*
X99060000Y-121920000D03*
X78740000Y-104140000D03*
G04 #@! TD*
G04 #@! TO.N,VSS*
D17*
X112552590Y-99700000D02*
X106832590Y-93980000D01*
X117480000Y-99700000D02*
X112552590Y-99700000D01*
X124460000Y-106680000D02*
X117480000Y-99700000D01*
X119527006Y-106680000D02*
X124460000Y-106680000D01*
X109367006Y-116840000D02*
X119527006Y-106680000D01*
X106680000Y-116840000D02*
X109367006Y-116840000D01*
X101600000Y-121920000D02*
X106680000Y-116840000D01*
X99060000Y-121920000D02*
X101600000Y-121920000D01*
X81280000Y-104140000D02*
X99060000Y-121920000D01*
X78740000Y-104140000D02*
X81280000Y-104140000D01*
D18*
X86360000Y-101600000D02*
X71120000Y-116840000D01*
X93980000Y-101600000D02*
X86360000Y-101600000D01*
G04 #@! TO.N,VDD*
X110131270Y-99400000D02*
X74765000Y-99400000D01*
X111760000Y-101028730D02*
X110131270Y-99400000D01*
X65025000Y-109140000D02*
X63500000Y-109140000D01*
X111760000Y-101600000D02*
X111760000Y-101028730D01*
X74765000Y-99400000D02*
X65025000Y-109140000D01*
G04 #@! TD*
M02*
