G04 #@! TF.GenerationSoftware,KiCad,Pcbnew,10.0.0*
G04 #@! TF.CreationDate,2026-04-05T21:15:09+02:00*
G04 #@! TF.ProjectId,4050 level shifter,34303530-206c-4657-9665-6c2073686966,rev?*
G04 #@! TF.SameCoordinates,Original*
G04 #@! TF.FileFunction,Copper,L2,Bot*
G04 #@! TF.FilePolarity,Positive*
%FSLAX46Y46*%
G04 Gerber Fmt 4.6, Leading zero omitted, Abs format (unit mm)*
G04 Created by KiCad (PCBNEW 10.0.0) date 2026-04-05 21:15:09*
%MOMM*%
%LPD*%
G01*
G04 APERTURE LIST*
G04 Aperture macros list*
%AMRoundRect*
0 Rectangle with rounded corners*
0 $1 Rounding radius*
0 $2 $3 $4 $5 $6 $7 $8 $9 X,Y pos of 4 corners*
0 Add a 4 corners polygon primitive as box body*
4,1,4,$2,$3,$4,$5,$6,$7,$8,$9,$2,$3,0*
0 Add four circle primitives for the rounded corners*
1,1,$1+$1,$2,$3*
1,1,$1+$1,$4,$5*
1,1,$1+$1,$6,$7*
1,1,$1+$1,$8,$9*
0 Add four rect primitives between the rounded corners*
20,1,$1+$1,$2,$3,$4,$5,0*
20,1,$1+$1,$4,$5,$6,$7,0*
20,1,$1+$1,$6,$7,$8,$9,0*
20,1,$1+$1,$8,$9,$2,$3,0*%
G04 Aperture macros list end*
G04 #@! TA.AperFunction,ComponentPad*
%ADD10RoundRect,0.250000X-0.725000X0.600000X-0.725000X-0.600000X0.725000X-0.600000X0.725000X0.600000X0*%
G04 #@! TD*
G04 #@! TA.AperFunction,ComponentPad*
%ADD11O,1.950000X1.700000*%
G04 #@! TD*
G04 #@! TA.AperFunction,ComponentPad*
%ADD12RoundRect,0.250000X-0.550000X0.550000X-0.550000X-0.550000X0.550000X-0.550000X0.550000X0.550000X0*%
G04 #@! TD*
G04 #@! TA.AperFunction,ComponentPad*
%ADD13C,1.600000*%
G04 #@! TD*
G04 #@! TA.AperFunction,ComponentPad*
%ADD14R,1.700000X1.700000*%
G04 #@! TD*
G04 #@! TA.AperFunction,ComponentPad*
%ADD15C,1.700000*%
G04 #@! TD*
G04 #@! TA.AperFunction,ViaPad*
%ADD16C,0.600000*%
G04 #@! TD*
G04 #@! TA.AperFunction,Conductor*
%ADD17C,0.800000*%
G04 #@! TD*
G04 APERTURE END LIST*
D10*
G04 #@! TO.P,J1,1,Pin_1_1*
G04 #@! TO.N,VSS*
X7620000Y-22860000D03*
D11*
G04 #@! TO.P,J1,2,Pin_2_2*
G04 #@! TO.N,Net-(J1-Pin_2)*
X7620000Y-25360000D03*
G04 #@! TO.P,J1,3,Pin_3_3*
G04 #@! TO.N,VDD*
X7620000Y-27860000D03*
G04 #@! TD*
D12*
G04 #@! TO.P,U1,1,Vdd_1*
G04 #@! TO.N,VDD*
X55880000Y-20320000D03*
D13*
G04 #@! TO.P,U1,2*
G04 #@! TO.N,Net-(J3-Pin_1)*
X53340000Y-20320000D03*
G04 #@! TO.P,U1,3*
G04 #@! TO.N,Net-(J2-Pin_1)*
X50800000Y-20320000D03*
G04 #@! TO.P,U1,4*
G04 #@! TO.N,Net-(J5-Pin_1)*
X48260000Y-20320000D03*
G04 #@! TO.P,U1,5*
G04 #@! TO.N,Net-(J4-Pin_1)*
X45720000Y-20320000D03*
G04 #@! TO.P,U1,6*
G04 #@! TO.N,Net-(J7-Pin_1)*
X43180000Y-20320000D03*
G04 #@! TO.P,U1,7*
G04 #@! TO.N,Net-(J6-Pin_1)*
X40640000Y-20320000D03*
G04 #@! TO.P,U1,8,Vss_8*
G04 #@! TO.N,VSS*
X38100000Y-20320000D03*
G04 #@! TO.P,U1,9*
G04 #@! TO.N,Net-(J8-Pin_1)*
X38100000Y-30480000D03*
G04 #@! TO.P,U1,10*
G04 #@! TO.N,Net-(J9-Pin_1)*
X40640000Y-30480000D03*
G04 #@! TO.P,U1,11*
G04 #@! TO.N,Net-(J10-Pin_1)*
X43180000Y-30480000D03*
G04 #@! TO.P,U1,12*
G04 #@! TO.N,Net-(J11-Pin_1)*
X45720000Y-30480000D03*
G04 #@! TO.P,U1,13*
G04 #@! TO.N,N/C*
X48260000Y-30480000D03*
G04 #@! TO.P,U1,14*
G04 #@! TO.N,Net-(J12-Pin_1)*
X50800000Y-30480000D03*
G04 #@! TO.P,U1,15*
G04 #@! TO.N,Net-(J13-Pin_1)*
X53340000Y-30480000D03*
G04 #@! TO.P,U1,16*
G04 #@! TO.N,N/C*
X55880000Y-30480000D03*
G04 #@! TD*
D14*
G04 #@! TO.P,J6,1,Pin_1_1*
G04 #@! TO.N,Net-(J6-Pin_1)*
X33020000Y-5080000D03*
D15*
G04 #@! TO.P,J6,2,Pin_2_2*
X30480000Y-5080000D03*
G04 #@! TD*
D14*
G04 #@! TO.P,J5,1,Pin_1_1*
G04 #@! TO.N,Net-(J5-Pin_1)*
X60960000Y-10160000D03*
D15*
G04 #@! TO.P,J5,2,Pin_2_2*
X63500000Y-10160000D03*
G04 #@! TD*
D14*
G04 #@! TO.P,J9,1,Pin_1_1*
G04 #@! TO.N,Net-(J9-Pin_1)*
X60960000Y-35560000D03*
D15*
G04 #@! TO.P,J9,2,Pin_2_2*
X63500000Y-35560000D03*
G04 #@! TD*
D14*
G04 #@! TO.P,J10,1,Pin_1_1*
G04 #@! TO.N,Net-(J10-Pin_1)*
X33020000Y-40640000D03*
D15*
G04 #@! TO.P,J10,2,Pin_2_2*
X30480000Y-40640000D03*
G04 #@! TD*
D14*
G04 #@! TO.P,J13,1,Pin_1_1*
G04 #@! TO.N,Net-(J13-Pin_1)*
X60960000Y-45720000D03*
D15*
G04 #@! TO.P,J13,2,Pin_2_2*
X63500000Y-45720000D03*
G04 #@! TD*
D14*
G04 #@! TO.P,J3,1,Pin_1_1*
G04 #@! TO.N,Net-(J3-Pin_1)*
X60960000Y-15240000D03*
D15*
G04 #@! TO.P,J3,2,Pin_2_2*
X63500000Y-15240000D03*
G04 #@! TD*
D14*
G04 #@! TO.P,J7,1,Pin_1_1*
G04 #@! TO.N,Net-(J7-Pin_1)*
X60960000Y-5080000D03*
D15*
G04 #@! TO.P,J7,2,Pin_2_2*
X63500000Y-5080000D03*
G04 #@! TD*
D14*
G04 #@! TO.P,J15,1,Pin_1_1*
G04 #@! TO.N,VSS*
X7620000Y-35560000D03*
D15*
G04 #@! TO.P,J15,2,Pin_2_2*
X10160000Y-35560000D03*
G04 #@! TO.P,J15,3,Pin_3_3*
X12700000Y-35560000D03*
G04 #@! TO.P,J15,4,Pin_4_4*
X15240000Y-35560000D03*
G04 #@! TD*
D14*
G04 #@! TO.P,J4,1,Pin_1_1*
G04 #@! TO.N,Net-(J4-Pin_1)*
X33020000Y-10160000D03*
D15*
G04 #@! TO.P,J4,2,Pin_2_2*
X30480000Y-10160000D03*
G04 #@! TD*
D14*
G04 #@! TO.P,J14,1,Pin_1_1*
G04 #@! TO.N,Net-(J1-Pin_2)*
X7620000Y-12700000D03*
D15*
G04 #@! TO.P,J14,2,Pin_2_2*
X10160000Y-12700000D03*
G04 #@! TO.P,J14,3,Pin_3_3*
X12700000Y-12700000D03*
G04 #@! TO.P,J14,4,Pin_4_4*
X15240000Y-12700000D03*
G04 #@! TD*
D14*
G04 #@! TO.P,J2,1,Pin_1_1*
G04 #@! TO.N,Net-(J2-Pin_1)*
X33020000Y-15240000D03*
D15*
G04 #@! TO.P,J2,2,Pin_2_2*
X30480000Y-15240000D03*
G04 #@! TD*
D14*
G04 #@! TO.P,J11,1,Pin_1_1*
G04 #@! TO.N,Net-(J11-Pin_1)*
X60960000Y-40640000D03*
D15*
G04 #@! TO.P,J11,2,Pin_2_2*
X63500000Y-40640000D03*
G04 #@! TD*
D14*
G04 #@! TO.P,J12,1,Pin_1_1*
G04 #@! TO.N,Net-(J12-Pin_1)*
X33020000Y-45720000D03*
D15*
G04 #@! TO.P,J12,2,Pin_2_2*
X30480000Y-45720000D03*
G04 #@! TD*
D14*
G04 #@! TO.P,J8,1,Pin_1_1*
G04 #@! TO.N,Net-(J8-Pin_1)*
X33020000Y-35560000D03*
D15*
G04 #@! TO.P,J8,2,Pin_2_2*
X30480000Y-35560000D03*
G04 #@! TD*
D16*
G04 #@! TO.N,VSS*
X50800000Y-12700000D03*
X68580000Y-25400000D03*
X50800000Y-35560000D03*
X43180000Y-40640000D03*
X22860000Y-22860000D03*
G04 #@! TD*
G04 #@! TO.N,VSS*
D17*
X7620000Y-22860000D02*
X8426981Y-22860000D01*
X15240000Y-35560000D02*
X7620000Y-35560000D01*
G04 #@! TO.N,Net-(J1-Pin_2)*
X7620000Y-12700000D02*
X5245000Y-15075000D01*
X5245000Y-24510000D02*
X6095000Y-25360000D01*
X5245000Y-15075000D02*
X5245000Y-24510000D01*
X6095000Y-25360000D02*
X7620000Y-25360000D01*
X7620000Y-12700000D02*
X15240000Y-12700000D01*
G04 #@! TO.N,Net-(J3-Pin_1)*
X53340000Y-19188630D02*
X53340000Y-20320000D01*
X60960000Y-15240000D02*
X63500000Y-15240000D01*
X57288630Y-15240000D02*
X53340000Y-19188630D01*
X60960000Y-15240000D02*
X57288630Y-15240000D01*
G04 #@! TO.N,Net-(J2-Pin_1)*
X50800000Y-18400000D02*
X50800000Y-20320000D01*
X47640000Y-15240000D02*
X50800000Y-18400000D01*
X33020000Y-15240000D02*
X47640000Y-15240000D01*
X30480000Y-15240000D02*
X33020000Y-15240000D01*
G04 #@! TO.N,Net-(J5-Pin_1)*
X49328630Y-22520000D02*
X48260000Y-21451370D01*
X59401981Y-22520000D02*
X49328630Y-22520000D01*
X65750000Y-16171981D02*
X59401981Y-22520000D01*
X60960000Y-10160000D02*
X63500000Y-10160000D01*
X63500000Y-10160000D02*
X65750000Y-12410000D01*
X65750000Y-12410000D02*
X65750000Y-16171981D01*
X48260000Y-21451370D02*
X48260000Y-20320000D01*
G04 #@! TO.N,Net-(J4-Pin_1)*
X33020000Y-10160000D02*
X30480000Y-10160000D01*
X28230000Y-12410000D02*
X28230000Y-16171981D01*
X44651370Y-18120000D02*
X45720000Y-19188630D01*
X45720000Y-19188630D02*
X45720000Y-20320000D01*
X30178019Y-18120000D02*
X44651370Y-18120000D01*
X30480000Y-10160000D02*
X28230000Y-12410000D01*
X28230000Y-16171981D02*
X30178019Y-18120000D01*
G04 #@! TO.N,Net-(J7-Pin_1)*
X67550000Y-16917565D02*
X60147565Y-24320000D01*
X60147565Y-24320000D02*
X44640000Y-24320000D01*
X60960000Y-5080000D02*
X63500000Y-5080000D01*
X63500000Y-5080000D02*
X67550000Y-9130000D01*
X43180000Y-22860000D02*
X43180000Y-20320000D01*
X67550000Y-9130000D02*
X67550000Y-16917565D01*
X44640000Y-24320000D02*
X43180000Y-22860000D01*
G04 #@! TO.N,Net-(J6-Pin_1)*
X26430000Y-9130000D02*
X26430000Y-16917565D01*
X30480000Y-5080000D02*
X26430000Y-9130000D01*
X40640000Y-21451370D02*
X40640000Y-20320000D01*
X39571370Y-22520000D02*
X40640000Y-21451370D01*
X32032435Y-22520000D02*
X39571370Y-22520000D01*
X26430000Y-16917565D02*
X32032435Y-22520000D01*
X30480000Y-5080000D02*
X33020000Y-5080000D01*
G04 #@! TO.N,Net-(J8-Pin_1)*
X33020000Y-35560000D02*
X38100000Y-30480000D01*
X30480000Y-35560000D02*
X33020000Y-35560000D01*
G04 #@! TO.N,Net-(J9-Pin_1)*
X63500000Y-35560000D02*
X60960000Y-35560000D01*
X47688730Y-38100000D02*
X40640000Y-31051270D01*
X40640000Y-31051270D02*
X40640000Y-30480000D01*
X58420000Y-38100000D02*
X47688730Y-38100000D01*
X60960000Y-35560000D02*
X58420000Y-38100000D01*
G04 #@! TO.N,Net-(J10-Pin_1)*
X43180000Y-29348630D02*
X43180000Y-30480000D01*
X28230000Y-38390000D02*
X28230000Y-34628019D01*
X30480000Y-40640000D02*
X28230000Y-38390000D01*
X28230000Y-34628019D02*
X34578019Y-28280000D01*
X42111370Y-28280000D02*
X43180000Y-29348630D01*
X34578019Y-28280000D02*
X42111370Y-28280000D01*
X33020000Y-40640000D02*
X30480000Y-40640000D01*
G04 #@! TO.N,Net-(J11-Pin_1)*
X45720000Y-31611370D02*
X45720000Y-30480000D01*
X65750000Y-34628019D02*
X63801981Y-32680000D01*
X63500000Y-40640000D02*
X65750000Y-38390000D01*
X65750000Y-38390000D02*
X65750000Y-34628019D01*
X60960000Y-40640000D02*
X63500000Y-40640000D01*
X46788630Y-32680000D02*
X45720000Y-31611370D01*
X63801981Y-32680000D02*
X46788630Y-32680000D01*
G04 #@! TO.N,Net-(J12-Pin_1)*
X26430000Y-41670000D02*
X26430000Y-33882435D01*
X50800000Y-29348630D02*
X50800000Y-30480000D01*
X30480000Y-45720000D02*
X26430000Y-41670000D01*
X34192435Y-26120000D02*
X47571370Y-26120000D01*
X33020000Y-45720000D02*
X30480000Y-45720000D01*
X26430000Y-33882435D02*
X34192435Y-26120000D01*
X47571370Y-26120000D02*
X50800000Y-29348630D01*
G04 #@! TO.N,Net-(J13-Pin_1)*
X63500000Y-45720000D02*
X67550000Y-41670000D01*
X67550000Y-33882435D02*
X61947565Y-28280000D01*
X67550000Y-41670000D02*
X67550000Y-33882435D01*
X60960000Y-45720000D02*
X63500000Y-45720000D01*
X54408630Y-28280000D02*
X53340000Y-29348630D01*
X61947565Y-28280000D02*
X54408630Y-28280000D01*
X53340000Y-29348630D02*
X53340000Y-30480000D01*
G04 #@! TD*
G04 #@! TA.AperFunction,Conductor*
G04 #@! TO.N,VSS*
G36*
X44324812Y-31962396D02*
G01*
X44374804Y-32011207D01*
X44384621Y-32033613D01*
X44422103Y-32148973D01*
X44422104Y-32148976D01*
X44522187Y-32345395D01*
X44651751Y-32523727D01*
X44651755Y-32523731D01*
X44651758Y-32523735D01*
X44807635Y-32679612D01*
X44811965Y-32683942D01*
X44811976Y-32683952D01*
X45717262Y-33589238D01*
X45717276Y-33589253D01*
X45720387Y-33592364D01*
X45720388Y-33592365D01*
X45876265Y-33748242D01*
X45876268Y-33748244D01*
X45876272Y-33748248D01*
X46044261Y-33870299D01*
X46044262Y-33870299D01*
X46044268Y-33870303D01*
X46054608Y-33877815D01*
X46091821Y-33896776D01*
X46251023Y-33977895D01*
X46251026Y-33977896D01*
X46355851Y-34011955D01*
X46460679Y-34046015D01*
X46678408Y-34080501D01*
X46678409Y-34080501D01*
X46903963Y-34080501D01*
X46903987Y-34080500D01*
X59105380Y-34080500D01*
X59172419Y-34100185D01*
X59218174Y-34152989D01*
X59228118Y-34222147D01*
X59215290Y-34261907D01*
X59190742Y-34308904D01*
X59176089Y-34336954D01*
X59120114Y-34532583D01*
X59120113Y-34532586D01*
X59109500Y-34651966D01*
X59109500Y-35378531D01*
X59089815Y-35445570D01*
X59073181Y-35466212D01*
X57876213Y-36663181D01*
X57814890Y-36696666D01*
X57788532Y-36699500D01*
X48320198Y-36699500D01*
X48253159Y-36679815D01*
X48232517Y-36663181D01*
X43889766Y-32320430D01*
X43856281Y-32259107D01*
X43861265Y-32189415D01*
X43903137Y-32133482D01*
X43929991Y-32118190D01*
X43978049Y-32098284D01*
X44182450Y-31980273D01*
X44191201Y-31973557D01*
X44256366Y-31948362D01*
X44324812Y-31962396D01*
G37*
G04 #@! TD.AperFunction*
G04 #@! TA.AperFunction,Conductor*
G36*
X73102539Y-520185D02*
G01*
X73148294Y-572989D01*
X73159500Y-624500D01*
X73159500Y-50175500D01*
X73139815Y-50242539D01*
X73087011Y-50288294D01*
X73035500Y-50299500D01*
X624500Y-50299500D01*
X557461Y-50279815D01*
X511706Y-50227011D01*
X500500Y-50175500D01*
X500500Y-44932486D01*
X2829500Y-44932486D01*
X2829500Y-45227513D01*
X2848482Y-45371690D01*
X2868007Y-45519993D01*
X2868008Y-45519995D01*
X2944361Y-45804951D01*
X2944364Y-45804961D01*
X3057254Y-46077500D01*
X3057258Y-46077510D01*
X3204761Y-46332993D01*
X3384352Y-46567040D01*
X3384358Y-46567047D01*
X3592952Y-46775641D01*
X3592959Y-46775647D01*
X3827006Y-46955238D01*
X4082489Y-47102741D01*
X4082490Y-47102741D01*
X4082493Y-47102743D01*
X4355048Y-47215639D01*
X4640007Y-47291993D01*
X4932494Y-47330500D01*
X4932501Y-47330500D01*
X5227499Y-47330500D01*
X5227506Y-47330500D01*
X5519993Y-47291993D01*
X5804952Y-47215639D01*
X6077507Y-47102743D01*
X6332994Y-46955238D01*
X6567042Y-46775646D01*
X6775646Y-46567042D01*
X6955238Y-46332994D01*
X7102743Y-46077507D01*
X7215639Y-45804952D01*
X7291993Y-45519993D01*
X7330500Y-45227506D01*
X7330500Y-44932494D01*
X7291993Y-44640007D01*
X7215639Y-44355048D01*
X7102743Y-44082493D01*
X7087895Y-44056776D01*
X6955238Y-43827006D01*
X6775647Y-43592959D01*
X6775641Y-43592952D01*
X6567047Y-43384358D01*
X6567040Y-43384352D01*
X6332993Y-43204761D01*
X6077510Y-43057258D01*
X6077500Y-43057254D01*
X5804961Y-42944364D01*
X5804954Y-42944362D01*
X5804952Y-42944361D01*
X5519993Y-42868007D01*
X5471113Y-42861571D01*
X5227513Y-42829500D01*
X5227506Y-42829500D01*
X4932494Y-42829500D01*
X4932486Y-42829500D01*
X4654085Y-42866153D01*
X4640007Y-42868007D01*
X4355048Y-42944361D01*
X4355038Y-42944364D01*
X4082499Y-43057254D01*
X4082489Y-43057258D01*
X3827006Y-43204761D01*
X3592959Y-43384352D01*
X3592952Y-43384358D01*
X3384358Y-43592952D01*
X3384352Y-43592959D01*
X3204761Y-43827006D01*
X3057258Y-44082489D01*
X3057254Y-44082499D01*
X2944364Y-44355038D01*
X2944361Y-44355048D01*
X2906339Y-44496951D01*
X2868008Y-44640004D01*
X2868006Y-44640015D01*
X2829500Y-44932486D01*
X500500Y-44932486D01*
X500500Y-34662155D01*
X6270000Y-34662155D01*
X6270000Y-35310000D01*
X7186988Y-35310000D01*
X7154075Y-35367007D01*
X7120000Y-35494174D01*
X7120000Y-35625826D01*
X7154075Y-35752993D01*
X7186988Y-35810000D01*
X6270000Y-35810000D01*
X6270000Y-36457844D01*
X6276401Y-36517372D01*
X6276403Y-36517379D01*
X6326645Y-36652086D01*
X6326649Y-36652093D01*
X6412809Y-36767187D01*
X6412812Y-36767190D01*
X6527906Y-36853350D01*
X6527913Y-36853354D01*
X6662620Y-36903596D01*
X6662627Y-36903598D01*
X6722155Y-36909999D01*
X6722172Y-36910000D01*
X7370000Y-36910000D01*
X7370000Y-35993012D01*
X7427007Y-36025925D01*
X7554174Y-36060000D01*
X7685826Y-36060000D01*
X7812993Y-36025925D01*
X7870000Y-35993012D01*
X7870000Y-36910000D01*
X8517828Y-36910000D01*
X8517844Y-36909999D01*
X8577372Y-36903598D01*
X8577379Y-36903596D01*
X8712086Y-36853354D01*
X8712093Y-36853350D01*
X8827187Y-36767190D01*
X8827190Y-36767187D01*
X8913350Y-36652093D01*
X8913354Y-36652086D01*
X8935529Y-36592632D01*
X8974319Y-36419390D01*
X8974682Y-36418734D01*
X8974642Y-36417984D01*
X9007642Y-36358802D01*
X9677037Y-35689408D01*
X9694075Y-35752993D01*
X9759901Y-35867007D01*
X9852993Y-35960099D01*
X9967007Y-36025925D01*
X10030590Y-36042962D01*
X9398282Y-36675269D01*
X9398282Y-36675270D01*
X9452449Y-36714624D01*
X9641782Y-36811095D01*
X9843870Y-36876757D01*
X10053754Y-36910000D01*
X10266246Y-36910000D01*
X10476127Y-36876757D01*
X10476130Y-36876757D01*
X10678217Y-36811095D01*
X10867554Y-36714622D01*
X10921716Y-36675270D01*
X10921717Y-36675270D01*
X10289408Y-36042962D01*
X10352993Y-36025925D01*
X10467007Y-35960099D01*
X10560099Y-35867007D01*
X10625925Y-35752993D01*
X10642962Y-35689408D01*
X11275270Y-36321717D01*
X11275270Y-36321716D01*
X11314622Y-36267554D01*
X11319514Y-36257954D01*
X11367488Y-36207157D01*
X11435308Y-36190361D01*
X11501444Y-36212897D01*
X11540486Y-36257954D01*
X11545375Y-36267550D01*
X11584728Y-36321716D01*
X12217037Y-35689408D01*
X12234075Y-35752993D01*
X12299901Y-35867007D01*
X12392993Y-35960099D01*
X12507007Y-36025925D01*
X12570590Y-36042962D01*
X11938282Y-36675269D01*
X11938282Y-36675270D01*
X11992449Y-36714624D01*
X12181782Y-36811095D01*
X12383870Y-36876757D01*
X12593754Y-36910000D01*
X12806246Y-36910000D01*
X13016127Y-36876757D01*
X13016130Y-36876757D01*
X13218217Y-36811095D01*
X13407554Y-36714622D01*
X13461716Y-36675270D01*
X13461717Y-36675270D01*
X12829408Y-36042962D01*
X12892993Y-36025925D01*
X13007007Y-35960099D01*
X13100099Y-35867007D01*
X13165925Y-35752993D01*
X13182962Y-35689408D01*
X13815270Y-36321717D01*
X13815270Y-36321716D01*
X13854622Y-36267554D01*
X13859514Y-36257954D01*
X13907488Y-36207157D01*
X13975308Y-36190361D01*
X14041444Y-36212897D01*
X14080486Y-36257954D01*
X14085375Y-36267550D01*
X14124728Y-36321716D01*
X14757037Y-35689408D01*
X14774075Y-35752993D01*
X14839901Y-35867007D01*
X14932993Y-35960099D01*
X15047007Y-36025925D01*
X15110590Y-36042962D01*
X14478282Y-36675269D01*
X14478282Y-36675270D01*
X14532449Y-36714624D01*
X14721782Y-36811095D01*
X14923870Y-36876757D01*
X15133754Y-36910000D01*
X15346246Y-36910000D01*
X15556127Y-36876757D01*
X15556130Y-36876757D01*
X15758217Y-36811095D01*
X15947554Y-36714622D01*
X16001716Y-36675270D01*
X16001717Y-36675270D01*
X15369408Y-36042962D01*
X15432993Y-36025925D01*
X15547007Y-35960099D01*
X15640099Y-35867007D01*
X15705925Y-35752993D01*
X15722962Y-35689408D01*
X16355270Y-36321717D01*
X16355270Y-36321716D01*
X16394622Y-36267554D01*
X16491095Y-36078217D01*
X16556757Y-35876130D01*
X16556757Y-35876127D01*
X16590000Y-35666246D01*
X16590000Y-35453753D01*
X16556757Y-35243872D01*
X16556757Y-35243869D01*
X16491095Y-35041782D01*
X16394624Y-34852449D01*
X16355270Y-34798282D01*
X16355269Y-34798282D01*
X15722962Y-35430590D01*
X15705925Y-35367007D01*
X15640099Y-35252993D01*
X15547007Y-35159901D01*
X15432993Y-35094075D01*
X15369409Y-35077037D01*
X16001716Y-34444728D01*
X15947550Y-34405375D01*
X15758217Y-34308904D01*
X15556129Y-34243242D01*
X15346246Y-34210000D01*
X15133754Y-34210000D01*
X14923872Y-34243242D01*
X14923869Y-34243242D01*
X14721782Y-34308904D01*
X14532439Y-34405380D01*
X14478282Y-34444727D01*
X14478282Y-34444728D01*
X15110591Y-35077037D01*
X15047007Y-35094075D01*
X14932993Y-35159901D01*
X14839901Y-35252993D01*
X14774075Y-35367007D01*
X14757037Y-35430591D01*
X14124728Y-34798282D01*
X14124727Y-34798282D01*
X14085380Y-34852440D01*
X14080483Y-34862051D01*
X14032506Y-34912845D01*
X13964684Y-34929638D01*
X13898550Y-34907098D01*
X13859516Y-34862048D01*
X13854626Y-34852452D01*
X13815270Y-34798282D01*
X13815269Y-34798282D01*
X13182962Y-35430590D01*
X13165925Y-35367007D01*
X13100099Y-35252993D01*
X13007007Y-35159901D01*
X12892993Y-35094075D01*
X12829409Y-35077037D01*
X13461716Y-34444728D01*
X13407550Y-34405375D01*
X13218217Y-34308904D01*
X13016129Y-34243242D01*
X12806246Y-34210000D01*
X12593754Y-34210000D01*
X12383872Y-34243242D01*
X12383869Y-34243242D01*
X12181782Y-34308904D01*
X11992439Y-34405380D01*
X11938282Y-34444727D01*
X11938282Y-34444728D01*
X12570591Y-35077037D01*
X12507007Y-35094075D01*
X12392993Y-35159901D01*
X12299901Y-35252993D01*
X12234075Y-35367007D01*
X12217037Y-35430591D01*
X11584728Y-34798282D01*
X11584727Y-34798282D01*
X11545380Y-34852440D01*
X11540483Y-34862051D01*
X11492506Y-34912845D01*
X11424684Y-34929638D01*
X11358550Y-34907098D01*
X11319516Y-34862048D01*
X11314626Y-34852452D01*
X11275270Y-34798282D01*
X11275269Y-34798282D01*
X10642962Y-35430590D01*
X10625925Y-35367007D01*
X10560099Y-35252993D01*
X10467007Y-35159901D01*
X10352993Y-35094075D01*
X10289409Y-35077037D01*
X10921716Y-34444728D01*
X10867550Y-34405375D01*
X10678217Y-34308904D01*
X10476129Y-34243242D01*
X10266246Y-34210000D01*
X10053754Y-34210000D01*
X9843872Y-34243242D01*
X9843869Y-34243242D01*
X9641782Y-34308904D01*
X9452439Y-34405380D01*
X9398282Y-34444727D01*
X9398282Y-34444728D01*
X10030591Y-35077037D01*
X9967007Y-35094075D01*
X9852993Y-35159901D01*
X9759901Y-35252993D01*
X9694075Y-35367007D01*
X9677037Y-35430591D01*
X9007642Y-34761196D01*
X8997133Y-34742090D01*
X8987566Y-34732714D01*
X8981488Y-34713644D01*
X8974319Y-34700609D01*
X8935527Y-34527364D01*
X8913354Y-34467913D01*
X8913350Y-34467906D01*
X8827190Y-34352812D01*
X8827187Y-34352809D01*
X8712093Y-34266649D01*
X8712086Y-34266645D01*
X8577379Y-34216403D01*
X8577372Y-34216401D01*
X8517844Y-34210000D01*
X7870000Y-34210000D01*
X7870000Y-35126988D01*
X7812993Y-35094075D01*
X7685826Y-35060000D01*
X7554174Y-35060000D01*
X7427007Y-35094075D01*
X7370000Y-35126988D01*
X7370000Y-34210000D01*
X6722155Y-34210000D01*
X6662627Y-34216401D01*
X6662620Y-34216403D01*
X6527913Y-34266645D01*
X6527906Y-34266649D01*
X6412812Y-34352809D01*
X6412809Y-34352812D01*
X6326649Y-34467906D01*
X6326645Y-34467913D01*
X6276403Y-34602620D01*
X6276401Y-34602627D01*
X6270000Y-34662155D01*
X500500Y-34662155D01*
X500500Y-14964778D01*
X3844499Y-14964778D01*
X3844499Y-15185222D01*
X3844499Y-15185227D01*
X3844500Y-15190356D01*
X3844500Y-24395362D01*
X3844499Y-24395377D01*
X3844499Y-24399778D01*
X3844499Y-24620222D01*
X3860174Y-24719184D01*
X3860224Y-24719500D01*
X3860224Y-24719501D01*
X3878985Y-24837952D01*
X3947103Y-25047603D01*
X3947104Y-25047606D01*
X4015122Y-25181096D01*
X4044479Y-25238712D01*
X4047187Y-25244025D01*
X4176751Y-25422357D01*
X4176755Y-25422361D01*
X4176758Y-25422365D01*
X4272207Y-25517814D01*
X4336965Y-25582572D01*
X4336976Y-25582582D01*
X5023632Y-26269238D01*
X5023646Y-26269253D01*
X5026757Y-26272364D01*
X5026758Y-26272365D01*
X5182635Y-26428242D01*
X5182638Y-26428244D01*
X5182641Y-26428247D01*
X5244722Y-26473350D01*
X5271217Y-26492600D01*
X5336433Y-26539982D01*
X5360979Y-26557816D01*
X5557389Y-26657894D01*
X5557400Y-26657898D01*
X5753827Y-26721719D01*
X5767049Y-26726015D01*
X5814131Y-26733472D01*
X5877266Y-26763401D01*
X5914198Y-26822712D01*
X5913200Y-26892574D01*
X5902122Y-26917944D01*
X5831775Y-27039789D01*
X5831773Y-27039794D01*
X5738947Y-27263895D01*
X5676161Y-27498214D01*
X5644500Y-27738711D01*
X5644500Y-27981288D01*
X5676161Y-28221785D01*
X5738947Y-28456104D01*
X5804601Y-28614606D01*
X5831776Y-28680212D01*
X5953064Y-28890289D01*
X5953066Y-28890292D01*
X5953067Y-28890293D01*
X6100733Y-29082736D01*
X6100739Y-29082743D01*
X6272256Y-29254260D01*
X6272262Y-29254265D01*
X6464711Y-29401936D01*
X6674788Y-29523224D01*
X6898900Y-29616054D01*
X7133211Y-29678838D01*
X7313586Y-29702584D01*
X7373711Y-29710500D01*
X7373712Y-29710500D01*
X7866289Y-29710500D01*
X7914388Y-29704167D01*
X8106789Y-29678838D01*
X8341100Y-29616054D01*
X8565212Y-29523224D01*
X8775289Y-29401936D01*
X8967738Y-29254265D01*
X9139265Y-29082738D01*
X9286936Y-28890289D01*
X9408224Y-28680212D01*
X9501054Y-28456100D01*
X9563838Y-28221789D01*
X9595500Y-27981288D01*
X9595500Y-27738712D01*
X9563838Y-27498211D01*
X9501054Y-27263900D01*
X9408224Y-27039788D01*
X9286936Y-26829711D01*
X9176266Y-26685483D01*
X9151074Y-26620317D01*
X9165112Y-26551873D01*
X9176261Y-26534523D01*
X9286936Y-26390289D01*
X9408224Y-26180212D01*
X9501054Y-25956100D01*
X9563838Y-25721789D01*
X9595500Y-25481288D01*
X9595500Y-25238712D01*
X9594664Y-25232365D01*
X9570887Y-25051756D01*
X9563838Y-24998211D01*
X9501054Y-24763900D01*
X9408224Y-24539788D01*
X9286936Y-24329711D01*
X9139265Y-24137262D01*
X9139260Y-24137256D01*
X9003987Y-24001983D01*
X8970502Y-23940660D01*
X8975486Y-23870968D01*
X8986130Y-23849204D01*
X9029355Y-23779126D01*
X9029358Y-23779119D01*
X9084505Y-23612697D01*
X9084506Y-23612690D01*
X9094999Y-23509986D01*
X9095000Y-23509973D01*
X9095000Y-23110000D01*
X8024146Y-23110000D01*
X8062630Y-23043343D01*
X8095000Y-22922535D01*
X8095000Y-22797465D01*
X8062630Y-22676657D01*
X8024146Y-22610000D01*
X9094999Y-22610000D01*
X9094999Y-22210028D01*
X9094998Y-22210013D01*
X9084505Y-22107302D01*
X9029358Y-21940880D01*
X9029356Y-21940875D01*
X8937315Y-21791654D01*
X8813345Y-21667684D01*
X8664124Y-21575643D01*
X8664119Y-21575641D01*
X8497697Y-21520494D01*
X8497690Y-21520493D01*
X8394986Y-21510000D01*
X7870000Y-21510000D01*
X7870000Y-22455854D01*
X7803343Y-22417370D01*
X7682535Y-22385000D01*
X7557465Y-22385000D01*
X7436657Y-22417370D01*
X7370000Y-22455854D01*
X7370000Y-21510000D01*
X6845028Y-21510000D01*
X6845010Y-21510001D01*
X6782101Y-21516428D01*
X6713408Y-21503658D01*
X6662524Y-21455777D01*
X6645500Y-21393070D01*
X6645500Y-15706467D01*
X6665185Y-15639428D01*
X6681814Y-15618790D01*
X7713787Y-14586817D01*
X7775110Y-14553333D01*
X7801468Y-14550499D01*
X8528028Y-14550499D01*
X8528036Y-14550499D01*
X8647418Y-14539886D01*
X8843049Y-14483909D01*
X9023407Y-14389698D01*
X9107279Y-14321308D01*
X9171674Y-14294199D01*
X9240504Y-14306208D01*
X9247639Y-14310023D01*
X9339777Y-14363218D01*
X9339780Y-14363219D01*
X9339788Y-14363224D01*
X9563900Y-14456054D01*
X9798211Y-14518838D01*
X9978586Y-14542584D01*
X10038711Y-14550500D01*
X10038712Y-14550500D01*
X10281289Y-14550500D01*
X10329388Y-14544167D01*
X10521789Y-14518838D01*
X10756100Y-14456054D01*
X10980212Y-14363224D01*
X11190289Y-14241936D01*
X11341219Y-14126123D01*
X11406387Y-14100930D01*
X11416704Y-14100500D01*
X11443296Y-14100500D01*
X11510335Y-14120185D01*
X11518769Y-14126114D01*
X11669711Y-14241936D01*
X11879788Y-14363224D01*
X12103900Y-14456054D01*
X12338211Y-14518838D01*
X12518586Y-14542584D01*
X12578711Y-14550500D01*
X12578712Y-14550500D01*
X12821289Y-14550500D01*
X12869388Y-14544167D01*
X13061789Y-14518838D01*
X13296100Y-14456054D01*
X13520212Y-14363224D01*
X13730289Y-14241936D01*
X13881219Y-14126123D01*
X13946387Y-14100930D01*
X13956704Y-14100500D01*
X13983296Y-14100500D01*
X14050335Y-14120185D01*
X14058769Y-14126114D01*
X14209711Y-14241936D01*
X14419788Y-14363224D01*
X14643900Y-14456054D01*
X14878211Y-14518838D01*
X15058586Y-14542584D01*
X15118711Y-14550500D01*
X15118712Y-14550500D01*
X15361289Y-14550500D01*
X15409388Y-14544167D01*
X15601789Y-14518838D01*
X15836100Y-14456054D01*
X16060212Y-14363224D01*
X16270289Y-14241936D01*
X16462738Y-14094265D01*
X16634265Y-13922738D01*
X16781936Y-13730289D01*
X16903224Y-13520212D01*
X16996054Y-13296100D01*
X17058838Y-13061789D01*
X17090500Y-12821288D01*
X17090500Y-12578712D01*
X17058838Y-12338211D01*
X16996054Y-12103900D01*
X16903224Y-11879788D01*
X16781936Y-11669711D01*
X16634265Y-11477262D01*
X16634260Y-11477256D01*
X16462743Y-11305739D01*
X16462736Y-11305733D01*
X16270293Y-11158067D01*
X16270292Y-11158066D01*
X16270289Y-11158064D01*
X16060212Y-11036776D01*
X16060205Y-11036773D01*
X15836104Y-10943947D01*
X15601785Y-10881161D01*
X15361289Y-10849500D01*
X15361288Y-10849500D01*
X15118712Y-10849500D01*
X15118711Y-10849500D01*
X14878214Y-10881161D01*
X14643895Y-10943947D01*
X14419794Y-11036773D01*
X14419785Y-11036777D01*
X14209710Y-11158064D01*
X14171456Y-11187418D01*
X14058780Y-11273876D01*
X13993613Y-11299070D01*
X13983296Y-11299500D01*
X13956704Y-11299500D01*
X13889665Y-11279815D01*
X13881230Y-11273885D01*
X13730289Y-11158064D01*
X13574356Y-11068036D01*
X13520214Y-11036777D01*
X13520205Y-11036773D01*
X13296104Y-10943947D01*
X13061785Y-10881161D01*
X12821289Y-10849500D01*
X12821288Y-10849500D01*
X12578712Y-10849500D01*
X12578711Y-10849500D01*
X12338214Y-10881161D01*
X12103895Y-10943947D01*
X11879794Y-11036773D01*
X11879785Y-11036777D01*
X11669710Y-11158064D01*
X11631456Y-11187418D01*
X11518780Y-11273876D01*
X11453613Y-11299070D01*
X11443296Y-11299500D01*
X11416704Y-11299500D01*
X11349665Y-11279815D01*
X11341230Y-11273885D01*
X11190289Y-11158064D01*
X11034356Y-11068036D01*
X10980214Y-11036777D01*
X10980205Y-11036773D01*
X10756104Y-10943947D01*
X10521785Y-10881161D01*
X10281289Y-10849500D01*
X10281288Y-10849500D01*
X10038712Y-10849500D01*
X10038711Y-10849500D01*
X9798214Y-10881161D01*
X9563895Y-10943947D01*
X9339794Y-11036773D01*
X9339789Y-11036775D01*
X9247640Y-11089977D01*
X9179740Y-11106449D01*
X9113713Y-11083596D01*
X9107281Y-11078691D01*
X9023412Y-11010305D01*
X9023408Y-11010303D01*
X9023407Y-11010302D01*
X8843049Y-10916091D01*
X8843048Y-10916090D01*
X8843045Y-10916089D01*
X8725829Y-10882550D01*
X8647418Y-10860114D01*
X8647415Y-10860113D01*
X8647413Y-10860113D01*
X8581102Y-10854217D01*
X8528037Y-10849500D01*
X8528032Y-10849500D01*
X6711971Y-10849500D01*
X6711965Y-10849500D01*
X6711964Y-10849501D01*
X6700316Y-10850536D01*
X6592584Y-10860113D01*
X6396954Y-10916089D01*
X6343625Y-10943946D01*
X6216593Y-11010302D01*
X6216591Y-11010303D01*
X6216590Y-11010304D01*
X6058890Y-11138890D01*
X5930304Y-11296590D01*
X5930302Y-11296593D01*
X5928784Y-11299500D01*
X5836089Y-11476954D01*
X5811352Y-11563409D01*
X5780936Y-11669711D01*
X5780114Y-11672583D01*
X5780113Y-11672586D01*
X5775253Y-11727257D01*
X5770448Y-11781308D01*
X5769500Y-11791966D01*
X5769500Y-12518531D01*
X5749815Y-12585570D01*
X5733181Y-12606212D01*
X4176758Y-14162634D01*
X4119146Y-14241932D01*
X4053736Y-14331961D01*
X4053735Y-14331962D01*
X4047190Y-14340969D01*
X4047181Y-14340984D01*
X3947104Y-14537393D01*
X3947103Y-14537396D01*
X3878985Y-14747047D01*
X3878985Y-14747049D01*
X3844499Y-14964778D01*
X500500Y-14964778D01*
X500500Y-9019778D01*
X25029499Y-9019778D01*
X25029499Y-9240222D01*
X25029499Y-9240227D01*
X25029500Y-9245345D01*
X25029500Y-16802927D01*
X25029499Y-16802942D01*
X25029499Y-16807343D01*
X25029499Y-17027787D01*
X25044485Y-17122402D01*
X25057122Y-17202186D01*
X25063985Y-17245517D01*
X25132103Y-17455168D01*
X25132104Y-17455171D01*
X25232187Y-17651590D01*
X25361751Y-17829922D01*
X25361755Y-17829926D01*
X25361758Y-17829930D01*
X25517635Y-17985807D01*
X25521965Y-17990137D01*
X25521976Y-17990147D01*
X30961067Y-23429238D01*
X30961081Y-23429253D01*
X30964192Y-23432364D01*
X30964193Y-23432365D01*
X31120070Y-23588242D01*
X31269455Y-23696776D01*
X31269456Y-23696777D01*
X31298410Y-23717814D01*
X31494824Y-23817894D01*
X31494835Y-23817898D01*
X31704481Y-23886014D01*
X31704484Y-23886015D01*
X31922214Y-23920501D01*
X31922215Y-23920501D01*
X32147768Y-23920501D01*
X32147792Y-23920500D01*
X39456013Y-23920500D01*
X39456037Y-23920501D01*
X39461148Y-23920501D01*
X39681591Y-23920501D01*
X39681592Y-23920501D01*
X39899321Y-23886015D01*
X40108976Y-23817895D01*
X40305392Y-23717815D01*
X40334350Y-23696776D01*
X40483735Y-23588242D01*
X40639612Y-23432365D01*
X40639613Y-23432363D01*
X40646673Y-23425303D01*
X40646679Y-23425296D01*
X41552361Y-22519614D01*
X41552365Y-22519612D01*
X41567825Y-22504152D01*
X41600627Y-22486243D01*
X41629142Y-22470673D01*
X41629145Y-22470673D01*
X41629150Y-22470671D01*
X41664495Y-22473201D01*
X41698834Y-22475657D01*
X41698837Y-22475659D01*
X41698841Y-22475660D01*
X41726702Y-22496519D01*
X41754767Y-22517529D01*
X41754768Y-22517532D01*
X41754772Y-22517535D01*
X41768980Y-22555635D01*
X41779184Y-22582993D01*
X41779184Y-22582998D01*
X41779185Y-22583001D01*
X41779184Y-22583003D01*
X41779500Y-22591839D01*
X41779500Y-22745362D01*
X41779499Y-22745377D01*
X41779499Y-22749778D01*
X41779499Y-22970222D01*
X41798520Y-23090315D01*
X41807021Y-23143985D01*
X41813984Y-23187946D01*
X41813986Y-23187956D01*
X41882103Y-23397603D01*
X41882104Y-23397606D01*
X41939118Y-23509500D01*
X41979239Y-23588241D01*
X41982187Y-23594025D01*
X42111751Y-23772357D01*
X42111755Y-23772361D01*
X42111758Y-23772365D01*
X42210361Y-23870968D01*
X42271965Y-23932572D01*
X42271976Y-23932582D01*
X42847213Y-24507819D01*
X42880698Y-24569142D01*
X42875714Y-24638834D01*
X42833842Y-24694767D01*
X42768378Y-24719184D01*
X42759532Y-24719500D01*
X34307792Y-24719500D01*
X34307768Y-24719499D01*
X34302657Y-24719499D01*
X34082213Y-24719499D01*
X34009636Y-24730994D01*
X33864482Y-24753985D01*
X33654831Y-24822103D01*
X33654828Y-24822104D01*
X33458409Y-24922187D01*
X33280076Y-25051752D01*
X33280071Y-25051756D01*
X25361759Y-32970068D01*
X25331388Y-33011871D01*
X25331387Y-33011870D01*
X25232187Y-33148409D01*
X25132104Y-33344828D01*
X25132103Y-33344831D01*
X25063985Y-33554482D01*
X25029499Y-33772214D01*
X25029499Y-33997767D01*
X25029500Y-33997792D01*
X25029500Y-41555362D01*
X25029499Y-41555377D01*
X25029499Y-41780220D01*
X25052168Y-41923344D01*
X25063985Y-41997952D01*
X25132103Y-42207603D01*
X25132104Y-42207606D01*
X25232187Y-42404025D01*
X25361751Y-42582357D01*
X25361755Y-42582361D01*
X25361758Y-42582365D01*
X25517635Y-42738242D01*
X25521965Y-42742572D01*
X25521976Y-42742582D01*
X28601072Y-45821678D01*
X28634557Y-45883001D01*
X28636330Y-45893173D01*
X28661161Y-46081785D01*
X28723947Y-46316104D01*
X28816773Y-46540205D01*
X28816776Y-46540212D01*
X28938064Y-46750289D01*
X28938066Y-46750292D01*
X28938067Y-46750293D01*
X29085733Y-46942736D01*
X29085739Y-46942743D01*
X29257256Y-47114260D01*
X29257263Y-47114266D01*
X29370321Y-47201018D01*
X29449711Y-47261936D01*
X29659788Y-47383224D01*
X29883900Y-47476054D01*
X30118211Y-47538838D01*
X30298586Y-47562584D01*
X30358711Y-47570500D01*
X30358712Y-47570500D01*
X30601289Y-47570500D01*
X30649388Y-47564167D01*
X30841789Y-47538838D01*
X31076100Y-47476054D01*
X31300212Y-47383224D01*
X31392359Y-47330022D01*
X31460257Y-47313550D01*
X31526284Y-47336402D01*
X31532719Y-47341308D01*
X31558666Y-47362465D01*
X31616593Y-47409698D01*
X31796951Y-47503909D01*
X31992582Y-47559886D01*
X32111963Y-47570500D01*
X33928036Y-47570499D01*
X34047418Y-47559886D01*
X34243049Y-47503909D01*
X34423407Y-47409698D01*
X34581109Y-47281109D01*
X34709698Y-47123407D01*
X34803909Y-46943049D01*
X34859886Y-46747418D01*
X34870500Y-46628037D01*
X34870499Y-44811964D01*
X34859886Y-44692582D01*
X34803909Y-44496951D01*
X34709698Y-44316593D01*
X34657684Y-44252803D01*
X34581109Y-44158890D01*
X34455875Y-44056776D01*
X34423407Y-44030302D01*
X34243049Y-43936091D01*
X34243048Y-43936090D01*
X34243045Y-43936089D01*
X34125829Y-43902550D01*
X34047418Y-43880114D01*
X34047415Y-43880113D01*
X34047413Y-43880113D01*
X33981102Y-43874217D01*
X33928037Y-43869500D01*
X33928032Y-43869500D01*
X32111971Y-43869500D01*
X32111965Y-43869500D01*
X32111964Y-43869501D01*
X32100316Y-43870536D01*
X31992584Y-43880113D01*
X31796954Y-43936089D01*
X31616591Y-44030303D01*
X31532718Y-44098692D01*
X31468321Y-44125800D01*
X31399492Y-44113790D01*
X31392358Y-44109976D01*
X31300215Y-44056777D01*
X31300205Y-44056773D01*
X31076104Y-43963947D01*
X30841785Y-43901161D01*
X30653173Y-43876330D01*
X30589277Y-43848063D01*
X30581678Y-43841072D01*
X27866819Y-41126213D01*
X27833334Y-41064890D01*
X27830500Y-41038532D01*
X27830500Y-40270468D01*
X27850185Y-40203429D01*
X27902989Y-40157674D01*
X27972147Y-40147730D01*
X28035703Y-40176755D01*
X28042181Y-40182787D01*
X28601072Y-40741678D01*
X28634557Y-40803001D01*
X28636330Y-40813173D01*
X28661161Y-41001785D01*
X28723947Y-41236104D01*
X28816773Y-41460205D01*
X28816776Y-41460212D01*
X28938064Y-41670289D01*
X28938066Y-41670292D01*
X28938067Y-41670293D01*
X29085733Y-41862736D01*
X29085739Y-41862743D01*
X29257256Y-42034260D01*
X29257263Y-42034266D01*
X29370321Y-42121018D01*
X29449711Y-42181936D01*
X29659788Y-42303224D01*
X29883900Y-42396054D01*
X30118211Y-42458838D01*
X30298586Y-42482584D01*
X30358711Y-42490500D01*
X30358712Y-42490500D01*
X30601289Y-42490500D01*
X30649388Y-42484167D01*
X30841789Y-42458838D01*
X31076100Y-42396054D01*
X31300212Y-42303224D01*
X31392359Y-42250022D01*
X31460257Y-42233550D01*
X31526284Y-42256402D01*
X31532719Y-42261308D01*
X31558666Y-42282465D01*
X31616593Y-42329698D01*
X31796951Y-42423909D01*
X31992582Y-42479886D01*
X32111963Y-42490500D01*
X33928036Y-42490499D01*
X34047418Y-42479886D01*
X34243049Y-42423909D01*
X34423407Y-42329698D01*
X34581109Y-42201109D01*
X34709698Y-42043407D01*
X34803909Y-41863049D01*
X34859886Y-41667418D01*
X34870500Y-41548037D01*
X34870499Y-39731964D01*
X34859886Y-39612582D01*
X34803909Y-39416951D01*
X34709698Y-39236593D01*
X34653965Y-39168242D01*
X34581109Y-39078890D01*
X34455875Y-38976776D01*
X34423407Y-38950302D01*
X34243049Y-38856091D01*
X34243048Y-38856090D01*
X34243045Y-38856089D01*
X34125829Y-38822550D01*
X34047418Y-38800114D01*
X34047415Y-38800113D01*
X34047413Y-38800113D01*
X33981102Y-38794217D01*
X33928037Y-38789500D01*
X33928032Y-38789500D01*
X32111971Y-38789500D01*
X32111965Y-38789500D01*
X32111964Y-38789501D01*
X32100316Y-38790536D01*
X31992584Y-38800113D01*
X31796954Y-38856089D01*
X31616591Y-38950303D01*
X31532718Y-39018692D01*
X31468321Y-39045800D01*
X31399492Y-39033790D01*
X31392358Y-39029976D01*
X31300215Y-38976777D01*
X31300205Y-38976773D01*
X31076104Y-38883947D01*
X30841785Y-38821161D01*
X30653173Y-38796330D01*
X30589277Y-38768063D01*
X30581678Y-38761072D01*
X29666819Y-37846213D01*
X29633334Y-37784890D01*
X29630500Y-37758532D01*
X29630500Y-37396671D01*
X29650185Y-37329632D01*
X29702989Y-37283877D01*
X29772147Y-37273933D01*
X29801947Y-37282108D01*
X29883900Y-37316054D01*
X30118211Y-37378838D01*
X30298586Y-37402584D01*
X30358711Y-37410500D01*
X30358712Y-37410500D01*
X30601289Y-37410500D01*
X30649388Y-37404167D01*
X30841789Y-37378838D01*
X31076100Y-37316054D01*
X31300212Y-37223224D01*
X31392359Y-37170022D01*
X31460257Y-37153550D01*
X31526284Y-37176402D01*
X31532719Y-37181308D01*
X31558666Y-37202465D01*
X31616593Y-37249698D01*
X31796951Y-37343909D01*
X31992582Y-37399886D01*
X32111963Y-37410500D01*
X33928036Y-37410499D01*
X34047418Y-37399886D01*
X34243049Y-37343909D01*
X34423407Y-37249698D01*
X34581109Y-37121109D01*
X34709698Y-36963407D01*
X34803909Y-36783049D01*
X34859886Y-36587418D01*
X34870500Y-36468037D01*
X34870499Y-35741466D01*
X34890183Y-35674428D01*
X34906813Y-35653791D01*
X38259757Y-32300847D01*
X38321078Y-32267364D01*
X38331246Y-32265591D01*
X38452014Y-32249693D01*
X38679993Y-32188606D01*
X38898049Y-32098284D01*
X39102450Y-31980273D01*
X39237885Y-31876350D01*
X39292920Y-31834121D01*
X39293814Y-31835286D01*
X39351619Y-31808469D01*
X39406422Y-31816013D01*
X39416306Y-31816839D01*
X39417569Y-31817548D01*
X39420835Y-31817998D01*
X39445677Y-31832870D01*
X39449605Y-31835896D01*
X39450301Y-31836592D01*
X39501929Y-31876207D01*
X39502114Y-31876350D01*
X39502254Y-31876543D01*
X39526753Y-31901691D01*
X39571758Y-31963635D01*
X39706403Y-32098280D01*
X39731965Y-32123842D01*
X39731976Y-32123852D01*
X46617362Y-39009238D01*
X46617376Y-39009253D01*
X46620487Y-39012364D01*
X46620488Y-39012365D01*
X46776365Y-39168242D01*
X46776368Y-39168244D01*
X46776371Y-39168247D01*
X46842304Y-39216149D01*
X46870443Y-39236593D01*
X46954708Y-39297815D01*
X46954710Y-39297816D01*
X47151119Y-39397894D01*
X47151130Y-39397898D01*
X47360776Y-39466014D01*
X47360779Y-39466015D01*
X47578509Y-39500501D01*
X47578510Y-39500501D01*
X47804063Y-39500501D01*
X47804087Y-39500500D01*
X58304643Y-39500500D01*
X58304667Y-39500501D01*
X58309778Y-39500501D01*
X58530221Y-39500501D01*
X58530222Y-39500501D01*
X58747951Y-39466015D01*
X58957606Y-39397895D01*
X58965859Y-39393690D01*
X59034527Y-39380792D01*
X59099269Y-39407066D01*
X59139528Y-39464171D01*
X59142522Y-39533977D01*
X59141373Y-39538284D01*
X59120114Y-39612582D01*
X59120113Y-39612586D01*
X59109500Y-39731966D01*
X59109500Y-41548028D01*
X59109501Y-41548034D01*
X59120113Y-41667415D01*
X59176089Y-41863045D01*
X59176090Y-41863048D01*
X59176091Y-41863049D01*
X59270302Y-42043407D01*
X59270304Y-42043409D01*
X59398890Y-42201109D01*
X59472719Y-42261308D01*
X59556593Y-42329698D01*
X59736951Y-42423909D01*
X59932582Y-42479886D01*
X60051963Y-42490500D01*
X61868036Y-42490499D01*
X61987418Y-42479886D01*
X62183049Y-42423909D01*
X62363407Y-42329698D01*
X62447279Y-42261308D01*
X62511674Y-42234199D01*
X62580504Y-42246208D01*
X62587639Y-42250023D01*
X62679777Y-42303218D01*
X62679780Y-42303219D01*
X62679788Y-42303224D01*
X62903900Y-42396054D01*
X63138211Y-42458838D01*
X63318586Y-42482584D01*
X63378711Y-42490500D01*
X63378712Y-42490500D01*
X63621289Y-42490500D01*
X63669388Y-42484167D01*
X63861789Y-42458838D01*
X64096100Y-42396054D01*
X64320212Y-42303224D01*
X64530289Y-42181936D01*
X64722738Y-42034265D01*
X64894265Y-41862738D01*
X65041936Y-41670289D01*
X65163224Y-41460212D01*
X65256054Y-41236100D01*
X65318838Y-41001789D01*
X65343669Y-40813172D01*
X65371934Y-40749278D01*
X65378914Y-40741690D01*
X65937820Y-40182785D01*
X65999142Y-40149301D01*
X66068834Y-40154285D01*
X66124767Y-40196157D01*
X66149184Y-40261621D01*
X66149500Y-40270467D01*
X66149500Y-41038531D01*
X66129815Y-41105570D01*
X66113181Y-41126212D01*
X63398320Y-43841072D01*
X63336997Y-43874557D01*
X63326825Y-43876330D01*
X63138214Y-43901161D01*
X62903895Y-43963947D01*
X62679794Y-44056773D01*
X62679789Y-44056775D01*
X62587640Y-44109977D01*
X62519740Y-44126449D01*
X62453713Y-44103596D01*
X62447281Y-44098691D01*
X62363412Y-44030305D01*
X62363408Y-44030303D01*
X62363407Y-44030302D01*
X62183049Y-43936091D01*
X62183048Y-43936090D01*
X62183045Y-43936089D01*
X62065829Y-43902550D01*
X61987418Y-43880114D01*
X61987415Y-43880113D01*
X61987413Y-43880113D01*
X61921102Y-43874217D01*
X61868037Y-43869500D01*
X61868032Y-43869500D01*
X60051971Y-43869500D01*
X60051965Y-43869500D01*
X60051964Y-43869501D01*
X60040316Y-43870536D01*
X59932584Y-43880113D01*
X59736954Y-43936089D01*
X59683625Y-43963946D01*
X59556593Y-44030302D01*
X59556591Y-44030303D01*
X59556590Y-44030304D01*
X59398890Y-44158890D01*
X59270304Y-44316590D01*
X59176089Y-44496954D01*
X59120114Y-44692583D01*
X59120113Y-44692586D01*
X59109500Y-44811966D01*
X59109500Y-46628028D01*
X59109501Y-46628034D01*
X59120113Y-46747415D01*
X59176089Y-46943045D01*
X59176090Y-46943048D01*
X59176091Y-46943049D01*
X59270302Y-47123407D01*
X59270304Y-47123409D01*
X59398890Y-47281109D01*
X59472719Y-47341308D01*
X59556593Y-47409698D01*
X59736951Y-47503909D01*
X59932582Y-47559886D01*
X60051963Y-47570500D01*
X61868036Y-47570499D01*
X61987418Y-47559886D01*
X62183049Y-47503909D01*
X62363407Y-47409698D01*
X62447279Y-47341308D01*
X62511674Y-47314199D01*
X62580504Y-47326208D01*
X62587639Y-47330023D01*
X62679777Y-47383218D01*
X62679780Y-47383219D01*
X62679788Y-47383224D01*
X62903900Y-47476054D01*
X63138211Y-47538838D01*
X63318586Y-47562584D01*
X63378711Y-47570500D01*
X63378712Y-47570500D01*
X63621289Y-47570500D01*
X63669388Y-47564167D01*
X63861789Y-47538838D01*
X64096100Y-47476054D01*
X64320212Y-47383224D01*
X64530289Y-47261936D01*
X64722738Y-47114265D01*
X64894265Y-46942738D01*
X65041936Y-46750289D01*
X65163224Y-46540212D01*
X65256054Y-46316100D01*
X65318838Y-46081789D01*
X65343669Y-45893172D01*
X65371934Y-45829278D01*
X65378914Y-45821690D01*
X66268118Y-44932486D01*
X67829500Y-44932486D01*
X67829500Y-45227513D01*
X67848482Y-45371690D01*
X67868007Y-45519993D01*
X67868008Y-45519995D01*
X67944361Y-45804951D01*
X67944364Y-45804961D01*
X68057254Y-46077500D01*
X68057258Y-46077510D01*
X68204761Y-46332993D01*
X68384352Y-46567040D01*
X68384358Y-46567047D01*
X68592952Y-46775641D01*
X68592959Y-46775647D01*
X68827006Y-46955238D01*
X69082489Y-47102741D01*
X69082490Y-47102741D01*
X69082493Y-47102743D01*
X69355048Y-47215639D01*
X69640007Y-47291993D01*
X69932494Y-47330500D01*
X69932501Y-47330500D01*
X70227499Y-47330500D01*
X70227506Y-47330500D01*
X70519993Y-47291993D01*
X70804952Y-47215639D01*
X71077507Y-47102743D01*
X71332994Y-46955238D01*
X71567042Y-46775646D01*
X71775646Y-46567042D01*
X71955238Y-46332994D01*
X72102743Y-46077507D01*
X72215639Y-45804952D01*
X72291993Y-45519993D01*
X72330500Y-45227506D01*
X72330500Y-44932494D01*
X72291993Y-44640007D01*
X72215639Y-44355048D01*
X72102743Y-44082493D01*
X72087895Y-44056776D01*
X71955238Y-43827006D01*
X71775647Y-43592959D01*
X71775641Y-43592952D01*
X71567047Y-43384358D01*
X71567040Y-43384352D01*
X71332993Y-43204761D01*
X71077510Y-43057258D01*
X71077500Y-43057254D01*
X70804961Y-42944364D01*
X70804954Y-42944362D01*
X70804952Y-42944361D01*
X70519993Y-42868007D01*
X70471113Y-42861571D01*
X70227513Y-42829500D01*
X70227506Y-42829500D01*
X69932494Y-42829500D01*
X69932486Y-42829500D01*
X69654085Y-42866153D01*
X69640007Y-42868007D01*
X69355048Y-42944361D01*
X69355038Y-42944364D01*
X69082499Y-43057254D01*
X69082489Y-43057258D01*
X68827006Y-43204761D01*
X68592959Y-43384352D01*
X68592952Y-43384358D01*
X68384358Y-43592952D01*
X68384352Y-43592959D01*
X68204761Y-43827006D01*
X68057258Y-44082489D01*
X68057254Y-44082499D01*
X67944364Y-44355038D01*
X67944361Y-44355048D01*
X67906339Y-44496951D01*
X67868008Y-44640004D01*
X67868006Y-44640015D01*
X67829500Y-44932486D01*
X66268118Y-44932486D01*
X68455296Y-42745309D01*
X68455303Y-42745303D01*
X68462363Y-42738243D01*
X68462365Y-42738242D01*
X68618242Y-42582365D01*
X68747815Y-42404022D01*
X68847895Y-42207606D01*
X68916015Y-41997951D01*
X68927832Y-41923343D01*
X68950501Y-41780222D01*
X68950501Y-41559778D01*
X68950501Y-41555377D01*
X68950500Y-41555362D01*
X68950500Y-33997792D01*
X68950501Y-33997767D01*
X68950501Y-33772215D01*
X68950501Y-33772213D01*
X68916015Y-33554484D01*
X68847896Y-33344831D01*
X68847894Y-33344824D01*
X68747816Y-33148414D01*
X68720687Y-33111075D01*
X68648611Y-33011870D01*
X68618242Y-32970070D01*
X68462365Y-32814193D01*
X68462364Y-32814192D01*
X68459253Y-32811081D01*
X68459238Y-32811067D01*
X63020147Y-27371976D01*
X63020138Y-27371966D01*
X63015807Y-27367635D01*
X62859930Y-27211758D01*
X62859926Y-27211755D01*
X62859922Y-27211751D01*
X62681590Y-27082187D01*
X62681589Y-27082186D01*
X62681587Y-27082185D01*
X62598373Y-27039785D01*
X62485171Y-26982104D01*
X62485168Y-26982103D01*
X62275517Y-26913985D01*
X62166651Y-26896742D01*
X62057787Y-26879499D01*
X61837343Y-26879499D01*
X61832232Y-26879499D01*
X61832208Y-26879500D01*
X54523987Y-26879500D01*
X54523963Y-26879499D01*
X54518852Y-26879499D01*
X54298408Y-26879499D01*
X54225831Y-26890994D01*
X54080677Y-26913985D01*
X53871026Y-26982103D01*
X53871023Y-26982104D01*
X53674604Y-27082187D01*
X53496271Y-27211752D01*
X53496266Y-27211756D01*
X52271756Y-28436266D01*
X52271752Y-28436271D01*
X52170318Y-28575885D01*
X52114989Y-28618551D01*
X52045375Y-28624530D01*
X51983580Y-28591925D01*
X51969682Y-28575885D01*
X51868247Y-28436271D01*
X51868243Y-28436266D01*
X51712364Y-28280387D01*
X50643728Y-27211751D01*
X49364156Y-25932180D01*
X49330672Y-25870858D01*
X49335656Y-25801166D01*
X49377528Y-25745233D01*
X49442992Y-25720816D01*
X49451838Y-25720500D01*
X60032208Y-25720500D01*
X60032232Y-25720501D01*
X60037343Y-25720501D01*
X60257786Y-25720501D01*
X60257787Y-25720501D01*
X60475516Y-25686015D01*
X60685171Y-25617895D01*
X60881587Y-25517815D01*
X60938970Y-25476124D01*
X61059930Y-25388242D01*
X61215807Y-25232365D01*
X61215808Y-25232363D01*
X61222868Y-25225303D01*
X61222874Y-25225296D01*
X68455296Y-17992874D01*
X68455303Y-17992868D01*
X68462363Y-17985808D01*
X68462365Y-17985807D01*
X68618242Y-17829930D01*
X68747815Y-17651587D01*
X68847895Y-17455171D01*
X68916015Y-17245516D01*
X68922878Y-17202185D01*
X68950501Y-17027787D01*
X68950501Y-16807343D01*
X68950501Y-16802942D01*
X68950500Y-16802927D01*
X68950500Y-9245357D01*
X68950501Y-9245332D01*
X68950501Y-9019779D01*
X68937430Y-8937256D01*
X68916015Y-8802049D01*
X68869699Y-8659500D01*
X68847895Y-8592394D01*
X68747815Y-8395978D01*
X68707989Y-8341162D01*
X68618248Y-8217642D01*
X68618244Y-8217638D01*
X68618242Y-8217635D01*
X68462365Y-8061758D01*
X68462364Y-8061757D01*
X68459253Y-8058646D01*
X68459238Y-8058632D01*
X65378926Y-4978320D01*
X65353899Y-4932486D01*
X67829500Y-4932486D01*
X67829500Y-5227513D01*
X67848482Y-5371690D01*
X67868007Y-5519993D01*
X67868008Y-5519995D01*
X67944361Y-5804951D01*
X67944364Y-5804961D01*
X68057254Y-6077500D01*
X68057258Y-6077510D01*
X68204761Y-6332993D01*
X68384352Y-6567040D01*
X68384358Y-6567047D01*
X68592952Y-6775641D01*
X68592959Y-6775647D01*
X68827006Y-6955238D01*
X69082489Y-7102741D01*
X69082490Y-7102741D01*
X69082493Y-7102743D01*
X69355048Y-7215639D01*
X69640007Y-7291993D01*
X69932494Y-7330500D01*
X69932501Y-7330500D01*
X70227499Y-7330500D01*
X70227506Y-7330500D01*
X70519993Y-7291993D01*
X70804952Y-7215639D01*
X71077507Y-7102743D01*
X71332994Y-6955238D01*
X71567042Y-6775646D01*
X71775646Y-6567042D01*
X71955238Y-6332994D01*
X72102743Y-6077507D01*
X72215639Y-5804952D01*
X72291993Y-5519993D01*
X72330500Y-5227506D01*
X72330500Y-4932494D01*
X72291993Y-4640007D01*
X72215639Y-4355048D01*
X72102743Y-4082493D01*
X72085476Y-4052586D01*
X71955238Y-3827006D01*
X71775647Y-3592959D01*
X71775641Y-3592952D01*
X71567047Y-3384358D01*
X71567040Y-3384352D01*
X71332993Y-3204761D01*
X71077510Y-3057258D01*
X71077500Y-3057254D01*
X70804961Y-2944364D01*
X70804954Y-2944362D01*
X70804952Y-2944361D01*
X70519993Y-2868007D01*
X70471113Y-2861571D01*
X70227513Y-2829500D01*
X70227506Y-2829500D01*
X69932494Y-2829500D01*
X69932486Y-2829500D01*
X69654085Y-2866153D01*
X69640007Y-2868007D01*
X69355048Y-2944361D01*
X69355038Y-2944364D01*
X69082499Y-3057254D01*
X69082489Y-3057258D01*
X68827006Y-3204761D01*
X68592959Y-3384352D01*
X68592952Y-3384358D01*
X68384358Y-3592952D01*
X68384352Y-3592959D01*
X68204761Y-3827006D01*
X68057258Y-4082489D01*
X68057254Y-4082499D01*
X67944364Y-4355038D01*
X67944361Y-4355048D01*
X67909836Y-4483900D01*
X67868008Y-4640004D01*
X67868006Y-4640015D01*
X67829500Y-4932486D01*
X65353899Y-4932486D01*
X65345441Y-4916997D01*
X65343670Y-4906840D01*
X65318838Y-4718211D01*
X65256054Y-4483900D01*
X65163224Y-4259788D01*
X65041936Y-4049711D01*
X64981018Y-3970321D01*
X64894266Y-3857263D01*
X64894260Y-3857256D01*
X64722743Y-3685739D01*
X64722736Y-3685733D01*
X64530293Y-3538067D01*
X64530292Y-3538066D01*
X64530289Y-3538064D01*
X64320212Y-3416776D01*
X64320205Y-3416773D01*
X64096104Y-3323947D01*
X63861785Y-3261161D01*
X63621289Y-3229500D01*
X63621288Y-3229500D01*
X63378712Y-3229500D01*
X63378711Y-3229500D01*
X63138214Y-3261161D01*
X62903895Y-3323947D01*
X62679794Y-3416773D01*
X62679789Y-3416775D01*
X62587640Y-3469977D01*
X62519740Y-3486449D01*
X62453713Y-3463596D01*
X62447281Y-3458691D01*
X62363412Y-3390305D01*
X62363408Y-3390303D01*
X62363407Y-3390302D01*
X62183049Y-3296091D01*
X62183048Y-3296090D01*
X62183045Y-3296089D01*
X62065829Y-3262550D01*
X61987418Y-3240114D01*
X61987415Y-3240113D01*
X61987413Y-3240113D01*
X61921102Y-3234217D01*
X61868037Y-3229500D01*
X61868032Y-3229500D01*
X60051971Y-3229500D01*
X60051965Y-3229500D01*
X60051964Y-3229501D01*
X60040316Y-3230536D01*
X59932584Y-3240113D01*
X59736954Y-3296089D01*
X59683625Y-3323946D01*
X59556593Y-3390302D01*
X59556591Y-3390303D01*
X59556590Y-3390304D01*
X59398890Y-3518890D01*
X59270304Y-3676590D01*
X59176089Y-3856954D01*
X59156444Y-3925613D01*
X59120936Y-4049711D01*
X59120114Y-4052583D01*
X59120113Y-4052586D01*
X59109500Y-4171966D01*
X59109500Y-5988028D01*
X59109501Y-5988034D01*
X59120113Y-6107415D01*
X59176089Y-6303045D01*
X59176090Y-6303048D01*
X59176091Y-6303049D01*
X59270302Y-6483407D01*
X59270304Y-6483409D01*
X59398890Y-6641109D01*
X59472719Y-6701308D01*
X59556593Y-6769698D01*
X59736951Y-6863909D01*
X59932582Y-6919886D01*
X60051963Y-6930500D01*
X61868036Y-6930499D01*
X61987418Y-6919886D01*
X62183049Y-6863909D01*
X62363407Y-6769698D01*
X62447279Y-6701308D01*
X62511674Y-6674199D01*
X62580504Y-6686208D01*
X62587639Y-6690023D01*
X62679777Y-6743218D01*
X62679780Y-6743219D01*
X62679788Y-6743224D01*
X62903900Y-6836054D01*
X63138211Y-6898838D01*
X63326825Y-6923669D01*
X63390720Y-6951934D01*
X63398320Y-6958926D01*
X66113181Y-9673787D01*
X66146666Y-9735110D01*
X66149500Y-9761468D01*
X66149500Y-10529532D01*
X66129815Y-10596571D01*
X66077011Y-10642326D01*
X66007853Y-10652270D01*
X65944297Y-10623245D01*
X65937819Y-10617213D01*
X65378926Y-10058320D01*
X65345441Y-9996997D01*
X65343670Y-9986840D01*
X65318838Y-9798211D01*
X65256054Y-9563900D01*
X65163224Y-9339788D01*
X65041936Y-9129711D01*
X64894265Y-8937262D01*
X64894260Y-8937256D01*
X64722743Y-8765739D01*
X64722736Y-8765733D01*
X64530293Y-8618067D01*
X64530292Y-8618066D01*
X64530289Y-8618064D01*
X64320212Y-8496776D01*
X64320205Y-8496773D01*
X64096104Y-8403947D01*
X63861785Y-8341161D01*
X63621289Y-8309500D01*
X63621288Y-8309500D01*
X63378712Y-8309500D01*
X63378711Y-8309500D01*
X63138214Y-8341161D01*
X62903895Y-8403947D01*
X62679794Y-8496773D01*
X62679789Y-8496775D01*
X62587640Y-8549977D01*
X62519740Y-8566449D01*
X62453713Y-8543596D01*
X62447281Y-8538691D01*
X62363412Y-8470305D01*
X62363408Y-8470303D01*
X62363407Y-8470302D01*
X62183049Y-8376091D01*
X62183048Y-8376090D01*
X62183045Y-8376089D01*
X62065829Y-8342550D01*
X61987418Y-8320114D01*
X61987415Y-8320113D01*
X61987413Y-8320113D01*
X61921102Y-8314217D01*
X61868037Y-8309500D01*
X61868032Y-8309500D01*
X60051971Y-8309500D01*
X60051965Y-8309500D01*
X60051964Y-8309501D01*
X60040316Y-8310536D01*
X59932584Y-8320113D01*
X59736954Y-8376089D01*
X59698879Y-8395978D01*
X59556593Y-8470302D01*
X59556591Y-8470303D01*
X59556590Y-8470304D01*
X59398890Y-8598890D01*
X59270304Y-8756590D01*
X59176089Y-8936954D01*
X59131332Y-9093376D01*
X59120936Y-9129711D01*
X59120114Y-9132583D01*
X59120113Y-9132586D01*
X59112607Y-9217016D01*
X59110088Y-9245357D01*
X59109500Y-9251966D01*
X59109500Y-11068028D01*
X59109501Y-11068034D01*
X59120113Y-11187415D01*
X59176089Y-11383045D01*
X59176090Y-11383048D01*
X59176091Y-11383049D01*
X59270302Y-11563407D01*
X59270304Y-11563409D01*
X59398890Y-11721109D01*
X59472719Y-11781308D01*
X59556593Y-11849698D01*
X59736951Y-11943909D01*
X59932582Y-11999886D01*
X60051963Y-12010500D01*
X61868036Y-12010499D01*
X61987418Y-11999886D01*
X62183049Y-11943909D01*
X62363407Y-11849698D01*
X62447279Y-11781308D01*
X62511674Y-11754199D01*
X62580504Y-11766208D01*
X62587639Y-11770023D01*
X62679777Y-11823218D01*
X62679780Y-11823219D01*
X62679788Y-11823224D01*
X62903900Y-11916054D01*
X63138211Y-11978838D01*
X63326825Y-12003669D01*
X63390720Y-12031934D01*
X63398320Y-12038926D01*
X64313181Y-12953787D01*
X64346666Y-13015110D01*
X64349500Y-13041468D01*
X64349500Y-13403328D01*
X64329815Y-13470367D01*
X64277011Y-13516122D01*
X64207853Y-13526066D01*
X64178048Y-13517889D01*
X64096107Y-13483948D01*
X63992144Y-13456091D01*
X63861789Y-13421162D01*
X63861788Y-13421161D01*
X63861785Y-13421161D01*
X63621289Y-13389500D01*
X63621288Y-13389500D01*
X63378712Y-13389500D01*
X63378711Y-13389500D01*
X63138214Y-13421161D01*
X62903895Y-13483947D01*
X62679794Y-13576773D01*
X62679789Y-13576775D01*
X62587640Y-13629977D01*
X62519740Y-13646449D01*
X62453713Y-13623596D01*
X62447281Y-13618691D01*
X62363412Y-13550305D01*
X62363408Y-13550303D01*
X62363407Y-13550302D01*
X62183049Y-13456091D01*
X62183048Y-13456090D01*
X62183045Y-13456089D01*
X62065829Y-13422550D01*
X61987418Y-13400114D01*
X61987415Y-13400113D01*
X61987413Y-13400113D01*
X61921102Y-13394217D01*
X61868037Y-13389500D01*
X61868032Y-13389500D01*
X60051971Y-13389500D01*
X60051965Y-13389500D01*
X60051964Y-13389501D01*
X60040316Y-13390536D01*
X59932584Y-13400113D01*
X59736954Y-13456089D01*
X59683625Y-13483946D01*
X59556593Y-13550302D01*
X59556591Y-13550303D01*
X59556590Y-13550304D01*
X59398890Y-13678890D01*
X59305145Y-13793861D01*
X59247524Y-13833378D01*
X59209043Y-13839500D01*
X57403987Y-13839500D01*
X57403963Y-13839499D01*
X57398852Y-13839499D01*
X57178408Y-13839499D01*
X57105831Y-13850994D01*
X56960677Y-13873985D01*
X56751026Y-13942103D01*
X56751023Y-13942104D01*
X56554604Y-14042187D01*
X56376271Y-14171752D01*
X56376266Y-14171756D01*
X52427635Y-18120388D01*
X52427634Y-18120389D01*
X52380478Y-18167544D01*
X52319155Y-18201028D01*
X52249463Y-18196043D01*
X52193530Y-18154171D01*
X52170325Y-18099260D01*
X52169967Y-18097004D01*
X52166015Y-18072049D01*
X52099400Y-17867027D01*
X52098339Y-17863266D01*
X52097895Y-17862394D01*
X51997815Y-17665978D01*
X51985750Y-17649372D01*
X51868248Y-17487642D01*
X51868244Y-17487638D01*
X51868242Y-17487635D01*
X51712365Y-17331758D01*
X51712364Y-17331757D01*
X51709253Y-17328646D01*
X51709238Y-17328632D01*
X48712582Y-14331976D01*
X48712573Y-14331966D01*
X48647864Y-14267257D01*
X48552365Y-14171758D01*
X48552361Y-14171755D01*
X48552357Y-14171751D01*
X48374025Y-14042187D01*
X48374024Y-14042186D01*
X48374022Y-14042185D01*
X48304493Y-14006758D01*
X48177606Y-13942104D01*
X48177603Y-13942103D01*
X47967952Y-13873985D01*
X47859086Y-13856742D01*
X47750222Y-13839499D01*
X47529778Y-13839499D01*
X47524667Y-13839499D01*
X47524643Y-13839500D01*
X34770957Y-13839500D01*
X34703918Y-13819815D01*
X34674855Y-13793861D01*
X34581109Y-13678890D01*
X34455875Y-13576776D01*
X34423407Y-13550302D01*
X34243049Y-13456091D01*
X34243048Y-13456090D01*
X34243045Y-13456089D01*
X34125829Y-13422550D01*
X34047418Y-13400114D01*
X34047415Y-13400113D01*
X34047413Y-13400113D01*
X33981102Y-13394217D01*
X33928037Y-13389500D01*
X33928032Y-13389500D01*
X32111971Y-13389500D01*
X32111965Y-13389500D01*
X32111964Y-13389501D01*
X32100316Y-13390536D01*
X31992584Y-13400113D01*
X31796954Y-13456089D01*
X31616591Y-13550303D01*
X31532718Y-13618692D01*
X31468321Y-13645800D01*
X31399492Y-13633790D01*
X31392358Y-13629976D01*
X31300215Y-13576777D01*
X31300205Y-13576773D01*
X31076104Y-13483947D01*
X30841785Y-13421161D01*
X30601289Y-13389500D01*
X30601288Y-13389500D01*
X30358712Y-13389500D01*
X30358711Y-13389500D01*
X30118214Y-13421161D01*
X29883892Y-13483948D01*
X29801952Y-13517889D01*
X29732483Y-13525358D01*
X29670004Y-13494083D01*
X29634352Y-13433994D01*
X29630500Y-13403328D01*
X29630500Y-13041467D01*
X29650185Y-12974428D01*
X29666815Y-12953790D01*
X30581680Y-12038924D01*
X30643001Y-12005441D01*
X30653154Y-12003671D01*
X30841789Y-11978838D01*
X31076100Y-11916054D01*
X31300212Y-11823224D01*
X31392359Y-11770022D01*
X31460257Y-11753550D01*
X31526284Y-11776402D01*
X31532719Y-11781308D01*
X31545790Y-11791966D01*
X31616593Y-11849698D01*
X31796951Y-11943909D01*
X31992582Y-11999886D01*
X32111963Y-12010500D01*
X33928036Y-12010499D01*
X34047418Y-11999886D01*
X34243049Y-11943909D01*
X34423407Y-11849698D01*
X34581109Y-11721109D01*
X34709698Y-11563407D01*
X34803909Y-11383049D01*
X34859886Y-11187418D01*
X34870500Y-11068037D01*
X34870499Y-9251964D01*
X34859886Y-9132582D01*
X34803909Y-8936951D01*
X34709698Y-8756593D01*
X34630529Y-8659500D01*
X34581109Y-8598890D01*
X34455875Y-8496776D01*
X34423407Y-8470302D01*
X34243049Y-8376091D01*
X34243048Y-8376090D01*
X34243045Y-8376089D01*
X34125829Y-8342550D01*
X34047418Y-8320114D01*
X34047415Y-8320113D01*
X34047413Y-8320113D01*
X33981102Y-8314217D01*
X33928037Y-8309500D01*
X33928032Y-8309500D01*
X32111971Y-8309500D01*
X32111965Y-8309500D01*
X32111964Y-8309501D01*
X32100316Y-8310536D01*
X31992584Y-8320113D01*
X31796954Y-8376089D01*
X31616591Y-8470303D01*
X31532718Y-8538692D01*
X31468321Y-8565800D01*
X31399492Y-8553790D01*
X31392358Y-8549976D01*
X31300215Y-8496777D01*
X31300205Y-8496773D01*
X31076104Y-8403947D01*
X30841785Y-8341161D01*
X30601289Y-8309500D01*
X30601288Y-8309500D01*
X30358712Y-8309500D01*
X30358711Y-8309500D01*
X30118214Y-8341161D01*
X29883895Y-8403947D01*
X29659794Y-8496773D01*
X29659785Y-8496777D01*
X29449706Y-8618067D01*
X29257263Y-8765733D01*
X29257256Y-8765739D01*
X29085739Y-8937256D01*
X29085733Y-8937263D01*
X28938067Y-9129706D01*
X28938064Y-9129710D01*
X28938064Y-9129711D01*
X28936406Y-9132583D01*
X28816777Y-9339785D01*
X28816773Y-9339794D01*
X28723947Y-9563895D01*
X28661161Y-9798214D01*
X28636330Y-9986825D01*
X28608063Y-10050721D01*
X28601072Y-10058320D01*
X28042181Y-10617212D01*
X27980858Y-10650697D01*
X27911167Y-10645713D01*
X27855233Y-10603842D01*
X27830816Y-10538377D01*
X27830500Y-10529531D01*
X27830500Y-9761467D01*
X27850185Y-9694428D01*
X27866814Y-9673791D01*
X30581680Y-6958924D01*
X30643001Y-6925441D01*
X30653154Y-6923671D01*
X30841789Y-6898838D01*
X31076100Y-6836054D01*
X31300212Y-6743224D01*
X31392359Y-6690022D01*
X31460257Y-6673550D01*
X31526284Y-6696402D01*
X31532719Y-6701308D01*
X31558666Y-6722465D01*
X31616593Y-6769698D01*
X31796951Y-6863909D01*
X31992582Y-6919886D01*
X32111963Y-6930500D01*
X33928036Y-6930499D01*
X34047418Y-6919886D01*
X34243049Y-6863909D01*
X34423407Y-6769698D01*
X34581109Y-6641109D01*
X34709698Y-6483407D01*
X34803909Y-6303049D01*
X34859886Y-6107418D01*
X34870500Y-5988037D01*
X34870499Y-4171964D01*
X34859886Y-4052582D01*
X34803909Y-3856951D01*
X34709698Y-3676593D01*
X34657684Y-3612803D01*
X34581109Y-3518890D01*
X34455875Y-3416776D01*
X34423407Y-3390302D01*
X34243049Y-3296091D01*
X34243048Y-3296090D01*
X34243045Y-3296089D01*
X34125829Y-3262550D01*
X34047418Y-3240114D01*
X34047415Y-3240113D01*
X34047413Y-3240113D01*
X33981102Y-3234217D01*
X33928037Y-3229500D01*
X33928032Y-3229500D01*
X32111971Y-3229500D01*
X32111965Y-3229500D01*
X32111964Y-3229501D01*
X32100316Y-3230536D01*
X31992584Y-3240113D01*
X31796954Y-3296089D01*
X31616591Y-3390303D01*
X31532718Y-3458692D01*
X31468321Y-3485800D01*
X31399492Y-3473790D01*
X31392358Y-3469976D01*
X31300215Y-3416777D01*
X31300205Y-3416773D01*
X31076104Y-3323947D01*
X30841785Y-3261161D01*
X30601289Y-3229500D01*
X30601288Y-3229500D01*
X30358712Y-3229500D01*
X30358711Y-3229500D01*
X30118214Y-3261161D01*
X29883895Y-3323947D01*
X29659794Y-3416773D01*
X29659785Y-3416777D01*
X29449706Y-3538067D01*
X29257263Y-3685733D01*
X29257256Y-3685739D01*
X29085739Y-3857256D01*
X29085733Y-3857263D01*
X28938067Y-4049706D01*
X28938064Y-4049710D01*
X28938064Y-4049711D01*
X28936406Y-4052583D01*
X28816777Y-4259785D01*
X28816773Y-4259794D01*
X28723947Y-4483895D01*
X28661161Y-4718214D01*
X28636330Y-4906825D01*
X28608063Y-4970721D01*
X28601072Y-4978320D01*
X25517638Y-8061755D01*
X25361759Y-8217633D01*
X25361754Y-8217638D01*
X25295014Y-8309500D01*
X25232187Y-8395974D01*
X25132104Y-8592393D01*
X25132103Y-8592396D01*
X25063985Y-8802047D01*
X25029499Y-9019778D01*
X500500Y-9019778D01*
X500500Y-4932486D01*
X2829500Y-4932486D01*
X2829500Y-5227513D01*
X2848482Y-5371690D01*
X2868007Y-5519993D01*
X2868008Y-5519995D01*
X2944361Y-5804951D01*
X2944364Y-5804961D01*
X3057254Y-6077500D01*
X3057258Y-6077510D01*
X3204761Y-6332993D01*
X3384352Y-6567040D01*
X3384358Y-6567047D01*
X3592952Y-6775641D01*
X3592959Y-6775647D01*
X3827006Y-6955238D01*
X4082489Y-7102741D01*
X4082490Y-7102741D01*
X4082493Y-7102743D01*
X4355048Y-7215639D01*
X4640007Y-7291993D01*
X4932494Y-7330500D01*
X4932501Y-7330500D01*
X5227499Y-7330500D01*
X5227506Y-7330500D01*
X5519993Y-7291993D01*
X5804952Y-7215639D01*
X6077507Y-7102743D01*
X6332994Y-6955238D01*
X6567042Y-6775646D01*
X6775646Y-6567042D01*
X6955238Y-6332994D01*
X7102743Y-6077507D01*
X7215639Y-5804952D01*
X7291993Y-5519993D01*
X7330500Y-5227506D01*
X7330500Y-4932494D01*
X7291993Y-4640007D01*
X7215639Y-4355048D01*
X7102743Y-4082493D01*
X7085476Y-4052586D01*
X6955238Y-3827006D01*
X6775647Y-3592959D01*
X6775641Y-3592952D01*
X6567047Y-3384358D01*
X6567040Y-3384352D01*
X6332993Y-3204761D01*
X6077510Y-3057258D01*
X6077500Y-3057254D01*
X5804961Y-2944364D01*
X5804954Y-2944362D01*
X5804952Y-2944361D01*
X5519993Y-2868007D01*
X5471113Y-2861571D01*
X5227513Y-2829500D01*
X5227506Y-2829500D01*
X4932494Y-2829500D01*
X4932486Y-2829500D01*
X4654085Y-2866153D01*
X4640007Y-2868007D01*
X4355048Y-2944361D01*
X4355038Y-2944364D01*
X4082499Y-3057254D01*
X4082489Y-3057258D01*
X3827006Y-3204761D01*
X3592959Y-3384352D01*
X3592952Y-3384358D01*
X3384358Y-3592952D01*
X3384352Y-3592959D01*
X3204761Y-3827006D01*
X3057258Y-4082489D01*
X3057254Y-4082499D01*
X2944364Y-4355038D01*
X2944361Y-4355048D01*
X2909836Y-4483900D01*
X2868008Y-4640004D01*
X2868006Y-4640015D01*
X2829500Y-4932486D01*
X500500Y-4932486D01*
X500500Y-624500D01*
X520185Y-557461D01*
X572989Y-511706D01*
X624500Y-500500D01*
X73035500Y-500500D01*
X73102539Y-520185D01*
G37*
G04 #@! TD.AperFunction*
G04 #@! TD*
M02*
