M48
; DRILL file KiCad 10.0.0 date 2026-04-05T20:47:13
; FORMAT={-:-/ absolute / metric / decimal}
; #@! TF.CreationDate,2026-04-05T20:47:13+02:00
; #@! TF.GenerationSoftware,Kicad,Pcbnew,10.0.0
; #@! TF.FileFunction,Plated,1,2,PTH
FMAT,2
METRIC
; #@! TA.AperFunction,Plated,PTH,ViaDrill
T1C0.300
; #@! TA.AperFunction,Plated,PTH,ComponentDrill
T2C0.800
; #@! TA.AperFunction,Plated,PTH,ComponentDrill
T3C0.950
; #@! TA.AperFunction,Plated,PTH,ComponentDrill
T4C1.000
%
G90
G05
T1
X78.74Y-104.14
X99.06Y-121.92
X106.68Y-93.98
X106.68Y-116.84
X124.46Y-106.68
T2
X93.98Y-101.6
X93.98Y-111.76
X96.52Y-101.6
X96.52Y-111.76
X99.06Y-101.6
X99.06Y-111.76
X101.6Y-101.6
X101.6Y-111.76
X104.14Y-101.6
X104.14Y-111.76
X106.68Y-101.6
X106.68Y-111.76
X109.22Y-101.6
X109.22Y-111.76
X111.76Y-101.6
X111.76Y-111.76
T3
X63.5Y-104.14
X63.5Y-106.64
X63.5Y-109.14
T4
X63.5Y-93.98
X63.5Y-116.84
X66.04Y-93.98
X66.04Y-116.84
X68.58Y-93.98
X68.58Y-116.84
X71.12Y-93.98
X71.12Y-116.84
X86.36Y-86.36
X86.36Y-91.44
X86.36Y-96.52
X86.36Y-116.84
X86.36Y-121.92
X86.36Y-127.0
X88.9Y-86.36
X88.9Y-91.44
X88.9Y-96.52
X88.9Y-116.84
X88.9Y-121.92
X88.9Y-127.0
X116.84Y-86.36
X116.84Y-91.44
X116.84Y-96.52
X116.84Y-116.84
X116.84Y-121.92
X116.84Y-127.0
X119.38Y-86.36
X119.38Y-91.44
X119.38Y-96.52
X119.38Y-116.84
X119.38Y-121.92
X119.38Y-127.0
M30
