%TF.GenerationSoftware,KiCad,Pcbnew,9.0.7*%
%TF.CreationDate,2026-02-15T14:06:54+01:00*%
%TF.ProjectId,XR-2208,58522d32-3230-4382-9e6b-696361645f70,rev?*%
%TF.SameCoordinates,Original*%
%TF.FileFunction,Drillmap*%
%TF.FilePolarity,Positive*%
%FSLAX45Y45*%
G04 Gerber Fmt 4.5, Leading zero omitted, Abs format (unit mm)*
G04 Created by KiCad (PCBNEW 9.0.7) date 2026-02-15 14:06:54*
%MOMM*%
%LPD*%
G01*
G04 APERTURE LIST*
%ADD10C,0.050000*%
%ADD11C,0.200000*%
G04 APERTURE END LIST*
D10*
X9610000Y-8374000D02*
G75*
G02*
X9210000Y-8374000I-200000J0D01*
G01*
X9210000Y-8374000D02*
G75*
G02*
X9610000Y-8374000I200000J0D01*
G01*
X17000000Y-8374000D02*
G75*
G02*
X16600000Y-8374000I-200000J0D01*
G01*
X16600000Y-8374000D02*
G75*
G02*
X17000000Y-8374000I200000J0D01*
G01*
X8890000Y-7874000D02*
X17272000Y-7874000D01*
X17272000Y-11938000D01*
X8890000Y-11938000D01*
X8890000Y-7874000D01*
X17000000Y-11466000D02*
G75*
G02*
X16600000Y-11466000I-200000J0D01*
G01*
X16600000Y-11466000D02*
G75*
G02*
X17000000Y-11466000I200000J0D01*
G01*
X9610000Y-11466000D02*
G75*
G02*
X9210000Y-11466000I-200000J0D01*
G01*
X9210000Y-11466000D02*
G75*
G02*
X9610000Y-11466000I200000J0D01*
G01*
D11*
X9148277Y-12251984D02*
X9148277Y-12051984D01*
X9148277Y-12051984D02*
X9195896Y-12051984D01*
X9195896Y-12051984D02*
X9224467Y-12061508D01*
X9224467Y-12061508D02*
X9243515Y-12080555D01*
X9243515Y-12080555D02*
X9253039Y-12099603D01*
X9253039Y-12099603D02*
X9262563Y-12137698D01*
X9262563Y-12137698D02*
X9262563Y-12166269D01*
X9262563Y-12166269D02*
X9253039Y-12204365D01*
X9253039Y-12204365D02*
X9243515Y-12223412D01*
X9243515Y-12223412D02*
X9224467Y-12242460D01*
X9224467Y-12242460D02*
X9195896Y-12251984D01*
X9195896Y-12251984D02*
X9148277Y-12251984D01*
X9348277Y-12251984D02*
X9348277Y-12118650D01*
X9348277Y-12156746D02*
X9357801Y-12137698D01*
X9357801Y-12137698D02*
X9367324Y-12128174D01*
X9367324Y-12128174D02*
X9386372Y-12118650D01*
X9386372Y-12118650D02*
X9405420Y-12118650D01*
X9472086Y-12251984D02*
X9472086Y-12118650D01*
X9472086Y-12051984D02*
X9462563Y-12061508D01*
X9462563Y-12061508D02*
X9472086Y-12071031D01*
X9472086Y-12071031D02*
X9481610Y-12061508D01*
X9481610Y-12061508D02*
X9472086Y-12051984D01*
X9472086Y-12051984D02*
X9472086Y-12071031D01*
X9595896Y-12251984D02*
X9576848Y-12242460D01*
X9576848Y-12242460D02*
X9567324Y-12223412D01*
X9567324Y-12223412D02*
X9567324Y-12051984D01*
X9700658Y-12251984D02*
X9681610Y-12242460D01*
X9681610Y-12242460D02*
X9672086Y-12223412D01*
X9672086Y-12223412D02*
X9672086Y-12051984D01*
X9929229Y-12251984D02*
X9929229Y-12051984D01*
X9929229Y-12051984D02*
X9995896Y-12194841D01*
X9995896Y-12194841D02*
X10062563Y-12051984D01*
X10062563Y-12051984D02*
X10062563Y-12251984D01*
X10243515Y-12251984D02*
X10243515Y-12147222D01*
X10243515Y-12147222D02*
X10233991Y-12128174D01*
X10233991Y-12128174D02*
X10214944Y-12118650D01*
X10214944Y-12118650D02*
X10176848Y-12118650D01*
X10176848Y-12118650D02*
X10157801Y-12128174D01*
X10243515Y-12242460D02*
X10224467Y-12251984D01*
X10224467Y-12251984D02*
X10176848Y-12251984D01*
X10176848Y-12251984D02*
X10157801Y-12242460D01*
X10157801Y-12242460D02*
X10148277Y-12223412D01*
X10148277Y-12223412D02*
X10148277Y-12204365D01*
X10148277Y-12204365D02*
X10157801Y-12185317D01*
X10157801Y-12185317D02*
X10176848Y-12175793D01*
X10176848Y-12175793D02*
X10224467Y-12175793D01*
X10224467Y-12175793D02*
X10243515Y-12166269D01*
X10338753Y-12118650D02*
X10338753Y-12318650D01*
X10338753Y-12128174D02*
X10357801Y-12118650D01*
X10357801Y-12118650D02*
X10395896Y-12118650D01*
X10395896Y-12118650D02*
X10414944Y-12128174D01*
X10414944Y-12128174D02*
X10424467Y-12137698D01*
X10424467Y-12137698D02*
X10433991Y-12156746D01*
X10433991Y-12156746D02*
X10433991Y-12213888D01*
X10433991Y-12213888D02*
X10424467Y-12232936D01*
X10424467Y-12232936D02*
X10414944Y-12242460D01*
X10414944Y-12242460D02*
X10395896Y-12251984D01*
X10395896Y-12251984D02*
X10357801Y-12251984D01*
X10357801Y-12251984D02*
X10338753Y-12242460D01*
X10519705Y-12232936D02*
X10529229Y-12242460D01*
X10529229Y-12242460D02*
X10519705Y-12251984D01*
X10519705Y-12251984D02*
X10510182Y-12242460D01*
X10510182Y-12242460D02*
X10519705Y-12232936D01*
X10519705Y-12232936D02*
X10519705Y-12251984D01*
X10519705Y-12128174D02*
X10529229Y-12137698D01*
X10529229Y-12137698D02*
X10519705Y-12147222D01*
X10519705Y-12147222D02*
X10510182Y-12137698D01*
X10510182Y-12137698D02*
X10519705Y-12128174D01*
X10519705Y-12128174D02*
X10519705Y-12147222D01*
M02*
