G04 #@! TF.GenerationSoftware,KiCad,Pcbnew,9.0.7*
G04 #@! TF.CreationDate,2026-02-15T14:06:54+01:00*
G04 #@! TF.ProjectId,XR-2208,58522d32-3230-4382-9e6b-696361645f70,rev?*
G04 #@! TF.SameCoordinates,Original*
G04 #@! TF.FileFunction,Copper,L2,Bot*
G04 #@! TF.FilePolarity,Positive*
%FSLAX46Y46*%
G04 Gerber Fmt 4.6, Leading zero omitted, Abs format (unit mm)*
G04 Created by KiCad (PCBNEW 9.0.7) date 2026-02-15 14:06:54*
%MOMM*%
%LPD*%
G01*
G04 APERTURE LIST*
G04 Aperture macros list*
%AMRoundRect*
0 Rectangle with rounded corners*
0 $1 Rounding radius*
0 $2 $3 $4 $5 $6 $7 $8 $9 X,Y pos of 4 corners*
0 Add a 4 corners polygon primitive as box body*
4,1,4,$2,$3,$4,$5,$6,$7,$8,$9,$2,$3,0*
0 Add four circle primitives for the rounded corners*
1,1,$1+$1,$2,$3*
1,1,$1+$1,$4,$5*
1,1,$1+$1,$6,$7*
1,1,$1+$1,$8,$9*
0 Add four rect primitives between the rounded corners*
20,1,$1+$1,$2,$3,$4,$5,0*
20,1,$1+$1,$4,$5,$6,$7,0*
20,1,$1+$1,$6,$7,$8,$9,0*
20,1,$1+$1,$8,$9,$2,$3,0*%
G04 Aperture macros list end*
G04 #@! TA.AperFunction,ComponentPad*
%ADD10C,1.600000*%
G04 #@! TD*
G04 #@! TA.AperFunction,ComponentPad*
%ADD11C,1.440000*%
G04 #@! TD*
G04 #@! TA.AperFunction,ComponentPad*
%ADD12RoundRect,0.250000X-0.550000X-0.550000X0.550000X-0.550000X0.550000X0.550000X-0.550000X0.550000X0*%
G04 #@! TD*
G04 #@! TA.AperFunction,ComponentPad*
%ADD13R,1.700000X1.700000*%
G04 #@! TD*
G04 #@! TA.AperFunction,ComponentPad*
%ADD14C,1.700000*%
G04 #@! TD*
G04 #@! TA.AperFunction,Conductor*
%ADD15C,0.200000*%
G04 #@! TD*
G04 APERTURE END LIST*
D10*
G04 #@! TO.P,R4,1*
G04 #@! TO.N,Net-(R4-Pad1)*
X157480000Y-99060000D03*
G04 #@! TO.P,R4,2*
G04 #@! TO.N,Net-(IC1-OP+)*
X147320000Y-99060000D03*
G04 #@! TD*
G04 #@! TO.P,R1,1*
G04 #@! TO.N,Net-(R1-Pad1)*
X104140000Y-109220000D03*
G04 #@! TO.P,R1,2*
G04 #@! TO.N,GND*
X114300000Y-109220000D03*
G04 #@! TD*
D11*
G04 #@! TO.P,RV2,1,1*
G04 #@! TO.N,VCC*
X124460000Y-93980000D03*
G04 #@! TO.P,RV2,2,2*
G04 #@! TO.N,Net-(R2-Pad1)*
X121920000Y-93980000D03*
G04 #@! TO.P,RV2,3,3*
G04 #@! TO.N,VEE*
X119380000Y-93980000D03*
G04 #@! TD*
G04 #@! TO.P,RV1,1,1*
G04 #@! TO.N,Net-(J2-Pin_1)*
X99060000Y-93980000D03*
G04 #@! TO.P,RV1,2,2*
G04 #@! TO.N,Net-(IC1-Y_IN)*
X96520000Y-93980000D03*
G04 #@! TO.P,RV1,3,3*
G04 #@! TO.N,Net-(R1-Pad1)*
X93980000Y-93980000D03*
G04 #@! TD*
D10*
G04 #@! TO.P,RX1,1*
G04 #@! TO.N,Net-(IC1-X_GAIN@1)*
X129540000Y-114300000D03*
G04 #@! TO.P,RX1,2*
G04 #@! TO.N,Net-(IC1-X_GAIN@2)*
X139700000Y-114300000D03*
G04 #@! TD*
D11*
G04 #@! TO.P,RV3,1,1*
G04 #@! TO.N,VCC*
X111760000Y-93980000D03*
G04 #@! TO.P,RV3,2,2*
G04 #@! TO.N,Net-(R3-Pad1)*
X109220000Y-93980000D03*
G04 #@! TO.P,RV3,3,3*
G04 #@! TO.N,VEE*
X106680000Y-93980000D03*
G04 #@! TD*
D12*
G04 #@! TO.P,IC1,1,MULT@1*
G04 #@! TO.N,Net-(IC1-MULT@1)*
X129540000Y-91440000D03*
D10*
G04 #@! TO.P,IC1,2,MULT@2*
G04 #@! TO.N,Net-(IC1-MULT@2)*
X129540000Y-93980000D03*
G04 #@! TO.P,IC1,3,X_IN*
G04 #@! TO.N,Net-(IC1-X_IN)*
X129540000Y-96520000D03*
G04 #@! TO.P,IC1,4,COMMON*
G04 #@! TO.N,GND*
X129540000Y-99060000D03*
G04 #@! TO.P,IC1,5,Y_IN*
G04 #@! TO.N,Net-(IC1-Y_IN)*
X129540000Y-101600000D03*
G04 #@! TO.P,IC1,6,Y_GAIN@1*
G04 #@! TO.N,Net-(IC1-Y_GAIN@1)*
X129540000Y-104140000D03*
G04 #@! TO.P,IC1,7,Y_GAIN@2*
G04 #@! TO.N,Net-(IC1-Y_GAIN@2)*
X129540000Y-106680000D03*
G04 #@! TO.P,IC1,8,X_GAIN@1*
G04 #@! TO.N,Net-(IC1-X_GAIN@1)*
X129540000Y-109220000D03*
G04 #@! TO.P,IC1,9,X_GAIN@2*
G04 #@! TO.N,Net-(IC1-X_GAIN@2)*
X137160000Y-109220000D03*
G04 #@! TO.P,IC1,10,V-*
G04 #@! TO.N,VEE*
X137160000Y-106680000D03*
G04 #@! TO.P,IC1,11,OP_OUT*
G04 #@! TO.N,Net-(IC1-OP_OUT)*
X137160000Y-104140000D03*
G04 #@! TO.P,IC1,12,COMP*
G04 #@! TO.N,Net-(IC1-COMP)*
X137160000Y-101600000D03*
G04 #@! TO.P,IC1,13,OP+*
G04 #@! TO.N,Net-(IC1-OP+)*
X137160000Y-99060000D03*
G04 #@! TO.P,IC1,14,OP-*
G04 #@! TO.N,Net-(IC1-OP-)*
X137160000Y-96520000D03*
G04 #@! TO.P,IC1,15,HF_OUT*
G04 #@! TO.N,unconnected-(IC1-HF_OUT-Pad15)*
X137160000Y-93980000D03*
G04 #@! TO.P,IC1,16,V+*
G04 #@! TO.N,VCC*
X137160000Y-91440000D03*
G04 #@! TD*
G04 #@! TO.P,RY1,1*
G04 #@! TO.N,Net-(IC1-Y_GAIN@2)*
X124460000Y-109220000D03*
G04 #@! TO.P,RY1,2*
G04 #@! TO.N,Net-(IC1-Y_GAIN@1)*
X124460000Y-99060000D03*
G04 #@! TD*
G04 #@! TO.P,Ri1,1*
G04 #@! TO.N,Net-(IC1-MULT@1)*
X147320000Y-91440000D03*
G04 #@! TO.P,Ri1,2*
G04 #@! TO.N,Net-(IC1-OP-)*
X157480000Y-91440000D03*
G04 #@! TD*
G04 #@! TO.P,R2,1*
G04 #@! TO.N,Net-(R2-Pad1)*
X109220000Y-101600000D03*
G04 #@! TO.P,R2,2*
G04 #@! TO.N,Net-(IC1-Y_GAIN@2)*
X119380000Y-101600000D03*
G04 #@! TD*
D13*
G04 #@! TO.P,J2,1,Pin_1*
G04 #@! TO.N,Net-(J2-Pin_1)*
X96520000Y-109220000D03*
D14*
G04 #@! TO.P,J2,2,Pin_2*
X99060000Y-109220000D03*
G04 #@! TD*
D10*
G04 #@! TO.P,R5,1*
G04 #@! TO.N,Net-(IC1-MULT@2)*
X129540000Y-83820000D03*
G04 #@! TO.P,R5,2*
G04 #@! TO.N,Net-(IC1-OP+)*
X139700000Y-83820000D03*
G04 #@! TD*
D13*
G04 #@! TO.P,J1,1,Pin_1*
G04 #@! TO.N,Net-(IC1-X_IN)*
X121920000Y-86360000D03*
D14*
G04 #@! TO.P,J1,2,Pin_2*
X124460000Y-86360000D03*
G04 #@! TD*
D13*
G04 #@! TO.P,J3,1,Pin_1*
G04 #@! TO.N,Net-(IC1-OP-)*
X165100000Y-96520000D03*
D14*
G04 #@! TO.P,J3,2,Pin_2*
X167640000Y-96520000D03*
G04 #@! TD*
D10*
G04 #@! TO.P,Rf1,1*
G04 #@! TO.N,Net-(IC1-OP_OUT)*
X154940000Y-104140000D03*
G04 #@! TO.P,Rf1,2*
G04 #@! TO.N,Net-(IC1-OP-)*
X165100000Y-104140000D03*
G04 #@! TD*
G04 #@! TO.P,C1,1*
G04 #@! TO.N,Net-(IC1-COMP)*
X142240000Y-101600000D03*
G04 #@! TO.P,C1,2*
G04 #@! TO.N,Net-(IC1-OP_OUT)*
X142240000Y-104100000D03*
G04 #@! TD*
G04 #@! TO.P,R3,1*
G04 #@! TO.N,Net-(R3-Pad1)*
X104140000Y-101600000D03*
G04 #@! TO.P,R3,2*
G04 #@! TO.N,Net-(IC1-X_GAIN@1)*
X93980000Y-101600000D03*
G04 #@! TD*
D11*
G04 #@! TO.P,RV4,1,1*
G04 #@! TO.N,GND*
X152400000Y-83820000D03*
G04 #@! TO.P,RV4,2,2*
X154940000Y-83820000D03*
G04 #@! TO.P,RV4,3,3*
G04 #@! TO.N,Net-(R4-Pad1)*
X157480000Y-83820000D03*
G04 #@! TD*
D15*
G04 #@! TO.N,Net-(IC1-X_GAIN@2)*
X139700000Y-111760000D02*
X139700000Y-114300000D01*
X139700000Y-111760000D02*
X137160000Y-109220000D01*
G04 #@! TO.N,Net-(IC1-Y_IN)*
X125442950Y-101600000D02*
X129540000Y-101600000D01*
X116801950Y-92959000D02*
X125442950Y-101600000D01*
X96520000Y-93980000D02*
X97541000Y-92959000D01*
X97541000Y-92959000D02*
X116801950Y-92959000D01*
G04 #@! TO.N,Net-(IC1-OP+)*
X137160000Y-99060000D02*
X147320000Y-99060000D01*
G04 #@! TO.N,Net-(IC1-OP-)*
X165100000Y-96520000D02*
X165100000Y-104140000D01*
X160020000Y-91440000D02*
X165100000Y-96520000D01*
X152400000Y-96520000D02*
X137160000Y-96520000D01*
X157480000Y-91440000D02*
X152400000Y-96520000D01*
X165100000Y-96520000D02*
X167640000Y-96520000D01*
X157480000Y-91440000D02*
X160020000Y-91440000D01*
G04 #@! TO.N,Net-(IC1-OP_OUT)*
X142240000Y-104100000D02*
X137200000Y-104100000D01*
X137200000Y-104100000D02*
X137160000Y-104140000D01*
G04 #@! TO.N,Net-(IC1-COMP)*
X142240000Y-101600000D02*
X137160000Y-101600000D01*
G04 #@! TO.N,Net-(IC1-X_GAIN@1)*
X129540000Y-114300000D02*
X129540000Y-109220000D01*
X99060000Y-106680000D02*
X93980000Y-101600000D01*
X129540000Y-109220000D02*
X127000000Y-106680000D01*
X127000000Y-106680000D02*
X99060000Y-106680000D01*
G04 #@! TO.N,VEE*
X119380000Y-93980000D02*
X120481000Y-92879000D01*
X136059000Y-105579000D02*
X137160000Y-106680000D01*
X120481000Y-92879000D02*
X129996050Y-92879000D01*
X136059000Y-98941950D02*
X136059000Y-105579000D01*
X129996050Y-92879000D02*
X136059000Y-98941950D01*
G04 #@! TO.N,Net-(IC1-MULT@1)*
X146219000Y-92541000D02*
X130641000Y-92541000D01*
X130641000Y-92541000D02*
X129540000Y-91440000D01*
X147320000Y-91440000D02*
X146219000Y-92541000D01*
G04 #@! TO.N,Net-(R3-Pad1)*
X104140000Y-99060000D02*
X109220000Y-93980000D01*
X104140000Y-101600000D02*
X104140000Y-99060000D01*
G04 #@! TD*
G04 #@! TA.AperFunction,Conductor*
G04 #@! TO.N,GND*
G36*
X128231563Y-93499185D02*
G01*
X128277318Y-93551989D01*
X128287262Y-93621147D01*
X128282455Y-93641817D01*
X128271524Y-93675457D01*
X128271523Y-93675464D01*
X128239500Y-93877648D01*
X128239500Y-94082351D01*
X128271522Y-94284534D01*
X128334781Y-94479223D01*
X128427715Y-94661613D01*
X128548028Y-94827213D01*
X128692786Y-94971971D01*
X128814070Y-95060087D01*
X128858390Y-95092287D01*
X128938649Y-95133181D01*
X128951080Y-95139515D01*
X129001876Y-95187490D01*
X129018671Y-95255311D01*
X128996134Y-95321446D01*
X128951080Y-95360485D01*
X128858386Y-95407715D01*
X128692786Y-95528028D01*
X128548028Y-95672786D01*
X128427715Y-95838386D01*
X128334781Y-96020776D01*
X128271522Y-96215465D01*
X128239500Y-96417648D01*
X128239500Y-96622351D01*
X128271522Y-96824534D01*
X128334781Y-97019223D01*
X128427715Y-97201613D01*
X128548028Y-97367213D01*
X128692786Y-97511971D01*
X128858385Y-97632284D01*
X128858387Y-97632285D01*
X128858390Y-97632287D01*
X128942319Y-97675051D01*
X128951630Y-97679795D01*
X129002426Y-97727770D01*
X129019221Y-97795591D01*
X128996684Y-97861725D01*
X128951630Y-97900765D01*
X128858644Y-97948143D01*
X128814077Y-97980523D01*
X128814077Y-97980524D01*
X129493554Y-98660000D01*
X129487339Y-98660000D01*
X129385606Y-98687259D01*
X129294394Y-98739920D01*
X129219920Y-98814394D01*
X129167259Y-98905606D01*
X129140000Y-99007339D01*
X129140000Y-99013553D01*
X128460524Y-98334077D01*
X128460523Y-98334077D01*
X128428143Y-98378644D01*
X128335244Y-98560968D01*
X128272009Y-98755582D01*
X128240000Y-98957682D01*
X128240000Y-99162317D01*
X128272009Y-99364417D01*
X128335244Y-99559031D01*
X128428141Y-99741350D01*
X128428147Y-99741359D01*
X128460523Y-99785921D01*
X128460524Y-99785922D01*
X129140000Y-99106446D01*
X129140000Y-99112661D01*
X129167259Y-99214394D01*
X129219920Y-99305606D01*
X129294394Y-99380080D01*
X129385606Y-99432741D01*
X129487339Y-99460000D01*
X129493553Y-99460000D01*
X128814076Y-100139474D01*
X128858652Y-100171861D01*
X128951628Y-100219234D01*
X129002425Y-100267208D01*
X129019220Y-100335029D01*
X128996683Y-100401164D01*
X128951630Y-100440203D01*
X128858388Y-100487713D01*
X128692786Y-100608028D01*
X128548028Y-100752786D01*
X128427715Y-100918385D01*
X128420883Y-100931795D01*
X128372909Y-100982591D01*
X128310398Y-100999500D01*
X125743047Y-100999500D01*
X125676008Y-100979815D01*
X125655366Y-100963181D01*
X125078700Y-100386515D01*
X125045215Y-100325192D01*
X125050199Y-100255500D01*
X125092071Y-100199567D01*
X125110083Y-100188350D01*
X125141610Y-100172287D01*
X125186774Y-100139474D01*
X125307213Y-100051971D01*
X125307215Y-100051968D01*
X125307219Y-100051966D01*
X125451966Y-99907219D01*
X125451968Y-99907215D01*
X125451971Y-99907213D01*
X125504732Y-99834590D01*
X125572287Y-99741610D01*
X125665220Y-99559219D01*
X125728477Y-99364534D01*
X125760500Y-99162352D01*
X125760500Y-98957648D01*
X125752257Y-98905606D01*
X125728477Y-98755465D01*
X125671296Y-98579481D01*
X125665220Y-98560781D01*
X125665218Y-98560778D01*
X125665218Y-98560776D01*
X125622788Y-98477504D01*
X125572287Y-98378390D01*
X125540092Y-98334077D01*
X125451971Y-98212786D01*
X125307213Y-98068028D01*
X125141613Y-97947715D01*
X125141612Y-97947714D01*
X125141610Y-97947713D01*
X125049470Y-97900765D01*
X124959223Y-97854781D01*
X124764534Y-97791522D01*
X124589995Y-97763878D01*
X124562352Y-97759500D01*
X124357648Y-97759500D01*
X124333329Y-97763351D01*
X124155465Y-97791522D01*
X123960776Y-97854781D01*
X123778386Y-97947715D01*
X123612786Y-98068028D01*
X123468028Y-98212786D01*
X123347713Y-98378388D01*
X123331648Y-98409916D01*
X123283672Y-98460711D01*
X123215851Y-98477504D01*
X123149716Y-98454964D01*
X123133484Y-98441299D01*
X119939220Y-95247035D01*
X119905735Y-95185712D01*
X119910719Y-95116020D01*
X119952591Y-95060087D01*
X119970608Y-95048869D01*
X120019677Y-95023867D01*
X120019676Y-95023867D01*
X120019681Y-95023865D01*
X120175102Y-94910945D01*
X120310945Y-94775102D01*
X120423865Y-94619681D01*
X120511082Y-94448509D01*
X120511084Y-94448504D01*
X120532069Y-94383919D01*
X120571506Y-94326243D01*
X120635864Y-94299044D01*
X120704711Y-94310958D01*
X120756187Y-94358202D01*
X120767931Y-94383919D01*
X120788915Y-94448504D01*
X120846997Y-94562495D01*
X120876135Y-94619681D01*
X120989055Y-94775102D01*
X121124898Y-94910945D01*
X121280319Y-95023865D01*
X121414598Y-95092284D01*
X121451493Y-95111083D01*
X121519505Y-95133181D01*
X121634199Y-95170447D01*
X121823945Y-95200500D01*
X121823946Y-95200500D01*
X122016054Y-95200500D01*
X122016055Y-95200500D01*
X122205801Y-95170447D01*
X122388509Y-95111082D01*
X122559681Y-95023865D01*
X122715102Y-94910945D01*
X122850945Y-94775102D01*
X122963865Y-94619681D01*
X123051082Y-94448509D01*
X123051084Y-94448504D01*
X123072069Y-94383919D01*
X123111506Y-94326243D01*
X123175864Y-94299044D01*
X123244711Y-94310958D01*
X123296187Y-94358202D01*
X123307931Y-94383919D01*
X123328915Y-94448504D01*
X123386997Y-94562495D01*
X123416135Y-94619681D01*
X123529055Y-94775102D01*
X123664898Y-94910945D01*
X123820319Y-95023865D01*
X123954598Y-95092284D01*
X123991493Y-95111083D01*
X124059505Y-95133181D01*
X124174199Y-95170447D01*
X124363945Y-95200500D01*
X124363946Y-95200500D01*
X124556054Y-95200500D01*
X124556055Y-95200500D01*
X124745801Y-95170447D01*
X124928509Y-95111082D01*
X125099681Y-95023865D01*
X125255102Y-94910945D01*
X125390945Y-94775102D01*
X125503865Y-94619681D01*
X125591082Y-94448509D01*
X125650447Y-94265801D01*
X125680500Y-94076055D01*
X125680500Y-93883945D01*
X125650447Y-93694199D01*
X125643403Y-93672519D01*
X125633428Y-93641818D01*
X125631433Y-93571976D01*
X125667514Y-93512144D01*
X125730215Y-93481316D01*
X125751359Y-93479500D01*
X128164524Y-93479500D01*
X128231563Y-93499185D01*
G37*
G04 #@! TD.AperFunction*
G04 #@! TA.AperFunction,Conductor*
G36*
X172162539Y-79260185D02*
G01*
X172208294Y-79312989D01*
X172219500Y-79364500D01*
X172219500Y-118755500D01*
X172199815Y-118822539D01*
X172147011Y-118868294D01*
X172095500Y-118879500D01*
X89524500Y-118879500D01*
X89457461Y-118859815D01*
X89411706Y-118807011D01*
X89400500Y-118755500D01*
X89400500Y-114519568D01*
X91599500Y-114519568D01*
X91599500Y-114800431D01*
X91630942Y-115079494D01*
X91630945Y-115079512D01*
X91693439Y-115353317D01*
X91693443Y-115353329D01*
X91786200Y-115618411D01*
X91908053Y-115871442D01*
X91908055Y-115871445D01*
X92057477Y-116109248D01*
X92232584Y-116328825D01*
X92431175Y-116527416D01*
X92650752Y-116702523D01*
X92888555Y-116851945D01*
X93141592Y-116973801D01*
X93340680Y-117043465D01*
X93406670Y-117066556D01*
X93406682Y-117066560D01*
X93680491Y-117129055D01*
X93680497Y-117129055D01*
X93680505Y-117129057D01*
X93866547Y-117150018D01*
X93959569Y-117160499D01*
X93959572Y-117160500D01*
X93959575Y-117160500D01*
X94240428Y-117160500D01*
X94240429Y-117160499D01*
X94383055Y-117144429D01*
X94519494Y-117129057D01*
X94519499Y-117129056D01*
X94519509Y-117129055D01*
X94793318Y-117066560D01*
X95058408Y-116973801D01*
X95311445Y-116851945D01*
X95549248Y-116702523D01*
X95768825Y-116527416D01*
X95967416Y-116328825D01*
X96142523Y-116109248D01*
X96291945Y-115871445D01*
X96413801Y-115618408D01*
X96506560Y-115353318D01*
X96569055Y-115079509D01*
X96580086Y-114981610D01*
X96600499Y-114800431D01*
X96600500Y-114800427D01*
X96600500Y-114519572D01*
X96600499Y-114519568D01*
X96569057Y-114240505D01*
X96569054Y-114240487D01*
X96506560Y-113966682D01*
X96506556Y-113966670D01*
X96483465Y-113900680D01*
X96413801Y-113701592D01*
X96291945Y-113448555D01*
X96142523Y-113210752D01*
X95967416Y-112991175D01*
X95768825Y-112792584D01*
X95549248Y-112617477D01*
X95311445Y-112468055D01*
X95311442Y-112468053D01*
X95058411Y-112346200D01*
X94793329Y-112253443D01*
X94793317Y-112253439D01*
X94519512Y-112190945D01*
X94519494Y-112190942D01*
X94240431Y-112159500D01*
X94240425Y-112159500D01*
X93959575Y-112159500D01*
X93959568Y-112159500D01*
X93680505Y-112190942D01*
X93680487Y-112190945D01*
X93406682Y-112253439D01*
X93406670Y-112253443D01*
X93141588Y-112346200D01*
X92888557Y-112468053D01*
X92650753Y-112617476D01*
X92431175Y-112792583D01*
X92232583Y-112991175D01*
X92057476Y-113210753D01*
X91908053Y-113448557D01*
X91786200Y-113701588D01*
X91693443Y-113966670D01*
X91693439Y-113966682D01*
X91630945Y-114240487D01*
X91630942Y-114240505D01*
X91599500Y-114519568D01*
X89400500Y-114519568D01*
X89400500Y-108322135D01*
X95169500Y-108322135D01*
X95169500Y-110117870D01*
X95169501Y-110117876D01*
X95175908Y-110177483D01*
X95226202Y-110312328D01*
X95226206Y-110312335D01*
X95312452Y-110427544D01*
X95312455Y-110427547D01*
X95427664Y-110513793D01*
X95427671Y-110513797D01*
X95562517Y-110564091D01*
X95562516Y-110564091D01*
X95569444Y-110564835D01*
X95622127Y-110570500D01*
X97417872Y-110570499D01*
X97477483Y-110564091D01*
X97612331Y-110513796D01*
X97727546Y-110427546D01*
X97813796Y-110312331D01*
X97862810Y-110180916D01*
X97904681Y-110124984D01*
X97970145Y-110100566D01*
X98038418Y-110115417D01*
X98066673Y-110136569D01*
X98180213Y-110250109D01*
X98352179Y-110375048D01*
X98352181Y-110375049D01*
X98352184Y-110375051D01*
X98541588Y-110471557D01*
X98743757Y-110537246D01*
X98953713Y-110570500D01*
X98953714Y-110570500D01*
X99166286Y-110570500D01*
X99166287Y-110570500D01*
X99376243Y-110537246D01*
X99578412Y-110471557D01*
X99767816Y-110375051D01*
X99854138Y-110312335D01*
X99939786Y-110250109D01*
X99939788Y-110250106D01*
X99939792Y-110250104D01*
X100090104Y-110099792D01*
X100090106Y-110099788D01*
X100090109Y-110099786D01*
X100215048Y-109927820D01*
X100215047Y-109927820D01*
X100215051Y-109927816D01*
X100311557Y-109738412D01*
X100377246Y-109536243D01*
X100410500Y-109326287D01*
X100410500Y-109117648D01*
X102839500Y-109117648D01*
X102839500Y-109322351D01*
X102871522Y-109524534D01*
X102934781Y-109719223D01*
X102998691Y-109844653D01*
X103027585Y-109901359D01*
X103027715Y-109901613D01*
X103148028Y-110067213D01*
X103292786Y-110211971D01*
X103430928Y-110312335D01*
X103458390Y-110332287D01*
X103542319Y-110375051D01*
X103640776Y-110425218D01*
X103640778Y-110425218D01*
X103640781Y-110425220D01*
X103715818Y-110449601D01*
X103835465Y-110488477D01*
X103936557Y-110504488D01*
X104037648Y-110520500D01*
X104037649Y-110520500D01*
X104242351Y-110520500D01*
X104242352Y-110520500D01*
X104444534Y-110488477D01*
X104639219Y-110425220D01*
X104821610Y-110332287D01*
X104934726Y-110250104D01*
X104987213Y-110211971D01*
X104987215Y-110211968D01*
X104987219Y-110211966D01*
X105131966Y-110067219D01*
X105131968Y-110067215D01*
X105131971Y-110067213D01*
X105184732Y-109994590D01*
X105252287Y-109901610D01*
X105345220Y-109719219D01*
X105408477Y-109524534D01*
X105440500Y-109322352D01*
X105440500Y-109117682D01*
X113000000Y-109117682D01*
X113000000Y-109322317D01*
X113032009Y-109524417D01*
X113095244Y-109719031D01*
X113188141Y-109901350D01*
X113188147Y-109901359D01*
X113220523Y-109945921D01*
X113220524Y-109945922D01*
X113900000Y-109266446D01*
X113900000Y-109272661D01*
X113927259Y-109374394D01*
X113979920Y-109465606D01*
X114054394Y-109540080D01*
X114145606Y-109592741D01*
X114247339Y-109620000D01*
X114253553Y-109620000D01*
X113574076Y-110299474D01*
X113618650Y-110331859D01*
X113800968Y-110424755D01*
X113995582Y-110487990D01*
X114197683Y-110520000D01*
X114402317Y-110520000D01*
X114604417Y-110487990D01*
X114799031Y-110424755D01*
X114981349Y-110331859D01*
X115025921Y-110299474D01*
X114346447Y-109620000D01*
X114352661Y-109620000D01*
X114454394Y-109592741D01*
X114545606Y-109540080D01*
X114620080Y-109465606D01*
X114672741Y-109374394D01*
X114700000Y-109272661D01*
X114700000Y-109266448D01*
X115379474Y-109945922D01*
X115379474Y-109945921D01*
X115411859Y-109901349D01*
X115504755Y-109719031D01*
X115567990Y-109524417D01*
X115600000Y-109322317D01*
X115600000Y-109117682D01*
X115599995Y-109117648D01*
X123159500Y-109117648D01*
X123159500Y-109322351D01*
X123191522Y-109524534D01*
X123254781Y-109719223D01*
X123318691Y-109844653D01*
X123347585Y-109901359D01*
X123347715Y-109901613D01*
X123468028Y-110067213D01*
X123612786Y-110211971D01*
X123750928Y-110312335D01*
X123778390Y-110332287D01*
X123862319Y-110375051D01*
X123960776Y-110425218D01*
X123960778Y-110425218D01*
X123960781Y-110425220D01*
X124035818Y-110449601D01*
X124155465Y-110488477D01*
X124256557Y-110504488D01*
X124357648Y-110520500D01*
X124357649Y-110520500D01*
X124562351Y-110520500D01*
X124562352Y-110520500D01*
X124764534Y-110488477D01*
X124959219Y-110425220D01*
X125141610Y-110332287D01*
X125254726Y-110250104D01*
X125307213Y-110211971D01*
X125307215Y-110211968D01*
X125307219Y-110211966D01*
X125451966Y-110067219D01*
X125451968Y-110067215D01*
X125451971Y-110067213D01*
X125504732Y-109994590D01*
X125572287Y-109901610D01*
X125665220Y-109719219D01*
X125728477Y-109524534D01*
X125760500Y-109322352D01*
X125760500Y-109117648D01*
X125752257Y-109065606D01*
X125728477Y-108915465D01*
X125682888Y-108775157D01*
X125665220Y-108720781D01*
X125665218Y-108720778D01*
X125665218Y-108720776D01*
X125631503Y-108654607D01*
X125572287Y-108538390D01*
X125564556Y-108527749D01*
X125451971Y-108372786D01*
X125307213Y-108228028D01*
X125141613Y-108107715D01*
X125141612Y-108107714D01*
X125141610Y-108107713D01*
X125057681Y-108064949D01*
X124959223Y-108014781D01*
X124764534Y-107951522D01*
X124589995Y-107923878D01*
X124562352Y-107919500D01*
X124357648Y-107919500D01*
X124333329Y-107923351D01*
X124155465Y-107951522D01*
X123960776Y-108014781D01*
X123778386Y-108107715D01*
X123612786Y-108228028D01*
X123468028Y-108372786D01*
X123347715Y-108538386D01*
X123254781Y-108720776D01*
X123191522Y-108915465D01*
X123159500Y-109117648D01*
X115599995Y-109117648D01*
X115567990Y-108915582D01*
X115504755Y-108720968D01*
X115411859Y-108538650D01*
X115379474Y-108494077D01*
X115379474Y-108494076D01*
X114700000Y-109173551D01*
X114700000Y-109167339D01*
X114672741Y-109065606D01*
X114620080Y-108974394D01*
X114545606Y-108899920D01*
X114454394Y-108847259D01*
X114352661Y-108820000D01*
X114346446Y-108820000D01*
X115025922Y-108140524D01*
X115025921Y-108140523D01*
X114981359Y-108108147D01*
X114981350Y-108108141D01*
X114799031Y-108015244D01*
X114604417Y-107952009D01*
X114402317Y-107920000D01*
X114197683Y-107920000D01*
X113995582Y-107952009D01*
X113800968Y-108015244D01*
X113618644Y-108108143D01*
X113574077Y-108140523D01*
X113574077Y-108140524D01*
X114253554Y-108820000D01*
X114247339Y-108820000D01*
X114145606Y-108847259D01*
X114054394Y-108899920D01*
X113979920Y-108974394D01*
X113927259Y-109065606D01*
X113900000Y-109167339D01*
X113900000Y-109173553D01*
X113220524Y-108494077D01*
X113220523Y-108494077D01*
X113188143Y-108538644D01*
X113095244Y-108720968D01*
X113032009Y-108915582D01*
X113000000Y-109117682D01*
X105440500Y-109117682D01*
X105440500Y-109117648D01*
X105432257Y-109065606D01*
X105408477Y-108915465D01*
X105362888Y-108775157D01*
X105345220Y-108720781D01*
X105345218Y-108720778D01*
X105345218Y-108720776D01*
X105311503Y-108654607D01*
X105252287Y-108538390D01*
X105244556Y-108527749D01*
X105131971Y-108372786D01*
X104987213Y-108228028D01*
X104821613Y-108107715D01*
X104821612Y-108107714D01*
X104821610Y-108107713D01*
X104737681Y-108064949D01*
X104639223Y-108014781D01*
X104444534Y-107951522D01*
X104269995Y-107923878D01*
X104242352Y-107919500D01*
X104037648Y-107919500D01*
X104013329Y-107923351D01*
X103835465Y-107951522D01*
X103640776Y-108014781D01*
X103458386Y-108107715D01*
X103292786Y-108228028D01*
X103148028Y-108372786D01*
X103027715Y-108538386D01*
X102934781Y-108720776D01*
X102871522Y-108915465D01*
X102839500Y-109117648D01*
X100410500Y-109117648D01*
X100410500Y-109113713D01*
X100377246Y-108903757D01*
X100311557Y-108701588D01*
X100215051Y-108512184D01*
X100215049Y-108512181D01*
X100215048Y-108512179D01*
X100090109Y-108340213D01*
X99939786Y-108189890D01*
X99767820Y-108064951D01*
X99578414Y-107968444D01*
X99578413Y-107968443D01*
X99578412Y-107968443D01*
X99376243Y-107902754D01*
X99376241Y-107902753D01*
X99376240Y-107902753D01*
X99214957Y-107877208D01*
X99166287Y-107869500D01*
X98953713Y-107869500D01*
X98905042Y-107877208D01*
X98743760Y-107902753D01*
X98541585Y-107968444D01*
X98352179Y-108064951D01*
X98180215Y-108189889D01*
X98066673Y-108303431D01*
X98005350Y-108336915D01*
X97935658Y-108331931D01*
X97879725Y-108290059D01*
X97862810Y-108259082D01*
X97813797Y-108127671D01*
X97813793Y-108127664D01*
X97727547Y-108012455D01*
X97727544Y-108012452D01*
X97612335Y-107926206D01*
X97612328Y-107926202D01*
X97477482Y-107875908D01*
X97477483Y-107875908D01*
X97417883Y-107869501D01*
X97417881Y-107869500D01*
X97417873Y-107869500D01*
X97417864Y-107869500D01*
X95622129Y-107869500D01*
X95622123Y-107869501D01*
X95562516Y-107875908D01*
X95427671Y-107926202D01*
X95427664Y-107926206D01*
X95312455Y-108012452D01*
X95312452Y-108012455D01*
X95226206Y-108127664D01*
X95226202Y-108127671D01*
X95175908Y-108262517D01*
X95169501Y-108322116D01*
X95169500Y-108322135D01*
X89400500Y-108322135D01*
X89400500Y-101497648D01*
X92679500Y-101497648D01*
X92679500Y-101702351D01*
X92711522Y-101904534D01*
X92774781Y-102099223D01*
X92867715Y-102281613D01*
X92988028Y-102447213D01*
X93132786Y-102591971D01*
X93287749Y-102704556D01*
X93298390Y-102712287D01*
X93391080Y-102759515D01*
X93480776Y-102805218D01*
X93480778Y-102805218D01*
X93480781Y-102805220D01*
X93585137Y-102839127D01*
X93675465Y-102868477D01*
X93694697Y-102871523D01*
X93877648Y-102900500D01*
X93877649Y-102900500D01*
X94082351Y-102900500D01*
X94082352Y-102900500D01*
X94284534Y-102868477D01*
X94298842Y-102863827D01*
X94368682Y-102861831D01*
X94424842Y-102894077D01*
X98575139Y-107044374D01*
X98575149Y-107044385D01*
X98579479Y-107048715D01*
X98579480Y-107048716D01*
X98691284Y-107160520D01*
X98778095Y-107210639D01*
X98778097Y-107210641D01*
X98816151Y-107232611D01*
X98828215Y-107239577D01*
X98980943Y-107280501D01*
X98980946Y-107280501D01*
X99146653Y-107280501D01*
X99146669Y-107280500D01*
X126699903Y-107280500D01*
X126766942Y-107300185D01*
X126787584Y-107316819D01*
X128245922Y-108775157D01*
X128279407Y-108836480D01*
X128276173Y-108901154D01*
X128274365Y-108906717D01*
X128271522Y-108915468D01*
X128239500Y-109117648D01*
X128239500Y-109322351D01*
X128271522Y-109524534D01*
X128334781Y-109719223D01*
X128398691Y-109844653D01*
X128427585Y-109901359D01*
X128427715Y-109901613D01*
X128548028Y-110067213D01*
X128548034Y-110067219D01*
X128692781Y-110211966D01*
X128858390Y-110332287D01*
X128871793Y-110339116D01*
X128922589Y-110387088D01*
X128939500Y-110449601D01*
X128939500Y-113070397D01*
X128919815Y-113137436D01*
X128871800Y-113180879D01*
X128858389Y-113187712D01*
X128692786Y-113308028D01*
X128548028Y-113452786D01*
X128427715Y-113618386D01*
X128334781Y-113800776D01*
X128271522Y-113995465D01*
X128239500Y-114197648D01*
X128239500Y-114402351D01*
X128271522Y-114604534D01*
X128334781Y-114799223D01*
X128427715Y-114981613D01*
X128548028Y-115147213D01*
X128692786Y-115291971D01*
X128847749Y-115404556D01*
X128858390Y-115412287D01*
X128974607Y-115471503D01*
X129040776Y-115505218D01*
X129040778Y-115505218D01*
X129040781Y-115505220D01*
X129145137Y-115539127D01*
X129235465Y-115568477D01*
X129336557Y-115584488D01*
X129437648Y-115600500D01*
X129437649Y-115600500D01*
X129642351Y-115600500D01*
X129642352Y-115600500D01*
X129844534Y-115568477D01*
X130039219Y-115505220D01*
X130221610Y-115412287D01*
X130314590Y-115344732D01*
X130387213Y-115291971D01*
X130387215Y-115291968D01*
X130387219Y-115291966D01*
X130531966Y-115147219D01*
X130531968Y-115147215D01*
X130531971Y-115147213D01*
X130584732Y-115074590D01*
X130652287Y-114981610D01*
X130744602Y-114800431D01*
X130745218Y-114799223D01*
X130745218Y-114799222D01*
X130745220Y-114799219D01*
X130808477Y-114604534D01*
X130840500Y-114402352D01*
X130840500Y-114197648D01*
X130808477Y-113995466D01*
X130745220Y-113800781D01*
X130745218Y-113800778D01*
X130745218Y-113800776D01*
X130711503Y-113734607D01*
X130652287Y-113618390D01*
X130580637Y-113519771D01*
X130531971Y-113452786D01*
X130387213Y-113308028D01*
X130221610Y-113187712D01*
X130208200Y-113180879D01*
X130157406Y-113132903D01*
X130140500Y-113070397D01*
X130140500Y-110449601D01*
X130160185Y-110382562D01*
X130208206Y-110339116D01*
X130221610Y-110332287D01*
X130387219Y-110211966D01*
X130531966Y-110067219D01*
X130531968Y-110067215D01*
X130531971Y-110067213D01*
X130584732Y-109994590D01*
X130652287Y-109901610D01*
X130745220Y-109719219D01*
X130808477Y-109524534D01*
X130840500Y-109322352D01*
X130840500Y-109117648D01*
X130832257Y-109065606D01*
X130808477Y-108915465D01*
X130762888Y-108775157D01*
X130745220Y-108720781D01*
X130745218Y-108720778D01*
X130745218Y-108720776D01*
X130711503Y-108654607D01*
X130652287Y-108538390D01*
X130644556Y-108527749D01*
X130531971Y-108372786D01*
X130387213Y-108228028D01*
X130221614Y-108107715D01*
X130215006Y-108104348D01*
X130128917Y-108060483D01*
X130078123Y-108012511D01*
X130061328Y-107944690D01*
X130083865Y-107878555D01*
X130128917Y-107839516D01*
X130221610Y-107792287D01*
X130242770Y-107776913D01*
X130387213Y-107671971D01*
X130387215Y-107671968D01*
X130387219Y-107671966D01*
X130531966Y-107527219D01*
X130531968Y-107527215D01*
X130531971Y-107527213D01*
X130584732Y-107454590D01*
X130652287Y-107361610D01*
X130745220Y-107179219D01*
X130808477Y-106984534D01*
X130840500Y-106782352D01*
X130840500Y-106577648D01*
X130808477Y-106375466D01*
X130745220Y-106180781D01*
X130745218Y-106180778D01*
X130745218Y-106180776D01*
X130711503Y-106114607D01*
X130652287Y-105998390D01*
X130634661Y-105974130D01*
X130531968Y-105832783D01*
X130387213Y-105688028D01*
X130221614Y-105567715D01*
X130215006Y-105564348D01*
X130128917Y-105520483D01*
X130078123Y-105472511D01*
X130061328Y-105404690D01*
X130083865Y-105338555D01*
X130128917Y-105299516D01*
X130221610Y-105252287D01*
X130276670Y-105212284D01*
X130387213Y-105131971D01*
X130387215Y-105131968D01*
X130387219Y-105131966D01*
X130531966Y-104987219D01*
X130531968Y-104987215D01*
X130531971Y-104987213D01*
X130584732Y-104914590D01*
X130652287Y-104821610D01*
X130745220Y-104639219D01*
X130808477Y-104444534D01*
X130840500Y-104242352D01*
X130840500Y-104037648D01*
X130808477Y-103835466D01*
X130745220Y-103640781D01*
X130745218Y-103640778D01*
X130745218Y-103640776D01*
X130711503Y-103574607D01*
X130652287Y-103458390D01*
X130623222Y-103418385D01*
X130531971Y-103292786D01*
X130387213Y-103148028D01*
X130221614Y-103027715D01*
X130215006Y-103024348D01*
X130128917Y-102980483D01*
X130078123Y-102932511D01*
X130061328Y-102864690D01*
X130083865Y-102798555D01*
X130128917Y-102759516D01*
X130221610Y-102712287D01*
X130242770Y-102696913D01*
X130387213Y-102591971D01*
X130387215Y-102591968D01*
X130387219Y-102591966D01*
X130531966Y-102447219D01*
X130531968Y-102447215D01*
X130531971Y-102447213D01*
X130584732Y-102374590D01*
X130652287Y-102281610D01*
X130745220Y-102099219D01*
X130808477Y-101904534D01*
X130840500Y-101702352D01*
X130840500Y-101497648D01*
X130808477Y-101295466D01*
X130745220Y-101100781D01*
X130745218Y-101100778D01*
X130745218Y-101100776D01*
X130711503Y-101034607D01*
X130652287Y-100918390D01*
X130644556Y-100907749D01*
X130531971Y-100752786D01*
X130387213Y-100608028D01*
X130221611Y-100487713D01*
X130128369Y-100440203D01*
X130077574Y-100392229D01*
X130060779Y-100324407D01*
X130083317Y-100258273D01*
X130128371Y-100219234D01*
X130221346Y-100171861D01*
X130221347Y-100171861D01*
X130265921Y-100139474D01*
X129586447Y-99460000D01*
X129592661Y-99460000D01*
X129694394Y-99432741D01*
X129785606Y-99380080D01*
X129860080Y-99305606D01*
X129912741Y-99214394D01*
X129940000Y-99112661D01*
X129940000Y-99106447D01*
X130619474Y-99785921D01*
X130651859Y-99741349D01*
X130744755Y-99559031D01*
X130807990Y-99364417D01*
X130840000Y-99162317D01*
X130840000Y-98957682D01*
X130807990Y-98755582D01*
X130744755Y-98560968D01*
X130651859Y-98378650D01*
X130619474Y-98334077D01*
X130619474Y-98334076D01*
X129940000Y-99013551D01*
X129940000Y-99007339D01*
X129912741Y-98905606D01*
X129860080Y-98814394D01*
X129785606Y-98739920D01*
X129694394Y-98687259D01*
X129592661Y-98660000D01*
X129586446Y-98660000D01*
X130265922Y-97980524D01*
X130265921Y-97980523D01*
X130221359Y-97948147D01*
X130221350Y-97948141D01*
X130128369Y-97900765D01*
X130077573Y-97852790D01*
X130060778Y-97784969D01*
X130083315Y-97718835D01*
X130128370Y-97679795D01*
X130137681Y-97675051D01*
X130221610Y-97632287D01*
X130271144Y-97596298D01*
X130387213Y-97511971D01*
X130387215Y-97511968D01*
X130387219Y-97511966D01*
X130531966Y-97367219D01*
X130531968Y-97367215D01*
X130531971Y-97367213D01*
X130633247Y-97227816D01*
X130652287Y-97201610D01*
X130745220Y-97019219D01*
X130808477Y-96824534D01*
X130840500Y-96622352D01*
X130840500Y-96417648D01*
X130808477Y-96215466D01*
X130804673Y-96203760D01*
X130761244Y-96070097D01*
X130745220Y-96020781D01*
X130745218Y-96020778D01*
X130745218Y-96020776D01*
X130711503Y-95954607D01*
X130652287Y-95838390D01*
X130644556Y-95827749D01*
X130531971Y-95672786D01*
X130387213Y-95528028D01*
X130221614Y-95407715D01*
X130206337Y-95399931D01*
X130128917Y-95360483D01*
X130078123Y-95312511D01*
X130061328Y-95244690D01*
X130083865Y-95178555D01*
X130128917Y-95139516D01*
X130221610Y-95092287D01*
X130315787Y-95023864D01*
X130387213Y-94971971D01*
X130387215Y-94971968D01*
X130387219Y-94971966D01*
X130531966Y-94827219D01*
X130531968Y-94827215D01*
X130531971Y-94827213D01*
X130652284Y-94661614D01*
X130652285Y-94661613D01*
X130652287Y-94661610D01*
X130668349Y-94630085D01*
X130716323Y-94579290D01*
X130784144Y-94562495D01*
X130850279Y-94585032D01*
X130866515Y-94598700D01*
X135422181Y-99154366D01*
X135455666Y-99215689D01*
X135458500Y-99242047D01*
X135458500Y-105492330D01*
X135458499Y-105492348D01*
X135458499Y-105658054D01*
X135458498Y-105658054D01*
X135458499Y-105658057D01*
X135499423Y-105810785D01*
X135512123Y-105832781D01*
X135556361Y-105909404D01*
X135578479Y-105947715D01*
X135697349Y-106066585D01*
X135697355Y-106066590D01*
X135865922Y-106235157D01*
X135899407Y-106296480D01*
X135896173Y-106361155D01*
X135891522Y-106375468D01*
X135859500Y-106577648D01*
X135859500Y-106782351D01*
X135891522Y-106984534D01*
X135954781Y-107179223D01*
X136047715Y-107361613D01*
X136168028Y-107527213D01*
X136312786Y-107671971D01*
X136467749Y-107784556D01*
X136478390Y-107792287D01*
X136569840Y-107838883D01*
X136571080Y-107839515D01*
X136621876Y-107887490D01*
X136638671Y-107955311D01*
X136616134Y-108021446D01*
X136571080Y-108060485D01*
X136478386Y-108107715D01*
X136312786Y-108228028D01*
X136168028Y-108372786D01*
X136047715Y-108538386D01*
X135954781Y-108720776D01*
X135891522Y-108915465D01*
X135859500Y-109117648D01*
X135859500Y-109322351D01*
X135891522Y-109524534D01*
X135954781Y-109719223D01*
X136018691Y-109844653D01*
X136047585Y-109901359D01*
X136047715Y-109901613D01*
X136168028Y-110067213D01*
X136312786Y-110211971D01*
X136450928Y-110312335D01*
X136478390Y-110332287D01*
X136562319Y-110375051D01*
X136660776Y-110425218D01*
X136660778Y-110425218D01*
X136660781Y-110425220D01*
X136735818Y-110449601D01*
X136855465Y-110488477D01*
X136956557Y-110504488D01*
X137057648Y-110520500D01*
X137057649Y-110520500D01*
X137262351Y-110520500D01*
X137262352Y-110520500D01*
X137464534Y-110488477D01*
X137478842Y-110483827D01*
X137548682Y-110481831D01*
X137604842Y-110514077D01*
X139063181Y-111972416D01*
X139096666Y-112033739D01*
X139099500Y-112060097D01*
X139099500Y-113070397D01*
X139079815Y-113137436D01*
X139031800Y-113180879D01*
X139018389Y-113187712D01*
X138852786Y-113308028D01*
X138708028Y-113452786D01*
X138587715Y-113618386D01*
X138494781Y-113800776D01*
X138431522Y-113995465D01*
X138399500Y-114197648D01*
X138399500Y-114402351D01*
X138431522Y-114604534D01*
X138494781Y-114799223D01*
X138587715Y-114981613D01*
X138708028Y-115147213D01*
X138852786Y-115291971D01*
X139007749Y-115404556D01*
X139018390Y-115412287D01*
X139134607Y-115471503D01*
X139200776Y-115505218D01*
X139200778Y-115505218D01*
X139200781Y-115505220D01*
X139305137Y-115539127D01*
X139395465Y-115568477D01*
X139496557Y-115584488D01*
X139597648Y-115600500D01*
X139597649Y-115600500D01*
X139802351Y-115600500D01*
X139802352Y-115600500D01*
X140004534Y-115568477D01*
X140199219Y-115505220D01*
X140381610Y-115412287D01*
X140474590Y-115344732D01*
X140547213Y-115291971D01*
X140547215Y-115291968D01*
X140547219Y-115291966D01*
X140691966Y-115147219D01*
X140691968Y-115147215D01*
X140691971Y-115147213D01*
X140744732Y-115074590D01*
X140812287Y-114981610D01*
X140904602Y-114800431D01*
X140905218Y-114799223D01*
X140905218Y-114799222D01*
X140905220Y-114799219D01*
X140968477Y-114604534D01*
X140978326Y-114542351D01*
X140981935Y-114519568D01*
X165499500Y-114519568D01*
X165499500Y-114800431D01*
X165530942Y-115079494D01*
X165530945Y-115079512D01*
X165593439Y-115353317D01*
X165593443Y-115353329D01*
X165686200Y-115618411D01*
X165808053Y-115871442D01*
X165808055Y-115871445D01*
X165957477Y-116109248D01*
X166132584Y-116328825D01*
X166331175Y-116527416D01*
X166550752Y-116702523D01*
X166788555Y-116851945D01*
X167041592Y-116973801D01*
X167240680Y-117043465D01*
X167306670Y-117066556D01*
X167306682Y-117066560D01*
X167580491Y-117129055D01*
X167580497Y-117129055D01*
X167580505Y-117129057D01*
X167766547Y-117150018D01*
X167859569Y-117160499D01*
X167859572Y-117160500D01*
X167859575Y-117160500D01*
X168140428Y-117160500D01*
X168140429Y-117160499D01*
X168283055Y-117144429D01*
X168419494Y-117129057D01*
X168419499Y-117129056D01*
X168419509Y-117129055D01*
X168693318Y-117066560D01*
X168958408Y-116973801D01*
X169211445Y-116851945D01*
X169449248Y-116702523D01*
X169668825Y-116527416D01*
X169867416Y-116328825D01*
X170042523Y-116109248D01*
X170191945Y-115871445D01*
X170313801Y-115618408D01*
X170406560Y-115353318D01*
X170469055Y-115079509D01*
X170480086Y-114981610D01*
X170500499Y-114800431D01*
X170500500Y-114800427D01*
X170500500Y-114519572D01*
X170500499Y-114519568D01*
X170469057Y-114240505D01*
X170469054Y-114240487D01*
X170406560Y-113966682D01*
X170406556Y-113966670D01*
X170383465Y-113900680D01*
X170313801Y-113701592D01*
X170191945Y-113448555D01*
X170042523Y-113210752D01*
X169867416Y-112991175D01*
X169668825Y-112792584D01*
X169449248Y-112617477D01*
X169211445Y-112468055D01*
X169211442Y-112468053D01*
X168958411Y-112346200D01*
X168693329Y-112253443D01*
X168693317Y-112253439D01*
X168419512Y-112190945D01*
X168419494Y-112190942D01*
X168140431Y-112159500D01*
X168140425Y-112159500D01*
X167859575Y-112159500D01*
X167859568Y-112159500D01*
X167580505Y-112190942D01*
X167580487Y-112190945D01*
X167306682Y-112253439D01*
X167306670Y-112253443D01*
X167041588Y-112346200D01*
X166788557Y-112468053D01*
X166550753Y-112617476D01*
X166331175Y-112792583D01*
X166132583Y-112991175D01*
X165957476Y-113210753D01*
X165808053Y-113448557D01*
X165686200Y-113701588D01*
X165593443Y-113966670D01*
X165593439Y-113966682D01*
X165530945Y-114240487D01*
X165530942Y-114240505D01*
X165499500Y-114519568D01*
X140981935Y-114519568D01*
X140985557Y-114496698D01*
X141000500Y-114402351D01*
X141000500Y-114197648D01*
X140968477Y-113995465D01*
X140905218Y-113800776D01*
X140871503Y-113734607D01*
X140812287Y-113618390D01*
X140740637Y-113519771D01*
X140691971Y-113452786D01*
X140547213Y-113308028D01*
X140381610Y-113187712D01*
X140368200Y-113180879D01*
X140317406Y-113132903D01*
X140300500Y-113070397D01*
X140300500Y-111680945D01*
X140300500Y-111680943D01*
X140259577Y-111528216D01*
X140259573Y-111528209D01*
X140180524Y-111391290D01*
X140180521Y-111391286D01*
X140180520Y-111391284D01*
X140068716Y-111279480D01*
X140068715Y-111279479D01*
X140064385Y-111275149D01*
X140064374Y-111275139D01*
X138454077Y-109664842D01*
X138420592Y-109603519D01*
X138423828Y-109538841D01*
X138424672Y-109536243D01*
X138428477Y-109524534D01*
X138460500Y-109322352D01*
X138460500Y-109117648D01*
X138452257Y-109065606D01*
X138428477Y-108915465D01*
X138382888Y-108775157D01*
X138365220Y-108720781D01*
X138365218Y-108720778D01*
X138365218Y-108720776D01*
X138331503Y-108654607D01*
X138272287Y-108538390D01*
X138264556Y-108527749D01*
X138151971Y-108372786D01*
X138007213Y-108228028D01*
X137841614Y-108107715D01*
X137835006Y-108104348D01*
X137748917Y-108060483D01*
X137698123Y-108012511D01*
X137681328Y-107944690D01*
X137703865Y-107878555D01*
X137748917Y-107839516D01*
X137841610Y-107792287D01*
X137862770Y-107776913D01*
X138007213Y-107671971D01*
X138007215Y-107671968D01*
X138007219Y-107671966D01*
X138151966Y-107527219D01*
X138151968Y-107527215D01*
X138151971Y-107527213D01*
X138204732Y-107454590D01*
X138272287Y-107361610D01*
X138365220Y-107179219D01*
X138428477Y-106984534D01*
X138460500Y-106782352D01*
X138460500Y-106577648D01*
X138428477Y-106375466D01*
X138365220Y-106180781D01*
X138365218Y-106180778D01*
X138365218Y-106180776D01*
X138331503Y-106114607D01*
X138272287Y-105998390D01*
X138254661Y-105974130D01*
X138151968Y-105832783D01*
X138007213Y-105688028D01*
X137841614Y-105567715D01*
X137835006Y-105564348D01*
X137748917Y-105520483D01*
X137698123Y-105472511D01*
X137681328Y-105404690D01*
X137703865Y-105338555D01*
X137748917Y-105299516D01*
X137841610Y-105252287D01*
X137896670Y-105212284D01*
X138007213Y-105131971D01*
X138007215Y-105131968D01*
X138007219Y-105131966D01*
X138151966Y-104987219D01*
X138151968Y-104987215D01*
X138151971Y-104987213D01*
X138272284Y-104821614D01*
X138272285Y-104821613D01*
X138272287Y-104821610D01*
X138299498Y-104768204D01*
X138347472Y-104717409D01*
X138409983Y-104700500D01*
X141010398Y-104700500D01*
X141077437Y-104720185D01*
X141120883Y-104768205D01*
X141127715Y-104781614D01*
X141248028Y-104947213D01*
X141392786Y-105091971D01*
X141547749Y-105204556D01*
X141558390Y-105212287D01*
X141674607Y-105271503D01*
X141740776Y-105305218D01*
X141740778Y-105305218D01*
X141740781Y-105305220D01*
X141843376Y-105338555D01*
X141935465Y-105368477D01*
X142036557Y-105384488D01*
X142137648Y-105400500D01*
X142137649Y-105400500D01*
X142342351Y-105400500D01*
X142342352Y-105400500D01*
X142544534Y-105368477D01*
X142739219Y-105305220D01*
X142921610Y-105212287D01*
X143014590Y-105144732D01*
X143087213Y-105091971D01*
X143087215Y-105091968D01*
X143087219Y-105091966D01*
X143231966Y-104947219D01*
X143231968Y-104947215D01*
X143231971Y-104947213D01*
X143284732Y-104874590D01*
X143352287Y-104781610D01*
X143445220Y-104599219D01*
X143508477Y-104404534D01*
X143540500Y-104202352D01*
X143540500Y-104037648D01*
X153639500Y-104037648D01*
X153639500Y-104242351D01*
X153671522Y-104444534D01*
X153734781Y-104639223D01*
X153776034Y-104720185D01*
X153807333Y-104781613D01*
X153827715Y-104821613D01*
X153948028Y-104987213D01*
X154092786Y-105131971D01*
X154203330Y-105212284D01*
X154258390Y-105252287D01*
X154351080Y-105299515D01*
X154440776Y-105345218D01*
X154440778Y-105345218D01*
X154440781Y-105345220D01*
X154512359Y-105368477D01*
X154635465Y-105408477D01*
X154654697Y-105411523D01*
X154837648Y-105440500D01*
X154837649Y-105440500D01*
X155042351Y-105440500D01*
X155042352Y-105440500D01*
X155244534Y-105408477D01*
X155439219Y-105345220D01*
X155621610Y-105252287D01*
X155714590Y-105184732D01*
X155787213Y-105131971D01*
X155787215Y-105131968D01*
X155787219Y-105131966D01*
X155931966Y-104987219D01*
X155931968Y-104987215D01*
X155931971Y-104987213D01*
X155984732Y-104914590D01*
X156052287Y-104821610D01*
X156145220Y-104639219D01*
X156208477Y-104444534D01*
X156240500Y-104242352D01*
X156240500Y-104037648D01*
X156208477Y-103835466D01*
X156145220Y-103640781D01*
X156145218Y-103640778D01*
X156145218Y-103640776D01*
X156111503Y-103574607D01*
X156052287Y-103458390D01*
X156023222Y-103418385D01*
X155931971Y-103292786D01*
X155787213Y-103148028D01*
X155621613Y-103027715D01*
X155621612Y-103027714D01*
X155621610Y-103027713D01*
X155543106Y-102987713D01*
X155439223Y-102934781D01*
X155244534Y-102871522D01*
X155047693Y-102840346D01*
X155042352Y-102839500D01*
X154837648Y-102839500D01*
X154832307Y-102840346D01*
X154635465Y-102871522D01*
X154440776Y-102934781D01*
X154258386Y-103027715D01*
X154092786Y-103148028D01*
X153948028Y-103292786D01*
X153827715Y-103458386D01*
X153734781Y-103640776D01*
X153671522Y-103835465D01*
X153639500Y-104037648D01*
X143540500Y-104037648D01*
X143540500Y-103997648D01*
X143508477Y-103795465D01*
X143445218Y-103600776D01*
X143411503Y-103534607D01*
X143352287Y-103418390D01*
X143344556Y-103407749D01*
X143231971Y-103252786D01*
X143087213Y-103108028D01*
X142921613Y-102987715D01*
X142921612Y-102987714D01*
X142921610Y-102987713D01*
X142868171Y-102960484D01*
X142817376Y-102912510D01*
X142800581Y-102844689D01*
X142823118Y-102778554D01*
X142868172Y-102739515D01*
X142921610Y-102712287D01*
X143014590Y-102644732D01*
X143087213Y-102591971D01*
X143087215Y-102591968D01*
X143087219Y-102591966D01*
X143231966Y-102447219D01*
X143231968Y-102447215D01*
X143231971Y-102447213D01*
X143284732Y-102374590D01*
X143352287Y-102281610D01*
X143445220Y-102099219D01*
X143508477Y-101904534D01*
X143540500Y-101702352D01*
X143540500Y-101497648D01*
X143508477Y-101295466D01*
X143445220Y-101100781D01*
X143445218Y-101100778D01*
X143445218Y-101100776D01*
X143411503Y-101034607D01*
X143352287Y-100918390D01*
X143344556Y-100907749D01*
X143231971Y-100752786D01*
X143087213Y-100608028D01*
X142921613Y-100487715D01*
X142921612Y-100487714D01*
X142921610Y-100487713D01*
X142864653Y-100458691D01*
X142739223Y-100394781D01*
X142544534Y-100331522D01*
X142369995Y-100303878D01*
X142342352Y-100299500D01*
X142137648Y-100299500D01*
X142113329Y-100303351D01*
X141935465Y-100331522D01*
X141740776Y-100394781D01*
X141558386Y-100487715D01*
X141392786Y-100608028D01*
X141248028Y-100752786D01*
X141127715Y-100918385D01*
X141120883Y-100931795D01*
X141072909Y-100982591D01*
X141010398Y-100999500D01*
X138389602Y-100999500D01*
X138322563Y-100979815D01*
X138279117Y-100931795D01*
X138272284Y-100918385D01*
X138151971Y-100752786D01*
X138007213Y-100608028D01*
X137841614Y-100487715D01*
X137835006Y-100484348D01*
X137748917Y-100440483D01*
X137698123Y-100392511D01*
X137681328Y-100324690D01*
X137703865Y-100258555D01*
X137748917Y-100219516D01*
X137841610Y-100172287D01*
X137886774Y-100139474D01*
X138007213Y-100051971D01*
X138007215Y-100051968D01*
X138007219Y-100051966D01*
X138151966Y-99907219D01*
X138151968Y-99907215D01*
X138151971Y-99907213D01*
X138272284Y-99741614D01*
X138272285Y-99741613D01*
X138272287Y-99741610D01*
X138279117Y-99728204D01*
X138327091Y-99677409D01*
X138389602Y-99660500D01*
X146090398Y-99660500D01*
X146157437Y-99680185D01*
X146200883Y-99728205D01*
X146207715Y-99741614D01*
X146328028Y-99907213D01*
X146472786Y-100051971D01*
X146593226Y-100139474D01*
X146638390Y-100172287D01*
X146730529Y-100219234D01*
X146820776Y-100265218D01*
X146820778Y-100265218D01*
X146820781Y-100265220D01*
X146925137Y-100299127D01*
X147015465Y-100328477D01*
X147116557Y-100344488D01*
X147217648Y-100360500D01*
X147217649Y-100360500D01*
X147422351Y-100360500D01*
X147422352Y-100360500D01*
X147624534Y-100328477D01*
X147819219Y-100265220D01*
X148001610Y-100172287D01*
X148094590Y-100104732D01*
X148167213Y-100051971D01*
X148167215Y-100051968D01*
X148167219Y-100051966D01*
X148311966Y-99907219D01*
X148311968Y-99907215D01*
X148311971Y-99907213D01*
X148364732Y-99834590D01*
X148432287Y-99741610D01*
X148525220Y-99559219D01*
X148588477Y-99364534D01*
X148620500Y-99162352D01*
X148620500Y-98957648D01*
X156179500Y-98957648D01*
X156179500Y-99162351D01*
X156211522Y-99364534D01*
X156274781Y-99559223D01*
X156326385Y-99660500D01*
X156367585Y-99741359D01*
X156367715Y-99741613D01*
X156488028Y-99907213D01*
X156632786Y-100051971D01*
X156753226Y-100139474D01*
X156798390Y-100172287D01*
X156890529Y-100219234D01*
X156980776Y-100265218D01*
X156980778Y-100265218D01*
X156980781Y-100265220D01*
X157085137Y-100299127D01*
X157175465Y-100328477D01*
X157276557Y-100344488D01*
X157377648Y-100360500D01*
X157377649Y-100360500D01*
X157582351Y-100360500D01*
X157582352Y-100360500D01*
X157784534Y-100328477D01*
X157979219Y-100265220D01*
X158161610Y-100172287D01*
X158254590Y-100104732D01*
X158327213Y-100051971D01*
X158327215Y-100051968D01*
X158327219Y-100051966D01*
X158471966Y-99907219D01*
X158471968Y-99907215D01*
X158471971Y-99907213D01*
X158524732Y-99834590D01*
X158592287Y-99741610D01*
X158685220Y-99559219D01*
X158748477Y-99364534D01*
X158780500Y-99162352D01*
X158780500Y-98957648D01*
X158772257Y-98905606D01*
X158748477Y-98755465D01*
X158691296Y-98579481D01*
X158685220Y-98560781D01*
X158685218Y-98560778D01*
X158685218Y-98560776D01*
X158642788Y-98477504D01*
X158592287Y-98378390D01*
X158560092Y-98334077D01*
X158471971Y-98212786D01*
X158327213Y-98068028D01*
X158161613Y-97947715D01*
X158161612Y-97947714D01*
X158161610Y-97947713D01*
X158069470Y-97900765D01*
X157979223Y-97854781D01*
X157784534Y-97791522D01*
X157609995Y-97763878D01*
X157582352Y-97759500D01*
X157377648Y-97759500D01*
X157353329Y-97763351D01*
X157175465Y-97791522D01*
X156980776Y-97854781D01*
X156798386Y-97947715D01*
X156632786Y-98068028D01*
X156488028Y-98212786D01*
X156367715Y-98378386D01*
X156274781Y-98560776D01*
X156211522Y-98755465D01*
X156179500Y-98957648D01*
X148620500Y-98957648D01*
X148612257Y-98905606D01*
X148588477Y-98755465D01*
X148531296Y-98579481D01*
X148525220Y-98560781D01*
X148525218Y-98560778D01*
X148525218Y-98560776D01*
X148482788Y-98477504D01*
X148432287Y-98378390D01*
X148400092Y-98334077D01*
X148311971Y-98212786D01*
X148167213Y-98068028D01*
X148001613Y-97947715D01*
X148001612Y-97947714D01*
X148001610Y-97947713D01*
X147909470Y-97900765D01*
X147819223Y-97854781D01*
X147624534Y-97791522D01*
X147449995Y-97763878D01*
X147422352Y-97759500D01*
X147217648Y-97759500D01*
X147193329Y-97763351D01*
X147015465Y-97791522D01*
X146820776Y-97854781D01*
X146638386Y-97947715D01*
X146472786Y-98068028D01*
X146328028Y-98212786D01*
X146207715Y-98378385D01*
X146200883Y-98391795D01*
X146152909Y-98442591D01*
X146090398Y-98459500D01*
X138389602Y-98459500D01*
X138322563Y-98439815D01*
X138279117Y-98391795D01*
X138272284Y-98378385D01*
X138151971Y-98212786D01*
X138007213Y-98068028D01*
X137841614Y-97947715D01*
X137801861Y-97927460D01*
X137748917Y-97900483D01*
X137698123Y-97852511D01*
X137681328Y-97784690D01*
X137703865Y-97718555D01*
X137748917Y-97679516D01*
X137841610Y-97632287D01*
X137869081Y-97612328D01*
X138007213Y-97511971D01*
X138007215Y-97511968D01*
X138007219Y-97511966D01*
X138151966Y-97367219D01*
X138151968Y-97367215D01*
X138151971Y-97367213D01*
X138272284Y-97201614D01*
X138272285Y-97201613D01*
X138272287Y-97201610D01*
X138279117Y-97188204D01*
X138327091Y-97137409D01*
X138389602Y-97120500D01*
X152313331Y-97120500D01*
X152313347Y-97120501D01*
X152320943Y-97120501D01*
X152479054Y-97120501D01*
X152479057Y-97120501D01*
X152631785Y-97079577D01*
X152681904Y-97050639D01*
X152768716Y-97000520D01*
X152880520Y-96888716D01*
X152880520Y-96888714D01*
X152890728Y-96878507D01*
X152890730Y-96878504D01*
X157035158Y-92734075D01*
X157096479Y-92700592D01*
X157161151Y-92703825D01*
X157175466Y-92708477D01*
X157377648Y-92740500D01*
X157377649Y-92740500D01*
X157582351Y-92740500D01*
X157582352Y-92740500D01*
X157784534Y-92708477D01*
X157979219Y-92645220D01*
X158161610Y-92552287D01*
X158263196Y-92478481D01*
X158327213Y-92431971D01*
X158327215Y-92431968D01*
X158327219Y-92431966D01*
X158471966Y-92287219D01*
X158471968Y-92287215D01*
X158471971Y-92287213D01*
X158592284Y-92121614D01*
X158592285Y-92121613D01*
X158592287Y-92121610D01*
X158599117Y-92108204D01*
X158647091Y-92057409D01*
X158709602Y-92040500D01*
X159719903Y-92040500D01*
X159786942Y-92060185D01*
X159807584Y-92076819D01*
X163713181Y-95982416D01*
X163746666Y-96043739D01*
X163749500Y-96070097D01*
X163749500Y-97417870D01*
X163749501Y-97417876D01*
X163755908Y-97477483D01*
X163806202Y-97612328D01*
X163806206Y-97612335D01*
X163892452Y-97727544D01*
X163892455Y-97727547D01*
X164007664Y-97813793D01*
X164007671Y-97813797D01*
X164025643Y-97820500D01*
X164142517Y-97864091D01*
X164202127Y-97870500D01*
X164375500Y-97870499D01*
X164442539Y-97890183D01*
X164488294Y-97942987D01*
X164499500Y-97994499D01*
X164499500Y-102910397D01*
X164479815Y-102977436D01*
X164431800Y-103020879D01*
X164418389Y-103027712D01*
X164252786Y-103148028D01*
X164108028Y-103292786D01*
X163987715Y-103458386D01*
X163894781Y-103640776D01*
X163831522Y-103835465D01*
X163799500Y-104037648D01*
X163799500Y-104242351D01*
X163831522Y-104444534D01*
X163894781Y-104639223D01*
X163936034Y-104720185D01*
X163967333Y-104781613D01*
X163987715Y-104821613D01*
X164108028Y-104987213D01*
X164252786Y-105131971D01*
X164363330Y-105212284D01*
X164418390Y-105252287D01*
X164511080Y-105299515D01*
X164600776Y-105345218D01*
X164600778Y-105345218D01*
X164600781Y-105345220D01*
X164672359Y-105368477D01*
X164795465Y-105408477D01*
X164814697Y-105411523D01*
X164997648Y-105440500D01*
X164997649Y-105440500D01*
X165202351Y-105440500D01*
X165202352Y-105440500D01*
X165404534Y-105408477D01*
X165599219Y-105345220D01*
X165781610Y-105252287D01*
X165874590Y-105184732D01*
X165947213Y-105131971D01*
X165947215Y-105131968D01*
X165947219Y-105131966D01*
X166091966Y-104987219D01*
X166091968Y-104987215D01*
X166091971Y-104987213D01*
X166144732Y-104914590D01*
X166212287Y-104821610D01*
X166305220Y-104639219D01*
X166368477Y-104444534D01*
X166400500Y-104242352D01*
X166400500Y-104037648D01*
X166368477Y-103835466D01*
X166305220Y-103640781D01*
X166305218Y-103640778D01*
X166305218Y-103640776D01*
X166271503Y-103574607D01*
X166212287Y-103458390D01*
X166183222Y-103418385D01*
X166091971Y-103292786D01*
X165947213Y-103148028D01*
X165781610Y-103027712D01*
X165768200Y-103020879D01*
X165717406Y-102972903D01*
X165700500Y-102910397D01*
X165700500Y-97994499D01*
X165720185Y-97927460D01*
X165772989Y-97881705D01*
X165824500Y-97870499D01*
X165997871Y-97870499D01*
X165997872Y-97870499D01*
X166057483Y-97864091D01*
X166192331Y-97813796D01*
X166307546Y-97727546D01*
X166393796Y-97612331D01*
X166442810Y-97480916D01*
X166484681Y-97424984D01*
X166550145Y-97400566D01*
X166618418Y-97415417D01*
X166646673Y-97436569D01*
X166760213Y-97550109D01*
X166932179Y-97675048D01*
X166932181Y-97675049D01*
X166932184Y-97675051D01*
X167121588Y-97771557D01*
X167323757Y-97837246D01*
X167533713Y-97870500D01*
X167533714Y-97870500D01*
X167746286Y-97870500D01*
X167746287Y-97870500D01*
X167956243Y-97837246D01*
X168158412Y-97771557D01*
X168347816Y-97675051D01*
X168406676Y-97632287D01*
X168519786Y-97550109D01*
X168519788Y-97550106D01*
X168519792Y-97550104D01*
X168670104Y-97399792D01*
X168670106Y-97399788D01*
X168670109Y-97399786D01*
X168795048Y-97227820D01*
X168795047Y-97227820D01*
X168795051Y-97227816D01*
X168891557Y-97038412D01*
X168957246Y-96836243D01*
X168990500Y-96626287D01*
X168990500Y-96413713D01*
X168957246Y-96203757D01*
X168891557Y-96001588D01*
X168795051Y-95812184D01*
X168795049Y-95812181D01*
X168795048Y-95812179D01*
X168670109Y-95640213D01*
X168519786Y-95489890D01*
X168347820Y-95364951D01*
X168158414Y-95268444D01*
X168158413Y-95268443D01*
X168158412Y-95268443D01*
X167956243Y-95202754D01*
X167956241Y-95202753D01*
X167956240Y-95202753D01*
X167794957Y-95177208D01*
X167746287Y-95169500D01*
X167533713Y-95169500D01*
X167485042Y-95177208D01*
X167323760Y-95202753D01*
X167121585Y-95268444D01*
X166932179Y-95364951D01*
X166760215Y-95489889D01*
X166646673Y-95603431D01*
X166585350Y-95636915D01*
X166515658Y-95631931D01*
X166459725Y-95590059D01*
X166442810Y-95559082D01*
X166393797Y-95427671D01*
X166393793Y-95427664D01*
X166307547Y-95312455D01*
X166307544Y-95312452D01*
X166192335Y-95226206D01*
X166192328Y-95226202D01*
X166057482Y-95175908D01*
X166057483Y-95175908D01*
X165997883Y-95169501D01*
X165997881Y-95169500D01*
X165997873Y-95169500D01*
X165997865Y-95169500D01*
X164650097Y-95169500D01*
X164583058Y-95149815D01*
X164562416Y-95133181D01*
X160507590Y-91078355D01*
X160507588Y-91078352D01*
X160388717Y-90959481D01*
X160388716Y-90959480D01*
X160301904Y-90909360D01*
X160301904Y-90909359D01*
X160301900Y-90909358D01*
X160251785Y-90880423D01*
X160099057Y-90839499D01*
X159940943Y-90839499D01*
X159933347Y-90839499D01*
X159933331Y-90839500D01*
X158709602Y-90839500D01*
X158642563Y-90819815D01*
X158599117Y-90771795D01*
X158592284Y-90758385D01*
X158471971Y-90592786D01*
X158327213Y-90448028D01*
X158161613Y-90327715D01*
X158161612Y-90327714D01*
X158161610Y-90327713D01*
X158101898Y-90297288D01*
X157979223Y-90234781D01*
X157784534Y-90171522D01*
X157609995Y-90143878D01*
X157582352Y-90139500D01*
X157377648Y-90139500D01*
X157353329Y-90143351D01*
X157175465Y-90171522D01*
X156980776Y-90234781D01*
X156798386Y-90327715D01*
X156632786Y-90448028D01*
X156488028Y-90592786D01*
X156367715Y-90758386D01*
X156274781Y-90940776D01*
X156211522Y-91135465D01*
X156179500Y-91337648D01*
X156179500Y-91542351D01*
X156211522Y-91744534D01*
X156216173Y-91758848D01*
X156218165Y-91828690D01*
X156185921Y-91884842D01*
X152187584Y-95883181D01*
X152126261Y-95916666D01*
X152099903Y-95919500D01*
X138389602Y-95919500D01*
X138322563Y-95899815D01*
X138279117Y-95851795D01*
X138272284Y-95838385D01*
X138151971Y-95672786D01*
X138007213Y-95528028D01*
X137841614Y-95407715D01*
X137826337Y-95399931D01*
X137748917Y-95360483D01*
X137698123Y-95312511D01*
X137681328Y-95244690D01*
X137703865Y-95178555D01*
X137748917Y-95139516D01*
X137841610Y-95092287D01*
X137935787Y-95023864D01*
X138007213Y-94971971D01*
X138007215Y-94971968D01*
X138007219Y-94971966D01*
X138151966Y-94827219D01*
X138151968Y-94827215D01*
X138151971Y-94827213D01*
X138204732Y-94754590D01*
X138272287Y-94661610D01*
X138365220Y-94479219D01*
X138428477Y-94284534D01*
X138460500Y-94082352D01*
X138460500Y-93877648D01*
X138428477Y-93675466D01*
X138428476Y-93675464D01*
X138394851Y-93571976D01*
X138365220Y-93480781D01*
X138365218Y-93480778D01*
X138365218Y-93480776D01*
X138284212Y-93321795D01*
X138271316Y-93253126D01*
X138297592Y-93188386D01*
X138354698Y-93148128D01*
X138394697Y-93141500D01*
X146132331Y-93141500D01*
X146132347Y-93141501D01*
X146139943Y-93141501D01*
X146298054Y-93141501D01*
X146298057Y-93141501D01*
X146450785Y-93100577D01*
X146500904Y-93071639D01*
X146587716Y-93021520D01*
X146699520Y-92909716D01*
X146699520Y-92909714D01*
X146709728Y-92899507D01*
X146709730Y-92899504D01*
X146875158Y-92734075D01*
X146936479Y-92700592D01*
X147001151Y-92703825D01*
X147015466Y-92708477D01*
X147217648Y-92740500D01*
X147217649Y-92740500D01*
X147422351Y-92740500D01*
X147422352Y-92740500D01*
X147624534Y-92708477D01*
X147819219Y-92645220D01*
X148001610Y-92552287D01*
X148103196Y-92478481D01*
X148167213Y-92431971D01*
X148167215Y-92431968D01*
X148167219Y-92431966D01*
X148311966Y-92287219D01*
X148311968Y-92287215D01*
X148311971Y-92287213D01*
X148367638Y-92210592D01*
X148432287Y-92121610D01*
X148525220Y-91939219D01*
X148588477Y-91744534D01*
X148620500Y-91542352D01*
X148620500Y-91337648D01*
X148588477Y-91135466D01*
X148525220Y-90940781D01*
X148525218Y-90940778D01*
X148525218Y-90940776D01*
X148473865Y-90839991D01*
X148432287Y-90758390D01*
X148416892Y-90737200D01*
X148311971Y-90592786D01*
X148167213Y-90448028D01*
X148001613Y-90327715D01*
X148001612Y-90327714D01*
X148001610Y-90327713D01*
X147941898Y-90297288D01*
X147819223Y-90234781D01*
X147624534Y-90171522D01*
X147449995Y-90143878D01*
X147422352Y-90139500D01*
X147217648Y-90139500D01*
X147193329Y-90143351D01*
X147015465Y-90171522D01*
X146820776Y-90234781D01*
X146638386Y-90327715D01*
X146472786Y-90448028D01*
X146328028Y-90592786D01*
X146207715Y-90758386D01*
X146114781Y-90940776D01*
X146051522Y-91135465D01*
X146019500Y-91337648D01*
X146019500Y-91542351D01*
X146051523Y-91744535D01*
X146056172Y-91758845D01*
X146056605Y-91774052D01*
X146061924Y-91788308D01*
X146057582Y-91808269D01*
X146058165Y-91828687D01*
X146050078Y-91842770D01*
X146047075Y-91856581D01*
X146025926Y-91884837D01*
X146006588Y-91904177D01*
X145945266Y-91937665D01*
X145918902Y-91940500D01*
X138535476Y-91940500D01*
X138468437Y-91920815D01*
X138422682Y-91868011D01*
X138412738Y-91798853D01*
X138417545Y-91778183D01*
X138428475Y-91744542D01*
X138428475Y-91744538D01*
X138428477Y-91744534D01*
X138460500Y-91542352D01*
X138460500Y-91337648D01*
X138428477Y-91135466D01*
X138365220Y-90940781D01*
X138365218Y-90940778D01*
X138365218Y-90940776D01*
X138313865Y-90839991D01*
X138272287Y-90758390D01*
X138256892Y-90737200D01*
X138151971Y-90592786D01*
X138007213Y-90448028D01*
X137841613Y-90327715D01*
X137841612Y-90327714D01*
X137841610Y-90327713D01*
X137781898Y-90297288D01*
X137659223Y-90234781D01*
X137464534Y-90171522D01*
X137289995Y-90143878D01*
X137262352Y-90139500D01*
X137057648Y-90139500D01*
X137033329Y-90143351D01*
X136855465Y-90171522D01*
X136660776Y-90234781D01*
X136478386Y-90327715D01*
X136312786Y-90448028D01*
X136168028Y-90592786D01*
X136047715Y-90758386D01*
X135954781Y-90940776D01*
X135891522Y-91135465D01*
X135859500Y-91337648D01*
X135859500Y-91542351D01*
X135891523Y-91744535D01*
X135891524Y-91744542D01*
X135902455Y-91778183D01*
X135904450Y-91848024D01*
X135868369Y-91907856D01*
X135805668Y-91938684D01*
X135784524Y-91940500D01*
X130964499Y-91940500D01*
X130897460Y-91920815D01*
X130851705Y-91868011D01*
X130840499Y-91816500D01*
X130840499Y-90839998D01*
X130840498Y-90839981D01*
X130829999Y-90737203D01*
X130829998Y-90737200D01*
X130774814Y-90570666D01*
X130682712Y-90421344D01*
X130558656Y-90297288D01*
X130409334Y-90205186D01*
X130242797Y-90150001D01*
X130242795Y-90150000D01*
X130140010Y-90139500D01*
X128939998Y-90139500D01*
X128939981Y-90139501D01*
X128837203Y-90150000D01*
X128837200Y-90150001D01*
X128670668Y-90205185D01*
X128670663Y-90205187D01*
X128521342Y-90297289D01*
X128397289Y-90421342D01*
X128305187Y-90570663D01*
X128305186Y-90570666D01*
X128250001Y-90737203D01*
X128250001Y-90737204D01*
X128250000Y-90737204D01*
X128239500Y-90839983D01*
X128239500Y-92040001D01*
X128239501Y-92040019D01*
X128249909Y-92141899D01*
X128237139Y-92210592D01*
X128189258Y-92261476D01*
X128126551Y-92278500D01*
X120401943Y-92278500D01*
X120249213Y-92319423D01*
X120212709Y-92340500D01*
X120212708Y-92340500D01*
X120112287Y-92398477D01*
X120112282Y-92398481D01*
X120000478Y-92510286D01*
X119758310Y-92752453D01*
X119696987Y-92785938D01*
X119651231Y-92787245D01*
X119533520Y-92768601D01*
X119476055Y-92759500D01*
X119283945Y-92759500D01*
X119220696Y-92769517D01*
X119094197Y-92789553D01*
X118911493Y-92848916D01*
X118740318Y-92936135D01*
X118651645Y-93000560D01*
X118584898Y-93049055D01*
X118584896Y-93049057D01*
X118584895Y-93049057D01*
X118449057Y-93184895D01*
X118449057Y-93184896D01*
X118449055Y-93184898D01*
X118392595Y-93262608D01*
X118336133Y-93340321D01*
X118311129Y-93389394D01*
X118263154Y-93440189D01*
X118195333Y-93456984D01*
X118129198Y-93434446D01*
X118112964Y-93420779D01*
X117289540Y-92597355D01*
X117289538Y-92597352D01*
X117170667Y-92478481D01*
X117170666Y-92478480D01*
X117083854Y-92428360D01*
X117083854Y-92428359D01*
X117083850Y-92428358D01*
X117033735Y-92399423D01*
X116881007Y-92358499D01*
X116722893Y-92358499D01*
X116715297Y-92358499D01*
X116715281Y-92358500D01*
X97627669Y-92358500D01*
X97627653Y-92358499D01*
X97620057Y-92358499D01*
X97461943Y-92358499D01*
X97354587Y-92387265D01*
X97309210Y-92399424D01*
X97309209Y-92399425D01*
X97259096Y-92428359D01*
X97259095Y-92428360D01*
X97252841Y-92431971D01*
X97172285Y-92478479D01*
X97172282Y-92478481D01*
X97060480Y-92590283D01*
X97060480Y-92590284D01*
X97060478Y-92590286D01*
X96970418Y-92680346D01*
X96898310Y-92752454D01*
X96836987Y-92785938D01*
X96791231Y-92787245D01*
X96673520Y-92768601D01*
X96616055Y-92759500D01*
X96423945Y-92759500D01*
X96360696Y-92769517D01*
X96234197Y-92789553D01*
X96051493Y-92848916D01*
X95880318Y-92936135D01*
X95791645Y-93000560D01*
X95724898Y-93049055D01*
X95724896Y-93049057D01*
X95724895Y-93049057D01*
X95589057Y-93184895D01*
X95589057Y-93184896D01*
X95589055Y-93184898D01*
X95586521Y-93188386D01*
X95476135Y-93340318D01*
X95388916Y-93511493D01*
X95367931Y-93576081D01*
X95328494Y-93633756D01*
X95264135Y-93660955D01*
X95195289Y-93649041D01*
X95143813Y-93601797D01*
X95132069Y-93576081D01*
X95111083Y-93511493D01*
X95083309Y-93456984D01*
X95023865Y-93340319D01*
X94910945Y-93184898D01*
X94775102Y-93049055D01*
X94619681Y-92936135D01*
X94547795Y-92899507D01*
X94448506Y-92848916D01*
X94265802Y-92789553D01*
X94170928Y-92774526D01*
X94076055Y-92759500D01*
X93883945Y-92759500D01*
X93820696Y-92769517D01*
X93694197Y-92789553D01*
X93511493Y-92848916D01*
X93340318Y-92936135D01*
X93251645Y-93000560D01*
X93184898Y-93049055D01*
X93184896Y-93049057D01*
X93184895Y-93049057D01*
X93049057Y-93184895D01*
X93049057Y-93184896D01*
X93049055Y-93184898D01*
X93046521Y-93188386D01*
X92936135Y-93340318D01*
X92848916Y-93511493D01*
X92789553Y-93694197D01*
X92788175Y-93702898D01*
X92759500Y-93883945D01*
X92759500Y-94076055D01*
X92774526Y-94170928D01*
X92789553Y-94265802D01*
X92848916Y-94448506D01*
X92906997Y-94562495D01*
X92936135Y-94619681D01*
X93049055Y-94775102D01*
X93184898Y-94910945D01*
X93340319Y-95023865D01*
X93474598Y-95092284D01*
X93511493Y-95111083D01*
X93579505Y-95133181D01*
X93694199Y-95170447D01*
X93883945Y-95200500D01*
X93883946Y-95200500D01*
X94076054Y-95200500D01*
X94076055Y-95200500D01*
X94265801Y-95170447D01*
X94448509Y-95111082D01*
X94619681Y-95023865D01*
X94775102Y-94910945D01*
X94910945Y-94775102D01*
X95023865Y-94619681D01*
X95111082Y-94448509D01*
X95111084Y-94448504D01*
X95132069Y-94383919D01*
X95171506Y-94326243D01*
X95235864Y-94299044D01*
X95304711Y-94310958D01*
X95356187Y-94358202D01*
X95367931Y-94383919D01*
X95388915Y-94448504D01*
X95446997Y-94562495D01*
X95476135Y-94619681D01*
X95589055Y-94775102D01*
X95724898Y-94910945D01*
X95880319Y-95023865D01*
X96014598Y-95092284D01*
X96051493Y-95111083D01*
X96119505Y-95133181D01*
X96234199Y-95170447D01*
X96423945Y-95200500D01*
X96423946Y-95200500D01*
X96616054Y-95200500D01*
X96616055Y-95200500D01*
X96805801Y-95170447D01*
X96988509Y-95111082D01*
X97159681Y-95023865D01*
X97315102Y-94910945D01*
X97450945Y-94775102D01*
X97563865Y-94619681D01*
X97651082Y-94448509D01*
X97651084Y-94448504D01*
X97672069Y-94383919D01*
X97711506Y-94326243D01*
X97775864Y-94299044D01*
X97844711Y-94310958D01*
X97896187Y-94358202D01*
X97907931Y-94383919D01*
X97928915Y-94448504D01*
X97986997Y-94562495D01*
X98016135Y-94619681D01*
X98129055Y-94775102D01*
X98264898Y-94910945D01*
X98420319Y-95023865D01*
X98554598Y-95092284D01*
X98591493Y-95111083D01*
X98659505Y-95133181D01*
X98774199Y-95170447D01*
X98963945Y-95200500D01*
X98963946Y-95200500D01*
X99156054Y-95200500D01*
X99156055Y-95200500D01*
X99345801Y-95170447D01*
X99528509Y-95111082D01*
X99699681Y-95023865D01*
X99855102Y-94910945D01*
X99990945Y-94775102D01*
X100103865Y-94619681D01*
X100191082Y-94448509D01*
X100250447Y-94265801D01*
X100280500Y-94076055D01*
X100280500Y-93883945D01*
X100251825Y-93702898D01*
X100260780Y-93633604D01*
X100305776Y-93580152D01*
X100372527Y-93559513D01*
X100374298Y-93559500D01*
X105365702Y-93559500D01*
X105432741Y-93579185D01*
X105478496Y-93631989D01*
X105488440Y-93701147D01*
X105488175Y-93702898D01*
X105459500Y-93883945D01*
X105459500Y-94076055D01*
X105474526Y-94170928D01*
X105489553Y-94265802D01*
X105548916Y-94448506D01*
X105606997Y-94562495D01*
X105636135Y-94619681D01*
X105749055Y-94775102D01*
X105884898Y-94910945D01*
X106040319Y-95023865D01*
X106174598Y-95092284D01*
X106211493Y-95111083D01*
X106279505Y-95133181D01*
X106394199Y-95170447D01*
X106583945Y-95200500D01*
X106583946Y-95200500D01*
X106776053Y-95200500D01*
X106776055Y-95200500D01*
X106843754Y-95189777D01*
X106913046Y-95198731D01*
X106966498Y-95243727D01*
X106987138Y-95310478D01*
X106968414Y-95377792D01*
X106950832Y-95399931D01*
X105350245Y-97000519D01*
X103771286Y-98579478D01*
X103771284Y-98579480D01*
X103715382Y-98635382D01*
X103659480Y-98691283D01*
X103654518Y-98699878D01*
X103648579Y-98710166D01*
X103580423Y-98828215D01*
X103539499Y-98980943D01*
X103539499Y-98980945D01*
X103539499Y-99149046D01*
X103539500Y-99149059D01*
X103539500Y-100370397D01*
X103519815Y-100437436D01*
X103471800Y-100480879D01*
X103458389Y-100487712D01*
X103292786Y-100608028D01*
X103148028Y-100752786D01*
X103027715Y-100918386D01*
X102934781Y-101100776D01*
X102871522Y-101295465D01*
X102839500Y-101497648D01*
X102839500Y-101702351D01*
X102871522Y-101904534D01*
X102934781Y-102099223D01*
X103027715Y-102281613D01*
X103148028Y-102447213D01*
X103292786Y-102591971D01*
X103447749Y-102704556D01*
X103458390Y-102712287D01*
X103551080Y-102759515D01*
X103640776Y-102805218D01*
X103640778Y-102805218D01*
X103640781Y-102805220D01*
X103745137Y-102839127D01*
X103835465Y-102868477D01*
X103854697Y-102871523D01*
X104037648Y-102900500D01*
X104037649Y-102900500D01*
X104242351Y-102900500D01*
X104242352Y-102900500D01*
X104444534Y-102868477D01*
X104639219Y-102805220D01*
X104821610Y-102712287D01*
X104914590Y-102644732D01*
X104987213Y-102591971D01*
X104987215Y-102591968D01*
X104987219Y-102591966D01*
X105131966Y-102447219D01*
X105131968Y-102447215D01*
X105131971Y-102447213D01*
X105184732Y-102374590D01*
X105252287Y-102281610D01*
X105345220Y-102099219D01*
X105408477Y-101904534D01*
X105440500Y-101702352D01*
X105440500Y-101497648D01*
X107919500Y-101497648D01*
X107919500Y-101702351D01*
X107951522Y-101904534D01*
X108014781Y-102099223D01*
X108107715Y-102281613D01*
X108228028Y-102447213D01*
X108372786Y-102591971D01*
X108527749Y-102704556D01*
X108538390Y-102712287D01*
X108631080Y-102759515D01*
X108720776Y-102805218D01*
X108720778Y-102805218D01*
X108720781Y-102805220D01*
X108825137Y-102839127D01*
X108915465Y-102868477D01*
X108934697Y-102871523D01*
X109117648Y-102900500D01*
X109117649Y-102900500D01*
X109322351Y-102900500D01*
X109322352Y-102900500D01*
X109524534Y-102868477D01*
X109719219Y-102805220D01*
X109901610Y-102712287D01*
X109994590Y-102644732D01*
X110067213Y-102591971D01*
X110067215Y-102591968D01*
X110067219Y-102591966D01*
X110211966Y-102447219D01*
X110211968Y-102447215D01*
X110211971Y-102447213D01*
X110264732Y-102374590D01*
X110332287Y-102281610D01*
X110425220Y-102099219D01*
X110488477Y-101904534D01*
X110520500Y-101702352D01*
X110520500Y-101497648D01*
X118079500Y-101497648D01*
X118079500Y-101702351D01*
X118111522Y-101904534D01*
X118174781Y-102099223D01*
X118267715Y-102281613D01*
X118388028Y-102447213D01*
X118532786Y-102591971D01*
X118687749Y-102704556D01*
X118698390Y-102712287D01*
X118791080Y-102759515D01*
X118880776Y-102805218D01*
X118880778Y-102805218D01*
X118880781Y-102805220D01*
X118985137Y-102839127D01*
X119075465Y-102868477D01*
X119094697Y-102871523D01*
X119277648Y-102900500D01*
X119277649Y-102900500D01*
X119482351Y-102900500D01*
X119482352Y-102900500D01*
X119684534Y-102868477D01*
X119879219Y-102805220D01*
X120061610Y-102712287D01*
X120154590Y-102644732D01*
X120227213Y-102591971D01*
X120227215Y-102591968D01*
X120227219Y-102591966D01*
X120371966Y-102447219D01*
X120371968Y-102447215D01*
X120371971Y-102447213D01*
X120424732Y-102374590D01*
X120492287Y-102281610D01*
X120585220Y-102099219D01*
X120648477Y-101904534D01*
X120680500Y-101702352D01*
X120680500Y-101497648D01*
X120648477Y-101295466D01*
X120585220Y-101100781D01*
X120585218Y-101100778D01*
X120585218Y-101100776D01*
X120551503Y-101034607D01*
X120492287Y-100918390D01*
X120484556Y-100907749D01*
X120371971Y-100752786D01*
X120227213Y-100608028D01*
X120061613Y-100487715D01*
X120061612Y-100487714D01*
X120061610Y-100487713D01*
X120004653Y-100458691D01*
X119879223Y-100394781D01*
X119684534Y-100331522D01*
X119509995Y-100303878D01*
X119482352Y-100299500D01*
X119277648Y-100299500D01*
X119253329Y-100303351D01*
X119075465Y-100331522D01*
X118880776Y-100394781D01*
X118698386Y-100487715D01*
X118532786Y-100608028D01*
X118388028Y-100752786D01*
X118267715Y-100918386D01*
X118174781Y-101100776D01*
X118111522Y-101295465D01*
X118079500Y-101497648D01*
X110520500Y-101497648D01*
X110488477Y-101295466D01*
X110425220Y-101100781D01*
X110425218Y-101100778D01*
X110425218Y-101100776D01*
X110391503Y-101034607D01*
X110332287Y-100918390D01*
X110324556Y-100907749D01*
X110211971Y-100752786D01*
X110067213Y-100608028D01*
X109901613Y-100487715D01*
X109901612Y-100487714D01*
X109901610Y-100487713D01*
X109844653Y-100458691D01*
X109719223Y-100394781D01*
X109524534Y-100331522D01*
X109349995Y-100303878D01*
X109322352Y-100299500D01*
X109117648Y-100299500D01*
X109093329Y-100303351D01*
X108915465Y-100331522D01*
X108720776Y-100394781D01*
X108538386Y-100487715D01*
X108372786Y-100608028D01*
X108228028Y-100752786D01*
X108107715Y-100918386D01*
X108014781Y-101100776D01*
X107951522Y-101295465D01*
X107919500Y-101497648D01*
X105440500Y-101497648D01*
X105408477Y-101295466D01*
X105345220Y-101100781D01*
X105345218Y-101100778D01*
X105345218Y-101100776D01*
X105311503Y-101034607D01*
X105252287Y-100918390D01*
X105244556Y-100907749D01*
X105131971Y-100752786D01*
X104987213Y-100608028D01*
X104821610Y-100487712D01*
X104808200Y-100480879D01*
X104757406Y-100432903D01*
X104740500Y-100370397D01*
X104740500Y-99360096D01*
X104760185Y-99293057D01*
X104776814Y-99272420D01*
X108841689Y-95207544D01*
X108903010Y-95174061D01*
X108948764Y-95172754D01*
X109123945Y-95200500D01*
X109123946Y-95200500D01*
X109316054Y-95200500D01*
X109316055Y-95200500D01*
X109505801Y-95170447D01*
X109688509Y-95111082D01*
X109859681Y-95023865D01*
X110015102Y-94910945D01*
X110150945Y-94775102D01*
X110263865Y-94619681D01*
X110351082Y-94448509D01*
X110351084Y-94448504D01*
X110372069Y-94383919D01*
X110411506Y-94326243D01*
X110475864Y-94299044D01*
X110544711Y-94310958D01*
X110596187Y-94358202D01*
X110607931Y-94383919D01*
X110628915Y-94448504D01*
X110686997Y-94562495D01*
X110716135Y-94619681D01*
X110829055Y-94775102D01*
X110964898Y-94910945D01*
X111120319Y-95023865D01*
X111254598Y-95092284D01*
X111291493Y-95111083D01*
X111359505Y-95133181D01*
X111474199Y-95170447D01*
X111663945Y-95200500D01*
X111663946Y-95200500D01*
X111856054Y-95200500D01*
X111856055Y-95200500D01*
X112045801Y-95170447D01*
X112228509Y-95111082D01*
X112399681Y-95023865D01*
X112555102Y-94910945D01*
X112690945Y-94775102D01*
X112803865Y-94619681D01*
X112891082Y-94448509D01*
X112950447Y-94265801D01*
X112980500Y-94076055D01*
X112980500Y-93883945D01*
X112951825Y-93702898D01*
X112960780Y-93633604D01*
X113005776Y-93580152D01*
X113072527Y-93559513D01*
X113074298Y-93559500D01*
X116501853Y-93559500D01*
X116568892Y-93579185D01*
X116589534Y-93595819D01*
X124958089Y-101964374D01*
X124958099Y-101964385D01*
X124962429Y-101968715D01*
X124962430Y-101968716D01*
X125074234Y-102080520D01*
X125074236Y-102080521D01*
X125074240Y-102080524D01*
X125211159Y-102159573D01*
X125211166Y-102159577D01*
X125322969Y-102189534D01*
X125363892Y-102200500D01*
X125363893Y-102200500D01*
X128310398Y-102200500D01*
X128377437Y-102220185D01*
X128420883Y-102268205D01*
X128427715Y-102281614D01*
X128548028Y-102447213D01*
X128692786Y-102591971D01*
X128847749Y-102704556D01*
X128858390Y-102712287D01*
X128949840Y-102758883D01*
X128951080Y-102759515D01*
X129001876Y-102807490D01*
X129018671Y-102875311D01*
X128996134Y-102941446D01*
X128951080Y-102980485D01*
X128858386Y-103027715D01*
X128692786Y-103148028D01*
X128548028Y-103292786D01*
X128427715Y-103458386D01*
X128334781Y-103640776D01*
X128271522Y-103835465D01*
X128239500Y-104037648D01*
X128239500Y-104242351D01*
X128271522Y-104444534D01*
X128334781Y-104639223D01*
X128376034Y-104720185D01*
X128407333Y-104781613D01*
X128427715Y-104821613D01*
X128548028Y-104987213D01*
X128692786Y-105131971D01*
X128803330Y-105212284D01*
X128858390Y-105252287D01*
X128949840Y-105298883D01*
X128951080Y-105299515D01*
X129001876Y-105347490D01*
X129018671Y-105415311D01*
X128996134Y-105481446D01*
X128951080Y-105520485D01*
X128858386Y-105567715D01*
X128692786Y-105688028D01*
X128692782Y-105688032D01*
X128548034Y-105832781D01*
X128548032Y-105832783D01*
X128427715Y-105998386D01*
X128334781Y-106180776D01*
X128271522Y-106375465D01*
X128239500Y-106577648D01*
X128239500Y-106770903D01*
X128219815Y-106837942D01*
X128167011Y-106883697D01*
X128097853Y-106893641D01*
X128034297Y-106864616D01*
X128027819Y-106858584D01*
X127487590Y-106318355D01*
X127487588Y-106318352D01*
X127368717Y-106199481D01*
X127368716Y-106199480D01*
X127263228Y-106138577D01*
X127263227Y-106138576D01*
X127231783Y-106120422D01*
X127175881Y-106105443D01*
X127079057Y-106079499D01*
X126920943Y-106079499D01*
X126913347Y-106079499D01*
X126913331Y-106079500D01*
X99360097Y-106079500D01*
X99293058Y-106059815D01*
X99272416Y-106043181D01*
X95274077Y-102044842D01*
X95240592Y-101983519D01*
X95243828Y-101918841D01*
X95248477Y-101904534D01*
X95280500Y-101702352D01*
X95280500Y-101497648D01*
X95248477Y-101295466D01*
X95185220Y-101100781D01*
X95185218Y-101100778D01*
X95185218Y-101100776D01*
X95151503Y-101034607D01*
X95092287Y-100918390D01*
X95084556Y-100907749D01*
X94971971Y-100752786D01*
X94827213Y-100608028D01*
X94661613Y-100487715D01*
X94661612Y-100487714D01*
X94661610Y-100487713D01*
X94604653Y-100458691D01*
X94479223Y-100394781D01*
X94284534Y-100331522D01*
X94109995Y-100303878D01*
X94082352Y-100299500D01*
X93877648Y-100299500D01*
X93853329Y-100303351D01*
X93675465Y-100331522D01*
X93480776Y-100394781D01*
X93298386Y-100487715D01*
X93132786Y-100608028D01*
X92988028Y-100752786D01*
X92867715Y-100918386D01*
X92774781Y-101100776D01*
X92711522Y-101295465D01*
X92679500Y-101497648D01*
X89400500Y-101497648D01*
X89400500Y-83599568D01*
X91599500Y-83599568D01*
X91599500Y-83880431D01*
X91630942Y-84159494D01*
X91630945Y-84159512D01*
X91693439Y-84433317D01*
X91693443Y-84433329D01*
X91786200Y-84698411D01*
X91908053Y-84951442D01*
X91908055Y-84951445D01*
X92057477Y-85189248D01*
X92169635Y-85329889D01*
X92227553Y-85402517D01*
X92232584Y-85408825D01*
X92431175Y-85607416D01*
X92650752Y-85782523D01*
X92888555Y-85931945D01*
X93141592Y-86053801D01*
X93340680Y-86123465D01*
X93406670Y-86146556D01*
X93406682Y-86146560D01*
X93680491Y-86209055D01*
X93680497Y-86209055D01*
X93680505Y-86209057D01*
X93866547Y-86230018D01*
X93959569Y-86240499D01*
X93959572Y-86240500D01*
X93959575Y-86240500D01*
X94240428Y-86240500D01*
X94240429Y-86240499D01*
X94383055Y-86224429D01*
X94519494Y-86209057D01*
X94519499Y-86209056D01*
X94519509Y-86209055D01*
X94793318Y-86146560D01*
X95058408Y-86053801D01*
X95311445Y-85931945D01*
X95549248Y-85782523D01*
X95768825Y-85607416D01*
X95914106Y-85462135D01*
X120569500Y-85462135D01*
X120569500Y-87257870D01*
X120569501Y-87257876D01*
X120575908Y-87317483D01*
X120626202Y-87452328D01*
X120626206Y-87452335D01*
X120712452Y-87567544D01*
X120712455Y-87567547D01*
X120827664Y-87653793D01*
X120827671Y-87653797D01*
X120962517Y-87704091D01*
X120962516Y-87704091D01*
X120969444Y-87704835D01*
X121022127Y-87710500D01*
X122817872Y-87710499D01*
X122877483Y-87704091D01*
X123012331Y-87653796D01*
X123127546Y-87567546D01*
X123213796Y-87452331D01*
X123262810Y-87320916D01*
X123304681Y-87264984D01*
X123370145Y-87240566D01*
X123438418Y-87255417D01*
X123466673Y-87276569D01*
X123580213Y-87390109D01*
X123752179Y-87515048D01*
X123752181Y-87515049D01*
X123752184Y-87515051D01*
X123941588Y-87611557D01*
X124143757Y-87677246D01*
X124353713Y-87710500D01*
X124353714Y-87710500D01*
X124566286Y-87710500D01*
X124566287Y-87710500D01*
X124776243Y-87677246D01*
X124978412Y-87611557D01*
X125167816Y-87515051D01*
X125254138Y-87452335D01*
X125339786Y-87390109D01*
X125339788Y-87390106D01*
X125339792Y-87390104D01*
X125490104Y-87239792D01*
X125490106Y-87239788D01*
X125490109Y-87239786D01*
X125615048Y-87067820D01*
X125615047Y-87067820D01*
X125615051Y-87067816D01*
X125711557Y-86878412D01*
X125777246Y-86676243D01*
X125810500Y-86466287D01*
X125810500Y-86253713D01*
X125777246Y-86043757D01*
X125711557Y-85841588D01*
X125615051Y-85652184D01*
X125615049Y-85652181D01*
X125615048Y-85652179D01*
X125490109Y-85480213D01*
X125339786Y-85329890D01*
X125167820Y-85204951D01*
X124978414Y-85108444D01*
X124978413Y-85108443D01*
X124978412Y-85108443D01*
X124776243Y-85042754D01*
X124776241Y-85042753D01*
X124776240Y-85042753D01*
X124614957Y-85017208D01*
X124566287Y-85009500D01*
X124353713Y-85009500D01*
X124305042Y-85017208D01*
X124143760Y-85042753D01*
X123941585Y-85108444D01*
X123752179Y-85204951D01*
X123580215Y-85329889D01*
X123466673Y-85443431D01*
X123405350Y-85476915D01*
X123335658Y-85471931D01*
X123279725Y-85430059D01*
X123262810Y-85399082D01*
X123213797Y-85267671D01*
X123213793Y-85267664D01*
X123127547Y-85152455D01*
X123127544Y-85152452D01*
X123012335Y-85066206D01*
X123012328Y-85066202D01*
X122877482Y-85015908D01*
X122877483Y-85015908D01*
X122817883Y-85009501D01*
X122817881Y-85009500D01*
X122817873Y-85009500D01*
X122817864Y-85009500D01*
X121022129Y-85009500D01*
X121022123Y-85009501D01*
X120962516Y-85015908D01*
X120827671Y-85066202D01*
X120827664Y-85066206D01*
X120712455Y-85152452D01*
X120712452Y-85152455D01*
X120626206Y-85267664D01*
X120626202Y-85267671D01*
X120575908Y-85402517D01*
X120569501Y-85462116D01*
X120569500Y-85462135D01*
X95914106Y-85462135D01*
X95967416Y-85408825D01*
X96142523Y-85189248D01*
X96291945Y-84951445D01*
X96413801Y-84698408D01*
X96506560Y-84433318D01*
X96569055Y-84159509D01*
X96571544Y-84137423D01*
X96596485Y-83916055D01*
X96600500Y-83880425D01*
X96600500Y-83717648D01*
X128239500Y-83717648D01*
X128239500Y-83922351D01*
X128271522Y-84124534D01*
X128334781Y-84319223D01*
X128427715Y-84501613D01*
X128548028Y-84667213D01*
X128692786Y-84811971D01*
X128847749Y-84924556D01*
X128858390Y-84932287D01*
X128974607Y-84991503D01*
X129040776Y-85025218D01*
X129040778Y-85025218D01*
X129040781Y-85025220D01*
X129145137Y-85059127D01*
X129235465Y-85088477D01*
X129336557Y-85104488D01*
X129437648Y-85120500D01*
X129437649Y-85120500D01*
X129642351Y-85120500D01*
X129642352Y-85120500D01*
X129844534Y-85088477D01*
X130039219Y-85025220D01*
X130221610Y-84932287D01*
X130345604Y-84842201D01*
X130387213Y-84811971D01*
X130387215Y-84811968D01*
X130387219Y-84811966D01*
X130531966Y-84667219D01*
X130531968Y-84667215D01*
X130531971Y-84667213D01*
X130584732Y-84594590D01*
X130652287Y-84501610D01*
X130745220Y-84319219D01*
X130808477Y-84124534D01*
X130840500Y-83922352D01*
X130840500Y-83717648D01*
X138399500Y-83717648D01*
X138399500Y-83922351D01*
X138431522Y-84124534D01*
X138494781Y-84319223D01*
X138587715Y-84501613D01*
X138708028Y-84667213D01*
X138852786Y-84811971D01*
X139007749Y-84924556D01*
X139018390Y-84932287D01*
X139134607Y-84991503D01*
X139200776Y-85025218D01*
X139200778Y-85025218D01*
X139200781Y-85025220D01*
X139305137Y-85059127D01*
X139395465Y-85088477D01*
X139496557Y-85104488D01*
X139597648Y-85120500D01*
X139597649Y-85120500D01*
X139802351Y-85120500D01*
X139802352Y-85120500D01*
X140004534Y-85088477D01*
X140199219Y-85025220D01*
X140381610Y-84932287D01*
X140505604Y-84842201D01*
X140547213Y-84811971D01*
X140547215Y-84811968D01*
X140547219Y-84811966D01*
X140691966Y-84667219D01*
X140691968Y-84667215D01*
X140691971Y-84667213D01*
X140744732Y-84594590D01*
X140812287Y-84501610D01*
X140905220Y-84319219D01*
X140968477Y-84124534D01*
X141000500Y-83922352D01*
X141000500Y-83723984D01*
X151180000Y-83723984D01*
X151180000Y-83916015D01*
X151210040Y-84105684D01*
X151269383Y-84288321D01*
X151356561Y-84459415D01*
X151377798Y-84488646D01*
X152000000Y-83866445D01*
X152000000Y-83872661D01*
X152027259Y-83974394D01*
X152079920Y-84065606D01*
X152154394Y-84140080D01*
X152245606Y-84192741D01*
X152347339Y-84220000D01*
X152353554Y-84220000D01*
X151731351Y-84842200D01*
X151731352Y-84842201D01*
X151760577Y-84863434D01*
X151931678Y-84950616D01*
X152114315Y-85009959D01*
X152303985Y-85040000D01*
X152496015Y-85040000D01*
X152685684Y-85009959D01*
X152868321Y-84950616D01*
X153039419Y-84863436D01*
X153068646Y-84842201D01*
X153068646Y-84842200D01*
X152446447Y-84220000D01*
X152452661Y-84220000D01*
X152554394Y-84192741D01*
X152645606Y-84140080D01*
X152720080Y-84065606D01*
X152772741Y-83974394D01*
X152800000Y-83872661D01*
X152800000Y-83866446D01*
X153422200Y-84488646D01*
X153422201Y-84488646D01*
X153443436Y-84459419D01*
X153530616Y-84288319D01*
X153552069Y-84222297D01*
X153591507Y-84164621D01*
X153655865Y-84137423D01*
X153724712Y-84149338D01*
X153776187Y-84196582D01*
X153787931Y-84222297D01*
X153809383Y-84288319D01*
X153896561Y-84459415D01*
X153917798Y-84488646D01*
X154540000Y-83866445D01*
X154540000Y-83872661D01*
X154567259Y-83974394D01*
X154619920Y-84065606D01*
X154694394Y-84140080D01*
X154785606Y-84192741D01*
X154887339Y-84220000D01*
X154893554Y-84220000D01*
X154271351Y-84842200D01*
X154271352Y-84842201D01*
X154300577Y-84863434D01*
X154471678Y-84950616D01*
X154654315Y-85009959D01*
X154843985Y-85040000D01*
X155036015Y-85040000D01*
X155225684Y-85009959D01*
X155408321Y-84950616D01*
X155579419Y-84863436D01*
X155608646Y-84842201D01*
X155608646Y-84842200D01*
X154986447Y-84220000D01*
X154992661Y-84220000D01*
X155094394Y-84192741D01*
X155185606Y-84140080D01*
X155260080Y-84065606D01*
X155312741Y-83974394D01*
X155340000Y-83872661D01*
X155340000Y-83866446D01*
X155962200Y-84488646D01*
X155962201Y-84488646D01*
X155983436Y-84459419D01*
X156070616Y-84288319D01*
X156091805Y-84223108D01*
X156131242Y-84165433D01*
X156195600Y-84138234D01*
X156264447Y-84150148D01*
X156315923Y-84197392D01*
X156327667Y-84223108D01*
X156348916Y-84288505D01*
X156348917Y-84288506D01*
X156348918Y-84288509D01*
X156436135Y-84459681D01*
X156549055Y-84615102D01*
X156684898Y-84750945D01*
X156840319Y-84863865D01*
X156974598Y-84932284D01*
X157011493Y-84951083D01*
X157102845Y-84980764D01*
X157194199Y-85010447D01*
X157383945Y-85040500D01*
X157383946Y-85040500D01*
X157576054Y-85040500D01*
X157576055Y-85040500D01*
X157765801Y-85010447D01*
X157948509Y-84951082D01*
X158119681Y-84863865D01*
X158275102Y-84750945D01*
X158410945Y-84615102D01*
X158523865Y-84459681D01*
X158611082Y-84288509D01*
X158670447Y-84105801D01*
X158700500Y-83916055D01*
X158700500Y-83723945D01*
X158680800Y-83599568D01*
X165499500Y-83599568D01*
X165499500Y-83880431D01*
X165530942Y-84159494D01*
X165530945Y-84159512D01*
X165593439Y-84433317D01*
X165593443Y-84433329D01*
X165686200Y-84698411D01*
X165808053Y-84951442D01*
X165808055Y-84951445D01*
X165957477Y-85189248D01*
X166069635Y-85329889D01*
X166127553Y-85402517D01*
X166132584Y-85408825D01*
X166331175Y-85607416D01*
X166550752Y-85782523D01*
X166788555Y-85931945D01*
X167041592Y-86053801D01*
X167240680Y-86123465D01*
X167306670Y-86146556D01*
X167306682Y-86146560D01*
X167580491Y-86209055D01*
X167580497Y-86209055D01*
X167580505Y-86209057D01*
X167766547Y-86230018D01*
X167859569Y-86240499D01*
X167859572Y-86240500D01*
X167859575Y-86240500D01*
X168140428Y-86240500D01*
X168140429Y-86240499D01*
X168283055Y-86224429D01*
X168419494Y-86209057D01*
X168419499Y-86209056D01*
X168419509Y-86209055D01*
X168693318Y-86146560D01*
X168958408Y-86053801D01*
X169211445Y-85931945D01*
X169449248Y-85782523D01*
X169668825Y-85607416D01*
X169867416Y-85408825D01*
X170042523Y-85189248D01*
X170191945Y-84951445D01*
X170313801Y-84698408D01*
X170406560Y-84433318D01*
X170469055Y-84159509D01*
X170471544Y-84137423D01*
X170496485Y-83916055D01*
X170500500Y-83880425D01*
X170500500Y-83599575D01*
X170488137Y-83489850D01*
X170469057Y-83320505D01*
X170469054Y-83320487D01*
X170406560Y-83046682D01*
X170406556Y-83046670D01*
X170380701Y-82972781D01*
X170313801Y-82781592D01*
X170191945Y-82528555D01*
X170042523Y-82290752D01*
X169867416Y-82071175D01*
X169668825Y-81872584D01*
X169449248Y-81697477D01*
X169211445Y-81548055D01*
X169211442Y-81548053D01*
X168958411Y-81426200D01*
X168693329Y-81333443D01*
X168693317Y-81333439D01*
X168419512Y-81270945D01*
X168419494Y-81270942D01*
X168140431Y-81239500D01*
X168140425Y-81239500D01*
X167859575Y-81239500D01*
X167859568Y-81239500D01*
X167580505Y-81270942D01*
X167580487Y-81270945D01*
X167306682Y-81333439D01*
X167306670Y-81333443D01*
X167041588Y-81426200D01*
X166788557Y-81548053D01*
X166550753Y-81697476D01*
X166331175Y-81872583D01*
X166132583Y-82071175D01*
X165957476Y-82290753D01*
X165808053Y-82528557D01*
X165686200Y-82781588D01*
X165593443Y-83046670D01*
X165593439Y-83046682D01*
X165530945Y-83320487D01*
X165530942Y-83320505D01*
X165499500Y-83599568D01*
X158680800Y-83599568D01*
X158670447Y-83534199D01*
X158633342Y-83420000D01*
X158611083Y-83351493D01*
X158595287Y-83320491D01*
X158523865Y-83180319D01*
X158410945Y-83024898D01*
X158275102Y-82889055D01*
X158119681Y-82776135D01*
X158100090Y-82766153D01*
X157948506Y-82688916D01*
X157765802Y-82629553D01*
X157670928Y-82614526D01*
X157576055Y-82599500D01*
X157383945Y-82599500D01*
X157320696Y-82609517D01*
X157194197Y-82629553D01*
X157011493Y-82688916D01*
X156840318Y-82776135D01*
X156810502Y-82797798D01*
X156684898Y-82889055D01*
X156684896Y-82889057D01*
X156684895Y-82889057D01*
X156549057Y-83024895D01*
X156549057Y-83024896D01*
X156549055Y-83024898D01*
X156533237Y-83046670D01*
X156436135Y-83180318D01*
X156348917Y-83351492D01*
X156327667Y-83416892D01*
X156288229Y-83474567D01*
X156223870Y-83501765D01*
X156155024Y-83489850D01*
X156103548Y-83442605D01*
X156091805Y-83416891D01*
X156070616Y-83351680D01*
X155983434Y-83180577D01*
X155962201Y-83151352D01*
X155962200Y-83151351D01*
X155340000Y-83773552D01*
X155340000Y-83767339D01*
X155312741Y-83665606D01*
X155260080Y-83574394D01*
X155185606Y-83499920D01*
X155094394Y-83447259D01*
X154992661Y-83420000D01*
X154986447Y-83420000D01*
X155608646Y-82797798D01*
X155579415Y-82776561D01*
X155408321Y-82689383D01*
X155225684Y-82630040D01*
X155036015Y-82600000D01*
X154843985Y-82600000D01*
X154654315Y-82630040D01*
X154471678Y-82689383D01*
X154300578Y-82776564D01*
X154271352Y-82797798D01*
X154271351Y-82797798D01*
X154893554Y-83420000D01*
X154887339Y-83420000D01*
X154785606Y-83447259D01*
X154694394Y-83499920D01*
X154619920Y-83574394D01*
X154567259Y-83665606D01*
X154540000Y-83767339D01*
X154540000Y-83773553D01*
X153917798Y-83151351D01*
X153917798Y-83151352D01*
X153896564Y-83180578D01*
X153809383Y-83351678D01*
X153787931Y-83417703D01*
X153748493Y-83475378D01*
X153684134Y-83502576D01*
X153615288Y-83490661D01*
X153563812Y-83443417D01*
X153552069Y-83417703D01*
X153530616Y-83351678D01*
X153443434Y-83180577D01*
X153422201Y-83151352D01*
X153422200Y-83151351D01*
X152800000Y-83773552D01*
X152800000Y-83767339D01*
X152772741Y-83665606D01*
X152720080Y-83574394D01*
X152645606Y-83499920D01*
X152554394Y-83447259D01*
X152452661Y-83420000D01*
X152446447Y-83420000D01*
X153068646Y-82797798D01*
X153039415Y-82776561D01*
X152868321Y-82689383D01*
X152685684Y-82630040D01*
X152496015Y-82600000D01*
X152303985Y-82600000D01*
X152114315Y-82630040D01*
X151931678Y-82689383D01*
X151760578Y-82776564D01*
X151731352Y-82797798D01*
X151731351Y-82797798D01*
X152353554Y-83420000D01*
X152347339Y-83420000D01*
X152245606Y-83447259D01*
X152154394Y-83499920D01*
X152079920Y-83574394D01*
X152027259Y-83665606D01*
X152000000Y-83767339D01*
X152000000Y-83773553D01*
X151377798Y-83151351D01*
X151377798Y-83151352D01*
X151356564Y-83180578D01*
X151269383Y-83351678D01*
X151210040Y-83534315D01*
X151180000Y-83723984D01*
X141000500Y-83723984D01*
X141000500Y-83717648D01*
X140981798Y-83599568D01*
X140968477Y-83515465D01*
X140927694Y-83389949D01*
X140905220Y-83320781D01*
X140905218Y-83320778D01*
X140905218Y-83320776D01*
X140871503Y-83254607D01*
X140812287Y-83138390D01*
X140745658Y-83046682D01*
X140691971Y-82972786D01*
X140547213Y-82828028D01*
X140381613Y-82707715D01*
X140381612Y-82707714D01*
X140381610Y-82707713D01*
X140324653Y-82678691D01*
X140199223Y-82614781D01*
X140004534Y-82551522D01*
X139829995Y-82523878D01*
X139802352Y-82519500D01*
X139597648Y-82519500D01*
X139573329Y-82523351D01*
X139395465Y-82551522D01*
X139200776Y-82614781D01*
X139018386Y-82707715D01*
X138852786Y-82828028D01*
X138708028Y-82972786D01*
X138587715Y-83138386D01*
X138494781Y-83320776D01*
X138431522Y-83515465D01*
X138399500Y-83717648D01*
X130840500Y-83717648D01*
X130821798Y-83599568D01*
X130808477Y-83515465D01*
X130767694Y-83389949D01*
X130745220Y-83320781D01*
X130745218Y-83320778D01*
X130745218Y-83320776D01*
X130711503Y-83254607D01*
X130652287Y-83138390D01*
X130585658Y-83046682D01*
X130531971Y-82972786D01*
X130387213Y-82828028D01*
X130221613Y-82707715D01*
X130221612Y-82707714D01*
X130221610Y-82707713D01*
X130164653Y-82678691D01*
X130039223Y-82614781D01*
X129844534Y-82551522D01*
X129669995Y-82523878D01*
X129642352Y-82519500D01*
X129437648Y-82519500D01*
X129413329Y-82523351D01*
X129235465Y-82551522D01*
X129040776Y-82614781D01*
X128858386Y-82707715D01*
X128692786Y-82828028D01*
X128548028Y-82972786D01*
X128427715Y-83138386D01*
X128334781Y-83320776D01*
X128271522Y-83515465D01*
X128239500Y-83717648D01*
X96600500Y-83717648D01*
X96600500Y-83599575D01*
X96588137Y-83489850D01*
X96569057Y-83320505D01*
X96569054Y-83320487D01*
X96506560Y-83046682D01*
X96506556Y-83046670D01*
X96480701Y-82972781D01*
X96413801Y-82781592D01*
X96291945Y-82528555D01*
X96142523Y-82290752D01*
X95967416Y-82071175D01*
X95768825Y-81872584D01*
X95549248Y-81697477D01*
X95311445Y-81548055D01*
X95311442Y-81548053D01*
X95058411Y-81426200D01*
X94793329Y-81333443D01*
X94793317Y-81333439D01*
X94519512Y-81270945D01*
X94519494Y-81270942D01*
X94240431Y-81239500D01*
X94240425Y-81239500D01*
X93959575Y-81239500D01*
X93959568Y-81239500D01*
X93680505Y-81270942D01*
X93680487Y-81270945D01*
X93406682Y-81333439D01*
X93406670Y-81333443D01*
X93141588Y-81426200D01*
X92888557Y-81548053D01*
X92650753Y-81697476D01*
X92431175Y-81872583D01*
X92232583Y-82071175D01*
X92057476Y-82290753D01*
X91908053Y-82528557D01*
X91786200Y-82781588D01*
X91693443Y-83046670D01*
X91693439Y-83046682D01*
X91630945Y-83320487D01*
X91630942Y-83320505D01*
X91599500Y-83599568D01*
X89400500Y-83599568D01*
X89400500Y-79364500D01*
X89420185Y-79297461D01*
X89472989Y-79251706D01*
X89524500Y-79240500D01*
X172095500Y-79240500D01*
X172162539Y-79260185D01*
G37*
G04 #@! TD.AperFunction*
G04 #@! TD*
M02*
