G04 #@! TF.GenerationSoftware,KiCad,Pcbnew,9.0.7*
G04 #@! TF.CreationDate,2026-02-15T14:06:54+01:00*
G04 #@! TF.ProjectId,XR-2208,58522d32-3230-4382-9e6b-696361645f70,rev?*
G04 #@! TF.SameCoordinates,Original*
G04 #@! TF.FileFunction,Copper,L1,Top*
G04 #@! TF.FilePolarity,Positive*
%FSLAX46Y46*%
G04 Gerber Fmt 4.6, Leading zero omitted, Abs format (unit mm)*
G04 Created by KiCad (PCBNEW 9.0.7) date 2026-02-15 14:06:54*
%MOMM*%
%LPD*%
G01*
G04 APERTURE LIST*
G04 Aperture macros list*
%AMRoundRect*
0 Rectangle with rounded corners*
0 $1 Rounding radius*
0 $2 $3 $4 $5 $6 $7 $8 $9 X,Y pos of 4 corners*
0 Add a 4 corners polygon primitive as box body*
4,1,4,$2,$3,$4,$5,$6,$7,$8,$9,$2,$3,0*
0 Add four circle primitives for the rounded corners*
1,1,$1+$1,$2,$3*
1,1,$1+$1,$4,$5*
1,1,$1+$1,$6,$7*
1,1,$1+$1,$8,$9*
0 Add four rect primitives between the rounded corners*
20,1,$1+$1,$2,$3,$4,$5,0*
20,1,$1+$1,$4,$5,$6,$7,0*
20,1,$1+$1,$6,$7,$8,$9,0*
20,1,$1+$1,$8,$9,$2,$3,0*%
G04 Aperture macros list end*
G04 #@! TA.AperFunction,ComponentPad*
%ADD10C,1.600000*%
G04 #@! TD*
G04 #@! TA.AperFunction,ComponentPad*
%ADD11C,1.440000*%
G04 #@! TD*
G04 #@! TA.AperFunction,ComponentPad*
%ADD12RoundRect,0.250000X-0.550000X-0.550000X0.550000X-0.550000X0.550000X0.550000X-0.550000X0.550000X0*%
G04 #@! TD*
G04 #@! TA.AperFunction,ComponentPad*
%ADD13R,1.700000X1.700000*%
G04 #@! TD*
G04 #@! TA.AperFunction,ComponentPad*
%ADD14C,1.700000*%
G04 #@! TD*
G04 #@! TA.AperFunction,Conductor*
%ADD15C,0.200000*%
G04 #@! TD*
G04 APERTURE END LIST*
D10*
G04 #@! TO.P,R4,1*
G04 #@! TO.N,Net-(R4-Pad1)*
X157480000Y-99060000D03*
G04 #@! TO.P,R4,2*
G04 #@! TO.N,Net-(IC1-OP+)*
X147320000Y-99060000D03*
G04 #@! TD*
G04 #@! TO.P,R1,1*
G04 #@! TO.N,Net-(R1-Pad1)*
X104140000Y-109220000D03*
G04 #@! TO.P,R1,2*
G04 #@! TO.N,GND*
X114300000Y-109220000D03*
G04 #@! TD*
D11*
G04 #@! TO.P,RV2,1,1*
G04 #@! TO.N,VCC*
X124460000Y-93980000D03*
G04 #@! TO.P,RV2,2,2*
G04 #@! TO.N,Net-(R2-Pad1)*
X121920000Y-93980000D03*
G04 #@! TO.P,RV2,3,3*
G04 #@! TO.N,VEE*
X119380000Y-93980000D03*
G04 #@! TD*
G04 #@! TO.P,RV1,1,1*
G04 #@! TO.N,Net-(J2-Pin_1)*
X99060000Y-93980000D03*
G04 #@! TO.P,RV1,2,2*
G04 #@! TO.N,Net-(IC1-Y_IN)*
X96520000Y-93980000D03*
G04 #@! TO.P,RV1,3,3*
G04 #@! TO.N,Net-(R1-Pad1)*
X93980000Y-93980000D03*
G04 #@! TD*
D10*
G04 #@! TO.P,RX1,1*
G04 #@! TO.N,Net-(IC1-X_GAIN@1)*
X129540000Y-114300000D03*
G04 #@! TO.P,RX1,2*
G04 #@! TO.N,Net-(IC1-X_GAIN@2)*
X139700000Y-114300000D03*
G04 #@! TD*
D11*
G04 #@! TO.P,RV3,1,1*
G04 #@! TO.N,VCC*
X111760000Y-93980000D03*
G04 #@! TO.P,RV3,2,2*
G04 #@! TO.N,Net-(R3-Pad1)*
X109220000Y-93980000D03*
G04 #@! TO.P,RV3,3,3*
G04 #@! TO.N,VEE*
X106680000Y-93980000D03*
G04 #@! TD*
D12*
G04 #@! TO.P,IC1,1,MULT@1*
G04 #@! TO.N,Net-(IC1-MULT@1)*
X129540000Y-91440000D03*
D10*
G04 #@! TO.P,IC1,2,MULT@2*
G04 #@! TO.N,Net-(IC1-MULT@2)*
X129540000Y-93980000D03*
G04 #@! TO.P,IC1,3,X_IN*
G04 #@! TO.N,Net-(IC1-X_IN)*
X129540000Y-96520000D03*
G04 #@! TO.P,IC1,4,COMMON*
G04 #@! TO.N,GND*
X129540000Y-99060000D03*
G04 #@! TO.P,IC1,5,Y_IN*
G04 #@! TO.N,Net-(IC1-Y_IN)*
X129540000Y-101600000D03*
G04 #@! TO.P,IC1,6,Y_GAIN@1*
G04 #@! TO.N,Net-(IC1-Y_GAIN@1)*
X129540000Y-104140000D03*
G04 #@! TO.P,IC1,7,Y_GAIN@2*
G04 #@! TO.N,Net-(IC1-Y_GAIN@2)*
X129540000Y-106680000D03*
G04 #@! TO.P,IC1,8,X_GAIN@1*
G04 #@! TO.N,Net-(IC1-X_GAIN@1)*
X129540000Y-109220000D03*
G04 #@! TO.P,IC1,9,X_GAIN@2*
G04 #@! TO.N,Net-(IC1-X_GAIN@2)*
X137160000Y-109220000D03*
G04 #@! TO.P,IC1,10,V-*
G04 #@! TO.N,VEE*
X137160000Y-106680000D03*
G04 #@! TO.P,IC1,11,OP_OUT*
G04 #@! TO.N,Net-(IC1-OP_OUT)*
X137160000Y-104140000D03*
G04 #@! TO.P,IC1,12,COMP*
G04 #@! TO.N,Net-(IC1-COMP)*
X137160000Y-101600000D03*
G04 #@! TO.P,IC1,13,OP+*
G04 #@! TO.N,Net-(IC1-OP+)*
X137160000Y-99060000D03*
G04 #@! TO.P,IC1,14,OP-*
G04 #@! TO.N,Net-(IC1-OP-)*
X137160000Y-96520000D03*
G04 #@! TO.P,IC1,15,HF_OUT*
G04 #@! TO.N,unconnected-(IC1-HF_OUT-Pad15)*
X137160000Y-93980000D03*
G04 #@! TO.P,IC1,16,V+*
G04 #@! TO.N,VCC*
X137160000Y-91440000D03*
G04 #@! TD*
G04 #@! TO.P,RY1,1*
G04 #@! TO.N,Net-(IC1-Y_GAIN@2)*
X124460000Y-109220000D03*
G04 #@! TO.P,RY1,2*
G04 #@! TO.N,Net-(IC1-Y_GAIN@1)*
X124460000Y-99060000D03*
G04 #@! TD*
G04 #@! TO.P,Ri1,1*
G04 #@! TO.N,Net-(IC1-MULT@1)*
X147320000Y-91440000D03*
G04 #@! TO.P,Ri1,2*
G04 #@! TO.N,Net-(IC1-OP-)*
X157480000Y-91440000D03*
G04 #@! TD*
G04 #@! TO.P,R2,1*
G04 #@! TO.N,Net-(R2-Pad1)*
X109220000Y-101600000D03*
G04 #@! TO.P,R2,2*
G04 #@! TO.N,Net-(IC1-Y_GAIN@2)*
X119380000Y-101600000D03*
G04 #@! TD*
D13*
G04 #@! TO.P,J2,1,Pin_1*
G04 #@! TO.N,Net-(J2-Pin_1)*
X96520000Y-109220000D03*
D14*
G04 #@! TO.P,J2,2,Pin_2*
X99060000Y-109220000D03*
G04 #@! TD*
D10*
G04 #@! TO.P,R5,1*
G04 #@! TO.N,Net-(IC1-MULT@2)*
X129540000Y-83820000D03*
G04 #@! TO.P,R5,2*
G04 #@! TO.N,Net-(IC1-OP+)*
X139700000Y-83820000D03*
G04 #@! TD*
D13*
G04 #@! TO.P,J1,1,Pin_1*
G04 #@! TO.N,Net-(IC1-X_IN)*
X121920000Y-86360000D03*
D14*
G04 #@! TO.P,J1,2,Pin_2*
X124460000Y-86360000D03*
G04 #@! TD*
D13*
G04 #@! TO.P,J3,1,Pin_1*
G04 #@! TO.N,Net-(IC1-OP-)*
X165100000Y-96520000D03*
D14*
G04 #@! TO.P,J3,2,Pin_2*
X167640000Y-96520000D03*
G04 #@! TD*
D10*
G04 #@! TO.P,Rf1,1*
G04 #@! TO.N,Net-(IC1-OP_OUT)*
X154940000Y-104140000D03*
G04 #@! TO.P,Rf1,2*
G04 #@! TO.N,Net-(IC1-OP-)*
X165100000Y-104140000D03*
G04 #@! TD*
G04 #@! TO.P,C1,1*
G04 #@! TO.N,Net-(IC1-COMP)*
X142240000Y-101600000D03*
G04 #@! TO.P,C1,2*
G04 #@! TO.N,Net-(IC1-OP_OUT)*
X142240000Y-104100000D03*
G04 #@! TD*
G04 #@! TO.P,R3,1*
G04 #@! TO.N,Net-(R3-Pad1)*
X104140000Y-101600000D03*
G04 #@! TO.P,R3,2*
G04 #@! TO.N,Net-(IC1-X_GAIN@1)*
X93980000Y-101600000D03*
G04 #@! TD*
D11*
G04 #@! TO.P,RV4,1,1*
G04 #@! TO.N,GND*
X152400000Y-83820000D03*
G04 #@! TO.P,RV4,2,2*
X154940000Y-83820000D03*
G04 #@! TO.P,RV4,3,3*
G04 #@! TO.N,Net-(R4-Pad1)*
X157480000Y-83820000D03*
G04 #@! TD*
D15*
G04 #@! TO.N,Net-(IC1-OP+)*
X132080000Y-93980000D02*
X137160000Y-99060000D01*
X132080000Y-91440000D02*
X132080000Y-93980000D01*
X139700000Y-83820000D02*
X132080000Y-91440000D01*
G04 #@! TO.N,Net-(IC1-OP_OUT)*
X154940000Y-104140000D02*
X152400000Y-104140000D01*
X152400000Y-104140000D02*
X152360000Y-104100000D01*
X152360000Y-104100000D02*
X142240000Y-104100000D01*
G04 #@! TO.N,Net-(IC1-Y_GAIN@2)*
X119380000Y-104140000D02*
X124460000Y-109220000D01*
X119380000Y-101600000D02*
X119380000Y-104140000D01*
X127000000Y-109220000D02*
X129540000Y-106680000D01*
X124460000Y-109220000D02*
X127000000Y-109220000D01*
G04 #@! TO.N,Net-(IC1-MULT@2)*
X130641000Y-92879000D02*
X129540000Y-93980000D01*
X129540000Y-83820000D02*
X130641000Y-84921000D01*
X130641000Y-84921000D02*
X130641000Y-92879000D01*
G04 #@! TO.N,VEE*
X106680000Y-93980000D02*
X107701000Y-95001000D01*
X107701000Y-95001000D02*
X118359000Y-95001000D01*
X118359000Y-95001000D02*
X119380000Y-93980000D01*
G04 #@! TO.N,Net-(IC1-Y_GAIN@1)*
X124460000Y-99060000D02*
X129540000Y-104140000D01*
G04 #@! TO.N,Net-(IC1-X_IN)*
X124460000Y-86360000D02*
X124460000Y-91440000D01*
X124460000Y-91440000D02*
X129540000Y-96520000D01*
X121920000Y-86360000D02*
X124460000Y-86360000D01*
G04 #@! TO.N,Net-(J2-Pin_1)*
X96520000Y-109220000D02*
X99060000Y-109220000D01*
X99060000Y-109220000D02*
X99060000Y-93980000D01*
G04 #@! TO.N,Net-(R1-Pad1)*
X101600000Y-93980000D02*
X101600000Y-106680000D01*
X101600000Y-106680000D02*
X104140000Y-109220000D01*
X99060000Y-91440000D02*
X101600000Y-93980000D01*
X93980000Y-93980000D02*
X96520000Y-91440000D01*
X96520000Y-91440000D02*
X99060000Y-91440000D01*
G04 #@! TO.N,Net-(R2-Pad1)*
X121920000Y-93980000D02*
X114300000Y-101600000D01*
X114300000Y-101600000D02*
X109220000Y-101600000D01*
G04 #@! TO.N,Net-(R4-Pad1)*
X156379000Y-97959000D02*
X156379000Y-84921000D01*
X156379000Y-84921000D02*
X157480000Y-83820000D01*
X157480000Y-99060000D02*
X156379000Y-97959000D01*
G04 #@! TD*
G04 #@! TA.AperFunction,Conductor*
G04 #@! TO.N,VCC*
G36*
X172162539Y-79260185D02*
G01*
X172208294Y-79312989D01*
X172219500Y-79364500D01*
X172219500Y-118755500D01*
X172199815Y-118822539D01*
X172147011Y-118868294D01*
X172095500Y-118879500D01*
X89524500Y-118879500D01*
X89457461Y-118859815D01*
X89411706Y-118807011D01*
X89400500Y-118755500D01*
X89400500Y-114519568D01*
X91599500Y-114519568D01*
X91599500Y-114800431D01*
X91630942Y-115079494D01*
X91630945Y-115079512D01*
X91693439Y-115353317D01*
X91693443Y-115353329D01*
X91786200Y-115618411D01*
X91908053Y-115871442D01*
X91908055Y-115871445D01*
X92057477Y-116109248D01*
X92232584Y-116328825D01*
X92431175Y-116527416D01*
X92650752Y-116702523D01*
X92888555Y-116851945D01*
X93141592Y-116973801D01*
X93340680Y-117043465D01*
X93406670Y-117066556D01*
X93406682Y-117066560D01*
X93680491Y-117129055D01*
X93680497Y-117129055D01*
X93680505Y-117129057D01*
X93866547Y-117150018D01*
X93959569Y-117160499D01*
X93959572Y-117160500D01*
X93959575Y-117160500D01*
X94240428Y-117160500D01*
X94240429Y-117160499D01*
X94383055Y-117144429D01*
X94519494Y-117129057D01*
X94519499Y-117129056D01*
X94519509Y-117129055D01*
X94793318Y-117066560D01*
X95058408Y-116973801D01*
X95311445Y-116851945D01*
X95549248Y-116702523D01*
X95768825Y-116527416D01*
X95967416Y-116328825D01*
X96142523Y-116109248D01*
X96291945Y-115871445D01*
X96413801Y-115618408D01*
X96506560Y-115353318D01*
X96569055Y-115079509D01*
X96580086Y-114981610D01*
X96600499Y-114800431D01*
X96600500Y-114800427D01*
X96600500Y-114519572D01*
X96600499Y-114519568D01*
X96569057Y-114240505D01*
X96569056Y-114240500D01*
X96569055Y-114240491D01*
X96559276Y-114197648D01*
X128239500Y-114197648D01*
X128239500Y-114402351D01*
X128271522Y-114604534D01*
X128334781Y-114799223D01*
X128427715Y-114981613D01*
X128548028Y-115147213D01*
X128692786Y-115291971D01*
X128847749Y-115404556D01*
X128858390Y-115412287D01*
X128974607Y-115471503D01*
X129040776Y-115505218D01*
X129040778Y-115505218D01*
X129040781Y-115505220D01*
X129145137Y-115539127D01*
X129235465Y-115568477D01*
X129336557Y-115584488D01*
X129437648Y-115600500D01*
X129437649Y-115600500D01*
X129642351Y-115600500D01*
X129642352Y-115600500D01*
X129844534Y-115568477D01*
X130039219Y-115505220D01*
X130221610Y-115412287D01*
X130314590Y-115344732D01*
X130387213Y-115291971D01*
X130387215Y-115291968D01*
X130387219Y-115291966D01*
X130531966Y-115147219D01*
X130531968Y-115147215D01*
X130531971Y-115147213D01*
X130584732Y-115074590D01*
X130652287Y-114981610D01*
X130744602Y-114800431D01*
X130745218Y-114799223D01*
X130745218Y-114799222D01*
X130745220Y-114799219D01*
X130808477Y-114604534D01*
X130840500Y-114402352D01*
X130840500Y-114197648D01*
X138399500Y-114197648D01*
X138399500Y-114402351D01*
X138431522Y-114604534D01*
X138494781Y-114799223D01*
X138587715Y-114981613D01*
X138708028Y-115147213D01*
X138852786Y-115291971D01*
X139007749Y-115404556D01*
X139018390Y-115412287D01*
X139134607Y-115471503D01*
X139200776Y-115505218D01*
X139200778Y-115505218D01*
X139200781Y-115505220D01*
X139305137Y-115539127D01*
X139395465Y-115568477D01*
X139496557Y-115584488D01*
X139597648Y-115600500D01*
X139597649Y-115600500D01*
X139802351Y-115600500D01*
X139802352Y-115600500D01*
X140004534Y-115568477D01*
X140199219Y-115505220D01*
X140381610Y-115412287D01*
X140474590Y-115344732D01*
X140547213Y-115291971D01*
X140547215Y-115291968D01*
X140547219Y-115291966D01*
X140691966Y-115147219D01*
X140691968Y-115147215D01*
X140691971Y-115147213D01*
X140744732Y-115074590D01*
X140812287Y-114981610D01*
X140904602Y-114800431D01*
X140905218Y-114799223D01*
X140905218Y-114799222D01*
X140905220Y-114799219D01*
X140968477Y-114604534D01*
X140978326Y-114542351D01*
X140981935Y-114519568D01*
X165499500Y-114519568D01*
X165499500Y-114800431D01*
X165530942Y-115079494D01*
X165530945Y-115079512D01*
X165593439Y-115353317D01*
X165593443Y-115353329D01*
X165686200Y-115618411D01*
X165808053Y-115871442D01*
X165808055Y-115871445D01*
X165957477Y-116109248D01*
X166132584Y-116328825D01*
X166331175Y-116527416D01*
X166550752Y-116702523D01*
X166788555Y-116851945D01*
X167041592Y-116973801D01*
X167240680Y-117043465D01*
X167306670Y-117066556D01*
X167306682Y-117066560D01*
X167580491Y-117129055D01*
X167580497Y-117129055D01*
X167580505Y-117129057D01*
X167766547Y-117150018D01*
X167859569Y-117160499D01*
X167859572Y-117160500D01*
X167859575Y-117160500D01*
X168140428Y-117160500D01*
X168140429Y-117160499D01*
X168283055Y-117144429D01*
X168419494Y-117129057D01*
X168419499Y-117129056D01*
X168419509Y-117129055D01*
X168693318Y-117066560D01*
X168958408Y-116973801D01*
X169211445Y-116851945D01*
X169449248Y-116702523D01*
X169668825Y-116527416D01*
X169867416Y-116328825D01*
X170042523Y-116109248D01*
X170191945Y-115871445D01*
X170313801Y-115618408D01*
X170406560Y-115353318D01*
X170469055Y-115079509D01*
X170480086Y-114981610D01*
X170500499Y-114800431D01*
X170500500Y-114800427D01*
X170500500Y-114519572D01*
X170500499Y-114519568D01*
X170469057Y-114240505D01*
X170469054Y-114240487D01*
X170406560Y-113966682D01*
X170406556Y-113966670D01*
X170383465Y-113900680D01*
X170313801Y-113701592D01*
X170191945Y-113448555D01*
X170042523Y-113210752D01*
X169867416Y-112991175D01*
X169668825Y-112792584D01*
X169449248Y-112617477D01*
X169211445Y-112468055D01*
X169211442Y-112468053D01*
X168958411Y-112346200D01*
X168693329Y-112253443D01*
X168693317Y-112253439D01*
X168419512Y-112190945D01*
X168419494Y-112190942D01*
X168140431Y-112159500D01*
X168140425Y-112159500D01*
X167859575Y-112159500D01*
X167859568Y-112159500D01*
X167580505Y-112190942D01*
X167580487Y-112190945D01*
X167306682Y-112253439D01*
X167306670Y-112253443D01*
X167041588Y-112346200D01*
X166788557Y-112468053D01*
X166550753Y-112617476D01*
X166331175Y-112792583D01*
X166132583Y-112991175D01*
X165957476Y-113210753D01*
X165808053Y-113448557D01*
X165686200Y-113701588D01*
X165593443Y-113966670D01*
X165593439Y-113966682D01*
X165530945Y-114240487D01*
X165530942Y-114240505D01*
X165499500Y-114519568D01*
X140981935Y-114519568D01*
X140985557Y-114496698D01*
X141000500Y-114402351D01*
X141000500Y-114197648D01*
X140968477Y-113995465D01*
X140905218Y-113800776D01*
X140871503Y-113734607D01*
X140812287Y-113618390D01*
X140740637Y-113519771D01*
X140691971Y-113452786D01*
X140547213Y-113308028D01*
X140381613Y-113187715D01*
X140381612Y-113187714D01*
X140381610Y-113187713D01*
X140324653Y-113158691D01*
X140199223Y-113094781D01*
X140004534Y-113031522D01*
X139829995Y-113003878D01*
X139802352Y-112999500D01*
X139597648Y-112999500D01*
X139573329Y-113003351D01*
X139395465Y-113031522D01*
X139200776Y-113094781D01*
X139018386Y-113187715D01*
X138852786Y-113308028D01*
X138708028Y-113452786D01*
X138587715Y-113618386D01*
X138494781Y-113800776D01*
X138431522Y-113995465D01*
X138399500Y-114197648D01*
X130840500Y-114197648D01*
X130808477Y-113995466D01*
X130745220Y-113800781D01*
X130745218Y-113800778D01*
X130745218Y-113800776D01*
X130711503Y-113734607D01*
X130652287Y-113618390D01*
X130580637Y-113519771D01*
X130531971Y-113452786D01*
X130387213Y-113308028D01*
X130221613Y-113187715D01*
X130221612Y-113187714D01*
X130221610Y-113187713D01*
X130164653Y-113158691D01*
X130039223Y-113094781D01*
X129844534Y-113031522D01*
X129669995Y-113003878D01*
X129642352Y-112999500D01*
X129437648Y-112999500D01*
X129413329Y-113003351D01*
X129235465Y-113031522D01*
X129040776Y-113094781D01*
X128858386Y-113187715D01*
X128692786Y-113308028D01*
X128548028Y-113452786D01*
X128427715Y-113618386D01*
X128334781Y-113800776D01*
X128271522Y-113995465D01*
X128239500Y-114197648D01*
X96559276Y-114197648D01*
X96506560Y-113966682D01*
X96413801Y-113701592D01*
X96291945Y-113448555D01*
X96142523Y-113210752D01*
X95967416Y-112991175D01*
X95768825Y-112792584D01*
X95549248Y-112617477D01*
X95311445Y-112468055D01*
X95311442Y-112468053D01*
X95058411Y-112346200D01*
X94793329Y-112253443D01*
X94793317Y-112253439D01*
X94519512Y-112190945D01*
X94519494Y-112190942D01*
X94240431Y-112159500D01*
X94240425Y-112159500D01*
X93959575Y-112159500D01*
X93959568Y-112159500D01*
X93680505Y-112190942D01*
X93680487Y-112190945D01*
X93406682Y-112253439D01*
X93406670Y-112253443D01*
X93141588Y-112346200D01*
X92888557Y-112468053D01*
X92650753Y-112617476D01*
X92431175Y-112792583D01*
X92232583Y-112991175D01*
X92057476Y-113210753D01*
X91908053Y-113448557D01*
X91786200Y-113701588D01*
X91693443Y-113966670D01*
X91693439Y-113966682D01*
X91630945Y-114240487D01*
X91630942Y-114240505D01*
X91599500Y-114519568D01*
X89400500Y-114519568D01*
X89400500Y-101497648D01*
X92679500Y-101497648D01*
X92679500Y-101702351D01*
X92711522Y-101904534D01*
X92774781Y-102099223D01*
X92867715Y-102281613D01*
X92988028Y-102447213D01*
X93132786Y-102591971D01*
X93287749Y-102704556D01*
X93298390Y-102712287D01*
X93379499Y-102753614D01*
X93480776Y-102805218D01*
X93480778Y-102805218D01*
X93480781Y-102805220D01*
X93555818Y-102829601D01*
X93675465Y-102868477D01*
X93694697Y-102871523D01*
X93877648Y-102900500D01*
X93877649Y-102900500D01*
X94082351Y-102900500D01*
X94082352Y-102900500D01*
X94284534Y-102868477D01*
X94479219Y-102805220D01*
X94661610Y-102712287D01*
X94754590Y-102644732D01*
X94827213Y-102591971D01*
X94827215Y-102591968D01*
X94827219Y-102591966D01*
X94971966Y-102447219D01*
X94971968Y-102447215D01*
X94971971Y-102447213D01*
X95024732Y-102374590D01*
X95092287Y-102281610D01*
X95185220Y-102099219D01*
X95248477Y-101904534D01*
X95280500Y-101702352D01*
X95280500Y-101497648D01*
X95248477Y-101295466D01*
X95185220Y-101100781D01*
X95185218Y-101100778D01*
X95185218Y-101100776D01*
X95151503Y-101034607D01*
X95092287Y-100918390D01*
X95084556Y-100907749D01*
X94971971Y-100752786D01*
X94827213Y-100608028D01*
X94661613Y-100487715D01*
X94661612Y-100487714D01*
X94661610Y-100487713D01*
X94604653Y-100458691D01*
X94479223Y-100394781D01*
X94284534Y-100331522D01*
X94087693Y-100300346D01*
X94082352Y-100299500D01*
X93877648Y-100299500D01*
X93872307Y-100300346D01*
X93675465Y-100331522D01*
X93480776Y-100394781D01*
X93298386Y-100487715D01*
X93132786Y-100608028D01*
X92988028Y-100752786D01*
X92867715Y-100918386D01*
X92774781Y-101100776D01*
X92711522Y-101295465D01*
X92679500Y-101497648D01*
X89400500Y-101497648D01*
X89400500Y-93883945D01*
X92759500Y-93883945D01*
X92759500Y-94076055D01*
X92762912Y-94097596D01*
X92789553Y-94265802D01*
X92848916Y-94448506D01*
X92935999Y-94619415D01*
X92936135Y-94619681D01*
X93049055Y-94775102D01*
X93184898Y-94910945D01*
X93340319Y-95023865D01*
X93388617Y-95048474D01*
X93511493Y-95111083D01*
X93598999Y-95139515D01*
X93694199Y-95170447D01*
X93883945Y-95200500D01*
X93883946Y-95200500D01*
X94076054Y-95200500D01*
X94076055Y-95200500D01*
X94265801Y-95170447D01*
X94448509Y-95111082D01*
X94619681Y-95023865D01*
X94775102Y-94910945D01*
X94910945Y-94775102D01*
X95023865Y-94619681D01*
X95111082Y-94448509D01*
X95126681Y-94400500D01*
X95132069Y-94383919D01*
X95171506Y-94326243D01*
X95235864Y-94299044D01*
X95304711Y-94310958D01*
X95356187Y-94358202D01*
X95367931Y-94383919D01*
X95388915Y-94448504D01*
X95475999Y-94619415D01*
X95476135Y-94619681D01*
X95589055Y-94775102D01*
X95724898Y-94910945D01*
X95880319Y-95023865D01*
X95928617Y-95048474D01*
X96051493Y-95111083D01*
X96138999Y-95139515D01*
X96234199Y-95170447D01*
X96423945Y-95200500D01*
X96423946Y-95200500D01*
X96616054Y-95200500D01*
X96616055Y-95200500D01*
X96805801Y-95170447D01*
X96988509Y-95111082D01*
X97159681Y-95023865D01*
X97315102Y-94910945D01*
X97450945Y-94775102D01*
X97563865Y-94619681D01*
X97651082Y-94448509D01*
X97666681Y-94400500D01*
X97672069Y-94383919D01*
X97711506Y-94326243D01*
X97775864Y-94299044D01*
X97844711Y-94310958D01*
X97896187Y-94358202D01*
X97907931Y-94383919D01*
X97928915Y-94448504D01*
X98015999Y-94619415D01*
X98016135Y-94619681D01*
X98129055Y-94775102D01*
X98264898Y-94910945D01*
X98390500Y-95002200D01*
X98408386Y-95015195D01*
X98451051Y-95070525D01*
X98459500Y-95115513D01*
X98459500Y-107934281D01*
X98439815Y-108001320D01*
X98391795Y-108044765D01*
X98352185Y-108064947D01*
X98352184Y-108064948D01*
X98180215Y-108189889D01*
X98066673Y-108303431D01*
X98005350Y-108336915D01*
X97935658Y-108331931D01*
X97879725Y-108290059D01*
X97862810Y-108259082D01*
X97813797Y-108127671D01*
X97813793Y-108127664D01*
X97727547Y-108012455D01*
X97727544Y-108012452D01*
X97612335Y-107926206D01*
X97612328Y-107926202D01*
X97477482Y-107875908D01*
X97477483Y-107875908D01*
X97417883Y-107869501D01*
X97417881Y-107869500D01*
X97417873Y-107869500D01*
X97417864Y-107869500D01*
X95622129Y-107869500D01*
X95622123Y-107869501D01*
X95562516Y-107875908D01*
X95427671Y-107926202D01*
X95427664Y-107926206D01*
X95312455Y-108012452D01*
X95312452Y-108012455D01*
X95226206Y-108127664D01*
X95226202Y-108127671D01*
X95175908Y-108262517D01*
X95169501Y-108322116D01*
X95169500Y-108322135D01*
X95169500Y-110117870D01*
X95169501Y-110117876D01*
X95175908Y-110177483D01*
X95226202Y-110312328D01*
X95226206Y-110312335D01*
X95312452Y-110427544D01*
X95312455Y-110427547D01*
X95427664Y-110513793D01*
X95427671Y-110513797D01*
X95562517Y-110564091D01*
X95562516Y-110564091D01*
X95569444Y-110564835D01*
X95622127Y-110570500D01*
X97417872Y-110570499D01*
X97477483Y-110564091D01*
X97612331Y-110513796D01*
X97727546Y-110427546D01*
X97813796Y-110312331D01*
X97862810Y-110180916D01*
X97904681Y-110124984D01*
X97970145Y-110100566D01*
X98038418Y-110115417D01*
X98066673Y-110136569D01*
X98180213Y-110250109D01*
X98352179Y-110375048D01*
X98352181Y-110375049D01*
X98352184Y-110375051D01*
X98541588Y-110471557D01*
X98743757Y-110537246D01*
X98953713Y-110570500D01*
X98953714Y-110570500D01*
X99166286Y-110570500D01*
X99166287Y-110570500D01*
X99376243Y-110537246D01*
X99578412Y-110471557D01*
X99767816Y-110375051D01*
X99854138Y-110312335D01*
X99939786Y-110250109D01*
X99939788Y-110250106D01*
X99939792Y-110250104D01*
X100090104Y-110099792D01*
X100090106Y-110099788D01*
X100090109Y-110099786D01*
X100215048Y-109927820D01*
X100215047Y-109927820D01*
X100215051Y-109927816D01*
X100311557Y-109738412D01*
X100377246Y-109536243D01*
X100410500Y-109326287D01*
X100410500Y-109113713D01*
X100377246Y-108903757D01*
X100311557Y-108701588D01*
X100215051Y-108512184D01*
X100215049Y-108512181D01*
X100215048Y-108512179D01*
X100090109Y-108340213D01*
X99939786Y-108189890D01*
X99767815Y-108064948D01*
X99767814Y-108064947D01*
X99728205Y-108044765D01*
X99677409Y-107996791D01*
X99660500Y-107934281D01*
X99660500Y-95115513D01*
X99680185Y-95048474D01*
X99711614Y-95015195D01*
X99726081Y-95004684D01*
X99855102Y-94910945D01*
X99990945Y-94775102D01*
X100103865Y-94619681D01*
X100191082Y-94448509D01*
X100250447Y-94265801D01*
X100280500Y-94076055D01*
X100280500Y-93883945D01*
X100269777Y-93816243D01*
X100278731Y-93746952D01*
X100323727Y-93693500D01*
X100390479Y-93672860D01*
X100457793Y-93691585D01*
X100479931Y-93709166D01*
X100963181Y-94192416D01*
X100996666Y-94253739D01*
X100999500Y-94280097D01*
X100999500Y-106593330D01*
X100999499Y-106593348D01*
X100999499Y-106759054D01*
X100999498Y-106759054D01*
X101040423Y-106911785D01*
X101069358Y-106961900D01*
X101069359Y-106961904D01*
X101069360Y-106961904D01*
X101119479Y-107048714D01*
X101119481Y-107048717D01*
X101238349Y-107167585D01*
X101238355Y-107167590D01*
X102845922Y-108775157D01*
X102879407Y-108836480D01*
X102876173Y-108901154D01*
X102874365Y-108906717D01*
X102871522Y-108915468D01*
X102839500Y-109117648D01*
X102839500Y-109322351D01*
X102871522Y-109524534D01*
X102934781Y-109719223D01*
X103027715Y-109901613D01*
X103148028Y-110067213D01*
X103292786Y-110211971D01*
X103430928Y-110312335D01*
X103458390Y-110332287D01*
X103542319Y-110375051D01*
X103640776Y-110425218D01*
X103640778Y-110425218D01*
X103640781Y-110425220D01*
X103745137Y-110459127D01*
X103835465Y-110488477D01*
X103936557Y-110504488D01*
X104037648Y-110520500D01*
X104037649Y-110520500D01*
X104242351Y-110520500D01*
X104242352Y-110520500D01*
X104444534Y-110488477D01*
X104639219Y-110425220D01*
X104821610Y-110332287D01*
X104934726Y-110250104D01*
X104987213Y-110211971D01*
X104987215Y-110211968D01*
X104987219Y-110211966D01*
X105131966Y-110067219D01*
X105131968Y-110067215D01*
X105131971Y-110067213D01*
X105233247Y-109927816D01*
X105252287Y-109901610D01*
X105345220Y-109719219D01*
X105408477Y-109524534D01*
X105440500Y-109322352D01*
X105440500Y-109117648D01*
X112999500Y-109117648D01*
X112999500Y-109322351D01*
X113031522Y-109524534D01*
X113094781Y-109719223D01*
X113187715Y-109901613D01*
X113308028Y-110067213D01*
X113452786Y-110211971D01*
X113590928Y-110312335D01*
X113618390Y-110332287D01*
X113702319Y-110375051D01*
X113800776Y-110425218D01*
X113800778Y-110425218D01*
X113800781Y-110425220D01*
X113905137Y-110459127D01*
X113995465Y-110488477D01*
X114096557Y-110504488D01*
X114197648Y-110520500D01*
X114197649Y-110520500D01*
X114402351Y-110520500D01*
X114402352Y-110520500D01*
X114604534Y-110488477D01*
X114799219Y-110425220D01*
X114981610Y-110332287D01*
X115094726Y-110250104D01*
X115147213Y-110211971D01*
X115147215Y-110211968D01*
X115147219Y-110211966D01*
X115291966Y-110067219D01*
X115291968Y-110067215D01*
X115291971Y-110067213D01*
X115393247Y-109927816D01*
X115412287Y-109901610D01*
X115505220Y-109719219D01*
X115568477Y-109524534D01*
X115600500Y-109322352D01*
X115600500Y-109117648D01*
X115599877Y-109113713D01*
X115568477Y-108915465D01*
X115505218Y-108720776D01*
X115471503Y-108654607D01*
X115412287Y-108538390D01*
X115404556Y-108527749D01*
X115291971Y-108372786D01*
X115147213Y-108228028D01*
X114981613Y-108107715D01*
X114981612Y-108107714D01*
X114981610Y-108107713D01*
X114897681Y-108064949D01*
X114799223Y-108014781D01*
X114604534Y-107951522D01*
X114407693Y-107920346D01*
X114402352Y-107919500D01*
X114197648Y-107919500D01*
X114192307Y-107920346D01*
X113995465Y-107951522D01*
X113800776Y-108014781D01*
X113618386Y-108107715D01*
X113452786Y-108228028D01*
X113308028Y-108372786D01*
X113187715Y-108538386D01*
X113094781Y-108720776D01*
X113031522Y-108915465D01*
X112999500Y-109117648D01*
X105440500Y-109117648D01*
X105439877Y-109113713D01*
X105408477Y-108915465D01*
X105345218Y-108720776D01*
X105311503Y-108654607D01*
X105252287Y-108538390D01*
X105244556Y-108527749D01*
X105131971Y-108372786D01*
X104987213Y-108228028D01*
X104821613Y-108107715D01*
X104821612Y-108107714D01*
X104821610Y-108107713D01*
X104737681Y-108064949D01*
X104639223Y-108014781D01*
X104444534Y-107951522D01*
X104247693Y-107920346D01*
X104242352Y-107919500D01*
X104037648Y-107919500D01*
X103999599Y-107925526D01*
X103835468Y-107951522D01*
X103826717Y-107954365D01*
X103821154Y-107956173D01*
X103751313Y-107958167D01*
X103695157Y-107925922D01*
X102236819Y-106467584D01*
X102203334Y-106406261D01*
X102200500Y-106379903D01*
X102200500Y-101497648D01*
X102839500Y-101497648D01*
X102839500Y-101702351D01*
X102871522Y-101904534D01*
X102934781Y-102099223D01*
X103027715Y-102281613D01*
X103148028Y-102447213D01*
X103292786Y-102591971D01*
X103447749Y-102704556D01*
X103458390Y-102712287D01*
X103539499Y-102753614D01*
X103640776Y-102805218D01*
X103640778Y-102805218D01*
X103640781Y-102805220D01*
X103715818Y-102829601D01*
X103835465Y-102868477D01*
X103854697Y-102871523D01*
X104037648Y-102900500D01*
X104037649Y-102900500D01*
X104242351Y-102900500D01*
X104242352Y-102900500D01*
X104444534Y-102868477D01*
X104639219Y-102805220D01*
X104821610Y-102712287D01*
X104914590Y-102644732D01*
X104987213Y-102591971D01*
X104987215Y-102591968D01*
X104987219Y-102591966D01*
X105131966Y-102447219D01*
X105131968Y-102447215D01*
X105131971Y-102447213D01*
X105184732Y-102374590D01*
X105252287Y-102281610D01*
X105345220Y-102099219D01*
X105408477Y-101904534D01*
X105440500Y-101702352D01*
X105440500Y-101497648D01*
X105408477Y-101295466D01*
X105345220Y-101100781D01*
X105345218Y-101100778D01*
X105345218Y-101100776D01*
X105311503Y-101034607D01*
X105252287Y-100918390D01*
X105244556Y-100907749D01*
X105131971Y-100752786D01*
X104987213Y-100608028D01*
X104821613Y-100487715D01*
X104821612Y-100487714D01*
X104821610Y-100487713D01*
X104764653Y-100458691D01*
X104639223Y-100394781D01*
X104444534Y-100331522D01*
X104247693Y-100300346D01*
X104242352Y-100299500D01*
X104037648Y-100299500D01*
X104032307Y-100300346D01*
X103835465Y-100331522D01*
X103640776Y-100394781D01*
X103458386Y-100487715D01*
X103292786Y-100608028D01*
X103148028Y-100752786D01*
X103027715Y-100918386D01*
X102934781Y-101100776D01*
X102871522Y-101295465D01*
X102839500Y-101497648D01*
X102200500Y-101497648D01*
X102200500Y-93901760D01*
X102200500Y-93900943D01*
X102195945Y-93883945D01*
X105459500Y-93883945D01*
X105459500Y-94076055D01*
X105462912Y-94097596D01*
X105489553Y-94265802D01*
X105548916Y-94448506D01*
X105635999Y-94619415D01*
X105636135Y-94619681D01*
X105749055Y-94775102D01*
X105884898Y-94910945D01*
X106040319Y-95023865D01*
X106088617Y-95048474D01*
X106211493Y-95111083D01*
X106298999Y-95139515D01*
X106394199Y-95170447D01*
X106583945Y-95200500D01*
X106583946Y-95200500D01*
X106776054Y-95200500D01*
X106776055Y-95200500D01*
X106951233Y-95172754D01*
X106956657Y-95173455D01*
X106961784Y-95171543D01*
X106990934Y-95177884D01*
X107020525Y-95181708D01*
X107026130Y-95185540D01*
X107030057Y-95186395D01*
X107058311Y-95207546D01*
X107216139Y-95365374D01*
X107216149Y-95365385D01*
X107220479Y-95369715D01*
X107220480Y-95369716D01*
X107332284Y-95481520D01*
X107398068Y-95519500D01*
X107469215Y-95560577D01*
X107621943Y-95601501D01*
X107621946Y-95601501D01*
X107787653Y-95601501D01*
X107787669Y-95601500D01*
X118272331Y-95601500D01*
X118272347Y-95601501D01*
X118279943Y-95601501D01*
X118438054Y-95601501D01*
X118438057Y-95601501D01*
X118590785Y-95560577D01*
X118661932Y-95519500D01*
X118727716Y-95481520D01*
X118839520Y-95369716D01*
X118839520Y-95369714D01*
X118849723Y-95359512D01*
X118849727Y-95359506D01*
X119001689Y-95207544D01*
X119063010Y-95174061D01*
X119108764Y-95172754D01*
X119283945Y-95200500D01*
X119283946Y-95200500D01*
X119476053Y-95200500D01*
X119476055Y-95200500D01*
X119543754Y-95189777D01*
X119613046Y-95198731D01*
X119666498Y-95243727D01*
X119687138Y-95310478D01*
X119668414Y-95377792D01*
X119650832Y-95399931D01*
X114087584Y-100963181D01*
X114026261Y-100996666D01*
X113999903Y-100999500D01*
X110449602Y-100999500D01*
X110382563Y-100979815D01*
X110339117Y-100931795D01*
X110332284Y-100918385D01*
X110211971Y-100752786D01*
X110067213Y-100608028D01*
X109901613Y-100487715D01*
X109901612Y-100487714D01*
X109901610Y-100487713D01*
X109844653Y-100458691D01*
X109719223Y-100394781D01*
X109524534Y-100331522D01*
X109327693Y-100300346D01*
X109322352Y-100299500D01*
X109117648Y-100299500D01*
X109112307Y-100300346D01*
X108915465Y-100331522D01*
X108720776Y-100394781D01*
X108538386Y-100487715D01*
X108372786Y-100608028D01*
X108228028Y-100752786D01*
X108107715Y-100918386D01*
X108014781Y-101100776D01*
X107951522Y-101295465D01*
X107919500Y-101497648D01*
X107919500Y-101702351D01*
X107951522Y-101904534D01*
X108014781Y-102099223D01*
X108107715Y-102281613D01*
X108228028Y-102447213D01*
X108372786Y-102591971D01*
X108527749Y-102704556D01*
X108538390Y-102712287D01*
X108619499Y-102753614D01*
X108720776Y-102805218D01*
X108720778Y-102805218D01*
X108720781Y-102805220D01*
X108795818Y-102829601D01*
X108915465Y-102868477D01*
X108934697Y-102871523D01*
X109117648Y-102900500D01*
X109117649Y-102900500D01*
X109322351Y-102900500D01*
X109322352Y-102900500D01*
X109524534Y-102868477D01*
X109719219Y-102805220D01*
X109901610Y-102712287D01*
X109994590Y-102644732D01*
X110067213Y-102591971D01*
X110067215Y-102591968D01*
X110067219Y-102591966D01*
X110211966Y-102447219D01*
X110211968Y-102447215D01*
X110211971Y-102447213D01*
X110332284Y-102281614D01*
X110332285Y-102281613D01*
X110332287Y-102281610D01*
X110339117Y-102268204D01*
X110387091Y-102217409D01*
X110449602Y-102200500D01*
X114213331Y-102200500D01*
X114213347Y-102200501D01*
X114220943Y-102200501D01*
X114379054Y-102200501D01*
X114379057Y-102200501D01*
X114531785Y-102159577D01*
X114581904Y-102130639D01*
X114668716Y-102080520D01*
X114780520Y-101968716D01*
X114780520Y-101968714D01*
X114790728Y-101958507D01*
X114790730Y-101958504D01*
X121541689Y-95207544D01*
X121603010Y-95174061D01*
X121648764Y-95172754D01*
X121823945Y-95200500D01*
X121823946Y-95200500D01*
X122016054Y-95200500D01*
X122016055Y-95200500D01*
X122205801Y-95170447D01*
X122388509Y-95111082D01*
X122559681Y-95023865D01*
X122715102Y-94910945D01*
X122850945Y-94775102D01*
X122963865Y-94619681D01*
X123051082Y-94448509D01*
X123066681Y-94400500D01*
X123072332Y-94383109D01*
X123111769Y-94325433D01*
X123176127Y-94298234D01*
X123244973Y-94310148D01*
X123296450Y-94357392D01*
X123308194Y-94383107D01*
X123329383Y-94448321D01*
X123416561Y-94619415D01*
X123437798Y-94648646D01*
X124060000Y-94026445D01*
X124060000Y-94032661D01*
X124087259Y-94134394D01*
X124139920Y-94225606D01*
X124214394Y-94300080D01*
X124305606Y-94352741D01*
X124407339Y-94380000D01*
X124413554Y-94380000D01*
X123791351Y-95002200D01*
X123791352Y-95002201D01*
X123820577Y-95023434D01*
X123991678Y-95110616D01*
X124174315Y-95169959D01*
X124363985Y-95200000D01*
X124556015Y-95200000D01*
X124745684Y-95169959D01*
X124928321Y-95110616D01*
X125099419Y-95023436D01*
X125128646Y-95002201D01*
X125128646Y-95002200D01*
X124506447Y-94380000D01*
X124512661Y-94380000D01*
X124614394Y-94352741D01*
X124705606Y-94300080D01*
X124780080Y-94225606D01*
X124832741Y-94134394D01*
X124860000Y-94032661D01*
X124860000Y-94026446D01*
X125482200Y-94648646D01*
X125482201Y-94648646D01*
X125503436Y-94619419D01*
X125590616Y-94448321D01*
X125649959Y-94265684D01*
X125680000Y-94076015D01*
X125680000Y-93883986D01*
X125669175Y-93815644D01*
X125678129Y-93746350D01*
X125723125Y-93692898D01*
X125789876Y-93672258D01*
X125857190Y-93690982D01*
X125879329Y-93708564D01*
X128245922Y-96075157D01*
X128279407Y-96136480D01*
X128276173Y-96201154D01*
X128274365Y-96206717D01*
X128271522Y-96215468D01*
X128239500Y-96417648D01*
X128239500Y-96622351D01*
X128271522Y-96824534D01*
X128334781Y-97019223D01*
X128427715Y-97201613D01*
X128548028Y-97367213D01*
X128692786Y-97511971D01*
X128830928Y-97612335D01*
X128858390Y-97632287D01*
X128942313Y-97675048D01*
X128951080Y-97679515D01*
X129001876Y-97727490D01*
X129018671Y-97795311D01*
X128996134Y-97861446D01*
X128951080Y-97900485D01*
X128858386Y-97947715D01*
X128692786Y-98068028D01*
X128692782Y-98068032D01*
X128548034Y-98212781D01*
X128548032Y-98212783D01*
X128427715Y-98378386D01*
X128334781Y-98560776D01*
X128271522Y-98755465D01*
X128239500Y-98957648D01*
X128239500Y-99162351D01*
X128271522Y-99364534D01*
X128334781Y-99559223D01*
X128427715Y-99741613D01*
X128548028Y-99907213D01*
X128692786Y-100051971D01*
X128847749Y-100164556D01*
X128858390Y-100172287D01*
X128949840Y-100218883D01*
X128951080Y-100219515D01*
X129001876Y-100267490D01*
X129018671Y-100335311D01*
X128996134Y-100401446D01*
X128951080Y-100440485D01*
X128858386Y-100487715D01*
X128692786Y-100608028D01*
X128548028Y-100752786D01*
X128427715Y-100918386D01*
X128334781Y-101100776D01*
X128271522Y-101295465D01*
X128239500Y-101497648D01*
X128239500Y-101690903D01*
X128219815Y-101757942D01*
X128167011Y-101803697D01*
X128097853Y-101813641D01*
X128034297Y-101784616D01*
X128027819Y-101778584D01*
X125754077Y-99504842D01*
X125720592Y-99443519D01*
X125723828Y-99378841D01*
X125728477Y-99364534D01*
X125760500Y-99162352D01*
X125760500Y-98957648D01*
X125728477Y-98755466D01*
X125665220Y-98560781D01*
X125665218Y-98560778D01*
X125665218Y-98560776D01*
X125631503Y-98494607D01*
X125572287Y-98378390D01*
X125554661Y-98354130D01*
X125451968Y-98212783D01*
X125307213Y-98068028D01*
X125141613Y-97947715D01*
X125141612Y-97947714D01*
X125141610Y-97947713D01*
X125084653Y-97918691D01*
X124959223Y-97854781D01*
X124764534Y-97791522D01*
X124589995Y-97763878D01*
X124562352Y-97759500D01*
X124357648Y-97759500D01*
X124333329Y-97763351D01*
X124155465Y-97791522D01*
X123960776Y-97854781D01*
X123778386Y-97947715D01*
X123612786Y-98068028D01*
X123612782Y-98068032D01*
X123468034Y-98212781D01*
X123468032Y-98212783D01*
X123347715Y-98378386D01*
X123254781Y-98560776D01*
X123191522Y-98755465D01*
X123159500Y-98957648D01*
X123159500Y-99162351D01*
X123191522Y-99364534D01*
X123254781Y-99559223D01*
X123347715Y-99741613D01*
X123468028Y-99907213D01*
X123612786Y-100051971D01*
X123767749Y-100164556D01*
X123778390Y-100172287D01*
X123871080Y-100219515D01*
X123960776Y-100265218D01*
X123960778Y-100265218D01*
X123960781Y-100265220D01*
X124065137Y-100299127D01*
X124155465Y-100328477D01*
X124174697Y-100331523D01*
X124357648Y-100360500D01*
X124357649Y-100360500D01*
X124562351Y-100360500D01*
X124562352Y-100360500D01*
X124764534Y-100328477D01*
X124778842Y-100323827D01*
X124848682Y-100321831D01*
X124904842Y-100354077D01*
X128245922Y-103695157D01*
X128279407Y-103756480D01*
X128276173Y-103821155D01*
X128271522Y-103835468D01*
X128239500Y-104037648D01*
X128239500Y-104242351D01*
X128271522Y-104444534D01*
X128334781Y-104639223D01*
X128386385Y-104740500D01*
X128407333Y-104781613D01*
X128427715Y-104821613D01*
X128548028Y-104987213D01*
X128692786Y-105131971D01*
X128803330Y-105212284D01*
X128858390Y-105252287D01*
X128949840Y-105298883D01*
X128951080Y-105299515D01*
X129001876Y-105347490D01*
X129018671Y-105415311D01*
X128996134Y-105481446D01*
X128951080Y-105520485D01*
X128858386Y-105567715D01*
X128692786Y-105688028D01*
X128548028Y-105832786D01*
X128427715Y-105998386D01*
X128334781Y-106180776D01*
X128271522Y-106375465D01*
X128239500Y-106577648D01*
X128239500Y-106782351D01*
X128271522Y-106984534D01*
X128276173Y-106998848D01*
X128278165Y-107068690D01*
X128245921Y-107124842D01*
X126787584Y-108583181D01*
X126726261Y-108616666D01*
X126699903Y-108619500D01*
X125689602Y-108619500D01*
X125622563Y-108599815D01*
X125579117Y-108551795D01*
X125572284Y-108538385D01*
X125451971Y-108372786D01*
X125307213Y-108228028D01*
X125141613Y-108107715D01*
X125141612Y-108107714D01*
X125141610Y-108107713D01*
X125057681Y-108064949D01*
X124959223Y-108014781D01*
X124764534Y-107951522D01*
X124567693Y-107920346D01*
X124562352Y-107919500D01*
X124357648Y-107919500D01*
X124319599Y-107925526D01*
X124155468Y-107951522D01*
X124146717Y-107954365D01*
X124141154Y-107956173D01*
X124071313Y-107958167D01*
X124015157Y-107925922D01*
X120016819Y-103927584D01*
X119983334Y-103866261D01*
X119980500Y-103839903D01*
X119980500Y-102829601D01*
X120000185Y-102762562D01*
X120048206Y-102719116D01*
X120061610Y-102712287D01*
X120227219Y-102591966D01*
X120371966Y-102447219D01*
X120371968Y-102447215D01*
X120371971Y-102447213D01*
X120424732Y-102374590D01*
X120492287Y-102281610D01*
X120585220Y-102099219D01*
X120648477Y-101904534D01*
X120680500Y-101702352D01*
X120680500Y-101497648D01*
X120648477Y-101295466D01*
X120585220Y-101100781D01*
X120585218Y-101100778D01*
X120585218Y-101100776D01*
X120551503Y-101034607D01*
X120492287Y-100918390D01*
X120484556Y-100907749D01*
X120371971Y-100752786D01*
X120227213Y-100608028D01*
X120061613Y-100487715D01*
X120061612Y-100487714D01*
X120061610Y-100487713D01*
X120004653Y-100458691D01*
X119879223Y-100394781D01*
X119684534Y-100331522D01*
X119487693Y-100300346D01*
X119482352Y-100299500D01*
X119277648Y-100299500D01*
X119272307Y-100300346D01*
X119075465Y-100331522D01*
X118880776Y-100394781D01*
X118698386Y-100487715D01*
X118532786Y-100608028D01*
X118388028Y-100752786D01*
X118267715Y-100918386D01*
X118174781Y-101100776D01*
X118111522Y-101295465D01*
X118079500Y-101497648D01*
X118079500Y-101702351D01*
X118111522Y-101904534D01*
X118174781Y-102099223D01*
X118267715Y-102281613D01*
X118388028Y-102447213D01*
X118388034Y-102447219D01*
X118532781Y-102591966D01*
X118698390Y-102712287D01*
X118711793Y-102719116D01*
X118762589Y-102767088D01*
X118779500Y-102829601D01*
X118779500Y-104053330D01*
X118779499Y-104053348D01*
X118779499Y-104219054D01*
X118779498Y-104219054D01*
X118820422Y-104371783D01*
X118839330Y-104404532D01*
X118839332Y-104404535D01*
X118899479Y-104508714D01*
X118899481Y-104508717D01*
X119018349Y-104627585D01*
X119018355Y-104627590D01*
X123165922Y-108775157D01*
X123199407Y-108836480D01*
X123196173Y-108901154D01*
X123194365Y-108906717D01*
X123191522Y-108915468D01*
X123159500Y-109117648D01*
X123159500Y-109322351D01*
X123191522Y-109524534D01*
X123254781Y-109719223D01*
X123347715Y-109901613D01*
X123468028Y-110067213D01*
X123612786Y-110211971D01*
X123750928Y-110312335D01*
X123778390Y-110332287D01*
X123862319Y-110375051D01*
X123960776Y-110425218D01*
X123960778Y-110425218D01*
X123960781Y-110425220D01*
X124065137Y-110459127D01*
X124155465Y-110488477D01*
X124256557Y-110504488D01*
X124357648Y-110520500D01*
X124357649Y-110520500D01*
X124562351Y-110520500D01*
X124562352Y-110520500D01*
X124764534Y-110488477D01*
X124959219Y-110425220D01*
X125141610Y-110332287D01*
X125254726Y-110250104D01*
X125307213Y-110211971D01*
X125307215Y-110211968D01*
X125307219Y-110211966D01*
X125451966Y-110067219D01*
X125451968Y-110067215D01*
X125451971Y-110067213D01*
X125572284Y-109901614D01*
X125572285Y-109901613D01*
X125572287Y-109901610D01*
X125579117Y-109888204D01*
X125627091Y-109837409D01*
X125689602Y-109820500D01*
X126913331Y-109820500D01*
X126913347Y-109820501D01*
X126920943Y-109820501D01*
X127079054Y-109820501D01*
X127079057Y-109820501D01*
X127231785Y-109779577D01*
X127281904Y-109750639D01*
X127368716Y-109700520D01*
X127480520Y-109588716D01*
X127480520Y-109588714D01*
X127490728Y-109578507D01*
X127490730Y-109578504D01*
X128027819Y-109041415D01*
X128089142Y-109007930D01*
X128158834Y-109012914D01*
X128214767Y-109054786D01*
X128239184Y-109120250D01*
X128239500Y-109129096D01*
X128239500Y-109322351D01*
X128271522Y-109524534D01*
X128334781Y-109719223D01*
X128427715Y-109901613D01*
X128548028Y-110067213D01*
X128692786Y-110211971D01*
X128830928Y-110312335D01*
X128858390Y-110332287D01*
X128942319Y-110375051D01*
X129040776Y-110425218D01*
X129040778Y-110425218D01*
X129040781Y-110425220D01*
X129145137Y-110459127D01*
X129235465Y-110488477D01*
X129336557Y-110504488D01*
X129437648Y-110520500D01*
X129437649Y-110520500D01*
X129642351Y-110520500D01*
X129642352Y-110520500D01*
X129844534Y-110488477D01*
X130039219Y-110425220D01*
X130221610Y-110332287D01*
X130334726Y-110250104D01*
X130387213Y-110211971D01*
X130387215Y-110211968D01*
X130387219Y-110211966D01*
X130531966Y-110067219D01*
X130531968Y-110067215D01*
X130531971Y-110067213D01*
X130633247Y-109927816D01*
X130652287Y-109901610D01*
X130745220Y-109719219D01*
X130808477Y-109524534D01*
X130840500Y-109322352D01*
X130840500Y-109117648D01*
X130839877Y-109113713D01*
X130808477Y-108915465D01*
X130745218Y-108720776D01*
X130711503Y-108654607D01*
X130652287Y-108538390D01*
X130644556Y-108527749D01*
X130531971Y-108372786D01*
X130387213Y-108228028D01*
X130221614Y-108107715D01*
X130215006Y-108104348D01*
X130128917Y-108060483D01*
X130078123Y-108012511D01*
X130061328Y-107944690D01*
X130083865Y-107878555D01*
X130128917Y-107839516D01*
X130221610Y-107792287D01*
X130242770Y-107776913D01*
X130387213Y-107671971D01*
X130387215Y-107671968D01*
X130387219Y-107671966D01*
X130531966Y-107527219D01*
X130531968Y-107527215D01*
X130531971Y-107527213D01*
X130584732Y-107454590D01*
X130652287Y-107361610D01*
X130745220Y-107179219D01*
X130808477Y-106984534D01*
X130840500Y-106782352D01*
X130840500Y-106577648D01*
X130808477Y-106375466D01*
X130745220Y-106180781D01*
X130745218Y-106180778D01*
X130745218Y-106180776D01*
X130711503Y-106114607D01*
X130652287Y-105998390D01*
X130644556Y-105987749D01*
X130531971Y-105832786D01*
X130387213Y-105688028D01*
X130221614Y-105567715D01*
X130215006Y-105564348D01*
X130128917Y-105520483D01*
X130078123Y-105472511D01*
X130061328Y-105404690D01*
X130083865Y-105338555D01*
X130128917Y-105299516D01*
X130221610Y-105252287D01*
X130276670Y-105212284D01*
X130387213Y-105131971D01*
X130387215Y-105131968D01*
X130387219Y-105131966D01*
X130531966Y-104987219D01*
X130531968Y-104987215D01*
X130531971Y-104987213D01*
X130584732Y-104914590D01*
X130652287Y-104821610D01*
X130745220Y-104639219D01*
X130808477Y-104444534D01*
X130840500Y-104242352D01*
X130840500Y-104037648D01*
X130808477Y-103835466D01*
X130745220Y-103640781D01*
X130745218Y-103640778D01*
X130745218Y-103640776D01*
X130711503Y-103574607D01*
X130652287Y-103458390D01*
X130623222Y-103418385D01*
X130531971Y-103292786D01*
X130387213Y-103148028D01*
X130221614Y-103027715D01*
X130215006Y-103024348D01*
X130128917Y-102980483D01*
X130078123Y-102932511D01*
X130061328Y-102864690D01*
X130083865Y-102798555D01*
X130128917Y-102759516D01*
X130221610Y-102712287D01*
X130242770Y-102696913D01*
X130387213Y-102591971D01*
X130387215Y-102591968D01*
X130387219Y-102591966D01*
X130531966Y-102447219D01*
X130531968Y-102447215D01*
X130531971Y-102447213D01*
X130584732Y-102374590D01*
X130652287Y-102281610D01*
X130745220Y-102099219D01*
X130808477Y-101904534D01*
X130840500Y-101702352D01*
X130840500Y-101497648D01*
X130808477Y-101295466D01*
X130745220Y-101100781D01*
X130745218Y-101100778D01*
X130745218Y-101100776D01*
X130711503Y-101034607D01*
X130652287Y-100918390D01*
X130644556Y-100907749D01*
X130531971Y-100752786D01*
X130387213Y-100608028D01*
X130221614Y-100487715D01*
X130215006Y-100484348D01*
X130128917Y-100440483D01*
X130078123Y-100392511D01*
X130061328Y-100324690D01*
X130083865Y-100258555D01*
X130128917Y-100219516D01*
X130221610Y-100172287D01*
X130242770Y-100156913D01*
X130387213Y-100051971D01*
X130387215Y-100051968D01*
X130387219Y-100051966D01*
X130531966Y-99907219D01*
X130531968Y-99907215D01*
X130531971Y-99907213D01*
X130584732Y-99834590D01*
X130652287Y-99741610D01*
X130745220Y-99559219D01*
X130808477Y-99364534D01*
X130840500Y-99162352D01*
X130840500Y-98957648D01*
X130808477Y-98755466D01*
X130745220Y-98560781D01*
X130745218Y-98560778D01*
X130745218Y-98560776D01*
X130711503Y-98494607D01*
X130652287Y-98378390D01*
X130634661Y-98354130D01*
X130531968Y-98212783D01*
X130387213Y-98068028D01*
X130221614Y-97947715D01*
X130215006Y-97944348D01*
X130128917Y-97900483D01*
X130078123Y-97852511D01*
X130061328Y-97784690D01*
X130083865Y-97718555D01*
X130128917Y-97679516D01*
X130221610Y-97632287D01*
X130249081Y-97612328D01*
X130387213Y-97511971D01*
X130387215Y-97511968D01*
X130387219Y-97511966D01*
X130531966Y-97367219D01*
X130531968Y-97367215D01*
X130531971Y-97367213D01*
X130633247Y-97227816D01*
X130652287Y-97201610D01*
X130745220Y-97019219D01*
X130808477Y-96824534D01*
X130840500Y-96622352D01*
X130840500Y-96417648D01*
X130808477Y-96215466D01*
X130804673Y-96203760D01*
X130745218Y-96020776D01*
X130711503Y-95954607D01*
X130652287Y-95838390D01*
X130644556Y-95827749D01*
X130531971Y-95672786D01*
X130387213Y-95528028D01*
X130221614Y-95407715D01*
X130206337Y-95399931D01*
X130128917Y-95360483D01*
X130078123Y-95312511D01*
X130061328Y-95244690D01*
X130083865Y-95178555D01*
X130128917Y-95139516D01*
X130221610Y-95092287D01*
X130327719Y-95015195D01*
X130387213Y-94971971D01*
X130387215Y-94971968D01*
X130387219Y-94971966D01*
X130531966Y-94827219D01*
X130531968Y-94827215D01*
X130531971Y-94827213D01*
X130584732Y-94754590D01*
X130652287Y-94661610D01*
X130745220Y-94479219D01*
X130808477Y-94284534D01*
X130840500Y-94082352D01*
X130840500Y-93877648D01*
X130808477Y-93675466D01*
X130803825Y-93661151D01*
X130803391Y-93645940D01*
X130798074Y-93631683D01*
X130802414Y-93611728D01*
X130801832Y-93591312D01*
X130809920Y-93577225D01*
X130812926Y-93563410D01*
X130834074Y-93535159D01*
X130999506Y-93369728D01*
X130999511Y-93369724D01*
X131009714Y-93359520D01*
X131009716Y-93359520D01*
X131121520Y-93247716D01*
X131187877Y-93132781D01*
X131200577Y-93110785D01*
X131236626Y-92976244D01*
X131237712Y-92972946D01*
X131255643Y-92946930D01*
X131272090Y-92919947D01*
X131275323Y-92918376D01*
X131277363Y-92915417D01*
X131306512Y-92903225D01*
X131334937Y-92889418D01*
X131338506Y-92889844D01*
X131341822Y-92888458D01*
X131372941Y-92893962D01*
X131404312Y-92897713D01*
X131407082Y-92900000D01*
X131410624Y-92900627D01*
X131433832Y-92922086D01*
X131458190Y-92942198D01*
X131459284Y-92945621D01*
X131461924Y-92948062D01*
X131469843Y-92978651D01*
X131479465Y-93008750D01*
X131479500Y-93011701D01*
X131479500Y-93893330D01*
X131479499Y-93893348D01*
X131479499Y-94059054D01*
X131479498Y-94059054D01*
X131506168Y-94158584D01*
X131520423Y-94211785D01*
X131547598Y-94258853D01*
X131549358Y-94261900D01*
X131549359Y-94261904D01*
X131549360Y-94261904D01*
X131590726Y-94333554D01*
X131599479Y-94348714D01*
X131599481Y-94348717D01*
X131718349Y-94467585D01*
X131718355Y-94467590D01*
X135865922Y-98615157D01*
X135899407Y-98676480D01*
X135896173Y-98741155D01*
X135891522Y-98755468D01*
X135859500Y-98957648D01*
X135859500Y-99162351D01*
X135891522Y-99364534D01*
X135954781Y-99559223D01*
X136047715Y-99741613D01*
X136168028Y-99907213D01*
X136312786Y-100051971D01*
X136467749Y-100164556D01*
X136478390Y-100172287D01*
X136569840Y-100218883D01*
X136571080Y-100219515D01*
X136621876Y-100267490D01*
X136638671Y-100335311D01*
X136616134Y-100401446D01*
X136571080Y-100440485D01*
X136478386Y-100487715D01*
X136312786Y-100608028D01*
X136168028Y-100752786D01*
X136047715Y-100918386D01*
X135954781Y-101100776D01*
X135891522Y-101295465D01*
X135859500Y-101497648D01*
X135859500Y-101702351D01*
X135891522Y-101904534D01*
X135954781Y-102099223D01*
X136047715Y-102281613D01*
X136168028Y-102447213D01*
X136312786Y-102591971D01*
X136467749Y-102704556D01*
X136478390Y-102712287D01*
X136559499Y-102753614D01*
X136571080Y-102759515D01*
X136621876Y-102807490D01*
X136638671Y-102875311D01*
X136616134Y-102941446D01*
X136571080Y-102980485D01*
X136478386Y-103027715D01*
X136312786Y-103148028D01*
X136168028Y-103292786D01*
X136047715Y-103458386D01*
X135954781Y-103640776D01*
X135891522Y-103835465D01*
X135859500Y-104037648D01*
X135859500Y-104242351D01*
X135891522Y-104444534D01*
X135954781Y-104639223D01*
X136006385Y-104740500D01*
X136027333Y-104781613D01*
X136047715Y-104821613D01*
X136168028Y-104987213D01*
X136312786Y-105131971D01*
X136423330Y-105212284D01*
X136478390Y-105252287D01*
X136569840Y-105298883D01*
X136571080Y-105299515D01*
X136621876Y-105347490D01*
X136638671Y-105415311D01*
X136616134Y-105481446D01*
X136571080Y-105520485D01*
X136478386Y-105567715D01*
X136312786Y-105688028D01*
X136168028Y-105832786D01*
X136047715Y-105998386D01*
X135954781Y-106180776D01*
X135891522Y-106375465D01*
X135859500Y-106577648D01*
X135859500Y-106782351D01*
X135891522Y-106984534D01*
X135954781Y-107179223D01*
X136047715Y-107361613D01*
X136168028Y-107527213D01*
X136312786Y-107671971D01*
X136467749Y-107784556D01*
X136478390Y-107792287D01*
X136569840Y-107838883D01*
X136571080Y-107839515D01*
X136621876Y-107887490D01*
X136638671Y-107955311D01*
X136616134Y-108021446D01*
X136571080Y-108060485D01*
X136478386Y-108107715D01*
X136312786Y-108228028D01*
X136168028Y-108372786D01*
X136047715Y-108538386D01*
X135954781Y-108720776D01*
X135891522Y-108915465D01*
X135859500Y-109117648D01*
X135859500Y-109322351D01*
X135891522Y-109524534D01*
X135954781Y-109719223D01*
X136047715Y-109901613D01*
X136168028Y-110067213D01*
X136312786Y-110211971D01*
X136450928Y-110312335D01*
X136478390Y-110332287D01*
X136562319Y-110375051D01*
X136660776Y-110425218D01*
X136660778Y-110425218D01*
X136660781Y-110425220D01*
X136765137Y-110459127D01*
X136855465Y-110488477D01*
X136956557Y-110504488D01*
X137057648Y-110520500D01*
X137057649Y-110520500D01*
X137262351Y-110520500D01*
X137262352Y-110520500D01*
X137464534Y-110488477D01*
X137659219Y-110425220D01*
X137841610Y-110332287D01*
X137954726Y-110250104D01*
X138007213Y-110211971D01*
X138007215Y-110211968D01*
X138007219Y-110211966D01*
X138151966Y-110067219D01*
X138151968Y-110067215D01*
X138151971Y-110067213D01*
X138253247Y-109927816D01*
X138272287Y-109901610D01*
X138365220Y-109719219D01*
X138428477Y-109524534D01*
X138460500Y-109322352D01*
X138460500Y-109117648D01*
X138459877Y-109113713D01*
X138428477Y-108915465D01*
X138365218Y-108720776D01*
X138331503Y-108654607D01*
X138272287Y-108538390D01*
X138264556Y-108527749D01*
X138151971Y-108372786D01*
X138007213Y-108228028D01*
X137841614Y-108107715D01*
X137835006Y-108104348D01*
X137748917Y-108060483D01*
X137698123Y-108012511D01*
X137681328Y-107944690D01*
X137703865Y-107878555D01*
X137748917Y-107839516D01*
X137841610Y-107792287D01*
X137862770Y-107776913D01*
X138007213Y-107671971D01*
X138007215Y-107671968D01*
X138007219Y-107671966D01*
X138151966Y-107527219D01*
X138151968Y-107527215D01*
X138151971Y-107527213D01*
X138204732Y-107454590D01*
X138272287Y-107361610D01*
X138365220Y-107179219D01*
X138428477Y-106984534D01*
X138460500Y-106782352D01*
X138460500Y-106577648D01*
X138428477Y-106375466D01*
X138365220Y-106180781D01*
X138365218Y-106180778D01*
X138365218Y-106180776D01*
X138331503Y-106114607D01*
X138272287Y-105998390D01*
X138264556Y-105987749D01*
X138151971Y-105832786D01*
X138007213Y-105688028D01*
X137841614Y-105567715D01*
X137835006Y-105564348D01*
X137748917Y-105520483D01*
X137698123Y-105472511D01*
X137681328Y-105404690D01*
X137703865Y-105338555D01*
X137748917Y-105299516D01*
X137841610Y-105252287D01*
X137896670Y-105212284D01*
X138007213Y-105131971D01*
X138007215Y-105131968D01*
X138007219Y-105131966D01*
X138151966Y-104987219D01*
X138151968Y-104987215D01*
X138151971Y-104987213D01*
X138204732Y-104914590D01*
X138272287Y-104821610D01*
X138365220Y-104639219D01*
X138428477Y-104444534D01*
X138460500Y-104242352D01*
X138460500Y-104037648D01*
X138428477Y-103835466D01*
X138365220Y-103640781D01*
X138365218Y-103640778D01*
X138365218Y-103640776D01*
X138331503Y-103574607D01*
X138272287Y-103458390D01*
X138243222Y-103418385D01*
X138151971Y-103292786D01*
X138007213Y-103148028D01*
X137841614Y-103027715D01*
X137835006Y-103024348D01*
X137748917Y-102980483D01*
X137698123Y-102932511D01*
X137681328Y-102864690D01*
X137703865Y-102798555D01*
X137748917Y-102759516D01*
X137841610Y-102712287D01*
X137862770Y-102696913D01*
X138007213Y-102591971D01*
X138007215Y-102591968D01*
X138007219Y-102591966D01*
X138151966Y-102447219D01*
X138151968Y-102447215D01*
X138151971Y-102447213D01*
X138204732Y-102374590D01*
X138272287Y-102281610D01*
X138365220Y-102099219D01*
X138428477Y-101904534D01*
X138460500Y-101702352D01*
X138460500Y-101497648D01*
X140939500Y-101497648D01*
X140939500Y-101702351D01*
X140971522Y-101904534D01*
X141034781Y-102099223D01*
X141127715Y-102281613D01*
X141248028Y-102447213D01*
X141392786Y-102591971D01*
X141558388Y-102712286D01*
X141611828Y-102739516D01*
X141662623Y-102787490D01*
X141679418Y-102855312D01*
X141656880Y-102921446D01*
X141611828Y-102960484D01*
X141558388Y-102987713D01*
X141392786Y-103108028D01*
X141248028Y-103252786D01*
X141127715Y-103418386D01*
X141034781Y-103600776D01*
X140971522Y-103795465D01*
X140939500Y-103997648D01*
X140939500Y-104202351D01*
X140971522Y-104404534D01*
X141034781Y-104599223D01*
X141086385Y-104700500D01*
X141116796Y-104760185D01*
X141127715Y-104781613D01*
X141248028Y-104947213D01*
X141392786Y-105091971D01*
X141547749Y-105204556D01*
X141558390Y-105212287D01*
X141674607Y-105271503D01*
X141740776Y-105305218D01*
X141740778Y-105305218D01*
X141740781Y-105305220D01*
X141843376Y-105338555D01*
X141935465Y-105368477D01*
X142036557Y-105384488D01*
X142137648Y-105400500D01*
X142137649Y-105400500D01*
X142342351Y-105400500D01*
X142342352Y-105400500D01*
X142544534Y-105368477D01*
X142739219Y-105305220D01*
X142921610Y-105212287D01*
X143014590Y-105144732D01*
X143087213Y-105091971D01*
X143087215Y-105091968D01*
X143087219Y-105091966D01*
X143231966Y-104947219D01*
X143231968Y-104947215D01*
X143231971Y-104947213D01*
X143352284Y-104781614D01*
X143352285Y-104781613D01*
X143352287Y-104781610D01*
X143359117Y-104768204D01*
X143407091Y-104717409D01*
X143469602Y-104700500D01*
X152155335Y-104700500D01*
X152187428Y-104704724D01*
X152320943Y-104740501D01*
X152320945Y-104740501D01*
X152486654Y-104740501D01*
X152486670Y-104740500D01*
X153710398Y-104740500D01*
X153777437Y-104760185D01*
X153820883Y-104808205D01*
X153827715Y-104821614D01*
X153948028Y-104987213D01*
X154092786Y-105131971D01*
X154203330Y-105212284D01*
X154258390Y-105252287D01*
X154351080Y-105299515D01*
X154440776Y-105345218D01*
X154440778Y-105345218D01*
X154440781Y-105345220D01*
X154512359Y-105368477D01*
X154635465Y-105408477D01*
X154654697Y-105411523D01*
X154837648Y-105440500D01*
X154837649Y-105440500D01*
X155042351Y-105440500D01*
X155042352Y-105440500D01*
X155244534Y-105408477D01*
X155439219Y-105345220D01*
X155621610Y-105252287D01*
X155714590Y-105184732D01*
X155787213Y-105131971D01*
X155787215Y-105131968D01*
X155787219Y-105131966D01*
X155931966Y-104987219D01*
X155931968Y-104987215D01*
X155931971Y-104987213D01*
X155984732Y-104914590D01*
X156052287Y-104821610D01*
X156145220Y-104639219D01*
X156208477Y-104444534D01*
X156240500Y-104242352D01*
X156240500Y-104037648D01*
X163799500Y-104037648D01*
X163799500Y-104242351D01*
X163831522Y-104444534D01*
X163894781Y-104639223D01*
X163946385Y-104740500D01*
X163967333Y-104781613D01*
X163987715Y-104821613D01*
X164108028Y-104987213D01*
X164252786Y-105131971D01*
X164363330Y-105212284D01*
X164418390Y-105252287D01*
X164511080Y-105299515D01*
X164600776Y-105345218D01*
X164600778Y-105345218D01*
X164600781Y-105345220D01*
X164672359Y-105368477D01*
X164795465Y-105408477D01*
X164814697Y-105411523D01*
X164997648Y-105440500D01*
X164997649Y-105440500D01*
X165202351Y-105440500D01*
X165202352Y-105440500D01*
X165404534Y-105408477D01*
X165599219Y-105345220D01*
X165781610Y-105252287D01*
X165874590Y-105184732D01*
X165947213Y-105131971D01*
X165947215Y-105131968D01*
X165947219Y-105131966D01*
X166091966Y-104987219D01*
X166091968Y-104987215D01*
X166091971Y-104987213D01*
X166144732Y-104914590D01*
X166212287Y-104821610D01*
X166305220Y-104639219D01*
X166368477Y-104444534D01*
X166400500Y-104242352D01*
X166400500Y-104037648D01*
X166368477Y-103835466D01*
X166305220Y-103640781D01*
X166305218Y-103640778D01*
X166305218Y-103640776D01*
X166271503Y-103574607D01*
X166212287Y-103458390D01*
X166183222Y-103418385D01*
X166091971Y-103292786D01*
X165947213Y-103148028D01*
X165781613Y-103027715D01*
X165781612Y-103027714D01*
X165781610Y-103027713D01*
X165703106Y-102987713D01*
X165599223Y-102934781D01*
X165404534Y-102871522D01*
X165229995Y-102843878D01*
X165202352Y-102839500D01*
X164997648Y-102839500D01*
X164973329Y-102843351D01*
X164795465Y-102871522D01*
X164600776Y-102934781D01*
X164418386Y-103027715D01*
X164252786Y-103148028D01*
X164108028Y-103292786D01*
X163987715Y-103458386D01*
X163894781Y-103640776D01*
X163831522Y-103835465D01*
X163799500Y-104037648D01*
X156240500Y-104037648D01*
X156208477Y-103835466D01*
X156145220Y-103640781D01*
X156145218Y-103640778D01*
X156145218Y-103640776D01*
X156111503Y-103574607D01*
X156052287Y-103458390D01*
X156023222Y-103418385D01*
X155931971Y-103292786D01*
X155787213Y-103148028D01*
X155621613Y-103027715D01*
X155621612Y-103027714D01*
X155621610Y-103027713D01*
X155543106Y-102987713D01*
X155439223Y-102934781D01*
X155244534Y-102871522D01*
X155069995Y-102843878D01*
X155042352Y-102839500D01*
X154837648Y-102839500D01*
X154813329Y-102843351D01*
X154635465Y-102871522D01*
X154440776Y-102934781D01*
X154258386Y-103027715D01*
X154092786Y-103148028D01*
X153948028Y-103292786D01*
X153827715Y-103458385D01*
X153820883Y-103471795D01*
X153772909Y-103522591D01*
X153710398Y-103539500D01*
X152604666Y-103539500D01*
X152572572Y-103535275D01*
X152439057Y-103499499D01*
X152280943Y-103499499D01*
X152273347Y-103499499D01*
X152273331Y-103499500D01*
X143469602Y-103499500D01*
X143402563Y-103479815D01*
X143359117Y-103431795D01*
X143352284Y-103418385D01*
X143231971Y-103252786D01*
X143087213Y-103108028D01*
X142921613Y-102987715D01*
X142921612Y-102987714D01*
X142921610Y-102987713D01*
X142868171Y-102960484D01*
X142817376Y-102912510D01*
X142800581Y-102844689D01*
X142823118Y-102778554D01*
X142868172Y-102739515D01*
X142921610Y-102712287D01*
X143014590Y-102644732D01*
X143087213Y-102591971D01*
X143087215Y-102591968D01*
X143087219Y-102591966D01*
X143231966Y-102447219D01*
X143231968Y-102447215D01*
X143231971Y-102447213D01*
X143284732Y-102374590D01*
X143352287Y-102281610D01*
X143445220Y-102099219D01*
X143508477Y-101904534D01*
X143540500Y-101702352D01*
X143540500Y-101497648D01*
X143508477Y-101295466D01*
X143445220Y-101100781D01*
X143445218Y-101100778D01*
X143445218Y-101100776D01*
X143411503Y-101034607D01*
X143352287Y-100918390D01*
X143344556Y-100907749D01*
X143231971Y-100752786D01*
X143087213Y-100608028D01*
X142921613Y-100487715D01*
X142921612Y-100487714D01*
X142921610Y-100487713D01*
X142864653Y-100458691D01*
X142739223Y-100394781D01*
X142544534Y-100331522D01*
X142347693Y-100300346D01*
X142342352Y-100299500D01*
X142137648Y-100299500D01*
X142132307Y-100300346D01*
X141935465Y-100331522D01*
X141740776Y-100394781D01*
X141558386Y-100487715D01*
X141392786Y-100608028D01*
X141248028Y-100752786D01*
X141127715Y-100918386D01*
X141034781Y-101100776D01*
X140971522Y-101295465D01*
X140939500Y-101497648D01*
X138460500Y-101497648D01*
X138428477Y-101295466D01*
X138365220Y-101100781D01*
X138365218Y-101100778D01*
X138365218Y-101100776D01*
X138331503Y-101034607D01*
X138272287Y-100918390D01*
X138264556Y-100907749D01*
X138151971Y-100752786D01*
X138007213Y-100608028D01*
X137841614Y-100487715D01*
X137835006Y-100484348D01*
X137748917Y-100440483D01*
X137698123Y-100392511D01*
X137681328Y-100324690D01*
X137703865Y-100258555D01*
X137748917Y-100219516D01*
X137841610Y-100172287D01*
X137862770Y-100156913D01*
X138007213Y-100051971D01*
X138007215Y-100051968D01*
X138007219Y-100051966D01*
X138151966Y-99907219D01*
X138151968Y-99907215D01*
X138151971Y-99907213D01*
X138204732Y-99834590D01*
X138272287Y-99741610D01*
X138365220Y-99559219D01*
X138428477Y-99364534D01*
X138460500Y-99162352D01*
X138460500Y-98957648D01*
X146019500Y-98957648D01*
X146019500Y-99162351D01*
X146051522Y-99364534D01*
X146114781Y-99559223D01*
X146207715Y-99741613D01*
X146328028Y-99907213D01*
X146472786Y-100051971D01*
X146627749Y-100164556D01*
X146638390Y-100172287D01*
X146731080Y-100219515D01*
X146820776Y-100265218D01*
X146820778Y-100265218D01*
X146820781Y-100265220D01*
X146925137Y-100299127D01*
X147015465Y-100328477D01*
X147034697Y-100331523D01*
X147217648Y-100360500D01*
X147217649Y-100360500D01*
X147422351Y-100360500D01*
X147422352Y-100360500D01*
X147624534Y-100328477D01*
X147819219Y-100265220D01*
X148001610Y-100172287D01*
X148094590Y-100104732D01*
X148167213Y-100051971D01*
X148167215Y-100051968D01*
X148167219Y-100051966D01*
X148311966Y-99907219D01*
X148311968Y-99907215D01*
X148311971Y-99907213D01*
X148364732Y-99834590D01*
X148432287Y-99741610D01*
X148525220Y-99559219D01*
X148588477Y-99364534D01*
X148620500Y-99162352D01*
X148620500Y-98957648D01*
X148588477Y-98755466D01*
X148525220Y-98560781D01*
X148525218Y-98560778D01*
X148525218Y-98560776D01*
X148491503Y-98494607D01*
X148432287Y-98378390D01*
X148414661Y-98354130D01*
X148311968Y-98212783D01*
X148167213Y-98068028D01*
X148001613Y-97947715D01*
X148001612Y-97947714D01*
X148001610Y-97947713D01*
X147944653Y-97918691D01*
X147819223Y-97854781D01*
X147624534Y-97791522D01*
X147449995Y-97763878D01*
X147422352Y-97759500D01*
X147217648Y-97759500D01*
X147193329Y-97763351D01*
X147015465Y-97791522D01*
X146820776Y-97854781D01*
X146638386Y-97947715D01*
X146472786Y-98068028D01*
X146472782Y-98068032D01*
X146328034Y-98212781D01*
X146328032Y-98212783D01*
X146207715Y-98378386D01*
X146114781Y-98560776D01*
X146051522Y-98755465D01*
X146019500Y-98957648D01*
X138460500Y-98957648D01*
X138428477Y-98755466D01*
X138365220Y-98560781D01*
X138365218Y-98560778D01*
X138365218Y-98560776D01*
X138331503Y-98494607D01*
X138272287Y-98378390D01*
X138254661Y-98354130D01*
X138151968Y-98212783D01*
X138007213Y-98068028D01*
X137841614Y-97947715D01*
X137835006Y-97944348D01*
X137748917Y-97900483D01*
X137698123Y-97852511D01*
X137681328Y-97784690D01*
X137703865Y-97718555D01*
X137748917Y-97679516D01*
X137841610Y-97632287D01*
X137869081Y-97612328D01*
X138007213Y-97511971D01*
X138007215Y-97511968D01*
X138007219Y-97511966D01*
X138151966Y-97367219D01*
X138151968Y-97367215D01*
X138151971Y-97367213D01*
X138253247Y-97227816D01*
X138272287Y-97201610D01*
X138365220Y-97019219D01*
X138428477Y-96824534D01*
X138460500Y-96622352D01*
X138460500Y-96417648D01*
X138428477Y-96215466D01*
X138424673Y-96203760D01*
X138365218Y-96020776D01*
X138331503Y-95954607D01*
X138272287Y-95838390D01*
X138264556Y-95827749D01*
X138151971Y-95672786D01*
X138007213Y-95528028D01*
X137841614Y-95407715D01*
X137826337Y-95399931D01*
X137748917Y-95360483D01*
X137698123Y-95312511D01*
X137681328Y-95244690D01*
X137703865Y-95178555D01*
X137748917Y-95139516D01*
X137841610Y-95092287D01*
X137947719Y-95015195D01*
X138007213Y-94971971D01*
X138007215Y-94971968D01*
X138007219Y-94971966D01*
X138151966Y-94827219D01*
X138151968Y-94827215D01*
X138151971Y-94827213D01*
X138204732Y-94754590D01*
X138272287Y-94661610D01*
X138365220Y-94479219D01*
X138428477Y-94284534D01*
X138460500Y-94082352D01*
X138460500Y-93877648D01*
X138439999Y-93748209D01*
X138428477Y-93675465D01*
X138392068Y-93563410D01*
X138365220Y-93480781D01*
X138365218Y-93480778D01*
X138365218Y-93480776D01*
X138331503Y-93414607D01*
X138272287Y-93298390D01*
X138235471Y-93247717D01*
X138151969Y-93132784D01*
X138007213Y-92988028D01*
X137841611Y-92867713D01*
X137748369Y-92820203D01*
X137697574Y-92772229D01*
X137680779Y-92704407D01*
X137703317Y-92638273D01*
X137748371Y-92599234D01*
X137841346Y-92551861D01*
X137841347Y-92551861D01*
X137885921Y-92519474D01*
X137206447Y-91840000D01*
X137212661Y-91840000D01*
X137314394Y-91812741D01*
X137405606Y-91760080D01*
X137480080Y-91685606D01*
X137532741Y-91594394D01*
X137560000Y-91492661D01*
X137560000Y-91486448D01*
X138239474Y-92165922D01*
X138239474Y-92165921D01*
X138271859Y-92121349D01*
X138364755Y-91939031D01*
X138427990Y-91744417D01*
X138460000Y-91542317D01*
X138460000Y-91337682D01*
X138459995Y-91337648D01*
X146019500Y-91337648D01*
X146019500Y-91542351D01*
X146051522Y-91744534D01*
X146114781Y-91939223D01*
X146166140Y-92040018D01*
X146207585Y-92121359D01*
X146207715Y-92121613D01*
X146328028Y-92287213D01*
X146472786Y-92431971D01*
X146593226Y-92519474D01*
X146638390Y-92552287D01*
X146730529Y-92599234D01*
X146820776Y-92645218D01*
X146820778Y-92645218D01*
X146820781Y-92645220D01*
X146911856Y-92674812D01*
X147015465Y-92708477D01*
X147064668Y-92716270D01*
X147217648Y-92740500D01*
X147217649Y-92740500D01*
X147422351Y-92740500D01*
X147422352Y-92740500D01*
X147624534Y-92708477D01*
X147819219Y-92645220D01*
X148001610Y-92552287D01*
X148130482Y-92458657D01*
X148167213Y-92431971D01*
X148167215Y-92431968D01*
X148167219Y-92431966D01*
X148311966Y-92287219D01*
X148311968Y-92287215D01*
X148311971Y-92287213D01*
X148364732Y-92214590D01*
X148432287Y-92121610D01*
X148525220Y-91939219D01*
X148588477Y-91744534D01*
X148620500Y-91542352D01*
X148620500Y-91337648D01*
X148616160Y-91310245D01*
X148588477Y-91135465D01*
X148531296Y-90959481D01*
X148525220Y-90940781D01*
X148525218Y-90940778D01*
X148525218Y-90940776D01*
X148491503Y-90874607D01*
X148432287Y-90758390D01*
X148400092Y-90714077D01*
X148311971Y-90592786D01*
X148167213Y-90448028D01*
X148001613Y-90327715D01*
X148001612Y-90327714D01*
X148001610Y-90327713D01*
X147941898Y-90297288D01*
X147819223Y-90234781D01*
X147624534Y-90171522D01*
X147449995Y-90143878D01*
X147422352Y-90139500D01*
X147217648Y-90139500D01*
X147193329Y-90143351D01*
X147015465Y-90171522D01*
X146820776Y-90234781D01*
X146638386Y-90327715D01*
X146472786Y-90448028D01*
X146328028Y-90592786D01*
X146207715Y-90758386D01*
X146114781Y-90940776D01*
X146051522Y-91135465D01*
X146019500Y-91337648D01*
X138459995Y-91337648D01*
X138427990Y-91135582D01*
X138364755Y-90940968D01*
X138271859Y-90758650D01*
X138239474Y-90714077D01*
X138239474Y-90714076D01*
X137560000Y-91393551D01*
X137560000Y-91387339D01*
X137532741Y-91285606D01*
X137480080Y-91194394D01*
X137405606Y-91119920D01*
X137314394Y-91067259D01*
X137212661Y-91040000D01*
X137206446Y-91040000D01*
X137885922Y-90360524D01*
X137885921Y-90360523D01*
X137841359Y-90328147D01*
X137841350Y-90328141D01*
X137659031Y-90235244D01*
X137464417Y-90172009D01*
X137262317Y-90140000D01*
X137057683Y-90140000D01*
X136855582Y-90172009D01*
X136660968Y-90235244D01*
X136478644Y-90328143D01*
X136434077Y-90360523D01*
X136434077Y-90360524D01*
X137113554Y-91040000D01*
X137107339Y-91040000D01*
X137005606Y-91067259D01*
X136914394Y-91119920D01*
X136839920Y-91194394D01*
X136787259Y-91285606D01*
X136760000Y-91387339D01*
X136760000Y-91393553D01*
X136080524Y-90714077D01*
X136080523Y-90714077D01*
X136048143Y-90758644D01*
X135955244Y-90940968D01*
X135892009Y-91135582D01*
X135860000Y-91337682D01*
X135860000Y-91542317D01*
X135892009Y-91744417D01*
X135955244Y-91939031D01*
X136048141Y-92121350D01*
X136048147Y-92121359D01*
X136080523Y-92165921D01*
X136080524Y-92165922D01*
X136760000Y-91486446D01*
X136760000Y-91492661D01*
X136787259Y-91594394D01*
X136839920Y-91685606D01*
X136914394Y-91760080D01*
X137005606Y-91812741D01*
X137107339Y-91840000D01*
X137113553Y-91840000D01*
X136434076Y-92519474D01*
X136478652Y-92551861D01*
X136571628Y-92599234D01*
X136622425Y-92647208D01*
X136639220Y-92715029D01*
X136616683Y-92781164D01*
X136571630Y-92820203D01*
X136478388Y-92867713D01*
X136312786Y-92988028D01*
X136312782Y-92988032D01*
X136168034Y-93132781D01*
X136168031Y-93132784D01*
X136047715Y-93298386D01*
X135954781Y-93480776D01*
X135891522Y-93675465D01*
X135862292Y-93860018D01*
X135859500Y-93877648D01*
X135859500Y-94082352D01*
X135862704Y-94102580D01*
X135891522Y-94284534D01*
X135954781Y-94479223D01*
X136047715Y-94661613D01*
X136168028Y-94827213D01*
X136312786Y-94971971D01*
X136448437Y-95070525D01*
X136478390Y-95092287D01*
X136523974Y-95115513D01*
X136571080Y-95139515D01*
X136621876Y-95187490D01*
X136638671Y-95255311D01*
X136616134Y-95321446D01*
X136571080Y-95360485D01*
X136478386Y-95407715D01*
X136312786Y-95528028D01*
X136168028Y-95672786D01*
X136047715Y-95838386D01*
X135954781Y-96020776D01*
X135891522Y-96215465D01*
X135859500Y-96417648D01*
X135859500Y-96610903D01*
X135839815Y-96677942D01*
X135787011Y-96723697D01*
X135717853Y-96733641D01*
X135654297Y-96704616D01*
X135647819Y-96698584D01*
X132716819Y-93767584D01*
X132683334Y-93706261D01*
X132680500Y-93679903D01*
X132680500Y-91740096D01*
X132700185Y-91673057D01*
X132716814Y-91652420D01*
X139255158Y-85114075D01*
X139316479Y-85080592D01*
X139381151Y-85083825D01*
X139395466Y-85088477D01*
X139395471Y-85088477D01*
X139395472Y-85088478D01*
X139423555Y-85092926D01*
X139597648Y-85120500D01*
X139597649Y-85120500D01*
X139802351Y-85120500D01*
X139802352Y-85120500D01*
X140004534Y-85088477D01*
X140199219Y-85025220D01*
X140381610Y-84932287D01*
X140510036Y-84838981D01*
X140547213Y-84811971D01*
X140547215Y-84811968D01*
X140547219Y-84811966D01*
X140691966Y-84667219D01*
X140691968Y-84667215D01*
X140691971Y-84667213D01*
X140775470Y-84552284D01*
X140812287Y-84501610D01*
X140905220Y-84319219D01*
X140968477Y-84124534D01*
X141000500Y-83922352D01*
X141000500Y-83723945D01*
X151179500Y-83723945D01*
X151179500Y-83916055D01*
X151194526Y-84010928D01*
X151209553Y-84105802D01*
X151268916Y-84288506D01*
X151356135Y-84459681D01*
X151469055Y-84615102D01*
X151604898Y-84750945D01*
X151760319Y-84863865D01*
X151840872Y-84904909D01*
X151931493Y-84951083D01*
X152022845Y-84980764D01*
X152114199Y-85010447D01*
X152303945Y-85040500D01*
X152303946Y-85040500D01*
X152496054Y-85040500D01*
X152496055Y-85040500D01*
X152685801Y-85010447D01*
X152868509Y-84951082D01*
X153039681Y-84863865D01*
X153195102Y-84750945D01*
X153330945Y-84615102D01*
X153443865Y-84459681D01*
X153531082Y-84288509D01*
X153538772Y-84264842D01*
X153552069Y-84223919D01*
X153591506Y-84166243D01*
X153655864Y-84139044D01*
X153724711Y-84150958D01*
X153776187Y-84198202D01*
X153787931Y-84223919D01*
X153808915Y-84288504D01*
X153896135Y-84459681D01*
X154009055Y-84615102D01*
X154144898Y-84750945D01*
X154300319Y-84863865D01*
X154380872Y-84904909D01*
X154471493Y-84951083D01*
X154562845Y-84980764D01*
X154654199Y-85010447D01*
X154843945Y-85040500D01*
X154843946Y-85040500D01*
X155036054Y-85040500D01*
X155036055Y-85040500D01*
X155225801Y-85010447D01*
X155408509Y-84951082D01*
X155579681Y-84863865D01*
X155581611Y-84862462D01*
X155582472Y-84862155D01*
X155583837Y-84861319D01*
X155584012Y-84861605D01*
X155593470Y-84858230D01*
X155602985Y-84849986D01*
X155625749Y-84846712D01*
X155647416Y-84838981D01*
X155659681Y-84841832D01*
X155672143Y-84840041D01*
X155693066Y-84849595D01*
X155715470Y-84854805D01*
X155724244Y-84863832D01*
X155735700Y-84869064D01*
X155748136Y-84888415D01*
X155764167Y-84904909D01*
X155767571Y-84918656D01*
X155773475Y-84927842D01*
X155778497Y-84962771D01*
X155778499Y-84962776D01*
X155778499Y-85000057D01*
X155778499Y-85000059D01*
X155778500Y-85010053D01*
X155778500Y-97872330D01*
X155778499Y-97872348D01*
X155778499Y-98038054D01*
X155778498Y-98038054D01*
X155778499Y-98038057D01*
X155819423Y-98190785D01*
X155832123Y-98212781D01*
X155876361Y-98289404D01*
X155898479Y-98327715D01*
X156017349Y-98446585D01*
X156017355Y-98446590D01*
X156185922Y-98615157D01*
X156219407Y-98676480D01*
X156216173Y-98741155D01*
X156211522Y-98755468D01*
X156179500Y-98957648D01*
X156179500Y-99162351D01*
X156211522Y-99364534D01*
X156274781Y-99559223D01*
X156367715Y-99741613D01*
X156488028Y-99907213D01*
X156632786Y-100051971D01*
X156787749Y-100164556D01*
X156798390Y-100172287D01*
X156891080Y-100219515D01*
X156980776Y-100265218D01*
X156980778Y-100265218D01*
X156980781Y-100265220D01*
X157085137Y-100299127D01*
X157175465Y-100328477D01*
X157194697Y-100331523D01*
X157377648Y-100360500D01*
X157377649Y-100360500D01*
X157582351Y-100360500D01*
X157582352Y-100360500D01*
X157784534Y-100328477D01*
X157979219Y-100265220D01*
X158161610Y-100172287D01*
X158254590Y-100104732D01*
X158327213Y-100051971D01*
X158327215Y-100051968D01*
X158327219Y-100051966D01*
X158471966Y-99907219D01*
X158471968Y-99907215D01*
X158471971Y-99907213D01*
X158524732Y-99834590D01*
X158592287Y-99741610D01*
X158685220Y-99559219D01*
X158748477Y-99364534D01*
X158780500Y-99162352D01*
X158780500Y-98957648D01*
X158748477Y-98755466D01*
X158685220Y-98560781D01*
X158685218Y-98560778D01*
X158685218Y-98560776D01*
X158651503Y-98494607D01*
X158592287Y-98378390D01*
X158574661Y-98354130D01*
X158471968Y-98212783D01*
X158327213Y-98068028D01*
X158161613Y-97947715D01*
X158161612Y-97947714D01*
X158161610Y-97947713D01*
X158104653Y-97918691D01*
X157979223Y-97854781D01*
X157784534Y-97791522D01*
X157609995Y-97763878D01*
X157582352Y-97759500D01*
X157377648Y-97759500D01*
X157339599Y-97765526D01*
X157175468Y-97791522D01*
X157166717Y-97794365D01*
X157161154Y-97796173D01*
X157145941Y-97796607D01*
X157131684Y-97801925D01*
X157111729Y-97797584D01*
X157091313Y-97798167D01*
X157077226Y-97790078D01*
X157063411Y-97787073D01*
X157035157Y-97765922D01*
X157015819Y-97746584D01*
X156982334Y-97685261D01*
X156979500Y-97658903D01*
X156979500Y-95622135D01*
X163749500Y-95622135D01*
X163749500Y-97417870D01*
X163749501Y-97417876D01*
X163755908Y-97477483D01*
X163806202Y-97612328D01*
X163806206Y-97612335D01*
X163892452Y-97727544D01*
X163892455Y-97727547D01*
X164007664Y-97813793D01*
X164007671Y-97813797D01*
X164142517Y-97864091D01*
X164142516Y-97864091D01*
X164149444Y-97864835D01*
X164202127Y-97870500D01*
X165997872Y-97870499D01*
X166057483Y-97864091D01*
X166192331Y-97813796D01*
X166307546Y-97727546D01*
X166393796Y-97612331D01*
X166442810Y-97480916D01*
X166484681Y-97424984D01*
X166550145Y-97400566D01*
X166618418Y-97415417D01*
X166646673Y-97436569D01*
X166760213Y-97550109D01*
X166932179Y-97675048D01*
X166932181Y-97675049D01*
X166932184Y-97675051D01*
X167121588Y-97771557D01*
X167323757Y-97837246D01*
X167533713Y-97870500D01*
X167533714Y-97870500D01*
X167746286Y-97870500D01*
X167746287Y-97870500D01*
X167956243Y-97837246D01*
X168158412Y-97771557D01*
X168347816Y-97675051D01*
X168434138Y-97612335D01*
X168519786Y-97550109D01*
X168519788Y-97550106D01*
X168519792Y-97550104D01*
X168670104Y-97399792D01*
X168670106Y-97399788D01*
X168670109Y-97399786D01*
X168795048Y-97227820D01*
X168795047Y-97227820D01*
X168795051Y-97227816D01*
X168891557Y-97038412D01*
X168957246Y-96836243D01*
X168990500Y-96626287D01*
X168990500Y-96413713D01*
X168957246Y-96203757D01*
X168891557Y-96001588D01*
X168795051Y-95812184D01*
X168795049Y-95812181D01*
X168795048Y-95812179D01*
X168670109Y-95640213D01*
X168519786Y-95489890D01*
X168347820Y-95364951D01*
X168158414Y-95268444D01*
X168158413Y-95268443D01*
X168158412Y-95268443D01*
X167956243Y-95202754D01*
X167956241Y-95202753D01*
X167956240Y-95202753D01*
X167794957Y-95177208D01*
X167746287Y-95169500D01*
X167533713Y-95169500D01*
X167485042Y-95177208D01*
X167323760Y-95202753D01*
X167121585Y-95268444D01*
X166932179Y-95364951D01*
X166760215Y-95489889D01*
X166646673Y-95603431D01*
X166585350Y-95636915D01*
X166515658Y-95631931D01*
X166459725Y-95590059D01*
X166442810Y-95559082D01*
X166393797Y-95427671D01*
X166393793Y-95427664D01*
X166307547Y-95312455D01*
X166307544Y-95312452D01*
X166192335Y-95226206D01*
X166192328Y-95226202D01*
X166057482Y-95175908D01*
X166057483Y-95175908D01*
X165997883Y-95169501D01*
X165997881Y-95169500D01*
X165997873Y-95169500D01*
X165997864Y-95169500D01*
X164202129Y-95169500D01*
X164202123Y-95169501D01*
X164142516Y-95175908D01*
X164007671Y-95226202D01*
X164007664Y-95226206D01*
X163892455Y-95312452D01*
X163892452Y-95312455D01*
X163806206Y-95427664D01*
X163806202Y-95427671D01*
X163755908Y-95562517D01*
X163749501Y-95622116D01*
X163749500Y-95622135D01*
X156979500Y-95622135D01*
X156979500Y-92815475D01*
X156999185Y-92748436D01*
X157051989Y-92702681D01*
X157121147Y-92692737D01*
X157141820Y-92697545D01*
X157175458Y-92708475D01*
X157175461Y-92708475D01*
X157175466Y-92708477D01*
X157377648Y-92740500D01*
X157377649Y-92740500D01*
X157582351Y-92740500D01*
X157582352Y-92740500D01*
X157784534Y-92708477D01*
X157979219Y-92645220D01*
X158161610Y-92552287D01*
X158290482Y-92458657D01*
X158327213Y-92431971D01*
X158327215Y-92431968D01*
X158327219Y-92431966D01*
X158471966Y-92287219D01*
X158471968Y-92287215D01*
X158471971Y-92287213D01*
X158524732Y-92214590D01*
X158592287Y-92121610D01*
X158685220Y-91939219D01*
X158748477Y-91744534D01*
X158780500Y-91542352D01*
X158780500Y-91337648D01*
X158776160Y-91310245D01*
X158748477Y-91135465D01*
X158691296Y-90959481D01*
X158685220Y-90940781D01*
X158685218Y-90940778D01*
X158685218Y-90940776D01*
X158651503Y-90874607D01*
X158592287Y-90758390D01*
X158560092Y-90714077D01*
X158471971Y-90592786D01*
X158327213Y-90448028D01*
X158161613Y-90327715D01*
X158161612Y-90327714D01*
X158161610Y-90327713D01*
X158101898Y-90297288D01*
X157979223Y-90234781D01*
X157784534Y-90171522D01*
X157609995Y-90143878D01*
X157582352Y-90139500D01*
X157377648Y-90139500D01*
X157321652Y-90148369D01*
X157175464Y-90171523D01*
X157175457Y-90171524D01*
X157141817Y-90182455D01*
X157071976Y-90184450D01*
X157012144Y-90148369D01*
X156981316Y-90085668D01*
X156979500Y-90064524D01*
X156979500Y-85221096D01*
X156988143Y-85191659D01*
X156994667Y-85161670D01*
X156998422Y-85156652D01*
X156999185Y-85154057D01*
X157015810Y-85133424D01*
X157101691Y-85047543D01*
X157163009Y-85014061D01*
X157208764Y-85012754D01*
X157383945Y-85040500D01*
X157383946Y-85040500D01*
X157576054Y-85040500D01*
X157576055Y-85040500D01*
X157765801Y-85010447D01*
X157948509Y-84951082D01*
X158119681Y-84863865D01*
X158275102Y-84750945D01*
X158410945Y-84615102D01*
X158523865Y-84459681D01*
X158611082Y-84288509D01*
X158670447Y-84105801D01*
X158700500Y-83916055D01*
X158700500Y-83723945D01*
X158680800Y-83599568D01*
X165499500Y-83599568D01*
X165499500Y-83880431D01*
X165530942Y-84159494D01*
X165530945Y-84159512D01*
X165593439Y-84433317D01*
X165593443Y-84433329D01*
X165686200Y-84698411D01*
X165808053Y-84951442D01*
X165808055Y-84951445D01*
X165957477Y-85189248D01*
X166069635Y-85329889D01*
X166127553Y-85402517D01*
X166132584Y-85408825D01*
X166331175Y-85607416D01*
X166550752Y-85782523D01*
X166788555Y-85931945D01*
X167041592Y-86053801D01*
X167240680Y-86123465D01*
X167306670Y-86146556D01*
X167306682Y-86146560D01*
X167580491Y-86209055D01*
X167580497Y-86209055D01*
X167580505Y-86209057D01*
X167766547Y-86230018D01*
X167859569Y-86240499D01*
X167859572Y-86240500D01*
X167859575Y-86240500D01*
X168140428Y-86240500D01*
X168140429Y-86240499D01*
X168283055Y-86224429D01*
X168419494Y-86209057D01*
X168419499Y-86209056D01*
X168419509Y-86209055D01*
X168693318Y-86146560D01*
X168958408Y-86053801D01*
X169211445Y-85931945D01*
X169449248Y-85782523D01*
X169668825Y-85607416D01*
X169867416Y-85408825D01*
X170042523Y-85189248D01*
X170191945Y-84951445D01*
X170313801Y-84698408D01*
X170406560Y-84433318D01*
X170469055Y-84159509D01*
X170470019Y-84150958D01*
X170496485Y-83916055D01*
X170500500Y-83880425D01*
X170500500Y-83599575D01*
X170482723Y-83441797D01*
X170469057Y-83320505D01*
X170469054Y-83320487D01*
X170406560Y-83046682D01*
X170406556Y-83046670D01*
X170380701Y-82972781D01*
X170313801Y-82781592D01*
X170191945Y-82528555D01*
X170042523Y-82290752D01*
X169867416Y-82071175D01*
X169668825Y-81872584D01*
X169449248Y-81697477D01*
X169211445Y-81548055D01*
X169211442Y-81548053D01*
X168958411Y-81426200D01*
X168693329Y-81333443D01*
X168693317Y-81333439D01*
X168419512Y-81270945D01*
X168419494Y-81270942D01*
X168140431Y-81239500D01*
X168140425Y-81239500D01*
X167859575Y-81239500D01*
X167859568Y-81239500D01*
X167580505Y-81270942D01*
X167580487Y-81270945D01*
X167306682Y-81333439D01*
X167306670Y-81333443D01*
X167041588Y-81426200D01*
X166788557Y-81548053D01*
X166550753Y-81697476D01*
X166331175Y-81872583D01*
X166132583Y-82071175D01*
X165957476Y-82290753D01*
X165808053Y-82528557D01*
X165686200Y-82781588D01*
X165593443Y-83046670D01*
X165593439Y-83046682D01*
X165530945Y-83320487D01*
X165530942Y-83320505D01*
X165499500Y-83599568D01*
X158680800Y-83599568D01*
X158670447Y-83534199D01*
X158640424Y-83441797D01*
X158611083Y-83351493D01*
X158595287Y-83320491D01*
X158523865Y-83180319D01*
X158410945Y-83024898D01*
X158275102Y-82889055D01*
X158119681Y-82776135D01*
X158100090Y-82766153D01*
X157948506Y-82688916D01*
X157765802Y-82629553D01*
X157670928Y-82614526D01*
X157576055Y-82599500D01*
X157383945Y-82599500D01*
X157320696Y-82609517D01*
X157194197Y-82629553D01*
X157011493Y-82688916D01*
X156840318Y-82776135D01*
X156768894Y-82828028D01*
X156684898Y-82889055D01*
X156684896Y-82889057D01*
X156684895Y-82889057D01*
X156549057Y-83024895D01*
X156549057Y-83024896D01*
X156549055Y-83024898D01*
X156533237Y-83046670D01*
X156436135Y-83180318D01*
X156348916Y-83351493D01*
X156327931Y-83416081D01*
X156288494Y-83473756D01*
X156224135Y-83500955D01*
X156155289Y-83489041D01*
X156103813Y-83441797D01*
X156092069Y-83416081D01*
X156071083Y-83351493D01*
X156055287Y-83320491D01*
X155983865Y-83180319D01*
X155870945Y-83024898D01*
X155735102Y-82889055D01*
X155579681Y-82776135D01*
X155560090Y-82766153D01*
X155408506Y-82688916D01*
X155225802Y-82629553D01*
X155130928Y-82614526D01*
X155036055Y-82599500D01*
X154843945Y-82599500D01*
X154780696Y-82609517D01*
X154654197Y-82629553D01*
X154471493Y-82688916D01*
X154300318Y-82776135D01*
X154228894Y-82828028D01*
X154144898Y-82889055D01*
X154144896Y-82889057D01*
X154144895Y-82889057D01*
X154009057Y-83024895D01*
X154009057Y-83024896D01*
X154009055Y-83024898D01*
X153993237Y-83046670D01*
X153896135Y-83180318D01*
X153808916Y-83351493D01*
X153787931Y-83416081D01*
X153748494Y-83473756D01*
X153684135Y-83500955D01*
X153615289Y-83489041D01*
X153563813Y-83441797D01*
X153552069Y-83416081D01*
X153531083Y-83351493D01*
X153515287Y-83320491D01*
X153443865Y-83180319D01*
X153330945Y-83024898D01*
X153195102Y-82889055D01*
X153039681Y-82776135D01*
X153020090Y-82766153D01*
X152868506Y-82688916D01*
X152685802Y-82629553D01*
X152590928Y-82614526D01*
X152496055Y-82599500D01*
X152303945Y-82599500D01*
X152240696Y-82609517D01*
X152114197Y-82629553D01*
X151931493Y-82688916D01*
X151760318Y-82776135D01*
X151688894Y-82828028D01*
X151604898Y-82889055D01*
X151604896Y-82889057D01*
X151604895Y-82889057D01*
X151469057Y-83024895D01*
X151469057Y-83024896D01*
X151469055Y-83024898D01*
X151453237Y-83046670D01*
X151356135Y-83180318D01*
X151268916Y-83351493D01*
X151209553Y-83534197D01*
X151199199Y-83599572D01*
X151179500Y-83723945D01*
X141000500Y-83723945D01*
X141000500Y-83717648D01*
X140968477Y-83515466D01*
X140944540Y-83441797D01*
X140905218Y-83320776D01*
X140871503Y-83254607D01*
X140812287Y-83138390D01*
X140745658Y-83046682D01*
X140691971Y-82972786D01*
X140547213Y-82828028D01*
X140381613Y-82707715D01*
X140381612Y-82707714D01*
X140381610Y-82707713D01*
X140324653Y-82678691D01*
X140199223Y-82614781D01*
X140004534Y-82551522D01*
X139829995Y-82523878D01*
X139802352Y-82519500D01*
X139597648Y-82519500D01*
X139573329Y-82523351D01*
X139395465Y-82551522D01*
X139200776Y-82614781D01*
X139018386Y-82707715D01*
X138852786Y-82828028D01*
X138708028Y-82972786D01*
X138587715Y-83138386D01*
X138494781Y-83320776D01*
X138431522Y-83515465D01*
X138399500Y-83717648D01*
X138399500Y-83922351D01*
X138431522Y-84124534D01*
X138436173Y-84138848D01*
X138438165Y-84208690D01*
X138405921Y-84264842D01*
X131711286Y-90959478D01*
X131599481Y-91071282D01*
X131599479Y-91071284D01*
X131590726Y-91086446D01*
X131562425Y-91135466D01*
X131520423Y-91208215D01*
X131485274Y-91339390D01*
X131448909Y-91399049D01*
X131386062Y-91429578D01*
X131316687Y-91421283D01*
X131262809Y-91376798D01*
X131241535Y-91310245D01*
X131241500Y-91307295D01*
X131241500Y-84841945D01*
X131241500Y-84841943D01*
X131200577Y-84689216D01*
X131200577Y-84689215D01*
X131169716Y-84635763D01*
X131159468Y-84618012D01*
X131159468Y-84618011D01*
X131121524Y-84552290D01*
X131121521Y-84552286D01*
X131121520Y-84552284D01*
X131009716Y-84440480D01*
X131009715Y-84440479D01*
X131005385Y-84436149D01*
X131005374Y-84436139D01*
X130834077Y-84264842D01*
X130800592Y-84203519D01*
X130803828Y-84138841D01*
X130808477Y-84124534D01*
X130840500Y-83922352D01*
X130840500Y-83717648D01*
X130808477Y-83515466D01*
X130784540Y-83441797D01*
X130745218Y-83320776D01*
X130711503Y-83254607D01*
X130652287Y-83138390D01*
X130585658Y-83046682D01*
X130531971Y-82972786D01*
X130387213Y-82828028D01*
X130221613Y-82707715D01*
X130221612Y-82707714D01*
X130221610Y-82707713D01*
X130164653Y-82678691D01*
X130039223Y-82614781D01*
X129844534Y-82551522D01*
X129669995Y-82523878D01*
X129642352Y-82519500D01*
X129437648Y-82519500D01*
X129413329Y-82523351D01*
X129235465Y-82551522D01*
X129040776Y-82614781D01*
X128858386Y-82707715D01*
X128692786Y-82828028D01*
X128548028Y-82972786D01*
X128427715Y-83138386D01*
X128334781Y-83320776D01*
X128271522Y-83515465D01*
X128239500Y-83717648D01*
X128239500Y-83922351D01*
X128271522Y-84124534D01*
X128334781Y-84319223D01*
X128427715Y-84501613D01*
X128548028Y-84667213D01*
X128692786Y-84811971D01*
X128820707Y-84904909D01*
X128858390Y-84932287D01*
X128974607Y-84991503D01*
X129040776Y-85025218D01*
X129040778Y-85025218D01*
X129040781Y-85025220D01*
X129145137Y-85059127D01*
X129235465Y-85088477D01*
X129263555Y-85092926D01*
X129437648Y-85120500D01*
X129437649Y-85120500D01*
X129642351Y-85120500D01*
X129642352Y-85120500D01*
X129844534Y-85088477D01*
X129858842Y-85083827D01*
X129874054Y-85083392D01*
X129888315Y-85078074D01*
X129908268Y-85082414D01*
X129928682Y-85081831D01*
X129942769Y-85089920D01*
X129956588Y-85092926D01*
X129984842Y-85114077D01*
X130004181Y-85133416D01*
X130037666Y-85194739D01*
X130040500Y-85221097D01*
X130040500Y-90015500D01*
X130020815Y-90082539D01*
X129968011Y-90128294D01*
X129916500Y-90139500D01*
X128939998Y-90139500D01*
X128939980Y-90139501D01*
X128837203Y-90150000D01*
X128837200Y-90150001D01*
X128670668Y-90205185D01*
X128670663Y-90205187D01*
X128521342Y-90297289D01*
X128397289Y-90421342D01*
X128305187Y-90570663D01*
X128305186Y-90570666D01*
X128250001Y-90737203D01*
X128250001Y-90737204D01*
X128250000Y-90737204D01*
X128239500Y-90839983D01*
X128239500Y-92040001D01*
X128239501Y-92040018D01*
X128250000Y-92142796D01*
X128250001Y-92142799D01*
X128297856Y-92287213D01*
X128305186Y-92309334D01*
X128397288Y-92458656D01*
X128521344Y-92582712D01*
X128670666Y-92674814D01*
X128752570Y-92701954D01*
X128810015Y-92741727D01*
X128836838Y-92806243D01*
X128824523Y-92875018D01*
X128786451Y-92919978D01*
X128692787Y-92988028D01*
X128692782Y-92988032D01*
X128548034Y-93132781D01*
X128548031Y-93132784D01*
X128427715Y-93298386D01*
X128334781Y-93480776D01*
X128271522Y-93675465D01*
X128239500Y-93877648D01*
X128239500Y-94070903D01*
X128219815Y-94137942D01*
X128167011Y-94183697D01*
X128097853Y-94193641D01*
X128034297Y-94164616D01*
X128027819Y-94158584D01*
X125096819Y-91227584D01*
X125063334Y-91166261D01*
X125060500Y-91139903D01*
X125060500Y-87645718D01*
X125080185Y-87578679D01*
X125128207Y-87535233D01*
X125167815Y-87515052D01*
X125167815Y-87515051D01*
X125167816Y-87515051D01*
X125259193Y-87448661D01*
X125339786Y-87390109D01*
X125339788Y-87390106D01*
X125339792Y-87390104D01*
X125490104Y-87239792D01*
X125490106Y-87239788D01*
X125490109Y-87239786D01*
X125615048Y-87067820D01*
X125615047Y-87067820D01*
X125615051Y-87067816D01*
X125711557Y-86878412D01*
X125777246Y-86676243D01*
X125810500Y-86466287D01*
X125810500Y-86253713D01*
X125777246Y-86043757D01*
X125711557Y-85841588D01*
X125615051Y-85652184D01*
X125615049Y-85652181D01*
X125615048Y-85652179D01*
X125490109Y-85480213D01*
X125339786Y-85329890D01*
X125167820Y-85204951D01*
X124978414Y-85108444D01*
X124978413Y-85108443D01*
X124978412Y-85108443D01*
X124776243Y-85042754D01*
X124776241Y-85042753D01*
X124776240Y-85042753D01*
X124614957Y-85017208D01*
X124566287Y-85009500D01*
X124353713Y-85009500D01*
X124305042Y-85017208D01*
X124143760Y-85042753D01*
X123941585Y-85108444D01*
X123752179Y-85204951D01*
X123580215Y-85329889D01*
X123466673Y-85443431D01*
X123405350Y-85476915D01*
X123335658Y-85471931D01*
X123279725Y-85430059D01*
X123262810Y-85399082D01*
X123213797Y-85267671D01*
X123213793Y-85267664D01*
X123127547Y-85152455D01*
X123127544Y-85152452D01*
X123012335Y-85066206D01*
X123012328Y-85066202D01*
X122877482Y-85015908D01*
X122877483Y-85015908D01*
X122817883Y-85009501D01*
X122817881Y-85009500D01*
X122817873Y-85009500D01*
X122817864Y-85009500D01*
X121022129Y-85009500D01*
X121022123Y-85009501D01*
X120962516Y-85015908D01*
X120827671Y-85066202D01*
X120827664Y-85066206D01*
X120712455Y-85152452D01*
X120712452Y-85152455D01*
X120626206Y-85267664D01*
X120626202Y-85267671D01*
X120575908Y-85402517D01*
X120569501Y-85462116D01*
X120569500Y-85462135D01*
X120569500Y-87257870D01*
X120569501Y-87257876D01*
X120575908Y-87317483D01*
X120626202Y-87452328D01*
X120626206Y-87452335D01*
X120712452Y-87567544D01*
X120712455Y-87567547D01*
X120827664Y-87653793D01*
X120827671Y-87653797D01*
X120962517Y-87704091D01*
X120962516Y-87704091D01*
X120969444Y-87704835D01*
X121022127Y-87710500D01*
X122817872Y-87710499D01*
X122877483Y-87704091D01*
X123012331Y-87653796D01*
X123127546Y-87567546D01*
X123213796Y-87452331D01*
X123262810Y-87320916D01*
X123304681Y-87264984D01*
X123370145Y-87240566D01*
X123438418Y-87255417D01*
X123466673Y-87276569D01*
X123580213Y-87390109D01*
X123752184Y-87515051D01*
X123752184Y-87515052D01*
X123791793Y-87535233D01*
X123842590Y-87583206D01*
X123859500Y-87645718D01*
X123859500Y-91353330D01*
X123859499Y-91353348D01*
X123859499Y-91519054D01*
X123859498Y-91519054D01*
X123900423Y-91671785D01*
X123929358Y-91721900D01*
X123929359Y-91721904D01*
X123929360Y-91721904D01*
X123979479Y-91808714D01*
X123979481Y-91808717D01*
X124098349Y-91927585D01*
X124098355Y-91927590D01*
X124731435Y-92560670D01*
X124764920Y-92621993D01*
X124759936Y-92691685D01*
X124718064Y-92747618D01*
X124652600Y-92772035D01*
X124624356Y-92770824D01*
X124556015Y-92760000D01*
X124363985Y-92760000D01*
X124174315Y-92790040D01*
X123991678Y-92849383D01*
X123820578Y-92936564D01*
X123791352Y-92957798D01*
X123791351Y-92957798D01*
X124413554Y-93580000D01*
X124407339Y-93580000D01*
X124305606Y-93607259D01*
X124214394Y-93659920D01*
X124139920Y-93734394D01*
X124087259Y-93825606D01*
X124060000Y-93927339D01*
X124060000Y-93933553D01*
X123437798Y-93311351D01*
X123437798Y-93311352D01*
X123416564Y-93340578D01*
X123329384Y-93511677D01*
X123308194Y-93576893D01*
X123268755Y-93634568D01*
X123204396Y-93661765D01*
X123135550Y-93649850D01*
X123084075Y-93602605D01*
X123072332Y-93576890D01*
X123051084Y-93511495D01*
X123035432Y-93480776D01*
X122963865Y-93340319D01*
X122850945Y-93184898D01*
X122715102Y-93049055D01*
X122559681Y-92936135D01*
X122388506Y-92848916D01*
X122205802Y-92789553D01*
X122095197Y-92772035D01*
X122016055Y-92759500D01*
X121823945Y-92759500D01*
X121812789Y-92761267D01*
X121634197Y-92789553D01*
X121451493Y-92848916D01*
X121280318Y-92936135D01*
X121208894Y-92988028D01*
X121124898Y-93049055D01*
X121124896Y-93049057D01*
X121124895Y-93049057D01*
X120989057Y-93184895D01*
X120989057Y-93184896D01*
X120989055Y-93184898D01*
X120943418Y-93247712D01*
X120876135Y-93340318D01*
X120788916Y-93511493D01*
X120767931Y-93576081D01*
X120728494Y-93633756D01*
X120664135Y-93660955D01*
X120595289Y-93649041D01*
X120543813Y-93601797D01*
X120532069Y-93576081D01*
X120511083Y-93511493D01*
X120495432Y-93480776D01*
X120423865Y-93340319D01*
X120310945Y-93184898D01*
X120175102Y-93049055D01*
X120019681Y-92936135D01*
X119848506Y-92848916D01*
X119665802Y-92789553D01*
X119555197Y-92772035D01*
X119476055Y-92759500D01*
X119283945Y-92759500D01*
X119272789Y-92761267D01*
X119094197Y-92789553D01*
X118911493Y-92848916D01*
X118740318Y-92936135D01*
X118668894Y-92988028D01*
X118584898Y-93049055D01*
X118584896Y-93049057D01*
X118584895Y-93049057D01*
X118449057Y-93184895D01*
X118449057Y-93184896D01*
X118449055Y-93184898D01*
X118403418Y-93247712D01*
X118336135Y-93340318D01*
X118248916Y-93511493D01*
X118189553Y-93694197D01*
X118159500Y-93883945D01*
X118159500Y-94076054D01*
X118187245Y-94251231D01*
X118186544Y-94256651D01*
X118188455Y-94261772D01*
X118182114Y-94290931D01*
X118178290Y-94320525D01*
X118174462Y-94326123D01*
X118173609Y-94330047D01*
X118152461Y-94358303D01*
X118146591Y-94364174D01*
X118085270Y-94397664D01*
X118058902Y-94400500D01*
X113073791Y-94400500D01*
X113006752Y-94380815D01*
X112960997Y-94328011D01*
X112951053Y-94258853D01*
X112951318Y-94257102D01*
X112980000Y-94076014D01*
X112980000Y-93883984D01*
X112949959Y-93694315D01*
X112890616Y-93511678D01*
X112803434Y-93340577D01*
X112782201Y-93311352D01*
X112782200Y-93311351D01*
X112160000Y-93933551D01*
X112160000Y-93927339D01*
X112132741Y-93825606D01*
X112080080Y-93734394D01*
X112005606Y-93659920D01*
X111914394Y-93607259D01*
X111812661Y-93580000D01*
X111806447Y-93580000D01*
X112428646Y-92957798D01*
X112399415Y-92936561D01*
X112228321Y-92849383D01*
X112045684Y-92790040D01*
X111856015Y-92760000D01*
X111663985Y-92760000D01*
X111474315Y-92790040D01*
X111291678Y-92849383D01*
X111120578Y-92936564D01*
X111091352Y-92957798D01*
X111091351Y-92957798D01*
X111713554Y-93580000D01*
X111707339Y-93580000D01*
X111605606Y-93607259D01*
X111514394Y-93659920D01*
X111439920Y-93734394D01*
X111387259Y-93825606D01*
X111360000Y-93927339D01*
X111360000Y-93933553D01*
X110737798Y-93311351D01*
X110737798Y-93311352D01*
X110716564Y-93340578D01*
X110629384Y-93511677D01*
X110608194Y-93576893D01*
X110568755Y-93634568D01*
X110504396Y-93661765D01*
X110435550Y-93649850D01*
X110384075Y-93602605D01*
X110372332Y-93576890D01*
X110351084Y-93511495D01*
X110335432Y-93480776D01*
X110263865Y-93340319D01*
X110150945Y-93184898D01*
X110015102Y-93049055D01*
X109859681Y-92936135D01*
X109688506Y-92848916D01*
X109505802Y-92789553D01*
X109395197Y-92772035D01*
X109316055Y-92759500D01*
X109123945Y-92759500D01*
X109112789Y-92761267D01*
X108934197Y-92789553D01*
X108751493Y-92848916D01*
X108580318Y-92936135D01*
X108508894Y-92988028D01*
X108424898Y-93049055D01*
X108424896Y-93049057D01*
X108424895Y-93049057D01*
X108289057Y-93184895D01*
X108289057Y-93184896D01*
X108289055Y-93184898D01*
X108243418Y-93247712D01*
X108176135Y-93340318D01*
X108088916Y-93511493D01*
X108067931Y-93576081D01*
X108028494Y-93633756D01*
X107964135Y-93660955D01*
X107895289Y-93649041D01*
X107843813Y-93601797D01*
X107832069Y-93576081D01*
X107811083Y-93511493D01*
X107795432Y-93480776D01*
X107723865Y-93340319D01*
X107610945Y-93184898D01*
X107475102Y-93049055D01*
X107319681Y-92936135D01*
X107148506Y-92848916D01*
X106965802Y-92789553D01*
X106855197Y-92772035D01*
X106776055Y-92759500D01*
X106583945Y-92759500D01*
X106572789Y-92761267D01*
X106394197Y-92789553D01*
X106211493Y-92848916D01*
X106040318Y-92936135D01*
X105968894Y-92988028D01*
X105884898Y-93049055D01*
X105884896Y-93049057D01*
X105884895Y-93049057D01*
X105749057Y-93184895D01*
X105749057Y-93184896D01*
X105749055Y-93184898D01*
X105703418Y-93247712D01*
X105636135Y-93340318D01*
X105548916Y-93511493D01*
X105489553Y-93694197D01*
X105460497Y-93877648D01*
X105459500Y-93883945D01*
X102195945Y-93883945D01*
X102189534Y-93860019D01*
X102159577Y-93748216D01*
X102151597Y-93734394D01*
X102080524Y-93611290D01*
X102080521Y-93611286D01*
X102080520Y-93611284D01*
X101968716Y-93499480D01*
X101968715Y-93499479D01*
X101964385Y-93495149D01*
X101964374Y-93495139D01*
X99547590Y-91078355D01*
X99547588Y-91078352D01*
X99428717Y-90959481D01*
X99428716Y-90959480D01*
X99341904Y-90909360D01*
X99341904Y-90909359D01*
X99341900Y-90909358D01*
X99291785Y-90880423D01*
X99139057Y-90839499D01*
X98980943Y-90839499D01*
X98973347Y-90839499D01*
X98973331Y-90839500D01*
X96440940Y-90839500D01*
X96400019Y-90850464D01*
X96400019Y-90850465D01*
X96362751Y-90860451D01*
X96288214Y-90880423D01*
X96288209Y-90880426D01*
X96151290Y-90959475D01*
X96151282Y-90959481D01*
X96039478Y-91071286D01*
X94358310Y-92752453D01*
X94296987Y-92785938D01*
X94251231Y-92787245D01*
X94087211Y-92761267D01*
X94076055Y-92759500D01*
X93883945Y-92759500D01*
X93872789Y-92761267D01*
X93694197Y-92789553D01*
X93511493Y-92848916D01*
X93340318Y-92936135D01*
X93268894Y-92988028D01*
X93184898Y-93049055D01*
X93184896Y-93049057D01*
X93184895Y-93049057D01*
X93049057Y-93184895D01*
X93049057Y-93184896D01*
X93049055Y-93184898D01*
X93003418Y-93247712D01*
X92936135Y-93340318D01*
X92848916Y-93511493D01*
X92789553Y-93694197D01*
X92760497Y-93877648D01*
X92759500Y-93883945D01*
X89400500Y-93883945D01*
X89400500Y-83599568D01*
X91599500Y-83599568D01*
X91599500Y-83880431D01*
X91630942Y-84159494D01*
X91630945Y-84159512D01*
X91693439Y-84433317D01*
X91693443Y-84433329D01*
X91786200Y-84698411D01*
X91908053Y-84951442D01*
X91908055Y-84951445D01*
X92057477Y-85189248D01*
X92169635Y-85329889D01*
X92227553Y-85402517D01*
X92232584Y-85408825D01*
X92431175Y-85607416D01*
X92650752Y-85782523D01*
X92888555Y-85931945D01*
X93141592Y-86053801D01*
X93340680Y-86123465D01*
X93406670Y-86146556D01*
X93406682Y-86146560D01*
X93680491Y-86209055D01*
X93680497Y-86209055D01*
X93680505Y-86209057D01*
X93866547Y-86230018D01*
X93959569Y-86240499D01*
X93959572Y-86240500D01*
X93959575Y-86240500D01*
X94240428Y-86240500D01*
X94240429Y-86240499D01*
X94383055Y-86224429D01*
X94519494Y-86209057D01*
X94519499Y-86209056D01*
X94519509Y-86209055D01*
X94793318Y-86146560D01*
X95058408Y-86053801D01*
X95311445Y-85931945D01*
X95549248Y-85782523D01*
X95768825Y-85607416D01*
X95967416Y-85408825D01*
X96142523Y-85189248D01*
X96291945Y-84951445D01*
X96413801Y-84698408D01*
X96506560Y-84433318D01*
X96569055Y-84159509D01*
X96570019Y-84150958D01*
X96596485Y-83916055D01*
X96600500Y-83880425D01*
X96600500Y-83599575D01*
X96582723Y-83441797D01*
X96569057Y-83320505D01*
X96569054Y-83320487D01*
X96506560Y-83046682D01*
X96506556Y-83046670D01*
X96480701Y-82972781D01*
X96413801Y-82781592D01*
X96291945Y-82528555D01*
X96142523Y-82290752D01*
X95967416Y-82071175D01*
X95768825Y-81872584D01*
X95549248Y-81697477D01*
X95311445Y-81548055D01*
X95311442Y-81548053D01*
X95058411Y-81426200D01*
X94793329Y-81333443D01*
X94793317Y-81333439D01*
X94519512Y-81270945D01*
X94519494Y-81270942D01*
X94240431Y-81239500D01*
X94240425Y-81239500D01*
X93959575Y-81239500D01*
X93959568Y-81239500D01*
X93680505Y-81270942D01*
X93680487Y-81270945D01*
X93406682Y-81333439D01*
X93406670Y-81333443D01*
X93141588Y-81426200D01*
X92888557Y-81548053D01*
X92650753Y-81697476D01*
X92431175Y-81872583D01*
X92232583Y-82071175D01*
X92057476Y-82290753D01*
X91908053Y-82528557D01*
X91786200Y-82781588D01*
X91693443Y-83046670D01*
X91693439Y-83046682D01*
X91630945Y-83320487D01*
X91630942Y-83320505D01*
X91599500Y-83599568D01*
X89400500Y-83599568D01*
X89400500Y-79364500D01*
X89420185Y-79297461D01*
X89472989Y-79251706D01*
X89524500Y-79240500D01*
X172095500Y-79240500D01*
X172162539Y-79260185D01*
G37*
G04 #@! TD.AperFunction*
G04 #@! TD*
M02*
