G04 #@! TF.GenerationSoftware,KiCad,Pcbnew,9.0.7*
G04 #@! TF.CreationDate,2026-02-15T14:06:54+01:00*
G04 #@! TF.ProjectId,XR-2208,58522d32-3230-4382-9e6b-696361645f70,rev?*
G04 #@! TF.SameCoordinates,Original*
G04 #@! TF.FileFunction,Profile,NP*
%FSLAX46Y46*%
G04 Gerber Fmt 4.6, Leading zero omitted, Abs format (unit mm)*
G04 Created by KiCad (PCBNEW 9.0.7) date 2026-02-15 14:06:54*
%MOMM*%
%LPD*%
G01*
G04 APERTURE LIST*
G04 #@! TA.AperFunction,Profile*
%ADD10C,0.050000*%
G04 #@! TD*
G04 APERTURE END LIST*
D10*
X96100000Y-83740000D02*
G75*
G02*
X92100000Y-83740000I-2000000J0D01*
G01*
X92100000Y-83740000D02*
G75*
G02*
X96100000Y-83740000I2000000J0D01*
G01*
X170000000Y-83740000D02*
G75*
G02*
X166000000Y-83740000I-2000000J0D01*
G01*
X166000000Y-83740000D02*
G75*
G02*
X170000000Y-83740000I2000000J0D01*
G01*
X88900000Y-78740000D02*
X172720000Y-78740000D01*
X172720000Y-119380000D01*
X88900000Y-119380000D01*
X88900000Y-78740000D01*
X170000000Y-114660000D02*
G75*
G02*
X166000000Y-114660000I-2000000J0D01*
G01*
X166000000Y-114660000D02*
G75*
G02*
X170000000Y-114660000I2000000J0D01*
G01*
X96100000Y-114660000D02*
G75*
G02*
X92100000Y-114660000I-2000000J0D01*
G01*
X92100000Y-114660000D02*
G75*
G02*
X96100000Y-114660000I2000000J0D01*
G01*
G36*
X172663039Y-78759685D02*
G01*
X172708794Y-78812489D01*
X172720000Y-78864000D01*
X172720000Y-119256000D01*
X172700315Y-119323039D01*
X172647511Y-119368794D01*
X172596000Y-119380000D01*
X89024000Y-119380000D01*
X88956961Y-119360315D01*
X88911206Y-119307511D01*
X88900000Y-119256000D01*
X88900000Y-114517140D01*
X92102548Y-114517140D01*
X92102548Y-114802859D01*
X92143209Y-115085669D01*
X92143211Y-115085679D01*
X92223708Y-115359826D01*
X92342393Y-115619710D01*
X92342402Y-115619726D01*
X92496872Y-115860085D01*
X92496878Y-115860092D01*
X92683978Y-116076019D01*
X92683980Y-116076021D01*
X92899907Y-116263121D01*
X92899914Y-116263127D01*
X93140273Y-116417597D01*
X93140289Y-116417606D01*
X93400173Y-116536291D01*
X93674320Y-116616788D01*
X93674330Y-116616790D01*
X93957140Y-116657451D01*
X93957142Y-116657452D01*
X94242858Y-116657452D01*
X94242859Y-116657451D01*
X94525669Y-116616790D01*
X94525679Y-116616788D01*
X94799826Y-116536291D01*
X95059710Y-116417606D01*
X95059726Y-116417597D01*
X95300085Y-116263127D01*
X95300092Y-116263121D01*
X95516019Y-116076021D01*
X95516021Y-116076019D01*
X95703121Y-115860092D01*
X95703127Y-115860085D01*
X95857597Y-115619726D01*
X95857606Y-115619710D01*
X95976291Y-115359826D01*
X96056788Y-115085679D01*
X96056790Y-115085669D01*
X96097452Y-114802857D01*
X96097452Y-114802854D01*
X96100000Y-114660000D01*
X96097452Y-114517145D01*
X96097452Y-114517142D01*
X96097452Y-114517140D01*
X166002548Y-114517140D01*
X166002548Y-114802859D01*
X166043209Y-115085669D01*
X166043211Y-115085679D01*
X166123708Y-115359826D01*
X166242393Y-115619710D01*
X166242402Y-115619726D01*
X166396872Y-115860085D01*
X166396878Y-115860092D01*
X166583978Y-116076019D01*
X166583980Y-116076021D01*
X166799907Y-116263121D01*
X166799914Y-116263127D01*
X167040273Y-116417597D01*
X167040289Y-116417606D01*
X167300173Y-116536291D01*
X167574320Y-116616788D01*
X167574330Y-116616790D01*
X167857140Y-116657451D01*
X167857142Y-116657452D01*
X168142858Y-116657452D01*
X168142859Y-116657451D01*
X168425669Y-116616790D01*
X168425679Y-116616788D01*
X168699826Y-116536291D01*
X168959710Y-116417606D01*
X168959726Y-116417597D01*
X169200085Y-116263127D01*
X169200092Y-116263121D01*
X169416019Y-116076021D01*
X169416021Y-116076019D01*
X169603121Y-115860092D01*
X169603127Y-115860085D01*
X169757597Y-115619726D01*
X169757606Y-115619710D01*
X169876291Y-115359826D01*
X169956788Y-115085679D01*
X169956790Y-115085669D01*
X169997452Y-114802857D01*
X169997452Y-114802854D01*
X170000000Y-114660000D01*
X169997452Y-114517145D01*
X169997452Y-114517142D01*
X169956790Y-114234330D01*
X169956788Y-114234320D01*
X169876291Y-113960173D01*
X169757606Y-113700289D01*
X169757597Y-113700273D01*
X169603127Y-113459914D01*
X169603121Y-113459907D01*
X169416021Y-113243980D01*
X169416019Y-113243978D01*
X169200092Y-113056878D01*
X169200085Y-113056872D01*
X168959726Y-112902402D01*
X168959710Y-112902393D01*
X168699826Y-112783708D01*
X168425679Y-112703211D01*
X168425669Y-112703209D01*
X168142859Y-112662548D01*
X167857140Y-112662548D01*
X167574330Y-112703209D01*
X167574320Y-112703211D01*
X167300173Y-112783708D01*
X167040289Y-112902393D01*
X167040273Y-112902402D01*
X166799914Y-113056872D01*
X166799907Y-113056878D01*
X166583980Y-113243978D01*
X166583978Y-113243980D01*
X166396878Y-113459907D01*
X166396872Y-113459914D01*
X166242402Y-113700273D01*
X166242393Y-113700289D01*
X166123708Y-113960173D01*
X166043211Y-114234320D01*
X166043209Y-114234330D01*
X166002548Y-114517140D01*
X96097452Y-114517140D01*
X96056790Y-114234330D01*
X96056788Y-114234320D01*
X95976291Y-113960173D01*
X95857606Y-113700289D01*
X95857597Y-113700273D01*
X95703127Y-113459914D01*
X95703121Y-113459907D01*
X95516021Y-113243980D01*
X95516019Y-113243978D01*
X95300092Y-113056878D01*
X95300085Y-113056872D01*
X95059726Y-112902402D01*
X95059710Y-112902393D01*
X94799826Y-112783708D01*
X94525679Y-112703211D01*
X94525669Y-112703209D01*
X94242859Y-112662548D01*
X93957140Y-112662548D01*
X93674330Y-112703209D01*
X93674320Y-112703211D01*
X93400173Y-112783708D01*
X93140289Y-112902393D01*
X93140273Y-112902402D01*
X92899914Y-113056872D01*
X92899907Y-113056878D01*
X92683980Y-113243978D01*
X92683978Y-113243980D01*
X92496878Y-113459907D01*
X92496872Y-113459914D01*
X92342402Y-113700273D01*
X92342393Y-113700289D01*
X92223708Y-113960173D01*
X92143211Y-114234320D01*
X92143209Y-114234330D01*
X92102548Y-114517140D01*
X88900000Y-114517140D01*
X88900000Y-83597140D01*
X92102548Y-83597140D01*
X92102548Y-83882859D01*
X92143209Y-84165669D01*
X92143211Y-84165679D01*
X92223708Y-84439826D01*
X92342393Y-84699710D01*
X92342402Y-84699726D01*
X92496872Y-84940085D01*
X92496878Y-84940092D01*
X92683978Y-85156019D01*
X92683980Y-85156021D01*
X92899907Y-85343121D01*
X92899914Y-85343127D01*
X93140273Y-85497597D01*
X93140289Y-85497606D01*
X93400173Y-85616291D01*
X93674320Y-85696788D01*
X93674330Y-85696790D01*
X93957140Y-85737451D01*
X93957142Y-85737452D01*
X94242858Y-85737452D01*
X94242859Y-85737451D01*
X94525669Y-85696790D01*
X94525679Y-85696788D01*
X94799826Y-85616291D01*
X95059710Y-85497606D01*
X95059726Y-85497597D01*
X95300085Y-85343127D01*
X95300092Y-85343121D01*
X95516019Y-85156021D01*
X95516021Y-85156019D01*
X95703121Y-84940092D01*
X95703127Y-84940085D01*
X95857597Y-84699726D01*
X95857606Y-84699710D01*
X95976291Y-84439826D01*
X96056788Y-84165679D01*
X96056790Y-84165669D01*
X96097452Y-83882857D01*
X96097452Y-83882854D01*
X96100000Y-83740000D01*
X96097452Y-83597145D01*
X96097452Y-83597142D01*
X96097452Y-83597140D01*
X166002548Y-83597140D01*
X166002548Y-83882859D01*
X166043209Y-84165669D01*
X166043211Y-84165679D01*
X166123708Y-84439826D01*
X166242393Y-84699710D01*
X166242402Y-84699726D01*
X166396872Y-84940085D01*
X166396878Y-84940092D01*
X166583978Y-85156019D01*
X166583980Y-85156021D01*
X166799907Y-85343121D01*
X166799914Y-85343127D01*
X167040273Y-85497597D01*
X167040289Y-85497606D01*
X167300173Y-85616291D01*
X167574320Y-85696788D01*
X167574330Y-85696790D01*
X167857140Y-85737451D01*
X167857142Y-85737452D01*
X168142858Y-85737452D01*
X168142859Y-85737451D01*
X168425669Y-85696790D01*
X168425679Y-85696788D01*
X168699826Y-85616291D01*
X168959710Y-85497606D01*
X168959726Y-85497597D01*
X169200085Y-85343127D01*
X169200092Y-85343121D01*
X169416019Y-85156021D01*
X169416021Y-85156019D01*
X169603121Y-84940092D01*
X169603127Y-84940085D01*
X169757597Y-84699726D01*
X169757606Y-84699710D01*
X169876291Y-84439826D01*
X169956788Y-84165679D01*
X169956790Y-84165669D01*
X169997452Y-83882857D01*
X169997452Y-83882854D01*
X170000000Y-83740000D01*
X169997452Y-83597145D01*
X169997452Y-83597142D01*
X169956790Y-83314330D01*
X169956788Y-83314320D01*
X169876291Y-83040173D01*
X169757606Y-82780289D01*
X169757597Y-82780273D01*
X169603127Y-82539914D01*
X169603121Y-82539907D01*
X169416021Y-82323980D01*
X169416019Y-82323978D01*
X169200092Y-82136878D01*
X169200085Y-82136872D01*
X168959726Y-81982402D01*
X168959710Y-81982393D01*
X168699826Y-81863708D01*
X168425679Y-81783211D01*
X168425669Y-81783209D01*
X168142859Y-81742548D01*
X167857140Y-81742548D01*
X167574330Y-81783209D01*
X167574320Y-81783211D01*
X167300173Y-81863708D01*
X167040289Y-81982393D01*
X167040273Y-81982402D01*
X166799914Y-82136872D01*
X166799907Y-82136878D01*
X166583980Y-82323978D01*
X166583978Y-82323980D01*
X166396878Y-82539907D01*
X166396872Y-82539914D01*
X166242402Y-82780273D01*
X166242393Y-82780289D01*
X166123708Y-83040173D01*
X166043211Y-83314320D01*
X166043209Y-83314330D01*
X166002548Y-83597140D01*
X96097452Y-83597140D01*
X96056790Y-83314330D01*
X96056788Y-83314320D01*
X95976291Y-83040173D01*
X95857606Y-82780289D01*
X95857597Y-82780273D01*
X95703127Y-82539914D01*
X95703121Y-82539907D01*
X95516021Y-82323980D01*
X95516019Y-82323978D01*
X95300092Y-82136878D01*
X95300085Y-82136872D01*
X95059726Y-81982402D01*
X95059710Y-81982393D01*
X94799826Y-81863708D01*
X94525679Y-81783211D01*
X94525669Y-81783209D01*
X94242859Y-81742548D01*
X93957140Y-81742548D01*
X93674330Y-81783209D01*
X93674320Y-81783211D01*
X93400173Y-81863708D01*
X93140289Y-81982393D01*
X93140273Y-81982402D01*
X92899914Y-82136872D01*
X92899907Y-82136878D01*
X92683980Y-82323978D01*
X92683978Y-82323980D01*
X92496878Y-82539907D01*
X92496872Y-82539914D01*
X92342402Y-82780273D01*
X92342393Y-82780289D01*
X92223708Y-83040173D01*
X92143211Y-83314320D01*
X92143209Y-83314330D01*
X92102548Y-83597140D01*
X88900000Y-83597140D01*
X88900000Y-78864000D01*
X88919685Y-78796961D01*
X88972489Y-78751206D01*
X89024000Y-78740000D01*
X172596000Y-78740000D01*
X172663039Y-78759685D01*
G37*
M02*
