G04 #@! TF.GenerationSoftware,KiCad,Pcbnew,9.0.7*
G04 #@! TF.CreationDate,2026-02-15T14:06:54+01:00*
G04 #@! TF.ProjectId,XR-2208,58522d32-3230-4382-9e6b-696361645f70,rev?*
G04 #@! TF.SameCoordinates,Original*
G04 #@! TF.FileFunction,Soldermask,Top*
G04 #@! TF.FilePolarity,Negative*
%FSLAX46Y46*%
G04 Gerber Fmt 4.6, Leading zero omitted, Abs format (unit mm)*
G04 Created by KiCad (PCBNEW 9.0.7) date 2026-02-15 14:06:54*
%MOMM*%
%LPD*%
G01*
G04 APERTURE LIST*
G04 Aperture macros list*
%AMRoundRect*
0 Rectangle with rounded corners*
0 $1 Rounding radius*
0 $2 $3 $4 $5 $6 $7 $8 $9 X,Y pos of 4 corners*
0 Add a 4 corners polygon primitive as box body*
4,1,4,$2,$3,$4,$5,$6,$7,$8,$9,$2,$3,0*
0 Add four circle primitives for the rounded corners*
1,1,$1+$1,$2,$3*
1,1,$1+$1,$4,$5*
1,1,$1+$1,$6,$7*
1,1,$1+$1,$8,$9*
0 Add four rect primitives between the rounded corners*
20,1,$1+$1,$2,$3,$4,$5,0*
20,1,$1+$1,$4,$5,$6,$7,0*
20,1,$1+$1,$6,$7,$8,$9,0*
20,1,$1+$1,$8,$9,$2,$3,0*%
G04 Aperture macros list end*
%ADD10C,1.600000*%
%ADD11C,1.440000*%
%ADD12RoundRect,0.250000X-0.550000X-0.550000X0.550000X-0.550000X0.550000X0.550000X-0.550000X0.550000X0*%
%ADD13R,1.700000X1.700000*%
%ADD14C,1.700000*%
G04 APERTURE END LIST*
D10*
G04 #@! TO.C,R4*
X157480000Y-99060000D03*
X147320000Y-99060000D03*
G04 #@! TD*
G04 #@! TO.C,R1*
X104140000Y-109220000D03*
X114300000Y-109220000D03*
G04 #@! TD*
D11*
G04 #@! TO.C,RV2*
X124460000Y-93980000D03*
X121920000Y-93980000D03*
X119380000Y-93980000D03*
G04 #@! TD*
G04 #@! TO.C,RV1*
X99060000Y-93980000D03*
X96520000Y-93980000D03*
X93980000Y-93980000D03*
G04 #@! TD*
D10*
G04 #@! TO.C,RX1*
X129540000Y-114300000D03*
X139700000Y-114300000D03*
G04 #@! TD*
D11*
G04 #@! TO.C,RV3*
X111760000Y-93980000D03*
X109220000Y-93980000D03*
X106680000Y-93980000D03*
G04 #@! TD*
D12*
G04 #@! TO.C,IC1*
X129540000Y-91440000D03*
D10*
X129540000Y-93980000D03*
X129540000Y-96520000D03*
X129540000Y-99060000D03*
X129540000Y-101600000D03*
X129540000Y-104140000D03*
X129540000Y-106680000D03*
X129540000Y-109220000D03*
X137160000Y-109220000D03*
X137160000Y-106680000D03*
X137160000Y-104140000D03*
X137160000Y-101600000D03*
X137160000Y-99060000D03*
X137160000Y-96520000D03*
X137160000Y-93980000D03*
X137160000Y-91440000D03*
G04 #@! TD*
G04 #@! TO.C,RY1*
X124460000Y-109220000D03*
X124460000Y-99060000D03*
G04 #@! TD*
G04 #@! TO.C,Ri1*
X147320000Y-91440000D03*
X157480000Y-91440000D03*
G04 #@! TD*
G04 #@! TO.C,R2*
X109220000Y-101600000D03*
X119380000Y-101600000D03*
G04 #@! TD*
D13*
G04 #@! TO.C,J2*
X96520000Y-109220000D03*
D14*
X99060000Y-109220000D03*
G04 #@! TD*
D10*
G04 #@! TO.C,R5*
X129540000Y-83820000D03*
X139700000Y-83820000D03*
G04 #@! TD*
D13*
G04 #@! TO.C,J1*
X121920000Y-86360000D03*
D14*
X124460000Y-86360000D03*
G04 #@! TD*
D13*
G04 #@! TO.C,J3*
X165100000Y-96520000D03*
D14*
X167640000Y-96520000D03*
G04 #@! TD*
D10*
G04 #@! TO.C,Rf1*
X154940000Y-104140000D03*
X165100000Y-104140000D03*
G04 #@! TD*
G04 #@! TO.C,C1*
X142240000Y-101600000D03*
X142240000Y-104100000D03*
G04 #@! TD*
G04 #@! TO.C,R3*
X104140000Y-101600000D03*
X93980000Y-101600000D03*
G04 #@! TD*
D11*
G04 #@! TO.C,RV4*
X152400000Y-83820000D03*
X154940000Y-83820000D03*
X157480000Y-83820000D03*
G04 #@! TD*
M02*
