M48
; DRILL file {KiCad 9.0.2} date 2025-07-03T21:31:51+0200
; FORMAT={-:-/ absolute / metric / decimal}
; #@! TF.CreationDate,2025-07-03T21:31:51+02:00
; #@! TF.GenerationSoftware,Kicad,Pcbnew,9.0.2
; #@! TF.FileFunction,Plated,1,2,PTH
FMAT,2
METRIC
; #@! TA.AperFunction,Plated,PTH,ViaDrill
T1C0.300
; #@! TA.AperFunction,Plated,PTH,ComponentDrill
T2C0.800
; #@! TA.AperFunction,Plated,PTH,ComponentDrill
T3C1.000
%
G90
G05
T1
X195.2Y-95.2
X203.2Y-79.0
T2
X177.4Y-79.2
X177.4Y-81.74
X177.4Y-84.28
X177.4Y-86.82
X177.4Y-89.36
X177.4Y-91.9
X177.4Y-94.44
X177.4Y-96.98
X179.9Y-74.14
X182.4Y-74.14
X185.02Y-79.2
X185.02Y-81.74
X185.02Y-84.28
X185.02Y-86.82
X185.02Y-89.36
X185.02Y-91.9
X185.02Y-94.44
X185.02Y-96.98
X191.2Y-81.26
X191.2Y-83.8
X191.2Y-86.34
X191.2Y-88.88
X191.2Y-91.42
X191.2Y-93.96
X200.2Y-79.8
X200.2Y-82.34
X200.2Y-84.88
X200.2Y-87.42
X200.2Y-89.96
X200.2Y-92.5
X200.2Y-95.04
X200.2Y-97.58
X202.75Y-74.6
X205.25Y-74.6
X207.82Y-79.8
X207.82Y-82.34
X207.82Y-84.88
X207.82Y-87.42
X207.82Y-89.96
X207.82Y-92.5
X207.82Y-95.04
X207.82Y-97.58
T3
X168.0Y-75.58
X168.0Y-78.12
X168.0Y-80.66
X168.0Y-83.2
X168.0Y-85.74
X168.0Y-88.28
X168.0Y-90.82
X168.0Y-93.36
X168.0Y-95.9
X168.0Y-98.44
X168.0Y-100.98
X170.54Y-75.58
X170.54Y-78.12
X170.54Y-80.66
X170.54Y-83.2
X170.54Y-85.74
X170.54Y-88.28
X170.54Y-90.82
X170.54Y-93.36
X170.54Y-95.9
X170.54Y-98.44
X170.54Y-100.98
X174.86Y-67.2
X177.4Y-67.2
X181.06Y-67.2
X183.6Y-67.2
X187.26Y-67.2
X187.52Y-103.0
X187.52Y-107.59
X189.8Y-67.2
X190.06Y-103.0
X190.06Y-107.59
X192.6Y-103.0
X192.6Y-107.59
X195.14Y-103.0
X195.14Y-107.59
X200.675Y-67.2
X203.215Y-67.2
X207.0Y-67.2
X209.54Y-67.2
X213.6Y-75.04
X213.6Y-77.58
X213.6Y-80.12
X213.6Y-82.66
X213.6Y-85.2
X213.6Y-87.74
X213.6Y-90.28
X213.6Y-92.82
X213.6Y-95.36
X213.6Y-97.9
X213.6Y-100.44
X213.6Y-102.98
X216.14Y-75.04
X216.14Y-77.58
X216.14Y-80.12
X216.14Y-82.66
X216.14Y-85.2
X216.14Y-87.74
X216.14Y-90.28
X216.14Y-92.82
X216.14Y-95.36
X216.14Y-97.9
X216.14Y-100.44
X216.14Y-102.98
M30
