M48
; DRILL file {KiCad 9.0.4} date 2025-09-25T20:50:39+0200
; FORMAT={-:-/ absolute / metric / decimal}
; #@! TF.CreationDate,2025-09-25T20:50:39+02:00
; #@! TF.GenerationSoftware,Kicad,Pcbnew,9.0.4
; #@! TF.FileFunction,Plated,1,2,PTH
FMAT,2
METRIC
; #@! TA.AperFunction,Plated,PTH,ViaDrill
T1C0.300
; #@! TA.AperFunction,Plated,PTH,ComponentDrill
T2C0.700
; #@! TA.AperFunction,Plated,PTH,ComponentDrill
T3C0.800
; #@! TA.AperFunction,Plated,PTH,ComponentDrill
T4C1.000
%
G90
G05
T1
X84.8Y-89.65
X87.672Y-89.057
X93.557Y-88.461
X94.997Y-67.317
X97.669Y-100.885
T2
X80.0Y-67.5
X80.0Y-72.58
X80.0Y-82.5
X80.0Y-87.58
X80.0Y-106.195
X80.0Y-111.275
T3
X84.2Y-104.745
X84.2Y-107.245
X84.8Y-67.4
X84.8Y-69.9
X84.8Y-87.15
X84.8Y-89.65
X88.61Y-102.38
X88.61Y-110.0
X89.1Y-84.4
X89.1Y-92.02
X89.92Y-64.88
X89.92Y-72.5
X91.15Y-102.38
X91.15Y-110.0
X91.64Y-84.4
X91.64Y-92.02
X92.46Y-64.88
X92.46Y-72.5
X93.69Y-102.38
X93.69Y-110.0
X94.18Y-84.4
X94.18Y-92.02
X95.0Y-64.88
X95.0Y-72.5
X96.23Y-102.38
X96.23Y-110.0
X96.72Y-84.4
X96.72Y-92.02
X97.54Y-64.88
X97.54Y-72.5
X98.77Y-102.38
X98.77Y-110.0
X99.26Y-84.4
X99.26Y-92.02
X100.08Y-64.88
X100.08Y-72.5
X101.31Y-102.38
X101.31Y-110.0
X101.8Y-84.4
X101.8Y-92.02
X102.62Y-64.88
X102.62Y-72.5
X103.85Y-102.38
X103.85Y-110.0
X104.34Y-84.4
X104.34Y-92.02
X105.16Y-64.88
X105.16Y-72.5
X106.39Y-102.38
X106.39Y-110.0
X106.88Y-84.4
X106.88Y-92.02
X107.7Y-64.88
X107.7Y-72.5
T4
X72.46Y-116.195
X74.981Y-72.492
X74.981Y-75.032
X74.981Y-77.572
X74.981Y-80.112
X75.0Y-67.5
X75.0Y-85.0
X75.0Y-92.5
X75.0Y-106.195
X75.0Y-116.195
X75.17Y-102.5
X77.71Y-102.5
X79.92Y-77.5
X79.96Y-116.195
X80.0Y-92.5
X80.25Y-102.5
X82.46Y-77.5
X82.5Y-116.195
X85.0Y-77.5
X85.0Y-111.195
X87.42Y-94.96
X87.42Y-97.5
X88.66Y-116.155
X88.66Y-118.695
X89.96Y-77.46
X89.96Y-80.0
X89.96Y-94.96
X89.96Y-97.5
X91.2Y-116.155
X91.2Y-118.695
X92.5Y-77.46
X92.5Y-80.0
X92.5Y-94.96
X92.5Y-97.5
X93.74Y-116.155
X93.74Y-118.695
X95.04Y-94.96
X95.04Y-97.5
X96.28Y-116.155
X96.28Y-118.695
X97.46Y-77.46
X97.46Y-80.0
X98.82Y-116.155
X98.82Y-118.695
X100.0Y-77.46
X100.0Y-80.0
X100.0Y-95.0
X100.0Y-97.54
X101.36Y-116.155
X101.36Y-118.695
X102.54Y-95.0
X102.54Y-97.54
X103.9Y-116.155
X103.9Y-118.695
X104.96Y-77.5
X104.96Y-80.04
X105.08Y-95.0
X105.08Y-97.54
X106.44Y-116.155
X106.44Y-118.695
X107.5Y-77.5
X107.5Y-80.04
X107.62Y-95.0
X107.62Y-97.54
X112.46Y-87.46
X112.46Y-90.0
X112.5Y-65.0
X112.5Y-67.54
X112.5Y-70.08
X112.5Y-74.96
X112.5Y-77.5
X112.5Y-80.04
X112.5Y-82.58
X112.5Y-94.96
X112.5Y-97.5
X112.5Y-100.04
X112.5Y-102.58
X112.5Y-111.115
X112.5Y-113.655
X112.5Y-116.195
X112.5Y-118.735
M30
