%TF.GenerationSoftware,KiCad,Pcbnew,9.0.4*%
%TF.CreationDate,2025-09-25T20:50:39+02:00*%
%TF.ProjectId,switchboard,73776974-6368-4626-9f61-72642e6b6963,rev?*%
%TF.SameCoordinates,Original*%
%TF.FileFunction,Drillmap*%
%TF.FilePolarity,Positive*%
%FSLAX45Y45*%
G04 Gerber Fmt 4.5, Leading zero omitted, Abs format (unit mm)*
G04 Created by KiCad (PCBNEW 9.0.4) date 2025-09-25 20:50:39*
%MOMM*%
%LPD*%
G01*
G04 APERTURE LIST*
%ADD10C,0.050000*%
%ADD11C,0.200000*%
%ADD12C,0.100000*%
G04 APERTURE END LIST*
D10*
X6750000Y-6000000D02*
X11750000Y-6000000D01*
X11750000Y-12250000D01*
X6750000Y-12250000D01*
X6750000Y-6000000D01*
D11*
D12*
X8465000Y-8950000D02*
X8495000Y-8980000D01*
X8495000Y-8950000D02*
X8465000Y-8980000D01*
X8752190Y-8890750D02*
X8782190Y-8920750D01*
X8782190Y-8890750D02*
X8752190Y-8920750D01*
X9340670Y-8831110D02*
X9370670Y-8861110D01*
X9370670Y-8831110D02*
X9340670Y-8861110D01*
X9484690Y-6716720D02*
X9514690Y-6746720D01*
X9514690Y-6716720D02*
X9484690Y-6746720D01*
X9751940Y-10073480D02*
X9781940Y-10103480D01*
X9781940Y-10073480D02*
X9751940Y-10103480D01*
X8035000Y-6750000D02*
G75*
G02*
X7965000Y-6750000I-35000J0D01*
G01*
X7965000Y-6750000D02*
G75*
G02*
X8035000Y-6750000I35000J0D01*
G01*
X8035000Y-7258000D02*
G75*
G02*
X7965000Y-7258000I-35000J0D01*
G01*
X7965000Y-7258000D02*
G75*
G02*
X8035000Y-7258000I35000J0D01*
G01*
X8035000Y-8250000D02*
G75*
G02*
X7965000Y-8250000I-35000J0D01*
G01*
X7965000Y-8250000D02*
G75*
G02*
X8035000Y-8250000I35000J0D01*
G01*
X8035000Y-8758000D02*
G75*
G02*
X7965000Y-8758000I-35000J0D01*
G01*
X7965000Y-8758000D02*
G75*
G02*
X8035000Y-8758000I35000J0D01*
G01*
X8035000Y-10619500D02*
G75*
G02*
X7965000Y-10619500I-35000J0D01*
G01*
X7965000Y-10619500D02*
G75*
G02*
X8035000Y-10619500I35000J0D01*
G01*
X8035000Y-11127500D02*
G75*
G02*
X7965000Y-11127500I-35000J0D01*
G01*
X7965000Y-11127500D02*
G75*
G02*
X8035000Y-11127500I35000J0D01*
G01*
X8420000Y-10434500D02*
X8420000Y-10514500D01*
X8380000Y-10474500D02*
X8460000Y-10474500D01*
X8420000Y-10684500D02*
X8420000Y-10764500D01*
X8380000Y-10724500D02*
X8460000Y-10724500D01*
X8480000Y-6700000D02*
X8480000Y-6780000D01*
X8440000Y-6740000D02*
X8520000Y-6740000D01*
X8480000Y-6950000D02*
X8480000Y-7030000D01*
X8440000Y-6990000D02*
X8520000Y-6990000D01*
X8480000Y-8675000D02*
X8480000Y-8755000D01*
X8440000Y-8715000D02*
X8520000Y-8715000D01*
X8480000Y-8925000D02*
X8480000Y-9005000D01*
X8440000Y-8965000D02*
X8520000Y-8965000D01*
X8861000Y-10198000D02*
X8861000Y-10278000D01*
X8821000Y-10238000D02*
X8901000Y-10238000D01*
X8861000Y-10960000D02*
X8861000Y-11040000D01*
X8821000Y-11000000D02*
X8901000Y-11000000D01*
X8910000Y-8400000D02*
X8910000Y-8480000D01*
X8870000Y-8440000D02*
X8950000Y-8440000D01*
X8910000Y-9162000D02*
X8910000Y-9242000D01*
X8870000Y-9202000D02*
X8950000Y-9202000D01*
X8992000Y-6448000D02*
X8992000Y-6528000D01*
X8952000Y-6488000D02*
X9032000Y-6488000D01*
X8992000Y-7210000D02*
X8992000Y-7290000D01*
X8952000Y-7250000D02*
X9032000Y-7250000D01*
X9115000Y-10198000D02*
X9115000Y-10278000D01*
X9075000Y-10238000D02*
X9155000Y-10238000D01*
X9115000Y-10960000D02*
X9115000Y-11040000D01*
X9075000Y-11000000D02*
X9155000Y-11000000D01*
X9164000Y-8400000D02*
X9164000Y-8480000D01*
X9124000Y-8440000D02*
X9204000Y-8440000D01*
X9164000Y-9162000D02*
X9164000Y-9242000D01*
X9124000Y-9202000D02*
X9204000Y-9202000D01*
X9246000Y-6448000D02*
X9246000Y-6528000D01*
X9206000Y-6488000D02*
X9286000Y-6488000D01*
X9246000Y-7210000D02*
X9246000Y-7290000D01*
X9206000Y-7250000D02*
X9286000Y-7250000D01*
X9369000Y-10198000D02*
X9369000Y-10278000D01*
X9329000Y-10238000D02*
X9409000Y-10238000D01*
X9369000Y-10960000D02*
X9369000Y-11040000D01*
X9329000Y-11000000D02*
X9409000Y-11000000D01*
X9418000Y-8400000D02*
X9418000Y-8480000D01*
X9378000Y-8440000D02*
X9458000Y-8440000D01*
X9418000Y-9162000D02*
X9418000Y-9242000D01*
X9378000Y-9202000D02*
X9458000Y-9202000D01*
X9500000Y-6448000D02*
X9500000Y-6528000D01*
X9460000Y-6488000D02*
X9540000Y-6488000D01*
X9500000Y-7210000D02*
X9500000Y-7290000D01*
X9460000Y-7250000D02*
X9540000Y-7250000D01*
X9623000Y-10198000D02*
X9623000Y-10278000D01*
X9583000Y-10238000D02*
X9663000Y-10238000D01*
X9623000Y-10960000D02*
X9623000Y-11040000D01*
X9583000Y-11000000D02*
X9663000Y-11000000D01*
X9672000Y-8400000D02*
X9672000Y-8480000D01*
X9632000Y-8440000D02*
X9712000Y-8440000D01*
X9672000Y-9162000D02*
X9672000Y-9242000D01*
X9632000Y-9202000D02*
X9712000Y-9202000D01*
X9754000Y-6448000D02*
X9754000Y-6528000D01*
X9714000Y-6488000D02*
X9794000Y-6488000D01*
X9754000Y-7210000D02*
X9754000Y-7290000D01*
X9714000Y-7250000D02*
X9794000Y-7250000D01*
X9877000Y-10198000D02*
X9877000Y-10278000D01*
X9837000Y-10238000D02*
X9917000Y-10238000D01*
X9877000Y-10960000D02*
X9877000Y-11040000D01*
X9837000Y-11000000D02*
X9917000Y-11000000D01*
X9926000Y-8400000D02*
X9926000Y-8480000D01*
X9886000Y-8440000D02*
X9966000Y-8440000D01*
X9926000Y-9162000D02*
X9926000Y-9242000D01*
X9886000Y-9202000D02*
X9966000Y-9202000D01*
X10008000Y-6448000D02*
X10008000Y-6528000D01*
X9968000Y-6488000D02*
X10048000Y-6488000D01*
X10008000Y-7210000D02*
X10008000Y-7290000D01*
X9968000Y-7250000D02*
X10048000Y-7250000D01*
X10131000Y-10198000D02*
X10131000Y-10278000D01*
X10091000Y-10238000D02*
X10171000Y-10238000D01*
X10131000Y-10960000D02*
X10131000Y-11040000D01*
X10091000Y-11000000D02*
X10171000Y-11000000D01*
X10180000Y-8400000D02*
X10180000Y-8480000D01*
X10140000Y-8440000D02*
X10220000Y-8440000D01*
X10180000Y-9162000D02*
X10180000Y-9242000D01*
X10140000Y-9202000D02*
X10220000Y-9202000D01*
X10262000Y-6448000D02*
X10262000Y-6528000D01*
X10222000Y-6488000D02*
X10302000Y-6488000D01*
X10262000Y-7210000D02*
X10262000Y-7290000D01*
X10222000Y-7250000D02*
X10302000Y-7250000D01*
X10385000Y-10198000D02*
X10385000Y-10278000D01*
X10345000Y-10238000D02*
X10425000Y-10238000D01*
X10385000Y-10960000D02*
X10385000Y-11040000D01*
X10345000Y-11000000D02*
X10425000Y-11000000D01*
X10434000Y-8400000D02*
X10434000Y-8480000D01*
X10394000Y-8440000D02*
X10474000Y-8440000D01*
X10434000Y-9162000D02*
X10434000Y-9242000D01*
X10394000Y-9202000D02*
X10474000Y-9202000D01*
X10516000Y-6448000D02*
X10516000Y-6528000D01*
X10476000Y-6488000D02*
X10556000Y-6488000D01*
X10516000Y-7210000D02*
X10516000Y-7290000D01*
X10476000Y-7250000D02*
X10556000Y-7250000D01*
X10639000Y-10198000D02*
X10639000Y-10278000D01*
X10599000Y-10238000D02*
X10679000Y-10238000D01*
X10639000Y-10960000D02*
X10639000Y-11040000D01*
X10599000Y-11000000D02*
X10679000Y-11000000D01*
X10688000Y-8400000D02*
X10688000Y-8480000D01*
X10648000Y-8440000D02*
X10728000Y-8440000D01*
X10688000Y-9162000D02*
X10688000Y-9242000D01*
X10648000Y-9202000D02*
X10728000Y-9202000D01*
X10770000Y-6448000D02*
X10770000Y-6528000D01*
X10730000Y-6488000D02*
X10810000Y-6488000D01*
X10770000Y-7210000D02*
X10770000Y-7290000D01*
X10730000Y-7250000D02*
X10810000Y-7250000D01*
X7281356Y-11654856D02*
X7281356Y-11584144D01*
X7210644Y-11584144D01*
X7210644Y-11654856D01*
X7281356Y-11654856D01*
X7533436Y-7284516D02*
X7533436Y-7213804D01*
X7462724Y-7213804D01*
X7462724Y-7284516D01*
X7533436Y-7284516D01*
X7533436Y-7538516D02*
X7533436Y-7467804D01*
X7462724Y-7467804D01*
X7462724Y-7538516D01*
X7533436Y-7538516D01*
X7533436Y-7792516D02*
X7533436Y-7721804D01*
X7462724Y-7721804D01*
X7462724Y-7792516D01*
X7533436Y-7792516D01*
X7533436Y-8046516D02*
X7533436Y-7975804D01*
X7462724Y-7975804D01*
X7462724Y-8046516D01*
X7533436Y-8046516D01*
X7535356Y-6785356D02*
X7535356Y-6714644D01*
X7464644Y-6714644D01*
X7464644Y-6785356D01*
X7535356Y-6785356D01*
X7535356Y-8535356D02*
X7535356Y-8464644D01*
X7464644Y-8464644D01*
X7464644Y-8535356D01*
X7535356Y-8535356D01*
X7535356Y-9285356D02*
X7535356Y-9214644D01*
X7464644Y-9214644D01*
X7464644Y-9285356D01*
X7535356Y-9285356D01*
X7535356Y-10654856D02*
X7535356Y-10584144D01*
X7464644Y-10584144D01*
X7464644Y-10654856D01*
X7535356Y-10654856D01*
X7535356Y-11654856D02*
X7535356Y-11584144D01*
X7464644Y-11584144D01*
X7464644Y-11654856D01*
X7535356Y-11654856D01*
X7552356Y-10285356D02*
X7552356Y-10214644D01*
X7481644Y-10214644D01*
X7481644Y-10285356D01*
X7552356Y-10285356D01*
X7806356Y-10285356D02*
X7806356Y-10214644D01*
X7735644Y-10214644D01*
X7735644Y-10285356D01*
X7806356Y-10285356D01*
X8027356Y-7785356D02*
X8027356Y-7714644D01*
X7956644Y-7714644D01*
X7956644Y-7785356D01*
X8027356Y-7785356D01*
X8031356Y-11654856D02*
X8031356Y-11584144D01*
X7960644Y-11584144D01*
X7960644Y-11654856D01*
X8031356Y-11654856D01*
X8035356Y-9285356D02*
X8035356Y-9214644D01*
X7964644Y-9214644D01*
X7964644Y-9285356D01*
X8035356Y-9285356D01*
X8060356Y-10285356D02*
X8060356Y-10214644D01*
X7989644Y-10214644D01*
X7989644Y-10285356D01*
X8060356Y-10285356D01*
X8281356Y-7785356D02*
X8281356Y-7714644D01*
X8210644Y-7714644D01*
X8210644Y-7785356D01*
X8281356Y-7785356D01*
X8285356Y-11654856D02*
X8285356Y-11584144D01*
X8214644Y-11584144D01*
X8214644Y-11654856D01*
X8285356Y-11654856D01*
X8535356Y-7785356D02*
X8535356Y-7714644D01*
X8464644Y-7714644D01*
X8464644Y-7785356D01*
X8535356Y-7785356D01*
X8535356Y-11154856D02*
X8535356Y-11084144D01*
X8464644Y-11084144D01*
X8464644Y-11154856D01*
X8535356Y-11154856D01*
X8777356Y-9531356D02*
X8777356Y-9460644D01*
X8706644Y-9460644D01*
X8706644Y-9531356D01*
X8777356Y-9531356D01*
X8777356Y-9785356D02*
X8777356Y-9714644D01*
X8706644Y-9714644D01*
X8706644Y-9785356D01*
X8777356Y-9785356D01*
X8901356Y-11650856D02*
X8901356Y-11580144D01*
X8830644Y-11580144D01*
X8830644Y-11650856D01*
X8901356Y-11650856D01*
X8901356Y-11904856D02*
X8901356Y-11834144D01*
X8830644Y-11834144D01*
X8830644Y-11904856D01*
X8901356Y-11904856D01*
X9031356Y-7781356D02*
X9031356Y-7710644D01*
X8960644Y-7710644D01*
X8960644Y-7781356D01*
X9031356Y-7781356D01*
X9031356Y-8035356D02*
X9031356Y-7964644D01*
X8960644Y-7964644D01*
X8960644Y-8035356D01*
X9031356Y-8035356D01*
X9031356Y-9531356D02*
X9031356Y-9460644D01*
X8960644Y-9460644D01*
X8960644Y-9531356D01*
X9031356Y-9531356D01*
X9031356Y-9785356D02*
X9031356Y-9714644D01*
X8960644Y-9714644D01*
X8960644Y-9785356D01*
X9031356Y-9785356D01*
X9155356Y-11650856D02*
X9155356Y-11580144D01*
X9084644Y-11580144D01*
X9084644Y-11650856D01*
X9155356Y-11650856D01*
X9155356Y-11904856D02*
X9155356Y-11834144D01*
X9084644Y-11834144D01*
X9084644Y-11904856D01*
X9155356Y-11904856D01*
X9285356Y-7781356D02*
X9285356Y-7710644D01*
X9214644Y-7710644D01*
X9214644Y-7781356D01*
X9285356Y-7781356D01*
X9285356Y-8035356D02*
X9285356Y-7964644D01*
X9214644Y-7964644D01*
X9214644Y-8035356D01*
X9285356Y-8035356D01*
X9285356Y-9531356D02*
X9285356Y-9460644D01*
X9214644Y-9460644D01*
X9214644Y-9531356D01*
X9285356Y-9531356D01*
X9285356Y-9785356D02*
X9285356Y-9714644D01*
X9214644Y-9714644D01*
X9214644Y-9785356D01*
X9285356Y-9785356D01*
X9409356Y-11650856D02*
X9409356Y-11580144D01*
X9338644Y-11580144D01*
X9338644Y-11650856D01*
X9409356Y-11650856D01*
X9409356Y-11904856D02*
X9409356Y-11834144D01*
X9338644Y-11834144D01*
X9338644Y-11904856D01*
X9409356Y-11904856D01*
X9539356Y-9531356D02*
X9539356Y-9460644D01*
X9468644Y-9460644D01*
X9468644Y-9531356D01*
X9539356Y-9531356D01*
X9539356Y-9785356D02*
X9539356Y-9714644D01*
X9468644Y-9714644D01*
X9468644Y-9785356D01*
X9539356Y-9785356D01*
X9663356Y-11650856D02*
X9663356Y-11580144D01*
X9592644Y-11580144D01*
X9592644Y-11650856D01*
X9663356Y-11650856D01*
X9663356Y-11904856D02*
X9663356Y-11834144D01*
X9592644Y-11834144D01*
X9592644Y-11904856D01*
X9663356Y-11904856D01*
X9781356Y-7781356D02*
X9781356Y-7710644D01*
X9710644Y-7710644D01*
X9710644Y-7781356D01*
X9781356Y-7781356D01*
X9781356Y-8035356D02*
X9781356Y-7964644D01*
X9710644Y-7964644D01*
X9710644Y-8035356D01*
X9781356Y-8035356D01*
X9917356Y-11650856D02*
X9917356Y-11580144D01*
X9846644Y-11580144D01*
X9846644Y-11650856D01*
X9917356Y-11650856D01*
X9917356Y-11904856D02*
X9917356Y-11834144D01*
X9846644Y-11834144D01*
X9846644Y-11904856D01*
X9917356Y-11904856D01*
X10035356Y-7781356D02*
X10035356Y-7710644D01*
X9964644Y-7710644D01*
X9964644Y-7781356D01*
X10035356Y-7781356D01*
X10035356Y-8035356D02*
X10035356Y-7964644D01*
X9964644Y-7964644D01*
X9964644Y-8035356D01*
X10035356Y-8035356D01*
X10035356Y-9535356D02*
X10035356Y-9464644D01*
X9964644Y-9464644D01*
X9964644Y-9535356D01*
X10035356Y-9535356D01*
X10035356Y-9789356D02*
X10035356Y-9718644D01*
X9964644Y-9718644D01*
X9964644Y-9789356D01*
X10035356Y-9789356D01*
X10171356Y-11650856D02*
X10171356Y-11580144D01*
X10100644Y-11580144D01*
X10100644Y-11650856D01*
X10171356Y-11650856D01*
X10171356Y-11904856D02*
X10171356Y-11834144D01*
X10100644Y-11834144D01*
X10100644Y-11904856D01*
X10171356Y-11904856D01*
X10289356Y-9535356D02*
X10289356Y-9464644D01*
X10218644Y-9464644D01*
X10218644Y-9535356D01*
X10289356Y-9535356D01*
X10289356Y-9789356D02*
X10289356Y-9718644D01*
X10218644Y-9718644D01*
X10218644Y-9789356D01*
X10289356Y-9789356D01*
X10425356Y-11650856D02*
X10425356Y-11580144D01*
X10354644Y-11580144D01*
X10354644Y-11650856D01*
X10425356Y-11650856D01*
X10425356Y-11904856D02*
X10425356Y-11834144D01*
X10354644Y-11834144D01*
X10354644Y-11904856D01*
X10425356Y-11904856D01*
X10531356Y-7785356D02*
X10531356Y-7714644D01*
X10460644Y-7714644D01*
X10460644Y-7785356D01*
X10531356Y-7785356D01*
X10531356Y-8039356D02*
X10531356Y-7968644D01*
X10460644Y-7968644D01*
X10460644Y-8039356D01*
X10531356Y-8039356D01*
X10543356Y-9535356D02*
X10543356Y-9464644D01*
X10472644Y-9464644D01*
X10472644Y-9535356D01*
X10543356Y-9535356D01*
X10543356Y-9789356D02*
X10543356Y-9718644D01*
X10472644Y-9718644D01*
X10472644Y-9789356D01*
X10543356Y-9789356D01*
X10679356Y-11650856D02*
X10679356Y-11580144D01*
X10608644Y-11580144D01*
X10608644Y-11650856D01*
X10679356Y-11650856D01*
X10679356Y-11904856D02*
X10679356Y-11834144D01*
X10608644Y-11834144D01*
X10608644Y-11904856D01*
X10679356Y-11904856D01*
X10785356Y-7785356D02*
X10785356Y-7714644D01*
X10714644Y-7714644D01*
X10714644Y-7785356D01*
X10785356Y-7785356D01*
X10785356Y-8039356D02*
X10785356Y-7968644D01*
X10714644Y-7968644D01*
X10714644Y-8039356D01*
X10785356Y-8039356D01*
X10797356Y-9535356D02*
X10797356Y-9464644D01*
X10726644Y-9464644D01*
X10726644Y-9535356D01*
X10797356Y-9535356D01*
X10797356Y-9789356D02*
X10797356Y-9718644D01*
X10726644Y-9718644D01*
X10726644Y-9789356D01*
X10797356Y-9789356D01*
X11281356Y-8781356D02*
X11281356Y-8710644D01*
X11210644Y-8710644D01*
X11210644Y-8781356D01*
X11281356Y-8781356D01*
X11281356Y-9035356D02*
X11281356Y-8964644D01*
X11210644Y-8964644D01*
X11210644Y-9035356D01*
X11281356Y-9035356D01*
X11285356Y-6535356D02*
X11285356Y-6464644D01*
X11214644Y-6464644D01*
X11214644Y-6535356D01*
X11285356Y-6535356D01*
X11285356Y-6789356D02*
X11285356Y-6718644D01*
X11214644Y-6718644D01*
X11214644Y-6789356D01*
X11285356Y-6789356D01*
X11285356Y-7043356D02*
X11285356Y-6972644D01*
X11214644Y-6972644D01*
X11214644Y-7043356D01*
X11285356Y-7043356D01*
X11285356Y-7531356D02*
X11285356Y-7460644D01*
X11214644Y-7460644D01*
X11214644Y-7531356D01*
X11285356Y-7531356D01*
X11285356Y-7785356D02*
X11285356Y-7714644D01*
X11214644Y-7714644D01*
X11214644Y-7785356D01*
X11285356Y-7785356D01*
X11285356Y-8039356D02*
X11285356Y-7968644D01*
X11214644Y-7968644D01*
X11214644Y-8039356D01*
X11285356Y-8039356D01*
X11285356Y-8293356D02*
X11285356Y-8222644D01*
X11214644Y-8222644D01*
X11214644Y-8293356D01*
X11285356Y-8293356D01*
X11285356Y-9531356D02*
X11285356Y-9460644D01*
X11214644Y-9460644D01*
X11214644Y-9531356D01*
X11285356Y-9531356D01*
X11285356Y-9785356D02*
X11285356Y-9714644D01*
X11214644Y-9714644D01*
X11214644Y-9785356D01*
X11285356Y-9785356D01*
X11285356Y-10039356D02*
X11285356Y-9968644D01*
X11214644Y-9968644D01*
X11214644Y-10039356D01*
X11285356Y-10039356D01*
X11285356Y-10293356D02*
X11285356Y-10222644D01*
X11214644Y-10222644D01*
X11214644Y-10293356D01*
X11285356Y-10293356D01*
X11285356Y-11146856D02*
X11285356Y-11076144D01*
X11214644Y-11076144D01*
X11214644Y-11146856D01*
X11285356Y-11146856D01*
X11285356Y-11400856D02*
X11285356Y-11330144D01*
X11214644Y-11330144D01*
X11214644Y-11400856D01*
X11285356Y-11400856D01*
X11285356Y-11654856D02*
X11285356Y-11584144D01*
X11214644Y-11584144D01*
X11214644Y-11654856D01*
X11285356Y-11654856D01*
X11285356Y-11908856D02*
X11285356Y-11838144D01*
X11214644Y-11838144D01*
X11214644Y-11908856D01*
X11285356Y-11908856D01*
D11*
X7008277Y-12563984D02*
X7008277Y-12363984D01*
X7008277Y-12363984D02*
X7055896Y-12363984D01*
X7055896Y-12363984D02*
X7084467Y-12373508D01*
X7084467Y-12373508D02*
X7103515Y-12392555D01*
X7103515Y-12392555D02*
X7113039Y-12411603D01*
X7113039Y-12411603D02*
X7122562Y-12449698D01*
X7122562Y-12449698D02*
X7122562Y-12478269D01*
X7122562Y-12478269D02*
X7113039Y-12516365D01*
X7113039Y-12516365D02*
X7103515Y-12535412D01*
X7103515Y-12535412D02*
X7084467Y-12554460D01*
X7084467Y-12554460D02*
X7055896Y-12563984D01*
X7055896Y-12563984D02*
X7008277Y-12563984D01*
X7208277Y-12563984D02*
X7208277Y-12430650D01*
X7208277Y-12468746D02*
X7217801Y-12449698D01*
X7217801Y-12449698D02*
X7227324Y-12440174D01*
X7227324Y-12440174D02*
X7246372Y-12430650D01*
X7246372Y-12430650D02*
X7265420Y-12430650D01*
X7332086Y-12563984D02*
X7332086Y-12430650D01*
X7332086Y-12363984D02*
X7322562Y-12373508D01*
X7322562Y-12373508D02*
X7332086Y-12383031D01*
X7332086Y-12383031D02*
X7341610Y-12373508D01*
X7341610Y-12373508D02*
X7332086Y-12363984D01*
X7332086Y-12363984D02*
X7332086Y-12383031D01*
X7455896Y-12563984D02*
X7436848Y-12554460D01*
X7436848Y-12554460D02*
X7427324Y-12535412D01*
X7427324Y-12535412D02*
X7427324Y-12363984D01*
X7560658Y-12563984D02*
X7541610Y-12554460D01*
X7541610Y-12554460D02*
X7532086Y-12535412D01*
X7532086Y-12535412D02*
X7532086Y-12363984D01*
X7789229Y-12563984D02*
X7789229Y-12363984D01*
X7789229Y-12363984D02*
X7855896Y-12506841D01*
X7855896Y-12506841D02*
X7922562Y-12363984D01*
X7922562Y-12363984D02*
X7922562Y-12563984D01*
X8103515Y-12563984D02*
X8103515Y-12459222D01*
X8103515Y-12459222D02*
X8093991Y-12440174D01*
X8093991Y-12440174D02*
X8074943Y-12430650D01*
X8074943Y-12430650D02*
X8036848Y-12430650D01*
X8036848Y-12430650D02*
X8017801Y-12440174D01*
X8103515Y-12554460D02*
X8084467Y-12563984D01*
X8084467Y-12563984D02*
X8036848Y-12563984D01*
X8036848Y-12563984D02*
X8017801Y-12554460D01*
X8017801Y-12554460D02*
X8008277Y-12535412D01*
X8008277Y-12535412D02*
X8008277Y-12516365D01*
X8008277Y-12516365D02*
X8017801Y-12497317D01*
X8017801Y-12497317D02*
X8036848Y-12487793D01*
X8036848Y-12487793D02*
X8084467Y-12487793D01*
X8084467Y-12487793D02*
X8103515Y-12478269D01*
X8198753Y-12430650D02*
X8198753Y-12630650D01*
X8198753Y-12440174D02*
X8217801Y-12430650D01*
X8217801Y-12430650D02*
X8255896Y-12430650D01*
X8255896Y-12430650D02*
X8274943Y-12440174D01*
X8274943Y-12440174D02*
X8284467Y-12449698D01*
X8284467Y-12449698D02*
X8293991Y-12468746D01*
X8293991Y-12468746D02*
X8293991Y-12525888D01*
X8293991Y-12525888D02*
X8284467Y-12544936D01*
X8284467Y-12544936D02*
X8274943Y-12554460D01*
X8274943Y-12554460D02*
X8255896Y-12563984D01*
X8255896Y-12563984D02*
X8217801Y-12563984D01*
X8217801Y-12563984D02*
X8198753Y-12554460D01*
X8379705Y-12544936D02*
X8389229Y-12554460D01*
X8389229Y-12554460D02*
X8379705Y-12563984D01*
X8379705Y-12563984D02*
X8370182Y-12554460D01*
X8370182Y-12554460D02*
X8379705Y-12544936D01*
X8379705Y-12544936D02*
X8379705Y-12563984D01*
X8379705Y-12440174D02*
X8389229Y-12449698D01*
X8389229Y-12449698D02*
X8379705Y-12459222D01*
X8379705Y-12459222D02*
X8370182Y-12449698D01*
X8370182Y-12449698D02*
X8379705Y-12440174D01*
X8379705Y-12440174D02*
X8379705Y-12459222D01*
D12*
X6717500Y-12877500D02*
X6747500Y-12907500D01*
X6747500Y-12877500D02*
X6717500Y-12907500D01*
D11*
X7046372Y-12783984D02*
X7065420Y-12783984D01*
X7065420Y-12783984D02*
X7084467Y-12793508D01*
X7084467Y-12793508D02*
X7093991Y-12803031D01*
X7093991Y-12803031D02*
X7103515Y-12822079D01*
X7103515Y-12822079D02*
X7113039Y-12860174D01*
X7113039Y-12860174D02*
X7113039Y-12907793D01*
X7113039Y-12907793D02*
X7103515Y-12945888D01*
X7103515Y-12945888D02*
X7093991Y-12964936D01*
X7093991Y-12964936D02*
X7084467Y-12974460D01*
X7084467Y-12974460D02*
X7065420Y-12983984D01*
X7065420Y-12983984D02*
X7046372Y-12983984D01*
X7046372Y-12983984D02*
X7027324Y-12974460D01*
X7027324Y-12974460D02*
X7017801Y-12964936D01*
X7017801Y-12964936D02*
X7008277Y-12945888D01*
X7008277Y-12945888D02*
X6998753Y-12907793D01*
X6998753Y-12907793D02*
X6998753Y-12860174D01*
X6998753Y-12860174D02*
X7008277Y-12822079D01*
X7008277Y-12822079D02*
X7017801Y-12803031D01*
X7017801Y-12803031D02*
X7027324Y-12793508D01*
X7027324Y-12793508D02*
X7046372Y-12783984D01*
X7198753Y-12964936D02*
X7208277Y-12974460D01*
X7208277Y-12974460D02*
X7198753Y-12983984D01*
X7198753Y-12983984D02*
X7189229Y-12974460D01*
X7189229Y-12974460D02*
X7198753Y-12964936D01*
X7198753Y-12964936D02*
X7198753Y-12983984D01*
X7274943Y-12783984D02*
X7398753Y-12783984D01*
X7398753Y-12783984D02*
X7332086Y-12860174D01*
X7332086Y-12860174D02*
X7360658Y-12860174D01*
X7360658Y-12860174D02*
X7379705Y-12869698D01*
X7379705Y-12869698D02*
X7389229Y-12879222D01*
X7389229Y-12879222D02*
X7398753Y-12898269D01*
X7398753Y-12898269D02*
X7398753Y-12945888D01*
X7398753Y-12945888D02*
X7389229Y-12964936D01*
X7389229Y-12964936D02*
X7379705Y-12974460D01*
X7379705Y-12974460D02*
X7360658Y-12983984D01*
X7360658Y-12983984D02*
X7303515Y-12983984D01*
X7303515Y-12983984D02*
X7284467Y-12974460D01*
X7284467Y-12974460D02*
X7274943Y-12964936D01*
X7522562Y-12783984D02*
X7541610Y-12783984D01*
X7541610Y-12783984D02*
X7560658Y-12793508D01*
X7560658Y-12793508D02*
X7570182Y-12803031D01*
X7570182Y-12803031D02*
X7579705Y-12822079D01*
X7579705Y-12822079D02*
X7589229Y-12860174D01*
X7589229Y-12860174D02*
X7589229Y-12907793D01*
X7589229Y-12907793D02*
X7579705Y-12945888D01*
X7579705Y-12945888D02*
X7570182Y-12964936D01*
X7570182Y-12964936D02*
X7560658Y-12974460D01*
X7560658Y-12974460D02*
X7541610Y-12983984D01*
X7541610Y-12983984D02*
X7522562Y-12983984D01*
X7522562Y-12983984D02*
X7503515Y-12974460D01*
X7503515Y-12974460D02*
X7493991Y-12964936D01*
X7493991Y-12964936D02*
X7484467Y-12945888D01*
X7484467Y-12945888D02*
X7474943Y-12907793D01*
X7474943Y-12907793D02*
X7474943Y-12860174D01*
X7474943Y-12860174D02*
X7484467Y-12822079D01*
X7484467Y-12822079D02*
X7493991Y-12803031D01*
X7493991Y-12803031D02*
X7503515Y-12793508D01*
X7503515Y-12793508D02*
X7522562Y-12783984D01*
X7713039Y-12783984D02*
X7732086Y-12783984D01*
X7732086Y-12783984D02*
X7751134Y-12793508D01*
X7751134Y-12793508D02*
X7760658Y-12803031D01*
X7760658Y-12803031D02*
X7770182Y-12822079D01*
X7770182Y-12822079D02*
X7779705Y-12860174D01*
X7779705Y-12860174D02*
X7779705Y-12907793D01*
X7779705Y-12907793D02*
X7770182Y-12945888D01*
X7770182Y-12945888D02*
X7760658Y-12964936D01*
X7760658Y-12964936D02*
X7751134Y-12974460D01*
X7751134Y-12974460D02*
X7732086Y-12983984D01*
X7732086Y-12983984D02*
X7713039Y-12983984D01*
X7713039Y-12983984D02*
X7693991Y-12974460D01*
X7693991Y-12974460D02*
X7684467Y-12964936D01*
X7684467Y-12964936D02*
X7674943Y-12945888D01*
X7674943Y-12945888D02*
X7665420Y-12907793D01*
X7665420Y-12907793D02*
X7665420Y-12860174D01*
X7665420Y-12860174D02*
X7674943Y-12822079D01*
X7674943Y-12822079D02*
X7684467Y-12803031D01*
X7684467Y-12803031D02*
X7693991Y-12793508D01*
X7693991Y-12793508D02*
X7713039Y-12783984D01*
X7865420Y-12983984D02*
X7865420Y-12850650D01*
X7865420Y-12869698D02*
X7874943Y-12860174D01*
X7874943Y-12860174D02*
X7893991Y-12850650D01*
X7893991Y-12850650D02*
X7922563Y-12850650D01*
X7922563Y-12850650D02*
X7941610Y-12860174D01*
X7941610Y-12860174D02*
X7951134Y-12879222D01*
X7951134Y-12879222D02*
X7951134Y-12983984D01*
X7951134Y-12879222D02*
X7960658Y-12860174D01*
X7960658Y-12860174D02*
X7979705Y-12850650D01*
X7979705Y-12850650D02*
X8008277Y-12850650D01*
X8008277Y-12850650D02*
X8027324Y-12860174D01*
X8027324Y-12860174D02*
X8036848Y-12879222D01*
X8036848Y-12879222D02*
X8036848Y-12983984D01*
X8132086Y-12983984D02*
X8132086Y-12850650D01*
X8132086Y-12869698D02*
X8141610Y-12860174D01*
X8141610Y-12860174D02*
X8160658Y-12850650D01*
X8160658Y-12850650D02*
X8189229Y-12850650D01*
X8189229Y-12850650D02*
X8208277Y-12860174D01*
X8208277Y-12860174D02*
X8217801Y-12879222D01*
X8217801Y-12879222D02*
X8217801Y-12983984D01*
X8217801Y-12879222D02*
X8227324Y-12860174D01*
X8227324Y-12860174D02*
X8246372Y-12850650D01*
X8246372Y-12850650D02*
X8274943Y-12850650D01*
X8274943Y-12850650D02*
X8293991Y-12860174D01*
X8293991Y-12860174D02*
X8303515Y-12879222D01*
X8303515Y-12879222D02*
X8303515Y-12983984D01*
X8693991Y-12774460D02*
X8522563Y-13031603D01*
X8951134Y-12783984D02*
X8970182Y-12783984D01*
X8970182Y-12783984D02*
X8989229Y-12793508D01*
X8989229Y-12793508D02*
X8998753Y-12803031D01*
X8998753Y-12803031D02*
X9008277Y-12822079D01*
X9008277Y-12822079D02*
X9017801Y-12860174D01*
X9017801Y-12860174D02*
X9017801Y-12907793D01*
X9017801Y-12907793D02*
X9008277Y-12945888D01*
X9008277Y-12945888D02*
X8998753Y-12964936D01*
X8998753Y-12964936D02*
X8989229Y-12974460D01*
X8989229Y-12974460D02*
X8970182Y-12983984D01*
X8970182Y-12983984D02*
X8951134Y-12983984D01*
X8951134Y-12983984D02*
X8932087Y-12974460D01*
X8932087Y-12974460D02*
X8922563Y-12964936D01*
X8922563Y-12964936D02*
X8913039Y-12945888D01*
X8913039Y-12945888D02*
X8903515Y-12907793D01*
X8903515Y-12907793D02*
X8903515Y-12860174D01*
X8903515Y-12860174D02*
X8913039Y-12822079D01*
X8913039Y-12822079D02*
X8922563Y-12803031D01*
X8922563Y-12803031D02*
X8932087Y-12793508D01*
X8932087Y-12793508D02*
X8951134Y-12783984D01*
X9103515Y-12964936D02*
X9113039Y-12974460D01*
X9113039Y-12974460D02*
X9103515Y-12983984D01*
X9103515Y-12983984D02*
X9093991Y-12974460D01*
X9093991Y-12974460D02*
X9103515Y-12964936D01*
X9103515Y-12964936D02*
X9103515Y-12983984D01*
X9236848Y-12783984D02*
X9255896Y-12783984D01*
X9255896Y-12783984D02*
X9274944Y-12793508D01*
X9274944Y-12793508D02*
X9284468Y-12803031D01*
X9284468Y-12803031D02*
X9293991Y-12822079D01*
X9293991Y-12822079D02*
X9303515Y-12860174D01*
X9303515Y-12860174D02*
X9303515Y-12907793D01*
X9303515Y-12907793D02*
X9293991Y-12945888D01*
X9293991Y-12945888D02*
X9284468Y-12964936D01*
X9284468Y-12964936D02*
X9274944Y-12974460D01*
X9274944Y-12974460D02*
X9255896Y-12983984D01*
X9255896Y-12983984D02*
X9236848Y-12983984D01*
X9236848Y-12983984D02*
X9217801Y-12974460D01*
X9217801Y-12974460D02*
X9208277Y-12964936D01*
X9208277Y-12964936D02*
X9198753Y-12945888D01*
X9198753Y-12945888D02*
X9189229Y-12907793D01*
X9189229Y-12907793D02*
X9189229Y-12860174D01*
X9189229Y-12860174D02*
X9198753Y-12822079D01*
X9198753Y-12822079D02*
X9208277Y-12803031D01*
X9208277Y-12803031D02*
X9217801Y-12793508D01*
X9217801Y-12793508D02*
X9236848Y-12783984D01*
X9493991Y-12983984D02*
X9379706Y-12983984D01*
X9436848Y-12983984D02*
X9436848Y-12783984D01*
X9436848Y-12783984D02*
X9417801Y-12812555D01*
X9417801Y-12812555D02*
X9398753Y-12831603D01*
X9398753Y-12831603D02*
X9379706Y-12841127D01*
X9684468Y-12983984D02*
X9570182Y-12983984D01*
X9627325Y-12983984D02*
X9627325Y-12783984D01*
X9627325Y-12783984D02*
X9608277Y-12812555D01*
X9608277Y-12812555D02*
X9589229Y-12831603D01*
X9589229Y-12831603D02*
X9570182Y-12841127D01*
X9798753Y-12869698D02*
X9779706Y-12860174D01*
X9779706Y-12860174D02*
X9770182Y-12850650D01*
X9770182Y-12850650D02*
X9760658Y-12831603D01*
X9760658Y-12831603D02*
X9760658Y-12822079D01*
X9760658Y-12822079D02*
X9770182Y-12803031D01*
X9770182Y-12803031D02*
X9779706Y-12793508D01*
X9779706Y-12793508D02*
X9798753Y-12783984D01*
X9798753Y-12783984D02*
X9836849Y-12783984D01*
X9836849Y-12783984D02*
X9855896Y-12793508D01*
X9855896Y-12793508D02*
X9865420Y-12803031D01*
X9865420Y-12803031D02*
X9874944Y-12822079D01*
X9874944Y-12822079D02*
X9874944Y-12831603D01*
X9874944Y-12831603D02*
X9865420Y-12850650D01*
X9865420Y-12850650D02*
X9855896Y-12860174D01*
X9855896Y-12860174D02*
X9836849Y-12869698D01*
X9836849Y-12869698D02*
X9798753Y-12869698D01*
X9798753Y-12869698D02*
X9779706Y-12879222D01*
X9779706Y-12879222D02*
X9770182Y-12888746D01*
X9770182Y-12888746D02*
X9760658Y-12907793D01*
X9760658Y-12907793D02*
X9760658Y-12945888D01*
X9760658Y-12945888D02*
X9770182Y-12964936D01*
X9770182Y-12964936D02*
X9779706Y-12974460D01*
X9779706Y-12974460D02*
X9798753Y-12983984D01*
X9798753Y-12983984D02*
X9836849Y-12983984D01*
X9836849Y-12983984D02*
X9855896Y-12974460D01*
X9855896Y-12974460D02*
X9865420Y-12964936D01*
X9865420Y-12964936D02*
X9874944Y-12945888D01*
X9874944Y-12945888D02*
X9874944Y-12907793D01*
X9874944Y-12907793D02*
X9865420Y-12888746D01*
X9865420Y-12888746D02*
X9855896Y-12879222D01*
X9855896Y-12879222D02*
X9836849Y-12869698D01*
X9951134Y-12783984D02*
X9951134Y-12822079D01*
X10027325Y-12783984D02*
X10027325Y-12822079D01*
X10322563Y-13060174D02*
X10313039Y-13050650D01*
X10313039Y-13050650D02*
X10293991Y-13022079D01*
X10293991Y-13022079D02*
X10284468Y-13003031D01*
X10284468Y-13003031D02*
X10274944Y-12974460D01*
X10274944Y-12974460D02*
X10265420Y-12926841D01*
X10265420Y-12926841D02*
X10265420Y-12888746D01*
X10265420Y-12888746D02*
X10274944Y-12841127D01*
X10274944Y-12841127D02*
X10284468Y-12812555D01*
X10284468Y-12812555D02*
X10293991Y-12793508D01*
X10293991Y-12793508D02*
X10313039Y-12764936D01*
X10313039Y-12764936D02*
X10322563Y-12755412D01*
X10493991Y-12783984D02*
X10398753Y-12783984D01*
X10398753Y-12783984D02*
X10389230Y-12879222D01*
X10389230Y-12879222D02*
X10398753Y-12869698D01*
X10398753Y-12869698D02*
X10417801Y-12860174D01*
X10417801Y-12860174D02*
X10465420Y-12860174D01*
X10465420Y-12860174D02*
X10484468Y-12869698D01*
X10484468Y-12869698D02*
X10493991Y-12879222D01*
X10493991Y-12879222D02*
X10503515Y-12898269D01*
X10503515Y-12898269D02*
X10503515Y-12945888D01*
X10503515Y-12945888D02*
X10493991Y-12964936D01*
X10493991Y-12964936D02*
X10484468Y-12974460D01*
X10484468Y-12974460D02*
X10465420Y-12983984D01*
X10465420Y-12983984D02*
X10417801Y-12983984D01*
X10417801Y-12983984D02*
X10398753Y-12974460D01*
X10398753Y-12974460D02*
X10389230Y-12964936D01*
X10741611Y-12983984D02*
X10741611Y-12783984D01*
X10827325Y-12983984D02*
X10827325Y-12879222D01*
X10827325Y-12879222D02*
X10817801Y-12860174D01*
X10817801Y-12860174D02*
X10798753Y-12850650D01*
X10798753Y-12850650D02*
X10770182Y-12850650D01*
X10770182Y-12850650D02*
X10751134Y-12860174D01*
X10751134Y-12860174D02*
X10741611Y-12869698D01*
X10951134Y-12983984D02*
X10932087Y-12974460D01*
X10932087Y-12974460D02*
X10922563Y-12964936D01*
X10922563Y-12964936D02*
X10913039Y-12945888D01*
X10913039Y-12945888D02*
X10913039Y-12888746D01*
X10913039Y-12888746D02*
X10922563Y-12869698D01*
X10922563Y-12869698D02*
X10932087Y-12860174D01*
X10932087Y-12860174D02*
X10951134Y-12850650D01*
X10951134Y-12850650D02*
X10979706Y-12850650D01*
X10979706Y-12850650D02*
X10998753Y-12860174D01*
X10998753Y-12860174D02*
X11008277Y-12869698D01*
X11008277Y-12869698D02*
X11017801Y-12888746D01*
X11017801Y-12888746D02*
X11017801Y-12945888D01*
X11017801Y-12945888D02*
X11008277Y-12964936D01*
X11008277Y-12964936D02*
X10998753Y-12974460D01*
X10998753Y-12974460D02*
X10979706Y-12983984D01*
X10979706Y-12983984D02*
X10951134Y-12983984D01*
X11132087Y-12983984D02*
X11113039Y-12974460D01*
X11113039Y-12974460D02*
X11103515Y-12955412D01*
X11103515Y-12955412D02*
X11103515Y-12783984D01*
X11284468Y-12974460D02*
X11265420Y-12983984D01*
X11265420Y-12983984D02*
X11227325Y-12983984D01*
X11227325Y-12983984D02*
X11208277Y-12974460D01*
X11208277Y-12974460D02*
X11198753Y-12955412D01*
X11198753Y-12955412D02*
X11198753Y-12879222D01*
X11198753Y-12879222D02*
X11208277Y-12860174D01*
X11208277Y-12860174D02*
X11227325Y-12850650D01*
X11227325Y-12850650D02*
X11265420Y-12850650D01*
X11265420Y-12850650D02*
X11284468Y-12860174D01*
X11284468Y-12860174D02*
X11293991Y-12879222D01*
X11293991Y-12879222D02*
X11293991Y-12898269D01*
X11293991Y-12898269D02*
X11198753Y-12917317D01*
X11370182Y-12974460D02*
X11389230Y-12983984D01*
X11389230Y-12983984D02*
X11427325Y-12983984D01*
X11427325Y-12983984D02*
X11446372Y-12974460D01*
X11446372Y-12974460D02*
X11455896Y-12955412D01*
X11455896Y-12955412D02*
X11455896Y-12945888D01*
X11455896Y-12945888D02*
X11446372Y-12926841D01*
X11446372Y-12926841D02*
X11427325Y-12917317D01*
X11427325Y-12917317D02*
X11398753Y-12917317D01*
X11398753Y-12917317D02*
X11379706Y-12907793D01*
X11379706Y-12907793D02*
X11370182Y-12888746D01*
X11370182Y-12888746D02*
X11370182Y-12879222D01*
X11370182Y-12879222D02*
X11379706Y-12860174D01*
X11379706Y-12860174D02*
X11398753Y-12850650D01*
X11398753Y-12850650D02*
X11427325Y-12850650D01*
X11427325Y-12850650D02*
X11446372Y-12860174D01*
X11522563Y-13060174D02*
X11532087Y-13050650D01*
X11532087Y-13050650D02*
X11551134Y-13022079D01*
X11551134Y-13022079D02*
X11560658Y-13003031D01*
X11560658Y-13003031D02*
X11570182Y-12974460D01*
X11570182Y-12974460D02*
X11579706Y-12926841D01*
X11579706Y-12926841D02*
X11579706Y-12888746D01*
X11579706Y-12888746D02*
X11570182Y-12841127D01*
X11570182Y-12841127D02*
X11560658Y-12812555D01*
X11560658Y-12812555D02*
X11551134Y-12793508D01*
X11551134Y-12793508D02*
X11532087Y-12764936D01*
X11532087Y-12764936D02*
X11522563Y-12755412D01*
D12*
X6747500Y-13156500D02*
G75*
G02*
X6677500Y-13156500I-35000J0D01*
G01*
X6677500Y-13156500D02*
G75*
G02*
X6747500Y-13156500I35000J0D01*
G01*
D11*
X7046372Y-13047984D02*
X7065420Y-13047984D01*
X7065420Y-13047984D02*
X7084467Y-13057508D01*
X7084467Y-13057508D02*
X7093991Y-13067031D01*
X7093991Y-13067031D02*
X7103515Y-13086079D01*
X7103515Y-13086079D02*
X7113039Y-13124174D01*
X7113039Y-13124174D02*
X7113039Y-13171793D01*
X7113039Y-13171793D02*
X7103515Y-13209888D01*
X7103515Y-13209888D02*
X7093991Y-13228936D01*
X7093991Y-13228936D02*
X7084467Y-13238460D01*
X7084467Y-13238460D02*
X7065420Y-13247984D01*
X7065420Y-13247984D02*
X7046372Y-13247984D01*
X7046372Y-13247984D02*
X7027324Y-13238460D01*
X7027324Y-13238460D02*
X7017801Y-13228936D01*
X7017801Y-13228936D02*
X7008277Y-13209888D01*
X7008277Y-13209888D02*
X6998753Y-13171793D01*
X6998753Y-13171793D02*
X6998753Y-13124174D01*
X6998753Y-13124174D02*
X7008277Y-13086079D01*
X7008277Y-13086079D02*
X7017801Y-13067031D01*
X7017801Y-13067031D02*
X7027324Y-13057508D01*
X7027324Y-13057508D02*
X7046372Y-13047984D01*
X7198753Y-13228936D02*
X7208277Y-13238460D01*
X7208277Y-13238460D02*
X7198753Y-13247984D01*
X7198753Y-13247984D02*
X7189229Y-13238460D01*
X7189229Y-13238460D02*
X7198753Y-13228936D01*
X7198753Y-13228936D02*
X7198753Y-13247984D01*
X7274943Y-13047984D02*
X7408277Y-13047984D01*
X7408277Y-13047984D02*
X7322562Y-13247984D01*
X7522562Y-13047984D02*
X7541610Y-13047984D01*
X7541610Y-13047984D02*
X7560658Y-13057508D01*
X7560658Y-13057508D02*
X7570182Y-13067031D01*
X7570182Y-13067031D02*
X7579705Y-13086079D01*
X7579705Y-13086079D02*
X7589229Y-13124174D01*
X7589229Y-13124174D02*
X7589229Y-13171793D01*
X7589229Y-13171793D02*
X7579705Y-13209888D01*
X7579705Y-13209888D02*
X7570182Y-13228936D01*
X7570182Y-13228936D02*
X7560658Y-13238460D01*
X7560658Y-13238460D02*
X7541610Y-13247984D01*
X7541610Y-13247984D02*
X7522562Y-13247984D01*
X7522562Y-13247984D02*
X7503515Y-13238460D01*
X7503515Y-13238460D02*
X7493991Y-13228936D01*
X7493991Y-13228936D02*
X7484467Y-13209888D01*
X7484467Y-13209888D02*
X7474943Y-13171793D01*
X7474943Y-13171793D02*
X7474943Y-13124174D01*
X7474943Y-13124174D02*
X7484467Y-13086079D01*
X7484467Y-13086079D02*
X7493991Y-13067031D01*
X7493991Y-13067031D02*
X7503515Y-13057508D01*
X7503515Y-13057508D02*
X7522562Y-13047984D01*
X7713039Y-13047984D02*
X7732086Y-13047984D01*
X7732086Y-13047984D02*
X7751134Y-13057508D01*
X7751134Y-13057508D02*
X7760658Y-13067031D01*
X7760658Y-13067031D02*
X7770182Y-13086079D01*
X7770182Y-13086079D02*
X7779705Y-13124174D01*
X7779705Y-13124174D02*
X7779705Y-13171793D01*
X7779705Y-13171793D02*
X7770182Y-13209888D01*
X7770182Y-13209888D02*
X7760658Y-13228936D01*
X7760658Y-13228936D02*
X7751134Y-13238460D01*
X7751134Y-13238460D02*
X7732086Y-13247984D01*
X7732086Y-13247984D02*
X7713039Y-13247984D01*
X7713039Y-13247984D02*
X7693991Y-13238460D01*
X7693991Y-13238460D02*
X7684467Y-13228936D01*
X7684467Y-13228936D02*
X7674943Y-13209888D01*
X7674943Y-13209888D02*
X7665420Y-13171793D01*
X7665420Y-13171793D02*
X7665420Y-13124174D01*
X7665420Y-13124174D02*
X7674943Y-13086079D01*
X7674943Y-13086079D02*
X7684467Y-13067031D01*
X7684467Y-13067031D02*
X7693991Y-13057508D01*
X7693991Y-13057508D02*
X7713039Y-13047984D01*
X7865420Y-13247984D02*
X7865420Y-13114650D01*
X7865420Y-13133698D02*
X7874943Y-13124174D01*
X7874943Y-13124174D02*
X7893991Y-13114650D01*
X7893991Y-13114650D02*
X7922563Y-13114650D01*
X7922563Y-13114650D02*
X7941610Y-13124174D01*
X7941610Y-13124174D02*
X7951134Y-13143222D01*
X7951134Y-13143222D02*
X7951134Y-13247984D01*
X7951134Y-13143222D02*
X7960658Y-13124174D01*
X7960658Y-13124174D02*
X7979705Y-13114650D01*
X7979705Y-13114650D02*
X8008277Y-13114650D01*
X8008277Y-13114650D02*
X8027324Y-13124174D01*
X8027324Y-13124174D02*
X8036848Y-13143222D01*
X8036848Y-13143222D02*
X8036848Y-13247984D01*
X8132086Y-13247984D02*
X8132086Y-13114650D01*
X8132086Y-13133698D02*
X8141610Y-13124174D01*
X8141610Y-13124174D02*
X8160658Y-13114650D01*
X8160658Y-13114650D02*
X8189229Y-13114650D01*
X8189229Y-13114650D02*
X8208277Y-13124174D01*
X8208277Y-13124174D02*
X8217801Y-13143222D01*
X8217801Y-13143222D02*
X8217801Y-13247984D01*
X8217801Y-13143222D02*
X8227324Y-13124174D01*
X8227324Y-13124174D02*
X8246372Y-13114650D01*
X8246372Y-13114650D02*
X8274943Y-13114650D01*
X8274943Y-13114650D02*
X8293991Y-13124174D01*
X8293991Y-13124174D02*
X8303515Y-13143222D01*
X8303515Y-13143222D02*
X8303515Y-13247984D01*
X8693991Y-13038460D02*
X8522563Y-13295603D01*
X8951134Y-13047984D02*
X8970182Y-13047984D01*
X8970182Y-13047984D02*
X8989229Y-13057508D01*
X8989229Y-13057508D02*
X8998753Y-13067031D01*
X8998753Y-13067031D02*
X9008277Y-13086079D01*
X9008277Y-13086079D02*
X9017801Y-13124174D01*
X9017801Y-13124174D02*
X9017801Y-13171793D01*
X9017801Y-13171793D02*
X9008277Y-13209888D01*
X9008277Y-13209888D02*
X8998753Y-13228936D01*
X8998753Y-13228936D02*
X8989229Y-13238460D01*
X8989229Y-13238460D02*
X8970182Y-13247984D01*
X8970182Y-13247984D02*
X8951134Y-13247984D01*
X8951134Y-13247984D02*
X8932087Y-13238460D01*
X8932087Y-13238460D02*
X8922563Y-13228936D01*
X8922563Y-13228936D02*
X8913039Y-13209888D01*
X8913039Y-13209888D02*
X8903515Y-13171793D01*
X8903515Y-13171793D02*
X8903515Y-13124174D01*
X8903515Y-13124174D02*
X8913039Y-13086079D01*
X8913039Y-13086079D02*
X8922563Y-13067031D01*
X8922563Y-13067031D02*
X8932087Y-13057508D01*
X8932087Y-13057508D02*
X8951134Y-13047984D01*
X9103515Y-13228936D02*
X9113039Y-13238460D01*
X9113039Y-13238460D02*
X9103515Y-13247984D01*
X9103515Y-13247984D02*
X9093991Y-13238460D01*
X9093991Y-13238460D02*
X9103515Y-13228936D01*
X9103515Y-13228936D02*
X9103515Y-13247984D01*
X9236848Y-13047984D02*
X9255896Y-13047984D01*
X9255896Y-13047984D02*
X9274944Y-13057508D01*
X9274944Y-13057508D02*
X9284468Y-13067031D01*
X9284468Y-13067031D02*
X9293991Y-13086079D01*
X9293991Y-13086079D02*
X9303515Y-13124174D01*
X9303515Y-13124174D02*
X9303515Y-13171793D01*
X9303515Y-13171793D02*
X9293991Y-13209888D01*
X9293991Y-13209888D02*
X9284468Y-13228936D01*
X9284468Y-13228936D02*
X9274944Y-13238460D01*
X9274944Y-13238460D02*
X9255896Y-13247984D01*
X9255896Y-13247984D02*
X9236848Y-13247984D01*
X9236848Y-13247984D02*
X9217801Y-13238460D01*
X9217801Y-13238460D02*
X9208277Y-13228936D01*
X9208277Y-13228936D02*
X9198753Y-13209888D01*
X9198753Y-13209888D02*
X9189229Y-13171793D01*
X9189229Y-13171793D02*
X9189229Y-13124174D01*
X9189229Y-13124174D02*
X9198753Y-13086079D01*
X9198753Y-13086079D02*
X9208277Y-13067031D01*
X9208277Y-13067031D02*
X9217801Y-13057508D01*
X9217801Y-13057508D02*
X9236848Y-13047984D01*
X9379706Y-13067031D02*
X9389229Y-13057508D01*
X9389229Y-13057508D02*
X9408277Y-13047984D01*
X9408277Y-13047984D02*
X9455896Y-13047984D01*
X9455896Y-13047984D02*
X9474944Y-13057508D01*
X9474944Y-13057508D02*
X9484468Y-13067031D01*
X9484468Y-13067031D02*
X9493991Y-13086079D01*
X9493991Y-13086079D02*
X9493991Y-13105127D01*
X9493991Y-13105127D02*
X9484468Y-13133698D01*
X9484468Y-13133698D02*
X9370182Y-13247984D01*
X9370182Y-13247984D02*
X9493991Y-13247984D01*
X9560658Y-13047984D02*
X9693991Y-13047984D01*
X9693991Y-13047984D02*
X9608277Y-13247984D01*
X9855896Y-13047984D02*
X9817801Y-13047984D01*
X9817801Y-13047984D02*
X9798753Y-13057508D01*
X9798753Y-13057508D02*
X9789229Y-13067031D01*
X9789229Y-13067031D02*
X9770182Y-13095603D01*
X9770182Y-13095603D02*
X9760658Y-13133698D01*
X9760658Y-13133698D02*
X9760658Y-13209888D01*
X9760658Y-13209888D02*
X9770182Y-13228936D01*
X9770182Y-13228936D02*
X9779706Y-13238460D01*
X9779706Y-13238460D02*
X9798753Y-13247984D01*
X9798753Y-13247984D02*
X9836849Y-13247984D01*
X9836849Y-13247984D02*
X9855896Y-13238460D01*
X9855896Y-13238460D02*
X9865420Y-13228936D01*
X9865420Y-13228936D02*
X9874944Y-13209888D01*
X9874944Y-13209888D02*
X9874944Y-13162269D01*
X9874944Y-13162269D02*
X9865420Y-13143222D01*
X9865420Y-13143222D02*
X9855896Y-13133698D01*
X9855896Y-13133698D02*
X9836849Y-13124174D01*
X9836849Y-13124174D02*
X9798753Y-13124174D01*
X9798753Y-13124174D02*
X9779706Y-13133698D01*
X9779706Y-13133698D02*
X9770182Y-13143222D01*
X9770182Y-13143222D02*
X9760658Y-13162269D01*
X9951134Y-13047984D02*
X9951134Y-13086079D01*
X10027325Y-13047984D02*
X10027325Y-13086079D01*
X10322563Y-13324174D02*
X10313039Y-13314650D01*
X10313039Y-13314650D02*
X10293991Y-13286079D01*
X10293991Y-13286079D02*
X10284468Y-13267031D01*
X10284468Y-13267031D02*
X10274944Y-13238460D01*
X10274944Y-13238460D02*
X10265420Y-13190841D01*
X10265420Y-13190841D02*
X10265420Y-13152746D01*
X10265420Y-13152746D02*
X10274944Y-13105127D01*
X10274944Y-13105127D02*
X10284468Y-13076555D01*
X10284468Y-13076555D02*
X10293991Y-13057508D01*
X10293991Y-13057508D02*
X10313039Y-13028936D01*
X10313039Y-13028936D02*
X10322563Y-13019412D01*
X10484468Y-13047984D02*
X10446372Y-13047984D01*
X10446372Y-13047984D02*
X10427325Y-13057508D01*
X10427325Y-13057508D02*
X10417801Y-13067031D01*
X10417801Y-13067031D02*
X10398753Y-13095603D01*
X10398753Y-13095603D02*
X10389230Y-13133698D01*
X10389230Y-13133698D02*
X10389230Y-13209888D01*
X10389230Y-13209888D02*
X10398753Y-13228936D01*
X10398753Y-13228936D02*
X10408277Y-13238460D01*
X10408277Y-13238460D02*
X10427325Y-13247984D01*
X10427325Y-13247984D02*
X10465420Y-13247984D01*
X10465420Y-13247984D02*
X10484468Y-13238460D01*
X10484468Y-13238460D02*
X10493991Y-13228936D01*
X10493991Y-13228936D02*
X10503515Y-13209888D01*
X10503515Y-13209888D02*
X10503515Y-13162269D01*
X10503515Y-13162269D02*
X10493991Y-13143222D01*
X10493991Y-13143222D02*
X10484468Y-13133698D01*
X10484468Y-13133698D02*
X10465420Y-13124174D01*
X10465420Y-13124174D02*
X10427325Y-13124174D01*
X10427325Y-13124174D02*
X10408277Y-13133698D01*
X10408277Y-13133698D02*
X10398753Y-13143222D01*
X10398753Y-13143222D02*
X10389230Y-13162269D01*
X10741611Y-13247984D02*
X10741611Y-13047984D01*
X10827325Y-13247984D02*
X10827325Y-13143222D01*
X10827325Y-13143222D02*
X10817801Y-13124174D01*
X10817801Y-13124174D02*
X10798753Y-13114650D01*
X10798753Y-13114650D02*
X10770182Y-13114650D01*
X10770182Y-13114650D02*
X10751134Y-13124174D01*
X10751134Y-13124174D02*
X10741611Y-13133698D01*
X10951134Y-13247984D02*
X10932087Y-13238460D01*
X10932087Y-13238460D02*
X10922563Y-13228936D01*
X10922563Y-13228936D02*
X10913039Y-13209888D01*
X10913039Y-13209888D02*
X10913039Y-13152746D01*
X10913039Y-13152746D02*
X10922563Y-13133698D01*
X10922563Y-13133698D02*
X10932087Y-13124174D01*
X10932087Y-13124174D02*
X10951134Y-13114650D01*
X10951134Y-13114650D02*
X10979706Y-13114650D01*
X10979706Y-13114650D02*
X10998753Y-13124174D01*
X10998753Y-13124174D02*
X11008277Y-13133698D01*
X11008277Y-13133698D02*
X11017801Y-13152746D01*
X11017801Y-13152746D02*
X11017801Y-13209888D01*
X11017801Y-13209888D02*
X11008277Y-13228936D01*
X11008277Y-13228936D02*
X10998753Y-13238460D01*
X10998753Y-13238460D02*
X10979706Y-13247984D01*
X10979706Y-13247984D02*
X10951134Y-13247984D01*
X11132087Y-13247984D02*
X11113039Y-13238460D01*
X11113039Y-13238460D02*
X11103515Y-13219412D01*
X11103515Y-13219412D02*
X11103515Y-13047984D01*
X11284468Y-13238460D02*
X11265420Y-13247984D01*
X11265420Y-13247984D02*
X11227325Y-13247984D01*
X11227325Y-13247984D02*
X11208277Y-13238460D01*
X11208277Y-13238460D02*
X11198753Y-13219412D01*
X11198753Y-13219412D02*
X11198753Y-13143222D01*
X11198753Y-13143222D02*
X11208277Y-13124174D01*
X11208277Y-13124174D02*
X11227325Y-13114650D01*
X11227325Y-13114650D02*
X11265420Y-13114650D01*
X11265420Y-13114650D02*
X11284468Y-13124174D01*
X11284468Y-13124174D02*
X11293991Y-13143222D01*
X11293991Y-13143222D02*
X11293991Y-13162269D01*
X11293991Y-13162269D02*
X11198753Y-13181317D01*
X11370182Y-13238460D02*
X11389230Y-13247984D01*
X11389230Y-13247984D02*
X11427325Y-13247984D01*
X11427325Y-13247984D02*
X11446372Y-13238460D01*
X11446372Y-13238460D02*
X11455896Y-13219412D01*
X11455896Y-13219412D02*
X11455896Y-13209888D01*
X11455896Y-13209888D02*
X11446372Y-13190841D01*
X11446372Y-13190841D02*
X11427325Y-13181317D01*
X11427325Y-13181317D02*
X11398753Y-13181317D01*
X11398753Y-13181317D02*
X11379706Y-13171793D01*
X11379706Y-13171793D02*
X11370182Y-13152746D01*
X11370182Y-13152746D02*
X11370182Y-13143222D01*
X11370182Y-13143222D02*
X11379706Y-13124174D01*
X11379706Y-13124174D02*
X11398753Y-13114650D01*
X11398753Y-13114650D02*
X11427325Y-13114650D01*
X11427325Y-13114650D02*
X11446372Y-13124174D01*
X11522563Y-13324174D02*
X11532087Y-13314650D01*
X11532087Y-13314650D02*
X11551134Y-13286079D01*
X11551134Y-13286079D02*
X11560658Y-13267031D01*
X11560658Y-13267031D02*
X11570182Y-13238460D01*
X11570182Y-13238460D02*
X11579706Y-13190841D01*
X11579706Y-13190841D02*
X11579706Y-13152746D01*
X11579706Y-13152746D02*
X11570182Y-13105127D01*
X11570182Y-13105127D02*
X11560658Y-13076555D01*
X11560658Y-13076555D02*
X11551134Y-13057508D01*
X11551134Y-13057508D02*
X11532087Y-13028936D01*
X11532087Y-13028936D02*
X11522563Y-13019412D01*
D12*
X6707500Y-13380500D02*
X6707500Y-13460500D01*
X6667500Y-13420500D02*
X6747500Y-13420500D01*
D11*
X7046372Y-13311984D02*
X7065420Y-13311984D01*
X7065420Y-13311984D02*
X7084467Y-13321508D01*
X7084467Y-13321508D02*
X7093991Y-13331031D01*
X7093991Y-13331031D02*
X7103515Y-13350079D01*
X7103515Y-13350079D02*
X7113039Y-13388174D01*
X7113039Y-13388174D02*
X7113039Y-13435793D01*
X7113039Y-13435793D02*
X7103515Y-13473888D01*
X7103515Y-13473888D02*
X7093991Y-13492936D01*
X7093991Y-13492936D02*
X7084467Y-13502460D01*
X7084467Y-13502460D02*
X7065420Y-13511984D01*
X7065420Y-13511984D02*
X7046372Y-13511984D01*
X7046372Y-13511984D02*
X7027324Y-13502460D01*
X7027324Y-13502460D02*
X7017801Y-13492936D01*
X7017801Y-13492936D02*
X7008277Y-13473888D01*
X7008277Y-13473888D02*
X6998753Y-13435793D01*
X6998753Y-13435793D02*
X6998753Y-13388174D01*
X6998753Y-13388174D02*
X7008277Y-13350079D01*
X7008277Y-13350079D02*
X7017801Y-13331031D01*
X7017801Y-13331031D02*
X7027324Y-13321508D01*
X7027324Y-13321508D02*
X7046372Y-13311984D01*
X7198753Y-13492936D02*
X7208277Y-13502460D01*
X7208277Y-13502460D02*
X7198753Y-13511984D01*
X7198753Y-13511984D02*
X7189229Y-13502460D01*
X7189229Y-13502460D02*
X7198753Y-13492936D01*
X7198753Y-13492936D02*
X7198753Y-13511984D01*
X7322562Y-13397698D02*
X7303515Y-13388174D01*
X7303515Y-13388174D02*
X7293991Y-13378650D01*
X7293991Y-13378650D02*
X7284467Y-13359603D01*
X7284467Y-13359603D02*
X7284467Y-13350079D01*
X7284467Y-13350079D02*
X7293991Y-13331031D01*
X7293991Y-13331031D02*
X7303515Y-13321508D01*
X7303515Y-13321508D02*
X7322562Y-13311984D01*
X7322562Y-13311984D02*
X7360658Y-13311984D01*
X7360658Y-13311984D02*
X7379705Y-13321508D01*
X7379705Y-13321508D02*
X7389229Y-13331031D01*
X7389229Y-13331031D02*
X7398753Y-13350079D01*
X7398753Y-13350079D02*
X7398753Y-13359603D01*
X7398753Y-13359603D02*
X7389229Y-13378650D01*
X7389229Y-13378650D02*
X7379705Y-13388174D01*
X7379705Y-13388174D02*
X7360658Y-13397698D01*
X7360658Y-13397698D02*
X7322562Y-13397698D01*
X7322562Y-13397698D02*
X7303515Y-13407222D01*
X7303515Y-13407222D02*
X7293991Y-13416746D01*
X7293991Y-13416746D02*
X7284467Y-13435793D01*
X7284467Y-13435793D02*
X7284467Y-13473888D01*
X7284467Y-13473888D02*
X7293991Y-13492936D01*
X7293991Y-13492936D02*
X7303515Y-13502460D01*
X7303515Y-13502460D02*
X7322562Y-13511984D01*
X7322562Y-13511984D02*
X7360658Y-13511984D01*
X7360658Y-13511984D02*
X7379705Y-13502460D01*
X7379705Y-13502460D02*
X7389229Y-13492936D01*
X7389229Y-13492936D02*
X7398753Y-13473888D01*
X7398753Y-13473888D02*
X7398753Y-13435793D01*
X7398753Y-13435793D02*
X7389229Y-13416746D01*
X7389229Y-13416746D02*
X7379705Y-13407222D01*
X7379705Y-13407222D02*
X7360658Y-13397698D01*
X7522562Y-13311984D02*
X7541610Y-13311984D01*
X7541610Y-13311984D02*
X7560658Y-13321508D01*
X7560658Y-13321508D02*
X7570182Y-13331031D01*
X7570182Y-13331031D02*
X7579705Y-13350079D01*
X7579705Y-13350079D02*
X7589229Y-13388174D01*
X7589229Y-13388174D02*
X7589229Y-13435793D01*
X7589229Y-13435793D02*
X7579705Y-13473888D01*
X7579705Y-13473888D02*
X7570182Y-13492936D01*
X7570182Y-13492936D02*
X7560658Y-13502460D01*
X7560658Y-13502460D02*
X7541610Y-13511984D01*
X7541610Y-13511984D02*
X7522562Y-13511984D01*
X7522562Y-13511984D02*
X7503515Y-13502460D01*
X7503515Y-13502460D02*
X7493991Y-13492936D01*
X7493991Y-13492936D02*
X7484467Y-13473888D01*
X7484467Y-13473888D02*
X7474943Y-13435793D01*
X7474943Y-13435793D02*
X7474943Y-13388174D01*
X7474943Y-13388174D02*
X7484467Y-13350079D01*
X7484467Y-13350079D02*
X7493991Y-13331031D01*
X7493991Y-13331031D02*
X7503515Y-13321508D01*
X7503515Y-13321508D02*
X7522562Y-13311984D01*
X7713039Y-13311984D02*
X7732086Y-13311984D01*
X7732086Y-13311984D02*
X7751134Y-13321508D01*
X7751134Y-13321508D02*
X7760658Y-13331031D01*
X7760658Y-13331031D02*
X7770182Y-13350079D01*
X7770182Y-13350079D02*
X7779705Y-13388174D01*
X7779705Y-13388174D02*
X7779705Y-13435793D01*
X7779705Y-13435793D02*
X7770182Y-13473888D01*
X7770182Y-13473888D02*
X7760658Y-13492936D01*
X7760658Y-13492936D02*
X7751134Y-13502460D01*
X7751134Y-13502460D02*
X7732086Y-13511984D01*
X7732086Y-13511984D02*
X7713039Y-13511984D01*
X7713039Y-13511984D02*
X7693991Y-13502460D01*
X7693991Y-13502460D02*
X7684467Y-13492936D01*
X7684467Y-13492936D02*
X7674943Y-13473888D01*
X7674943Y-13473888D02*
X7665420Y-13435793D01*
X7665420Y-13435793D02*
X7665420Y-13388174D01*
X7665420Y-13388174D02*
X7674943Y-13350079D01*
X7674943Y-13350079D02*
X7684467Y-13331031D01*
X7684467Y-13331031D02*
X7693991Y-13321508D01*
X7693991Y-13321508D02*
X7713039Y-13311984D01*
X7865420Y-13511984D02*
X7865420Y-13378650D01*
X7865420Y-13397698D02*
X7874943Y-13388174D01*
X7874943Y-13388174D02*
X7893991Y-13378650D01*
X7893991Y-13378650D02*
X7922563Y-13378650D01*
X7922563Y-13378650D02*
X7941610Y-13388174D01*
X7941610Y-13388174D02*
X7951134Y-13407222D01*
X7951134Y-13407222D02*
X7951134Y-13511984D01*
X7951134Y-13407222D02*
X7960658Y-13388174D01*
X7960658Y-13388174D02*
X7979705Y-13378650D01*
X7979705Y-13378650D02*
X8008277Y-13378650D01*
X8008277Y-13378650D02*
X8027324Y-13388174D01*
X8027324Y-13388174D02*
X8036848Y-13407222D01*
X8036848Y-13407222D02*
X8036848Y-13511984D01*
X8132086Y-13511984D02*
X8132086Y-13378650D01*
X8132086Y-13397698D02*
X8141610Y-13388174D01*
X8141610Y-13388174D02*
X8160658Y-13378650D01*
X8160658Y-13378650D02*
X8189229Y-13378650D01*
X8189229Y-13378650D02*
X8208277Y-13388174D01*
X8208277Y-13388174D02*
X8217801Y-13407222D01*
X8217801Y-13407222D02*
X8217801Y-13511984D01*
X8217801Y-13407222D02*
X8227324Y-13388174D01*
X8227324Y-13388174D02*
X8246372Y-13378650D01*
X8246372Y-13378650D02*
X8274943Y-13378650D01*
X8274943Y-13378650D02*
X8293991Y-13388174D01*
X8293991Y-13388174D02*
X8303515Y-13407222D01*
X8303515Y-13407222D02*
X8303515Y-13511984D01*
X8693991Y-13302460D02*
X8522563Y-13559603D01*
X8951134Y-13311984D02*
X8970182Y-13311984D01*
X8970182Y-13311984D02*
X8989229Y-13321508D01*
X8989229Y-13321508D02*
X8998753Y-13331031D01*
X8998753Y-13331031D02*
X9008277Y-13350079D01*
X9008277Y-13350079D02*
X9017801Y-13388174D01*
X9017801Y-13388174D02*
X9017801Y-13435793D01*
X9017801Y-13435793D02*
X9008277Y-13473888D01*
X9008277Y-13473888D02*
X8998753Y-13492936D01*
X8998753Y-13492936D02*
X8989229Y-13502460D01*
X8989229Y-13502460D02*
X8970182Y-13511984D01*
X8970182Y-13511984D02*
X8951134Y-13511984D01*
X8951134Y-13511984D02*
X8932087Y-13502460D01*
X8932087Y-13502460D02*
X8922563Y-13492936D01*
X8922563Y-13492936D02*
X8913039Y-13473888D01*
X8913039Y-13473888D02*
X8903515Y-13435793D01*
X8903515Y-13435793D02*
X8903515Y-13388174D01*
X8903515Y-13388174D02*
X8913039Y-13350079D01*
X8913039Y-13350079D02*
X8922563Y-13331031D01*
X8922563Y-13331031D02*
X8932087Y-13321508D01*
X8932087Y-13321508D02*
X8951134Y-13311984D01*
X9103515Y-13492936D02*
X9113039Y-13502460D01*
X9113039Y-13502460D02*
X9103515Y-13511984D01*
X9103515Y-13511984D02*
X9093991Y-13502460D01*
X9093991Y-13502460D02*
X9103515Y-13492936D01*
X9103515Y-13492936D02*
X9103515Y-13511984D01*
X9236848Y-13311984D02*
X9255896Y-13311984D01*
X9255896Y-13311984D02*
X9274944Y-13321508D01*
X9274944Y-13321508D02*
X9284468Y-13331031D01*
X9284468Y-13331031D02*
X9293991Y-13350079D01*
X9293991Y-13350079D02*
X9303515Y-13388174D01*
X9303515Y-13388174D02*
X9303515Y-13435793D01*
X9303515Y-13435793D02*
X9293991Y-13473888D01*
X9293991Y-13473888D02*
X9284468Y-13492936D01*
X9284468Y-13492936D02*
X9274944Y-13502460D01*
X9274944Y-13502460D02*
X9255896Y-13511984D01*
X9255896Y-13511984D02*
X9236848Y-13511984D01*
X9236848Y-13511984D02*
X9217801Y-13502460D01*
X9217801Y-13502460D02*
X9208277Y-13492936D01*
X9208277Y-13492936D02*
X9198753Y-13473888D01*
X9198753Y-13473888D02*
X9189229Y-13435793D01*
X9189229Y-13435793D02*
X9189229Y-13388174D01*
X9189229Y-13388174D02*
X9198753Y-13350079D01*
X9198753Y-13350079D02*
X9208277Y-13331031D01*
X9208277Y-13331031D02*
X9217801Y-13321508D01*
X9217801Y-13321508D02*
X9236848Y-13311984D01*
X9370182Y-13311984D02*
X9493991Y-13311984D01*
X9493991Y-13311984D02*
X9427325Y-13388174D01*
X9427325Y-13388174D02*
X9455896Y-13388174D01*
X9455896Y-13388174D02*
X9474944Y-13397698D01*
X9474944Y-13397698D02*
X9484468Y-13407222D01*
X9484468Y-13407222D02*
X9493991Y-13426269D01*
X9493991Y-13426269D02*
X9493991Y-13473888D01*
X9493991Y-13473888D02*
X9484468Y-13492936D01*
X9484468Y-13492936D02*
X9474944Y-13502460D01*
X9474944Y-13502460D02*
X9455896Y-13511984D01*
X9455896Y-13511984D02*
X9398753Y-13511984D01*
X9398753Y-13511984D02*
X9379706Y-13502460D01*
X9379706Y-13502460D02*
X9370182Y-13492936D01*
X9684468Y-13511984D02*
X9570182Y-13511984D01*
X9627325Y-13511984D02*
X9627325Y-13311984D01*
X9627325Y-13311984D02*
X9608277Y-13340555D01*
X9608277Y-13340555D02*
X9589229Y-13359603D01*
X9589229Y-13359603D02*
X9570182Y-13369127D01*
X9865420Y-13311984D02*
X9770182Y-13311984D01*
X9770182Y-13311984D02*
X9760658Y-13407222D01*
X9760658Y-13407222D02*
X9770182Y-13397698D01*
X9770182Y-13397698D02*
X9789229Y-13388174D01*
X9789229Y-13388174D02*
X9836849Y-13388174D01*
X9836849Y-13388174D02*
X9855896Y-13397698D01*
X9855896Y-13397698D02*
X9865420Y-13407222D01*
X9865420Y-13407222D02*
X9874944Y-13426269D01*
X9874944Y-13426269D02*
X9874944Y-13473888D01*
X9874944Y-13473888D02*
X9865420Y-13492936D01*
X9865420Y-13492936D02*
X9855896Y-13502460D01*
X9855896Y-13502460D02*
X9836849Y-13511984D01*
X9836849Y-13511984D02*
X9789229Y-13511984D01*
X9789229Y-13511984D02*
X9770182Y-13502460D01*
X9770182Y-13502460D02*
X9760658Y-13492936D01*
X9951134Y-13311984D02*
X9951134Y-13350079D01*
X10027325Y-13311984D02*
X10027325Y-13350079D01*
X10322563Y-13588174D02*
X10313039Y-13578650D01*
X10313039Y-13578650D02*
X10293991Y-13550079D01*
X10293991Y-13550079D02*
X10284468Y-13531031D01*
X10284468Y-13531031D02*
X10274944Y-13502460D01*
X10274944Y-13502460D02*
X10265420Y-13454841D01*
X10265420Y-13454841D02*
X10265420Y-13416746D01*
X10265420Y-13416746D02*
X10274944Y-13369127D01*
X10274944Y-13369127D02*
X10284468Y-13340555D01*
X10284468Y-13340555D02*
X10293991Y-13321508D01*
X10293991Y-13321508D02*
X10313039Y-13292936D01*
X10313039Y-13292936D02*
X10322563Y-13283412D01*
X10493991Y-13311984D02*
X10398753Y-13311984D01*
X10398753Y-13311984D02*
X10389230Y-13407222D01*
X10389230Y-13407222D02*
X10398753Y-13397698D01*
X10398753Y-13397698D02*
X10417801Y-13388174D01*
X10417801Y-13388174D02*
X10465420Y-13388174D01*
X10465420Y-13388174D02*
X10484468Y-13397698D01*
X10484468Y-13397698D02*
X10493991Y-13407222D01*
X10493991Y-13407222D02*
X10503515Y-13426269D01*
X10503515Y-13426269D02*
X10503515Y-13473888D01*
X10503515Y-13473888D02*
X10493991Y-13492936D01*
X10493991Y-13492936D02*
X10484468Y-13502460D01*
X10484468Y-13502460D02*
X10465420Y-13511984D01*
X10465420Y-13511984D02*
X10417801Y-13511984D01*
X10417801Y-13511984D02*
X10398753Y-13502460D01*
X10398753Y-13502460D02*
X10389230Y-13492936D01*
X10674944Y-13378650D02*
X10674944Y-13511984D01*
X10627325Y-13302460D02*
X10579706Y-13445317D01*
X10579706Y-13445317D02*
X10703515Y-13445317D01*
X10932087Y-13511984D02*
X10932087Y-13311984D01*
X11017801Y-13511984D02*
X11017801Y-13407222D01*
X11017801Y-13407222D02*
X11008277Y-13388174D01*
X11008277Y-13388174D02*
X10989230Y-13378650D01*
X10989230Y-13378650D02*
X10960658Y-13378650D01*
X10960658Y-13378650D02*
X10941611Y-13388174D01*
X10941611Y-13388174D02*
X10932087Y-13397698D01*
X11141611Y-13511984D02*
X11122563Y-13502460D01*
X11122563Y-13502460D02*
X11113039Y-13492936D01*
X11113039Y-13492936D02*
X11103515Y-13473888D01*
X11103515Y-13473888D02*
X11103515Y-13416746D01*
X11103515Y-13416746D02*
X11113039Y-13397698D01*
X11113039Y-13397698D02*
X11122563Y-13388174D01*
X11122563Y-13388174D02*
X11141611Y-13378650D01*
X11141611Y-13378650D02*
X11170182Y-13378650D01*
X11170182Y-13378650D02*
X11189230Y-13388174D01*
X11189230Y-13388174D02*
X11198753Y-13397698D01*
X11198753Y-13397698D02*
X11208277Y-13416746D01*
X11208277Y-13416746D02*
X11208277Y-13473888D01*
X11208277Y-13473888D02*
X11198753Y-13492936D01*
X11198753Y-13492936D02*
X11189230Y-13502460D01*
X11189230Y-13502460D02*
X11170182Y-13511984D01*
X11170182Y-13511984D02*
X11141611Y-13511984D01*
X11322563Y-13511984D02*
X11303515Y-13502460D01*
X11303515Y-13502460D02*
X11293991Y-13483412D01*
X11293991Y-13483412D02*
X11293991Y-13311984D01*
X11474944Y-13502460D02*
X11455896Y-13511984D01*
X11455896Y-13511984D02*
X11417801Y-13511984D01*
X11417801Y-13511984D02*
X11398753Y-13502460D01*
X11398753Y-13502460D02*
X11389230Y-13483412D01*
X11389230Y-13483412D02*
X11389230Y-13407222D01*
X11389230Y-13407222D02*
X11398753Y-13388174D01*
X11398753Y-13388174D02*
X11417801Y-13378650D01*
X11417801Y-13378650D02*
X11455896Y-13378650D01*
X11455896Y-13378650D02*
X11474944Y-13388174D01*
X11474944Y-13388174D02*
X11484468Y-13407222D01*
X11484468Y-13407222D02*
X11484468Y-13426269D01*
X11484468Y-13426269D02*
X11389230Y-13445317D01*
X11560658Y-13502460D02*
X11579706Y-13511984D01*
X11579706Y-13511984D02*
X11617801Y-13511984D01*
X11617801Y-13511984D02*
X11636849Y-13502460D01*
X11636849Y-13502460D02*
X11646372Y-13483412D01*
X11646372Y-13483412D02*
X11646372Y-13473888D01*
X11646372Y-13473888D02*
X11636849Y-13454841D01*
X11636849Y-13454841D02*
X11617801Y-13445317D01*
X11617801Y-13445317D02*
X11589230Y-13445317D01*
X11589230Y-13445317D02*
X11570182Y-13435793D01*
X11570182Y-13435793D02*
X11560658Y-13416746D01*
X11560658Y-13416746D02*
X11560658Y-13407222D01*
X11560658Y-13407222D02*
X11570182Y-13388174D01*
X11570182Y-13388174D02*
X11589230Y-13378650D01*
X11589230Y-13378650D02*
X11617801Y-13378650D01*
X11617801Y-13378650D02*
X11636849Y-13388174D01*
X11713039Y-13588174D02*
X11722563Y-13578650D01*
X11722563Y-13578650D02*
X11741611Y-13550079D01*
X11741611Y-13550079D02*
X11751134Y-13531031D01*
X11751134Y-13531031D02*
X11760658Y-13502460D01*
X11760658Y-13502460D02*
X11770182Y-13454841D01*
X11770182Y-13454841D02*
X11770182Y-13416746D01*
X11770182Y-13416746D02*
X11760658Y-13369127D01*
X11760658Y-13369127D02*
X11751134Y-13340555D01*
X11751134Y-13340555D02*
X11741611Y-13321508D01*
X11741611Y-13321508D02*
X11722563Y-13292936D01*
X11722563Y-13292936D02*
X11713039Y-13283412D01*
D12*
X6732856Y-13719856D02*
X6732856Y-13649144D01*
X6662144Y-13649144D01*
X6662144Y-13719856D01*
X6732856Y-13719856D01*
D11*
X7113039Y-13775984D02*
X6998753Y-13775984D01*
X7055896Y-13775984D02*
X7055896Y-13575984D01*
X7055896Y-13575984D02*
X7036848Y-13604555D01*
X7036848Y-13604555D02*
X7017801Y-13623603D01*
X7017801Y-13623603D02*
X6998753Y-13633127D01*
X7198753Y-13756936D02*
X7208277Y-13766460D01*
X7208277Y-13766460D02*
X7198753Y-13775984D01*
X7198753Y-13775984D02*
X7189229Y-13766460D01*
X7189229Y-13766460D02*
X7198753Y-13756936D01*
X7198753Y-13756936D02*
X7198753Y-13775984D01*
X7332086Y-13575984D02*
X7351134Y-13575984D01*
X7351134Y-13575984D02*
X7370182Y-13585508D01*
X7370182Y-13585508D02*
X7379705Y-13595031D01*
X7379705Y-13595031D02*
X7389229Y-13614079D01*
X7389229Y-13614079D02*
X7398753Y-13652174D01*
X7398753Y-13652174D02*
X7398753Y-13699793D01*
X7398753Y-13699793D02*
X7389229Y-13737888D01*
X7389229Y-13737888D02*
X7379705Y-13756936D01*
X7379705Y-13756936D02*
X7370182Y-13766460D01*
X7370182Y-13766460D02*
X7351134Y-13775984D01*
X7351134Y-13775984D02*
X7332086Y-13775984D01*
X7332086Y-13775984D02*
X7313039Y-13766460D01*
X7313039Y-13766460D02*
X7303515Y-13756936D01*
X7303515Y-13756936D02*
X7293991Y-13737888D01*
X7293991Y-13737888D02*
X7284467Y-13699793D01*
X7284467Y-13699793D02*
X7284467Y-13652174D01*
X7284467Y-13652174D02*
X7293991Y-13614079D01*
X7293991Y-13614079D02*
X7303515Y-13595031D01*
X7303515Y-13595031D02*
X7313039Y-13585508D01*
X7313039Y-13585508D02*
X7332086Y-13575984D01*
X7522562Y-13575984D02*
X7541610Y-13575984D01*
X7541610Y-13575984D02*
X7560658Y-13585508D01*
X7560658Y-13585508D02*
X7570182Y-13595031D01*
X7570182Y-13595031D02*
X7579705Y-13614079D01*
X7579705Y-13614079D02*
X7589229Y-13652174D01*
X7589229Y-13652174D02*
X7589229Y-13699793D01*
X7589229Y-13699793D02*
X7579705Y-13737888D01*
X7579705Y-13737888D02*
X7570182Y-13756936D01*
X7570182Y-13756936D02*
X7560658Y-13766460D01*
X7560658Y-13766460D02*
X7541610Y-13775984D01*
X7541610Y-13775984D02*
X7522562Y-13775984D01*
X7522562Y-13775984D02*
X7503515Y-13766460D01*
X7503515Y-13766460D02*
X7493991Y-13756936D01*
X7493991Y-13756936D02*
X7484467Y-13737888D01*
X7484467Y-13737888D02*
X7474943Y-13699793D01*
X7474943Y-13699793D02*
X7474943Y-13652174D01*
X7474943Y-13652174D02*
X7484467Y-13614079D01*
X7484467Y-13614079D02*
X7493991Y-13595031D01*
X7493991Y-13595031D02*
X7503515Y-13585508D01*
X7503515Y-13585508D02*
X7522562Y-13575984D01*
X7713039Y-13575984D02*
X7732086Y-13575984D01*
X7732086Y-13575984D02*
X7751134Y-13585508D01*
X7751134Y-13585508D02*
X7760658Y-13595031D01*
X7760658Y-13595031D02*
X7770182Y-13614079D01*
X7770182Y-13614079D02*
X7779705Y-13652174D01*
X7779705Y-13652174D02*
X7779705Y-13699793D01*
X7779705Y-13699793D02*
X7770182Y-13737888D01*
X7770182Y-13737888D02*
X7760658Y-13756936D01*
X7760658Y-13756936D02*
X7751134Y-13766460D01*
X7751134Y-13766460D02*
X7732086Y-13775984D01*
X7732086Y-13775984D02*
X7713039Y-13775984D01*
X7713039Y-13775984D02*
X7693991Y-13766460D01*
X7693991Y-13766460D02*
X7684467Y-13756936D01*
X7684467Y-13756936D02*
X7674943Y-13737888D01*
X7674943Y-13737888D02*
X7665420Y-13699793D01*
X7665420Y-13699793D02*
X7665420Y-13652174D01*
X7665420Y-13652174D02*
X7674943Y-13614079D01*
X7674943Y-13614079D02*
X7684467Y-13595031D01*
X7684467Y-13595031D02*
X7693991Y-13585508D01*
X7693991Y-13585508D02*
X7713039Y-13575984D01*
X7865420Y-13775984D02*
X7865420Y-13642650D01*
X7865420Y-13661698D02*
X7874943Y-13652174D01*
X7874943Y-13652174D02*
X7893991Y-13642650D01*
X7893991Y-13642650D02*
X7922563Y-13642650D01*
X7922563Y-13642650D02*
X7941610Y-13652174D01*
X7941610Y-13652174D02*
X7951134Y-13671222D01*
X7951134Y-13671222D02*
X7951134Y-13775984D01*
X7951134Y-13671222D02*
X7960658Y-13652174D01*
X7960658Y-13652174D02*
X7979705Y-13642650D01*
X7979705Y-13642650D02*
X8008277Y-13642650D01*
X8008277Y-13642650D02*
X8027324Y-13652174D01*
X8027324Y-13652174D02*
X8036848Y-13671222D01*
X8036848Y-13671222D02*
X8036848Y-13775984D01*
X8132086Y-13775984D02*
X8132086Y-13642650D01*
X8132086Y-13661698D02*
X8141610Y-13652174D01*
X8141610Y-13652174D02*
X8160658Y-13642650D01*
X8160658Y-13642650D02*
X8189229Y-13642650D01*
X8189229Y-13642650D02*
X8208277Y-13652174D01*
X8208277Y-13652174D02*
X8217801Y-13671222D01*
X8217801Y-13671222D02*
X8217801Y-13775984D01*
X8217801Y-13671222D02*
X8227324Y-13652174D01*
X8227324Y-13652174D02*
X8246372Y-13642650D01*
X8246372Y-13642650D02*
X8274943Y-13642650D01*
X8274943Y-13642650D02*
X8293991Y-13652174D01*
X8293991Y-13652174D02*
X8303515Y-13671222D01*
X8303515Y-13671222D02*
X8303515Y-13775984D01*
X8693991Y-13566460D02*
X8522563Y-13823603D01*
X8951134Y-13575984D02*
X8970182Y-13575984D01*
X8970182Y-13575984D02*
X8989229Y-13585508D01*
X8989229Y-13585508D02*
X8998753Y-13595031D01*
X8998753Y-13595031D02*
X9008277Y-13614079D01*
X9008277Y-13614079D02*
X9017801Y-13652174D01*
X9017801Y-13652174D02*
X9017801Y-13699793D01*
X9017801Y-13699793D02*
X9008277Y-13737888D01*
X9008277Y-13737888D02*
X8998753Y-13756936D01*
X8998753Y-13756936D02*
X8989229Y-13766460D01*
X8989229Y-13766460D02*
X8970182Y-13775984D01*
X8970182Y-13775984D02*
X8951134Y-13775984D01*
X8951134Y-13775984D02*
X8932087Y-13766460D01*
X8932087Y-13766460D02*
X8922563Y-13756936D01*
X8922563Y-13756936D02*
X8913039Y-13737888D01*
X8913039Y-13737888D02*
X8903515Y-13699793D01*
X8903515Y-13699793D02*
X8903515Y-13652174D01*
X8903515Y-13652174D02*
X8913039Y-13614079D01*
X8913039Y-13614079D02*
X8922563Y-13595031D01*
X8922563Y-13595031D02*
X8932087Y-13585508D01*
X8932087Y-13585508D02*
X8951134Y-13575984D01*
X9103515Y-13756936D02*
X9113039Y-13766460D01*
X9113039Y-13766460D02*
X9103515Y-13775984D01*
X9103515Y-13775984D02*
X9093991Y-13766460D01*
X9093991Y-13766460D02*
X9103515Y-13756936D01*
X9103515Y-13756936D02*
X9103515Y-13775984D01*
X9236848Y-13575984D02*
X9255896Y-13575984D01*
X9255896Y-13575984D02*
X9274944Y-13585508D01*
X9274944Y-13585508D02*
X9284468Y-13595031D01*
X9284468Y-13595031D02*
X9293991Y-13614079D01*
X9293991Y-13614079D02*
X9303515Y-13652174D01*
X9303515Y-13652174D02*
X9303515Y-13699793D01*
X9303515Y-13699793D02*
X9293991Y-13737888D01*
X9293991Y-13737888D02*
X9284468Y-13756936D01*
X9284468Y-13756936D02*
X9274944Y-13766460D01*
X9274944Y-13766460D02*
X9255896Y-13775984D01*
X9255896Y-13775984D02*
X9236848Y-13775984D01*
X9236848Y-13775984D02*
X9217801Y-13766460D01*
X9217801Y-13766460D02*
X9208277Y-13756936D01*
X9208277Y-13756936D02*
X9198753Y-13737888D01*
X9198753Y-13737888D02*
X9189229Y-13699793D01*
X9189229Y-13699793D02*
X9189229Y-13652174D01*
X9189229Y-13652174D02*
X9198753Y-13614079D01*
X9198753Y-13614079D02*
X9208277Y-13595031D01*
X9208277Y-13595031D02*
X9217801Y-13585508D01*
X9217801Y-13585508D02*
X9236848Y-13575984D01*
X9370182Y-13575984D02*
X9493991Y-13575984D01*
X9493991Y-13575984D02*
X9427325Y-13652174D01*
X9427325Y-13652174D02*
X9455896Y-13652174D01*
X9455896Y-13652174D02*
X9474944Y-13661698D01*
X9474944Y-13661698D02*
X9484468Y-13671222D01*
X9484468Y-13671222D02*
X9493991Y-13690269D01*
X9493991Y-13690269D02*
X9493991Y-13737888D01*
X9493991Y-13737888D02*
X9484468Y-13756936D01*
X9484468Y-13756936D02*
X9474944Y-13766460D01*
X9474944Y-13766460D02*
X9455896Y-13775984D01*
X9455896Y-13775984D02*
X9398753Y-13775984D01*
X9398753Y-13775984D02*
X9379706Y-13766460D01*
X9379706Y-13766460D02*
X9370182Y-13756936D01*
X9589229Y-13775984D02*
X9627325Y-13775984D01*
X9627325Y-13775984D02*
X9646372Y-13766460D01*
X9646372Y-13766460D02*
X9655896Y-13756936D01*
X9655896Y-13756936D02*
X9674944Y-13728365D01*
X9674944Y-13728365D02*
X9684468Y-13690269D01*
X9684468Y-13690269D02*
X9684468Y-13614079D01*
X9684468Y-13614079D02*
X9674944Y-13595031D01*
X9674944Y-13595031D02*
X9665420Y-13585508D01*
X9665420Y-13585508D02*
X9646372Y-13575984D01*
X9646372Y-13575984D02*
X9608277Y-13575984D01*
X9608277Y-13575984D02*
X9589229Y-13585508D01*
X9589229Y-13585508D02*
X9579706Y-13595031D01*
X9579706Y-13595031D02*
X9570182Y-13614079D01*
X9570182Y-13614079D02*
X9570182Y-13661698D01*
X9570182Y-13661698D02*
X9579706Y-13680746D01*
X9579706Y-13680746D02*
X9589229Y-13690269D01*
X9589229Y-13690269D02*
X9608277Y-13699793D01*
X9608277Y-13699793D02*
X9646372Y-13699793D01*
X9646372Y-13699793D02*
X9665420Y-13690269D01*
X9665420Y-13690269D02*
X9674944Y-13680746D01*
X9674944Y-13680746D02*
X9684468Y-13661698D01*
X9855896Y-13642650D02*
X9855896Y-13775984D01*
X9808277Y-13566460D02*
X9760658Y-13709317D01*
X9760658Y-13709317D02*
X9884468Y-13709317D01*
X9951134Y-13575984D02*
X9951134Y-13614079D01*
X10027325Y-13575984D02*
X10027325Y-13614079D01*
X10322563Y-13852174D02*
X10313039Y-13842650D01*
X10313039Y-13842650D02*
X10293991Y-13814079D01*
X10293991Y-13814079D02*
X10284468Y-13795031D01*
X10284468Y-13795031D02*
X10274944Y-13766460D01*
X10274944Y-13766460D02*
X10265420Y-13718841D01*
X10265420Y-13718841D02*
X10265420Y-13680746D01*
X10265420Y-13680746D02*
X10274944Y-13633127D01*
X10274944Y-13633127D02*
X10284468Y-13604555D01*
X10284468Y-13604555D02*
X10293991Y-13585508D01*
X10293991Y-13585508D02*
X10313039Y-13556936D01*
X10313039Y-13556936D02*
X10322563Y-13547412D01*
X10427325Y-13661698D02*
X10408277Y-13652174D01*
X10408277Y-13652174D02*
X10398753Y-13642650D01*
X10398753Y-13642650D02*
X10389230Y-13623603D01*
X10389230Y-13623603D02*
X10389230Y-13614079D01*
X10389230Y-13614079D02*
X10398753Y-13595031D01*
X10398753Y-13595031D02*
X10408277Y-13585508D01*
X10408277Y-13585508D02*
X10427325Y-13575984D01*
X10427325Y-13575984D02*
X10465420Y-13575984D01*
X10465420Y-13575984D02*
X10484468Y-13585508D01*
X10484468Y-13585508D02*
X10493991Y-13595031D01*
X10493991Y-13595031D02*
X10503515Y-13614079D01*
X10503515Y-13614079D02*
X10503515Y-13623603D01*
X10503515Y-13623603D02*
X10493991Y-13642650D01*
X10493991Y-13642650D02*
X10484468Y-13652174D01*
X10484468Y-13652174D02*
X10465420Y-13661698D01*
X10465420Y-13661698D02*
X10427325Y-13661698D01*
X10427325Y-13661698D02*
X10408277Y-13671222D01*
X10408277Y-13671222D02*
X10398753Y-13680746D01*
X10398753Y-13680746D02*
X10389230Y-13699793D01*
X10389230Y-13699793D02*
X10389230Y-13737888D01*
X10389230Y-13737888D02*
X10398753Y-13756936D01*
X10398753Y-13756936D02*
X10408277Y-13766460D01*
X10408277Y-13766460D02*
X10427325Y-13775984D01*
X10427325Y-13775984D02*
X10465420Y-13775984D01*
X10465420Y-13775984D02*
X10484468Y-13766460D01*
X10484468Y-13766460D02*
X10493991Y-13756936D01*
X10493991Y-13756936D02*
X10503515Y-13737888D01*
X10503515Y-13737888D02*
X10503515Y-13699793D01*
X10503515Y-13699793D02*
X10493991Y-13680746D01*
X10493991Y-13680746D02*
X10484468Y-13671222D01*
X10484468Y-13671222D02*
X10465420Y-13661698D01*
X10693991Y-13775984D02*
X10579706Y-13775984D01*
X10636849Y-13775984D02*
X10636849Y-13575984D01*
X10636849Y-13575984D02*
X10617801Y-13604555D01*
X10617801Y-13604555D02*
X10598753Y-13623603D01*
X10598753Y-13623603D02*
X10579706Y-13633127D01*
X10932087Y-13775984D02*
X10932087Y-13575984D01*
X11017801Y-13775984D02*
X11017801Y-13671222D01*
X11017801Y-13671222D02*
X11008277Y-13652174D01*
X11008277Y-13652174D02*
X10989230Y-13642650D01*
X10989230Y-13642650D02*
X10960658Y-13642650D01*
X10960658Y-13642650D02*
X10941611Y-13652174D01*
X10941611Y-13652174D02*
X10932087Y-13661698D01*
X11141611Y-13775984D02*
X11122563Y-13766460D01*
X11122563Y-13766460D02*
X11113039Y-13756936D01*
X11113039Y-13756936D02*
X11103515Y-13737888D01*
X11103515Y-13737888D02*
X11103515Y-13680746D01*
X11103515Y-13680746D02*
X11113039Y-13661698D01*
X11113039Y-13661698D02*
X11122563Y-13652174D01*
X11122563Y-13652174D02*
X11141611Y-13642650D01*
X11141611Y-13642650D02*
X11170182Y-13642650D01*
X11170182Y-13642650D02*
X11189230Y-13652174D01*
X11189230Y-13652174D02*
X11198753Y-13661698D01*
X11198753Y-13661698D02*
X11208277Y-13680746D01*
X11208277Y-13680746D02*
X11208277Y-13737888D01*
X11208277Y-13737888D02*
X11198753Y-13756936D01*
X11198753Y-13756936D02*
X11189230Y-13766460D01*
X11189230Y-13766460D02*
X11170182Y-13775984D01*
X11170182Y-13775984D02*
X11141611Y-13775984D01*
X11322563Y-13775984D02*
X11303515Y-13766460D01*
X11303515Y-13766460D02*
X11293991Y-13747412D01*
X11293991Y-13747412D02*
X11293991Y-13575984D01*
X11474944Y-13766460D02*
X11455896Y-13775984D01*
X11455896Y-13775984D02*
X11417801Y-13775984D01*
X11417801Y-13775984D02*
X11398753Y-13766460D01*
X11398753Y-13766460D02*
X11389230Y-13747412D01*
X11389230Y-13747412D02*
X11389230Y-13671222D01*
X11389230Y-13671222D02*
X11398753Y-13652174D01*
X11398753Y-13652174D02*
X11417801Y-13642650D01*
X11417801Y-13642650D02*
X11455896Y-13642650D01*
X11455896Y-13642650D02*
X11474944Y-13652174D01*
X11474944Y-13652174D02*
X11484468Y-13671222D01*
X11484468Y-13671222D02*
X11484468Y-13690269D01*
X11484468Y-13690269D02*
X11389230Y-13709317D01*
X11560658Y-13766460D02*
X11579706Y-13775984D01*
X11579706Y-13775984D02*
X11617801Y-13775984D01*
X11617801Y-13775984D02*
X11636849Y-13766460D01*
X11636849Y-13766460D02*
X11646372Y-13747412D01*
X11646372Y-13747412D02*
X11646372Y-13737888D01*
X11646372Y-13737888D02*
X11636849Y-13718841D01*
X11636849Y-13718841D02*
X11617801Y-13709317D01*
X11617801Y-13709317D02*
X11589230Y-13709317D01*
X11589230Y-13709317D02*
X11570182Y-13699793D01*
X11570182Y-13699793D02*
X11560658Y-13680746D01*
X11560658Y-13680746D02*
X11560658Y-13671222D01*
X11560658Y-13671222D02*
X11570182Y-13652174D01*
X11570182Y-13652174D02*
X11589230Y-13642650D01*
X11589230Y-13642650D02*
X11617801Y-13642650D01*
X11617801Y-13642650D02*
X11636849Y-13652174D01*
X11713039Y-13852174D02*
X11722563Y-13842650D01*
X11722563Y-13842650D02*
X11741611Y-13814079D01*
X11741611Y-13814079D02*
X11751134Y-13795031D01*
X11751134Y-13795031D02*
X11760658Y-13766460D01*
X11760658Y-13766460D02*
X11770182Y-13718841D01*
X11770182Y-13718841D02*
X11770182Y-13680746D01*
X11770182Y-13680746D02*
X11760658Y-13633127D01*
X11760658Y-13633127D02*
X11751134Y-13604555D01*
X11751134Y-13604555D02*
X11741611Y-13585508D01*
X11741611Y-13585508D02*
X11722563Y-13556936D01*
X11722563Y-13556936D02*
X11713039Y-13547412D01*
M02*
