%TF.GenerationSoftware,KiCad,Pcbnew,9.0.4*%
%TF.CreationDate,2025-09-25T20:50:39+02:00*%
%TF.ProjectId,switchboard,73776974-6368-4626-9f61-72642e6b6963,rev?*%
%TF.SameCoordinates,Original*%
%TF.FileFunction,Drillmap*%
%TF.FilePolarity,Positive*%
%FSLAX45Y45*%
G04 Gerber Fmt 4.5, Leading zero omitted, Abs format (unit mm)*
G04 Created by KiCad (PCBNEW 9.0.4) date 2025-09-25 20:50:39*
%MOMM*%
%LPD*%
G01*
G04 APERTURE LIST*
%ADD10C,0.050000*%
%ADD11C,0.200000*%
G04 APERTURE END LIST*
D10*
X6750000Y-6000000D02*
X11750000Y-6000000D01*
X11750000Y-12250000D01*
X6750000Y-12250000D01*
X6750000Y-6000000D01*
D11*
X7008277Y-12563984D02*
X7008277Y-12363984D01*
X7008277Y-12363984D02*
X7055896Y-12363984D01*
X7055896Y-12363984D02*
X7084467Y-12373508D01*
X7084467Y-12373508D02*
X7103515Y-12392555D01*
X7103515Y-12392555D02*
X7113039Y-12411603D01*
X7113039Y-12411603D02*
X7122562Y-12449698D01*
X7122562Y-12449698D02*
X7122562Y-12478269D01*
X7122562Y-12478269D02*
X7113039Y-12516365D01*
X7113039Y-12516365D02*
X7103515Y-12535412D01*
X7103515Y-12535412D02*
X7084467Y-12554460D01*
X7084467Y-12554460D02*
X7055896Y-12563984D01*
X7055896Y-12563984D02*
X7008277Y-12563984D01*
X7208277Y-12563984D02*
X7208277Y-12430650D01*
X7208277Y-12468746D02*
X7217801Y-12449698D01*
X7217801Y-12449698D02*
X7227324Y-12440174D01*
X7227324Y-12440174D02*
X7246372Y-12430650D01*
X7246372Y-12430650D02*
X7265420Y-12430650D01*
X7332086Y-12563984D02*
X7332086Y-12430650D01*
X7332086Y-12363984D02*
X7322562Y-12373508D01*
X7322562Y-12373508D02*
X7332086Y-12383031D01*
X7332086Y-12383031D02*
X7341610Y-12373508D01*
X7341610Y-12373508D02*
X7332086Y-12363984D01*
X7332086Y-12363984D02*
X7332086Y-12383031D01*
X7455896Y-12563984D02*
X7436848Y-12554460D01*
X7436848Y-12554460D02*
X7427324Y-12535412D01*
X7427324Y-12535412D02*
X7427324Y-12363984D01*
X7560658Y-12563984D02*
X7541610Y-12554460D01*
X7541610Y-12554460D02*
X7532086Y-12535412D01*
X7532086Y-12535412D02*
X7532086Y-12363984D01*
X7789229Y-12563984D02*
X7789229Y-12363984D01*
X7789229Y-12363984D02*
X7855896Y-12506841D01*
X7855896Y-12506841D02*
X7922562Y-12363984D01*
X7922562Y-12363984D02*
X7922562Y-12563984D01*
X8103515Y-12563984D02*
X8103515Y-12459222D01*
X8103515Y-12459222D02*
X8093991Y-12440174D01*
X8093991Y-12440174D02*
X8074943Y-12430650D01*
X8074943Y-12430650D02*
X8036848Y-12430650D01*
X8036848Y-12430650D02*
X8017801Y-12440174D01*
X8103515Y-12554460D02*
X8084467Y-12563984D01*
X8084467Y-12563984D02*
X8036848Y-12563984D01*
X8036848Y-12563984D02*
X8017801Y-12554460D01*
X8017801Y-12554460D02*
X8008277Y-12535412D01*
X8008277Y-12535412D02*
X8008277Y-12516365D01*
X8008277Y-12516365D02*
X8017801Y-12497317D01*
X8017801Y-12497317D02*
X8036848Y-12487793D01*
X8036848Y-12487793D02*
X8084467Y-12487793D01*
X8084467Y-12487793D02*
X8103515Y-12478269D01*
X8198753Y-12430650D02*
X8198753Y-12630650D01*
X8198753Y-12440174D02*
X8217801Y-12430650D01*
X8217801Y-12430650D02*
X8255896Y-12430650D01*
X8255896Y-12430650D02*
X8274943Y-12440174D01*
X8274943Y-12440174D02*
X8284467Y-12449698D01*
X8284467Y-12449698D02*
X8293991Y-12468746D01*
X8293991Y-12468746D02*
X8293991Y-12525888D01*
X8293991Y-12525888D02*
X8284467Y-12544936D01*
X8284467Y-12544936D02*
X8274943Y-12554460D01*
X8274943Y-12554460D02*
X8255896Y-12563984D01*
X8255896Y-12563984D02*
X8217801Y-12563984D01*
X8217801Y-12563984D02*
X8198753Y-12554460D01*
X8379705Y-12544936D02*
X8389229Y-12554460D01*
X8389229Y-12554460D02*
X8379705Y-12563984D01*
X8379705Y-12563984D02*
X8370182Y-12554460D01*
X8370182Y-12554460D02*
X8379705Y-12544936D01*
X8379705Y-12544936D02*
X8379705Y-12563984D01*
X8379705Y-12440174D02*
X8389229Y-12449698D01*
X8389229Y-12449698D02*
X8379705Y-12459222D01*
X8379705Y-12459222D02*
X8370182Y-12449698D01*
X8370182Y-12449698D02*
X8379705Y-12440174D01*
X8379705Y-12440174D02*
X8379705Y-12459222D01*
M02*
