G04 #@! TF.GenerationSoftware,KiCad,Pcbnew,9.0.4*
G04 #@! TF.CreationDate,2025-09-25T20:50:39+02:00*
G04 #@! TF.ProjectId,switchboard,73776974-6368-4626-9f61-72642e6b6963,rev?*
G04 #@! TF.SameCoordinates,Original*
G04 #@! TF.FileFunction,Soldermask,Bot*
G04 #@! TF.FilePolarity,Negative*
%FSLAX46Y46*%
G04 Gerber Fmt 4.6, Leading zero omitted, Abs format (unit mm)*
G04 Created by KiCad (PCBNEW 9.0.4) date 2025-09-25 20:50:39*
%MOMM*%
%LPD*%
G01*
G04 APERTURE LIST*
G04 Aperture macros list*
%AMRoundRect*
0 Rectangle with rounded corners*
0 $1 Rounding radius*
0 $2 $3 $4 $5 $6 $7 $8 $9 X,Y pos of 4 corners*
0 Add a 4 corners polygon primitive as box body*
4,1,4,$2,$3,$4,$5,$6,$7,$8,$9,$2,$3,0*
0 Add four circle primitives for the rounded corners*
1,1,$1+$1,$2,$3*
1,1,$1+$1,$4,$5*
1,1,$1+$1,$6,$7*
1,1,$1+$1,$8,$9*
0 Add four rect primitives between the rounded corners*
20,1,$1+$1,$2,$3,$4,$5,0*
20,1,$1+$1,$4,$5,$6,$7,0*
20,1,$1+$1,$6,$7,$8,$9,0*
20,1,$1+$1,$8,$9,$2,$3,0*%
G04 Aperture macros list end*
%ADD10C,1.600000*%
%ADD11RoundRect,0.250000X0.550000X-0.550000X0.550000X0.550000X-0.550000X0.550000X-0.550000X-0.550000X0*%
%ADD12R,1.700000X1.700000*%
%ADD13C,1.700000*%
%ADD14C,1.400000*%
G04 APERTURE END LIST*
D10*
G04 #@! TO.C,C3*
X84200000Y-104745000D03*
X84200000Y-107245000D03*
G04 #@! TD*
D11*
G04 #@! TO.C,U2*
X89100000Y-92020000D03*
D10*
X91640000Y-92020000D03*
X94180000Y-92020000D03*
X96720000Y-92020000D03*
X99260000Y-92020000D03*
X101800000Y-92020000D03*
X104340000Y-92020000D03*
X106880000Y-92020000D03*
X106880000Y-84400000D03*
X104340000Y-84400000D03*
X101800000Y-84400000D03*
X99260000Y-84400000D03*
X96720000Y-84400000D03*
X94180000Y-84400000D03*
X91640000Y-84400000D03*
X89100000Y-84400000D03*
G04 #@! TD*
G04 #@! TO.C,C1*
X84800000Y-67400000D03*
X84800000Y-69900000D03*
G04 #@! TD*
D12*
G04 #@! TO.C,J9*
X75000000Y-106195000D03*
G04 #@! TD*
G04 #@! TO.C,J17*
X97460000Y-77460000D03*
D13*
X100000000Y-77460000D03*
X97460000Y-80000000D03*
X100000000Y-80000000D03*
G04 #@! TD*
D12*
G04 #@! TO.C,J21*
X112500000Y-74960000D03*
D13*
X112500000Y-77500000D03*
X112500000Y-80040000D03*
X112500000Y-82580000D03*
G04 #@! TD*
D12*
G04 #@! TO.C,J14*
X75000000Y-67500000D03*
G04 #@! TD*
G04 #@! TO.C,J10*
X75000000Y-92500000D03*
G04 #@! TD*
G04 #@! TO.C,J4*
X75170000Y-102500000D03*
D13*
X77710000Y-102500000D03*
X80250000Y-102500000D03*
G04 #@! TD*
D12*
G04 #@! TO.C,J12*
X79920000Y-77500000D03*
D13*
X82460000Y-77500000D03*
X85000000Y-77500000D03*
G04 #@! TD*
D11*
G04 #@! TO.C,U1*
X89920000Y-72500000D03*
D10*
X92460000Y-72500000D03*
X95000000Y-72500000D03*
X97540000Y-72500000D03*
X100080000Y-72500000D03*
X102620000Y-72500000D03*
X105160000Y-72500000D03*
X107700000Y-72500000D03*
X107700000Y-64880000D03*
X105160000Y-64880000D03*
X102620000Y-64880000D03*
X100080000Y-64880000D03*
X97540000Y-64880000D03*
X95000000Y-64880000D03*
X92460000Y-64880000D03*
X89920000Y-64880000D03*
G04 #@! TD*
D12*
G04 #@! TO.C,J20*
X112500000Y-111115000D03*
D13*
X112500000Y-113655000D03*
X112500000Y-116195000D03*
X112500000Y-118735000D03*
G04 #@! TD*
D12*
G04 #@! TO.C,J8*
X79960000Y-116195000D03*
D13*
X82500000Y-116195000D03*
G04 #@! TD*
D12*
G04 #@! TO.C,J7*
X72460000Y-116195000D03*
D13*
X75000000Y-116195000D03*
G04 #@! TD*
D14*
G04 #@! TO.C,R1*
X80000000Y-106195000D03*
X80000000Y-111275000D03*
G04 #@! TD*
D12*
G04 #@! TO.C,J19*
X112500000Y-94960000D03*
D13*
X112500000Y-97500000D03*
X112500000Y-100040000D03*
X112500000Y-102580000D03*
G04 #@! TD*
D12*
G04 #@! TO.C,J16*
X89960000Y-77460000D03*
D13*
X92500000Y-77460000D03*
X89960000Y-80000000D03*
X92500000Y-80000000D03*
G04 #@! TD*
D12*
G04 #@! TO.C,J5*
X112500000Y-65000000D03*
D13*
X112500000Y-67540000D03*
X112500000Y-70080000D03*
G04 #@! TD*
D12*
G04 #@! TO.C,J1*
X88660000Y-118695000D03*
D13*
X88660000Y-116155000D03*
X91200000Y-118695000D03*
X91200000Y-116155000D03*
X93740000Y-118695000D03*
X93740000Y-116155000D03*
X96280000Y-118695000D03*
X96280000Y-116155000D03*
X98820000Y-118695000D03*
X98820000Y-116155000D03*
X101360000Y-118695000D03*
X101360000Y-116155000D03*
X103900000Y-118695000D03*
X103900000Y-116155000D03*
X106440000Y-118695000D03*
X106440000Y-116155000D03*
G04 #@! TD*
D14*
G04 #@! TO.C,R3*
X80000000Y-67500000D03*
X80000000Y-72580000D03*
G04 #@! TD*
D12*
G04 #@! TO.C,J18*
X104960000Y-77500000D03*
D13*
X107500000Y-77500000D03*
X104960000Y-80040000D03*
X107500000Y-80040000D03*
G04 #@! TD*
D12*
G04 #@! TO.C,J22*
X74980800Y-72491600D03*
D13*
X74980800Y-75031600D03*
X74980800Y-77571600D03*
X74980800Y-80111600D03*
G04 #@! TD*
D14*
G04 #@! TO.C,R2*
X80000000Y-82500000D03*
X80000000Y-87580000D03*
G04 #@! TD*
D12*
G04 #@! TO.C,J15*
X112460000Y-90000000D03*
D13*
X112460000Y-87460000D03*
G04 #@! TD*
D12*
G04 #@! TO.C,J11*
X80000000Y-92500000D03*
G04 #@! TD*
D10*
G04 #@! TO.C,C2*
X84800000Y-87150000D03*
X84800000Y-89650000D03*
G04 #@! TD*
D12*
G04 #@! TO.C,J13*
X75000000Y-85000000D03*
G04 #@! TD*
G04 #@! TO.C,J3*
X100000000Y-97540000D03*
D13*
X100000000Y-95000000D03*
X102540000Y-97540000D03*
X102540000Y-95000000D03*
X105080000Y-97540000D03*
X105080000Y-95000000D03*
X107620000Y-97540000D03*
X107620000Y-95000000D03*
G04 #@! TD*
D12*
G04 #@! TO.C,J2*
X87420000Y-97500000D03*
D13*
X87420000Y-94960000D03*
X89960000Y-97500000D03*
X89960000Y-94960000D03*
X92500000Y-97500000D03*
X92500000Y-94960000D03*
X95040000Y-97500000D03*
X95040000Y-94960000D03*
G04 #@! TD*
D12*
G04 #@! TO.C,J6*
X85000000Y-111195000D03*
G04 #@! TD*
D11*
G04 #@! TO.C,U3*
X88610000Y-110000000D03*
D10*
X91150000Y-110000000D03*
X93690000Y-110000000D03*
X96230000Y-110000000D03*
X98770000Y-110000000D03*
X101310000Y-110000000D03*
X103850000Y-110000000D03*
X106390000Y-110000000D03*
X106390000Y-102380000D03*
X103850000Y-102380000D03*
X101310000Y-102380000D03*
X98770000Y-102380000D03*
X96230000Y-102380000D03*
X93690000Y-102380000D03*
X91150000Y-102380000D03*
X88610000Y-102380000D03*
G04 #@! TD*
M02*
