G04 #@! TF.GenerationSoftware,KiCad,Pcbnew,9.0.4*
G04 #@! TF.CreationDate,2025-09-25T20:50:39+02:00*
G04 #@! TF.ProjectId,switchboard,73776974-6368-4626-9f61-72642e6b6963,rev?*
G04 #@! TF.SameCoordinates,Original*
G04 #@! TF.FileFunction,Copper,L1,Top*
G04 #@! TF.FilePolarity,Positive*
%FSLAX46Y46*%
G04 Gerber Fmt 4.6, Leading zero omitted, Abs format (unit mm)*
G04 Created by KiCad (PCBNEW 9.0.4) date 2025-09-25 20:50:39*
%MOMM*%
%LPD*%
G01*
G04 APERTURE LIST*
G04 Aperture macros list*
%AMRoundRect*
0 Rectangle with rounded corners*
0 $1 Rounding radius*
0 $2 $3 $4 $5 $6 $7 $8 $9 X,Y pos of 4 corners*
0 Add a 4 corners polygon primitive as box body*
4,1,4,$2,$3,$4,$5,$6,$7,$8,$9,$2,$3,0*
0 Add four circle primitives for the rounded corners*
1,1,$1+$1,$2,$3*
1,1,$1+$1,$4,$5*
1,1,$1+$1,$6,$7*
1,1,$1+$1,$8,$9*
0 Add four rect primitives between the rounded corners*
20,1,$1+$1,$2,$3,$4,$5,0*
20,1,$1+$1,$4,$5,$6,$7,0*
20,1,$1+$1,$6,$7,$8,$9,0*
20,1,$1+$1,$8,$9,$2,$3,0*%
G04 Aperture macros list end*
G04 #@! TA.AperFunction,ComponentPad*
%ADD10C,1.600000*%
G04 #@! TD*
G04 #@! TA.AperFunction,ComponentPad*
%ADD11RoundRect,0.250000X0.550000X-0.550000X0.550000X0.550000X-0.550000X0.550000X-0.550000X-0.550000X0*%
G04 #@! TD*
G04 #@! TA.AperFunction,ComponentPad*
%ADD12R,1.700000X1.700000*%
G04 #@! TD*
G04 #@! TA.AperFunction,ComponentPad*
%ADD13C,1.700000*%
G04 #@! TD*
G04 #@! TA.AperFunction,ComponentPad*
%ADD14C,1.400000*%
G04 #@! TD*
G04 #@! TA.AperFunction,ViaPad*
%ADD15C,0.600000*%
G04 #@! TD*
G04 #@! TA.AperFunction,Conductor*
%ADD16C,0.200000*%
G04 #@! TD*
G04 APERTURE END LIST*
D10*
G04 #@! TO.P,C3,1*
G04 #@! TO.N,VCC*
X84200000Y-104745000D03*
G04 #@! TO.P,C3,2*
G04 #@! TO.N,GND*
X84200000Y-107245000D03*
G04 #@! TD*
D11*
G04 #@! TO.P,U2,1,Y0*
G04 #@! TO.N,Net-(J3-Pin_1)*
X89100000Y-92020000D03*
D10*
G04 #@! TO.P,U2,2,Y2*
G04 #@! TO.N,Net-(J3-Pin_5)*
X91640000Y-92020000D03*
G04 #@! TO.P,U2,3,Y*
G04 #@! TO.N,Net-(J11-Pin_1)*
X94180000Y-92020000D03*
G04 #@! TO.P,U2,4,Y3*
G04 #@! TO.N,Net-(J3-Pin_7)*
X96720000Y-92020000D03*
G04 #@! TO.P,U2,5,Y1*
G04 #@! TO.N,Net-(J3-Pin_3)*
X99260000Y-92020000D03*
G04 #@! TO.P,U2,6,INH*
G04 #@! TO.N,Net-(J13-Pin_1)*
X101800000Y-92020000D03*
G04 #@! TO.P,U2,7,VEE*
G04 #@! TO.N,GND*
X104340000Y-92020000D03*
G04 #@! TO.P,U2,8,VSS*
X106880000Y-92020000D03*
G04 #@! TO.P,U2,9,B*
G04 #@! TO.N,Net-(J15-Pin_1)*
X106880000Y-84400000D03*
G04 #@! TO.P,U2,10,A*
G04 #@! TO.N,Net-(J15-Pin_2)*
X104340000Y-84400000D03*
G04 #@! TO.P,U2,11,X3*
G04 #@! TO.N,Net-(J2-Pin_7)*
X101800000Y-84400000D03*
G04 #@! TO.P,U2,12,X0*
G04 #@! TO.N,Net-(J2-Pin_1)*
X99260000Y-84400000D03*
G04 #@! TO.P,U2,13,X*
G04 #@! TO.N,Net-(J10-Pin_1)*
X96720000Y-84400000D03*
G04 #@! TO.P,U2,14,X1*
G04 #@! TO.N,Net-(J2-Pin_3)*
X94180000Y-84400000D03*
G04 #@! TO.P,U2,15,X2*
G04 #@! TO.N,Net-(J2-Pin_5)*
X91640000Y-84400000D03*
G04 #@! TO.P,U2,16,VDD*
G04 #@! TO.N,VCC*
X89100000Y-84400000D03*
G04 #@! TD*
G04 #@! TO.P,C1,1*
G04 #@! TO.N,VCC*
X84800000Y-67400000D03*
G04 #@! TO.P,C1,2*
G04 #@! TO.N,GND*
X84800000Y-69900000D03*
G04 #@! TD*
D12*
G04 #@! TO.P,J9,1,Pin_1*
G04 #@! TO.N,Net-(J9-Pin_1)*
X75000000Y-106195000D03*
G04 #@! TD*
G04 #@! TO.P,J17,1,Pin_1*
G04 #@! TO.N,Net-(J17-Pin_1)*
X97460000Y-77460000D03*
D13*
G04 #@! TO.P,J17,2,Pin_2*
X100000000Y-77460000D03*
G04 #@! TO.P,J17,3,Pin_3*
G04 #@! TO.N,Net-(J17-Pin_3)*
X97460000Y-80000000D03*
G04 #@! TO.P,J17,4,Pin_4*
X100000000Y-80000000D03*
G04 #@! TD*
D12*
G04 #@! TO.P,J21,1,Pin_1*
G04 #@! TO.N,Net-(J21-Pin_1)*
X112500000Y-74960000D03*
D13*
G04 #@! TO.P,J21,2,Pin_2*
X112500000Y-77500000D03*
G04 #@! TO.P,J21,3,Pin_3*
X112500000Y-80040000D03*
G04 #@! TO.P,J21,4,Pin_4*
X112500000Y-82580000D03*
G04 #@! TD*
D12*
G04 #@! TO.P,J14,1,Pin_1*
G04 #@! TO.N,Net-(J14-Pin_1)*
X75000000Y-67500000D03*
G04 #@! TD*
G04 #@! TO.P,J10,1,Pin_1*
G04 #@! TO.N,Net-(J10-Pin_1)*
X75000000Y-92500000D03*
G04 #@! TD*
G04 #@! TO.P,J4,1,Pin_1*
G04 #@! TO.N,Net-(J4-Pin_1)*
X75170000Y-102500000D03*
D13*
G04 #@! TO.P,J4,2,Pin_2*
G04 #@! TO.N,Net-(J4-Pin_2)*
X77710000Y-102500000D03*
G04 #@! TO.P,J4,3,Pin_3*
G04 #@! TO.N,Net-(J4-Pin_3)*
X80250000Y-102500000D03*
G04 #@! TD*
D12*
G04 #@! TO.P,J12,1,Pin_1*
G04 #@! TO.N,Net-(J12-Pin_1)*
X79920000Y-77500000D03*
D13*
G04 #@! TO.P,J12,2,Pin_2*
G04 #@! TO.N,Net-(J12-Pin_2)*
X82460000Y-77500000D03*
G04 #@! TO.P,J12,3,Pin_3*
G04 #@! TO.N,Net-(J12-Pin_3)*
X85000000Y-77500000D03*
G04 #@! TD*
D11*
G04 #@! TO.P,U1,1,B1*
G04 #@! TO.N,Net-(J17-Pin_3)*
X89920000Y-72500000D03*
D10*
G04 #@! TO.P,U1,2,B0*
G04 #@! TO.N,Net-(J17-Pin_1)*
X92460000Y-72500000D03*
G04 #@! TO.P,U1,3,C1*
G04 #@! TO.N,Net-(J18-Pin_3)*
X95000000Y-72500000D03*
G04 #@! TO.P,U1,4,C*
G04 #@! TO.N,Net-(J12-Pin_1)*
X97540000Y-72500000D03*
G04 #@! TO.P,U1,5,C0*
G04 #@! TO.N,Net-(J18-Pin_1)*
X100080000Y-72500000D03*
G04 #@! TO.P,U1,6,INH*
G04 #@! TO.N,Net-(J14-Pin_1)*
X102620000Y-72500000D03*
G04 #@! TO.P,U1,7,VEE*
G04 #@! TO.N,GND*
X105160000Y-72500000D03*
G04 #@! TO.P,U1,8,VSS*
X107700000Y-72500000D03*
G04 #@! TO.P,U1,9,S3*
G04 #@! TO.N,Net-(J5-Pin_1)*
X107700000Y-64880000D03*
G04 #@! TO.P,U1,10,S2*
G04 #@! TO.N,Net-(J5-Pin_2)*
X105160000Y-64880000D03*
G04 #@! TO.P,U1,11,S1*
G04 #@! TO.N,Net-(J5-Pin_3)*
X102620000Y-64880000D03*
G04 #@! TO.P,U1,12,A0*
G04 #@! TO.N,Net-(J16-Pin_1)*
X100080000Y-64880000D03*
G04 #@! TO.P,U1,13,A1*
G04 #@! TO.N,Net-(J16-Pin_3)*
X97540000Y-64880000D03*
G04 #@! TO.P,U1,14,A*
G04 #@! TO.N,Net-(J12-Pin_3)*
X95000000Y-64880000D03*
G04 #@! TO.P,U1,15,B*
G04 #@! TO.N,Net-(J12-Pin_2)*
X92460000Y-64880000D03*
G04 #@! TO.P,U1,16,VDD*
G04 #@! TO.N,VCC*
X89920000Y-64880000D03*
G04 #@! TD*
D12*
G04 #@! TO.P,J20,1,Pin_1*
G04 #@! TO.N,Net-(J20-Pin_1)*
X112500000Y-111115000D03*
D13*
G04 #@! TO.P,J20,2,Pin_2*
X112500000Y-113655000D03*
G04 #@! TO.P,J20,3,Pin_3*
X112500000Y-116195000D03*
G04 #@! TO.P,J20,4,Pin_4*
X112500000Y-118735000D03*
G04 #@! TD*
D12*
G04 #@! TO.P,J8,1,Pin_1*
G04 #@! TO.N,unconnected-(J8-Pin_1-Pad1)*
X79960000Y-116195000D03*
D13*
G04 #@! TO.P,J8,2,Pin_2*
G04 #@! TO.N,GND*
X82500000Y-116195000D03*
G04 #@! TD*
D12*
G04 #@! TO.P,J7,1,Pin_1*
G04 #@! TO.N,VCC*
X72460000Y-116195000D03*
D13*
G04 #@! TO.P,J7,2,Pin_2*
X75000000Y-116195000D03*
G04 #@! TD*
D14*
G04 #@! TO.P,R1,1*
G04 #@! TO.N,Net-(J9-Pin_1)*
X80000000Y-106195000D03*
G04 #@! TO.P,R1,2*
G04 #@! TO.N,GND*
X80000000Y-111275000D03*
G04 #@! TD*
D12*
G04 #@! TO.P,J19,1,Pin_1*
G04 #@! TO.N,Net-(J19-Pin_1)*
X112500000Y-94960000D03*
D13*
G04 #@! TO.P,J19,2,Pin_2*
X112500000Y-97500000D03*
G04 #@! TO.P,J19,3,Pin_3*
X112500000Y-100040000D03*
G04 #@! TO.P,J19,4,Pin_4*
X112500000Y-102580000D03*
G04 #@! TD*
D12*
G04 #@! TO.P,J16,1,Pin_1*
G04 #@! TO.N,Net-(J16-Pin_1)*
X89960000Y-77460000D03*
D13*
G04 #@! TO.P,J16,2,Pin_2*
X92500000Y-77460000D03*
G04 #@! TO.P,J16,3,Pin_3*
G04 #@! TO.N,Net-(J16-Pin_3)*
X89960000Y-80000000D03*
G04 #@! TO.P,J16,4,Pin_4*
X92500000Y-80000000D03*
G04 #@! TD*
D12*
G04 #@! TO.P,J5,1,Pin_1*
G04 #@! TO.N,Net-(J5-Pin_1)*
X112500000Y-65000000D03*
D13*
G04 #@! TO.P,J5,2,Pin_2*
G04 #@! TO.N,Net-(J5-Pin_2)*
X112500000Y-67540000D03*
G04 #@! TO.P,J5,3,Pin_3*
G04 #@! TO.N,Net-(J5-Pin_3)*
X112500000Y-70080000D03*
G04 #@! TD*
D12*
G04 #@! TO.P,J1,1,Pin_1*
G04 #@! TO.N,Net-(J1-Pin_1)*
X88660000Y-118695000D03*
D13*
G04 #@! TO.P,J1,2,Pin_2*
X88660000Y-116155000D03*
G04 #@! TO.P,J1,3,Pin_3*
G04 #@! TO.N,Net-(J1-Pin_3)*
X91200000Y-118695000D03*
G04 #@! TO.P,J1,4,Pin_4*
X91200000Y-116155000D03*
G04 #@! TO.P,J1,5,Pin_5*
G04 #@! TO.N,Net-(J1-Pin_5)*
X93740000Y-118695000D03*
G04 #@! TO.P,J1,6,Pin_6*
X93740000Y-116155000D03*
G04 #@! TO.P,J1,7,Pin_7*
G04 #@! TO.N,Net-(J1-Pin_7)*
X96280000Y-118695000D03*
G04 #@! TO.P,J1,8,Pin_8*
X96280000Y-116155000D03*
G04 #@! TO.P,J1,9,Pin_9*
G04 #@! TO.N,Net-(J1-Pin_10)*
X98820000Y-118695000D03*
G04 #@! TO.P,J1,10,Pin_10*
X98820000Y-116155000D03*
G04 #@! TO.P,J1,11,Pin_11*
G04 #@! TO.N,Net-(J1-Pin_11)*
X101360000Y-118695000D03*
G04 #@! TO.P,J1,12,Pin_12*
X101360000Y-116155000D03*
G04 #@! TO.P,J1,13,Pin_13*
G04 #@! TO.N,Net-(J1-Pin_13)*
X103900000Y-118695000D03*
G04 #@! TO.P,J1,14,Pin_14*
X103900000Y-116155000D03*
G04 #@! TO.P,J1,15,Pin_15*
G04 #@! TO.N,Net-(J1-Pin_15)*
X106440000Y-118695000D03*
G04 #@! TO.P,J1,16,Pin_16*
X106440000Y-116155000D03*
G04 #@! TD*
D14*
G04 #@! TO.P,R3,1*
G04 #@! TO.N,Net-(J14-Pin_1)*
X80000000Y-67500000D03*
G04 #@! TO.P,R3,2*
G04 #@! TO.N,GND*
X80000000Y-72580000D03*
G04 #@! TD*
D12*
G04 #@! TO.P,J18,1,Pin_1*
G04 #@! TO.N,Net-(J18-Pin_1)*
X104960000Y-77500000D03*
D13*
G04 #@! TO.P,J18,2,Pin_2*
X107500000Y-77500000D03*
G04 #@! TO.P,J18,3,Pin_3*
G04 #@! TO.N,Net-(J18-Pin_3)*
X104960000Y-80040000D03*
G04 #@! TO.P,J18,4,Pin_4*
X107500000Y-80040000D03*
G04 #@! TD*
D12*
G04 #@! TO.P,J22,1,Pin_1*
G04 #@! TO.N,Net-(J22-Pin_1)*
X74980800Y-72491600D03*
D13*
G04 #@! TO.P,J22,2,Pin_2*
X74980800Y-75031600D03*
G04 #@! TO.P,J22,3,Pin_3*
X74980800Y-77571600D03*
G04 #@! TO.P,J22,4,Pin_4*
X74980800Y-80111600D03*
G04 #@! TD*
D14*
G04 #@! TO.P,R2,1*
G04 #@! TO.N,Net-(J13-Pin_1)*
X80000000Y-82500000D03*
G04 #@! TO.P,R2,2*
G04 #@! TO.N,GND*
X80000000Y-87580000D03*
G04 #@! TD*
D12*
G04 #@! TO.P,J15,1,Pin_1*
G04 #@! TO.N,Net-(J15-Pin_1)*
X112460000Y-90000000D03*
D13*
G04 #@! TO.P,J15,2,Pin_2*
G04 #@! TO.N,Net-(J15-Pin_2)*
X112460000Y-87460000D03*
G04 #@! TD*
D12*
G04 #@! TO.P,J11,1,Pin_1*
G04 #@! TO.N,Net-(J11-Pin_1)*
X80000000Y-92500000D03*
G04 #@! TD*
D10*
G04 #@! TO.P,C2,1*
G04 #@! TO.N,VCC*
X84800000Y-87150000D03*
G04 #@! TO.P,C2,2*
G04 #@! TO.N,GND*
X84800000Y-89650000D03*
G04 #@! TD*
D12*
G04 #@! TO.P,J13,1,Pin_1*
G04 #@! TO.N,Net-(J13-Pin_1)*
X75000000Y-85000000D03*
G04 #@! TD*
G04 #@! TO.P,J3,1,Pin_1*
G04 #@! TO.N,Net-(J3-Pin_1)*
X100000000Y-97540000D03*
D13*
G04 #@! TO.P,J3,2,Pin_2*
X100000000Y-95000000D03*
G04 #@! TO.P,J3,3,Pin_3*
G04 #@! TO.N,Net-(J3-Pin_3)*
X102540000Y-97540000D03*
G04 #@! TO.P,J3,4,Pin_4*
X102540000Y-95000000D03*
G04 #@! TO.P,J3,5,Pin_5*
G04 #@! TO.N,Net-(J3-Pin_5)*
X105080000Y-97540000D03*
G04 #@! TO.P,J3,6,Pin_6*
X105080000Y-95000000D03*
G04 #@! TO.P,J3,7,Pin_7*
G04 #@! TO.N,Net-(J3-Pin_7)*
X107620000Y-97540000D03*
G04 #@! TO.P,J3,8,Pin_8*
X107620000Y-95000000D03*
G04 #@! TD*
D12*
G04 #@! TO.P,J2,1,Pin_1*
G04 #@! TO.N,Net-(J2-Pin_1)*
X87420000Y-97500000D03*
D13*
G04 #@! TO.P,J2,2,Pin_2*
X87420000Y-94960000D03*
G04 #@! TO.P,J2,3,Pin_3*
G04 #@! TO.N,Net-(J2-Pin_3)*
X89960000Y-97500000D03*
G04 #@! TO.P,J2,4,Pin_4*
X89960000Y-94960000D03*
G04 #@! TO.P,J2,5,Pin_5*
G04 #@! TO.N,Net-(J2-Pin_5)*
X92500000Y-97500000D03*
G04 #@! TO.P,J2,6,Pin_6*
X92500000Y-94960000D03*
G04 #@! TO.P,J2,7,Pin_7*
G04 #@! TO.N,Net-(J2-Pin_7)*
X95040000Y-97500000D03*
G04 #@! TO.P,J2,8,Pin_8*
X95040000Y-94960000D03*
G04 #@! TD*
D12*
G04 #@! TO.P,J6,1,Pin_1*
G04 #@! TO.N,Net-(J6-Pin_1)*
X85000000Y-111195000D03*
G04 #@! TD*
D11*
G04 #@! TO.P,U3,1,X4*
G04 #@! TO.N,Net-(J1-Pin_10)*
X88610000Y-110000000D03*
D10*
G04 #@! TO.P,U3,2,X6*
G04 #@! TO.N,Net-(J1-Pin_13)*
X91150000Y-110000000D03*
G04 #@! TO.P,U3,3,X*
G04 #@! TO.N,Net-(J6-Pin_1)*
X93690000Y-110000000D03*
G04 #@! TO.P,U3,4,X7*
G04 #@! TO.N,Net-(J1-Pin_15)*
X96230000Y-110000000D03*
G04 #@! TO.P,U3,5,X5*
G04 #@! TO.N,Net-(J1-Pin_11)*
X98770000Y-110000000D03*
G04 #@! TO.P,U3,6,INH*
G04 #@! TO.N,Net-(J9-Pin_1)*
X101310000Y-110000000D03*
G04 #@! TO.P,U3,7,VEE*
G04 #@! TO.N,GND*
X103850000Y-110000000D03*
G04 #@! TO.P,U3,8,VSS*
X106390000Y-110000000D03*
G04 #@! TO.P,U3,9,C*
G04 #@! TO.N,Net-(J4-Pin_1)*
X106390000Y-102380000D03*
G04 #@! TO.P,U3,10,B*
G04 #@! TO.N,Net-(J4-Pin_2)*
X103850000Y-102380000D03*
G04 #@! TO.P,U3,11,A*
G04 #@! TO.N,Net-(J4-Pin_3)*
X101310000Y-102380000D03*
G04 #@! TO.P,U3,12,X3*
G04 #@! TO.N,Net-(J1-Pin_7)*
X98770000Y-102380000D03*
G04 #@! TO.P,U3,13,X0*
G04 #@! TO.N,Net-(J1-Pin_1)*
X96230000Y-102380000D03*
G04 #@! TO.P,U3,14,X1*
G04 #@! TO.N,Net-(J1-Pin_3)*
X93690000Y-102380000D03*
G04 #@! TO.P,U3,15,X2*
G04 #@! TO.N,Net-(J1-Pin_5)*
X91150000Y-102380000D03*
G04 #@! TO.P,U3,16,VDD*
G04 #@! TO.N,VCC*
X88610000Y-102380000D03*
G04 #@! TD*
D15*
G04 #@! TO.N,GND*
X84800000Y-89650000D03*
G04 #@! TO.N,Net-(J1-Pin_7)*
X97669400Y-100884800D03*
G04 #@! TO.N,Net-(J11-Pin_1)*
X87671900Y-89057500D03*
X93556700Y-88461100D03*
G04 #@! TO.N,Net-(J16-Pin_1)*
X94996900Y-67317200D03*
G04 #@! TD*
D16*
G04 #@! TO.N,GND*
X84800000Y-89650000D02*
X82070000Y-89650000D01*
X82070000Y-89650000D02*
X80000000Y-87580000D01*
G04 #@! TO.N,Net-(J1-Pin_3)*
X91200000Y-118695000D02*
X91200000Y-116155000D01*
X90028200Y-114983200D02*
X91200000Y-116155000D01*
X90682100Y-101267000D02*
X90028200Y-101920900D01*
X92577000Y-101267000D02*
X90682100Y-101267000D01*
X93690000Y-102380000D02*
X92577000Y-101267000D01*
X90028200Y-101920900D02*
X90028200Y-114983200D01*
G04 #@! TO.N,Net-(J1-Pin_13)*
X103900000Y-118695000D02*
X103900000Y-116155000D01*
G04 #@! TO.N,Net-(J1-Pin_1)*
X89811700Y-118983000D02*
X89811700Y-118695000D01*
X95010000Y-103600000D02*
X95010000Y-119119600D01*
X88660000Y-118695000D02*
X89811700Y-118695000D01*
X94282900Y-119846700D02*
X90675400Y-119846700D01*
X95010000Y-119119600D02*
X94282900Y-119846700D01*
X88660000Y-118695000D02*
X88660000Y-116155000D01*
X90675400Y-119846700D02*
X89811700Y-118983000D01*
X96230000Y-102380000D02*
X95010000Y-103600000D01*
G04 #@! TO.N,Net-(J1-Pin_5)*
X92305800Y-114720800D02*
X92305800Y-103535800D01*
X93740000Y-116155000D02*
X92305800Y-114720800D01*
X92305800Y-103535800D02*
X91150000Y-102380000D01*
X93740000Y-118695000D02*
X93740000Y-116155000D01*
G04 #@! TO.N,Net-(J1-Pin_15)*
X106440000Y-118695000D02*
X106440000Y-116155000D01*
G04 #@! TO.N,Net-(J1-Pin_7)*
X97669400Y-100884800D02*
X97500000Y-101054200D01*
X96280000Y-118695000D02*
X96280000Y-116155000D01*
X97500000Y-114935000D02*
X96280000Y-116155000D01*
X97500000Y-101054200D02*
X97500000Y-114935000D01*
G04 #@! TO.N,Net-(J1-Pin_10)*
X98820000Y-118695000D02*
X98820000Y-116155000D01*
G04 #@! TO.N,Net-(J1-Pin_11)*
X101360000Y-112590000D02*
X98770000Y-110000000D01*
X101360000Y-118695000D02*
X101360000Y-116155000D01*
X101360000Y-116155000D02*
X101360000Y-112590000D01*
G04 #@! TO.N,Net-(J2-Pin_1)*
X87420000Y-97500000D02*
X87420000Y-94960000D01*
G04 #@! TO.N,Net-(J2-Pin_3)*
X91151300Y-83216800D02*
X90434000Y-83934100D01*
X94180000Y-84400000D02*
X92996800Y-83216800D01*
X92996800Y-83216800D02*
X91151300Y-83216800D01*
X90434000Y-94486000D02*
X89960000Y-94960000D01*
X90434000Y-83934100D02*
X90434000Y-94486000D01*
X89960000Y-97500000D02*
X89960000Y-94960000D01*
G04 #@! TO.N,Net-(J3-Pin_3)*
X102540000Y-95000000D02*
X102540000Y-97540000D01*
G04 #@! TO.N,Net-(J3-Pin_1)*
X100000000Y-95000000D02*
X100000000Y-97540000D01*
G04 #@! TO.N,Net-(J11-Pin_1)*
X94180000Y-89084400D02*
X94180000Y-92020000D01*
X93556700Y-88461100D02*
X94180000Y-89084400D01*
X84229400Y-92500000D02*
X87671900Y-89057500D01*
X80000000Y-92500000D02*
X84229400Y-92500000D01*
G04 #@! TO.N,Net-(J12-Pin_3)*
X85000000Y-74880000D02*
X95000000Y-64880000D01*
X85000000Y-77500000D02*
X85000000Y-74880000D01*
G04 #@! TO.N,Net-(J12-Pin_2)*
X82460000Y-74880000D02*
X92460000Y-64880000D01*
X82460000Y-77500000D02*
X82460000Y-74880000D01*
G04 #@! TO.N,Net-(J15-Pin_1)*
X112460000Y-90000000D02*
X112460000Y-88848300D01*
X111328300Y-88848300D02*
X112460000Y-88848300D01*
X106880000Y-84400000D02*
X111328300Y-88848300D01*
G04 #@! TO.N,Net-(J16-Pin_1)*
X93730100Y-76229900D02*
X92500000Y-77460000D01*
X94996900Y-67317200D02*
X93730100Y-68584000D01*
X93730100Y-68584000D02*
X93730100Y-76229900D01*
G04 #@! TO.N,Net-(J16-Pin_3)*
X92500000Y-80000000D02*
X96116800Y-76383200D01*
X96116800Y-76383200D02*
X96116800Y-66303200D01*
X96116800Y-66303200D02*
X97540000Y-64880000D01*
G04 #@! TO.N,Net-(J19-Pin_1)*
X112500000Y-100040000D02*
X112500000Y-102580000D01*
X112500000Y-97500000D02*
X112500000Y-100040000D01*
X112500000Y-94960000D02*
X112500000Y-97500000D01*
G04 #@! TO.N,Net-(J20-Pin_1)*
X112500000Y-111115000D02*
X112500000Y-113655000D01*
X112500000Y-113655000D02*
X112500000Y-116195000D01*
X112500000Y-116195000D02*
X112500000Y-118735000D01*
G04 #@! TO.N,Net-(J21-Pin_1)*
X112500000Y-74960000D02*
X112500000Y-77500000D01*
X112500000Y-80040000D02*
X112500000Y-82580000D01*
X112500000Y-77500000D02*
X112500000Y-80040000D01*
G04 #@! TO.N,Net-(J2-Pin_5)*
X91640000Y-84400000D02*
X92756200Y-85516200D01*
X92756200Y-94703800D02*
X92500000Y-94960000D01*
X92756200Y-85516200D02*
X92756200Y-94703800D01*
X92500000Y-97500000D02*
X92500000Y-94960000D01*
G04 #@! TO.N,Net-(J2-Pin_7)*
X95456300Y-94543700D02*
X95040000Y-94960000D01*
X95456300Y-90743700D02*
X95456300Y-94543700D01*
X95040000Y-97500000D02*
X95040000Y-94960000D01*
X101800000Y-84400000D02*
X95456300Y-90743700D01*
G04 #@! TO.N,Net-(J3-Pin_5)*
X105080000Y-95000000D02*
X105080000Y-97540000D01*
G04 #@! TO.N,Net-(J3-Pin_7)*
X107620000Y-95000000D02*
X107620000Y-97540000D01*
G04 #@! TO.N,Net-(J22-Pin_1)*
X74980800Y-77571600D02*
X74980800Y-80111600D01*
X74980800Y-72491600D02*
X74980800Y-75031600D01*
X74980800Y-75031600D02*
X74980800Y-77571600D01*
G04 #@! TD*
G04 #@! TA.AperFunction,Conductor*
G04 #@! TO.N,VCC*
G36*
X116942539Y-60520185D02*
G01*
X116988294Y-60572989D01*
X116999500Y-60624500D01*
X116999500Y-121875500D01*
X116979815Y-121942539D01*
X116927011Y-121988294D01*
X116875500Y-121999500D01*
X68124500Y-121999500D01*
X68057461Y-121979815D01*
X68011706Y-121927011D01*
X68000500Y-121875500D01*
X68000500Y-115297155D01*
X71110000Y-115297155D01*
X71110000Y-115945000D01*
X72026988Y-115945000D01*
X71994075Y-116002007D01*
X71960000Y-116129174D01*
X71960000Y-116260826D01*
X71994075Y-116387993D01*
X72026988Y-116445000D01*
X71110000Y-116445000D01*
X71110000Y-117092844D01*
X71116401Y-117152372D01*
X71116403Y-117152379D01*
X71166645Y-117287086D01*
X71166649Y-117287093D01*
X71252809Y-117402187D01*
X71252812Y-117402190D01*
X71367906Y-117488350D01*
X71367913Y-117488354D01*
X71502620Y-117538596D01*
X71502627Y-117538598D01*
X71562155Y-117544999D01*
X71562172Y-117545000D01*
X72210000Y-117545000D01*
X72210000Y-116628012D01*
X72267007Y-116660925D01*
X72394174Y-116695000D01*
X72525826Y-116695000D01*
X72652993Y-116660925D01*
X72710000Y-116628012D01*
X72710000Y-117545000D01*
X73357828Y-117545000D01*
X73357844Y-117544999D01*
X73417372Y-117538598D01*
X73417379Y-117538596D01*
X73552086Y-117488354D01*
X73552093Y-117488350D01*
X73667187Y-117402190D01*
X73667190Y-117402187D01*
X73753350Y-117287093D01*
X73753354Y-117287086D01*
X73775529Y-117227632D01*
X73814319Y-117054390D01*
X73814682Y-117053734D01*
X73814642Y-117052984D01*
X73847642Y-116993802D01*
X74517037Y-116324408D01*
X74534075Y-116387993D01*
X74599901Y-116502007D01*
X74692993Y-116595099D01*
X74807007Y-116660925D01*
X74870590Y-116677962D01*
X74238282Y-117310269D01*
X74238282Y-117310270D01*
X74292449Y-117349624D01*
X74481782Y-117446095D01*
X74683870Y-117511757D01*
X74893754Y-117545000D01*
X75106246Y-117545000D01*
X75316127Y-117511757D01*
X75316130Y-117511757D01*
X75518217Y-117446095D01*
X75707554Y-117349622D01*
X75761716Y-117310270D01*
X75761717Y-117310270D01*
X75129408Y-116677962D01*
X75192993Y-116660925D01*
X75307007Y-116595099D01*
X75400099Y-116502007D01*
X75465925Y-116387993D01*
X75482962Y-116324408D01*
X76115270Y-116956717D01*
X76115270Y-116956716D01*
X76154622Y-116902554D01*
X76251095Y-116713217D01*
X76316757Y-116511130D01*
X76316757Y-116511127D01*
X76350000Y-116301246D01*
X76350000Y-116088753D01*
X76316757Y-115878872D01*
X76316757Y-115878869D01*
X76251095Y-115676782D01*
X76154624Y-115487449D01*
X76115270Y-115433282D01*
X76115269Y-115433282D01*
X75482962Y-116065590D01*
X75465925Y-116002007D01*
X75400099Y-115887993D01*
X75307007Y-115794901D01*
X75192993Y-115729075D01*
X75129409Y-115712037D01*
X75544310Y-115297135D01*
X78609500Y-115297135D01*
X78609500Y-117092870D01*
X78609501Y-117092876D01*
X78615908Y-117152483D01*
X78666202Y-117287328D01*
X78666206Y-117287335D01*
X78752452Y-117402544D01*
X78752455Y-117402547D01*
X78867664Y-117488793D01*
X78867671Y-117488797D01*
X79002517Y-117539091D01*
X79002516Y-117539091D01*
X79009444Y-117539835D01*
X79062127Y-117545500D01*
X80857872Y-117545499D01*
X80917483Y-117539091D01*
X81052331Y-117488796D01*
X81167546Y-117402546D01*
X81253796Y-117287331D01*
X81302810Y-117155916D01*
X81344681Y-117099984D01*
X81410145Y-117075566D01*
X81478418Y-117090417D01*
X81506673Y-117111569D01*
X81620213Y-117225109D01*
X81792179Y-117350048D01*
X81792181Y-117350049D01*
X81792184Y-117350051D01*
X81981588Y-117446557D01*
X82183757Y-117512246D01*
X82393713Y-117545500D01*
X82393714Y-117545500D01*
X82606286Y-117545500D01*
X82606287Y-117545500D01*
X82816243Y-117512246D01*
X83018412Y-117446557D01*
X83207816Y-117350051D01*
X83294138Y-117287335D01*
X83379786Y-117225109D01*
X83379788Y-117225106D01*
X83379792Y-117225104D01*
X83530104Y-117074792D01*
X83530106Y-117074788D01*
X83530109Y-117074786D01*
X83655048Y-116902820D01*
X83655047Y-116902820D01*
X83655051Y-116902816D01*
X83751557Y-116713412D01*
X83817246Y-116511243D01*
X83850500Y-116301287D01*
X83850500Y-116088713D01*
X83817246Y-115878757D01*
X83751557Y-115676588D01*
X83655051Y-115487184D01*
X83655049Y-115487181D01*
X83655048Y-115487179D01*
X83530109Y-115315213D01*
X83379786Y-115164890D01*
X83207820Y-115039951D01*
X83018414Y-114943444D01*
X83018413Y-114943443D01*
X83018412Y-114943443D01*
X82816243Y-114877754D01*
X82816241Y-114877753D01*
X82816240Y-114877753D01*
X82650426Y-114851491D01*
X82606287Y-114844500D01*
X82393713Y-114844500D01*
X82349574Y-114851491D01*
X82183760Y-114877753D01*
X82110228Y-114901645D01*
X81996506Y-114938596D01*
X81981585Y-114943444D01*
X81792179Y-115039951D01*
X81620215Y-115164889D01*
X81506673Y-115278431D01*
X81445350Y-115311915D01*
X81375658Y-115306931D01*
X81319725Y-115265059D01*
X81302810Y-115234082D01*
X81253797Y-115102671D01*
X81253793Y-115102664D01*
X81167547Y-114987455D01*
X81167544Y-114987452D01*
X81052335Y-114901206D01*
X81052328Y-114901202D01*
X80917482Y-114850908D01*
X80917483Y-114850908D01*
X80857883Y-114844501D01*
X80857881Y-114844500D01*
X80857873Y-114844500D01*
X80857864Y-114844500D01*
X79062129Y-114844500D01*
X79062123Y-114844501D01*
X79002516Y-114850908D01*
X78867671Y-114901202D01*
X78867664Y-114901206D01*
X78752455Y-114987452D01*
X78752452Y-114987455D01*
X78666206Y-115102664D01*
X78666202Y-115102671D01*
X78615908Y-115237517D01*
X78609501Y-115297116D01*
X78609500Y-115297135D01*
X75544310Y-115297135D01*
X75635320Y-115206125D01*
X75761716Y-115079728D01*
X75707550Y-115040375D01*
X75518217Y-114943904D01*
X75316129Y-114878242D01*
X75106246Y-114845000D01*
X74893754Y-114845000D01*
X74683872Y-114878242D01*
X74683869Y-114878242D01*
X74481782Y-114943904D01*
X74292439Y-115040380D01*
X74238282Y-115079727D01*
X74238282Y-115079728D01*
X74870591Y-115712037D01*
X74807007Y-115729075D01*
X74692993Y-115794901D01*
X74599901Y-115887993D01*
X74534075Y-116002007D01*
X74517037Y-116065591D01*
X73847642Y-115396196D01*
X73814319Y-115335609D01*
X73775527Y-115162364D01*
X73753354Y-115102913D01*
X73753350Y-115102906D01*
X73667190Y-114987812D01*
X73667187Y-114987809D01*
X73552093Y-114901649D01*
X73552086Y-114901645D01*
X73417379Y-114851403D01*
X73417372Y-114851401D01*
X73357844Y-114845000D01*
X72710000Y-114845000D01*
X72710000Y-115761988D01*
X72652993Y-115729075D01*
X72525826Y-115695000D01*
X72394174Y-115695000D01*
X72267007Y-115729075D01*
X72210000Y-115761988D01*
X72210000Y-114845000D01*
X71562155Y-114845000D01*
X71502627Y-114851401D01*
X71502620Y-114851403D01*
X71367913Y-114901645D01*
X71367906Y-114901649D01*
X71252812Y-114987809D01*
X71252809Y-114987812D01*
X71166649Y-115102906D01*
X71166645Y-115102913D01*
X71116403Y-115237620D01*
X71116401Y-115237627D01*
X71110000Y-115297155D01*
X68000500Y-115297155D01*
X68000500Y-111180513D01*
X78799500Y-111180513D01*
X78799500Y-111369486D01*
X78829059Y-111556118D01*
X78887454Y-111735836D01*
X78973240Y-111904199D01*
X79084310Y-112057073D01*
X79217927Y-112190690D01*
X79370801Y-112301760D01*
X79411592Y-112322544D01*
X79539163Y-112387545D01*
X79539165Y-112387545D01*
X79539168Y-112387547D01*
X79635497Y-112418846D01*
X79718881Y-112445940D01*
X79905514Y-112475500D01*
X79905519Y-112475500D01*
X80094486Y-112475500D01*
X80281118Y-112445940D01*
X80460832Y-112387547D01*
X80629199Y-112301760D01*
X80782073Y-112190690D01*
X80915690Y-112057073D01*
X81026760Y-111904199D01*
X81112547Y-111735832D01*
X81170940Y-111556118D01*
X81177899Y-111512181D01*
X81200500Y-111369486D01*
X81200500Y-111180513D01*
X81170940Y-110993881D01*
X81130472Y-110869336D01*
X81112547Y-110814168D01*
X81112545Y-110814165D01*
X81112545Y-110814163D01*
X81055800Y-110702796D01*
X81026760Y-110645801D01*
X80915690Y-110492927D01*
X80782073Y-110359310D01*
X80696497Y-110297135D01*
X83649500Y-110297135D01*
X83649500Y-112092870D01*
X83649501Y-112092876D01*
X83655908Y-112152483D01*
X83706202Y-112287328D01*
X83706206Y-112287335D01*
X83792452Y-112402544D01*
X83792455Y-112402547D01*
X83907664Y-112488793D01*
X83907671Y-112488797D01*
X84042517Y-112539091D01*
X84042516Y-112539091D01*
X84049444Y-112539835D01*
X84102127Y-112545500D01*
X85897872Y-112545499D01*
X85957483Y-112539091D01*
X86092331Y-112488796D01*
X86207546Y-112402546D01*
X86293796Y-112287331D01*
X86344091Y-112152483D01*
X86350500Y-112092873D01*
X86350499Y-110297128D01*
X86344091Y-110237517D01*
X86336486Y-110217128D01*
X86293797Y-110102671D01*
X86293793Y-110102664D01*
X86207547Y-109987455D01*
X86207544Y-109987452D01*
X86092335Y-109901206D01*
X86092328Y-109901202D01*
X85957482Y-109850908D01*
X85957483Y-109850908D01*
X85897883Y-109844501D01*
X85897881Y-109844500D01*
X85897873Y-109844500D01*
X85897864Y-109844500D01*
X84102129Y-109844500D01*
X84102123Y-109844501D01*
X84042516Y-109850908D01*
X83907671Y-109901202D01*
X83907664Y-109901206D01*
X83792455Y-109987452D01*
X83792452Y-109987455D01*
X83706206Y-110102664D01*
X83706202Y-110102671D01*
X83655908Y-110237517D01*
X83649501Y-110297116D01*
X83649501Y-110297123D01*
X83649500Y-110297135D01*
X80696497Y-110297135D01*
X80629199Y-110248240D01*
X80608152Y-110237516D01*
X80460836Y-110162454D01*
X80281118Y-110104059D01*
X80094486Y-110074500D01*
X80094481Y-110074500D01*
X79905519Y-110074500D01*
X79905514Y-110074500D01*
X79718881Y-110104059D01*
X79539163Y-110162454D01*
X79370800Y-110248240D01*
X79303514Y-110297127D01*
X79217927Y-110359310D01*
X79217925Y-110359312D01*
X79217924Y-110359312D01*
X79084312Y-110492924D01*
X79084312Y-110492925D01*
X79084310Y-110492927D01*
X79051473Y-110538123D01*
X78973240Y-110645800D01*
X78887454Y-110814163D01*
X78829059Y-110993881D01*
X78799500Y-111180513D01*
X68000500Y-111180513D01*
X68000500Y-109399983D01*
X87309500Y-109399983D01*
X87309500Y-110600001D01*
X87309501Y-110600018D01*
X87320000Y-110702796D01*
X87320001Y-110702799D01*
X87356904Y-110814163D01*
X87375186Y-110869334D01*
X87467288Y-111018656D01*
X87591344Y-111142712D01*
X87740666Y-111234814D01*
X87907203Y-111289999D01*
X88009991Y-111300500D01*
X89210008Y-111300499D01*
X89291099Y-111292215D01*
X89359791Y-111304984D01*
X89410675Y-111352865D01*
X89427700Y-111415573D01*
X89427700Y-114828111D01*
X89408015Y-114895150D01*
X89355211Y-114940905D01*
X89286053Y-114950849D01*
X89247406Y-114938596D01*
X89178417Y-114903445D01*
X89178414Y-114903444D01*
X89178412Y-114903443D01*
X88976243Y-114837754D01*
X88976241Y-114837753D01*
X88976240Y-114837753D01*
X88801315Y-114810048D01*
X88766287Y-114804500D01*
X88553713Y-114804500D01*
X88518685Y-114810048D01*
X88343760Y-114837753D01*
X88343757Y-114837754D01*
X88146679Y-114901789D01*
X88141585Y-114903444D01*
X87952179Y-114999951D01*
X87780213Y-115124890D01*
X87629890Y-115275213D01*
X87504951Y-115447179D01*
X87408444Y-115636585D01*
X87342753Y-115838760D01*
X87309500Y-116048713D01*
X87309500Y-116261287D01*
X87342754Y-116471243D01*
X87382997Y-116595099D01*
X87408444Y-116673414D01*
X87504951Y-116862820D01*
X87629890Y-117034786D01*
X87743430Y-117148326D01*
X87776915Y-117209649D01*
X87771931Y-117279341D01*
X87730059Y-117335274D01*
X87699083Y-117352189D01*
X87567669Y-117401203D01*
X87567664Y-117401206D01*
X87452455Y-117487452D01*
X87452452Y-117487455D01*
X87366206Y-117602664D01*
X87366202Y-117602671D01*
X87315908Y-117737517D01*
X87309501Y-117797116D01*
X87309500Y-117797135D01*
X87309500Y-119592870D01*
X87309501Y-119592876D01*
X87315908Y-119652483D01*
X87366202Y-119787328D01*
X87366206Y-119787335D01*
X87452452Y-119902544D01*
X87452455Y-119902547D01*
X87567664Y-119988793D01*
X87567671Y-119988797D01*
X87702517Y-120039091D01*
X87702516Y-120039091D01*
X87709444Y-120039835D01*
X87762127Y-120045500D01*
X89557872Y-120045499D01*
X89617483Y-120039091D01*
X89752331Y-119988796D01*
X89789802Y-119960744D01*
X89855266Y-119936327D01*
X89923540Y-119951178D01*
X89951795Y-119972330D01*
X90190539Y-120211074D01*
X90190549Y-120211085D01*
X90194879Y-120215415D01*
X90194880Y-120215416D01*
X90306684Y-120327220D01*
X90393495Y-120377339D01*
X90393497Y-120377341D01*
X90443613Y-120406276D01*
X90443615Y-120406277D01*
X90596342Y-120447200D01*
X90596343Y-120447200D01*
X94196231Y-120447200D01*
X94196247Y-120447201D01*
X94203843Y-120447201D01*
X94361954Y-120447201D01*
X94361957Y-120447201D01*
X94514685Y-120406277D01*
X94564804Y-120377339D01*
X94651616Y-120327220D01*
X94763420Y-120215416D01*
X94763420Y-120215414D01*
X94773628Y-120205207D01*
X94773630Y-120205204D01*
X95240483Y-119738350D01*
X95301804Y-119704867D01*
X95371496Y-119709851D01*
X95401047Y-119725714D01*
X95485862Y-119787335D01*
X95572184Y-119850051D01*
X95761588Y-119946557D01*
X95963757Y-120012246D01*
X96173713Y-120045500D01*
X96173714Y-120045500D01*
X96386286Y-120045500D01*
X96386287Y-120045500D01*
X96596243Y-120012246D01*
X96798412Y-119946557D01*
X96987816Y-119850051D01*
X97074138Y-119787335D01*
X97159786Y-119725109D01*
X97159788Y-119725106D01*
X97159792Y-119725104D01*
X97310104Y-119574792D01*
X97310106Y-119574788D01*
X97310109Y-119574786D01*
X97435048Y-119402820D01*
X97435047Y-119402820D01*
X97435051Y-119402816D01*
X97439514Y-119394054D01*
X97487488Y-119343259D01*
X97555308Y-119326463D01*
X97621444Y-119348999D01*
X97660486Y-119394056D01*
X97664951Y-119402820D01*
X97789890Y-119574786D01*
X97940213Y-119725109D01*
X98112179Y-119850048D01*
X98112181Y-119850049D01*
X98112184Y-119850051D01*
X98301588Y-119946557D01*
X98503757Y-120012246D01*
X98713713Y-120045500D01*
X98713714Y-120045500D01*
X98926286Y-120045500D01*
X98926287Y-120045500D01*
X99136243Y-120012246D01*
X99338412Y-119946557D01*
X99527816Y-119850051D01*
X99614138Y-119787335D01*
X99699786Y-119725109D01*
X99699788Y-119725106D01*
X99699792Y-119725104D01*
X99850104Y-119574792D01*
X99850106Y-119574788D01*
X99850109Y-119574786D01*
X99975048Y-119402820D01*
X99975047Y-119402820D01*
X99975051Y-119402816D01*
X99979514Y-119394054D01*
X100027488Y-119343259D01*
X100095308Y-119326463D01*
X100161444Y-119348999D01*
X100200486Y-119394056D01*
X100204951Y-119402820D01*
X100329890Y-119574786D01*
X100480213Y-119725109D01*
X100652179Y-119850048D01*
X100652181Y-119850049D01*
X100652184Y-119850051D01*
X100841588Y-119946557D01*
X101043757Y-120012246D01*
X101253713Y-120045500D01*
X101253714Y-120045500D01*
X101466286Y-120045500D01*
X101466287Y-120045500D01*
X101676243Y-120012246D01*
X101878412Y-119946557D01*
X102067816Y-119850051D01*
X102154138Y-119787335D01*
X102239786Y-119725109D01*
X102239788Y-119725106D01*
X102239792Y-119725104D01*
X102390104Y-119574792D01*
X102390106Y-119574788D01*
X102390109Y-119574786D01*
X102515048Y-119402820D01*
X102515047Y-119402820D01*
X102515051Y-119402816D01*
X102519514Y-119394054D01*
X102567488Y-119343259D01*
X102635308Y-119326463D01*
X102701444Y-119348999D01*
X102740486Y-119394056D01*
X102744951Y-119402820D01*
X102869890Y-119574786D01*
X103020213Y-119725109D01*
X103192179Y-119850048D01*
X103192181Y-119850049D01*
X103192184Y-119850051D01*
X103381588Y-119946557D01*
X103583757Y-120012246D01*
X103793713Y-120045500D01*
X103793714Y-120045500D01*
X104006286Y-120045500D01*
X104006287Y-120045500D01*
X104216243Y-120012246D01*
X104418412Y-119946557D01*
X104607816Y-119850051D01*
X104694138Y-119787335D01*
X104779786Y-119725109D01*
X104779788Y-119725106D01*
X104779792Y-119725104D01*
X104930104Y-119574792D01*
X104930106Y-119574788D01*
X104930109Y-119574786D01*
X105055048Y-119402820D01*
X105055047Y-119402820D01*
X105055051Y-119402816D01*
X105059514Y-119394054D01*
X105107488Y-119343259D01*
X105175308Y-119326463D01*
X105241444Y-119348999D01*
X105280486Y-119394056D01*
X105284951Y-119402820D01*
X105409890Y-119574786D01*
X105560213Y-119725109D01*
X105732179Y-119850048D01*
X105732181Y-119850049D01*
X105732184Y-119850051D01*
X105921588Y-119946557D01*
X106123757Y-120012246D01*
X106333713Y-120045500D01*
X106333714Y-120045500D01*
X106546286Y-120045500D01*
X106546287Y-120045500D01*
X106756243Y-120012246D01*
X106958412Y-119946557D01*
X107147816Y-119850051D01*
X107234138Y-119787335D01*
X107319786Y-119725109D01*
X107319788Y-119725106D01*
X107319792Y-119725104D01*
X107470104Y-119574792D01*
X107470106Y-119574788D01*
X107470109Y-119574786D01*
X107595048Y-119402820D01*
X107595047Y-119402820D01*
X107595051Y-119402816D01*
X107691557Y-119213412D01*
X107757246Y-119011243D01*
X107790500Y-118801287D01*
X107790500Y-118588713D01*
X107757246Y-118378757D01*
X107691557Y-118176588D01*
X107595051Y-117987184D01*
X107595049Y-117987181D01*
X107595048Y-117987179D01*
X107470109Y-117815213D01*
X107319786Y-117664890D01*
X107147820Y-117539951D01*
X107146132Y-117539091D01*
X107139054Y-117535484D01*
X107088259Y-117487512D01*
X107071463Y-117419692D01*
X107093999Y-117353556D01*
X107139054Y-117314515D01*
X107147816Y-117310051D01*
X107261257Y-117227632D01*
X107319786Y-117185109D01*
X107319788Y-117185106D01*
X107319792Y-117185104D01*
X107470104Y-117034792D01*
X107470106Y-117034788D01*
X107470109Y-117034786D01*
X107595048Y-116862820D01*
X107595047Y-116862820D01*
X107595051Y-116862816D01*
X107691557Y-116673412D01*
X107757246Y-116471243D01*
X107790500Y-116261287D01*
X107790500Y-116048713D01*
X107757246Y-115838757D01*
X107691557Y-115636588D01*
X107595051Y-115447184D01*
X107595049Y-115447181D01*
X107595048Y-115447179D01*
X107470109Y-115275213D01*
X107319786Y-115124890D01*
X107147820Y-114999951D01*
X106958414Y-114903444D01*
X106958413Y-114903443D01*
X106958412Y-114903443D01*
X106756243Y-114837754D01*
X106756241Y-114837753D01*
X106756240Y-114837753D01*
X106581315Y-114810048D01*
X106546287Y-114804500D01*
X106333713Y-114804500D01*
X106298685Y-114810048D01*
X106123760Y-114837753D01*
X106123757Y-114837754D01*
X105926679Y-114901789D01*
X105921585Y-114903444D01*
X105732179Y-114999951D01*
X105560213Y-115124890D01*
X105409890Y-115275213D01*
X105284949Y-115447182D01*
X105280484Y-115455946D01*
X105232509Y-115506742D01*
X105164688Y-115523536D01*
X105098553Y-115500998D01*
X105059516Y-115455946D01*
X105055050Y-115447182D01*
X104930109Y-115275213D01*
X104779786Y-115124890D01*
X104607820Y-114999951D01*
X104418414Y-114903444D01*
X104418413Y-114903443D01*
X104418412Y-114903443D01*
X104216243Y-114837754D01*
X104216241Y-114837753D01*
X104216240Y-114837753D01*
X104041315Y-114810048D01*
X104006287Y-114804500D01*
X103793713Y-114804500D01*
X103758685Y-114810048D01*
X103583760Y-114837753D01*
X103583757Y-114837754D01*
X103386679Y-114901789D01*
X103381585Y-114903444D01*
X103192179Y-114999951D01*
X103020213Y-115124890D01*
X102869890Y-115275213D01*
X102744949Y-115447182D01*
X102740484Y-115455946D01*
X102692509Y-115506742D01*
X102624688Y-115523536D01*
X102558553Y-115500998D01*
X102519516Y-115455946D01*
X102515050Y-115447182D01*
X102390109Y-115275213D01*
X102239786Y-115124890D01*
X102067815Y-114999948D01*
X102067814Y-114999947D01*
X102028205Y-114979765D01*
X101977409Y-114931791D01*
X101960500Y-114869281D01*
X101960500Y-112510945D01*
X101960500Y-112510943D01*
X101919577Y-112358216D01*
X101919577Y-112358215D01*
X101878652Y-112287331D01*
X101840520Y-112221284D01*
X101728716Y-112109480D01*
X101728715Y-112109479D01*
X101724385Y-112105149D01*
X101724374Y-112105139D01*
X101131416Y-111512181D01*
X101097931Y-111450858D01*
X101102915Y-111381166D01*
X101144787Y-111325233D01*
X101210251Y-111300816D01*
X101219097Y-111300500D01*
X101412351Y-111300500D01*
X101412352Y-111300500D01*
X101614534Y-111268477D01*
X101809219Y-111205220D01*
X101991610Y-111112287D01*
X102120482Y-111018657D01*
X102157213Y-110991971D01*
X102157215Y-110991968D01*
X102157219Y-110991966D01*
X102301966Y-110847219D01*
X102301968Y-110847215D01*
X102301971Y-110847213D01*
X102422284Y-110681614D01*
X102422285Y-110681613D01*
X102422287Y-110681610D01*
X102469516Y-110588917D01*
X102517489Y-110538123D01*
X102585310Y-110521328D01*
X102651445Y-110543865D01*
X102690483Y-110588917D01*
X102734348Y-110675006D01*
X102737715Y-110681614D01*
X102858028Y-110847213D01*
X103002786Y-110991971D01*
X103130499Y-111084758D01*
X103168390Y-111112287D01*
X103284607Y-111171503D01*
X103350776Y-111205218D01*
X103350778Y-111205218D01*
X103350781Y-111205220D01*
X103425535Y-111229509D01*
X103545465Y-111268477D01*
X103579212Y-111273822D01*
X103747648Y-111300500D01*
X103747649Y-111300500D01*
X103952351Y-111300500D01*
X103952352Y-111300500D01*
X104154534Y-111268477D01*
X104349219Y-111205220D01*
X104531610Y-111112287D01*
X104660482Y-111018657D01*
X104697213Y-110991971D01*
X104697215Y-110991968D01*
X104697219Y-110991966D01*
X104841966Y-110847219D01*
X104841968Y-110847215D01*
X104841971Y-110847213D01*
X104962284Y-110681614D01*
X104962285Y-110681613D01*
X104962287Y-110681610D01*
X105009516Y-110588917D01*
X105057489Y-110538123D01*
X105125310Y-110521328D01*
X105191445Y-110543865D01*
X105230483Y-110588917D01*
X105274348Y-110675006D01*
X105277715Y-110681614D01*
X105398028Y-110847213D01*
X105542786Y-110991971D01*
X105670499Y-111084758D01*
X105708390Y-111112287D01*
X105824607Y-111171503D01*
X105890776Y-111205218D01*
X105890778Y-111205218D01*
X105890781Y-111205220D01*
X105965535Y-111229509D01*
X106085465Y-111268477D01*
X106119212Y-111273822D01*
X106287648Y-111300500D01*
X106287649Y-111300500D01*
X106492351Y-111300500D01*
X106492352Y-111300500D01*
X106694534Y-111268477D01*
X106889219Y-111205220D01*
X107071610Y-111112287D01*
X107200482Y-111018657D01*
X107237213Y-110991971D01*
X107237215Y-110991968D01*
X107237219Y-110991966D01*
X107381966Y-110847219D01*
X107381968Y-110847215D01*
X107381971Y-110847213D01*
X107486892Y-110702799D01*
X107502287Y-110681610D01*
X107595220Y-110499219D01*
X107658477Y-110304534D01*
X107672320Y-110217135D01*
X111149500Y-110217135D01*
X111149500Y-112012870D01*
X111149501Y-112012876D01*
X111155908Y-112072483D01*
X111206202Y-112207328D01*
X111206206Y-112207335D01*
X111292452Y-112322544D01*
X111292455Y-112322547D01*
X111407664Y-112408793D01*
X111407671Y-112408797D01*
X111539082Y-112457810D01*
X111595016Y-112499681D01*
X111619433Y-112565145D01*
X111604582Y-112633418D01*
X111583431Y-112661673D01*
X111469889Y-112775215D01*
X111344951Y-112947179D01*
X111248444Y-113136585D01*
X111182753Y-113338760D01*
X111149500Y-113548713D01*
X111149500Y-113761286D01*
X111182753Y-113971239D01*
X111248444Y-114173414D01*
X111344951Y-114362820D01*
X111469890Y-114534786D01*
X111620213Y-114685109D01*
X111792182Y-114810050D01*
X111800946Y-114814516D01*
X111851742Y-114862491D01*
X111868536Y-114930312D01*
X111845998Y-114996447D01*
X111800946Y-115035484D01*
X111792182Y-115039949D01*
X111620213Y-115164890D01*
X111469890Y-115315213D01*
X111344951Y-115487179D01*
X111248444Y-115676585D01*
X111182753Y-115878760D01*
X111149500Y-116088713D01*
X111149500Y-116301286D01*
X111182753Y-116511239D01*
X111248444Y-116713414D01*
X111344951Y-116902820D01*
X111469890Y-117074786D01*
X111620213Y-117225109D01*
X111792182Y-117350050D01*
X111800946Y-117354516D01*
X111851742Y-117402491D01*
X111868536Y-117470312D01*
X111845998Y-117536447D01*
X111800946Y-117575484D01*
X111792182Y-117579949D01*
X111620213Y-117704890D01*
X111469890Y-117855213D01*
X111344951Y-118027179D01*
X111248444Y-118216585D01*
X111182753Y-118418760D01*
X111149500Y-118628713D01*
X111149500Y-118841286D01*
X111182753Y-119051239D01*
X111248444Y-119253414D01*
X111344951Y-119442820D01*
X111469890Y-119614786D01*
X111620213Y-119765109D01*
X111792179Y-119890048D01*
X111792181Y-119890049D01*
X111792184Y-119890051D01*
X111981588Y-119986557D01*
X112183757Y-120052246D01*
X112393713Y-120085500D01*
X112393714Y-120085500D01*
X112606286Y-120085500D01*
X112606287Y-120085500D01*
X112816243Y-120052246D01*
X113018412Y-119986557D01*
X113207816Y-119890051D01*
X113262876Y-119850048D01*
X113379786Y-119765109D01*
X113379788Y-119765106D01*
X113379792Y-119765104D01*
X113530104Y-119614792D01*
X113530106Y-119614788D01*
X113530109Y-119614786D01*
X113655048Y-119442820D01*
X113655047Y-119442820D01*
X113655051Y-119442816D01*
X113751557Y-119253412D01*
X113817246Y-119051243D01*
X113850500Y-118841287D01*
X113850500Y-118628713D01*
X113817246Y-118418757D01*
X113751557Y-118216588D01*
X113655051Y-118027184D01*
X113655049Y-118027181D01*
X113655048Y-118027179D01*
X113530109Y-117855213D01*
X113379786Y-117704890D01*
X113207820Y-117579951D01*
X113207205Y-117579637D01*
X113199054Y-117575484D01*
X113148259Y-117527512D01*
X113131463Y-117459692D01*
X113153999Y-117393556D01*
X113199054Y-117354515D01*
X113207816Y-117350051D01*
X113294138Y-117287335D01*
X113379786Y-117225109D01*
X113379788Y-117225106D01*
X113379792Y-117225104D01*
X113530104Y-117074792D01*
X113530106Y-117074788D01*
X113530109Y-117074786D01*
X113655048Y-116902820D01*
X113655047Y-116902820D01*
X113655051Y-116902816D01*
X113751557Y-116713412D01*
X113817246Y-116511243D01*
X113850500Y-116301287D01*
X113850500Y-116088713D01*
X113817246Y-115878757D01*
X113751557Y-115676588D01*
X113655051Y-115487184D01*
X113655049Y-115487181D01*
X113655048Y-115487179D01*
X113530109Y-115315213D01*
X113379786Y-115164890D01*
X113207820Y-115039951D01*
X113207205Y-115039637D01*
X113199054Y-115035484D01*
X113148259Y-114987512D01*
X113131463Y-114919692D01*
X113153999Y-114853556D01*
X113199054Y-114814515D01*
X113207816Y-114810051D01*
X113311852Y-114734465D01*
X113379786Y-114685109D01*
X113379788Y-114685106D01*
X113379792Y-114685104D01*
X113530104Y-114534792D01*
X113530106Y-114534788D01*
X113530109Y-114534786D01*
X113655048Y-114362820D01*
X113655047Y-114362820D01*
X113655051Y-114362816D01*
X113751557Y-114173412D01*
X113817246Y-113971243D01*
X113850500Y-113761287D01*
X113850500Y-113548713D01*
X113817246Y-113338757D01*
X113751557Y-113136588D01*
X113655051Y-112947184D01*
X113655049Y-112947181D01*
X113655048Y-112947179D01*
X113530109Y-112775213D01*
X113416569Y-112661673D01*
X113383084Y-112600350D01*
X113388068Y-112530658D01*
X113429940Y-112474725D01*
X113460915Y-112457810D01*
X113592331Y-112408796D01*
X113707546Y-112322546D01*
X113793796Y-112207331D01*
X113844091Y-112072483D01*
X113850500Y-112012873D01*
X113850499Y-110217128D01*
X113844091Y-110157517D01*
X113824152Y-110104059D01*
X113793797Y-110022671D01*
X113793793Y-110022664D01*
X113707547Y-109907455D01*
X113707544Y-109907452D01*
X113592335Y-109821206D01*
X113592328Y-109821202D01*
X113457482Y-109770908D01*
X113457483Y-109770908D01*
X113397883Y-109764501D01*
X113397881Y-109764500D01*
X113397873Y-109764500D01*
X113397864Y-109764500D01*
X111602129Y-109764500D01*
X111602123Y-109764501D01*
X111542516Y-109770908D01*
X111407671Y-109821202D01*
X111407664Y-109821206D01*
X111292455Y-109907452D01*
X111292452Y-109907455D01*
X111206206Y-110022664D01*
X111206202Y-110022671D01*
X111155908Y-110157517D01*
X111149501Y-110217116D01*
X111149501Y-110217123D01*
X111149500Y-110217135D01*
X107672320Y-110217135D01*
X107690500Y-110102352D01*
X107690500Y-109897648D01*
X107658477Y-109695466D01*
X107595220Y-109500781D01*
X107595218Y-109500778D01*
X107595218Y-109500776D01*
X107543865Y-109399991D01*
X107502287Y-109318390D01*
X107486894Y-109297203D01*
X107381971Y-109152786D01*
X107237213Y-109008028D01*
X107071613Y-108887715D01*
X107071612Y-108887714D01*
X107071610Y-108887713D01*
X106993404Y-108847865D01*
X106889223Y-108794781D01*
X106694534Y-108731522D01*
X106519995Y-108703878D01*
X106492352Y-108699500D01*
X106287648Y-108699500D01*
X106263329Y-108703351D01*
X106085465Y-108731522D01*
X105890776Y-108794781D01*
X105708386Y-108887715D01*
X105542786Y-109008028D01*
X105398028Y-109152786D01*
X105277715Y-109318386D01*
X105230485Y-109411080D01*
X105182510Y-109461876D01*
X105114689Y-109478671D01*
X105048554Y-109456134D01*
X105009515Y-109411080D01*
X105003861Y-109399983D01*
X104962287Y-109318390D01*
X104946894Y-109297203D01*
X104841971Y-109152786D01*
X104697213Y-109008028D01*
X104531613Y-108887715D01*
X104531612Y-108887714D01*
X104531610Y-108887713D01*
X104453404Y-108847865D01*
X104349223Y-108794781D01*
X104154534Y-108731522D01*
X103979995Y-108703878D01*
X103952352Y-108699500D01*
X103747648Y-108699500D01*
X103723329Y-108703351D01*
X103545465Y-108731522D01*
X103350776Y-108794781D01*
X103168386Y-108887715D01*
X103002786Y-109008028D01*
X102858028Y-109152786D01*
X102737715Y-109318386D01*
X102690485Y-109411080D01*
X102642510Y-109461876D01*
X102574689Y-109478671D01*
X102508554Y-109456134D01*
X102469515Y-109411080D01*
X102463861Y-109399983D01*
X102422287Y-109318390D01*
X102406894Y-109297203D01*
X102301971Y-109152786D01*
X102157213Y-109008028D01*
X101991613Y-108887715D01*
X101991612Y-108887714D01*
X101991610Y-108887713D01*
X101913404Y-108847865D01*
X101809223Y-108794781D01*
X101614534Y-108731522D01*
X101439995Y-108703878D01*
X101412352Y-108699500D01*
X101207648Y-108699500D01*
X101183329Y-108703351D01*
X101005465Y-108731522D01*
X100810776Y-108794781D01*
X100628386Y-108887715D01*
X100462786Y-109008028D01*
X100318028Y-109152786D01*
X100197715Y-109318386D01*
X100150485Y-109411080D01*
X100102510Y-109461876D01*
X100034689Y-109478671D01*
X99968554Y-109456134D01*
X99929515Y-109411080D01*
X99923861Y-109399983D01*
X99882287Y-109318390D01*
X99866894Y-109297203D01*
X99761971Y-109152786D01*
X99617213Y-109008028D01*
X99451613Y-108887715D01*
X99451612Y-108887714D01*
X99451610Y-108887713D01*
X99373404Y-108847865D01*
X99269223Y-108794781D01*
X99074534Y-108731522D01*
X98899995Y-108703878D01*
X98872352Y-108699500D01*
X98667648Y-108699500D01*
X98615346Y-108707784D01*
X98465464Y-108731523D01*
X98465461Y-108731523D01*
X98266147Y-108796285D01*
X98265717Y-108794963D01*
X98202486Y-108801763D01*
X98140006Y-108770490D01*
X98104352Y-108710402D01*
X98100500Y-108679733D01*
X98100500Y-103700266D01*
X98120185Y-103633227D01*
X98172989Y-103587472D01*
X98242147Y-103577528D01*
X98266029Y-103584080D01*
X98266148Y-103583714D01*
X98270777Y-103585218D01*
X98270781Y-103585220D01*
X98362004Y-103614860D01*
X98465465Y-103648477D01*
X98566557Y-103664488D01*
X98667648Y-103680500D01*
X98667649Y-103680500D01*
X98872351Y-103680500D01*
X98872352Y-103680500D01*
X99074534Y-103648477D01*
X99269219Y-103585220D01*
X99451610Y-103492287D01*
X99566553Y-103408777D01*
X99617213Y-103371971D01*
X99617215Y-103371968D01*
X99617219Y-103371966D01*
X99761966Y-103227219D01*
X99761968Y-103227215D01*
X99761971Y-103227213D01*
X99882284Y-103061614D01*
X99882285Y-103061613D01*
X99882287Y-103061610D01*
X99929516Y-102968917D01*
X99977489Y-102918123D01*
X100045310Y-102901328D01*
X100111445Y-102923865D01*
X100150483Y-102968917D01*
X100175704Y-103018414D01*
X100197715Y-103061614D01*
X100318028Y-103227213D01*
X100462786Y-103371971D01*
X100607361Y-103477009D01*
X100628390Y-103492287D01*
X100722511Y-103540244D01*
X100810776Y-103585218D01*
X100810778Y-103585218D01*
X100810781Y-103585220D01*
X100901994Y-103614857D01*
X101005465Y-103648477D01*
X101106557Y-103664488D01*
X101207648Y-103680500D01*
X101207649Y-103680500D01*
X101412351Y-103680500D01*
X101412352Y-103680500D01*
X101614534Y-103648477D01*
X101809219Y-103585220D01*
X101991610Y-103492287D01*
X102106553Y-103408777D01*
X102157213Y-103371971D01*
X102157215Y-103371968D01*
X102157219Y-103371966D01*
X102301966Y-103227219D01*
X102301968Y-103227215D01*
X102301971Y-103227213D01*
X102422284Y-103061614D01*
X102422285Y-103061613D01*
X102422287Y-103061610D01*
X102469516Y-102968917D01*
X102517489Y-102918123D01*
X102585310Y-102901328D01*
X102651445Y-102923865D01*
X102690483Y-102968917D01*
X102715704Y-103018414D01*
X102737715Y-103061614D01*
X102858028Y-103227213D01*
X103002786Y-103371971D01*
X103147361Y-103477009D01*
X103168390Y-103492287D01*
X103262511Y-103540244D01*
X103350776Y-103585218D01*
X103350778Y-103585218D01*
X103350781Y-103585220D01*
X103441994Y-103614857D01*
X103545465Y-103648477D01*
X103646557Y-103664488D01*
X103747648Y-103680500D01*
X103747649Y-103680500D01*
X103952351Y-103680500D01*
X103952352Y-103680500D01*
X104154534Y-103648477D01*
X104349219Y-103585220D01*
X104531610Y-103492287D01*
X104646553Y-103408777D01*
X104697213Y-103371971D01*
X104697215Y-103371968D01*
X104697219Y-103371966D01*
X104841966Y-103227219D01*
X104841968Y-103227215D01*
X104841971Y-103227213D01*
X104962284Y-103061614D01*
X104962285Y-103061613D01*
X104962287Y-103061610D01*
X105009516Y-102968917D01*
X105057489Y-102918123D01*
X105125310Y-102901328D01*
X105191445Y-102923865D01*
X105230483Y-102968917D01*
X105255704Y-103018414D01*
X105277715Y-103061614D01*
X105398028Y-103227213D01*
X105542786Y-103371971D01*
X105687361Y-103477009D01*
X105708390Y-103492287D01*
X105802511Y-103540244D01*
X105890776Y-103585218D01*
X105890778Y-103585218D01*
X105890781Y-103585220D01*
X105981994Y-103614857D01*
X106085465Y-103648477D01*
X106186557Y-103664488D01*
X106287648Y-103680500D01*
X106287649Y-103680500D01*
X106492351Y-103680500D01*
X106492352Y-103680500D01*
X106694534Y-103648477D01*
X106889219Y-103585220D01*
X107071610Y-103492287D01*
X107186553Y-103408777D01*
X107237213Y-103371971D01*
X107237215Y-103371968D01*
X107237219Y-103371966D01*
X107381966Y-103227219D01*
X107381968Y-103227215D01*
X107381971Y-103227213D01*
X107451536Y-103131463D01*
X107502287Y-103061610D01*
X107595220Y-102879219D01*
X107658477Y-102684534D01*
X107690500Y-102482352D01*
X107690500Y-102277648D01*
X107675629Y-102183757D01*
X107658477Y-102075465D01*
X107618417Y-101952173D01*
X107595220Y-101880781D01*
X107595218Y-101880778D01*
X107595218Y-101880776D01*
X107554542Y-101800946D01*
X107502287Y-101698390D01*
X107445489Y-101620213D01*
X107381971Y-101532786D01*
X107237213Y-101388028D01*
X107071613Y-101267715D01*
X107071612Y-101267714D01*
X107071610Y-101267713D01*
X107014386Y-101238556D01*
X106889223Y-101174781D01*
X106694534Y-101111522D01*
X106519995Y-101083878D01*
X106492352Y-101079500D01*
X106287648Y-101079500D01*
X106263329Y-101083351D01*
X106085465Y-101111522D01*
X105890776Y-101174781D01*
X105708386Y-101267715D01*
X105542786Y-101388028D01*
X105398028Y-101532786D01*
X105277715Y-101698386D01*
X105230485Y-101791080D01*
X105182510Y-101841876D01*
X105114689Y-101858671D01*
X105048554Y-101836134D01*
X105009515Y-101791080D01*
X105008883Y-101789840D01*
X104962287Y-101698390D01*
X104905489Y-101620213D01*
X104841971Y-101532786D01*
X104697213Y-101388028D01*
X104531613Y-101267715D01*
X104531612Y-101267714D01*
X104531610Y-101267713D01*
X104474386Y-101238556D01*
X104349223Y-101174781D01*
X104154534Y-101111522D01*
X103979995Y-101083878D01*
X103952352Y-101079500D01*
X103747648Y-101079500D01*
X103723329Y-101083351D01*
X103545465Y-101111522D01*
X103350776Y-101174781D01*
X103168386Y-101267715D01*
X103002786Y-101388028D01*
X102858028Y-101532786D01*
X102737715Y-101698386D01*
X102690485Y-101791080D01*
X102642510Y-101841876D01*
X102574689Y-101858671D01*
X102508554Y-101836134D01*
X102469515Y-101791080D01*
X102468883Y-101789840D01*
X102422287Y-101698390D01*
X102365489Y-101620213D01*
X102301971Y-101532786D01*
X102157213Y-101388028D01*
X101991613Y-101267715D01*
X101991612Y-101267714D01*
X101991610Y-101267713D01*
X101934386Y-101238556D01*
X101809223Y-101174781D01*
X101614534Y-101111522D01*
X101439995Y-101083878D01*
X101412352Y-101079500D01*
X101207648Y-101079500D01*
X101183329Y-101083351D01*
X101005465Y-101111522D01*
X100810776Y-101174781D01*
X100628386Y-101267715D01*
X100462786Y-101388028D01*
X100318028Y-101532786D01*
X100197715Y-101698386D01*
X100150485Y-101791080D01*
X100102510Y-101841876D01*
X100034689Y-101858671D01*
X99968554Y-101836134D01*
X99929515Y-101791080D01*
X99928883Y-101789840D01*
X99882287Y-101698390D01*
X99825489Y-101620213D01*
X99761971Y-101532786D01*
X99617213Y-101388028D01*
X99451613Y-101267715D01*
X99451612Y-101267714D01*
X99451610Y-101267713D01*
X99394386Y-101238556D01*
X99269223Y-101174781D01*
X99074534Y-101111522D01*
X98899995Y-101083878D01*
X98872352Y-101079500D01*
X98667648Y-101079500D01*
X98613297Y-101088108D01*
X98544004Y-101079153D01*
X98490552Y-101034157D01*
X98469913Y-100967405D01*
X98469900Y-100965635D01*
X98469900Y-100805955D01*
X98469899Y-100805953D01*
X98466025Y-100786479D01*
X98439137Y-100651303D01*
X98439135Y-100651298D01*
X98378797Y-100505627D01*
X98378790Y-100505614D01*
X98291189Y-100374511D01*
X98291186Y-100374507D01*
X98179692Y-100263013D01*
X98179688Y-100263010D01*
X98048585Y-100175409D01*
X98048572Y-100175402D01*
X97902901Y-100115064D01*
X97902889Y-100115061D01*
X97748245Y-100084300D01*
X97748242Y-100084300D01*
X97590558Y-100084300D01*
X97590555Y-100084300D01*
X97435910Y-100115061D01*
X97435898Y-100115064D01*
X97290227Y-100175402D01*
X97290214Y-100175409D01*
X97159111Y-100263010D01*
X97159107Y-100263013D01*
X97047613Y-100374507D01*
X97047610Y-100374511D01*
X96960009Y-100505614D01*
X96960002Y-100505627D01*
X96899664Y-100651298D01*
X96899661Y-100651310D01*
X96868900Y-100805953D01*
X96868900Y-100963646D01*
X96882176Y-101030390D01*
X96875949Y-101099982D01*
X96833085Y-101155159D01*
X96767196Y-101178403D01*
X96722241Y-101172512D01*
X96534536Y-101111523D01*
X96372898Y-101085922D01*
X96332352Y-101079500D01*
X96127648Y-101079500D01*
X96103329Y-101083351D01*
X95925465Y-101111522D01*
X95730776Y-101174781D01*
X95548386Y-101267715D01*
X95382786Y-101388028D01*
X95238028Y-101532786D01*
X95117715Y-101698386D01*
X95070485Y-101791080D01*
X95022510Y-101841876D01*
X94954689Y-101858671D01*
X94888554Y-101836134D01*
X94849515Y-101791080D01*
X94848883Y-101789840D01*
X94802287Y-101698390D01*
X94745489Y-101620213D01*
X94681971Y-101532786D01*
X94537213Y-101388028D01*
X94371613Y-101267715D01*
X94371612Y-101267714D01*
X94371610Y-101267713D01*
X94314386Y-101238556D01*
X94189223Y-101174781D01*
X93994534Y-101111522D01*
X93819995Y-101083878D01*
X93792352Y-101079500D01*
X93587648Y-101079500D01*
X93549599Y-101085526D01*
X93385468Y-101111522D01*
X93376717Y-101114365D01*
X93371154Y-101116173D01*
X93301313Y-101118167D01*
X93245157Y-101085922D01*
X93064590Y-100905355D01*
X93064588Y-100905352D01*
X92945717Y-100786481D01*
X92945716Y-100786480D01*
X92858904Y-100736360D01*
X92858904Y-100736359D01*
X92858900Y-100736358D01*
X92808785Y-100707423D01*
X92656057Y-100666499D01*
X92497943Y-100666499D01*
X92490347Y-100666499D01*
X92490331Y-100666500D01*
X90761157Y-100666500D01*
X90603042Y-100666500D01*
X90450315Y-100707423D01*
X90450314Y-100707423D01*
X90450312Y-100707424D01*
X90450309Y-100707425D01*
X90400196Y-100736359D01*
X90400195Y-100736360D01*
X90380346Y-100747820D01*
X90313385Y-100786479D01*
X90313382Y-100786481D01*
X89547679Y-101552184D01*
X89529640Y-101583431D01*
X89512356Y-101613368D01*
X89508407Y-101620208D01*
X89468623Y-101689114D01*
X89465649Y-101700213D01*
X89427699Y-101841843D01*
X89427699Y-101841845D01*
X89427699Y-101864492D01*
X89408014Y-101931531D01*
X89391380Y-101952173D01*
X89010000Y-102333553D01*
X89010000Y-102327339D01*
X88982741Y-102225606D01*
X88930080Y-102134394D01*
X88855606Y-102059920D01*
X88764394Y-102007259D01*
X88662661Y-101980000D01*
X88656446Y-101980000D01*
X89335922Y-101300524D01*
X89335921Y-101300523D01*
X89291359Y-101268147D01*
X89291350Y-101268141D01*
X89109031Y-101175244D01*
X88914417Y-101112009D01*
X88712317Y-101080000D01*
X88507683Y-101080000D01*
X88305582Y-101112009D01*
X88110968Y-101175244D01*
X87928644Y-101268143D01*
X87884077Y-101300523D01*
X87884077Y-101300524D01*
X88563554Y-101980000D01*
X88557339Y-101980000D01*
X88455606Y-102007259D01*
X88364394Y-102059920D01*
X88289920Y-102134394D01*
X88237259Y-102225606D01*
X88210000Y-102327339D01*
X88210000Y-102333553D01*
X87530524Y-101654077D01*
X87530523Y-101654077D01*
X87498143Y-101698644D01*
X87405244Y-101880968D01*
X87342009Y-102075582D01*
X87310000Y-102277682D01*
X87310000Y-102482317D01*
X87342009Y-102684417D01*
X87405244Y-102879031D01*
X87498141Y-103061350D01*
X87498147Y-103061359D01*
X87530523Y-103105921D01*
X87530524Y-103105922D01*
X88210000Y-102426446D01*
X88210000Y-102432661D01*
X88237259Y-102534394D01*
X88289920Y-102625606D01*
X88364394Y-102700080D01*
X88455606Y-102752741D01*
X88557339Y-102780000D01*
X88563553Y-102780000D01*
X87884076Y-103459474D01*
X87928650Y-103491859D01*
X88110968Y-103584755D01*
X88305582Y-103647990D01*
X88507683Y-103680000D01*
X88712317Y-103680000D01*
X88914417Y-103647990D01*
X89109031Y-103584755D01*
X89247405Y-103514250D01*
X89316074Y-103501354D01*
X89380815Y-103527630D01*
X89421072Y-103584737D01*
X89427700Y-103624735D01*
X89427700Y-108584426D01*
X89408015Y-108651465D01*
X89355211Y-108697220D01*
X89291098Y-108707784D01*
X89210011Y-108699500D01*
X88009998Y-108699500D01*
X88009981Y-108699501D01*
X87907203Y-108710000D01*
X87907200Y-108710001D01*
X87740668Y-108765185D01*
X87740663Y-108765187D01*
X87591342Y-108857289D01*
X87467289Y-108981342D01*
X87375187Y-109130663D01*
X87375186Y-109130666D01*
X87320001Y-109297203D01*
X87320001Y-109297204D01*
X87320000Y-109297204D01*
X87309500Y-109399983D01*
X68000500Y-109399983D01*
X68000500Y-105297135D01*
X73649500Y-105297135D01*
X73649500Y-107092870D01*
X73649501Y-107092876D01*
X73655908Y-107152483D01*
X73706202Y-107287328D01*
X73706206Y-107287335D01*
X73792452Y-107402544D01*
X73792455Y-107402547D01*
X73907664Y-107488793D01*
X73907671Y-107488797D01*
X74042517Y-107539091D01*
X74042516Y-107539091D01*
X74049444Y-107539835D01*
X74102127Y-107545500D01*
X75897872Y-107545499D01*
X75957483Y-107539091D01*
X76092331Y-107488796D01*
X76207546Y-107402546D01*
X76293796Y-107287331D01*
X76344091Y-107152483D01*
X76350500Y-107092873D01*
X76350499Y-106100513D01*
X78799500Y-106100513D01*
X78799500Y-106289486D01*
X78829059Y-106476118D01*
X78887454Y-106655836D01*
X78933284Y-106745781D01*
X78973240Y-106824199D01*
X79084310Y-106977073D01*
X79217927Y-107110690D01*
X79370801Y-107221760D01*
X79450347Y-107262290D01*
X79539163Y-107307545D01*
X79539165Y-107307545D01*
X79539168Y-107307547D01*
X79635497Y-107338846D01*
X79718881Y-107365940D01*
X79905514Y-107395500D01*
X79905519Y-107395500D01*
X80094486Y-107395500D01*
X80281118Y-107365940D01*
X80460832Y-107307547D01*
X80629199Y-107221760D01*
X80738087Y-107142648D01*
X82899500Y-107142648D01*
X82899500Y-107347351D01*
X82931522Y-107549534D01*
X82994781Y-107744223D01*
X83087715Y-107926613D01*
X83208028Y-108092213D01*
X83352786Y-108236971D01*
X83507749Y-108349556D01*
X83518390Y-108357287D01*
X83634607Y-108416503D01*
X83700776Y-108450218D01*
X83700778Y-108450218D01*
X83700781Y-108450220D01*
X83805137Y-108484127D01*
X83895465Y-108513477D01*
X83996557Y-108529488D01*
X84097648Y-108545500D01*
X84097649Y-108545500D01*
X84302351Y-108545500D01*
X84302352Y-108545500D01*
X84504534Y-108513477D01*
X84699219Y-108450220D01*
X84881610Y-108357287D01*
X84974590Y-108289732D01*
X85047213Y-108236971D01*
X85047215Y-108236968D01*
X85047219Y-108236966D01*
X85191966Y-108092219D01*
X85191968Y-108092215D01*
X85191971Y-108092213D01*
X85244732Y-108019590D01*
X85312287Y-107926610D01*
X85405220Y-107744219D01*
X85468477Y-107549534D01*
X85500500Y-107347352D01*
X85500500Y-107142648D01*
X85485841Y-107050095D01*
X85468477Y-106940465D01*
X85439127Y-106850137D01*
X85405220Y-106745781D01*
X85405218Y-106745778D01*
X85405218Y-106745776D01*
X85371503Y-106679607D01*
X85312287Y-106563390D01*
X85248881Y-106476118D01*
X85191971Y-106397786D01*
X85047213Y-106253028D01*
X84881611Y-106132713D01*
X84827621Y-106105203D01*
X84776825Y-106057228D01*
X84760031Y-105989407D01*
X84782569Y-105923272D01*
X84827624Y-105884233D01*
X84881349Y-105856859D01*
X84925921Y-105824474D01*
X84246447Y-105145000D01*
X84252661Y-105145000D01*
X84354394Y-105117741D01*
X84445606Y-105065080D01*
X84520080Y-104990606D01*
X84572741Y-104899394D01*
X84600000Y-104797661D01*
X84600000Y-104791447D01*
X85279474Y-105470921D01*
X85311859Y-105426349D01*
X85404755Y-105244031D01*
X85467990Y-105049417D01*
X85500000Y-104847317D01*
X85500000Y-104642682D01*
X85467990Y-104440582D01*
X85404755Y-104245968D01*
X85311859Y-104063650D01*
X85279474Y-104019077D01*
X85279474Y-104019076D01*
X84600000Y-104698551D01*
X84600000Y-104692339D01*
X84572741Y-104590606D01*
X84520080Y-104499394D01*
X84445606Y-104424920D01*
X84354394Y-104372259D01*
X84252661Y-104345000D01*
X84246446Y-104345000D01*
X84925922Y-103665524D01*
X84925921Y-103665523D01*
X84881359Y-103633147D01*
X84881350Y-103633141D01*
X84699031Y-103540244D01*
X84504417Y-103477009D01*
X84302317Y-103445000D01*
X84097683Y-103445000D01*
X83895582Y-103477009D01*
X83700968Y-103540244D01*
X83518644Y-103633143D01*
X83474077Y-103665523D01*
X83474077Y-103665524D01*
X84153554Y-104345000D01*
X84147339Y-104345000D01*
X84045606Y-104372259D01*
X83954394Y-104424920D01*
X83879920Y-104499394D01*
X83827259Y-104590606D01*
X83800000Y-104692339D01*
X83800000Y-104698553D01*
X83120524Y-104019077D01*
X83120523Y-104019077D01*
X83088143Y-104063644D01*
X82995244Y-104245968D01*
X82932009Y-104440582D01*
X82900000Y-104642682D01*
X82900000Y-104847317D01*
X82932009Y-105049417D01*
X82995244Y-105244031D01*
X83088141Y-105426350D01*
X83088147Y-105426359D01*
X83120523Y-105470921D01*
X83120524Y-105470922D01*
X83800000Y-104791446D01*
X83800000Y-104797661D01*
X83827259Y-104899394D01*
X83879920Y-104990606D01*
X83954394Y-105065080D01*
X84045606Y-105117741D01*
X84147339Y-105145000D01*
X84153553Y-105145000D01*
X83474076Y-105824474D01*
X83518652Y-105856861D01*
X83572376Y-105884234D01*
X83623172Y-105932208D01*
X83639968Y-106000028D01*
X83617431Y-106066164D01*
X83572379Y-106105203D01*
X83518386Y-106132714D01*
X83352786Y-106253028D01*
X83208028Y-106397786D01*
X83087715Y-106563386D01*
X82994781Y-106745776D01*
X82931522Y-106940465D01*
X82899500Y-107142648D01*
X80738087Y-107142648D01*
X80782073Y-107110690D01*
X80915690Y-106977073D01*
X81026760Y-106824199D01*
X81112547Y-106655832D01*
X81170940Y-106476118D01*
X81200500Y-106289486D01*
X81200500Y-106100513D01*
X81170940Y-105913881D01*
X81112545Y-105734163D01*
X81026759Y-105565800D01*
X80915690Y-105412927D01*
X80782073Y-105279310D01*
X80629199Y-105168240D01*
X80583588Y-105145000D01*
X80460836Y-105082454D01*
X80281118Y-105024059D01*
X80094486Y-104994500D01*
X80094481Y-104994500D01*
X79905519Y-104994500D01*
X79905514Y-104994500D01*
X79718881Y-105024059D01*
X79539163Y-105082454D01*
X79370800Y-105168240D01*
X79283579Y-105231610D01*
X79217927Y-105279310D01*
X79217925Y-105279312D01*
X79217924Y-105279312D01*
X79084312Y-105412924D01*
X79084312Y-105412925D01*
X79084310Y-105412927D01*
X79074558Y-105426350D01*
X78973240Y-105565800D01*
X78887454Y-105734163D01*
X78829059Y-105913881D01*
X78799500Y-106100513D01*
X76350499Y-106100513D01*
X76350499Y-105297128D01*
X76344091Y-105237517D01*
X76318252Y-105168240D01*
X76293797Y-105102671D01*
X76293793Y-105102664D01*
X76207547Y-104987455D01*
X76207544Y-104987452D01*
X76092335Y-104901206D01*
X76092328Y-104901202D01*
X75957482Y-104850908D01*
X75957483Y-104850908D01*
X75897883Y-104844501D01*
X75897881Y-104844500D01*
X75897873Y-104844500D01*
X75897864Y-104844500D01*
X74102129Y-104844500D01*
X74102123Y-104844501D01*
X74042516Y-104850908D01*
X73907671Y-104901202D01*
X73907664Y-104901206D01*
X73792455Y-104987452D01*
X73792452Y-104987455D01*
X73706206Y-105102664D01*
X73706202Y-105102671D01*
X73655908Y-105237517D01*
X73651415Y-105279312D01*
X73649501Y-105297123D01*
X73649500Y-105297135D01*
X68000500Y-105297135D01*
X68000500Y-101602135D01*
X73819500Y-101602135D01*
X73819500Y-103397870D01*
X73819501Y-103397876D01*
X73825908Y-103457483D01*
X73876202Y-103592328D01*
X73876206Y-103592335D01*
X73962452Y-103707544D01*
X73962455Y-103707547D01*
X74077664Y-103793793D01*
X74077671Y-103793797D01*
X74212517Y-103844091D01*
X74212516Y-103844091D01*
X74219444Y-103844835D01*
X74272127Y-103850500D01*
X76067872Y-103850499D01*
X76127483Y-103844091D01*
X76262331Y-103793796D01*
X76377546Y-103707546D01*
X76463796Y-103592331D01*
X76512810Y-103460916D01*
X76554681Y-103404984D01*
X76620145Y-103380566D01*
X76688418Y-103395417D01*
X76716673Y-103416569D01*
X76830213Y-103530109D01*
X77002179Y-103655048D01*
X77002181Y-103655049D01*
X77002184Y-103655051D01*
X77191588Y-103751557D01*
X77393757Y-103817246D01*
X77603713Y-103850500D01*
X77603714Y-103850500D01*
X77816286Y-103850500D01*
X77816287Y-103850500D01*
X78026243Y-103817246D01*
X78228412Y-103751557D01*
X78417816Y-103655051D01*
X78447854Y-103633227D01*
X78589786Y-103530109D01*
X78589788Y-103530106D01*
X78589792Y-103530104D01*
X78740104Y-103379792D01*
X78740106Y-103379788D01*
X78740109Y-103379786D01*
X78865048Y-103207820D01*
X78865047Y-103207820D01*
X78865051Y-103207816D01*
X78869514Y-103199054D01*
X78917488Y-103148259D01*
X78985308Y-103131463D01*
X79051444Y-103153999D01*
X79090486Y-103199056D01*
X79094951Y-103207820D01*
X79219890Y-103379786D01*
X79370213Y-103530109D01*
X79542179Y-103655048D01*
X79542181Y-103655049D01*
X79542184Y-103655051D01*
X79731588Y-103751557D01*
X79933757Y-103817246D01*
X80143713Y-103850500D01*
X80143714Y-103850500D01*
X80356286Y-103850500D01*
X80356287Y-103850500D01*
X80566243Y-103817246D01*
X80768412Y-103751557D01*
X80957816Y-103655051D01*
X80991214Y-103630786D01*
X81016432Y-103612465D01*
X81129786Y-103530109D01*
X81129788Y-103530106D01*
X81129792Y-103530104D01*
X81280104Y-103379792D01*
X81280106Y-103379788D01*
X81280109Y-103379786D01*
X81405048Y-103207820D01*
X81405047Y-103207820D01*
X81405051Y-103207816D01*
X81501557Y-103018412D01*
X81567246Y-102816243D01*
X81600500Y-102606287D01*
X81600500Y-102393713D01*
X81567246Y-102183757D01*
X81501557Y-101981588D01*
X81405051Y-101792184D01*
X81405049Y-101792181D01*
X81405048Y-101792179D01*
X81280109Y-101620213D01*
X81129790Y-101469894D01*
X81129785Y-101469890D01*
X81099795Y-101448101D01*
X80957820Y-101344951D01*
X80768414Y-101248444D01*
X80768413Y-101248443D01*
X80768412Y-101248443D01*
X80566243Y-101182754D01*
X80566241Y-101182753D01*
X80566240Y-101182753D01*
X80404957Y-101157208D01*
X80356287Y-101149500D01*
X80143713Y-101149500D01*
X80095042Y-101157208D01*
X79933760Y-101182753D01*
X79731585Y-101248444D01*
X79542179Y-101344951D01*
X79370213Y-101469890D01*
X79219890Y-101620213D01*
X79094949Y-101792182D01*
X79090484Y-101800946D01*
X79042509Y-101851742D01*
X78974688Y-101868536D01*
X78908553Y-101845998D01*
X78869516Y-101800946D01*
X78865050Y-101792182D01*
X78740109Y-101620213D01*
X78589786Y-101469890D01*
X78417820Y-101344951D01*
X78228414Y-101248444D01*
X78228413Y-101248443D01*
X78228412Y-101248443D01*
X78026243Y-101182754D01*
X78026241Y-101182753D01*
X78026240Y-101182753D01*
X77864957Y-101157208D01*
X77816287Y-101149500D01*
X77603713Y-101149500D01*
X77555042Y-101157208D01*
X77393760Y-101182753D01*
X77191585Y-101248444D01*
X77002179Y-101344951D01*
X76830215Y-101469889D01*
X76716673Y-101583431D01*
X76655350Y-101616915D01*
X76585658Y-101611931D01*
X76529725Y-101570059D01*
X76512810Y-101539082D01*
X76463797Y-101407671D01*
X76463793Y-101407664D01*
X76377547Y-101292455D01*
X76377544Y-101292452D01*
X76262335Y-101206206D01*
X76262328Y-101206202D01*
X76127482Y-101155908D01*
X76127483Y-101155908D01*
X76067883Y-101149501D01*
X76067881Y-101149500D01*
X76067873Y-101149500D01*
X76067864Y-101149500D01*
X74272129Y-101149500D01*
X74272123Y-101149501D01*
X74212516Y-101155908D01*
X74077671Y-101206202D01*
X74077664Y-101206206D01*
X73962455Y-101292452D01*
X73962452Y-101292455D01*
X73876206Y-101407664D01*
X73876202Y-101407671D01*
X73825908Y-101542517D01*
X73819501Y-101602116D01*
X73819500Y-101602135D01*
X68000500Y-101602135D01*
X68000500Y-94853713D01*
X86069500Y-94853713D01*
X86069500Y-95066286D01*
X86102753Y-95276239D01*
X86168444Y-95478414D01*
X86264951Y-95667820D01*
X86389890Y-95839786D01*
X86503430Y-95953326D01*
X86536915Y-96014649D01*
X86531931Y-96084341D01*
X86490059Y-96140274D01*
X86459083Y-96157189D01*
X86327669Y-96206203D01*
X86327664Y-96206206D01*
X86212455Y-96292452D01*
X86212452Y-96292455D01*
X86126206Y-96407664D01*
X86126202Y-96407671D01*
X86075908Y-96542517D01*
X86069501Y-96602116D01*
X86069500Y-96602135D01*
X86069500Y-98397870D01*
X86069501Y-98397876D01*
X86075908Y-98457483D01*
X86126202Y-98592328D01*
X86126206Y-98592335D01*
X86212452Y-98707544D01*
X86212455Y-98707547D01*
X86327664Y-98793793D01*
X86327671Y-98793797D01*
X86462517Y-98844091D01*
X86462516Y-98844091D01*
X86469444Y-98844835D01*
X86522127Y-98850500D01*
X88317872Y-98850499D01*
X88377483Y-98844091D01*
X88512331Y-98793796D01*
X88627546Y-98707546D01*
X88713796Y-98592331D01*
X88762810Y-98460916D01*
X88804681Y-98404984D01*
X88870145Y-98380566D01*
X88938418Y-98395417D01*
X88966673Y-98416569D01*
X89080213Y-98530109D01*
X89252179Y-98655048D01*
X89252181Y-98655049D01*
X89252184Y-98655051D01*
X89441588Y-98751557D01*
X89643757Y-98817246D01*
X89853713Y-98850500D01*
X89853714Y-98850500D01*
X90066286Y-98850500D01*
X90066287Y-98850500D01*
X90276243Y-98817246D01*
X90478412Y-98751557D01*
X90667816Y-98655051D01*
X90754138Y-98592335D01*
X90839786Y-98530109D01*
X90839788Y-98530106D01*
X90839792Y-98530104D01*
X90990104Y-98379792D01*
X90990106Y-98379788D01*
X90990109Y-98379786D01*
X91115048Y-98207820D01*
X91115047Y-98207820D01*
X91115051Y-98207816D01*
X91119514Y-98199054D01*
X91167488Y-98148259D01*
X91235308Y-98131463D01*
X91301444Y-98153999D01*
X91340486Y-98199056D01*
X91344951Y-98207820D01*
X91469890Y-98379786D01*
X91620213Y-98530109D01*
X91792179Y-98655048D01*
X91792181Y-98655049D01*
X91792184Y-98655051D01*
X91981588Y-98751557D01*
X92183757Y-98817246D01*
X92393713Y-98850500D01*
X92393714Y-98850500D01*
X92606286Y-98850500D01*
X92606287Y-98850500D01*
X92816243Y-98817246D01*
X93018412Y-98751557D01*
X93207816Y-98655051D01*
X93294138Y-98592335D01*
X93379786Y-98530109D01*
X93379788Y-98530106D01*
X93379792Y-98530104D01*
X93530104Y-98379792D01*
X93530106Y-98379788D01*
X93530109Y-98379786D01*
X93655048Y-98207820D01*
X93655047Y-98207820D01*
X93655051Y-98207816D01*
X93659514Y-98199054D01*
X93707488Y-98148259D01*
X93775308Y-98131463D01*
X93841444Y-98153999D01*
X93880486Y-98199056D01*
X93884951Y-98207820D01*
X94009890Y-98379786D01*
X94160213Y-98530109D01*
X94332179Y-98655048D01*
X94332181Y-98655049D01*
X94332184Y-98655051D01*
X94521588Y-98751557D01*
X94723757Y-98817246D01*
X94933713Y-98850500D01*
X94933714Y-98850500D01*
X95146286Y-98850500D01*
X95146287Y-98850500D01*
X95356243Y-98817246D01*
X95558412Y-98751557D01*
X95747816Y-98655051D01*
X95834138Y-98592335D01*
X95919786Y-98530109D01*
X95919788Y-98530106D01*
X95919792Y-98530104D01*
X96070104Y-98379792D01*
X96070106Y-98379788D01*
X96070109Y-98379786D01*
X96195048Y-98207820D01*
X96195047Y-98207820D01*
X96195051Y-98207816D01*
X96291557Y-98018412D01*
X96357246Y-97816243D01*
X96390500Y-97606287D01*
X96390500Y-97393713D01*
X96357246Y-97183757D01*
X96291557Y-96981588D01*
X96195051Y-96792184D01*
X96195049Y-96792181D01*
X96195048Y-96792179D01*
X96070109Y-96620213D01*
X95919786Y-96469890D01*
X95747820Y-96344951D01*
X95747205Y-96344637D01*
X95739054Y-96340484D01*
X95688259Y-96292512D01*
X95671463Y-96224692D01*
X95693999Y-96158556D01*
X95739054Y-96119515D01*
X95747816Y-96115051D01*
X95834138Y-96052335D01*
X95919786Y-95990109D01*
X95919788Y-95990106D01*
X95919792Y-95990104D01*
X96070104Y-95839792D01*
X96070106Y-95839788D01*
X96070109Y-95839786D01*
X96195048Y-95667820D01*
X96195047Y-95667820D01*
X96195051Y-95667816D01*
X96291557Y-95478412D01*
X96357246Y-95276243D01*
X96390500Y-95066287D01*
X96390500Y-94893713D01*
X98649500Y-94893713D01*
X98649500Y-95106286D01*
X98682753Y-95316239D01*
X98748444Y-95518414D01*
X98844951Y-95707820D01*
X98969890Y-95879786D01*
X99083430Y-95993326D01*
X99116915Y-96054649D01*
X99111931Y-96124341D01*
X99070059Y-96180274D01*
X99039083Y-96197189D01*
X98907669Y-96246203D01*
X98907664Y-96246206D01*
X98792455Y-96332452D01*
X98792452Y-96332455D01*
X98706206Y-96447664D01*
X98706202Y-96447671D01*
X98655908Y-96582517D01*
X98649501Y-96642116D01*
X98649500Y-96642135D01*
X98649500Y-98437870D01*
X98649501Y-98437876D01*
X98655908Y-98497483D01*
X98706202Y-98632328D01*
X98706206Y-98632335D01*
X98792452Y-98747544D01*
X98792455Y-98747547D01*
X98907664Y-98833793D01*
X98907671Y-98833797D01*
X99042517Y-98884091D01*
X99042516Y-98884091D01*
X99049444Y-98884835D01*
X99102127Y-98890500D01*
X100897872Y-98890499D01*
X100957483Y-98884091D01*
X101092331Y-98833796D01*
X101207546Y-98747546D01*
X101293796Y-98632331D01*
X101342810Y-98500916D01*
X101384681Y-98444984D01*
X101450145Y-98420566D01*
X101518418Y-98435417D01*
X101546673Y-98456569D01*
X101660213Y-98570109D01*
X101832179Y-98695048D01*
X101832181Y-98695049D01*
X101832184Y-98695051D01*
X102021588Y-98791557D01*
X102223757Y-98857246D01*
X102433713Y-98890500D01*
X102433714Y-98890500D01*
X102646286Y-98890500D01*
X102646287Y-98890500D01*
X102856243Y-98857246D01*
X103058412Y-98791557D01*
X103247816Y-98695051D01*
X103334138Y-98632335D01*
X103419786Y-98570109D01*
X103419788Y-98570106D01*
X103419792Y-98570104D01*
X103570104Y-98419792D01*
X103570106Y-98419788D01*
X103570109Y-98419786D01*
X103695048Y-98247820D01*
X103695047Y-98247820D01*
X103695051Y-98247816D01*
X103699514Y-98239054D01*
X103747488Y-98188259D01*
X103815308Y-98171463D01*
X103881444Y-98193999D01*
X103920486Y-98239056D01*
X103924951Y-98247820D01*
X104049890Y-98419786D01*
X104200213Y-98570109D01*
X104372179Y-98695048D01*
X104372181Y-98695049D01*
X104372184Y-98695051D01*
X104561588Y-98791557D01*
X104763757Y-98857246D01*
X104973713Y-98890500D01*
X104973714Y-98890500D01*
X105186286Y-98890500D01*
X105186287Y-98890500D01*
X105396243Y-98857246D01*
X105598412Y-98791557D01*
X105787816Y-98695051D01*
X105874138Y-98632335D01*
X105959786Y-98570109D01*
X105959788Y-98570106D01*
X105959792Y-98570104D01*
X106110104Y-98419792D01*
X106110106Y-98419788D01*
X106110109Y-98419786D01*
X106235048Y-98247820D01*
X106235047Y-98247820D01*
X106235051Y-98247816D01*
X106239514Y-98239054D01*
X106287488Y-98188259D01*
X106355308Y-98171463D01*
X106421444Y-98193999D01*
X106460486Y-98239056D01*
X106464951Y-98247820D01*
X106589890Y-98419786D01*
X106740213Y-98570109D01*
X106912179Y-98695048D01*
X106912181Y-98695049D01*
X106912184Y-98695051D01*
X107101588Y-98791557D01*
X107303757Y-98857246D01*
X107513713Y-98890500D01*
X107513714Y-98890500D01*
X107726286Y-98890500D01*
X107726287Y-98890500D01*
X107936243Y-98857246D01*
X108138412Y-98791557D01*
X108327816Y-98695051D01*
X108414138Y-98632335D01*
X108499786Y-98570109D01*
X108499788Y-98570106D01*
X108499792Y-98570104D01*
X108650104Y-98419792D01*
X108650106Y-98419788D01*
X108650109Y-98419786D01*
X108775048Y-98247820D01*
X108775047Y-98247820D01*
X108775051Y-98247816D01*
X108871557Y-98058412D01*
X108937246Y-97856243D01*
X108970500Y-97646287D01*
X108970500Y-97433713D01*
X108937246Y-97223757D01*
X108871557Y-97021588D01*
X108775051Y-96832184D01*
X108775049Y-96832181D01*
X108775048Y-96832179D01*
X108650109Y-96660213D01*
X108499786Y-96509890D01*
X108327820Y-96384951D01*
X108327205Y-96384637D01*
X108319054Y-96380484D01*
X108268259Y-96332512D01*
X108251463Y-96264692D01*
X108273999Y-96198556D01*
X108319054Y-96159515D01*
X108327816Y-96155051D01*
X108425141Y-96084341D01*
X108499786Y-96030109D01*
X108499788Y-96030106D01*
X108499792Y-96030104D01*
X108650104Y-95879792D01*
X108650106Y-95879788D01*
X108650109Y-95879786D01*
X108775048Y-95707820D01*
X108775047Y-95707820D01*
X108775051Y-95707816D01*
X108871557Y-95518412D01*
X108937246Y-95316243D01*
X108970500Y-95106287D01*
X108970500Y-94893713D01*
X108937246Y-94683757D01*
X108871557Y-94481588D01*
X108775051Y-94292184D01*
X108775049Y-94292181D01*
X108775048Y-94292179D01*
X108658450Y-94131694D01*
X108658448Y-94131692D01*
X108650105Y-94120209D01*
X108592031Y-94062135D01*
X111149500Y-94062135D01*
X111149500Y-95857870D01*
X111149501Y-95857876D01*
X111155908Y-95917483D01*
X111206202Y-96052328D01*
X111206206Y-96052335D01*
X111292452Y-96167544D01*
X111292455Y-96167547D01*
X111407664Y-96253793D01*
X111407671Y-96253797D01*
X111539082Y-96302810D01*
X111595016Y-96344681D01*
X111619433Y-96410145D01*
X111604582Y-96478418D01*
X111583431Y-96506673D01*
X111469889Y-96620215D01*
X111344951Y-96792179D01*
X111248444Y-96981585D01*
X111182753Y-97183760D01*
X111149500Y-97393713D01*
X111149500Y-97606286D01*
X111182753Y-97816239D01*
X111248444Y-98018414D01*
X111344951Y-98207820D01*
X111469890Y-98379786D01*
X111620213Y-98530109D01*
X111792182Y-98655050D01*
X111800946Y-98659516D01*
X111851742Y-98707491D01*
X111868536Y-98775312D01*
X111845998Y-98841447D01*
X111800946Y-98880484D01*
X111792182Y-98884949D01*
X111620213Y-99009890D01*
X111469890Y-99160213D01*
X111344951Y-99332179D01*
X111248444Y-99521585D01*
X111182753Y-99723760D01*
X111149500Y-99933713D01*
X111149500Y-100146287D01*
X111182754Y-100356243D01*
X111188688Y-100374507D01*
X111248444Y-100558414D01*
X111344951Y-100747820D01*
X111469890Y-100919786D01*
X111620213Y-101070109D01*
X111792182Y-101195050D01*
X111800946Y-101199516D01*
X111851742Y-101247491D01*
X111868536Y-101315312D01*
X111845998Y-101381447D01*
X111800946Y-101420484D01*
X111792182Y-101424949D01*
X111620213Y-101549890D01*
X111469890Y-101700213D01*
X111344951Y-101872179D01*
X111248444Y-102061585D01*
X111182753Y-102263760D01*
X111149500Y-102473713D01*
X111149500Y-102686286D01*
X111180057Y-102879219D01*
X111182754Y-102896243D01*
X111236486Y-103061613D01*
X111248444Y-103098414D01*
X111344951Y-103287820D01*
X111469890Y-103459786D01*
X111620213Y-103610109D01*
X111792179Y-103735048D01*
X111792181Y-103735049D01*
X111792184Y-103735051D01*
X111981588Y-103831557D01*
X112183757Y-103897246D01*
X112393713Y-103930500D01*
X112393714Y-103930500D01*
X112606286Y-103930500D01*
X112606287Y-103930500D01*
X112816243Y-103897246D01*
X113018412Y-103831557D01*
X113207816Y-103735051D01*
X113271130Y-103689051D01*
X113379786Y-103610109D01*
X113379788Y-103610106D01*
X113379792Y-103610104D01*
X113530104Y-103459792D01*
X113530106Y-103459788D01*
X113530109Y-103459786D01*
X113655048Y-103287820D01*
X113655047Y-103287820D01*
X113655051Y-103287816D01*
X113751557Y-103098412D01*
X113817246Y-102896243D01*
X113850500Y-102686287D01*
X113850500Y-102473713D01*
X113817246Y-102263757D01*
X113751557Y-102061588D01*
X113655051Y-101872184D01*
X113655049Y-101872181D01*
X113655048Y-101872179D01*
X113530109Y-101700213D01*
X113379786Y-101549890D01*
X113207820Y-101424951D01*
X113207205Y-101424637D01*
X113199054Y-101420484D01*
X113148259Y-101372512D01*
X113131463Y-101304692D01*
X113153999Y-101238556D01*
X113199054Y-101199515D01*
X113207816Y-101195051D01*
X113235717Y-101174780D01*
X113379786Y-101070109D01*
X113379788Y-101070106D01*
X113379792Y-101070104D01*
X113530104Y-100919792D01*
X113530106Y-100919788D01*
X113530109Y-100919786D01*
X113655048Y-100747820D01*
X113655047Y-100747820D01*
X113655051Y-100747816D01*
X113751557Y-100558412D01*
X113817246Y-100356243D01*
X113850500Y-100146287D01*
X113850500Y-99933713D01*
X113817246Y-99723757D01*
X113751557Y-99521588D01*
X113655051Y-99332184D01*
X113655049Y-99332181D01*
X113655048Y-99332179D01*
X113530109Y-99160213D01*
X113379786Y-99009890D01*
X113207820Y-98884951D01*
X113206132Y-98884091D01*
X113199054Y-98880484D01*
X113148259Y-98832512D01*
X113131463Y-98764692D01*
X113153999Y-98698556D01*
X113199054Y-98659515D01*
X113207816Y-98655051D01*
X113294138Y-98592335D01*
X113379786Y-98530109D01*
X113379788Y-98530106D01*
X113379792Y-98530104D01*
X113530104Y-98379792D01*
X113530106Y-98379788D01*
X113530109Y-98379786D01*
X113655048Y-98207820D01*
X113655047Y-98207820D01*
X113655051Y-98207816D01*
X113751557Y-98018412D01*
X113817246Y-97816243D01*
X113850500Y-97606287D01*
X113850500Y-97393713D01*
X113817246Y-97183757D01*
X113751557Y-96981588D01*
X113655051Y-96792184D01*
X113655049Y-96792181D01*
X113655048Y-96792179D01*
X113530109Y-96620213D01*
X113416569Y-96506673D01*
X113383084Y-96445350D01*
X113388068Y-96375658D01*
X113429940Y-96319725D01*
X113460915Y-96302810D01*
X113592331Y-96253796D01*
X113707546Y-96167546D01*
X113793796Y-96052331D01*
X113844091Y-95917483D01*
X113850500Y-95857873D01*
X113850499Y-94062128D01*
X113844091Y-94002517D01*
X113831924Y-93969896D01*
X113793797Y-93867671D01*
X113793793Y-93867664D01*
X113707547Y-93752455D01*
X113707544Y-93752452D01*
X113592335Y-93666206D01*
X113592328Y-93666202D01*
X113457482Y-93615908D01*
X113457483Y-93615908D01*
X113397883Y-93609501D01*
X113397881Y-93609500D01*
X113397873Y-93609500D01*
X113397864Y-93609500D01*
X111602129Y-93609500D01*
X111602123Y-93609501D01*
X111542516Y-93615908D01*
X111407671Y-93666202D01*
X111407664Y-93666206D01*
X111292455Y-93752452D01*
X111292452Y-93752455D01*
X111206206Y-93867664D01*
X111206202Y-93867671D01*
X111155908Y-94002517D01*
X111149501Y-94062116D01*
X111149501Y-94062123D01*
X111149500Y-94062135D01*
X108592031Y-94062135D01*
X108499786Y-93969890D01*
X108327820Y-93844951D01*
X108138414Y-93748444D01*
X108138413Y-93748443D01*
X108138412Y-93748443D01*
X107936243Y-93682754D01*
X107936241Y-93682753D01*
X107936240Y-93682753D01*
X107741250Y-93651870D01*
X107726287Y-93649500D01*
X107513713Y-93649500D01*
X107498750Y-93651870D01*
X107303760Y-93682753D01*
X107101585Y-93748444D01*
X106912179Y-93844951D01*
X106740213Y-93969890D01*
X106589890Y-94120213D01*
X106464949Y-94292182D01*
X106460484Y-94300946D01*
X106412509Y-94351742D01*
X106344688Y-94368536D01*
X106278553Y-94345998D01*
X106239516Y-94300946D01*
X106235050Y-94292182D01*
X106110109Y-94120213D01*
X105959786Y-93969890D01*
X105787820Y-93844951D01*
X105598414Y-93748444D01*
X105598413Y-93748443D01*
X105598412Y-93748443D01*
X105396243Y-93682754D01*
X105396241Y-93682753D01*
X105396240Y-93682753D01*
X105201250Y-93651870D01*
X105186287Y-93649500D01*
X104973713Y-93649500D01*
X104958750Y-93651870D01*
X104763760Y-93682753D01*
X104561585Y-93748444D01*
X104372179Y-93844951D01*
X104200213Y-93969890D01*
X104049890Y-94120213D01*
X103924949Y-94292182D01*
X103920484Y-94300946D01*
X103872509Y-94351742D01*
X103804688Y-94368536D01*
X103738553Y-94345998D01*
X103699516Y-94300946D01*
X103695050Y-94292182D01*
X103570109Y-94120213D01*
X103419786Y-93969890D01*
X103247820Y-93844951D01*
X103058414Y-93748444D01*
X103058413Y-93748443D01*
X103058412Y-93748443D01*
X102856243Y-93682754D01*
X102856241Y-93682753D01*
X102856240Y-93682753D01*
X102661250Y-93651870D01*
X102646287Y-93649500D01*
X102433713Y-93649500D01*
X102418750Y-93651870D01*
X102223760Y-93682753D01*
X102021585Y-93748444D01*
X101832179Y-93844951D01*
X101660213Y-93969890D01*
X101509890Y-94120213D01*
X101384949Y-94292182D01*
X101380484Y-94300946D01*
X101332509Y-94351742D01*
X101264688Y-94368536D01*
X101198553Y-94345998D01*
X101159516Y-94300946D01*
X101155050Y-94292182D01*
X101030109Y-94120213D01*
X100879786Y-93969890D01*
X100707820Y-93844951D01*
X100518414Y-93748444D01*
X100518413Y-93748443D01*
X100518412Y-93748443D01*
X100316243Y-93682754D01*
X100316241Y-93682753D01*
X100316240Y-93682753D01*
X100121250Y-93651870D01*
X100106287Y-93649500D01*
X99893713Y-93649500D01*
X99878750Y-93651870D01*
X99683760Y-93682753D01*
X99481585Y-93748444D01*
X99292179Y-93844951D01*
X99120213Y-93969890D01*
X98969890Y-94120213D01*
X98844951Y-94292179D01*
X98748444Y-94481585D01*
X98682753Y-94683760D01*
X98649500Y-94893713D01*
X96390500Y-94893713D01*
X96390500Y-94853713D01*
X96357246Y-94643757D01*
X96291557Y-94441588D01*
X96195051Y-94252184D01*
X96107511Y-94131694D01*
X96080481Y-94094490D01*
X96057002Y-94028683D01*
X96056800Y-94021605D01*
X96056800Y-93342610D01*
X96076485Y-93275571D01*
X96129289Y-93229816D01*
X96198447Y-93219872D01*
X96219119Y-93224679D01*
X96220775Y-93225217D01*
X96220781Y-93225220D01*
X96335339Y-93262442D01*
X96415465Y-93288477D01*
X96472560Y-93297520D01*
X96617648Y-93320500D01*
X96617649Y-93320500D01*
X96822351Y-93320500D01*
X96822352Y-93320500D01*
X97024534Y-93288477D01*
X97219219Y-93225220D01*
X97401610Y-93132287D01*
X97530482Y-93038657D01*
X97567213Y-93011971D01*
X97567219Y-93011966D01*
X97598667Y-92980518D01*
X97711966Y-92867219D01*
X97711968Y-92867215D01*
X97711971Y-92867213D01*
X97832284Y-92701614D01*
X97832285Y-92701613D01*
X97832287Y-92701610D01*
X97879516Y-92608917D01*
X97927489Y-92558123D01*
X97995310Y-92541328D01*
X98061445Y-92563865D01*
X98100483Y-92608917D01*
X98106135Y-92620008D01*
X98147715Y-92701614D01*
X98268028Y-92867213D01*
X98412786Y-93011971D01*
X98534640Y-93100501D01*
X98578390Y-93132287D01*
X98694607Y-93191503D01*
X98760776Y-93225218D01*
X98760778Y-93225218D01*
X98760781Y-93225220D01*
X98847270Y-93253322D01*
X98955465Y-93288477D01*
X99012560Y-93297520D01*
X99157648Y-93320500D01*
X99157649Y-93320500D01*
X99362351Y-93320500D01*
X99362352Y-93320500D01*
X99564534Y-93288477D01*
X99759219Y-93225220D01*
X99941610Y-93132287D01*
X100070482Y-93038657D01*
X100107213Y-93011971D01*
X100107219Y-93011966D01*
X100138667Y-92980518D01*
X100251966Y-92867219D01*
X100251968Y-92867215D01*
X100251971Y-92867213D01*
X100372284Y-92701614D01*
X100372285Y-92701613D01*
X100372287Y-92701610D01*
X100419516Y-92608917D01*
X100467489Y-92558123D01*
X100535310Y-92541328D01*
X100601445Y-92563865D01*
X100640483Y-92608917D01*
X100646135Y-92620008D01*
X100687715Y-92701614D01*
X100808028Y-92867213D01*
X100952786Y-93011971D01*
X101074640Y-93100501D01*
X101118390Y-93132287D01*
X101234607Y-93191503D01*
X101300776Y-93225218D01*
X101300778Y-93225218D01*
X101300781Y-93225220D01*
X101387270Y-93253322D01*
X101495465Y-93288477D01*
X101552560Y-93297520D01*
X101697648Y-93320500D01*
X101697649Y-93320500D01*
X101902351Y-93320500D01*
X101902352Y-93320500D01*
X102104534Y-93288477D01*
X102299219Y-93225220D01*
X102481610Y-93132287D01*
X102610482Y-93038657D01*
X102647213Y-93011971D01*
X102647219Y-93011966D01*
X102678667Y-92980518D01*
X102791966Y-92867219D01*
X102791968Y-92867215D01*
X102791971Y-92867213D01*
X102912284Y-92701614D01*
X102912285Y-92701613D01*
X102912287Y-92701610D01*
X102959516Y-92608917D01*
X103007489Y-92558123D01*
X103075310Y-92541328D01*
X103141445Y-92563865D01*
X103180483Y-92608917D01*
X103186135Y-92620008D01*
X103227715Y-92701614D01*
X103348028Y-92867213D01*
X103492786Y-93011971D01*
X103614640Y-93100501D01*
X103658390Y-93132287D01*
X103774607Y-93191503D01*
X103840776Y-93225218D01*
X103840778Y-93225218D01*
X103840781Y-93225220D01*
X103927270Y-93253322D01*
X104035465Y-93288477D01*
X104092560Y-93297520D01*
X104237648Y-93320500D01*
X104237649Y-93320500D01*
X104442351Y-93320500D01*
X104442352Y-93320500D01*
X104644534Y-93288477D01*
X104839219Y-93225220D01*
X105021610Y-93132287D01*
X105150482Y-93038657D01*
X105187213Y-93011971D01*
X105187219Y-93011966D01*
X105218667Y-92980518D01*
X105331966Y-92867219D01*
X105331968Y-92867215D01*
X105331971Y-92867213D01*
X105452284Y-92701614D01*
X105452285Y-92701613D01*
X105452287Y-92701610D01*
X105499516Y-92608917D01*
X105547489Y-92558123D01*
X105615310Y-92541328D01*
X105681445Y-92563865D01*
X105720483Y-92608917D01*
X105726135Y-92620008D01*
X105767715Y-92701614D01*
X105888028Y-92867213D01*
X106032786Y-93011971D01*
X106154640Y-93100501D01*
X106198390Y-93132287D01*
X106314607Y-93191503D01*
X106380776Y-93225218D01*
X106380778Y-93225218D01*
X106380781Y-93225220D01*
X106467270Y-93253322D01*
X106575465Y-93288477D01*
X106632560Y-93297520D01*
X106777648Y-93320500D01*
X106777649Y-93320500D01*
X106982351Y-93320500D01*
X106982352Y-93320500D01*
X107184534Y-93288477D01*
X107379219Y-93225220D01*
X107561610Y-93132287D01*
X107690482Y-93038657D01*
X107727213Y-93011971D01*
X107727219Y-93011966D01*
X107758667Y-92980518D01*
X107871966Y-92867219D01*
X107871968Y-92867215D01*
X107871971Y-92867213D01*
X107976892Y-92722799D01*
X107992287Y-92701610D01*
X108085220Y-92519219D01*
X108148477Y-92324534D01*
X108180500Y-92122352D01*
X108180500Y-91917648D01*
X108148477Y-91715466D01*
X108085220Y-91520781D01*
X108085218Y-91520778D01*
X108085218Y-91520776D01*
X108033865Y-91419991D01*
X107992287Y-91338390D01*
X107958913Y-91292454D01*
X107871971Y-91172786D01*
X107727213Y-91028028D01*
X107561613Y-90907715D01*
X107561612Y-90907714D01*
X107561610Y-90907713D01*
X107485498Y-90868932D01*
X107379223Y-90814781D01*
X107184534Y-90751522D01*
X106983368Y-90719661D01*
X106982352Y-90719500D01*
X106777648Y-90719500D01*
X106776632Y-90719661D01*
X106575465Y-90751522D01*
X106380776Y-90814781D01*
X106198386Y-90907715D01*
X106032786Y-91028028D01*
X105888028Y-91172786D01*
X105767715Y-91338386D01*
X105720485Y-91431080D01*
X105672510Y-91481876D01*
X105604689Y-91498671D01*
X105538554Y-91476134D01*
X105499515Y-91431080D01*
X105458457Y-91350500D01*
X105452287Y-91338390D01*
X105418913Y-91292454D01*
X105331971Y-91172786D01*
X105187213Y-91028028D01*
X105021613Y-90907715D01*
X105021612Y-90907714D01*
X105021610Y-90907713D01*
X104945498Y-90868932D01*
X104839223Y-90814781D01*
X104644534Y-90751522D01*
X104443368Y-90719661D01*
X104442352Y-90719500D01*
X104237648Y-90719500D01*
X104236632Y-90719661D01*
X104035465Y-90751522D01*
X103840776Y-90814781D01*
X103658386Y-90907715D01*
X103492786Y-91028028D01*
X103348028Y-91172786D01*
X103227715Y-91338386D01*
X103180485Y-91431080D01*
X103132510Y-91481876D01*
X103064689Y-91498671D01*
X102998554Y-91476134D01*
X102959515Y-91431080D01*
X102918457Y-91350500D01*
X102912287Y-91338390D01*
X102878913Y-91292454D01*
X102791971Y-91172786D01*
X102647213Y-91028028D01*
X102481613Y-90907715D01*
X102481612Y-90907714D01*
X102481610Y-90907713D01*
X102405498Y-90868932D01*
X102299223Y-90814781D01*
X102104534Y-90751522D01*
X101903368Y-90719661D01*
X101902352Y-90719500D01*
X101697648Y-90719500D01*
X101696632Y-90719661D01*
X101495465Y-90751522D01*
X101300776Y-90814781D01*
X101118386Y-90907715D01*
X100952786Y-91028028D01*
X100808028Y-91172786D01*
X100687715Y-91338386D01*
X100640485Y-91431080D01*
X100592510Y-91481876D01*
X100524689Y-91498671D01*
X100458554Y-91476134D01*
X100419515Y-91431080D01*
X100378457Y-91350500D01*
X100372287Y-91338390D01*
X100338913Y-91292454D01*
X100251971Y-91172786D01*
X100107213Y-91028028D01*
X99941613Y-90907715D01*
X99941612Y-90907714D01*
X99941610Y-90907713D01*
X99865498Y-90868932D01*
X99759223Y-90814781D01*
X99564534Y-90751522D01*
X99363368Y-90719661D01*
X99362352Y-90719500D01*
X99157648Y-90719500D01*
X99156632Y-90719661D01*
X98955465Y-90751522D01*
X98760776Y-90814781D01*
X98578386Y-90907715D01*
X98412786Y-91028028D01*
X98268028Y-91172786D01*
X98147715Y-91338386D01*
X98100485Y-91431080D01*
X98052510Y-91481876D01*
X97984689Y-91498671D01*
X97918554Y-91476134D01*
X97879515Y-91431080D01*
X97838457Y-91350500D01*
X97832287Y-91338390D01*
X97798913Y-91292454D01*
X97711971Y-91172786D01*
X97567213Y-91028028D01*
X97401613Y-90907715D01*
X97401612Y-90907714D01*
X97401610Y-90907713D01*
X97325498Y-90868932D01*
X97219223Y-90814781D01*
X97024534Y-90751522D01*
X96823368Y-90719661D01*
X96822352Y-90719500D01*
X96629096Y-90719500D01*
X96562057Y-90699815D01*
X96516302Y-90647011D01*
X96506358Y-90577853D01*
X96535383Y-90514297D01*
X96541415Y-90507819D01*
X98821636Y-88227598D01*
X101355159Y-85694075D01*
X101416480Y-85660592D01*
X101481154Y-85663826D01*
X101495466Y-85668477D01*
X101697648Y-85700500D01*
X101697649Y-85700500D01*
X101902351Y-85700500D01*
X101902352Y-85700500D01*
X102104534Y-85668477D01*
X102299219Y-85605220D01*
X102481610Y-85512287D01*
X102585038Y-85437143D01*
X102647213Y-85391971D01*
X102647215Y-85391968D01*
X102647219Y-85391966D01*
X102791966Y-85247219D01*
X102791968Y-85247215D01*
X102791971Y-85247213D01*
X102912284Y-85081614D01*
X102912283Y-85081614D01*
X102912287Y-85081610D01*
X102959516Y-84988917D01*
X103007489Y-84938123D01*
X103075310Y-84921328D01*
X103141445Y-84943865D01*
X103180485Y-84988919D01*
X103227715Y-85081614D01*
X103348028Y-85247213D01*
X103492786Y-85391971D01*
X103613226Y-85479474D01*
X103658390Y-85512287D01*
X103760385Y-85564256D01*
X103840776Y-85605218D01*
X103840778Y-85605218D01*
X103840781Y-85605220D01*
X103927270Y-85633322D01*
X104035465Y-85668477D01*
X104063555Y-85672926D01*
X104237648Y-85700500D01*
X104237649Y-85700500D01*
X104442351Y-85700500D01*
X104442352Y-85700500D01*
X104644534Y-85668477D01*
X104839219Y-85605220D01*
X105021610Y-85512287D01*
X105125038Y-85437143D01*
X105187213Y-85391971D01*
X105187215Y-85391968D01*
X105187219Y-85391966D01*
X105331966Y-85247219D01*
X105331968Y-85247215D01*
X105331971Y-85247213D01*
X105452284Y-85081614D01*
X105452283Y-85081614D01*
X105452287Y-85081610D01*
X105499516Y-84988917D01*
X105547489Y-84938123D01*
X105615310Y-84921328D01*
X105681445Y-84943865D01*
X105720485Y-84988919D01*
X105767715Y-85081614D01*
X105888028Y-85247213D01*
X106032786Y-85391971D01*
X106153226Y-85479474D01*
X106198390Y-85512287D01*
X106300385Y-85564256D01*
X106380776Y-85605218D01*
X106380778Y-85605218D01*
X106380781Y-85605220D01*
X106467270Y-85633322D01*
X106575465Y-85668477D01*
X106603555Y-85672926D01*
X106777648Y-85700500D01*
X106777649Y-85700500D01*
X106982351Y-85700500D01*
X106982352Y-85700500D01*
X107184534Y-85668477D01*
X107198842Y-85663827D01*
X107268682Y-85661831D01*
X107324842Y-85694077D01*
X110843439Y-89212674D01*
X110843449Y-89212685D01*
X110847779Y-89217015D01*
X110847780Y-89217016D01*
X110959584Y-89328820D01*
X111027044Y-89367767D01*
X111046367Y-89378923D01*
X111047471Y-89379560D01*
X111095700Y-89430114D01*
X111109500Y-89486964D01*
X111109500Y-90897870D01*
X111109501Y-90897876D01*
X111115908Y-90957483D01*
X111166202Y-91092328D01*
X111166206Y-91092335D01*
X111252452Y-91207544D01*
X111252455Y-91207547D01*
X111367664Y-91293793D01*
X111367671Y-91293797D01*
X111502517Y-91344091D01*
X111502516Y-91344091D01*
X111509444Y-91344835D01*
X111562127Y-91350500D01*
X113357872Y-91350499D01*
X113417483Y-91344091D01*
X113552331Y-91293796D01*
X113667546Y-91207546D01*
X113753796Y-91092331D01*
X113804091Y-90957483D01*
X113810500Y-90897873D01*
X113810499Y-89102128D01*
X113804091Y-89042517D01*
X113799353Y-89029815D01*
X113753797Y-88907671D01*
X113753793Y-88907664D01*
X113667547Y-88792455D01*
X113667544Y-88792452D01*
X113552335Y-88706206D01*
X113552328Y-88706202D01*
X113420917Y-88657189D01*
X113364983Y-88615318D01*
X113340566Y-88549853D01*
X113355418Y-88481580D01*
X113376563Y-88453332D01*
X113490104Y-88339792D01*
X113491982Y-88337208D01*
X113615048Y-88167820D01*
X113615047Y-88167820D01*
X113615051Y-88167816D01*
X113711557Y-87978412D01*
X113777246Y-87776243D01*
X113810500Y-87566287D01*
X113810500Y-87353713D01*
X113777246Y-87143757D01*
X113711557Y-86941588D01*
X113615051Y-86752184D01*
X113615049Y-86752181D01*
X113615048Y-86752179D01*
X113490109Y-86580213D01*
X113339786Y-86429890D01*
X113167820Y-86304951D01*
X112978414Y-86208444D01*
X112978413Y-86208443D01*
X112978412Y-86208443D01*
X112776243Y-86142754D01*
X112776241Y-86142753D01*
X112776240Y-86142753D01*
X112614957Y-86117208D01*
X112566287Y-86109500D01*
X112353713Y-86109500D01*
X112305042Y-86117208D01*
X112143760Y-86142753D01*
X111941585Y-86208444D01*
X111752179Y-86304951D01*
X111580213Y-86429890D01*
X111429890Y-86580213D01*
X111304951Y-86752179D01*
X111208444Y-86941585D01*
X111142753Y-87143760D01*
X111109500Y-87353713D01*
X111109500Y-87480903D01*
X111089815Y-87547942D01*
X111037011Y-87593697D01*
X110967853Y-87603641D01*
X110904297Y-87574616D01*
X110897819Y-87568584D01*
X108174077Y-84844842D01*
X108140592Y-84783519D01*
X108143828Y-84718841D01*
X108148477Y-84704534D01*
X108180500Y-84502352D01*
X108180500Y-84297648D01*
X108172257Y-84245606D01*
X108148477Y-84095465D01*
X108117458Y-84000000D01*
X108085220Y-83900781D01*
X108085218Y-83900778D01*
X108085218Y-83900776D01*
X108030025Y-83792455D01*
X107992287Y-83718390D01*
X107957813Y-83670940D01*
X107871971Y-83552786D01*
X107727213Y-83408028D01*
X107561613Y-83287715D01*
X107561612Y-83287714D01*
X107561610Y-83287713D01*
X107504653Y-83258691D01*
X107379223Y-83194781D01*
X107184534Y-83131522D01*
X107009995Y-83103878D01*
X106982352Y-83099500D01*
X106777648Y-83099500D01*
X106753329Y-83103351D01*
X106575465Y-83131522D01*
X106380776Y-83194781D01*
X106198386Y-83287715D01*
X106032786Y-83408028D01*
X105888028Y-83552786D01*
X105767715Y-83718386D01*
X105720485Y-83811080D01*
X105672510Y-83861876D01*
X105604689Y-83878671D01*
X105538554Y-83856134D01*
X105499515Y-83811080D01*
X105490025Y-83792455D01*
X105452287Y-83718390D01*
X105417813Y-83670940D01*
X105331971Y-83552786D01*
X105187213Y-83408028D01*
X105021613Y-83287715D01*
X105021612Y-83287714D01*
X105021610Y-83287713D01*
X104964653Y-83258691D01*
X104839223Y-83194781D01*
X104644534Y-83131522D01*
X104469995Y-83103878D01*
X104442352Y-83099500D01*
X104237648Y-83099500D01*
X104213329Y-83103351D01*
X104035465Y-83131522D01*
X103840776Y-83194781D01*
X103658386Y-83287715D01*
X103492786Y-83408028D01*
X103348028Y-83552786D01*
X103227715Y-83718386D01*
X103180485Y-83811080D01*
X103132510Y-83861876D01*
X103064689Y-83878671D01*
X102998554Y-83856134D01*
X102959515Y-83811080D01*
X102950025Y-83792455D01*
X102912287Y-83718390D01*
X102877813Y-83670940D01*
X102791971Y-83552786D01*
X102647213Y-83408028D01*
X102481613Y-83287715D01*
X102481612Y-83287714D01*
X102481610Y-83287713D01*
X102424653Y-83258691D01*
X102299223Y-83194781D01*
X102104534Y-83131522D01*
X101929995Y-83103878D01*
X101902352Y-83099500D01*
X101697648Y-83099500D01*
X101673329Y-83103351D01*
X101495465Y-83131522D01*
X101300776Y-83194781D01*
X101118386Y-83287715D01*
X100952786Y-83408028D01*
X100808028Y-83552786D01*
X100687715Y-83718386D01*
X100640485Y-83811080D01*
X100592510Y-83861876D01*
X100524689Y-83878671D01*
X100458554Y-83856134D01*
X100419515Y-83811080D01*
X100410025Y-83792455D01*
X100372287Y-83718390D01*
X100337813Y-83670940D01*
X100251971Y-83552786D01*
X100107213Y-83408028D01*
X99941613Y-83287715D01*
X99941612Y-83287714D01*
X99941610Y-83287713D01*
X99884653Y-83258691D01*
X99759223Y-83194781D01*
X99564534Y-83131522D01*
X99389995Y-83103878D01*
X99362352Y-83099500D01*
X99157648Y-83099500D01*
X99133329Y-83103351D01*
X98955465Y-83131522D01*
X98760776Y-83194781D01*
X98578386Y-83287715D01*
X98412786Y-83408028D01*
X98268028Y-83552786D01*
X98147715Y-83718386D01*
X98100485Y-83811080D01*
X98052510Y-83861876D01*
X97984689Y-83878671D01*
X97918554Y-83856134D01*
X97879515Y-83811080D01*
X97870025Y-83792455D01*
X97832287Y-83718390D01*
X97797813Y-83670940D01*
X97711971Y-83552786D01*
X97567213Y-83408028D01*
X97401613Y-83287715D01*
X97401612Y-83287714D01*
X97401610Y-83287713D01*
X97344653Y-83258691D01*
X97219223Y-83194781D01*
X97024534Y-83131522D01*
X96849995Y-83103878D01*
X96822352Y-83099500D01*
X96617648Y-83099500D01*
X96593329Y-83103351D01*
X96415465Y-83131522D01*
X96220776Y-83194781D01*
X96038386Y-83287715D01*
X95872786Y-83408028D01*
X95728028Y-83552786D01*
X95607715Y-83718386D01*
X95560485Y-83811080D01*
X95512510Y-83861876D01*
X95444689Y-83878671D01*
X95378554Y-83856134D01*
X95339515Y-83811080D01*
X95330025Y-83792455D01*
X95292287Y-83718390D01*
X95257813Y-83670940D01*
X95171971Y-83552786D01*
X95027213Y-83408028D01*
X94861613Y-83287715D01*
X94861612Y-83287714D01*
X94861610Y-83287713D01*
X94804653Y-83258691D01*
X94679223Y-83194781D01*
X94484534Y-83131522D01*
X94309995Y-83103878D01*
X94282352Y-83099500D01*
X94077648Y-83099500D01*
X94039599Y-83105526D01*
X93875468Y-83131522D01*
X93866717Y-83134365D01*
X93861154Y-83136173D01*
X93791313Y-83138167D01*
X93735157Y-83105922D01*
X93484390Y-82855155D01*
X93484388Y-82855152D01*
X93365517Y-82736281D01*
X93365516Y-82736280D01*
X93265508Y-82678541D01*
X93265507Y-82678540D01*
X93228583Y-82657222D01*
X93172681Y-82642243D01*
X93075857Y-82616299D01*
X92917743Y-82616299D01*
X92910147Y-82616299D01*
X92910131Y-82616300D01*
X91072240Y-82616300D01*
X91031319Y-82627264D01*
X91031319Y-82627265D01*
X90994051Y-82637251D01*
X90919514Y-82657223D01*
X90919509Y-82657226D01*
X90782590Y-82736275D01*
X90782582Y-82736281D01*
X89953481Y-83565382D01*
X89953480Y-83565384D01*
X89904916Y-83649501D01*
X89903361Y-83652194D01*
X89903359Y-83652196D01*
X89874425Y-83702309D01*
X89874424Y-83702310D01*
X89865652Y-83735048D01*
X89833499Y-83855043D01*
X89833499Y-83855045D01*
X89833499Y-83968692D01*
X89813814Y-84035731D01*
X89797180Y-84056373D01*
X89500000Y-84353553D01*
X89500000Y-84347339D01*
X89472741Y-84245606D01*
X89420080Y-84154394D01*
X89345606Y-84079920D01*
X89254394Y-84027259D01*
X89152661Y-84000000D01*
X89146446Y-84000000D01*
X89825922Y-83320524D01*
X89825921Y-83320523D01*
X89781359Y-83288147D01*
X89781350Y-83288141D01*
X89599031Y-83195244D01*
X89404417Y-83132009D01*
X89202317Y-83100000D01*
X88997683Y-83100000D01*
X88795582Y-83132009D01*
X88600968Y-83195244D01*
X88418644Y-83288143D01*
X88374077Y-83320523D01*
X88374077Y-83320524D01*
X89053554Y-84000000D01*
X89047339Y-84000000D01*
X88945606Y-84027259D01*
X88854394Y-84079920D01*
X88779920Y-84154394D01*
X88727259Y-84245606D01*
X88700000Y-84347339D01*
X88700000Y-84353553D01*
X88020524Y-83674077D01*
X88020523Y-83674077D01*
X87988143Y-83718644D01*
X87895244Y-83900968D01*
X87832009Y-84095582D01*
X87800000Y-84297682D01*
X87800000Y-84502317D01*
X87832009Y-84704417D01*
X87895244Y-84899031D01*
X87988141Y-85081350D01*
X87988147Y-85081359D01*
X88020523Y-85125921D01*
X88020524Y-85125922D01*
X88700000Y-84446446D01*
X88700000Y-84452661D01*
X88727259Y-84554394D01*
X88779920Y-84645606D01*
X88854394Y-84720080D01*
X88945606Y-84772741D01*
X89047339Y-84800000D01*
X89053553Y-84800000D01*
X88374076Y-85479474D01*
X88418650Y-85511859D01*
X88600968Y-85604755D01*
X88795582Y-85667990D01*
X88997683Y-85700000D01*
X89202317Y-85700000D01*
X89404417Y-85667990D01*
X89599031Y-85604755D01*
X89653205Y-85577152D01*
X89721874Y-85564256D01*
X89786615Y-85590532D01*
X89826872Y-85647639D01*
X89833500Y-85687637D01*
X89833500Y-90595823D01*
X89813815Y-90662862D01*
X89761011Y-90708617D01*
X89703193Y-90719124D01*
X89703166Y-90719661D01*
X89700014Y-90719500D01*
X89700009Y-90719500D01*
X89700003Y-90719500D01*
X88499998Y-90719500D01*
X88499981Y-90719501D01*
X88397203Y-90730000D01*
X88397200Y-90730001D01*
X88230668Y-90785185D01*
X88230663Y-90785187D01*
X88081342Y-90877289D01*
X87957289Y-91001342D01*
X87865187Y-91150663D01*
X87865185Y-91150668D01*
X87857858Y-91172781D01*
X87810001Y-91317203D01*
X87810001Y-91317204D01*
X87810000Y-91317204D01*
X87799500Y-91419983D01*
X87799500Y-92620001D01*
X87799501Y-92620018D01*
X87810000Y-92722796D01*
X87810001Y-92722799D01*
X87854969Y-92858501D01*
X87865186Y-92889334D01*
X87957288Y-93038656D01*
X88081344Y-93162712D01*
X88230666Y-93254814D01*
X88397203Y-93309999D01*
X88499991Y-93320500D01*
X89700008Y-93320499D01*
X89700014Y-93320498D01*
X89703164Y-93320338D01*
X89703285Y-93322724D01*
X89710370Y-93323848D01*
X89727147Y-93321436D01*
X89744163Y-93329207D01*
X89762639Y-93332137D01*
X89775285Y-93343420D01*
X89790703Y-93350461D01*
X89800817Y-93366198D01*
X89814775Y-93378652D01*
X89819543Y-93395338D01*
X89828477Y-93409239D01*
X89833500Y-93444174D01*
X89833500Y-93506795D01*
X89813815Y-93573834D01*
X89761011Y-93619589D01*
X89728899Y-93629268D01*
X89643759Y-93642753D01*
X89441585Y-93708444D01*
X89252179Y-93804951D01*
X89080213Y-93929890D01*
X88929890Y-94080213D01*
X88804949Y-94252182D01*
X88800484Y-94260946D01*
X88752509Y-94311742D01*
X88684688Y-94328536D01*
X88618553Y-94305998D01*
X88579516Y-94260946D01*
X88575050Y-94252182D01*
X88450109Y-94080213D01*
X88299786Y-93929890D01*
X88127820Y-93804951D01*
X87938414Y-93708444D01*
X87938413Y-93708443D01*
X87938412Y-93708443D01*
X87736243Y-93642754D01*
X87736241Y-93642753D01*
X87736240Y-93642753D01*
X87574957Y-93617208D01*
X87526287Y-93609500D01*
X87313713Y-93609500D01*
X87265042Y-93617208D01*
X87103760Y-93642753D01*
X86901585Y-93708444D01*
X86712179Y-93804951D01*
X86540213Y-93929890D01*
X86389890Y-94080213D01*
X86264951Y-94252179D01*
X86168444Y-94441585D01*
X86102753Y-94643760D01*
X86069500Y-94853713D01*
X68000500Y-94853713D01*
X68000500Y-91602135D01*
X73649500Y-91602135D01*
X73649500Y-93397870D01*
X73649501Y-93397876D01*
X73655908Y-93457483D01*
X73706202Y-93592328D01*
X73706206Y-93592335D01*
X73792452Y-93707544D01*
X73792455Y-93707547D01*
X73907664Y-93793793D01*
X73907671Y-93793797D01*
X74042517Y-93844091D01*
X74042516Y-93844091D01*
X74049444Y-93844835D01*
X74102127Y-93850500D01*
X75897872Y-93850499D01*
X75957483Y-93844091D01*
X76092331Y-93793796D01*
X76207546Y-93707546D01*
X76293796Y-93592331D01*
X76344091Y-93457483D01*
X76350500Y-93397873D01*
X76350499Y-91602135D01*
X78649500Y-91602135D01*
X78649500Y-93397870D01*
X78649501Y-93397876D01*
X78655908Y-93457483D01*
X78706202Y-93592328D01*
X78706206Y-93592335D01*
X78792452Y-93707544D01*
X78792455Y-93707547D01*
X78907664Y-93793793D01*
X78907671Y-93793797D01*
X79042517Y-93844091D01*
X79042516Y-93844091D01*
X79049444Y-93844835D01*
X79102127Y-93850500D01*
X80897872Y-93850499D01*
X80957483Y-93844091D01*
X81092331Y-93793796D01*
X81207546Y-93707546D01*
X81293796Y-93592331D01*
X81344091Y-93457483D01*
X81350500Y-93397873D01*
X81350500Y-93224500D01*
X81370185Y-93157461D01*
X81422989Y-93111706D01*
X81474500Y-93100500D01*
X84142731Y-93100500D01*
X84142747Y-93100501D01*
X84150343Y-93100501D01*
X84308454Y-93100501D01*
X84308457Y-93100501D01*
X84461185Y-93059577D01*
X84543649Y-93011966D01*
X84598116Y-92980520D01*
X84709920Y-92868716D01*
X84709920Y-92868714D01*
X84720124Y-92858511D01*
X84720127Y-92858506D01*
X87686562Y-89892072D01*
X87747883Y-89858589D01*
X87750050Y-89858138D01*
X87807985Y-89846613D01*
X87905397Y-89827237D01*
X88051079Y-89766894D01*
X88182189Y-89679289D01*
X88293689Y-89567789D01*
X88381294Y-89436679D01*
X88441637Y-89290997D01*
X88472400Y-89136342D01*
X88472400Y-88978658D01*
X88472400Y-88978655D01*
X88472399Y-88978653D01*
X88441638Y-88824010D01*
X88441638Y-88824008D01*
X88441637Y-88824003D01*
X88432847Y-88802781D01*
X88381297Y-88678327D01*
X88381290Y-88678314D01*
X88293689Y-88547211D01*
X88293686Y-88547207D01*
X88182192Y-88435713D01*
X88182188Y-88435710D01*
X88051085Y-88348109D01*
X88051072Y-88348102D01*
X87905401Y-88287764D01*
X87905389Y-88287761D01*
X87750745Y-88257000D01*
X87750742Y-88257000D01*
X87593058Y-88257000D01*
X87593055Y-88257000D01*
X87438410Y-88287761D01*
X87438398Y-88287764D01*
X87292727Y-88348102D01*
X87292714Y-88348109D01*
X87161611Y-88435710D01*
X87161607Y-88435713D01*
X87050113Y-88547207D01*
X87050110Y-88547211D01*
X86962509Y-88678314D01*
X86962502Y-88678327D01*
X86902164Y-88823998D01*
X86902161Y-88824008D01*
X86871261Y-88979350D01*
X86838876Y-89041261D01*
X86837325Y-89042839D01*
X86304306Y-89575857D01*
X86242983Y-89609342D01*
X86173291Y-89604358D01*
X86117358Y-89562486D01*
X86094153Y-89507575D01*
X86068477Y-89345466D01*
X86064470Y-89333135D01*
X86005218Y-89150776D01*
X85971503Y-89084607D01*
X85912287Y-88968390D01*
X85904556Y-88957749D01*
X85791971Y-88802786D01*
X85647213Y-88658028D01*
X85481611Y-88537713D01*
X85427621Y-88510203D01*
X85376825Y-88462228D01*
X85360031Y-88394407D01*
X85382569Y-88328272D01*
X85427624Y-88289233D01*
X85481349Y-88261859D01*
X85525921Y-88229474D01*
X84846447Y-87550000D01*
X84852661Y-87550000D01*
X84954394Y-87522741D01*
X85045606Y-87470080D01*
X85120080Y-87395606D01*
X85172741Y-87304394D01*
X85200000Y-87202661D01*
X85200000Y-87196447D01*
X85879474Y-87875921D01*
X85911859Y-87831349D01*
X86004755Y-87649031D01*
X86067990Y-87454417D01*
X86100000Y-87252317D01*
X86100000Y-87047682D01*
X86067990Y-86845582D01*
X86004755Y-86650968D01*
X85911859Y-86468650D01*
X85879474Y-86424077D01*
X85879474Y-86424076D01*
X85200000Y-87103551D01*
X85200000Y-87097339D01*
X85172741Y-86995606D01*
X85120080Y-86904394D01*
X85045606Y-86829920D01*
X84954394Y-86777259D01*
X84852661Y-86750000D01*
X84846446Y-86750000D01*
X85525922Y-86070524D01*
X85525921Y-86070523D01*
X85481359Y-86038147D01*
X85481350Y-86038141D01*
X85299031Y-85945244D01*
X85104417Y-85882009D01*
X84902317Y-85850000D01*
X84697683Y-85850000D01*
X84495582Y-85882009D01*
X84300968Y-85945244D01*
X84118644Y-86038143D01*
X84074077Y-86070523D01*
X84074077Y-86070524D01*
X84753554Y-86750000D01*
X84747339Y-86750000D01*
X84645606Y-86777259D01*
X84554394Y-86829920D01*
X84479920Y-86904394D01*
X84427259Y-86995606D01*
X84400000Y-87097339D01*
X84400000Y-87103553D01*
X83720524Y-86424077D01*
X83720523Y-86424077D01*
X83688143Y-86468644D01*
X83595244Y-86650968D01*
X83532009Y-86845582D01*
X83500000Y-87047682D01*
X83500000Y-87252317D01*
X83532009Y-87454417D01*
X83595244Y-87649031D01*
X83688141Y-87831350D01*
X83688147Y-87831359D01*
X83720523Y-87875921D01*
X83720524Y-87875922D01*
X84400000Y-87196446D01*
X84400000Y-87202661D01*
X84427259Y-87304394D01*
X84479920Y-87395606D01*
X84554394Y-87470080D01*
X84645606Y-87522741D01*
X84747339Y-87550000D01*
X84753553Y-87550000D01*
X84074076Y-88229474D01*
X84118652Y-88261861D01*
X84172376Y-88289234D01*
X84223172Y-88337208D01*
X84239968Y-88405028D01*
X84217431Y-88471164D01*
X84172379Y-88510203D01*
X84118386Y-88537714D01*
X83952786Y-88658028D01*
X83808028Y-88802786D01*
X83687715Y-88968385D01*
X83680883Y-88981795D01*
X83632909Y-89032591D01*
X83570398Y-89049500D01*
X82370097Y-89049500D01*
X82303058Y-89029815D01*
X82282416Y-89013181D01*
X81210066Y-87940831D01*
X81176581Y-87879508D01*
X81175274Y-87833752D01*
X81175655Y-87831350D01*
X81184383Y-87776239D01*
X81200500Y-87674486D01*
X81200500Y-87485513D01*
X81170940Y-87298881D01*
X81155810Y-87252317D01*
X81112547Y-87119168D01*
X81107880Y-87110008D01*
X81102327Y-87099109D01*
X81026759Y-86950800D01*
X80993043Y-86904394D01*
X80915690Y-86797927D01*
X80782073Y-86664310D01*
X80629199Y-86553240D01*
X80460836Y-86467454D01*
X80281118Y-86409059D01*
X80094486Y-86379500D01*
X80094481Y-86379500D01*
X79905519Y-86379500D01*
X79905514Y-86379500D01*
X79718881Y-86409059D01*
X79539163Y-86467454D01*
X79370800Y-86553240D01*
X79283579Y-86616610D01*
X79217927Y-86664310D01*
X79217925Y-86664312D01*
X79217924Y-86664312D01*
X79084312Y-86797924D01*
X79084312Y-86797925D01*
X79084310Y-86797927D01*
X79036610Y-86863579D01*
X78973240Y-86950800D01*
X78887454Y-87119163D01*
X78829059Y-87298881D01*
X78799500Y-87485513D01*
X78799500Y-87674486D01*
X78829059Y-87861118D01*
X78887454Y-88040836D01*
X78952154Y-88167816D01*
X78973240Y-88209199D01*
X79084310Y-88362073D01*
X79217927Y-88495690D01*
X79370801Y-88606760D01*
X79450347Y-88647290D01*
X79539163Y-88692545D01*
X79539165Y-88692545D01*
X79539168Y-88692547D01*
X79581200Y-88706204D01*
X79718881Y-88750940D01*
X79905514Y-88780500D01*
X79905519Y-88780500D01*
X80094486Y-88780500D01*
X80211017Y-88762042D01*
X80253753Y-88755274D01*
X80323045Y-88764228D01*
X80360831Y-88790066D01*
X81585139Y-90014374D01*
X81585149Y-90014385D01*
X81589479Y-90018715D01*
X81589480Y-90018716D01*
X81701284Y-90130520D01*
X81788095Y-90180639D01*
X81788097Y-90180641D01*
X81826151Y-90202611D01*
X81838215Y-90209577D01*
X81990943Y-90250500D01*
X82149057Y-90250500D01*
X83570398Y-90250500D01*
X83637437Y-90270185D01*
X83680883Y-90318205D01*
X83687715Y-90331614D01*
X83808028Y-90497213D01*
X83952786Y-90641971D01*
X84107749Y-90754556D01*
X84118390Y-90762287D01*
X84221413Y-90814780D01*
X84300776Y-90855218D01*
X84300778Y-90855218D01*
X84300781Y-90855220D01*
X84405137Y-90889127D01*
X84495465Y-90918477D01*
X84527581Y-90923563D01*
X84657575Y-90944152D01*
X84720708Y-90974081D01*
X84757640Y-91033392D01*
X84756642Y-91103255D01*
X84725857Y-91154306D01*
X84016984Y-91863181D01*
X83955661Y-91896666D01*
X83929303Y-91899500D01*
X81474499Y-91899500D01*
X81407460Y-91879815D01*
X81361705Y-91827011D01*
X81350499Y-91775500D01*
X81350499Y-91602129D01*
X81350498Y-91602123D01*
X81350497Y-91602116D01*
X81344091Y-91542517D01*
X81321473Y-91481876D01*
X81293797Y-91407671D01*
X81293793Y-91407664D01*
X81207547Y-91292455D01*
X81207544Y-91292452D01*
X81092335Y-91206206D01*
X81092328Y-91206202D01*
X80957482Y-91155908D01*
X80957483Y-91155908D01*
X80897883Y-91149501D01*
X80897881Y-91149500D01*
X80897873Y-91149500D01*
X80897864Y-91149500D01*
X79102129Y-91149500D01*
X79102123Y-91149501D01*
X79042516Y-91155908D01*
X78907671Y-91206202D01*
X78907664Y-91206206D01*
X78792455Y-91292452D01*
X78792452Y-91292455D01*
X78706206Y-91407664D01*
X78706202Y-91407671D01*
X78655908Y-91542517D01*
X78649501Y-91602116D01*
X78649501Y-91602123D01*
X78649500Y-91602135D01*
X76350499Y-91602135D01*
X76350499Y-91602128D01*
X76344091Y-91542517D01*
X76321473Y-91481876D01*
X76293797Y-91407671D01*
X76293793Y-91407664D01*
X76207547Y-91292455D01*
X76207544Y-91292452D01*
X76092335Y-91206206D01*
X76092328Y-91206202D01*
X75957482Y-91155908D01*
X75957483Y-91155908D01*
X75897883Y-91149501D01*
X75897881Y-91149500D01*
X75897873Y-91149500D01*
X75897864Y-91149500D01*
X74102129Y-91149500D01*
X74102123Y-91149501D01*
X74042516Y-91155908D01*
X73907671Y-91206202D01*
X73907664Y-91206206D01*
X73792455Y-91292452D01*
X73792452Y-91292455D01*
X73706206Y-91407664D01*
X73706202Y-91407671D01*
X73655908Y-91542517D01*
X73649501Y-91602116D01*
X73649501Y-91602123D01*
X73649500Y-91602135D01*
X68000500Y-91602135D01*
X68000500Y-84102135D01*
X73649500Y-84102135D01*
X73649500Y-85897870D01*
X73649501Y-85897876D01*
X73655908Y-85957483D01*
X73706202Y-86092328D01*
X73706206Y-86092335D01*
X73792452Y-86207544D01*
X73792455Y-86207547D01*
X73907664Y-86293793D01*
X73907671Y-86293797D01*
X74042517Y-86344091D01*
X74042516Y-86344091D01*
X74049444Y-86344835D01*
X74102127Y-86350500D01*
X75897872Y-86350499D01*
X75957483Y-86344091D01*
X76092331Y-86293796D01*
X76207546Y-86207546D01*
X76293796Y-86092331D01*
X76293798Y-86092326D01*
X76300467Y-86074448D01*
X76344091Y-85957483D01*
X76345407Y-85945244D01*
X76350500Y-85897873D01*
X76350499Y-84102128D01*
X76344091Y-84042517D01*
X76333140Y-84013157D01*
X76293797Y-83907671D01*
X76293793Y-83907664D01*
X76207547Y-83792455D01*
X76207544Y-83792452D01*
X76092335Y-83706206D01*
X76092328Y-83706202D01*
X75957482Y-83655908D01*
X75957483Y-83655908D01*
X75897883Y-83649501D01*
X75897881Y-83649500D01*
X75897873Y-83649500D01*
X75897864Y-83649500D01*
X74102129Y-83649500D01*
X74102123Y-83649501D01*
X74042516Y-83655908D01*
X73907671Y-83706202D01*
X73907664Y-83706206D01*
X73792455Y-83792452D01*
X73792452Y-83792455D01*
X73706206Y-83907664D01*
X73706202Y-83907671D01*
X73655908Y-84042517D01*
X73649501Y-84102116D01*
X73649501Y-84102123D01*
X73649500Y-84102135D01*
X68000500Y-84102135D01*
X68000500Y-82405513D01*
X78799500Y-82405513D01*
X78799500Y-82594486D01*
X78829059Y-82781118D01*
X78887454Y-82960836D01*
X78958362Y-83100000D01*
X78973240Y-83129199D01*
X79084310Y-83282073D01*
X79217927Y-83415690D01*
X79370801Y-83526760D01*
X79421880Y-83552786D01*
X79539163Y-83612545D01*
X79539165Y-83612545D01*
X79539168Y-83612547D01*
X79635497Y-83643846D01*
X79718881Y-83670940D01*
X79905514Y-83700500D01*
X79905519Y-83700500D01*
X80094486Y-83700500D01*
X80281118Y-83670940D01*
X80327381Y-83655908D01*
X80460832Y-83612547D01*
X80629199Y-83526760D01*
X80782073Y-83415690D01*
X80915690Y-83282073D01*
X81026760Y-83129199D01*
X81112547Y-82960832D01*
X81170940Y-82781118D01*
X81200500Y-82594486D01*
X81200500Y-82405513D01*
X81170940Y-82218881D01*
X81143846Y-82135497D01*
X81112547Y-82039168D01*
X81112545Y-82039165D01*
X81112545Y-82039163D01*
X81067290Y-81950347D01*
X81026760Y-81870801D01*
X80915690Y-81717927D01*
X80782073Y-81584310D01*
X80629199Y-81473240D01*
X80460836Y-81387454D01*
X80281118Y-81329059D01*
X80094486Y-81299500D01*
X80094481Y-81299500D01*
X79905519Y-81299500D01*
X79905514Y-81299500D01*
X79718881Y-81329059D01*
X79539163Y-81387454D01*
X79370800Y-81473240D01*
X79283579Y-81536610D01*
X79217927Y-81584310D01*
X79217925Y-81584312D01*
X79217924Y-81584312D01*
X79084312Y-81717924D01*
X79084312Y-81717925D01*
X79084310Y-81717927D01*
X79036610Y-81783579D01*
X78973240Y-81870800D01*
X78887454Y-82039163D01*
X78829059Y-82218881D01*
X78799500Y-82405513D01*
X68000500Y-82405513D01*
X68000500Y-71593735D01*
X73630300Y-71593735D01*
X73630300Y-73389470D01*
X73630301Y-73389476D01*
X73636708Y-73449083D01*
X73687002Y-73583928D01*
X73687006Y-73583935D01*
X73773252Y-73699144D01*
X73773255Y-73699147D01*
X73888464Y-73785393D01*
X73888471Y-73785397D01*
X74019882Y-73834410D01*
X74075816Y-73876281D01*
X74100233Y-73941745D01*
X74085382Y-74010018D01*
X74064231Y-74038273D01*
X73950689Y-74151815D01*
X73825751Y-74323779D01*
X73729244Y-74513185D01*
X73663553Y-74715360D01*
X73649998Y-74800943D01*
X73630300Y-74925313D01*
X73630300Y-75137887D01*
X73640334Y-75201244D01*
X73663553Y-75347839D01*
X73729244Y-75550014D01*
X73825751Y-75739420D01*
X73950690Y-75911386D01*
X74101013Y-76061709D01*
X74272982Y-76186650D01*
X74281746Y-76191116D01*
X74332542Y-76239091D01*
X74349336Y-76306912D01*
X74326798Y-76373047D01*
X74281746Y-76412084D01*
X74272982Y-76416549D01*
X74101013Y-76541490D01*
X73950690Y-76691813D01*
X73825751Y-76863779D01*
X73729244Y-77053185D01*
X73663553Y-77255360D01*
X73630300Y-77465313D01*
X73630300Y-77677886D01*
X73652213Y-77816243D01*
X73663554Y-77887843D01*
X73705979Y-78018414D01*
X73729244Y-78090014D01*
X73825751Y-78279420D01*
X73950690Y-78451386D01*
X74101013Y-78601709D01*
X74272982Y-78726650D01*
X74281746Y-78731116D01*
X74332542Y-78779091D01*
X74349336Y-78846912D01*
X74326798Y-78913047D01*
X74281746Y-78952084D01*
X74272982Y-78956549D01*
X74101013Y-79081490D01*
X73950690Y-79231813D01*
X73825751Y-79403779D01*
X73729244Y-79593185D01*
X73663553Y-79795360D01*
X73630300Y-80005313D01*
X73630300Y-80217886D01*
X73652213Y-80356243D01*
X73663554Y-80427843D01*
X73705979Y-80558414D01*
X73729244Y-80630014D01*
X73825751Y-80819420D01*
X73950690Y-80991386D01*
X74101013Y-81141709D01*
X74272979Y-81266648D01*
X74272981Y-81266649D01*
X74272984Y-81266651D01*
X74462388Y-81363157D01*
X74664557Y-81428846D01*
X74874513Y-81462100D01*
X74874514Y-81462100D01*
X75087086Y-81462100D01*
X75087087Y-81462100D01*
X75297043Y-81428846D01*
X75499212Y-81363157D01*
X75688616Y-81266651D01*
X75787170Y-81195048D01*
X75860586Y-81141709D01*
X75860588Y-81141706D01*
X75860592Y-81141704D01*
X76010904Y-80991392D01*
X76010906Y-80991388D01*
X76010909Y-80991386D01*
X76135848Y-80819420D01*
X76135847Y-80819420D01*
X76135851Y-80819416D01*
X76232357Y-80630012D01*
X76298046Y-80427843D01*
X76331300Y-80217887D01*
X76331300Y-80005313D01*
X76298046Y-79795357D01*
X76232357Y-79593188D01*
X76135851Y-79403784D01*
X76135849Y-79403781D01*
X76135848Y-79403779D01*
X76010909Y-79231813D01*
X75860586Y-79081490D01*
X75688620Y-78956551D01*
X75688005Y-78956237D01*
X75679854Y-78952084D01*
X75629059Y-78904112D01*
X75612263Y-78836292D01*
X75634799Y-78770156D01*
X75679854Y-78731115D01*
X75688616Y-78726651D01*
X75727286Y-78698556D01*
X75860586Y-78601709D01*
X75860588Y-78601706D01*
X75860592Y-78601704D01*
X76010904Y-78451392D01*
X76010906Y-78451388D01*
X76010909Y-78451386D01*
X76135848Y-78279420D01*
X76135847Y-78279420D01*
X76135851Y-78279416D01*
X76232357Y-78090012D01*
X76298046Y-77887843D01*
X76331300Y-77677887D01*
X76331300Y-77465313D01*
X76298046Y-77255357D01*
X76232357Y-77053188D01*
X76135851Y-76863784D01*
X76135849Y-76863781D01*
X76135848Y-76863779D01*
X76010909Y-76691813D01*
X75921231Y-76602135D01*
X78569500Y-76602135D01*
X78569500Y-78397870D01*
X78569501Y-78397876D01*
X78575908Y-78457483D01*
X78626202Y-78592328D01*
X78626206Y-78592335D01*
X78712452Y-78707544D01*
X78712455Y-78707547D01*
X78827664Y-78793793D01*
X78827671Y-78793797D01*
X78962517Y-78844091D01*
X78962516Y-78844091D01*
X78969444Y-78844835D01*
X79022127Y-78850500D01*
X80817872Y-78850499D01*
X80877483Y-78844091D01*
X81012331Y-78793796D01*
X81127546Y-78707546D01*
X81213796Y-78592331D01*
X81262810Y-78460916D01*
X81304681Y-78404984D01*
X81370145Y-78380566D01*
X81438418Y-78395417D01*
X81466673Y-78416569D01*
X81580213Y-78530109D01*
X81752179Y-78655048D01*
X81752181Y-78655049D01*
X81752184Y-78655051D01*
X81941588Y-78751557D01*
X82143757Y-78817246D01*
X82353713Y-78850500D01*
X82353714Y-78850500D01*
X82566286Y-78850500D01*
X82566287Y-78850500D01*
X82776243Y-78817246D01*
X82978412Y-78751557D01*
X83167816Y-78655051D01*
X83222876Y-78615048D01*
X83339786Y-78530109D01*
X83339788Y-78530106D01*
X83339792Y-78530104D01*
X83490104Y-78379792D01*
X83490106Y-78379788D01*
X83490109Y-78379786D01*
X83615048Y-78207820D01*
X83615047Y-78207820D01*
X83615051Y-78207816D01*
X83619514Y-78199054D01*
X83667488Y-78148259D01*
X83735308Y-78131463D01*
X83801444Y-78153999D01*
X83840486Y-78199056D01*
X83844951Y-78207820D01*
X83969890Y-78379786D01*
X84120213Y-78530109D01*
X84292179Y-78655048D01*
X84292181Y-78655049D01*
X84292184Y-78655051D01*
X84481588Y-78751557D01*
X84683757Y-78817246D01*
X84893713Y-78850500D01*
X84893714Y-78850500D01*
X85106286Y-78850500D01*
X85106287Y-78850500D01*
X85316243Y-78817246D01*
X85518412Y-78751557D01*
X85707816Y-78655051D01*
X85762876Y-78615048D01*
X85879786Y-78530109D01*
X85879788Y-78530106D01*
X85879792Y-78530104D01*
X86030104Y-78379792D01*
X86030106Y-78379788D01*
X86030109Y-78379786D01*
X86155048Y-78207820D01*
X86155047Y-78207820D01*
X86155051Y-78207816D01*
X86251557Y-78018412D01*
X86317246Y-77816243D01*
X86350500Y-77606287D01*
X86350500Y-77393713D01*
X86317246Y-77183757D01*
X86251557Y-76981588D01*
X86155051Y-76792184D01*
X86155049Y-76792181D01*
X86155048Y-76792179D01*
X86030109Y-76620213D01*
X85879786Y-76469890D01*
X85707815Y-76344948D01*
X85707814Y-76344947D01*
X85668205Y-76324765D01*
X85617409Y-76276791D01*
X85600500Y-76214281D01*
X85600500Y-75180097D01*
X85620185Y-75113058D01*
X85636819Y-75092416D01*
X87021722Y-73707513D01*
X88407821Y-72321413D01*
X88469142Y-72287930D01*
X88538834Y-72292914D01*
X88594767Y-72334786D01*
X88619184Y-72400250D01*
X88619500Y-72409096D01*
X88619500Y-73100001D01*
X88619501Y-73100019D01*
X88630000Y-73202796D01*
X88630001Y-73202799D01*
X88685185Y-73369331D01*
X88685187Y-73369336D01*
X88697614Y-73389483D01*
X88777288Y-73518656D01*
X88901344Y-73642712D01*
X89050666Y-73734814D01*
X89217203Y-73789999D01*
X89319991Y-73800500D01*
X90520008Y-73800499D01*
X90622797Y-73789999D01*
X90789334Y-73734814D01*
X90938656Y-73642712D01*
X91062712Y-73518656D01*
X91154814Y-73369334D01*
X91181955Y-73287427D01*
X91221726Y-73229984D01*
X91286242Y-73203161D01*
X91355018Y-73215476D01*
X91399977Y-73253547D01*
X91468030Y-73347213D01*
X91468034Y-73347219D01*
X91612786Y-73491971D01*
X91767749Y-73604556D01*
X91778390Y-73612287D01*
X91884204Y-73666202D01*
X91960776Y-73705218D01*
X91960778Y-73705218D01*
X91960781Y-73705220D01*
X92035369Y-73729455D01*
X92155465Y-73768477D01*
X92231375Y-73780500D01*
X92357648Y-73800500D01*
X92357649Y-73800500D01*
X92562351Y-73800500D01*
X92562352Y-73800500D01*
X92764534Y-73768477D01*
X92959219Y-73705220D01*
X92959222Y-73705218D01*
X92963852Y-73703714D01*
X92964272Y-73705009D01*
X93027596Y-73698191D01*
X93090081Y-73729455D01*
X93125743Y-73789538D01*
X93129600Y-73820224D01*
X93129600Y-75929802D01*
X93120955Y-75959241D01*
X93114432Y-75989229D01*
X93110677Y-75994244D01*
X93109915Y-75996841D01*
X93093281Y-76017484D01*
X92984522Y-76126242D01*
X92923199Y-76159726D01*
X92858523Y-76156491D01*
X92816245Y-76142754D01*
X92676272Y-76120584D01*
X92606287Y-76109500D01*
X92393713Y-76109500D01*
X92345042Y-76117208D01*
X92183760Y-76142753D01*
X91981585Y-76208444D01*
X91792179Y-76304951D01*
X91620215Y-76429889D01*
X91506673Y-76543431D01*
X91445350Y-76576915D01*
X91375658Y-76571931D01*
X91319725Y-76530059D01*
X91302810Y-76499082D01*
X91253797Y-76367671D01*
X91253793Y-76367664D01*
X91167547Y-76252455D01*
X91167544Y-76252452D01*
X91052335Y-76166206D01*
X91052328Y-76166202D01*
X90917482Y-76115908D01*
X90917483Y-76115908D01*
X90857883Y-76109501D01*
X90857881Y-76109500D01*
X90857873Y-76109500D01*
X90857864Y-76109500D01*
X89062129Y-76109500D01*
X89062123Y-76109501D01*
X89002516Y-76115908D01*
X88867671Y-76166202D01*
X88867664Y-76166206D01*
X88752455Y-76252452D01*
X88752452Y-76252455D01*
X88666206Y-76367664D01*
X88666202Y-76367671D01*
X88615908Y-76502517D01*
X88609501Y-76562116D01*
X88609500Y-76562135D01*
X88609500Y-78357870D01*
X88609501Y-78357876D01*
X88615908Y-78417483D01*
X88666202Y-78552328D01*
X88666206Y-78552335D01*
X88752452Y-78667544D01*
X88752455Y-78667547D01*
X88867664Y-78753793D01*
X88867671Y-78753797D01*
X88999082Y-78802810D01*
X89055016Y-78844681D01*
X89079433Y-78910145D01*
X89064582Y-78978418D01*
X89043431Y-79006673D01*
X88929889Y-79120215D01*
X88804951Y-79292179D01*
X88708444Y-79481585D01*
X88642753Y-79683760D01*
X88609500Y-79893713D01*
X88609500Y-80106287D01*
X88642754Y-80316243D01*
X88679015Y-80427843D01*
X88708444Y-80518414D01*
X88804951Y-80707820D01*
X88929890Y-80879786D01*
X89080213Y-81030109D01*
X89252179Y-81155048D01*
X89252181Y-81155049D01*
X89252184Y-81155051D01*
X89441588Y-81251557D01*
X89643757Y-81317246D01*
X89853713Y-81350500D01*
X89853714Y-81350500D01*
X90066286Y-81350500D01*
X90066287Y-81350500D01*
X90276243Y-81317246D01*
X90478412Y-81251557D01*
X90667816Y-81155051D01*
X90689789Y-81139086D01*
X90839786Y-81030109D01*
X90839788Y-81030106D01*
X90839792Y-81030104D01*
X90990104Y-80879792D01*
X90990106Y-80879788D01*
X90990109Y-80879786D01*
X91115048Y-80707820D01*
X91115047Y-80707820D01*
X91115051Y-80707816D01*
X91119514Y-80699054D01*
X91167488Y-80648259D01*
X91235308Y-80631463D01*
X91301444Y-80653999D01*
X91340486Y-80699056D01*
X91344951Y-80707820D01*
X91469890Y-80879786D01*
X91620213Y-81030109D01*
X91792179Y-81155048D01*
X91792181Y-81155049D01*
X91792184Y-81155051D01*
X91981588Y-81251557D01*
X92183757Y-81317246D01*
X92393713Y-81350500D01*
X92393714Y-81350500D01*
X92606286Y-81350500D01*
X92606287Y-81350500D01*
X92816243Y-81317246D01*
X93018412Y-81251557D01*
X93207816Y-81155051D01*
X93229789Y-81139086D01*
X93379786Y-81030109D01*
X93379788Y-81030106D01*
X93379792Y-81030104D01*
X93530104Y-80879792D01*
X93530106Y-80879788D01*
X93530109Y-80879786D01*
X93655048Y-80707820D01*
X93655047Y-80707820D01*
X93655051Y-80707816D01*
X93751557Y-80518412D01*
X93817246Y-80316243D01*
X93850500Y-80106287D01*
X93850500Y-79893713D01*
X93817246Y-79683757D01*
X93803506Y-79641473D01*
X93801512Y-79571635D01*
X93833755Y-79515478D01*
X95897821Y-77451413D01*
X95959142Y-77417930D01*
X96028834Y-77422914D01*
X96084767Y-77464786D01*
X96109184Y-77530250D01*
X96109500Y-77539096D01*
X96109500Y-78357870D01*
X96109501Y-78357876D01*
X96115908Y-78417483D01*
X96166202Y-78552328D01*
X96166206Y-78552335D01*
X96252452Y-78667544D01*
X96252455Y-78667547D01*
X96367664Y-78753793D01*
X96367671Y-78753797D01*
X96499082Y-78802810D01*
X96555016Y-78844681D01*
X96579433Y-78910145D01*
X96564582Y-78978418D01*
X96543431Y-79006673D01*
X96429889Y-79120215D01*
X96304951Y-79292179D01*
X96208444Y-79481585D01*
X96142753Y-79683760D01*
X96109500Y-79893713D01*
X96109500Y-80106287D01*
X96142754Y-80316243D01*
X96179015Y-80427843D01*
X96208444Y-80518414D01*
X96304951Y-80707820D01*
X96429890Y-80879786D01*
X96580213Y-81030109D01*
X96752179Y-81155048D01*
X96752181Y-81155049D01*
X96752184Y-81155051D01*
X96941588Y-81251557D01*
X97143757Y-81317246D01*
X97353713Y-81350500D01*
X97353714Y-81350500D01*
X97566286Y-81350500D01*
X97566287Y-81350500D01*
X97776243Y-81317246D01*
X97978412Y-81251557D01*
X98167816Y-81155051D01*
X98189789Y-81139086D01*
X98339786Y-81030109D01*
X98339788Y-81030106D01*
X98339792Y-81030104D01*
X98490104Y-80879792D01*
X98490106Y-80879788D01*
X98490109Y-80879786D01*
X98615048Y-80707820D01*
X98615047Y-80707820D01*
X98615051Y-80707816D01*
X98619514Y-80699054D01*
X98667488Y-80648259D01*
X98735308Y-80631463D01*
X98801444Y-80653999D01*
X98840486Y-80699056D01*
X98844951Y-80707820D01*
X98969890Y-80879786D01*
X99120213Y-81030109D01*
X99292179Y-81155048D01*
X99292181Y-81155049D01*
X99292184Y-81155051D01*
X99481588Y-81251557D01*
X99683757Y-81317246D01*
X99893713Y-81350500D01*
X99893714Y-81350500D01*
X100106286Y-81350500D01*
X100106287Y-81350500D01*
X100316243Y-81317246D01*
X100518412Y-81251557D01*
X100707816Y-81155051D01*
X100729789Y-81139086D01*
X100879786Y-81030109D01*
X100879788Y-81030106D01*
X100879792Y-81030104D01*
X101030104Y-80879792D01*
X101030106Y-80879788D01*
X101030109Y-80879786D01*
X101155048Y-80707820D01*
X101155047Y-80707820D01*
X101155051Y-80707816D01*
X101251557Y-80518412D01*
X101317246Y-80316243D01*
X101350500Y-80106287D01*
X101350500Y-79893713D01*
X101317246Y-79683757D01*
X101251557Y-79481588D01*
X101155051Y-79292184D01*
X101155049Y-79292181D01*
X101155048Y-79292179D01*
X101030109Y-79120213D01*
X100879786Y-78969890D01*
X100707820Y-78844951D01*
X100703618Y-78842810D01*
X100699054Y-78840485D01*
X100648259Y-78792512D01*
X100631463Y-78724692D01*
X100653999Y-78658556D01*
X100699054Y-78619515D01*
X100707816Y-78615051D01*
X100794138Y-78552335D01*
X100879786Y-78490109D01*
X100879788Y-78490106D01*
X100879792Y-78490104D01*
X101030104Y-78339792D01*
X101030106Y-78339788D01*
X101030109Y-78339786D01*
X101155048Y-78167820D01*
X101155047Y-78167820D01*
X101155051Y-78167816D01*
X101251557Y-77978412D01*
X101317246Y-77776243D01*
X101350500Y-77566287D01*
X101350500Y-77353713D01*
X101317246Y-77143757D01*
X101251557Y-76941588D01*
X101155051Y-76752184D01*
X101132127Y-76720632D01*
X101096570Y-76671691D01*
X101096569Y-76671688D01*
X101046036Y-76602135D01*
X103609500Y-76602135D01*
X103609500Y-78397870D01*
X103609501Y-78397876D01*
X103615908Y-78457483D01*
X103666202Y-78592328D01*
X103666206Y-78592335D01*
X103752452Y-78707544D01*
X103752455Y-78707547D01*
X103867664Y-78793793D01*
X103867671Y-78793797D01*
X103999082Y-78842810D01*
X104055016Y-78884681D01*
X104079433Y-78950145D01*
X104064582Y-79018418D01*
X104043431Y-79046673D01*
X103929889Y-79160215D01*
X103804951Y-79332179D01*
X103708444Y-79521585D01*
X103642753Y-79723760D01*
X103609500Y-79933713D01*
X103609500Y-80146286D01*
X103636418Y-80316243D01*
X103642754Y-80356243D01*
X103666018Y-80427843D01*
X103708444Y-80558414D01*
X103804951Y-80747820D01*
X103929890Y-80919786D01*
X104080213Y-81070109D01*
X104252179Y-81195048D01*
X104252181Y-81195049D01*
X104252184Y-81195051D01*
X104441588Y-81291557D01*
X104643757Y-81357246D01*
X104853713Y-81390500D01*
X104853714Y-81390500D01*
X105066286Y-81390500D01*
X105066287Y-81390500D01*
X105276243Y-81357246D01*
X105478412Y-81291557D01*
X105667816Y-81195051D01*
X105722876Y-81155048D01*
X105839786Y-81070109D01*
X105839788Y-81070106D01*
X105839792Y-81070104D01*
X105990104Y-80919792D01*
X105990106Y-80919788D01*
X105990109Y-80919786D01*
X106115048Y-80747820D01*
X106115047Y-80747820D01*
X106115051Y-80747816D01*
X106119514Y-80739054D01*
X106167488Y-80688259D01*
X106235308Y-80671463D01*
X106301444Y-80693999D01*
X106340486Y-80739056D01*
X106344951Y-80747820D01*
X106469890Y-80919786D01*
X106620213Y-81070109D01*
X106792179Y-81195048D01*
X106792181Y-81195049D01*
X106792184Y-81195051D01*
X106981588Y-81291557D01*
X107183757Y-81357246D01*
X107393713Y-81390500D01*
X107393714Y-81390500D01*
X107606286Y-81390500D01*
X107606287Y-81390500D01*
X107816243Y-81357246D01*
X108018412Y-81291557D01*
X108207816Y-81195051D01*
X108262876Y-81155048D01*
X108379786Y-81070109D01*
X108379788Y-81070106D01*
X108379792Y-81070104D01*
X108530104Y-80919792D01*
X108530106Y-80919788D01*
X108530109Y-80919786D01*
X108655048Y-80747820D01*
X108655047Y-80747820D01*
X108655051Y-80747816D01*
X108751557Y-80558412D01*
X108817246Y-80356243D01*
X108850500Y-80146287D01*
X108850500Y-79933713D01*
X108817246Y-79723757D01*
X108751557Y-79521588D01*
X108655051Y-79332184D01*
X108655049Y-79332181D01*
X108655048Y-79332179D01*
X108530109Y-79160213D01*
X108379786Y-79009890D01*
X108207820Y-78884951D01*
X108207115Y-78884591D01*
X108199054Y-78880485D01*
X108148259Y-78832512D01*
X108131463Y-78764692D01*
X108153999Y-78698556D01*
X108199054Y-78659515D01*
X108207816Y-78655051D01*
X108262876Y-78615048D01*
X108379786Y-78530109D01*
X108379788Y-78530106D01*
X108379792Y-78530104D01*
X108530104Y-78379792D01*
X108530106Y-78379788D01*
X108530109Y-78379786D01*
X108655048Y-78207820D01*
X108655047Y-78207820D01*
X108655051Y-78207816D01*
X108751557Y-78018412D01*
X108817246Y-77816243D01*
X108850500Y-77606287D01*
X108850500Y-77393713D01*
X108817246Y-77183757D01*
X108751557Y-76981588D01*
X108655051Y-76792184D01*
X108655049Y-76792181D01*
X108655048Y-76792179D01*
X108530109Y-76620213D01*
X108379786Y-76469890D01*
X108207820Y-76344951D01*
X108018414Y-76248444D01*
X108018413Y-76248443D01*
X108018412Y-76248443D01*
X107816243Y-76182754D01*
X107816241Y-76182753D01*
X107816240Y-76182753D01*
X107650426Y-76156491D01*
X107606287Y-76149500D01*
X107393713Y-76149500D01*
X107349574Y-76156491D01*
X107183760Y-76182753D01*
X106981585Y-76248444D01*
X106792179Y-76344951D01*
X106620215Y-76469889D01*
X106506673Y-76583431D01*
X106445350Y-76616915D01*
X106375658Y-76611931D01*
X106319725Y-76570059D01*
X106302810Y-76539082D01*
X106253797Y-76407671D01*
X106253793Y-76407664D01*
X106167547Y-76292455D01*
X106167544Y-76292452D01*
X106052335Y-76206206D01*
X106052328Y-76206202D01*
X105917482Y-76155908D01*
X105917483Y-76155908D01*
X105857883Y-76149501D01*
X105857881Y-76149500D01*
X105857873Y-76149500D01*
X105857864Y-76149500D01*
X104062129Y-76149500D01*
X104062123Y-76149501D01*
X104002516Y-76155908D01*
X103867671Y-76206202D01*
X103867664Y-76206206D01*
X103752455Y-76292452D01*
X103752452Y-76292455D01*
X103666206Y-76407664D01*
X103666202Y-76407671D01*
X103615908Y-76542517D01*
X103609501Y-76602116D01*
X103609500Y-76602135D01*
X101046036Y-76602135D01*
X101030109Y-76580214D01*
X101030105Y-76580209D01*
X100879786Y-76429890D01*
X100707820Y-76304951D01*
X100518414Y-76208444D01*
X100518413Y-76208443D01*
X100518412Y-76208443D01*
X100316243Y-76142754D01*
X100316241Y-76142753D01*
X100316240Y-76142753D01*
X100154957Y-76117208D01*
X100106287Y-76109500D01*
X99893713Y-76109500D01*
X99845042Y-76117208D01*
X99683760Y-76142753D01*
X99481585Y-76208444D01*
X99292179Y-76304951D01*
X99120215Y-76429889D01*
X99006673Y-76543431D01*
X98945350Y-76576915D01*
X98875658Y-76571931D01*
X98819725Y-76530059D01*
X98802810Y-76499082D01*
X98753797Y-76367671D01*
X98753793Y-76367664D01*
X98667547Y-76252455D01*
X98667544Y-76252452D01*
X98552335Y-76166206D01*
X98552328Y-76166202D01*
X98417482Y-76115908D01*
X98417483Y-76115908D01*
X98357883Y-76109501D01*
X98357881Y-76109500D01*
X98357873Y-76109500D01*
X98357865Y-76109500D01*
X96841300Y-76109500D01*
X96774261Y-76089815D01*
X96728506Y-76037011D01*
X96717300Y-75985500D01*
X96717300Y-74062135D01*
X111149500Y-74062135D01*
X111149500Y-75857870D01*
X111149501Y-75857876D01*
X111155908Y-75917483D01*
X111206202Y-76052328D01*
X111206206Y-76052335D01*
X111292452Y-76167544D01*
X111292455Y-76167547D01*
X111407664Y-76253793D01*
X111407671Y-76253797D01*
X111539082Y-76302810D01*
X111595016Y-76344681D01*
X111619433Y-76410145D01*
X111604582Y-76478418D01*
X111583431Y-76506673D01*
X111469889Y-76620215D01*
X111344951Y-76792179D01*
X111248444Y-76981585D01*
X111182753Y-77183760D01*
X111149500Y-77393713D01*
X111149500Y-77606286D01*
X111176418Y-77776243D01*
X111182754Y-77816243D01*
X111206018Y-77887843D01*
X111248444Y-78018414D01*
X111344951Y-78207820D01*
X111469890Y-78379786D01*
X111620213Y-78530109D01*
X111792182Y-78655050D01*
X111800946Y-78659516D01*
X111851742Y-78707491D01*
X111868536Y-78775312D01*
X111845998Y-78841447D01*
X111800946Y-78880484D01*
X111792182Y-78884949D01*
X111620213Y-79009890D01*
X111469890Y-79160213D01*
X111344951Y-79332179D01*
X111248444Y-79521585D01*
X111182753Y-79723760D01*
X111149500Y-79933713D01*
X111149500Y-80146286D01*
X111176418Y-80316243D01*
X111182754Y-80356243D01*
X111206018Y-80427843D01*
X111248444Y-80558414D01*
X111344951Y-80747820D01*
X111469890Y-80919786D01*
X111620213Y-81070109D01*
X111792182Y-81195050D01*
X111800946Y-81199516D01*
X111851742Y-81247491D01*
X111868536Y-81315312D01*
X111845998Y-81381447D01*
X111800946Y-81420484D01*
X111792182Y-81424949D01*
X111620213Y-81549890D01*
X111469890Y-81700213D01*
X111344951Y-81872179D01*
X111248444Y-82061585D01*
X111182753Y-82263760D01*
X111149500Y-82473713D01*
X111149500Y-82686286D01*
X111175126Y-82848086D01*
X111182754Y-82896243D01*
X111203740Y-82960832D01*
X111248444Y-83098414D01*
X111344951Y-83287820D01*
X111469890Y-83459786D01*
X111620213Y-83610109D01*
X111792179Y-83735048D01*
X111792181Y-83735049D01*
X111792184Y-83735051D01*
X111981588Y-83831557D01*
X112183757Y-83897246D01*
X112393713Y-83930500D01*
X112393714Y-83930500D01*
X112606286Y-83930500D01*
X112606287Y-83930500D01*
X112816243Y-83897246D01*
X113018412Y-83831557D01*
X113207816Y-83735051D01*
X113252874Y-83702315D01*
X113379786Y-83610109D01*
X113379788Y-83610106D01*
X113379792Y-83610104D01*
X113530104Y-83459792D01*
X113530106Y-83459788D01*
X113530109Y-83459786D01*
X113639086Y-83309789D01*
X113655051Y-83287816D01*
X113751557Y-83098412D01*
X113817246Y-82896243D01*
X113850500Y-82686287D01*
X113850500Y-82473713D01*
X113817246Y-82263757D01*
X113751557Y-82061588D01*
X113655051Y-81872184D01*
X113655049Y-81872181D01*
X113655048Y-81872179D01*
X113530109Y-81700213D01*
X113379786Y-81549890D01*
X113207820Y-81424951D01*
X113207205Y-81424637D01*
X113199054Y-81420484D01*
X113148259Y-81372512D01*
X113131463Y-81304692D01*
X113153999Y-81238556D01*
X113199054Y-81199515D01*
X113207816Y-81195051D01*
X113262876Y-81155048D01*
X113379786Y-81070109D01*
X113379788Y-81070106D01*
X113379792Y-81070104D01*
X113530104Y-80919792D01*
X113530106Y-80919788D01*
X113530109Y-80919786D01*
X113655048Y-80747820D01*
X113655047Y-80747820D01*
X113655051Y-80747816D01*
X113751557Y-80558412D01*
X113817246Y-80356243D01*
X113850500Y-80146287D01*
X113850500Y-79933713D01*
X113817246Y-79723757D01*
X113751557Y-79521588D01*
X113655051Y-79332184D01*
X113655049Y-79332181D01*
X113655048Y-79332179D01*
X113530109Y-79160213D01*
X113379786Y-79009890D01*
X113207820Y-78884951D01*
X113207205Y-78884637D01*
X113199054Y-78880484D01*
X113148259Y-78832512D01*
X113131463Y-78764692D01*
X113153999Y-78698556D01*
X113199054Y-78659515D01*
X113207816Y-78655051D01*
X113262876Y-78615048D01*
X113379786Y-78530109D01*
X113379788Y-78530106D01*
X113379792Y-78530104D01*
X113530104Y-78379792D01*
X113530106Y-78379788D01*
X113530109Y-78379786D01*
X113655048Y-78207820D01*
X113655047Y-78207820D01*
X113655051Y-78207816D01*
X113751557Y-78018412D01*
X113817246Y-77816243D01*
X113850500Y-77606287D01*
X113850500Y-77393713D01*
X113817246Y-77183757D01*
X113751557Y-76981588D01*
X113655051Y-76792184D01*
X113655049Y-76792181D01*
X113655048Y-76792179D01*
X113530109Y-76620213D01*
X113416569Y-76506673D01*
X113383084Y-76445350D01*
X113388068Y-76375658D01*
X113429940Y-76319725D01*
X113460915Y-76302810D01*
X113592331Y-76253796D01*
X113707546Y-76167546D01*
X113793796Y-76052331D01*
X113844091Y-75917483D01*
X113850500Y-75857873D01*
X113850499Y-74062128D01*
X113844091Y-74002517D01*
X113843710Y-74001496D01*
X113793797Y-73867671D01*
X113793793Y-73867664D01*
X113707547Y-73752455D01*
X113707544Y-73752452D01*
X113592335Y-73666206D01*
X113592328Y-73666202D01*
X113457482Y-73615908D01*
X113457483Y-73615908D01*
X113397883Y-73609501D01*
X113397881Y-73609500D01*
X113397873Y-73609500D01*
X113397864Y-73609500D01*
X111602129Y-73609500D01*
X111602123Y-73609501D01*
X111542516Y-73615908D01*
X111407671Y-73666202D01*
X111407664Y-73666206D01*
X111292455Y-73752452D01*
X111292452Y-73752455D01*
X111206206Y-73867664D01*
X111206202Y-73867671D01*
X111155908Y-74002517D01*
X111149501Y-74062116D01*
X111149501Y-74062123D01*
X111149500Y-74062135D01*
X96717300Y-74062135D01*
X96717300Y-73742747D01*
X96736985Y-73675708D01*
X96789789Y-73629953D01*
X96858947Y-73620009D01*
X96897593Y-73632262D01*
X96963673Y-73665931D01*
X97040774Y-73705217D01*
X97040777Y-73705217D01*
X97040781Y-73705220D01*
X97175245Y-73748910D01*
X97235465Y-73768477D01*
X97311375Y-73780500D01*
X97437648Y-73800500D01*
X97437649Y-73800500D01*
X97642351Y-73800500D01*
X97642352Y-73800500D01*
X97844534Y-73768477D01*
X98039219Y-73705220D01*
X98221610Y-73612287D01*
X98350482Y-73518657D01*
X98387213Y-73491971D01*
X98387215Y-73491968D01*
X98387219Y-73491966D01*
X98531966Y-73347219D01*
X98531968Y-73347215D01*
X98531971Y-73347213D01*
X98652284Y-73181614D01*
X98652285Y-73181613D01*
X98652287Y-73181610D01*
X98699516Y-73088917D01*
X98747489Y-73038123D01*
X98815310Y-73021328D01*
X98881445Y-73043865D01*
X98920483Y-73088917D01*
X98964348Y-73175006D01*
X98967715Y-73181614D01*
X99088028Y-73347213D01*
X99232786Y-73491971D01*
X99387749Y-73604556D01*
X99398390Y-73612287D01*
X99504204Y-73666202D01*
X99580776Y-73705218D01*
X99580778Y-73705218D01*
X99580781Y-73705220D01*
X99655369Y-73729455D01*
X99775465Y-73768477D01*
X99851375Y-73780500D01*
X99977648Y-73800500D01*
X99977649Y-73800500D01*
X100182351Y-73800500D01*
X100182352Y-73800500D01*
X100384534Y-73768477D01*
X100579219Y-73705220D01*
X100761610Y-73612287D01*
X100890482Y-73518657D01*
X100927213Y-73491971D01*
X100927215Y-73491968D01*
X100927219Y-73491966D01*
X101071966Y-73347219D01*
X101071968Y-73347215D01*
X101071971Y-73347213D01*
X101192284Y-73181614D01*
X101192285Y-73181613D01*
X101192287Y-73181610D01*
X101239516Y-73088917D01*
X101287489Y-73038123D01*
X101355310Y-73021328D01*
X101421445Y-73043865D01*
X101460483Y-73088917D01*
X101504348Y-73175006D01*
X101507715Y-73181614D01*
X101628028Y-73347213D01*
X101772786Y-73491971D01*
X101927749Y-73604556D01*
X101938390Y-73612287D01*
X102044204Y-73666202D01*
X102120776Y-73705218D01*
X102120778Y-73705218D01*
X102120781Y-73705220D01*
X102195369Y-73729455D01*
X102315465Y-73768477D01*
X102391375Y-73780500D01*
X102517648Y-73800500D01*
X102517649Y-73800500D01*
X102722351Y-73800500D01*
X102722352Y-73800500D01*
X102924534Y-73768477D01*
X103119219Y-73705220D01*
X103301610Y-73612287D01*
X103430482Y-73518657D01*
X103467213Y-73491971D01*
X103467215Y-73491968D01*
X103467219Y-73491966D01*
X103611966Y-73347219D01*
X103611968Y-73347215D01*
X103611971Y-73347213D01*
X103732284Y-73181614D01*
X103732285Y-73181613D01*
X103732287Y-73181610D01*
X103779516Y-73088917D01*
X103827489Y-73038123D01*
X103895310Y-73021328D01*
X103961445Y-73043865D01*
X104000483Y-73088917D01*
X104044348Y-73175006D01*
X104047715Y-73181614D01*
X104168028Y-73347213D01*
X104312786Y-73491971D01*
X104467749Y-73604556D01*
X104478390Y-73612287D01*
X104584204Y-73666202D01*
X104660776Y-73705218D01*
X104660778Y-73705218D01*
X104660781Y-73705220D01*
X104735369Y-73729455D01*
X104855465Y-73768477D01*
X104931375Y-73780500D01*
X105057648Y-73800500D01*
X105057649Y-73800500D01*
X105262351Y-73800500D01*
X105262352Y-73800500D01*
X105464534Y-73768477D01*
X105659219Y-73705220D01*
X105841610Y-73612287D01*
X105970482Y-73518657D01*
X106007213Y-73491971D01*
X106007215Y-73491968D01*
X106007219Y-73491966D01*
X106151966Y-73347219D01*
X106151968Y-73347215D01*
X106151971Y-73347213D01*
X106272284Y-73181614D01*
X106272285Y-73181613D01*
X106272287Y-73181610D01*
X106319516Y-73088917D01*
X106367489Y-73038123D01*
X106435310Y-73021328D01*
X106501445Y-73043865D01*
X106540483Y-73088917D01*
X106584348Y-73175006D01*
X106587715Y-73181614D01*
X106708028Y-73347213D01*
X106852786Y-73491971D01*
X107007749Y-73604556D01*
X107018390Y-73612287D01*
X107124204Y-73666202D01*
X107200776Y-73705218D01*
X107200778Y-73705218D01*
X107200781Y-73705220D01*
X107275369Y-73729455D01*
X107395465Y-73768477D01*
X107471375Y-73780500D01*
X107597648Y-73800500D01*
X107597649Y-73800500D01*
X107802351Y-73800500D01*
X107802352Y-73800500D01*
X108004534Y-73768477D01*
X108199219Y-73705220D01*
X108381610Y-73612287D01*
X108510482Y-73518657D01*
X108547213Y-73491971D01*
X108547215Y-73491968D01*
X108547219Y-73491966D01*
X108691966Y-73347219D01*
X108691968Y-73347215D01*
X108691971Y-73347213D01*
X108760021Y-73253548D01*
X108812287Y-73181610D01*
X108905220Y-72999219D01*
X108968477Y-72804534D01*
X109000500Y-72602352D01*
X109000500Y-72397648D01*
X108968477Y-72195465D01*
X108905218Y-72000776D01*
X108853865Y-71899992D01*
X108812287Y-71818390D01*
X108797420Y-71797927D01*
X108691971Y-71652786D01*
X108547213Y-71508028D01*
X108381613Y-71387715D01*
X108381612Y-71387714D01*
X108381610Y-71387713D01*
X108316145Y-71354357D01*
X108199223Y-71294781D01*
X108004534Y-71231522D01*
X107829995Y-71203878D01*
X107802352Y-71199500D01*
X107597648Y-71199500D01*
X107573329Y-71203351D01*
X107395465Y-71231522D01*
X107200776Y-71294781D01*
X107018386Y-71387715D01*
X106852786Y-71508028D01*
X106708028Y-71652786D01*
X106587715Y-71818386D01*
X106540485Y-71911080D01*
X106492510Y-71961876D01*
X106424689Y-71978671D01*
X106358554Y-71956134D01*
X106319515Y-71911080D01*
X106313865Y-71899992D01*
X106272287Y-71818390D01*
X106257420Y-71797927D01*
X106151971Y-71652786D01*
X106007213Y-71508028D01*
X105841613Y-71387715D01*
X105841612Y-71387714D01*
X105841610Y-71387713D01*
X105776145Y-71354357D01*
X105659223Y-71294781D01*
X105464534Y-71231522D01*
X105289995Y-71203878D01*
X105262352Y-71199500D01*
X105057648Y-71199500D01*
X105033329Y-71203351D01*
X104855465Y-71231522D01*
X104660776Y-71294781D01*
X104478386Y-71387715D01*
X104312786Y-71508028D01*
X104168028Y-71652786D01*
X104047715Y-71818386D01*
X104000485Y-71911080D01*
X103952510Y-71961876D01*
X103884689Y-71978671D01*
X103818554Y-71956134D01*
X103779515Y-71911080D01*
X103773865Y-71899992D01*
X103732287Y-71818390D01*
X103717420Y-71797927D01*
X103611971Y-71652786D01*
X103467213Y-71508028D01*
X103301613Y-71387715D01*
X103301612Y-71387714D01*
X103301610Y-71387713D01*
X103236145Y-71354357D01*
X103119223Y-71294781D01*
X102924534Y-71231522D01*
X102749995Y-71203878D01*
X102722352Y-71199500D01*
X102517648Y-71199500D01*
X102493329Y-71203351D01*
X102315465Y-71231522D01*
X102120776Y-71294781D01*
X101938386Y-71387715D01*
X101772786Y-71508028D01*
X101628028Y-71652786D01*
X101507715Y-71818386D01*
X101460485Y-71911080D01*
X101412510Y-71961876D01*
X101344689Y-71978671D01*
X101278554Y-71956134D01*
X101239515Y-71911080D01*
X101233865Y-71899992D01*
X101192287Y-71818390D01*
X101177420Y-71797927D01*
X101071971Y-71652786D01*
X100927213Y-71508028D01*
X100761613Y-71387715D01*
X100761612Y-71387714D01*
X100761610Y-71387713D01*
X100696145Y-71354357D01*
X100579223Y-71294781D01*
X100384534Y-71231522D01*
X100209995Y-71203878D01*
X100182352Y-71199500D01*
X99977648Y-71199500D01*
X99953329Y-71203351D01*
X99775465Y-71231522D01*
X99580776Y-71294781D01*
X99398386Y-71387715D01*
X99232786Y-71508028D01*
X99088028Y-71652786D01*
X98967715Y-71818386D01*
X98920485Y-71911080D01*
X98872510Y-71961876D01*
X98804689Y-71978671D01*
X98738554Y-71956134D01*
X98699515Y-71911080D01*
X98693865Y-71899992D01*
X98652287Y-71818390D01*
X98637420Y-71797927D01*
X98531971Y-71652786D01*
X98387213Y-71508028D01*
X98221613Y-71387715D01*
X98221612Y-71387714D01*
X98221610Y-71387713D01*
X98156145Y-71354357D01*
X98039223Y-71294781D01*
X97844534Y-71231522D01*
X97669995Y-71203878D01*
X97642352Y-71199500D01*
X97437648Y-71199500D01*
X97413329Y-71203351D01*
X97235465Y-71231522D01*
X97040776Y-71294781D01*
X96897595Y-71367737D01*
X96828926Y-71380633D01*
X96764185Y-71354357D01*
X96723928Y-71297250D01*
X96717300Y-71257252D01*
X96717300Y-66603297D01*
X96736985Y-66536258D01*
X96753619Y-66515616D01*
X96918736Y-66350499D01*
X97095159Y-66174075D01*
X97156480Y-66140592D01*
X97221154Y-66143826D01*
X97235466Y-66148477D01*
X97437648Y-66180500D01*
X97437649Y-66180500D01*
X97642351Y-66180500D01*
X97642352Y-66180500D01*
X97844534Y-66148477D01*
X98039219Y-66085220D01*
X98221610Y-65992287D01*
X98351561Y-65897873D01*
X98387213Y-65871971D01*
X98387215Y-65871968D01*
X98387219Y-65871966D01*
X98531966Y-65727219D01*
X98531968Y-65727215D01*
X98531971Y-65727213D01*
X98652284Y-65561614D01*
X98652285Y-65561613D01*
X98652287Y-65561610D01*
X98699516Y-65468917D01*
X98747489Y-65418123D01*
X98815310Y-65401328D01*
X98881445Y-65423865D01*
X98920485Y-65468919D01*
X98967715Y-65561614D01*
X99088028Y-65727213D01*
X99232786Y-65871971D01*
X99350486Y-65957483D01*
X99398390Y-65992287D01*
X99509894Y-66049101D01*
X99580776Y-66085218D01*
X99580778Y-66085218D01*
X99580781Y-66085220D01*
X99685137Y-66119127D01*
X99775465Y-66148477D01*
X99822389Y-66155909D01*
X99977648Y-66180500D01*
X99977649Y-66180500D01*
X100182351Y-66180500D01*
X100182352Y-66180500D01*
X100384534Y-66148477D01*
X100579219Y-66085220D01*
X100761610Y-65992287D01*
X100891561Y-65897873D01*
X100927213Y-65871971D01*
X100927215Y-65871968D01*
X100927219Y-65871966D01*
X101071966Y-65727219D01*
X101071968Y-65727215D01*
X101071971Y-65727213D01*
X101192284Y-65561614D01*
X101192285Y-65561613D01*
X101192287Y-65561610D01*
X101239516Y-65468917D01*
X101287489Y-65418123D01*
X101355310Y-65401328D01*
X101421445Y-65423865D01*
X101460485Y-65468919D01*
X101507715Y-65561614D01*
X101628028Y-65727213D01*
X101772786Y-65871971D01*
X101890486Y-65957483D01*
X101938390Y-65992287D01*
X102049894Y-66049101D01*
X102120776Y-66085218D01*
X102120778Y-66085218D01*
X102120781Y-66085220D01*
X102225137Y-66119127D01*
X102315465Y-66148477D01*
X102362389Y-66155909D01*
X102517648Y-66180500D01*
X102517649Y-66180500D01*
X102722351Y-66180500D01*
X102722352Y-66180500D01*
X102924534Y-66148477D01*
X103119219Y-66085220D01*
X103301610Y-65992287D01*
X103431561Y-65897873D01*
X103467213Y-65871971D01*
X103467215Y-65871968D01*
X103467219Y-65871966D01*
X103611966Y-65727219D01*
X103611968Y-65727215D01*
X103611971Y-65727213D01*
X103732284Y-65561614D01*
X103732285Y-65561613D01*
X103732287Y-65561610D01*
X103779516Y-65468917D01*
X103827489Y-65418123D01*
X103895310Y-65401328D01*
X103961445Y-65423865D01*
X104000485Y-65468919D01*
X104047715Y-65561614D01*
X104168028Y-65727213D01*
X104312786Y-65871971D01*
X104430486Y-65957483D01*
X104478390Y-65992287D01*
X104589894Y-66049101D01*
X104660776Y-66085218D01*
X104660778Y-66085218D01*
X104660781Y-66085220D01*
X104765137Y-66119127D01*
X104855465Y-66148477D01*
X104902389Y-66155909D01*
X105057648Y-66180500D01*
X105057649Y-66180500D01*
X105262351Y-66180500D01*
X105262352Y-66180500D01*
X105464534Y-66148477D01*
X105659219Y-66085220D01*
X105841610Y-65992287D01*
X105971561Y-65897873D01*
X106007213Y-65871971D01*
X106007215Y-65871968D01*
X106007219Y-65871966D01*
X106151966Y-65727219D01*
X106151968Y-65727215D01*
X106151971Y-65727213D01*
X106272284Y-65561614D01*
X106272285Y-65561613D01*
X106272287Y-65561610D01*
X106319516Y-65468917D01*
X106367489Y-65418123D01*
X106435310Y-65401328D01*
X106501445Y-65423865D01*
X106540485Y-65468919D01*
X106587715Y-65561614D01*
X106708028Y-65727213D01*
X106852786Y-65871971D01*
X106970486Y-65957483D01*
X107018390Y-65992287D01*
X107129894Y-66049101D01*
X107200776Y-66085218D01*
X107200778Y-66085218D01*
X107200781Y-66085220D01*
X107305137Y-66119127D01*
X107395465Y-66148477D01*
X107442389Y-66155909D01*
X107597648Y-66180500D01*
X107597649Y-66180500D01*
X107802351Y-66180500D01*
X107802352Y-66180500D01*
X108004534Y-66148477D01*
X108199219Y-66085220D01*
X108381610Y-65992287D01*
X108511561Y-65897873D01*
X108547213Y-65871971D01*
X108547215Y-65871968D01*
X108547219Y-65871966D01*
X108691966Y-65727219D01*
X108691968Y-65727215D01*
X108691971Y-65727213D01*
X108744732Y-65654590D01*
X108812287Y-65561610D01*
X108905220Y-65379219D01*
X108968477Y-65184534D01*
X109000500Y-64982352D01*
X109000500Y-64777648D01*
X108992257Y-64725606D01*
X108968477Y-64575465D01*
X108937458Y-64480000D01*
X108905220Y-64380781D01*
X108905218Y-64380778D01*
X108905218Y-64380776D01*
X108812287Y-64198390D01*
X108792889Y-64171691D01*
X108792888Y-64171688D01*
X108742355Y-64102135D01*
X111149500Y-64102135D01*
X111149500Y-65897870D01*
X111149501Y-65897876D01*
X111155908Y-65957483D01*
X111206202Y-66092328D01*
X111206206Y-66092335D01*
X111292452Y-66207544D01*
X111292455Y-66207547D01*
X111407664Y-66293793D01*
X111407671Y-66293797D01*
X111539082Y-66342810D01*
X111595016Y-66384681D01*
X111619433Y-66450145D01*
X111604582Y-66518418D01*
X111583431Y-66546673D01*
X111469889Y-66660215D01*
X111344951Y-66832179D01*
X111248444Y-67021585D01*
X111182753Y-67223760D01*
X111149500Y-67433713D01*
X111149500Y-67646287D01*
X111182754Y-67856243D01*
X111216738Y-67960836D01*
X111248444Y-68058414D01*
X111344951Y-68247820D01*
X111469890Y-68419786D01*
X111620213Y-68570109D01*
X111792182Y-68695050D01*
X111800946Y-68699516D01*
X111851742Y-68747491D01*
X111868536Y-68815312D01*
X111845998Y-68881447D01*
X111800946Y-68920484D01*
X111792182Y-68924949D01*
X111620213Y-69049890D01*
X111469890Y-69200213D01*
X111344951Y-69372179D01*
X111248444Y-69561585D01*
X111182753Y-69763760D01*
X111177386Y-69797648D01*
X111149500Y-69973713D01*
X111149500Y-70186287D01*
X111182754Y-70396243D01*
X111240908Y-70575223D01*
X111248444Y-70598414D01*
X111344951Y-70787820D01*
X111469890Y-70959786D01*
X111620213Y-71110109D01*
X111792179Y-71235048D01*
X111792181Y-71235049D01*
X111792184Y-71235051D01*
X111981588Y-71331557D01*
X112183757Y-71397246D01*
X112393713Y-71430500D01*
X112393714Y-71430500D01*
X112606286Y-71430500D01*
X112606287Y-71430500D01*
X112816243Y-71397246D01*
X113018412Y-71331557D01*
X113207816Y-71235051D01*
X113259080Y-71197806D01*
X113379786Y-71110109D01*
X113379788Y-71110106D01*
X113379792Y-71110104D01*
X113530104Y-70959792D01*
X113530106Y-70959788D01*
X113530109Y-70959786D01*
X113655048Y-70787820D01*
X113655047Y-70787820D01*
X113655051Y-70787816D01*
X113751557Y-70598412D01*
X113817246Y-70396243D01*
X113850500Y-70186287D01*
X113850500Y-69973713D01*
X113817246Y-69763757D01*
X113751557Y-69561588D01*
X113655051Y-69372184D01*
X113655049Y-69372181D01*
X113655048Y-69372179D01*
X113530109Y-69200213D01*
X113379786Y-69049890D01*
X113207820Y-68924951D01*
X113207115Y-68924591D01*
X113199054Y-68920485D01*
X113148259Y-68872512D01*
X113131463Y-68804692D01*
X113153999Y-68738556D01*
X113199054Y-68699515D01*
X113207816Y-68695051D01*
X113238086Y-68673059D01*
X113379786Y-68570109D01*
X113379788Y-68570106D01*
X113379792Y-68570104D01*
X113530104Y-68419792D01*
X113530106Y-68419788D01*
X113530109Y-68419786D01*
X113655048Y-68247820D01*
X113655047Y-68247820D01*
X113655051Y-68247816D01*
X113751557Y-68058412D01*
X113817246Y-67856243D01*
X113850500Y-67646287D01*
X113850500Y-67433713D01*
X113817246Y-67223757D01*
X113751557Y-67021588D01*
X113655051Y-66832184D01*
X113655049Y-66832181D01*
X113655048Y-66832179D01*
X113530109Y-66660213D01*
X113416569Y-66546673D01*
X113383084Y-66485350D01*
X113388068Y-66415658D01*
X113429940Y-66359725D01*
X113460915Y-66342810D01*
X113592331Y-66293796D01*
X113707546Y-66207546D01*
X113793796Y-66092331D01*
X113844091Y-65957483D01*
X113850500Y-65897873D01*
X113850499Y-64102128D01*
X113844091Y-64042517D01*
X113793796Y-63907669D01*
X113793795Y-63907668D01*
X113793793Y-63907664D01*
X113707547Y-63792455D01*
X113707544Y-63792452D01*
X113592335Y-63706206D01*
X113592328Y-63706202D01*
X113457482Y-63655908D01*
X113457483Y-63655908D01*
X113397883Y-63649501D01*
X113397881Y-63649500D01*
X113397873Y-63649500D01*
X113397864Y-63649500D01*
X111602129Y-63649500D01*
X111602123Y-63649501D01*
X111542516Y-63655908D01*
X111407671Y-63706202D01*
X111407664Y-63706206D01*
X111292455Y-63792452D01*
X111292452Y-63792455D01*
X111206206Y-63907664D01*
X111206202Y-63907671D01*
X111155908Y-64042517D01*
X111149501Y-64102116D01*
X111149501Y-64102123D01*
X111149500Y-64102135D01*
X108742355Y-64102135D01*
X108691971Y-64032786D01*
X108547213Y-63888028D01*
X108381613Y-63767715D01*
X108381612Y-63767714D01*
X108381610Y-63767713D01*
X108324653Y-63738691D01*
X108199223Y-63674781D01*
X108004534Y-63611522D01*
X107829995Y-63583878D01*
X107802352Y-63579500D01*
X107597648Y-63579500D01*
X107573329Y-63583351D01*
X107395465Y-63611522D01*
X107200776Y-63674781D01*
X107018386Y-63767715D01*
X106852786Y-63888028D01*
X106708028Y-64032786D01*
X106587715Y-64198386D01*
X106540485Y-64291080D01*
X106492510Y-64341876D01*
X106424689Y-64358671D01*
X106358554Y-64336134D01*
X106319515Y-64291080D01*
X106272420Y-64198652D01*
X106272287Y-64198390D01*
X106240092Y-64154077D01*
X106151971Y-64032786D01*
X106007213Y-63888028D01*
X105841613Y-63767715D01*
X105841612Y-63767714D01*
X105841610Y-63767713D01*
X105784653Y-63738691D01*
X105659223Y-63674781D01*
X105464534Y-63611522D01*
X105289995Y-63583878D01*
X105262352Y-63579500D01*
X105057648Y-63579500D01*
X105033329Y-63583351D01*
X104855465Y-63611522D01*
X104660776Y-63674781D01*
X104478386Y-63767715D01*
X104312786Y-63888028D01*
X104168028Y-64032786D01*
X104047715Y-64198386D01*
X104000485Y-64291080D01*
X103952510Y-64341876D01*
X103884689Y-64358671D01*
X103818554Y-64336134D01*
X103779515Y-64291080D01*
X103732420Y-64198652D01*
X103732287Y-64198390D01*
X103700092Y-64154077D01*
X103611971Y-64032786D01*
X103467213Y-63888028D01*
X103301613Y-63767715D01*
X103301612Y-63767714D01*
X103301610Y-63767713D01*
X103244653Y-63738691D01*
X103119223Y-63674781D01*
X102924534Y-63611522D01*
X102749995Y-63583878D01*
X102722352Y-63579500D01*
X102517648Y-63579500D01*
X102493329Y-63583351D01*
X102315465Y-63611522D01*
X102120776Y-63674781D01*
X101938386Y-63767715D01*
X101772786Y-63888028D01*
X101628028Y-64032786D01*
X101507715Y-64198386D01*
X101460485Y-64291080D01*
X101412510Y-64341876D01*
X101344689Y-64358671D01*
X101278554Y-64336134D01*
X101239515Y-64291080D01*
X101192420Y-64198652D01*
X101192287Y-64198390D01*
X101160092Y-64154077D01*
X101071971Y-64032786D01*
X100927213Y-63888028D01*
X100761613Y-63767715D01*
X100761612Y-63767714D01*
X100761610Y-63767713D01*
X100704653Y-63738691D01*
X100579223Y-63674781D01*
X100384534Y-63611522D01*
X100209995Y-63583878D01*
X100182352Y-63579500D01*
X99977648Y-63579500D01*
X99953329Y-63583351D01*
X99775465Y-63611522D01*
X99580776Y-63674781D01*
X99398386Y-63767715D01*
X99232786Y-63888028D01*
X99088028Y-64032786D01*
X98967715Y-64198386D01*
X98920485Y-64291080D01*
X98872510Y-64341876D01*
X98804689Y-64358671D01*
X98738554Y-64336134D01*
X98699515Y-64291080D01*
X98652420Y-64198652D01*
X98652287Y-64198390D01*
X98620092Y-64154077D01*
X98531971Y-64032786D01*
X98387213Y-63888028D01*
X98221613Y-63767715D01*
X98221612Y-63767714D01*
X98221610Y-63767713D01*
X98164653Y-63738691D01*
X98039223Y-63674781D01*
X97844534Y-63611522D01*
X97669995Y-63583878D01*
X97642352Y-63579500D01*
X97437648Y-63579500D01*
X97413329Y-63583351D01*
X97235465Y-63611522D01*
X97040776Y-63674781D01*
X96858386Y-63767715D01*
X96692786Y-63888028D01*
X96548028Y-64032786D01*
X96427715Y-64198386D01*
X96380485Y-64291080D01*
X96332510Y-64341876D01*
X96264689Y-64358671D01*
X96198554Y-64336134D01*
X96159515Y-64291080D01*
X96112420Y-64198652D01*
X96112287Y-64198390D01*
X96080092Y-64154077D01*
X95991971Y-64032786D01*
X95847213Y-63888028D01*
X95681613Y-63767715D01*
X95681612Y-63767714D01*
X95681610Y-63767713D01*
X95624653Y-63738691D01*
X95499223Y-63674781D01*
X95304534Y-63611522D01*
X95129995Y-63583878D01*
X95102352Y-63579500D01*
X94897648Y-63579500D01*
X94873329Y-63583351D01*
X94695465Y-63611522D01*
X94500776Y-63674781D01*
X94318386Y-63767715D01*
X94152786Y-63888028D01*
X94008028Y-64032786D01*
X93887715Y-64198386D01*
X93840485Y-64291080D01*
X93792510Y-64341876D01*
X93724689Y-64358671D01*
X93658554Y-64336134D01*
X93619515Y-64291080D01*
X93572420Y-64198652D01*
X93572287Y-64198390D01*
X93540092Y-64154077D01*
X93451971Y-64032786D01*
X93307213Y-63888028D01*
X93141613Y-63767715D01*
X93141612Y-63767714D01*
X93141610Y-63767713D01*
X93084653Y-63738691D01*
X92959223Y-63674781D01*
X92764534Y-63611522D01*
X92589995Y-63583878D01*
X92562352Y-63579500D01*
X92357648Y-63579500D01*
X92333329Y-63583351D01*
X92155465Y-63611522D01*
X91960776Y-63674781D01*
X91778386Y-63767715D01*
X91612786Y-63888028D01*
X91468028Y-64032786D01*
X91347713Y-64198388D01*
X91300203Y-64291630D01*
X91252228Y-64342426D01*
X91184407Y-64359220D01*
X91118272Y-64336682D01*
X91079234Y-64291628D01*
X91031861Y-64198652D01*
X90999474Y-64154077D01*
X90999474Y-64154076D01*
X90320000Y-64833553D01*
X90320000Y-64827339D01*
X90292741Y-64725606D01*
X90240080Y-64634394D01*
X90165606Y-64559920D01*
X90074394Y-64507259D01*
X89972661Y-64480000D01*
X89966446Y-64480000D01*
X90645922Y-63800524D01*
X90645921Y-63800523D01*
X90601359Y-63768147D01*
X90601350Y-63768141D01*
X90419031Y-63675244D01*
X90224417Y-63612009D01*
X90022317Y-63580000D01*
X89817683Y-63580000D01*
X89615582Y-63612009D01*
X89420968Y-63675244D01*
X89238644Y-63768143D01*
X89194077Y-63800523D01*
X89194077Y-63800524D01*
X89873554Y-64480000D01*
X89867339Y-64480000D01*
X89765606Y-64507259D01*
X89674394Y-64559920D01*
X89599920Y-64634394D01*
X89547259Y-64725606D01*
X89520000Y-64827339D01*
X89520000Y-64833553D01*
X88840524Y-64154077D01*
X88840523Y-64154077D01*
X88808143Y-64198644D01*
X88715244Y-64380968D01*
X88652009Y-64575582D01*
X88620000Y-64777682D01*
X88620000Y-64982317D01*
X88652009Y-65184417D01*
X88715244Y-65379031D01*
X88808141Y-65561350D01*
X88808147Y-65561359D01*
X88840523Y-65605921D01*
X88840524Y-65605922D01*
X89520000Y-64926446D01*
X89520000Y-64932661D01*
X89547259Y-65034394D01*
X89599920Y-65125606D01*
X89674394Y-65200080D01*
X89765606Y-65252741D01*
X89867339Y-65280000D01*
X89873553Y-65280000D01*
X89194076Y-65959474D01*
X89238650Y-65991859D01*
X89420968Y-66084755D01*
X89615582Y-66147990D01*
X89817683Y-66180000D01*
X90011401Y-66180000D01*
X90078440Y-66199685D01*
X90124195Y-66252489D01*
X90134139Y-66321647D01*
X90105114Y-66385203D01*
X90099082Y-66391681D01*
X86297352Y-70193411D01*
X86236029Y-70226896D01*
X86166337Y-70221912D01*
X86110404Y-70180040D01*
X86085987Y-70114576D01*
X86087197Y-70086338D01*
X86100500Y-70002352D01*
X86100500Y-69797648D01*
X86068477Y-69595466D01*
X86057469Y-69561588D01*
X86005218Y-69400776D01*
X85971503Y-69334607D01*
X85912287Y-69218390D01*
X85899077Y-69200208D01*
X85791971Y-69052786D01*
X85647213Y-68908028D01*
X85481611Y-68787713D01*
X85427621Y-68760203D01*
X85376825Y-68712228D01*
X85360031Y-68644407D01*
X85382569Y-68578272D01*
X85427624Y-68539233D01*
X85481349Y-68511859D01*
X85525921Y-68479474D01*
X84846447Y-67800000D01*
X84852661Y-67800000D01*
X84954394Y-67772741D01*
X85045606Y-67720080D01*
X85120080Y-67645606D01*
X85172741Y-67554394D01*
X85200000Y-67452661D01*
X85200000Y-67446447D01*
X85879474Y-68125921D01*
X85911859Y-68081349D01*
X86004755Y-67899031D01*
X86067990Y-67704417D01*
X86100000Y-67502317D01*
X86100000Y-67297682D01*
X86067990Y-67095582D01*
X86004755Y-66900968D01*
X85911859Y-66718650D01*
X85879474Y-66674077D01*
X85879474Y-66674076D01*
X85200000Y-67353551D01*
X85200000Y-67347339D01*
X85172741Y-67245606D01*
X85120080Y-67154394D01*
X85045606Y-67079920D01*
X84954394Y-67027259D01*
X84852661Y-67000000D01*
X84846446Y-67000000D01*
X85525922Y-66320524D01*
X85525921Y-66320523D01*
X85481359Y-66288147D01*
X85481350Y-66288141D01*
X85299031Y-66195244D01*
X85104417Y-66132009D01*
X84902317Y-66100000D01*
X84697683Y-66100000D01*
X84495582Y-66132009D01*
X84300968Y-66195244D01*
X84118644Y-66288143D01*
X84074077Y-66320523D01*
X84074077Y-66320524D01*
X84753554Y-67000000D01*
X84747339Y-67000000D01*
X84645606Y-67027259D01*
X84554394Y-67079920D01*
X84479920Y-67154394D01*
X84427259Y-67245606D01*
X84400000Y-67347339D01*
X84400000Y-67353553D01*
X83720524Y-66674077D01*
X83720523Y-66674077D01*
X83688143Y-66718644D01*
X83595244Y-66900968D01*
X83532009Y-67095582D01*
X83500000Y-67297682D01*
X83500000Y-67502317D01*
X83532009Y-67704417D01*
X83595244Y-67899031D01*
X83688141Y-68081350D01*
X83688147Y-68081359D01*
X83720523Y-68125921D01*
X83720524Y-68125922D01*
X84400000Y-67446446D01*
X84400000Y-67452661D01*
X84427259Y-67554394D01*
X84479920Y-67645606D01*
X84554394Y-67720080D01*
X84645606Y-67772741D01*
X84747339Y-67800000D01*
X84753553Y-67800000D01*
X84074076Y-68479474D01*
X84118652Y-68511861D01*
X84172376Y-68539234D01*
X84223172Y-68587208D01*
X84239968Y-68655028D01*
X84217431Y-68721164D01*
X84172379Y-68760203D01*
X84118386Y-68787714D01*
X83952786Y-68908028D01*
X83808028Y-69052786D01*
X83687715Y-69218386D01*
X83594781Y-69400776D01*
X83531522Y-69595465D01*
X83499500Y-69797648D01*
X83499500Y-70002351D01*
X83531522Y-70204534D01*
X83594781Y-70399223D01*
X83687715Y-70581613D01*
X83808028Y-70747213D01*
X83952786Y-70891971D01*
X84084712Y-70987819D01*
X84118390Y-71012287D01*
X84234607Y-71071503D01*
X84300776Y-71105218D01*
X84300778Y-71105218D01*
X84300781Y-71105220D01*
X84405137Y-71139127D01*
X84495465Y-71168477D01*
X84566267Y-71179691D01*
X84697648Y-71200500D01*
X84697649Y-71200500D01*
X84902350Y-71200500D01*
X84902352Y-71200500D01*
X84986333Y-71187198D01*
X85055625Y-71196152D01*
X85109077Y-71241148D01*
X85129717Y-71307899D01*
X85110993Y-71375213D01*
X85093411Y-71397352D01*
X82091286Y-74399478D01*
X81979482Y-74511281D01*
X81979478Y-74511287D01*
X81933292Y-74591284D01*
X81900424Y-74648212D01*
X81900423Y-74648213D01*
X81882432Y-74715357D01*
X81859499Y-74800943D01*
X81859499Y-74800945D01*
X81859499Y-74969046D01*
X81859500Y-74969059D01*
X81859500Y-76214281D01*
X81839815Y-76281320D01*
X81791795Y-76324765D01*
X81752185Y-76344947D01*
X81752184Y-76344948D01*
X81580215Y-76469889D01*
X81466673Y-76583431D01*
X81405350Y-76616915D01*
X81335658Y-76611931D01*
X81279725Y-76570059D01*
X81262810Y-76539082D01*
X81213797Y-76407671D01*
X81213793Y-76407664D01*
X81127547Y-76292455D01*
X81127544Y-76292452D01*
X81012335Y-76206206D01*
X81012328Y-76206202D01*
X80877482Y-76155908D01*
X80877483Y-76155908D01*
X80817883Y-76149501D01*
X80817881Y-76149500D01*
X80817873Y-76149500D01*
X80817864Y-76149500D01*
X79022129Y-76149500D01*
X79022123Y-76149501D01*
X78962516Y-76155908D01*
X78827671Y-76206202D01*
X78827664Y-76206206D01*
X78712455Y-76292452D01*
X78712452Y-76292455D01*
X78626206Y-76407664D01*
X78626202Y-76407671D01*
X78575908Y-76542517D01*
X78569501Y-76602116D01*
X78569500Y-76602135D01*
X75921231Y-76602135D01*
X75860586Y-76541490D01*
X75688620Y-76416551D01*
X75688005Y-76416237D01*
X75679854Y-76412084D01*
X75629059Y-76364112D01*
X75612263Y-76296292D01*
X75634799Y-76230156D01*
X75679854Y-76191115D01*
X75688616Y-76186651D01*
X75730929Y-76155909D01*
X75860586Y-76061709D01*
X75860588Y-76061706D01*
X75860592Y-76061704D01*
X76010904Y-75911392D01*
X76010906Y-75911388D01*
X76010909Y-75911386D01*
X76135848Y-75739420D01*
X76135847Y-75739420D01*
X76135851Y-75739416D01*
X76232357Y-75550012D01*
X76298046Y-75347843D01*
X76331300Y-75137887D01*
X76331300Y-74925313D01*
X76298046Y-74715357D01*
X76232357Y-74513188D01*
X76135851Y-74323784D01*
X76135849Y-74323781D01*
X76135848Y-74323779D01*
X76010909Y-74151813D01*
X75897369Y-74038273D01*
X75863884Y-73976950D01*
X75868868Y-73907258D01*
X75910740Y-73851325D01*
X75941715Y-73834410D01*
X76073131Y-73785396D01*
X76188346Y-73699146D01*
X76274596Y-73583931D01*
X76324891Y-73449083D01*
X76331300Y-73389473D01*
X76331299Y-72485513D01*
X78799500Y-72485513D01*
X78799500Y-72674486D01*
X78829059Y-72861118D01*
X78887454Y-73040836D01*
X78969978Y-73202797D01*
X78973240Y-73209199D01*
X79084310Y-73362073D01*
X79217927Y-73495690D01*
X79370801Y-73606760D01*
X79396804Y-73620009D01*
X79539163Y-73692545D01*
X79539165Y-73692545D01*
X79539168Y-73692547D01*
X79635497Y-73723846D01*
X79718881Y-73750940D01*
X79905514Y-73780500D01*
X79905519Y-73780500D01*
X80094486Y-73780500D01*
X80281118Y-73750940D01*
X80330748Y-73734814D01*
X80460832Y-73692547D01*
X80629199Y-73606760D01*
X80782073Y-73495690D01*
X80915690Y-73362073D01*
X81026760Y-73209199D01*
X81112547Y-73040832D01*
X81170940Y-72861118D01*
X81181425Y-72794918D01*
X81200500Y-72674486D01*
X81200500Y-72485513D01*
X81170940Y-72298881D01*
X81137338Y-72195466D01*
X81112547Y-72119168D01*
X81112545Y-72119165D01*
X81112545Y-72119163D01*
X81026759Y-71950800D01*
X80915690Y-71797927D01*
X80782073Y-71664310D01*
X80629199Y-71553240D01*
X80591666Y-71534116D01*
X80460836Y-71467454D01*
X80281118Y-71409059D01*
X80094486Y-71379500D01*
X80094481Y-71379500D01*
X79905519Y-71379500D01*
X79905514Y-71379500D01*
X79718881Y-71409059D01*
X79539163Y-71467454D01*
X79370800Y-71553240D01*
X79283579Y-71616610D01*
X79217927Y-71664310D01*
X79217925Y-71664312D01*
X79217924Y-71664312D01*
X79084312Y-71797924D01*
X79084312Y-71797925D01*
X79084310Y-71797927D01*
X79069446Y-71818386D01*
X78973240Y-71950800D01*
X78887454Y-72119163D01*
X78829059Y-72298881D01*
X78799500Y-72485513D01*
X76331299Y-72485513D01*
X76331299Y-71593728D01*
X76324891Y-71534117D01*
X76315160Y-71508028D01*
X76274597Y-71399271D01*
X76274593Y-71399264D01*
X76188347Y-71284055D01*
X76188344Y-71284052D01*
X76073135Y-71197806D01*
X76073128Y-71197802D01*
X75938282Y-71147508D01*
X75938283Y-71147508D01*
X75878683Y-71141101D01*
X75878681Y-71141100D01*
X75878673Y-71141100D01*
X75878664Y-71141100D01*
X74082929Y-71141100D01*
X74082923Y-71141101D01*
X74023316Y-71147508D01*
X73888471Y-71197802D01*
X73888464Y-71197806D01*
X73773255Y-71284052D01*
X73773252Y-71284055D01*
X73687006Y-71399264D01*
X73687002Y-71399271D01*
X73636708Y-71534117D01*
X73630301Y-71593716D01*
X73630301Y-71593723D01*
X73630300Y-71593735D01*
X68000500Y-71593735D01*
X68000500Y-66602135D01*
X73649500Y-66602135D01*
X73649500Y-68397870D01*
X73649501Y-68397876D01*
X73655908Y-68457483D01*
X73706202Y-68592328D01*
X73706206Y-68592335D01*
X73792452Y-68707544D01*
X73792455Y-68707547D01*
X73907664Y-68793793D01*
X73907671Y-68793797D01*
X74042517Y-68844091D01*
X74042516Y-68844091D01*
X74049444Y-68844835D01*
X74102127Y-68850500D01*
X75897872Y-68850499D01*
X75957483Y-68844091D01*
X76092331Y-68793796D01*
X76207546Y-68707546D01*
X76293796Y-68592331D01*
X76344091Y-68457483D01*
X76350500Y-68397873D01*
X76350499Y-67405513D01*
X78799500Y-67405513D01*
X78799500Y-67594486D01*
X78829059Y-67781118D01*
X78887454Y-67960836D01*
X78967381Y-68117700D01*
X78973240Y-68129199D01*
X79084310Y-68282073D01*
X79217927Y-68415690D01*
X79370801Y-68526760D01*
X79395281Y-68539233D01*
X79539163Y-68612545D01*
X79539165Y-68612545D01*
X79539168Y-68612547D01*
X79597570Y-68631523D01*
X79718881Y-68670940D01*
X79905514Y-68700500D01*
X79905519Y-68700500D01*
X80094486Y-68700500D01*
X80281118Y-68670940D01*
X80305379Y-68663057D01*
X80460832Y-68612547D01*
X80629199Y-68526760D01*
X80782073Y-68415690D01*
X80915690Y-68282073D01*
X81026760Y-68129199D01*
X81112547Y-67960832D01*
X81170940Y-67781118D01*
X81175306Y-67753553D01*
X81200500Y-67594486D01*
X81200500Y-67405513D01*
X81185723Y-67312214D01*
X81177476Y-67260152D01*
X81170940Y-67218882D01*
X81112547Y-67039168D01*
X81112545Y-67039165D01*
X81112545Y-67039163D01*
X81026759Y-66870800D01*
X80915690Y-66717927D01*
X80782073Y-66584310D01*
X80629199Y-66473240D01*
X80571052Y-66443612D01*
X80460836Y-66387454D01*
X80281118Y-66329059D01*
X80094486Y-66299500D01*
X80094481Y-66299500D01*
X79905519Y-66299500D01*
X79905514Y-66299500D01*
X79718881Y-66329059D01*
X79539163Y-66387454D01*
X79370800Y-66473240D01*
X79308619Y-66518418D01*
X79217927Y-66584310D01*
X79217925Y-66584312D01*
X79217924Y-66584312D01*
X79084312Y-66717924D01*
X79084312Y-66717925D01*
X79084310Y-66717927D01*
X79083785Y-66718650D01*
X78973240Y-66870800D01*
X78887454Y-67039163D01*
X78829059Y-67218881D01*
X78799500Y-67405513D01*
X76350499Y-67405513D01*
X76350499Y-66602128D01*
X76344623Y-66547463D01*
X76344091Y-66542516D01*
X76293797Y-66407671D01*
X76293793Y-66407664D01*
X76207547Y-66292455D01*
X76207544Y-66292452D01*
X76092335Y-66206206D01*
X76092328Y-66206202D01*
X75957482Y-66155908D01*
X75957483Y-66155908D01*
X75897883Y-66149501D01*
X75897881Y-66149500D01*
X75897873Y-66149500D01*
X75897864Y-66149500D01*
X74102129Y-66149500D01*
X74102123Y-66149501D01*
X74042516Y-66155908D01*
X73907671Y-66206202D01*
X73907664Y-66206206D01*
X73792455Y-66292452D01*
X73792452Y-66292455D01*
X73706206Y-66407664D01*
X73706202Y-66407671D01*
X73655908Y-66542517D01*
X73651415Y-66584312D01*
X73649501Y-66602123D01*
X73649500Y-66602135D01*
X68000500Y-66602135D01*
X68000500Y-60624500D01*
X68020185Y-60557461D01*
X68072989Y-60511706D01*
X68124500Y-60500500D01*
X116875500Y-60500500D01*
X116942539Y-60520185D01*
G37*
G04 #@! TD.AperFunction*
G04 #@! TD*
M02*
