G04 #@! TF.GenerationSoftware,KiCad,Pcbnew,9.0.2*
G04 #@! TF.CreationDate,2025-07-03T21:31:51+02:00*
G04 #@! TF.ProjectId,clock divider,636c6f63-6b20-4646-9976-696465722e6b,rev?*
G04 #@! TF.SameCoordinates,Original*
G04 #@! TF.FileFunction,Legend,Top*
G04 #@! TF.FilePolarity,Positive*
%FSLAX46Y46*%
G04 Gerber Fmt 4.6, Leading zero omitted, Abs format (unit mm)*
G04 Created by KiCad (PCBNEW 9.0.2) date 2025-07-03 21:31:51*
%MOMM*%
%LPD*%
G01*
G04 APERTURE LIST*
%ADD10C,0.100000*%
%ADD11C,0.300000*%
%ADD12C,0.150000*%
%ADD13C,0.120000*%
G04 APERTURE END LIST*
D10*
G36*
X187003971Y-68877448D02*
G01*
X187112812Y-68891547D01*
X187194734Y-68917128D01*
X187262028Y-68956304D01*
X187292577Y-68982595D01*
X187321127Y-69013886D01*
X187355120Y-69065949D01*
X187383014Y-69139235D01*
X187392110Y-69210044D01*
X187389541Y-69264276D01*
X187372570Y-69347938D01*
X187341604Y-69413573D01*
X187320951Y-69440834D01*
X187296947Y-69464443D01*
X187268540Y-69485130D01*
X187236678Y-69501937D01*
X187198777Y-69515681D01*
X187157102Y-69525041D01*
X187187419Y-69572652D01*
X187304555Y-69753251D01*
X187367304Y-69838740D01*
X187374676Y-69845578D01*
X187407463Y-69873074D01*
X187445080Y-69890947D01*
X187394628Y-70005512D01*
X187379373Y-70002346D01*
X187348241Y-69991046D01*
X187319352Y-69974605D01*
X187292421Y-69953318D01*
X187269912Y-69929415D01*
X187201075Y-69841037D01*
X187125750Y-69728510D01*
X187005959Y-69533201D01*
X187004145Y-69530155D01*
X186820051Y-69503461D01*
X186811041Y-69501914D01*
X186811880Y-69986660D01*
X186676860Y-69986660D01*
X186676860Y-69036097D01*
X186675983Y-69005414D01*
X186809285Y-69005414D01*
X186811041Y-69372008D01*
X186878233Y-69385381D01*
X186947680Y-69398959D01*
X187033225Y-69407117D01*
X187075052Y-69404522D01*
X187134241Y-69394325D01*
X187189769Y-69374438D01*
X187226134Y-69345176D01*
X187239806Y-69324533D01*
X187249954Y-69299408D01*
X187257180Y-69264381D01*
X187259608Y-69221951D01*
X187258595Y-69199918D01*
X187244655Y-69144127D01*
X187230545Y-69117519D01*
X187210912Y-69091510D01*
X187195251Y-69075425D01*
X187170191Y-69056327D01*
X187140738Y-69040662D01*
X187099724Y-69026269D01*
X187051096Y-69015874D01*
X186966910Y-69007141D01*
X186863171Y-69004498D01*
X186809285Y-69005414D01*
X186675983Y-69005414D01*
X186672585Y-68886575D01*
X186677809Y-68886085D01*
X186741414Y-68880379D01*
X186858897Y-68873752D01*
X187003971Y-68877448D01*
G37*
G36*
X187974698Y-69114441D02*
G01*
X188018267Y-69120293D01*
X188057717Y-69130424D01*
X188094985Y-69145243D01*
X188128155Y-69163856D01*
X188160341Y-69188271D01*
X188188121Y-69216084D01*
X188215577Y-69252248D01*
X188237896Y-69291149D01*
X188259838Y-69343385D01*
X188275257Y-69396145D01*
X188290081Y-69485600D01*
X188293595Y-69556258D01*
X188292755Y-69592971D01*
X188048447Y-69608239D01*
X187706572Y-69621135D01*
X187710951Y-69675228D01*
X187730693Y-69740631D01*
X187764442Y-69792759D01*
X187811793Y-69831867D01*
X187841046Y-69846430D01*
X187874193Y-69857289D01*
X187912133Y-69864214D01*
X187954326Y-69866599D01*
X187971881Y-69866120D01*
X188012511Y-69861085D01*
X188048845Y-69851344D01*
X188086878Y-69834854D01*
X188119155Y-69814683D01*
X188155722Y-69782785D01*
X188181625Y-69751653D01*
X188286725Y-69845839D01*
X188284420Y-69848390D01*
X188258336Y-69875990D01*
X188199280Y-69924876D01*
X188128147Y-69963528D01*
X188045634Y-69988416D01*
X187950891Y-69997269D01*
X187935476Y-69997042D01*
X187845099Y-69985277D01*
X187805132Y-69973090D01*
X187768351Y-69956894D01*
X187734306Y-69936537D01*
X187703518Y-69912374D01*
X187675000Y-69883440D01*
X187649970Y-69850753D01*
X187627305Y-69812336D01*
X187608513Y-69770135D01*
X187592745Y-69721261D01*
X187581343Y-69668582D01*
X187573997Y-69608704D01*
X187571552Y-69545115D01*
X187571996Y-69520199D01*
X187575597Y-69490465D01*
X187706572Y-69490465D01*
X187958726Y-69482656D01*
X188157735Y-69468178D01*
X188156741Y-69459272D01*
X188138156Y-69383994D01*
X188104889Y-69323926D01*
X188059646Y-69279877D01*
X188004438Y-69252522D01*
X187973484Y-69245426D01*
X187940664Y-69243017D01*
X187908855Y-69244938D01*
X187874886Y-69251644D01*
X187843689Y-69262793D01*
X187814317Y-69278687D01*
X187788195Y-69298542D01*
X187764547Y-69323014D01*
X187744725Y-69350841D01*
X187728481Y-69382455D01*
X187716601Y-69416574D01*
X187709228Y-69452794D01*
X187706572Y-69490465D01*
X187575597Y-69490465D01*
X187584803Y-69414444D01*
X187613327Y-69324287D01*
X187655166Y-69250283D01*
X187708744Y-69192106D01*
X187773582Y-69149413D01*
X187810400Y-69133936D01*
X187850215Y-69122582D01*
X187893506Y-69115515D01*
X187939824Y-69113110D01*
X187974698Y-69114441D01*
G37*
G36*
X188638817Y-69500311D02*
G01*
X188719416Y-69533446D01*
X188797103Y-69558719D01*
X188895746Y-69591576D01*
X188937174Y-69608825D01*
X188969460Y-69627165D01*
X189016858Y-69668332D01*
X189031856Y-69690297D01*
X189040631Y-69715833D01*
X189042962Y-69741272D01*
X189040590Y-69765233D01*
X189033756Y-69786883D01*
X189007475Y-69824197D01*
X188963330Y-69854112D01*
X188899778Y-69874266D01*
X188836195Y-69880033D01*
X188793312Y-69877603D01*
X188756147Y-69870367D01*
X188727545Y-69859838D01*
X188703350Y-69845554D01*
X188684546Y-69828761D01*
X188669470Y-69808747D01*
X188650033Y-69758569D01*
X188644770Y-69704636D01*
X188510665Y-69703796D01*
X188513108Y-69749627D01*
X188520435Y-69792251D01*
X188531765Y-69829197D01*
X188547403Y-69863001D01*
X188566343Y-69892187D01*
X188589205Y-69918242D01*
X188615439Y-69940626D01*
X188645445Y-69959745D01*
X188717607Y-69987909D01*
X188808398Y-70001381D01*
X188838790Y-70002154D01*
X188948593Y-69992724D01*
X188986557Y-69985133D01*
X189021459Y-69973392D01*
X189055674Y-69956370D01*
X189085859Y-69935657D01*
X189113308Y-69910215D01*
X189134838Y-69883197D01*
X189152555Y-69852244D01*
X189164789Y-69820421D01*
X189172617Y-69785226D01*
X189175464Y-69745470D01*
X189173068Y-69703670D01*
X189166068Y-69666473D01*
X189155212Y-69634559D01*
X189140583Y-69606173D01*
X189099877Y-69557460D01*
X189040161Y-69515114D01*
X188950610Y-69473825D01*
X188859947Y-69440816D01*
X188725141Y-69390478D01*
X188700976Y-69376673D01*
X188684444Y-69358872D01*
X188674079Y-69322671D01*
X188673850Y-69314763D01*
X188676225Y-69298560D01*
X188683075Y-69284285D01*
X188710219Y-69260405D01*
X188760382Y-69242400D01*
X188840470Y-69234697D01*
X188911412Y-69243950D01*
X188951840Y-69256386D01*
X188990286Y-69273360D01*
X189022898Y-69293117D01*
X189050001Y-69316011D01*
X189056625Y-69323235D01*
X189153177Y-69228744D01*
X189106858Y-69186081D01*
X189039824Y-69149522D01*
X188951665Y-69122036D01*
X188850519Y-69108712D01*
X188828487Y-69108225D01*
X188777885Y-69110701D01*
X188729280Y-69118264D01*
X188687497Y-69129820D01*
X188649202Y-69145962D01*
X188618840Y-69164254D01*
X188592514Y-69186388D01*
X188572840Y-69209589D01*
X188557334Y-69236045D01*
X188546995Y-69263793D01*
X188541040Y-69294518D01*
X188539669Y-69318121D01*
X188542031Y-69354838D01*
X188548794Y-69387586D01*
X188559555Y-69416672D01*
X188573792Y-69441997D01*
X188612465Y-69483264D01*
X188638817Y-69500311D01*
G37*
G36*
X189784537Y-69114441D02*
G01*
X189828107Y-69120293D01*
X189867557Y-69130424D01*
X189904825Y-69145243D01*
X189937994Y-69163856D01*
X189970181Y-69188271D01*
X189997960Y-69216084D01*
X190025417Y-69252248D01*
X190047735Y-69291149D01*
X190069677Y-69343385D01*
X190085096Y-69396145D01*
X190099921Y-69485600D01*
X190103434Y-69556258D01*
X190102595Y-69592971D01*
X189858287Y-69608239D01*
X189516412Y-69621135D01*
X189520791Y-69675228D01*
X189540533Y-69740631D01*
X189574282Y-69792759D01*
X189621632Y-69831867D01*
X189650886Y-69846430D01*
X189684033Y-69857289D01*
X189721972Y-69864214D01*
X189764166Y-69866599D01*
X189781721Y-69866120D01*
X189822350Y-69861085D01*
X189858684Y-69851344D01*
X189896718Y-69834854D01*
X189928995Y-69814683D01*
X189965561Y-69782785D01*
X189991464Y-69751653D01*
X190096565Y-69845839D01*
X190094259Y-69848390D01*
X190068175Y-69875990D01*
X190009119Y-69924876D01*
X189937986Y-69963528D01*
X189855473Y-69988416D01*
X189760731Y-69997269D01*
X189745315Y-69997042D01*
X189654939Y-69985277D01*
X189614972Y-69973090D01*
X189578191Y-69956894D01*
X189544146Y-69936537D01*
X189513358Y-69912374D01*
X189484839Y-69883440D01*
X189459810Y-69850753D01*
X189437145Y-69812336D01*
X189418353Y-69770135D01*
X189402584Y-69721261D01*
X189391183Y-69668582D01*
X189383836Y-69608704D01*
X189381391Y-69545115D01*
X189381835Y-69520199D01*
X189385436Y-69490465D01*
X189516412Y-69490465D01*
X189768565Y-69482656D01*
X189967574Y-69468178D01*
X189966581Y-69459272D01*
X189947995Y-69383994D01*
X189914728Y-69323926D01*
X189869486Y-69279877D01*
X189814278Y-69252522D01*
X189783324Y-69245426D01*
X189750503Y-69243017D01*
X189718695Y-69244938D01*
X189684726Y-69251644D01*
X189653528Y-69262793D01*
X189624156Y-69278687D01*
X189598034Y-69298542D01*
X189574387Y-69323014D01*
X189554565Y-69350841D01*
X189538321Y-69382455D01*
X189526441Y-69416574D01*
X189519068Y-69452794D01*
X189516412Y-69490465D01*
X189385436Y-69490465D01*
X189394643Y-69414444D01*
X189423166Y-69324287D01*
X189465006Y-69250283D01*
X189518583Y-69192106D01*
X189583422Y-69149413D01*
X189620239Y-69133936D01*
X189660055Y-69122582D01*
X189703346Y-69115515D01*
X189749664Y-69113110D01*
X189784537Y-69114441D01*
G37*
G36*
X190526432Y-69613808D02*
G01*
X190529685Y-69504500D01*
X190538339Y-69244467D01*
X190640081Y-69241948D01*
X190910962Y-69241948D01*
X190910962Y-69116316D01*
X190895544Y-69116316D01*
X190640081Y-69117995D01*
X190535820Y-69117995D01*
X190537500Y-68923211D01*
X190402479Y-68922372D01*
X190401639Y-69122269D01*
X190388817Y-69122269D01*
X190342372Y-69124530D01*
X190301653Y-69132573D01*
X190318750Y-69257290D01*
X190388817Y-69247902D01*
X190400800Y-69247902D01*
X190395191Y-69452890D01*
X190390572Y-69613808D01*
X190390572Y-69650521D01*
X190395784Y-69753082D01*
X190405415Y-69800780D01*
X190422498Y-69846908D01*
X190423850Y-69849731D01*
X190442692Y-69883423D01*
X190464031Y-69911434D01*
X190486816Y-69933373D01*
X190511976Y-69951033D01*
X190572006Y-69975975D01*
X190653912Y-69989374D01*
X190746022Y-69992384D01*
X190813570Y-69989461D01*
X190873861Y-69978764D01*
X190929738Y-69955672D01*
X190986053Y-69913220D01*
X191025028Y-69864083D01*
X191048560Y-69813265D01*
X191051405Y-69804908D01*
X191053615Y-69798440D01*
X190945996Y-69750584D01*
X190945095Y-69753027D01*
X190925443Y-69793825D01*
X190905396Y-69818148D01*
X190875928Y-69839427D01*
X190834974Y-69852099D01*
X190744266Y-69859959D01*
X190651988Y-69857440D01*
X190625651Y-69852408D01*
X190602895Y-69843132D01*
X190567935Y-69813752D01*
X190543321Y-69768079D01*
X190528984Y-69700760D01*
X190526432Y-69648002D01*
X190526432Y-69613808D01*
G37*
G36*
X218778089Y-74690475D02*
G01*
X218819650Y-74702644D01*
X218857576Y-74719960D01*
X218894537Y-74743947D01*
X218927629Y-74773008D01*
X218960522Y-74811267D01*
X218988988Y-74854709D01*
X219017021Y-74911212D01*
X219039767Y-74972821D01*
X219060765Y-75052416D01*
X219075404Y-75135997D01*
X219085820Y-75242292D01*
X219088982Y-75348233D01*
X219084531Y-75489293D01*
X219064824Y-75651661D01*
X219031779Y-75779292D01*
X218987855Y-75876705D01*
X218934434Y-75948865D01*
X218871256Y-75999768D01*
X218835503Y-76017916D01*
X218796191Y-76031331D01*
X218752810Y-76039713D01*
X218705491Y-76042585D01*
X218626815Y-76034452D01*
X218584747Y-76022187D01*
X218546360Y-76004816D01*
X218509167Y-75980953D01*
X218475860Y-75952078D01*
X218442988Y-75914372D01*
X218414519Y-75871551D01*
X218386723Y-75816356D01*
X218364129Y-75756066D01*
X218349322Y-75700767D01*
X218521942Y-75700767D01*
X218527095Y-75718768D01*
X218557687Y-75795120D01*
X218594988Y-75844793D01*
X218642246Y-75874787D01*
X218671686Y-75882941D01*
X218705491Y-75885781D01*
X218731360Y-75884032D01*
X218762305Y-75876627D01*
X218789871Y-75863839D01*
X218817350Y-75843343D01*
X218840998Y-75817149D01*
X218865480Y-75777663D01*
X218885036Y-75731695D01*
X218909424Y-75637528D01*
X218922977Y-75534102D01*
X218930072Y-75328724D01*
X218923844Y-75185842D01*
X218521942Y-75700767D01*
X218349322Y-75700767D01*
X218343515Y-75679081D01*
X218329082Y-75597832D01*
X218318980Y-75496197D01*
X218316424Y-75411980D01*
X218474773Y-75411980D01*
X218479364Y-75495466D01*
X218487046Y-75558893D01*
X218885925Y-75047173D01*
X218876035Y-75016056D01*
X218842160Y-74932848D01*
X218805169Y-74880885D01*
X218760872Y-74850491D01*
X218734038Y-74842371D01*
X218703384Y-74839536D01*
X218693534Y-74839817D01*
X218662882Y-74844632D01*
X218635192Y-74855058D01*
X218607158Y-74873110D01*
X218582536Y-74897115D01*
X218556520Y-74933962D01*
X218534972Y-74977572D01*
X218512488Y-75044036D01*
X218496268Y-75117211D01*
X218478925Y-75269048D01*
X218474773Y-75411980D01*
X218316424Y-75411980D01*
X218315862Y-75393479D01*
X218321141Y-75253490D01*
X218343299Y-75088327D01*
X218379277Y-74955470D01*
X218425794Y-74853459D01*
X218480822Y-74778264D01*
X218544004Y-74725874D01*
X218616826Y-74693894D01*
X218657932Y-74685513D01*
X218702377Y-74682641D01*
X218778089Y-74690475D01*
G37*
G36*
X218708513Y-77208503D02*
G01*
X218703505Y-77217319D01*
X218672485Y-77269163D01*
X218604643Y-77355849D01*
X218553182Y-77408760D01*
X218488039Y-77466184D01*
X218407720Y-77526721D01*
X218310733Y-77588972D01*
X218414231Y-77744310D01*
X218589959Y-77608943D01*
X218667117Y-77541312D01*
X218730042Y-77476214D01*
X218741394Y-77462485D01*
X218743409Y-78556723D01*
X218911571Y-78556723D01*
X218911571Y-77220867D01*
X218708513Y-77208503D01*
G37*
G36*
X218508570Y-80188748D02*
G01*
X218500418Y-80160309D01*
X218495289Y-80124176D01*
X218498175Y-80074625D01*
X218506649Y-80031276D01*
X218519349Y-79996309D01*
X218536451Y-79966480D01*
X218556899Y-79942474D01*
X218581035Y-79923021D01*
X218640900Y-79896986D01*
X218713642Y-79888512D01*
X218753183Y-79891358D01*
X218788054Y-79899556D01*
X218818088Y-79912414D01*
X218843890Y-79929506D01*
X218884580Y-79976258D01*
X218910743Y-80040358D01*
X218919814Y-80118039D01*
X218908379Y-80179966D01*
X218868762Y-80260728D01*
X218837918Y-80303199D01*
X218800504Y-80344057D01*
X218795708Y-80348666D01*
X218660341Y-80463568D01*
X218504540Y-80594588D01*
X218451693Y-80647929D01*
X218409560Y-80699157D01*
X218379437Y-80744950D01*
X218356437Y-80790483D01*
X218328135Y-80884565D01*
X218321999Y-80967638D01*
X218323043Y-81018666D01*
X218324014Y-81065000D01*
X219102263Y-81065000D01*
X219102263Y-80906089D01*
X218502433Y-80908196D01*
X218518805Y-80849107D01*
X218539799Y-80809182D01*
X218570591Y-80765742D01*
X218606023Y-80726754D01*
X218771671Y-80580262D01*
X218919814Y-80449050D01*
X218972767Y-80387759D01*
X219020385Y-80319100D01*
X219047540Y-80267768D01*
X219068036Y-80213643D01*
X219078703Y-80167344D01*
X219082826Y-80119531D01*
X219082846Y-80116024D01*
X219079927Y-80050553D01*
X219071222Y-79991427D01*
X219058092Y-79942334D01*
X219040141Y-79898512D01*
X219018812Y-79861898D01*
X218993284Y-79829858D01*
X218931305Y-79780121D01*
X218851844Y-79746685D01*
X218750159Y-79729931D01*
X218705491Y-79728503D01*
X218653383Y-79731413D01*
X218603346Y-79740064D01*
X218556688Y-79754045D01*
X218513054Y-79773340D01*
X218474133Y-79796999D01*
X218438990Y-79825434D01*
X218409117Y-79857271D01*
X218383596Y-79893354D01*
X218363392Y-79932323D01*
X218348050Y-79975112D01*
X218338073Y-80020818D01*
X218333520Y-80070050D01*
X218333265Y-80085250D01*
X218333746Y-80097330D01*
X218334272Y-80110895D01*
X218348463Y-80202483D01*
X218354788Y-80225659D01*
X218508570Y-80188748D01*
G37*
G36*
X218279959Y-83242449D02*
G01*
X218282861Y-83291911D01*
X218291456Y-83339008D01*
X218305367Y-83382883D01*
X218324501Y-83423817D01*
X218348379Y-83461064D01*
X218377040Y-83494828D01*
X218410041Y-83524580D01*
X218447439Y-83550307D01*
X218488994Y-83571675D01*
X218534622Y-83588445D01*
X218584366Y-83600357D01*
X218637906Y-83607040D01*
X218677830Y-83608447D01*
X218744193Y-83605561D01*
X218802847Y-83597085D01*
X218851692Y-83584228D01*
X218894933Y-83566878D01*
X218966190Y-83520302D01*
X219003894Y-83482326D01*
X219052159Y-83408814D01*
X219086629Y-83317016D01*
X219101941Y-83216355D01*
X219102263Y-83200409D01*
X219099248Y-83136296D01*
X219089862Y-83076030D01*
X219075951Y-83026412D01*
X219056382Y-82980086D01*
X219033057Y-82940463D01*
X219004370Y-82903878D01*
X218971360Y-82871572D01*
X218932868Y-82842309D01*
X218875667Y-82809681D01*
X218931759Y-82772013D01*
X218976635Y-82714199D01*
X219007860Y-82635842D01*
X219021133Y-82538551D01*
X219021297Y-82525840D01*
X219018433Y-82482951D01*
X219010114Y-82443988D01*
X218996833Y-82409045D01*
X218978958Y-82377806D01*
X218929233Y-82324644D01*
X218860024Y-82283848D01*
X218769966Y-82257234D01*
X218669587Y-82248503D01*
X218658321Y-82248503D01*
X218563887Y-82259186D01*
X218482215Y-82289307D01*
X218412316Y-82336637D01*
X218355580Y-82397732D01*
X218318912Y-82458290D01*
X218314763Y-82468230D01*
X218460393Y-82549562D01*
X218478029Y-82518120D01*
X218508487Y-82477910D01*
X218553488Y-82439135D01*
X218581979Y-82423475D01*
X218614752Y-82412001D01*
X218668579Y-82405398D01*
X218712880Y-82408296D01*
X218753728Y-82416858D01*
X218787869Y-82429939D01*
X218816616Y-82447713D01*
X218836542Y-82467086D01*
X218850660Y-82489846D01*
X218859272Y-82530969D01*
X218856347Y-82573839D01*
X218847599Y-82610066D01*
X218834956Y-82637317D01*
X218817762Y-82660441D01*
X218769349Y-82696692D01*
X218729030Y-82714152D01*
X218630511Y-82737240D01*
X218564990Y-82740896D01*
X218548595Y-82740896D01*
X218548595Y-82902921D01*
X218610149Y-82903739D01*
X218672552Y-82909470D01*
X218737068Y-82925023D01*
X218804959Y-82955311D01*
X218842057Y-82979279D01*
X218872318Y-83006038D01*
X218894971Y-83033890D01*
X218912408Y-83064478D01*
X218933551Y-83136321D01*
X218938224Y-83202424D01*
X218935327Y-83246059D01*
X218926777Y-83286104D01*
X218913375Y-83321094D01*
X218895097Y-83352326D01*
X218872662Y-83379061D01*
X218845907Y-83401803D01*
X218779856Y-83434624D01*
X218696152Y-83449119D01*
X218677830Y-83449536D01*
X218632709Y-83446674D01*
X218592083Y-83438358D01*
X218556761Y-83425322D01*
X218525963Y-83407833D01*
X218500024Y-83386500D01*
X218478730Y-83361548D01*
X218450305Y-83301649D01*
X218441983Y-83241350D01*
X218279959Y-83242449D01*
G37*
G36*
X218980264Y-85518817D02*
G01*
X219111514Y-85518817D01*
X219111514Y-85676811D01*
X218980264Y-85676811D01*
X218980264Y-86105000D01*
X218820346Y-86105000D01*
X218820346Y-85679834D01*
X218341416Y-85679834D01*
X218279959Y-85546569D01*
X218302141Y-85518817D01*
X218494282Y-85518817D01*
X218820346Y-85518817D01*
X218820346Y-85090720D01*
X218793337Y-85135500D01*
X218718186Y-85245470D01*
X218632081Y-85358466D01*
X218494282Y-85518817D01*
X218302141Y-85518817D01*
X218320583Y-85495743D01*
X218411428Y-85382599D01*
X218608484Y-85124587D01*
X218733297Y-84940543D01*
X218793839Y-84828975D01*
X218813110Y-84768503D01*
X218980264Y-84768503D01*
X218980264Y-85518817D01*
G37*
G36*
X218697247Y-87874685D02*
G01*
X218743977Y-87878140D01*
X218794265Y-87890598D01*
X218820346Y-87901338D01*
X218853490Y-87919984D01*
X218882645Y-87944183D01*
X218904622Y-87970628D01*
X218922849Y-88002423D01*
X218946429Y-88081728D01*
X218952603Y-88164296D01*
X218949694Y-88220069D01*
X218941055Y-88270483D01*
X218927934Y-88312590D01*
X218910042Y-88349807D01*
X218888815Y-88380420D01*
X218863502Y-88406467D01*
X218802563Y-88443852D01*
X218725583Y-88462926D01*
X218684974Y-88465081D01*
X218648611Y-88462248D01*
X218615176Y-88454140D01*
X218553569Y-88422518D01*
X218496215Y-88368726D01*
X218445006Y-88296279D01*
X218308627Y-88386313D01*
X218344307Y-88439703D01*
X218386893Y-88490588D01*
X218427660Y-88529276D01*
X218473384Y-88563219D01*
X218516900Y-88587652D01*
X218564225Y-88606653D01*
X218610253Y-88618407D01*
X218659468Y-88624374D01*
X218681860Y-88625000D01*
X218683967Y-88625000D01*
X218741859Y-88621593D01*
X218797002Y-88612340D01*
X218846856Y-88598003D01*
X218893511Y-88578301D01*
X218934924Y-88554377D01*
X218972800Y-88525516D01*
X219005855Y-88492831D01*
X219035047Y-88455503D01*
X219059778Y-88414165D01*
X219080241Y-88368310D01*
X219096215Y-88317802D01*
X219107385Y-88262749D01*
X219114628Y-88162190D01*
X219103610Y-88052482D01*
X219071974Y-87954432D01*
X219021716Y-87869237D01*
X218955545Y-87799634D01*
X218892062Y-87756808D01*
X218803136Y-87725233D01*
X218708438Y-87712956D01*
X218694225Y-87712752D01*
X218609128Y-87723093D01*
X218529125Y-87752884D01*
X218501426Y-87768073D01*
X218524965Y-87466098D01*
X218994644Y-87466098D01*
X218994644Y-87308195D01*
X218380434Y-87306088D01*
X218333265Y-87930006D01*
X218462500Y-87985236D01*
X218465912Y-87981759D01*
X218493971Y-87955004D01*
X218542646Y-87919311D01*
X218610787Y-87888074D01*
X218651799Y-87878312D01*
X218697247Y-87874685D01*
G37*
G36*
X218992537Y-89959536D02*
G01*
X218959657Y-89963282D01*
X218835230Y-89991613D01*
X218727508Y-90038666D01*
X218639183Y-90100957D01*
X218571536Y-90175286D01*
X218524965Y-90259314D01*
X218495781Y-90354443D01*
X218478894Y-90447991D01*
X218485928Y-90441972D01*
X218496641Y-90432826D01*
X218555199Y-90390930D01*
X218587659Y-90375979D01*
X218626975Y-90364252D01*
X218676062Y-90356443D01*
X218736265Y-90353653D01*
X218781332Y-90355893D01*
X218829841Y-90363696D01*
X218875408Y-90376847D01*
X218917940Y-90395158D01*
X218957056Y-90418337D01*
X218992771Y-90446342D01*
X219024558Y-90478762D01*
X219052420Y-90515690D01*
X219075802Y-90556576D01*
X219094609Y-90601556D01*
X219108367Y-90650010D01*
X219116868Y-90701993D01*
X219119757Y-90756928D01*
X219117248Y-90810711D01*
X219096801Y-90909115D01*
X219079360Y-90951801D01*
X219057445Y-90990201D01*
X219030535Y-91025237D01*
X218999442Y-91055853D01*
X218962444Y-91083394D01*
X218921423Y-91106142D01*
X218873422Y-91125251D01*
X218821570Y-91139015D01*
X218762205Y-91147915D01*
X218699354Y-91150861D01*
X218615416Y-91142956D01*
X218570201Y-91131066D01*
X218528419Y-91114097D01*
X218489102Y-91091638D01*
X218453415Y-91064319D01*
X218419829Y-91030649D01*
X218390263Y-90992179D01*
X218363190Y-90946230D01*
X218340698Y-90895510D01*
X218321765Y-90836548D01*
X218308062Y-90772983D01*
X218299282Y-90701361D01*
X218299090Y-90696386D01*
X218468636Y-90696386D01*
X218469837Y-90729487D01*
X218487705Y-90822085D01*
X218523457Y-90896290D01*
X218572545Y-90949991D01*
X218631682Y-90982765D01*
X218664468Y-90991180D01*
X218699354Y-90994057D01*
X218717842Y-90993635D01*
X218801165Y-90979456D01*
X218866523Y-90947859D01*
X218914634Y-90900862D01*
X218932342Y-90871438D01*
X218945484Y-90837984D01*
X218953854Y-90799568D01*
X218956725Y-90756928D01*
X218956688Y-90751964D01*
X218944540Y-90671062D01*
X218913090Y-90604902D01*
X218865398Y-90555370D01*
X218836090Y-90537275D01*
X218803194Y-90523875D01*
X218766739Y-90515523D01*
X218727015Y-90512655D01*
X218689145Y-90515160D01*
X218646840Y-90524103D01*
X218607772Y-90538679D01*
X218570725Y-90559098D01*
X218538380Y-90583716D01*
X218490719Y-90640336D01*
X218468636Y-90696386D01*
X218299090Y-90696386D01*
X218296353Y-90625587D01*
X218303682Y-90490645D01*
X218330426Y-90336986D01*
X218375305Y-90195658D01*
X218414602Y-90115576D01*
X218446615Y-90067612D01*
X218483375Y-90023276D01*
X218525829Y-89981636D01*
X218572875Y-89943975D01*
X218626002Y-89909381D01*
X218683575Y-89879195D01*
X218747431Y-89852752D01*
X218815538Y-89831198D01*
X218889780Y-89814228D01*
X218967991Y-89802641D01*
X218992537Y-89959536D01*
G37*
G36*
X218354788Y-92339952D02*
G01*
X218312091Y-92450271D01*
X218272723Y-92553267D01*
X218411209Y-92615732D01*
X218414718Y-92604045D01*
X218432210Y-92548766D01*
X218454256Y-92496847D01*
X218489632Y-92498606D01*
X218671602Y-92505090D01*
X218803951Y-92505090D01*
X219006917Y-92502984D01*
X219003895Y-92507622D01*
X218810999Y-92810279D01*
X218728756Y-92951980D01*
X218658029Y-93090623D01*
X218600350Y-93228727D01*
X218557252Y-93368811D01*
X218530270Y-93513395D01*
X218520935Y-93665000D01*
X218690103Y-93665000D01*
X218692987Y-93578365D01*
X218701449Y-93496908D01*
X218734062Y-93345571D01*
X218789168Y-93195968D01*
X218874962Y-93026690D01*
X219000544Y-92815141D01*
X219107922Y-92636595D01*
X219224354Y-92430260D01*
X219177185Y-92346088D01*
X219135144Y-92346088D01*
X218630661Y-92346088D01*
X218498465Y-92343118D01*
X218354788Y-92339952D01*
G37*
G36*
X218792939Y-94869518D02*
G01*
X218838881Y-94881872D01*
X218880526Y-94898939D01*
X218917921Y-94920479D01*
X218950796Y-94946091D01*
X218979448Y-94975907D01*
X219003244Y-95009213D01*
X219022453Y-95046508D01*
X219036377Y-95086700D01*
X219045038Y-95130392D01*
X219047950Y-95176307D01*
X219036231Y-95246725D01*
X219019598Y-95286709D01*
X218997074Y-95324313D01*
X218938021Y-95389065D01*
X218873652Y-95429923D01*
X218961966Y-95484432D01*
X219035604Y-95553209D01*
X219088888Y-95629877D01*
X219121080Y-95712008D01*
X219132030Y-95799584D01*
X219127473Y-95863492D01*
X219102498Y-95956024D01*
X219057301Y-96036385D01*
X219027582Y-96071447D01*
X218993326Y-96102774D01*
X218954613Y-96130146D01*
X218911692Y-96153207D01*
X218864478Y-96171760D01*
X218813365Y-96185387D01*
X218758154Y-96193841D01*
X218699354Y-96196723D01*
X218626635Y-96192270D01*
X218572850Y-96182619D01*
X218522804Y-96167860D01*
X218476834Y-96148357D01*
X218434923Y-96124342D01*
X218397242Y-96096092D01*
X218363968Y-96063888D01*
X218335164Y-96027850D01*
X218311155Y-95988387D01*
X218291998Y-95945462D01*
X218278064Y-95899637D01*
X218269486Y-95850790D01*
X218267167Y-95809842D01*
X218429618Y-95809842D01*
X218429706Y-95816867D01*
X218442299Y-95889180D01*
X218474959Y-95948498D01*
X218498953Y-95973490D01*
X218527707Y-95994655D01*
X218562480Y-96012366D01*
X218602056Y-96025456D01*
X218648283Y-96033921D01*
X218699354Y-96036805D01*
X218713966Y-96036581D01*
X218804656Y-96023287D01*
X218874602Y-95992339D01*
X218925406Y-95946297D01*
X218943952Y-95917649D01*
X218957498Y-95885682D01*
X218966095Y-95849307D01*
X218968998Y-95809842D01*
X218965013Y-95764791D01*
X218954792Y-95727243D01*
X218938949Y-95693088D01*
X218913548Y-95656324D01*
X218882136Y-95623504D01*
X218841745Y-95591226D01*
X218796831Y-95562505D01*
X218699354Y-95513087D01*
X218607097Y-95559467D01*
X218526000Y-95615139D01*
X218472396Y-95672972D01*
X218440681Y-95736418D01*
X218432467Y-95771561D01*
X218429618Y-95809842D01*
X218267167Y-95809842D01*
X218266586Y-95799584D01*
X218269584Y-95753308D01*
X218279197Y-95705782D01*
X218294628Y-95661434D01*
X218318199Y-95614945D01*
X218347018Y-95572725D01*
X218385578Y-95529065D01*
X218427706Y-95491446D01*
X218476630Y-95456738D01*
X218524965Y-95429923D01*
X218518702Y-95427034D01*
X218482581Y-95406074D01*
X218448182Y-95378887D01*
X218391497Y-95312806D01*
X218357465Y-95242726D01*
X218346545Y-95176307D01*
X218347046Y-95172185D01*
X218507562Y-95172185D01*
X218515481Y-95210189D01*
X218530706Y-95238069D01*
X218553041Y-95264909D01*
X218582634Y-95290520D01*
X218618110Y-95313160D01*
X218699354Y-95344743D01*
X218776154Y-95315188D01*
X218839393Y-95268886D01*
X218875701Y-95218779D01*
X218886933Y-95172185D01*
X218886285Y-95158445D01*
X218869898Y-95105038D01*
X218853804Y-95081882D01*
X218832555Y-95061643D01*
X218806240Y-95044888D01*
X218774962Y-95032191D01*
X218738525Y-95024077D01*
X218697247Y-95021243D01*
X218679108Y-95021767D01*
X218640198Y-95026856D01*
X218606079Y-95036899D01*
X218576799Y-95051361D01*
X218552530Y-95069655D01*
X218533160Y-95091508D01*
X218519139Y-95116113D01*
X218510475Y-95143346D01*
X218507562Y-95172185D01*
X218347046Y-95172185D01*
X218356859Y-95091497D01*
X218387909Y-95014828D01*
X218437961Y-94951400D01*
X218469824Y-94925151D01*
X218506189Y-94902876D01*
X218547183Y-94884830D01*
X218592535Y-94871479D01*
X218642758Y-94863098D01*
X218697247Y-94860226D01*
X218792939Y-94869518D01*
G37*
G36*
X218788563Y-97376703D02*
G01*
X218837177Y-97388353D01*
X218881005Y-97404693D01*
X218921561Y-97426206D01*
X218957524Y-97452082D01*
X218991720Y-97484769D01*
X219021151Y-97521790D01*
X219049535Y-97569142D01*
X219072600Y-97621008D01*
X219094538Y-97690406D01*
X219110127Y-97764488D01*
X219125102Y-97901858D01*
X219128916Y-98043254D01*
X219123363Y-98189730D01*
X219102112Y-98338423D01*
X219067266Y-98454856D01*
X219020613Y-98544823D01*
X218962619Y-98612998D01*
X218892015Y-98662386D01*
X218850996Y-98680396D01*
X218805756Y-98693699D01*
X218754959Y-98702121D01*
X218699354Y-98705000D01*
X218648038Y-98703239D01*
X218541421Y-98685217D01*
X218496213Y-98669362D01*
X218455460Y-98649041D01*
X218417491Y-98623288D01*
X218383671Y-98592932D01*
X218350579Y-98553989D01*
X218321720Y-98509673D01*
X218291807Y-98449124D01*
X218266586Y-98381225D01*
X218423482Y-98335155D01*
X218442110Y-98390038D01*
X218476775Y-98460045D01*
X218519014Y-98504139D01*
X218547977Y-98520763D01*
X218582762Y-98532948D01*
X218635013Y-98542099D01*
X218699354Y-98545081D01*
X218744243Y-98541837D01*
X218781225Y-98533313D01*
X218814074Y-98519849D01*
X218844949Y-98500338D01*
X218871620Y-98475999D01*
X218897586Y-98442412D01*
X218918740Y-98403633D01*
X218939083Y-98348875D01*
X218953431Y-98288382D01*
X218965587Y-98189572D01*
X218968998Y-98085294D01*
X218967055Y-98008497D01*
X218965884Y-97975568D01*
X218960589Y-97980854D01*
X218896494Y-98029687D01*
X218859017Y-98047218D01*
X218816741Y-98060003D01*
X218760730Y-98068967D01*
X218695232Y-98071922D01*
X218651698Y-98070347D01*
X218546982Y-98051949D01*
X218460086Y-98015650D01*
X218391631Y-97964241D01*
X218341365Y-97898990D01*
X218323115Y-97861118D01*
X218309649Y-97819527D01*
X218301244Y-97773815D01*
X218298549Y-97727448D01*
X218461400Y-97727448D01*
X218465037Y-97765164D01*
X218474453Y-97796036D01*
X218489062Y-97823113D01*
X218510889Y-97849117D01*
X218537629Y-97870628D01*
X218573521Y-97890086D01*
X218613496Y-97903982D01*
X218660768Y-97913142D01*
X218709612Y-97916126D01*
X218751224Y-97912897D01*
X218789401Y-97903829D01*
X218828041Y-97887795D01*
X218861895Y-97866853D01*
X218893155Y-97839898D01*
X218918117Y-97810367D01*
X218947474Y-97752086D01*
X218933026Y-97693013D01*
X218894032Y-97621111D01*
X218840351Y-97566355D01*
X218779933Y-97533360D01*
X218716756Y-97522376D01*
X218707975Y-97522462D01*
X218619946Y-97534119D01*
X218551748Y-97562105D01*
X218503023Y-97603229D01*
X218472489Y-97657408D01*
X218464252Y-97690416D01*
X218461400Y-97727448D01*
X218298549Y-97727448D01*
X218298368Y-97724334D01*
X218299060Y-97699887D01*
X218304644Y-97652388D01*
X218315600Y-97608069D01*
X218331811Y-97566733D01*
X218352923Y-97528906D01*
X218379252Y-97494038D01*
X218410101Y-97463120D01*
X218446246Y-97435583D01*
X218486532Y-97412544D01*
X218531933Y-97393713D01*
X218581011Y-97379980D01*
X218634520Y-97371403D01*
X218691111Y-97368503D01*
X218788563Y-97376703D01*
G37*
G36*
X218708513Y-99888503D02*
G01*
X218703505Y-99897319D01*
X218672485Y-99949163D01*
X218604643Y-100035849D01*
X218553182Y-100088760D01*
X218488039Y-100146184D01*
X218407720Y-100206721D01*
X218310733Y-100268972D01*
X218414231Y-100424310D01*
X218589959Y-100288943D01*
X218667117Y-100221312D01*
X218730042Y-100156214D01*
X218741394Y-100142485D01*
X218743409Y-101236723D01*
X218911571Y-101236723D01*
X218911571Y-99900867D01*
X218708513Y-99888503D01*
G37*
G36*
X219863993Y-99890475D02*
G01*
X219905553Y-99902644D01*
X219943479Y-99919960D01*
X219980441Y-99943947D01*
X220013533Y-99973008D01*
X220046425Y-100011267D01*
X220074892Y-100054709D01*
X220102925Y-100111212D01*
X220125671Y-100172821D01*
X220146668Y-100252416D01*
X220161308Y-100335997D01*
X220171723Y-100442292D01*
X220174886Y-100548233D01*
X220170435Y-100689293D01*
X220150727Y-100851661D01*
X220117683Y-100979292D01*
X220073759Y-101076705D01*
X220020338Y-101148865D01*
X219957160Y-101199768D01*
X219921407Y-101217916D01*
X219882095Y-101231331D01*
X219838714Y-101239713D01*
X219791394Y-101242585D01*
X219712718Y-101234452D01*
X219670651Y-101222187D01*
X219632263Y-101204816D01*
X219595071Y-101180953D01*
X219561763Y-101152078D01*
X219528892Y-101114372D01*
X219500423Y-101071551D01*
X219472627Y-101016356D01*
X219450033Y-100956066D01*
X219435225Y-100900767D01*
X219607846Y-100900767D01*
X219612998Y-100918768D01*
X219643591Y-100995120D01*
X219680892Y-101044793D01*
X219728149Y-101074787D01*
X219757590Y-101082941D01*
X219791394Y-101085781D01*
X219817263Y-101084032D01*
X219848209Y-101076627D01*
X219875774Y-101063839D01*
X219903253Y-101043343D01*
X219926902Y-101017149D01*
X219951384Y-100977663D01*
X219970940Y-100931695D01*
X219995327Y-100837528D01*
X220008881Y-100734102D01*
X220015976Y-100528724D01*
X220009747Y-100385842D01*
X219607846Y-100900767D01*
X219435225Y-100900767D01*
X219429418Y-100879081D01*
X219414985Y-100797832D01*
X219404884Y-100696197D01*
X219402328Y-100611980D01*
X219560676Y-100611980D01*
X219565267Y-100695466D01*
X219572950Y-100758893D01*
X219971829Y-100247173D01*
X219961939Y-100216056D01*
X219928064Y-100132848D01*
X219891073Y-100080885D01*
X219846776Y-100050491D01*
X219819942Y-100042371D01*
X219789288Y-100039536D01*
X219779437Y-100039817D01*
X219748786Y-100044632D01*
X219721096Y-100055058D01*
X219693062Y-100073110D01*
X219668440Y-100097115D01*
X219642423Y-100133962D01*
X219620875Y-100177572D01*
X219598392Y-100244036D01*
X219582172Y-100317211D01*
X219564829Y-100469048D01*
X219560676Y-100611980D01*
X219402328Y-100611980D01*
X219401766Y-100593479D01*
X219407045Y-100453490D01*
X219429202Y-100288327D01*
X219465181Y-100155470D01*
X219511698Y-100053459D01*
X219566726Y-99978264D01*
X219629908Y-99925874D01*
X219702730Y-99893894D01*
X219743835Y-99885513D01*
X219788280Y-99882641D01*
X219863993Y-99890475D01*
G37*
G36*
X218708513Y-102408503D02*
G01*
X218703505Y-102417319D01*
X218672485Y-102469163D01*
X218604643Y-102555849D01*
X218553182Y-102608760D01*
X218488039Y-102666184D01*
X218407720Y-102726721D01*
X218310733Y-102788972D01*
X218414231Y-102944310D01*
X218589959Y-102808943D01*
X218667117Y-102741312D01*
X218730042Y-102676214D01*
X218741394Y-102662485D01*
X218743409Y-103756723D01*
X218911571Y-103756723D01*
X218911571Y-102420867D01*
X218708513Y-102408503D01*
G37*
G36*
X219794417Y-102408503D02*
G01*
X219789409Y-102417319D01*
X219758389Y-102469163D01*
X219690547Y-102555849D01*
X219639086Y-102608760D01*
X219573942Y-102666184D01*
X219493623Y-102726721D01*
X219396637Y-102788972D01*
X219500135Y-102944310D01*
X219675863Y-102808943D01*
X219753020Y-102741312D01*
X219815946Y-102676214D01*
X219827298Y-102662485D01*
X219829313Y-103756723D01*
X219997474Y-103756723D01*
X219997474Y-102420867D01*
X219794417Y-102408503D01*
G37*
G36*
X165063993Y-75210475D02*
G01*
X165105553Y-75222644D01*
X165143479Y-75239960D01*
X165180441Y-75263947D01*
X165213533Y-75293008D01*
X165246425Y-75331267D01*
X165274892Y-75374709D01*
X165302925Y-75431212D01*
X165325671Y-75492821D01*
X165346668Y-75572416D01*
X165361308Y-75655997D01*
X165371723Y-75762292D01*
X165374886Y-75868233D01*
X165370435Y-76009293D01*
X165350727Y-76171661D01*
X165317683Y-76299292D01*
X165273759Y-76396705D01*
X165220338Y-76468865D01*
X165157160Y-76519768D01*
X165121407Y-76537916D01*
X165082095Y-76551331D01*
X165038714Y-76559713D01*
X164991394Y-76562585D01*
X164912718Y-76554452D01*
X164870651Y-76542187D01*
X164832263Y-76524816D01*
X164795071Y-76500953D01*
X164761763Y-76472078D01*
X164728892Y-76434372D01*
X164700423Y-76391551D01*
X164672627Y-76336356D01*
X164650033Y-76276066D01*
X164635225Y-76220767D01*
X164807846Y-76220767D01*
X164812998Y-76238768D01*
X164843591Y-76315120D01*
X164880892Y-76364793D01*
X164928149Y-76394787D01*
X164957590Y-76402941D01*
X164991394Y-76405781D01*
X165017263Y-76404032D01*
X165048209Y-76396627D01*
X165075774Y-76383839D01*
X165103253Y-76363343D01*
X165126902Y-76337149D01*
X165151384Y-76297663D01*
X165170940Y-76251695D01*
X165195327Y-76157528D01*
X165208881Y-76054102D01*
X165215976Y-75848724D01*
X165209747Y-75705842D01*
X164807846Y-76220767D01*
X164635225Y-76220767D01*
X164629418Y-76199081D01*
X164614985Y-76117832D01*
X164604884Y-76016197D01*
X164602328Y-75931980D01*
X164760676Y-75931980D01*
X164765267Y-76015466D01*
X164772950Y-76078893D01*
X165171829Y-75567173D01*
X165161939Y-75536056D01*
X165128064Y-75452848D01*
X165091073Y-75400885D01*
X165046776Y-75370491D01*
X165019942Y-75362371D01*
X164989288Y-75359536D01*
X164979437Y-75359817D01*
X164948786Y-75364632D01*
X164921096Y-75375058D01*
X164893062Y-75393110D01*
X164868440Y-75417115D01*
X164842423Y-75453962D01*
X164820875Y-75497572D01*
X164798392Y-75564036D01*
X164782172Y-75637211D01*
X164764829Y-75789048D01*
X164760676Y-75931980D01*
X164602328Y-75931980D01*
X164601766Y-75913479D01*
X164607045Y-75773490D01*
X164629202Y-75608327D01*
X164665181Y-75475470D01*
X164711698Y-75373459D01*
X164766726Y-75298264D01*
X164829908Y-75245874D01*
X164902730Y-75213894D01*
X164943835Y-75205513D01*
X164988280Y-75202641D01*
X165063993Y-75210475D01*
G37*
G36*
X164994417Y-77728503D02*
G01*
X164989409Y-77737319D01*
X164958389Y-77789163D01*
X164890547Y-77875849D01*
X164839086Y-77928760D01*
X164773942Y-77986184D01*
X164693623Y-78046721D01*
X164596637Y-78108972D01*
X164700135Y-78264310D01*
X164875863Y-78128943D01*
X164953020Y-78061312D01*
X165015946Y-77996214D01*
X165027298Y-77982485D01*
X165029313Y-79076723D01*
X165197474Y-79076723D01*
X165197474Y-77740867D01*
X164994417Y-77728503D01*
G37*
G36*
X164794474Y-80708748D02*
G01*
X164786322Y-80680309D01*
X164781193Y-80644176D01*
X164784078Y-80594625D01*
X164792553Y-80551276D01*
X164805252Y-80516309D01*
X164822354Y-80486480D01*
X164842802Y-80462474D01*
X164866938Y-80443021D01*
X164926804Y-80416986D01*
X164999546Y-80408512D01*
X165039087Y-80411358D01*
X165073958Y-80419556D01*
X165103991Y-80432414D01*
X165129794Y-80449506D01*
X165170483Y-80496258D01*
X165196646Y-80560358D01*
X165205717Y-80638039D01*
X165194283Y-80699966D01*
X165154665Y-80780728D01*
X165123822Y-80823199D01*
X165086408Y-80864057D01*
X165081612Y-80868666D01*
X164946245Y-80983568D01*
X164790443Y-81114588D01*
X164737597Y-81167929D01*
X164695464Y-81219157D01*
X164665340Y-81264950D01*
X164642341Y-81310483D01*
X164614039Y-81404565D01*
X164607903Y-81487638D01*
X164608947Y-81538666D01*
X164609918Y-81585000D01*
X165388167Y-81585000D01*
X165388167Y-81426089D01*
X164788337Y-81428196D01*
X164804709Y-81369107D01*
X164825703Y-81329182D01*
X164856494Y-81285742D01*
X164891926Y-81246754D01*
X165057574Y-81100262D01*
X165205717Y-80969050D01*
X165258671Y-80907759D01*
X165306289Y-80839100D01*
X165333444Y-80787768D01*
X165353940Y-80733643D01*
X165364607Y-80687344D01*
X165368730Y-80639531D01*
X165368750Y-80636024D01*
X165365831Y-80570553D01*
X165357126Y-80511427D01*
X165343996Y-80462334D01*
X165326045Y-80418512D01*
X165304716Y-80381898D01*
X165279188Y-80349858D01*
X165217208Y-80300121D01*
X165137748Y-80266685D01*
X165036063Y-80249931D01*
X164991394Y-80248503D01*
X164939287Y-80251413D01*
X164889249Y-80260064D01*
X164842591Y-80274045D01*
X164798958Y-80293340D01*
X164760037Y-80316999D01*
X164724894Y-80345434D01*
X164695020Y-80377271D01*
X164669500Y-80413354D01*
X164649296Y-80452323D01*
X164633954Y-80495112D01*
X164623977Y-80540818D01*
X164619423Y-80590050D01*
X164619168Y-80605250D01*
X164619650Y-80617330D01*
X164620176Y-80630895D01*
X164634367Y-80722483D01*
X164640692Y-80745659D01*
X164794474Y-80708748D01*
G37*
G36*
X164565862Y-83762449D02*
G01*
X164568765Y-83811911D01*
X164577360Y-83859008D01*
X164591270Y-83902883D01*
X164610405Y-83943817D01*
X164634283Y-83981064D01*
X164662943Y-84014828D01*
X164695944Y-84044580D01*
X164733343Y-84070307D01*
X164774897Y-84091675D01*
X164820525Y-84108445D01*
X164870270Y-84120357D01*
X164923810Y-84127040D01*
X164963734Y-84128447D01*
X165030097Y-84125561D01*
X165088750Y-84117085D01*
X165137596Y-84104228D01*
X165180837Y-84086878D01*
X165252094Y-84040302D01*
X165289798Y-84002326D01*
X165338063Y-83928814D01*
X165372533Y-83837016D01*
X165387845Y-83736355D01*
X165388167Y-83720409D01*
X165385151Y-83656296D01*
X165375766Y-83596030D01*
X165361855Y-83546412D01*
X165342286Y-83500086D01*
X165318960Y-83460463D01*
X165290273Y-83423878D01*
X165257264Y-83391572D01*
X165218772Y-83362309D01*
X165161571Y-83329681D01*
X165217663Y-83292013D01*
X165262539Y-83234199D01*
X165293764Y-83155842D01*
X165307037Y-83058551D01*
X165307200Y-83045840D01*
X165304337Y-83002951D01*
X165296018Y-82963988D01*
X165282737Y-82929045D01*
X165264861Y-82897806D01*
X165215136Y-82844644D01*
X165145928Y-82803848D01*
X165055870Y-82777234D01*
X164955491Y-82768503D01*
X164944225Y-82768503D01*
X164849791Y-82779186D01*
X164768118Y-82809307D01*
X164698219Y-82856637D01*
X164641484Y-82917732D01*
X164604816Y-82978290D01*
X164600667Y-82988230D01*
X164746297Y-83069562D01*
X164763933Y-83038120D01*
X164794391Y-82997910D01*
X164839391Y-82959135D01*
X164867883Y-82943475D01*
X164900656Y-82932001D01*
X164954483Y-82925398D01*
X164998784Y-82928296D01*
X165039631Y-82936858D01*
X165073772Y-82949939D01*
X165102519Y-82967713D01*
X165122446Y-82987086D01*
X165136563Y-83009846D01*
X165145176Y-83050969D01*
X165142251Y-83093839D01*
X165133503Y-83130066D01*
X165120859Y-83157317D01*
X165103666Y-83180441D01*
X165055252Y-83216692D01*
X165014933Y-83234152D01*
X164916414Y-83257240D01*
X164850894Y-83260896D01*
X164834499Y-83260896D01*
X164834499Y-83422921D01*
X164896052Y-83423739D01*
X164958456Y-83429470D01*
X165022972Y-83445023D01*
X165090862Y-83475311D01*
X165127961Y-83499279D01*
X165158222Y-83526038D01*
X165180875Y-83553890D01*
X165198312Y-83584478D01*
X165219454Y-83656321D01*
X165224127Y-83722424D01*
X165221231Y-83766059D01*
X165212680Y-83806104D01*
X165199279Y-83841094D01*
X165181001Y-83872326D01*
X165158566Y-83899061D01*
X165131811Y-83921803D01*
X165065760Y-83954624D01*
X164982056Y-83969119D01*
X164963734Y-83969536D01*
X164918613Y-83966674D01*
X164877986Y-83958358D01*
X164842664Y-83945322D01*
X164811866Y-83927833D01*
X164785928Y-83906500D01*
X164764634Y-83881548D01*
X164736209Y-83821649D01*
X164727887Y-83761350D01*
X164565862Y-83762449D01*
G37*
G36*
X165266168Y-86038817D02*
G01*
X165397418Y-86038817D01*
X165397418Y-86196811D01*
X165266168Y-86196811D01*
X165266168Y-86625000D01*
X165106250Y-86625000D01*
X165106250Y-86199834D01*
X164627320Y-86199834D01*
X164565862Y-86066569D01*
X164588044Y-86038817D01*
X164780185Y-86038817D01*
X165106250Y-86038817D01*
X165106250Y-85610720D01*
X165079241Y-85655500D01*
X165004090Y-85765470D01*
X164917985Y-85878466D01*
X164780185Y-86038817D01*
X164588044Y-86038817D01*
X164606487Y-86015743D01*
X164697331Y-85902599D01*
X164894388Y-85644587D01*
X165019201Y-85460543D01*
X165079743Y-85348975D01*
X165099014Y-85288503D01*
X165266168Y-85288503D01*
X165266168Y-86038817D01*
G37*
G36*
X164983151Y-88394685D02*
G01*
X165029881Y-88398140D01*
X165080169Y-88410598D01*
X165106250Y-88421338D01*
X165139393Y-88439984D01*
X165168548Y-88464183D01*
X165190526Y-88490628D01*
X165208753Y-88522423D01*
X165232333Y-88601728D01*
X165238507Y-88684296D01*
X165235598Y-88740069D01*
X165226958Y-88790483D01*
X165213838Y-88832590D01*
X165195946Y-88869807D01*
X165174719Y-88900420D01*
X165149406Y-88926467D01*
X165088467Y-88963852D01*
X165011487Y-88982926D01*
X164970878Y-88985081D01*
X164934515Y-88982248D01*
X164901079Y-88974140D01*
X164839473Y-88942518D01*
X164782118Y-88888726D01*
X164730909Y-88816279D01*
X164594530Y-88906313D01*
X164630211Y-88959703D01*
X164672797Y-89010588D01*
X164713564Y-89049276D01*
X164759288Y-89083219D01*
X164802803Y-89107652D01*
X164850129Y-89126653D01*
X164896157Y-89138407D01*
X164945371Y-89144374D01*
X164967764Y-89145000D01*
X164969870Y-89145000D01*
X165027763Y-89141593D01*
X165082906Y-89132340D01*
X165132759Y-89118003D01*
X165179415Y-89098301D01*
X165220828Y-89074377D01*
X165258703Y-89045516D01*
X165291759Y-89012831D01*
X165320951Y-88975503D01*
X165345682Y-88934165D01*
X165366145Y-88888310D01*
X165382119Y-88837802D01*
X165393288Y-88782749D01*
X165400532Y-88682190D01*
X165389514Y-88572482D01*
X165357878Y-88474432D01*
X165307620Y-88389237D01*
X165241449Y-88319634D01*
X165177965Y-88276808D01*
X165089040Y-88245233D01*
X164994342Y-88232956D01*
X164980129Y-88232752D01*
X164895032Y-88243093D01*
X164815029Y-88272884D01*
X164787329Y-88288073D01*
X164810868Y-87986098D01*
X165280547Y-87986098D01*
X165280547Y-87828195D01*
X164666338Y-87826088D01*
X164619168Y-88450006D01*
X164748403Y-88505236D01*
X164751815Y-88501759D01*
X164779875Y-88475004D01*
X164828549Y-88439311D01*
X164896690Y-88408074D01*
X164937703Y-88398312D01*
X164983151Y-88394685D01*
G37*
G36*
X165278441Y-90479536D02*
G01*
X165245560Y-90483282D01*
X165121133Y-90511613D01*
X165013412Y-90558666D01*
X164925087Y-90620957D01*
X164857439Y-90695286D01*
X164810868Y-90779314D01*
X164781685Y-90874443D01*
X164764798Y-90967991D01*
X164771831Y-90961972D01*
X164782545Y-90952826D01*
X164841103Y-90910930D01*
X164873563Y-90895979D01*
X164912879Y-90884252D01*
X164961965Y-90876443D01*
X165022169Y-90873653D01*
X165067236Y-90875893D01*
X165115744Y-90883696D01*
X165161312Y-90896847D01*
X165203843Y-90915158D01*
X165242959Y-90938337D01*
X165278675Y-90966342D01*
X165310462Y-90998762D01*
X165338323Y-91035690D01*
X165361706Y-91076576D01*
X165380513Y-91121556D01*
X165394271Y-91170010D01*
X165402772Y-91221993D01*
X165405661Y-91276928D01*
X165403151Y-91330711D01*
X165382704Y-91429115D01*
X165365264Y-91471801D01*
X165343348Y-91510201D01*
X165316439Y-91545237D01*
X165285346Y-91575853D01*
X165248348Y-91603394D01*
X165207326Y-91626142D01*
X165159325Y-91645251D01*
X165107473Y-91659015D01*
X165048109Y-91667915D01*
X164985258Y-91670861D01*
X164901320Y-91662956D01*
X164856105Y-91651066D01*
X164814322Y-91634097D01*
X164775006Y-91611638D01*
X164739319Y-91584319D01*
X164705732Y-91550649D01*
X164676167Y-91512179D01*
X164649094Y-91466230D01*
X164626602Y-91415510D01*
X164607668Y-91356548D01*
X164593965Y-91292983D01*
X164585186Y-91221361D01*
X164584994Y-91216386D01*
X164754540Y-91216386D01*
X164755741Y-91249487D01*
X164773609Y-91342085D01*
X164809361Y-91416290D01*
X164858449Y-91469991D01*
X164917586Y-91502765D01*
X164950371Y-91511180D01*
X164985258Y-91514057D01*
X165003746Y-91513635D01*
X165087068Y-91499456D01*
X165152427Y-91467859D01*
X165200537Y-91420862D01*
X165218246Y-91391438D01*
X165231388Y-91357984D01*
X165239758Y-91319568D01*
X165242629Y-91276928D01*
X165242592Y-91271964D01*
X165230444Y-91191062D01*
X165198993Y-91124902D01*
X165151302Y-91075370D01*
X165121993Y-91057275D01*
X165089098Y-91043875D01*
X165052643Y-91035523D01*
X165012918Y-91032655D01*
X164975049Y-91035160D01*
X164932744Y-91044103D01*
X164893675Y-91058679D01*
X164856629Y-91079098D01*
X164824284Y-91103716D01*
X164776622Y-91160336D01*
X164754540Y-91216386D01*
X164584994Y-91216386D01*
X164582257Y-91145587D01*
X164589586Y-91010645D01*
X164616330Y-90856986D01*
X164661209Y-90715658D01*
X164700506Y-90635576D01*
X164732519Y-90587612D01*
X164769279Y-90543276D01*
X164811732Y-90501636D01*
X164858779Y-90463975D01*
X164911906Y-90429381D01*
X164969478Y-90399195D01*
X165033335Y-90372752D01*
X165101442Y-90351198D01*
X165175684Y-90334228D01*
X165253894Y-90322641D01*
X165278441Y-90479536D01*
G37*
G36*
X164640692Y-92859952D02*
G01*
X164597995Y-92970271D01*
X164558627Y-93073267D01*
X164697112Y-93135732D01*
X164700622Y-93124045D01*
X164718113Y-93068766D01*
X164740160Y-93016847D01*
X164775535Y-93018606D01*
X164957506Y-93025090D01*
X165089855Y-93025090D01*
X165292821Y-93022984D01*
X165289799Y-93027622D01*
X165096902Y-93330279D01*
X165014660Y-93471980D01*
X164943933Y-93610623D01*
X164886254Y-93748727D01*
X164843156Y-93888811D01*
X164816173Y-94033395D01*
X164806838Y-94185000D01*
X164976007Y-94185000D01*
X164978891Y-94098365D01*
X164987353Y-94016908D01*
X165019966Y-93865571D01*
X165075071Y-93715968D01*
X165160866Y-93546690D01*
X165286448Y-93335141D01*
X165393826Y-93156595D01*
X165510258Y-92950260D01*
X165463088Y-92866088D01*
X165421048Y-92866088D01*
X164916564Y-92866088D01*
X164784369Y-92863118D01*
X164640692Y-92859952D01*
G37*
G36*
X165078842Y-95389518D02*
G01*
X165124785Y-95401872D01*
X165166430Y-95418939D01*
X165203825Y-95440479D01*
X165236700Y-95466091D01*
X165265351Y-95495907D01*
X165289148Y-95529213D01*
X165308357Y-95566508D01*
X165322281Y-95606700D01*
X165330941Y-95650392D01*
X165333853Y-95696307D01*
X165322135Y-95766725D01*
X165305502Y-95806709D01*
X165282978Y-95844313D01*
X165223924Y-95909065D01*
X165159556Y-95949923D01*
X165247870Y-96004432D01*
X165321507Y-96073209D01*
X165374792Y-96149877D01*
X165406984Y-96232008D01*
X165417934Y-96319584D01*
X165413377Y-96383492D01*
X165388401Y-96476024D01*
X165343205Y-96556385D01*
X165313486Y-96591447D01*
X165279230Y-96622774D01*
X165240517Y-96650146D01*
X165197596Y-96673207D01*
X165150381Y-96691760D01*
X165099268Y-96705387D01*
X165044058Y-96713841D01*
X164985258Y-96716723D01*
X164912538Y-96712270D01*
X164858754Y-96702619D01*
X164808708Y-96687860D01*
X164762737Y-96668357D01*
X164720826Y-96644342D01*
X164683145Y-96616092D01*
X164649872Y-96583888D01*
X164621068Y-96547850D01*
X164597059Y-96508387D01*
X164577902Y-96465462D01*
X164563968Y-96419637D01*
X164555390Y-96370790D01*
X164553071Y-96329842D01*
X164715522Y-96329842D01*
X164715609Y-96336867D01*
X164728203Y-96409180D01*
X164760863Y-96468498D01*
X164784857Y-96493490D01*
X164813611Y-96514655D01*
X164848383Y-96532366D01*
X164887960Y-96545456D01*
X164934187Y-96553921D01*
X164985258Y-96556805D01*
X164999870Y-96556581D01*
X165090559Y-96543287D01*
X165160506Y-96512339D01*
X165211309Y-96466297D01*
X165229856Y-96437649D01*
X165243402Y-96405682D01*
X165251999Y-96369307D01*
X165254902Y-96329842D01*
X165250917Y-96284791D01*
X165240695Y-96247243D01*
X165224853Y-96213088D01*
X165199451Y-96176324D01*
X165168040Y-96143504D01*
X165127649Y-96111226D01*
X165082735Y-96082505D01*
X164985258Y-96033087D01*
X164893001Y-96079467D01*
X164811904Y-96135139D01*
X164758299Y-96192972D01*
X164726584Y-96256418D01*
X164718370Y-96291561D01*
X164715522Y-96329842D01*
X164553071Y-96329842D01*
X164552490Y-96319584D01*
X164555488Y-96273308D01*
X164565100Y-96225782D01*
X164580532Y-96181434D01*
X164604102Y-96134945D01*
X164632922Y-96092725D01*
X164671482Y-96049065D01*
X164713610Y-96011446D01*
X164762534Y-95976738D01*
X164810868Y-95949923D01*
X164804605Y-95947034D01*
X164768485Y-95926074D01*
X164734085Y-95898887D01*
X164677400Y-95832806D01*
X164643369Y-95762726D01*
X164632449Y-95696307D01*
X164632950Y-95692185D01*
X164793466Y-95692185D01*
X164801385Y-95730189D01*
X164816610Y-95758069D01*
X164838945Y-95784909D01*
X164868538Y-95810520D01*
X164904014Y-95833160D01*
X164985258Y-95864743D01*
X165062058Y-95835188D01*
X165125297Y-95788886D01*
X165161605Y-95738779D01*
X165172836Y-95692185D01*
X165172189Y-95678445D01*
X165155801Y-95625038D01*
X165139708Y-95601882D01*
X165118459Y-95581643D01*
X165092144Y-95564888D01*
X165060866Y-95552191D01*
X165024429Y-95544077D01*
X164983151Y-95541243D01*
X164965012Y-95541767D01*
X164926101Y-95546856D01*
X164891982Y-95556899D01*
X164862703Y-95571361D01*
X164838434Y-95589655D01*
X164819064Y-95611508D01*
X164805043Y-95636113D01*
X164796379Y-95663346D01*
X164793466Y-95692185D01*
X164632950Y-95692185D01*
X164642763Y-95611497D01*
X164673812Y-95534828D01*
X164723864Y-95471400D01*
X164755728Y-95445151D01*
X164792093Y-95422876D01*
X164833087Y-95404830D01*
X164878439Y-95391479D01*
X164928662Y-95383098D01*
X164983151Y-95380226D01*
X165078842Y-95389518D01*
G37*
G36*
X165074467Y-97896703D02*
G01*
X165123080Y-97908353D01*
X165166909Y-97924693D01*
X165207464Y-97946206D01*
X165243428Y-97972082D01*
X165277624Y-98004769D01*
X165307054Y-98041790D01*
X165335439Y-98089142D01*
X165358503Y-98141008D01*
X165380442Y-98210406D01*
X165396031Y-98284488D01*
X165411006Y-98421858D01*
X165414820Y-98563254D01*
X165409267Y-98709730D01*
X165388016Y-98858423D01*
X165353169Y-98974856D01*
X165306517Y-99064823D01*
X165248523Y-99132998D01*
X165177918Y-99182386D01*
X165136900Y-99200396D01*
X165091660Y-99213699D01*
X165040863Y-99222121D01*
X164985258Y-99225000D01*
X164933942Y-99223239D01*
X164827325Y-99205217D01*
X164782117Y-99189362D01*
X164741364Y-99169041D01*
X164703394Y-99143288D01*
X164669574Y-99112932D01*
X164636483Y-99073989D01*
X164607624Y-99029673D01*
X164577711Y-98969124D01*
X164552490Y-98901225D01*
X164709385Y-98855155D01*
X164728014Y-98910038D01*
X164762679Y-98980045D01*
X164804917Y-99024139D01*
X164833880Y-99040763D01*
X164868666Y-99052948D01*
X164920917Y-99062099D01*
X164985258Y-99065081D01*
X165030147Y-99061837D01*
X165067129Y-99053313D01*
X165099978Y-99039849D01*
X165130853Y-99020338D01*
X165157523Y-98995999D01*
X165183489Y-98962412D01*
X165204644Y-98923633D01*
X165224987Y-98868875D01*
X165239335Y-98808382D01*
X165251491Y-98709572D01*
X165254902Y-98605294D01*
X165252959Y-98528497D01*
X165251788Y-98495568D01*
X165246492Y-98500854D01*
X165182398Y-98549687D01*
X165144920Y-98567218D01*
X165102644Y-98580003D01*
X165046634Y-98588967D01*
X164981136Y-98591922D01*
X164937602Y-98590347D01*
X164832886Y-98571949D01*
X164745990Y-98535650D01*
X164677534Y-98484241D01*
X164627269Y-98418990D01*
X164609018Y-98381118D01*
X164595553Y-98339527D01*
X164587148Y-98293815D01*
X164584453Y-98247448D01*
X164747304Y-98247448D01*
X164750940Y-98285164D01*
X164760357Y-98316036D01*
X164774966Y-98343113D01*
X164796793Y-98369117D01*
X164823533Y-98390628D01*
X164859424Y-98410086D01*
X164899400Y-98423982D01*
X164946671Y-98433142D01*
X164995516Y-98436126D01*
X165037128Y-98432897D01*
X165075305Y-98423829D01*
X165113944Y-98407795D01*
X165147799Y-98386853D01*
X165179059Y-98359898D01*
X165204021Y-98330367D01*
X165233378Y-98272086D01*
X165218929Y-98213013D01*
X165179936Y-98141111D01*
X165126255Y-98086355D01*
X165065836Y-98053360D01*
X165002660Y-98042376D01*
X164993878Y-98042462D01*
X164905850Y-98054119D01*
X164837652Y-98082105D01*
X164788927Y-98123229D01*
X164758393Y-98177408D01*
X164750156Y-98210416D01*
X164747304Y-98247448D01*
X164584453Y-98247448D01*
X164584272Y-98244334D01*
X164584964Y-98219887D01*
X164590548Y-98172388D01*
X164601504Y-98128069D01*
X164617714Y-98086733D01*
X164638827Y-98048906D01*
X164665156Y-98014038D01*
X164696005Y-97983120D01*
X164732150Y-97955583D01*
X164772436Y-97932544D01*
X164817836Y-97913713D01*
X164866914Y-97899980D01*
X164920423Y-97891403D01*
X164977015Y-97888503D01*
X165074467Y-97896703D01*
G37*
G36*
X163502490Y-101827065D02*
G01*
X163654256Y-101889622D01*
X163731462Y-101708633D01*
X164037423Y-100988949D01*
X164309499Y-100330009D01*
X164157732Y-100270566D01*
X163996826Y-100669250D01*
X163575495Y-101666068D01*
X163555796Y-101712210D01*
X163510483Y-101810270D01*
X163502490Y-101827065D01*
G37*
G36*
X164994417Y-100408503D02*
G01*
X164989409Y-100417319D01*
X164958389Y-100469163D01*
X164890547Y-100555849D01*
X164839086Y-100608760D01*
X164773942Y-100666184D01*
X164693623Y-100726721D01*
X164596637Y-100788972D01*
X164700135Y-100944310D01*
X164875863Y-100808943D01*
X164953020Y-100741312D01*
X165015946Y-100676214D01*
X165027298Y-100662485D01*
X165029313Y-101756723D01*
X165197474Y-101756723D01*
X165197474Y-100420867D01*
X164994417Y-100408503D01*
G37*
G36*
X166149897Y-100410475D02*
G01*
X166191457Y-100422644D01*
X166229383Y-100439960D01*
X166266344Y-100463947D01*
X166299436Y-100493008D01*
X166332329Y-100531267D01*
X166360795Y-100574709D01*
X166388828Y-100631212D01*
X166411575Y-100692821D01*
X166432572Y-100772416D01*
X166447212Y-100855997D01*
X166457627Y-100962292D01*
X166460790Y-101068233D01*
X166456339Y-101209293D01*
X166436631Y-101371661D01*
X166403587Y-101499292D01*
X166359663Y-101596705D01*
X166306242Y-101668865D01*
X166243063Y-101719768D01*
X166207310Y-101737916D01*
X166167999Y-101751331D01*
X166124618Y-101759713D01*
X166077298Y-101762585D01*
X165998622Y-101754452D01*
X165956555Y-101742187D01*
X165918167Y-101724816D01*
X165880974Y-101700953D01*
X165847667Y-101672078D01*
X165814796Y-101634372D01*
X165786326Y-101591551D01*
X165758530Y-101536356D01*
X165735936Y-101476066D01*
X165721129Y-101420767D01*
X165893750Y-101420767D01*
X165898902Y-101438768D01*
X165929494Y-101515120D01*
X165966795Y-101564793D01*
X166014053Y-101594787D01*
X166043494Y-101602941D01*
X166077298Y-101605781D01*
X166103167Y-101604032D01*
X166134112Y-101596627D01*
X166161678Y-101583839D01*
X166189157Y-101563343D01*
X166212806Y-101537149D01*
X166237288Y-101497663D01*
X166256843Y-101451695D01*
X166281231Y-101357528D01*
X166294784Y-101254102D01*
X166301879Y-101048724D01*
X166295651Y-100905842D01*
X165893750Y-101420767D01*
X165721129Y-101420767D01*
X165715322Y-101399081D01*
X165700889Y-101317832D01*
X165690787Y-101216197D01*
X165688231Y-101131980D01*
X165846580Y-101131980D01*
X165851171Y-101215466D01*
X165858853Y-101278893D01*
X166257732Y-100767173D01*
X166247843Y-100736056D01*
X166213968Y-100652848D01*
X166176976Y-100600885D01*
X166132680Y-100570491D01*
X166105845Y-100562371D01*
X166075191Y-100559536D01*
X166065341Y-100559817D01*
X166034689Y-100564632D01*
X166006999Y-100575058D01*
X165978965Y-100593110D01*
X165954343Y-100617115D01*
X165928327Y-100653962D01*
X165906779Y-100697572D01*
X165884296Y-100764036D01*
X165868076Y-100837211D01*
X165850733Y-100989048D01*
X165846580Y-101131980D01*
X165688231Y-101131980D01*
X165687670Y-101113479D01*
X165692949Y-100973490D01*
X165715106Y-100808327D01*
X165751084Y-100675470D01*
X165797602Y-100573459D01*
X165852630Y-100498264D01*
X165915811Y-100445874D01*
X165988634Y-100413894D01*
X166029739Y-100405513D01*
X166074184Y-100402641D01*
X166149897Y-100410475D01*
G37*
D11*
G36*
X182177263Y-103745000D02*
G01*
X182485925Y-103745000D01*
X182508937Y-103607543D01*
X182586409Y-103286356D01*
X182728666Y-102787784D01*
X182793002Y-102587907D01*
X182845878Y-102443948D01*
X182613053Y-102362982D01*
X182545243Y-102561391D01*
X182460494Y-102875910D01*
X182370039Y-103262416D01*
X182337273Y-103405655D01*
X182263208Y-103113079D01*
X182156833Y-102700771D01*
X182102560Y-102516857D01*
X182046013Y-102355746D01*
X181804030Y-102446971D01*
X181878298Y-102654807D01*
X182022262Y-103124428D01*
X182100260Y-103405825D01*
X182157055Y-103636190D01*
X182177263Y-103745000D01*
G37*
G36*
X183466224Y-102588387D02*
G01*
X183515526Y-102592050D01*
X183555724Y-102605967D01*
X183577101Y-102621383D01*
X183596927Y-102643256D01*
X183637124Y-102715808D01*
X183646659Y-102738597D01*
X183884612Y-102610003D01*
X183829398Y-102531447D01*
X183757714Y-102467660D01*
X183670436Y-102419364D01*
X183570284Y-102388855D01*
X183472361Y-102379193D01*
X183367985Y-102390261D01*
X183270876Y-102422633D01*
X183183317Y-102474982D01*
X183109472Y-102544733D01*
X183079618Y-102584357D01*
X183042496Y-102647300D01*
X183003823Y-102734200D01*
X182980712Y-102805008D01*
X182961663Y-102887002D01*
X182949979Y-102966556D01*
X182943862Y-103054795D01*
X182943239Y-103094428D01*
X182946174Y-103180757D01*
X182954994Y-103261256D01*
X182968616Y-103331584D01*
X182987443Y-103397199D01*
X183010358Y-103455775D01*
X183038078Y-103510382D01*
X183070011Y-103560336D01*
X183106615Y-103606784D01*
X183126788Y-103628862D01*
X183196889Y-103683579D01*
X183282062Y-103722503D01*
X183383162Y-103745261D01*
X183472361Y-103750861D01*
X183475475Y-103750861D01*
X183586771Y-103739456D01*
X183691587Y-103705830D01*
X183739805Y-103681259D01*
X183784535Y-103651865D01*
X183824768Y-103618405D01*
X183860701Y-103580742D01*
X183891124Y-103540268D01*
X183916629Y-103496263D01*
X183921523Y-103486163D01*
X183669282Y-103345296D01*
X183630271Y-103437681D01*
X183608930Y-103473115D01*
X183584507Y-103501420D01*
X183560487Y-103519770D01*
X183532446Y-103533090D01*
X183464219Y-103544633D01*
X183453951Y-103544781D01*
X183439571Y-103544781D01*
X183388406Y-103533206D01*
X183336178Y-103496665D01*
X183286252Y-103431527D01*
X183263856Y-103387207D01*
X183244727Y-103336027D01*
X183229259Y-103277265D01*
X183218371Y-103211808D01*
X183211967Y-103102580D01*
X183214804Y-103012532D01*
X183222940Y-102932212D01*
X183235646Y-102862001D01*
X183252439Y-102800638D01*
X183272496Y-102748407D01*
X183295482Y-102704158D01*
X183320547Y-102667976D01*
X183347450Y-102638961D01*
X183375487Y-102616936D01*
X183404344Y-102601375D01*
X183433696Y-102591936D01*
X183462873Y-102588425D01*
X183466224Y-102588387D01*
G37*
G36*
X184552128Y-102588387D02*
G01*
X184601430Y-102592050D01*
X184641628Y-102605967D01*
X184663005Y-102621383D01*
X184682830Y-102643256D01*
X184723028Y-102715808D01*
X184732562Y-102738597D01*
X184970516Y-102610003D01*
X184915301Y-102531447D01*
X184843618Y-102467660D01*
X184756340Y-102419364D01*
X184656187Y-102388855D01*
X184558265Y-102379193D01*
X184453889Y-102390261D01*
X184356780Y-102422633D01*
X184269220Y-102474982D01*
X184195376Y-102544733D01*
X184165522Y-102584357D01*
X184128400Y-102647300D01*
X184089726Y-102734200D01*
X184066615Y-102805008D01*
X184047566Y-102887002D01*
X184035883Y-102966556D01*
X184029766Y-103054795D01*
X184029143Y-103094428D01*
X184032078Y-103180757D01*
X184040898Y-103261256D01*
X184054520Y-103331584D01*
X184073346Y-103397199D01*
X184096262Y-103455775D01*
X184123981Y-103510382D01*
X184155915Y-103560336D01*
X184192519Y-103606784D01*
X184212691Y-103628862D01*
X184282792Y-103683579D01*
X184367966Y-103722503D01*
X184469066Y-103745261D01*
X184558265Y-103750861D01*
X184561379Y-103750861D01*
X184672675Y-103739456D01*
X184777491Y-103705830D01*
X184825709Y-103681259D01*
X184870439Y-103651865D01*
X184910672Y-103618405D01*
X184946605Y-103580742D01*
X184977028Y-103540268D01*
X185002533Y-103496263D01*
X185007427Y-103486163D01*
X184755185Y-103345296D01*
X184716175Y-103437681D01*
X184694834Y-103473115D01*
X184670411Y-103501420D01*
X184646390Y-103519770D01*
X184618350Y-103533090D01*
X184550123Y-103544633D01*
X184539855Y-103544781D01*
X184525475Y-103544781D01*
X184474310Y-103533206D01*
X184422082Y-103496665D01*
X184372156Y-103431527D01*
X184349760Y-103387207D01*
X184330631Y-103336027D01*
X184315162Y-103277265D01*
X184304274Y-103211808D01*
X184297871Y-103102580D01*
X184300708Y-103012532D01*
X184308843Y-102932212D01*
X184321550Y-102862001D01*
X184338342Y-102800638D01*
X184358400Y-102748407D01*
X184381386Y-102704158D01*
X184406450Y-102667976D01*
X184433354Y-102638961D01*
X184461391Y-102616936D01*
X184490247Y-102601375D01*
X184519600Y-102591936D01*
X184548777Y-102588425D01*
X184552128Y-102588387D01*
G37*
G36*
X182882846Y-107354477D02*
G01*
X182799230Y-107353483D01*
X182712578Y-107352462D01*
X182587886Y-107357022D01*
X182464496Y-107377218D01*
X182403916Y-107396517D01*
X182444949Y-107604337D01*
X182503301Y-107585476D01*
X182556847Y-107573670D01*
X182665233Y-107564766D01*
X182680796Y-107564678D01*
X182746467Y-107563671D01*
X182742672Y-107673784D01*
X182727832Y-107773094D01*
X182713310Y-107820087D01*
X182693176Y-107860825D01*
X182672701Y-107887937D01*
X182647774Y-107909912D01*
X182621585Y-107924682D01*
X182591275Y-107934606D01*
X182543409Y-107939652D01*
X182505031Y-107936753D01*
X182469953Y-107928179D01*
X182439056Y-107914633D01*
X182411171Y-107896103D01*
X182363359Y-107843451D01*
X182325416Y-107766270D01*
X182299033Y-107658219D01*
X182288108Y-107512257D01*
X182288053Y-107500107D01*
X182290969Y-107412177D01*
X182299654Y-107330610D01*
X182312970Y-107260524D01*
X182331209Y-107197330D01*
X182352076Y-107146222D01*
X182376919Y-107101842D01*
X182402649Y-107068019D01*
X182431515Y-107040385D01*
X182460575Y-107020850D01*
X182492181Y-107007025D01*
X182553668Y-106997363D01*
X182606020Y-107000358D01*
X182649326Y-107009595D01*
X182679021Y-107022128D01*
X182704138Y-107039347D01*
X182742352Y-107086822D01*
X182775135Y-107167265D01*
X183015103Y-107048563D01*
X182990365Y-107000945D01*
X182961365Y-106958046D01*
X182929190Y-106920937D01*
X182893077Y-106888282D01*
X182809636Y-106836570D01*
X182708780Y-106802042D01*
X182587079Y-106785764D01*
X182567040Y-106785055D01*
X182546523Y-106785055D01*
X182481489Y-106788204D01*
X182417174Y-106798522D01*
X182364779Y-106813438D01*
X182313501Y-106834919D01*
X182268336Y-106860608D01*
X182224523Y-106892822D01*
X182209102Y-106906139D01*
X182140073Y-106990774D01*
X182086277Y-107093460D01*
X182047538Y-107217741D01*
X182025115Y-107368357D01*
X182020424Y-107488841D01*
X182023381Y-107572335D01*
X182032351Y-107652915D01*
X182046397Y-107725364D01*
X182066014Y-107794065D01*
X182089368Y-107854090D01*
X182117751Y-107909923D01*
X182148771Y-107957713D01*
X182184317Y-108001106D01*
X182221978Y-108037599D01*
X182263788Y-108069563D01*
X182307865Y-108095686D01*
X182355884Y-108117086D01*
X182406885Y-108133227D01*
X182461796Y-108144303D01*
X182553668Y-108150861D01*
X182629929Y-108149075D01*
X182708456Y-108139596D01*
X182775957Y-108118047D01*
X182836964Y-108087938D01*
X182871917Y-108062570D01*
X182903667Y-108031132D01*
X182929328Y-107996788D01*
X182952040Y-107955954D01*
X182987790Y-107852527D01*
X183010595Y-107707237D01*
X183017118Y-107545261D01*
X183017118Y-107347333D01*
X182882846Y-107354477D01*
G37*
G36*
X183794360Y-108145000D02*
G01*
X184049716Y-108145000D01*
X184050206Y-108060878D01*
X184050724Y-107970519D01*
X184048696Y-107595369D01*
X184046693Y-107226433D01*
X184048468Y-106984621D01*
X184054845Y-106782033D01*
X183804618Y-106781025D01*
X183792910Y-107208374D01*
X183792345Y-107346509D01*
X183799489Y-107627785D01*
X183761346Y-107500738D01*
X183683815Y-107320656D01*
X183559743Y-107085727D01*
X183402242Y-106827312D01*
X183379086Y-106792291D01*
X183162748Y-106785055D01*
X183162748Y-108148114D01*
X183414990Y-108148114D01*
X183414608Y-107951507D01*
X183413982Y-107560007D01*
X183413982Y-107346509D01*
X183559928Y-107607427D01*
X183634895Y-107759341D01*
X183704701Y-107914578D01*
X183794360Y-108145000D01*
G37*
G36*
X184629347Y-106788433D02*
G01*
X184745618Y-106813741D01*
X184794915Y-106832693D01*
X184840046Y-106856230D01*
X184885280Y-106887264D01*
X184927518Y-106924257D01*
X184979855Y-106982046D01*
X185031023Y-107051127D01*
X185066659Y-107112171D01*
X185095723Y-107175614D01*
X185119965Y-107243567D01*
X185139647Y-107317098D01*
X185153898Y-107393636D01*
X185165387Y-107550757D01*
X185165275Y-107565697D01*
X185161322Y-107639208D01*
X185151897Y-107708902D01*
X185118278Y-107833998D01*
X185067547Y-107939167D01*
X185002743Y-108023503D01*
X184926368Y-108086789D01*
X184840129Y-108128972D01*
X184793641Y-108142029D01*
X184744984Y-108149579D01*
X184579845Y-108156723D01*
X184435245Y-108153559D01*
X184240500Y-108149579D01*
X184243254Y-108024230D01*
X184243523Y-108015307D01*
X184244229Y-107943499D01*
X184504008Y-107943499D01*
X184563424Y-107946018D01*
X184605491Y-107946522D01*
X184608605Y-107946522D01*
X184642042Y-107945241D01*
X184709508Y-107931650D01*
X184771279Y-107901334D01*
X184823250Y-107853169D01*
X184844938Y-107821816D01*
X184863869Y-107784131D01*
X184878911Y-107729681D01*
X184888567Y-107655868D01*
X184891621Y-107587759D01*
X184886157Y-107461608D01*
X184876103Y-107381133D01*
X184861391Y-107307930D01*
X184820920Y-107186510D01*
X184769588Y-107096459D01*
X184711609Y-107035347D01*
X184649730Y-107000050D01*
X184584974Y-106988387D01*
X184554200Y-106988387D01*
X184508129Y-106991502D01*
X184509137Y-107080894D01*
X184508650Y-107155696D01*
X184508129Y-107238248D01*
X184504191Y-107925312D01*
X184504008Y-107943499D01*
X184244229Y-107943499D01*
X184244791Y-107886263D01*
X184249659Y-107220754D01*
X184249659Y-107142627D01*
X184248249Y-107012213D01*
X184236379Y-106793573D01*
X184267770Y-106790434D01*
X184284221Y-106788778D01*
X184366780Y-106781857D01*
X184467096Y-106779193D01*
X184629347Y-106788433D01*
G37*
D10*
X180591823Y-92879449D02*
X181484680Y-92879449D01*
X181484680Y-92879449D02*
X181663252Y-92938972D01*
X181663252Y-92938972D02*
X181782300Y-93058020D01*
X181782300Y-93058020D02*
X181841823Y-93236591D01*
X181841823Y-93236591D02*
X181841823Y-93355639D01*
X181841823Y-91688972D02*
X181841823Y-92284210D01*
X181841823Y-92284210D02*
X180591823Y-92284210D01*
X181722776Y-90558020D02*
X181782300Y-90617544D01*
X181782300Y-90617544D02*
X181841823Y-90796115D01*
X181841823Y-90796115D02*
X181841823Y-90915163D01*
X181841823Y-90915163D02*
X181782300Y-91093734D01*
X181782300Y-91093734D02*
X181663252Y-91212782D01*
X181663252Y-91212782D02*
X181544204Y-91272305D01*
X181544204Y-91272305D02*
X181306109Y-91331829D01*
X181306109Y-91331829D02*
X181127538Y-91331829D01*
X181127538Y-91331829D02*
X180889442Y-91272305D01*
X180889442Y-91272305D02*
X180770395Y-91212782D01*
X180770395Y-91212782D02*
X180651347Y-91093734D01*
X180651347Y-91093734D02*
X180591823Y-90915163D01*
X180591823Y-90915163D02*
X180591823Y-90796115D01*
X180591823Y-90796115D02*
X180651347Y-90617544D01*
X180651347Y-90617544D02*
X180710871Y-90558020D01*
X180591823Y-89665163D02*
X181484680Y-89665163D01*
X181484680Y-89665163D02*
X181663252Y-89724686D01*
X181663252Y-89724686D02*
X181782300Y-89843734D01*
X181782300Y-89843734D02*
X181841823Y-90022305D01*
X181841823Y-90022305D02*
X181841823Y-90141353D01*
X181841823Y-88474686D02*
X181841823Y-89069924D01*
X181841823Y-89069924D02*
X180591823Y-89069924D01*
X181722776Y-87343734D02*
X181782300Y-87403258D01*
X181782300Y-87403258D02*
X181841823Y-87581829D01*
X181841823Y-87581829D02*
X181841823Y-87700877D01*
X181841823Y-87700877D02*
X181782300Y-87879448D01*
X181782300Y-87879448D02*
X181663252Y-87998496D01*
X181663252Y-87998496D02*
X181544204Y-88058019D01*
X181544204Y-88058019D02*
X181306109Y-88117543D01*
X181306109Y-88117543D02*
X181127538Y-88117543D01*
X181127538Y-88117543D02*
X180889442Y-88058019D01*
X180889442Y-88058019D02*
X180770395Y-87998496D01*
X180770395Y-87998496D02*
X180651347Y-87879448D01*
X180651347Y-87879448D02*
X180591823Y-87700877D01*
X180591823Y-87700877D02*
X180591823Y-87581829D01*
X180591823Y-87581829D02*
X180651347Y-87403258D01*
X180651347Y-87403258D02*
X180710871Y-87343734D01*
X180591823Y-86450877D02*
X181484680Y-86450877D01*
X181484680Y-86450877D02*
X181663252Y-86510400D01*
X181663252Y-86510400D02*
X181782300Y-86629448D01*
X181782300Y-86629448D02*
X181841823Y-86808019D01*
X181841823Y-86808019D02*
X181841823Y-86927067D01*
X181841823Y-85260400D02*
X181841823Y-85855638D01*
X181841823Y-85855638D02*
X180591823Y-85855638D01*
X181722776Y-84129448D02*
X181782300Y-84188972D01*
X181782300Y-84188972D02*
X181841823Y-84367543D01*
X181841823Y-84367543D02*
X181841823Y-84486591D01*
X181841823Y-84486591D02*
X181782300Y-84665162D01*
X181782300Y-84665162D02*
X181663252Y-84784210D01*
X181663252Y-84784210D02*
X181544204Y-84843733D01*
X181544204Y-84843733D02*
X181306109Y-84903257D01*
X181306109Y-84903257D02*
X181127538Y-84903257D01*
X181127538Y-84903257D02*
X180889442Y-84843733D01*
X180889442Y-84843733D02*
X180770395Y-84784210D01*
X180770395Y-84784210D02*
X180651347Y-84665162D01*
X180651347Y-84665162D02*
X180591823Y-84486591D01*
X180591823Y-84486591D02*
X180591823Y-84367543D01*
X180591823Y-84367543D02*
X180651347Y-84188972D01*
X180651347Y-84188972D02*
X180710871Y-84129448D01*
X180591823Y-83236591D02*
X181484680Y-83236591D01*
X181484680Y-83236591D02*
X181663252Y-83296114D01*
X181663252Y-83296114D02*
X181782300Y-83415162D01*
X181782300Y-83415162D02*
X181841823Y-83593733D01*
X181841823Y-83593733D02*
X181841823Y-83712781D01*
X181841823Y-82046114D02*
X181841823Y-82641352D01*
X181841823Y-82641352D02*
X180591823Y-82641352D01*
X181722776Y-80915162D02*
X181782300Y-80974686D01*
X181782300Y-80974686D02*
X181841823Y-81153257D01*
X181841823Y-81153257D02*
X181841823Y-81272305D01*
X181841823Y-81272305D02*
X181782300Y-81450876D01*
X181782300Y-81450876D02*
X181663252Y-81569924D01*
X181663252Y-81569924D02*
X181544204Y-81629447D01*
X181544204Y-81629447D02*
X181306109Y-81688971D01*
X181306109Y-81688971D02*
X181127538Y-81688971D01*
X181127538Y-81688971D02*
X180889442Y-81629447D01*
X180889442Y-81629447D02*
X180770395Y-81569924D01*
X180770395Y-81569924D02*
X180651347Y-81450876D01*
X180651347Y-81450876D02*
X180591823Y-81272305D01*
X180591823Y-81272305D02*
X180591823Y-81153257D01*
X180591823Y-81153257D02*
X180651347Y-80974686D01*
X180651347Y-80974686D02*
X180710871Y-80915162D01*
G36*
X179887087Y-68882072D02*
G01*
X179887087Y-69992384D01*
X180469912Y-69992384D01*
X180510753Y-69990181D01*
X180543499Y-69984523D01*
X180580538Y-69974201D01*
X180605772Y-69966815D01*
X180568143Y-69840343D01*
X180536096Y-69851449D01*
X180503969Y-69859084D01*
X180468156Y-69862554D01*
X180019589Y-69864233D01*
X180020408Y-69746387D01*
X180022108Y-69446502D01*
X180022108Y-69420856D01*
X180396410Y-69420856D01*
X180396410Y-69292705D01*
X180022108Y-69292705D01*
X180022108Y-69009383D01*
X180559595Y-69009383D01*
X180559595Y-68881232D01*
X180545932Y-68881232D01*
X180443342Y-68880268D01*
X180239179Y-68878637D01*
X180145145Y-68878637D01*
X180061416Y-68878637D01*
X179887087Y-68882072D01*
G37*
G36*
X180935576Y-69195008D02*
G01*
X180914380Y-69109973D01*
X180909931Y-69098456D01*
X180773231Y-69130054D01*
X180774899Y-69136573D01*
X180794940Y-69233308D01*
X180800556Y-69384601D01*
X180800556Y-69987500D01*
X180935576Y-69986660D01*
X180935576Y-69337585D01*
X181089113Y-69268181D01*
X181146437Y-69248978D01*
X181192562Y-69241417D01*
X181197069Y-69241338D01*
X181227598Y-69243814D01*
X181259495Y-69251380D01*
X181287652Y-69263213D01*
X181311571Y-69279823D01*
X181325426Y-69295936D01*
X181334041Y-69315043D01*
X181336363Y-69332776D01*
X181336363Y-69812332D01*
X181338719Y-69843974D01*
X181345441Y-69871859D01*
X181370440Y-69918551D01*
X181411676Y-69957947D01*
X181475002Y-69995414D01*
X181490160Y-70002917D01*
X181561906Y-69907205D01*
X181552949Y-69902436D01*
X181521601Y-69884978D01*
X181495630Y-69865417D01*
X181477927Y-69840332D01*
X181471384Y-69806302D01*
X181471384Y-69306291D01*
X181462246Y-69254500D01*
X181435575Y-69208419D01*
X181390732Y-69167684D01*
X181327444Y-69134809D01*
X181251596Y-69115540D01*
X181215845Y-69113110D01*
X181166026Y-69115593D01*
X181117644Y-69123203D01*
X181022224Y-69153380D01*
X180935576Y-69194321D01*
X180935576Y-69195008D01*
G37*
G36*
X182070609Y-69110721D02*
G01*
X182154574Y-69128984D01*
X182225531Y-69163249D01*
X182255970Y-69185872D01*
X182282922Y-69211934D01*
X182306330Y-69241394D01*
X182325901Y-69273949D01*
X182341626Y-69309821D01*
X182353100Y-69348471D01*
X182360227Y-69390307D01*
X182362641Y-69434595D01*
X182362641Y-69716085D01*
X182367121Y-69817113D01*
X182373709Y-69839580D01*
X182416448Y-69875591D01*
X182441257Y-69894153D01*
X182370274Y-69995819D01*
X182348039Y-69979683D01*
X182308687Y-69949149D01*
X182278086Y-69910188D01*
X182267071Y-69884956D01*
X182259220Y-69854006D01*
X182183182Y-69918598D01*
X182112965Y-69958367D01*
X182032698Y-69983390D01*
X181987335Y-69990039D01*
X181937048Y-69992384D01*
X181884053Y-69986963D01*
X181849157Y-69977082D01*
X181816517Y-69962645D01*
X181785825Y-69943589D01*
X181758193Y-69920615D01*
X181713570Y-69864680D01*
X181685844Y-69799802D01*
X181676471Y-69730510D01*
X181677605Y-69722038D01*
X181809737Y-69722038D01*
X181809897Y-69730900D01*
X181820351Y-69787085D01*
X181844937Y-69827253D01*
X181862473Y-69842084D01*
X181883194Y-69852992D01*
X181908514Y-69860138D01*
X181937048Y-69862554D01*
X181951201Y-69862272D01*
X182011043Y-69854438D01*
X182063212Y-69837739D01*
X182107945Y-69814704D01*
X182145483Y-69787866D01*
X182199928Y-69732907D01*
X182228460Y-69693111D01*
X182228460Y-69612205D01*
X182189019Y-69591081D01*
X182114791Y-69566464D01*
X182027647Y-69557632D01*
X181952672Y-69567321D01*
X181890505Y-69592551D01*
X181845892Y-69628439D01*
X181819007Y-69671815D01*
X181812117Y-69695972D01*
X181809737Y-69722038D01*
X181677605Y-69722038D01*
X181685978Y-69659515D01*
X181713011Y-69591800D01*
X181752492Y-69538016D01*
X181764255Y-69526476D01*
X181796863Y-69499094D01*
X181830176Y-69477423D01*
X181867818Y-69459485D01*
X181906646Y-69447007D01*
X181962204Y-69437367D01*
X182020778Y-69434595D01*
X182061338Y-69435421D01*
X182153835Y-69447274D01*
X182194183Y-69460527D01*
X182228460Y-69478177D01*
X182227558Y-69444830D01*
X182215476Y-69366437D01*
X182191445Y-69311378D01*
X182155258Y-69272536D01*
X182130817Y-69257845D01*
X182102509Y-69247111D01*
X182065962Y-69239741D01*
X182024212Y-69237292D01*
X181951023Y-69242446D01*
X181895044Y-69260401D01*
X181869386Y-69276569D01*
X181845289Y-69298286D01*
X181814866Y-69336207D01*
X181784091Y-69386357D01*
X181673037Y-69315679D01*
X181710812Y-69254174D01*
X181767400Y-69191367D01*
X181799281Y-69166836D01*
X181833197Y-69147038D01*
X181872422Y-69130525D01*
X181914139Y-69118852D01*
X181966541Y-69110775D01*
X182022533Y-69108225D01*
X182070609Y-69110721D01*
G37*
G36*
X182735365Y-68805803D02*
G01*
X182744576Y-69004498D01*
X182744576Y-69178674D01*
X182748707Y-69175569D01*
X182785552Y-69149620D01*
X182837207Y-69126720D01*
X182869226Y-69120307D01*
X182907761Y-69117995D01*
X182927139Y-69118319D01*
X183019428Y-69130325D01*
X183059300Y-69142357D01*
X183095635Y-69158246D01*
X183128986Y-69178174D01*
X183158882Y-69201792D01*
X183186678Y-69230428D01*
X183210876Y-69262818D01*
X183233166Y-69301968D01*
X183251499Y-69345125D01*
X183267361Y-69397365D01*
X183278727Y-69453982D01*
X183286369Y-69522397D01*
X183288856Y-69595566D01*
X183282074Y-69696875D01*
X183260586Y-69788292D01*
X183226709Y-69860405D01*
X183181427Y-69915969D01*
X183124025Y-69956779D01*
X183089910Y-69971827D01*
X183052194Y-69982909D01*
X183009364Y-69989979D01*
X182962486Y-69992384D01*
X182886290Y-69985242D01*
X182847289Y-69974856D01*
X182811950Y-69960308D01*
X182776473Y-69939631D01*
X182744576Y-69914685D01*
X182737532Y-69982247D01*
X182735188Y-69996659D01*
X182594214Y-69980478D01*
X182602497Y-69916247D01*
X182610395Y-69779206D01*
X182610395Y-69758827D01*
X182609995Y-69402673D01*
X182609941Y-69353308D01*
X182744576Y-69353308D01*
X182744576Y-69724786D01*
X182783874Y-69782086D01*
X182826923Y-69825276D01*
X182850849Y-69839944D01*
X182877978Y-69850577D01*
X182916303Y-69858300D01*
X182962486Y-69860799D01*
X182973541Y-69860583D01*
X183034328Y-69849638D01*
X183059487Y-69838131D01*
X183081289Y-69822789D01*
X183101422Y-69801859D01*
X183117979Y-69776714D01*
X183133162Y-69742001D01*
X183144048Y-69701996D01*
X183152192Y-69644421D01*
X183154751Y-69579461D01*
X183148174Y-69479202D01*
X183127353Y-69393966D01*
X183095014Y-69332065D01*
X183074588Y-69307993D01*
X183051599Y-69288405D01*
X183024453Y-69272244D01*
X182994771Y-69260718D01*
X182958600Y-69252996D01*
X182919744Y-69250497D01*
X182869986Y-69258955D01*
X182826870Y-69280692D01*
X182789223Y-69310251D01*
X182755870Y-69342176D01*
X182744576Y-69353308D01*
X182609941Y-69353308D01*
X182609556Y-69000224D01*
X182605405Y-68886088D01*
X182596733Y-68788725D01*
X182732593Y-68780940D01*
X182735365Y-68805803D01*
G37*
G36*
X183774289Y-68771170D02*
G01*
X183634984Y-68774824D01*
X183562788Y-68782022D01*
X183490585Y-68795136D01*
X183514475Y-68917334D01*
X183603005Y-68905151D01*
X183676820Y-68902832D01*
X183717065Y-68903340D01*
X183740095Y-68903672D01*
X183742613Y-69810652D01*
X183747457Y-69867307D01*
X183756212Y-69896869D01*
X183771592Y-69925375D01*
X183788988Y-69945629D01*
X183812146Y-69963797D01*
X183822069Y-69969716D01*
X183878582Y-69989887D01*
X183970945Y-70001622D01*
X183997313Y-70002154D01*
X184055208Y-69999657D01*
X184113993Y-69991951D01*
X184167358Y-69979867D01*
X184217814Y-69962766D01*
X184257406Y-69943919D01*
X184292451Y-69921032D01*
X184298876Y-69915906D01*
X184240792Y-69818361D01*
X184187393Y-69847525D01*
X184107704Y-69870226D01*
X184007755Y-69880752D01*
X183996397Y-69880872D01*
X183946172Y-69879349D01*
X183909874Y-69871128D01*
X183896736Y-69862794D01*
X183886828Y-69850732D01*
X183876361Y-69812685D01*
X183875955Y-69807294D01*
X183873360Y-68771170D01*
X183774289Y-68771170D01*
G37*
G36*
X184794377Y-69114441D02*
G01*
X184837946Y-69120293D01*
X184877396Y-69130424D01*
X184914664Y-69145243D01*
X184947834Y-69163856D01*
X184980020Y-69188271D01*
X185007800Y-69216084D01*
X185035256Y-69252248D01*
X185057575Y-69291149D01*
X185079517Y-69343385D01*
X185094936Y-69396145D01*
X185109760Y-69485600D01*
X185113274Y-69556258D01*
X185112434Y-69592971D01*
X184868126Y-69608239D01*
X184526251Y-69621135D01*
X184530630Y-69675228D01*
X184550372Y-69740631D01*
X184584121Y-69792759D01*
X184631472Y-69831867D01*
X184660725Y-69846430D01*
X184693872Y-69857289D01*
X184731812Y-69864214D01*
X184774005Y-69866599D01*
X184791560Y-69866120D01*
X184832190Y-69861085D01*
X184868524Y-69851344D01*
X184906557Y-69834854D01*
X184938834Y-69814683D01*
X184975401Y-69782785D01*
X185001304Y-69751653D01*
X185106404Y-69845839D01*
X185104099Y-69848390D01*
X185078015Y-69875990D01*
X185018959Y-69924876D01*
X184947826Y-69963528D01*
X184865313Y-69988416D01*
X184770570Y-69997269D01*
X184755155Y-69997042D01*
X184664778Y-69985277D01*
X184624811Y-69973090D01*
X184588030Y-69956894D01*
X184553985Y-69936537D01*
X184523197Y-69912374D01*
X184494679Y-69883440D01*
X184469649Y-69850753D01*
X184446984Y-69812336D01*
X184428192Y-69770135D01*
X184412424Y-69721261D01*
X184401022Y-69668582D01*
X184393676Y-69608704D01*
X184391231Y-69545115D01*
X184391675Y-69520199D01*
X184395276Y-69490465D01*
X184526251Y-69490465D01*
X184778405Y-69482656D01*
X184977414Y-69468178D01*
X184976420Y-69459272D01*
X184957835Y-69383994D01*
X184924568Y-69323926D01*
X184879325Y-69279877D01*
X184824117Y-69252522D01*
X184793163Y-69245426D01*
X184760343Y-69243017D01*
X184728534Y-69244938D01*
X184694565Y-69251644D01*
X184663368Y-69262793D01*
X184633996Y-69278687D01*
X184607874Y-69298542D01*
X184584226Y-69323014D01*
X184564404Y-69350841D01*
X184548160Y-69382455D01*
X184536280Y-69416574D01*
X184528907Y-69452794D01*
X184526251Y-69490465D01*
X184395276Y-69490465D01*
X184404482Y-69414444D01*
X184433006Y-69324287D01*
X184474845Y-69250283D01*
X184528423Y-69192106D01*
X184593261Y-69149413D01*
X184630079Y-69133936D01*
X184669894Y-69122582D01*
X184713185Y-69115515D01*
X184759503Y-69113110D01*
X184794377Y-69114441D01*
G37*
D11*
G36*
X204102128Y-105850406D02*
G01*
X204362430Y-105850406D01*
X204362430Y-106281067D01*
X204102128Y-106281067D01*
X204102128Y-107090000D01*
X203574930Y-107090000D01*
X203574930Y-106287295D01*
X202648028Y-106291509D01*
X202463564Y-105942730D01*
X202542260Y-105854619D01*
X203049930Y-105854619D01*
X203574930Y-105850406D01*
X203574930Y-105184356D01*
X203453408Y-105375509D01*
X203319368Y-105551705D01*
X203049930Y-105854619D01*
X202542260Y-105854619D01*
X202575312Y-105817612D01*
X202749541Y-105625984D01*
X203097931Y-105216520D01*
X203351764Y-104873114D01*
X203510006Y-104607254D01*
X203591416Y-104409495D01*
X204102128Y-104405282D01*
X204102128Y-105850406D01*
G37*
G36*
X205631394Y-104393565D02*
G01*
X205732673Y-104399550D01*
X205825803Y-104416314D01*
X205912806Y-104443893D01*
X205991958Y-104481371D01*
X206068003Y-104531422D01*
X206135901Y-104591119D01*
X206202347Y-104667876D01*
X206259736Y-104754434D01*
X206315500Y-104865227D01*
X206360722Y-104985871D01*
X206402186Y-105140905D01*
X206431162Y-105304582D01*
X206452064Y-105517657D01*
X206458400Y-105733719D01*
X206445435Y-106055105D01*
X206400366Y-106364862D01*
X206328413Y-106609145D01*
X206234035Y-106797350D01*
X206119203Y-106938563D01*
X205982586Y-107039472D01*
X205904755Y-107075790D01*
X205819357Y-107102600D01*
X205724794Y-107119418D01*
X205621807Y-107125170D01*
X205609812Y-107125110D01*
X205399363Y-107101448D01*
X205307662Y-107074341D01*
X205224658Y-107037790D01*
X205146907Y-106990187D01*
X205077761Y-106933538D01*
X205011551Y-106862071D01*
X204954504Y-106781384D01*
X204899805Y-106678967D01*
X204855459Y-106566810D01*
X204814733Y-106421225D01*
X204812411Y-106408562D01*
X205344836Y-106408562D01*
X205369645Y-106490545D01*
X205426437Y-106611773D01*
X205493353Y-106675132D01*
X205539830Y-106692843D01*
X205595062Y-106698722D01*
X205673902Y-106686896D01*
X205723936Y-106663665D01*
X205767236Y-106629175D01*
X205811936Y-106572764D01*
X205848094Y-106502532D01*
X205896550Y-106336925D01*
X205923492Y-106139686D01*
X205937613Y-105698731D01*
X205935415Y-105597981D01*
X205344836Y-106408562D01*
X204812411Y-106408562D01*
X204786178Y-106265509D01*
X204764704Y-106049472D01*
X204758286Y-105824394D01*
X204759647Y-105793436D01*
X205281271Y-105793436D01*
X205285301Y-105896385D01*
X205861592Y-105096062D01*
X205845160Y-105043650D01*
X205790836Y-104906534D01*
X205735089Y-104843837D01*
X205686947Y-104824313D01*
X205623822Y-104818175D01*
X205613095Y-104818409D01*
X205560944Y-104826904D01*
X205514523Y-104846854D01*
X205466266Y-104884114D01*
X205425108Y-104934403D01*
X205380535Y-105018173D01*
X205346160Y-105117707D01*
X205311943Y-105280626D01*
X205292313Y-105455663D01*
X205281271Y-105793436D01*
X204759647Y-105793436D01*
X204774972Y-105444749D01*
X204822535Y-105140377D01*
X204896214Y-104901759D01*
X204992381Y-104717743D01*
X205109865Y-104578951D01*
X205250777Y-104479057D01*
X205331709Y-104442867D01*
X205420656Y-104416147D01*
X205519738Y-104399313D01*
X205627852Y-104393558D01*
X205631394Y-104393565D01*
G37*
G36*
X208445743Y-105850406D02*
G01*
X208706045Y-105850406D01*
X208706045Y-106281067D01*
X208445743Y-106281067D01*
X208445743Y-107090000D01*
X207918545Y-107090000D01*
X207918545Y-106287295D01*
X206991643Y-106291509D01*
X206807178Y-105942730D01*
X206885874Y-105854619D01*
X207393545Y-105854619D01*
X207918545Y-105850406D01*
X207918545Y-105184356D01*
X207797023Y-105375509D01*
X207662983Y-105551705D01*
X207393545Y-105854619D01*
X206885874Y-105854619D01*
X206918927Y-105817612D01*
X207093156Y-105625984D01*
X207441546Y-105216520D01*
X207695379Y-104873114D01*
X207853621Y-104607254D01*
X207935031Y-104409495D01*
X208445743Y-104405282D01*
X208445743Y-105850406D01*
G37*
G36*
X209975009Y-104393565D02*
G01*
X210076288Y-104399550D01*
X210169418Y-104416314D01*
X210256421Y-104443893D01*
X210335573Y-104481371D01*
X210411618Y-104531422D01*
X210479515Y-104591119D01*
X210545962Y-104667876D01*
X210603351Y-104754434D01*
X210659115Y-104865227D01*
X210704337Y-104985871D01*
X210745801Y-105140905D01*
X210774777Y-105304582D01*
X210795679Y-105517657D01*
X210802015Y-105733719D01*
X210789050Y-106055105D01*
X210743980Y-106364862D01*
X210672028Y-106609145D01*
X210577649Y-106797350D01*
X210462817Y-106938563D01*
X210326201Y-107039472D01*
X210248370Y-107075790D01*
X210162972Y-107102600D01*
X210068409Y-107119418D01*
X209965422Y-107125170D01*
X209953427Y-107125110D01*
X209742978Y-107101448D01*
X209651276Y-107074341D01*
X209568273Y-107037790D01*
X209490522Y-106990187D01*
X209421376Y-106933538D01*
X209355165Y-106862071D01*
X209298118Y-106781384D01*
X209243420Y-106678967D01*
X209199073Y-106566810D01*
X209158348Y-106421225D01*
X209156026Y-106408562D01*
X209688450Y-106408562D01*
X209713260Y-106490545D01*
X209770052Y-106611773D01*
X209836968Y-106675132D01*
X209883445Y-106692843D01*
X209938677Y-106698722D01*
X210017516Y-106686896D01*
X210067551Y-106663665D01*
X210110851Y-106629175D01*
X210155551Y-106572764D01*
X210191709Y-106502532D01*
X210240165Y-106336925D01*
X210267107Y-106139686D01*
X210281228Y-105698731D01*
X210279030Y-105597981D01*
X209688450Y-106408562D01*
X209156026Y-106408562D01*
X209129792Y-106265509D01*
X209108318Y-106049472D01*
X209101901Y-105824394D01*
X209103262Y-105793436D01*
X209624886Y-105793436D01*
X209628916Y-105896385D01*
X210205207Y-105096062D01*
X210188775Y-105043650D01*
X210134451Y-104906534D01*
X210078704Y-104843837D01*
X210030562Y-104824313D01*
X209967437Y-104818175D01*
X209956710Y-104818409D01*
X209904559Y-104826904D01*
X209858138Y-104846854D01*
X209809881Y-104884114D01*
X209768723Y-104934403D01*
X209724150Y-105018173D01*
X209689774Y-105117707D01*
X209655558Y-105280626D01*
X209635928Y-105455663D01*
X209624886Y-105793436D01*
X209103262Y-105793436D01*
X209118587Y-105444749D01*
X209166150Y-105140377D01*
X209239829Y-104901759D01*
X209335996Y-104717743D01*
X209453480Y-104578951D01*
X209594392Y-104479057D01*
X209675324Y-104442867D01*
X209764271Y-104416147D01*
X209863353Y-104399313D01*
X209971467Y-104393558D01*
X209975009Y-104393565D01*
G37*
D10*
G36*
X174486195Y-69205414D02*
G01*
X174516101Y-69207901D01*
X174544970Y-69215542D01*
X174571229Y-69227736D01*
X174596443Y-69244996D01*
X174643839Y-69296078D01*
X174676705Y-69350662D01*
X174792949Y-69281435D01*
X174765543Y-69236898D01*
X174735616Y-69197568D01*
X174704311Y-69164388D01*
X174671037Y-69136264D01*
X174636967Y-69113819D01*
X174601412Y-69096284D01*
X174565318Y-69083925D01*
X174528155Y-69076396D01*
X174488714Y-69073752D01*
X174401290Y-69082965D01*
X174319930Y-69109910D01*
X174246617Y-69153438D01*
X174184950Y-69211292D01*
X174161429Y-69242127D01*
X174130742Y-69292778D01*
X174098740Y-69362732D01*
X174079378Y-69420345D01*
X174063385Y-69487133D01*
X174053549Y-69551908D01*
X174048346Y-69623781D01*
X174047780Y-69657493D01*
X174050225Y-69727712D01*
X174057576Y-69793225D01*
X174068936Y-69850519D01*
X174084638Y-69903984D01*
X174103767Y-69951744D01*
X174126909Y-69996255D01*
X174184187Y-70074821D01*
X174200737Y-70092474D01*
X174259665Y-70137437D01*
X174331507Y-70169463D01*
X174416869Y-70188061D01*
X174488714Y-70192384D01*
X174491309Y-70192384D01*
X174534636Y-70189990D01*
X174575547Y-70182996D01*
X174651039Y-70155869D01*
X174718467Y-70111684D01*
X174777600Y-70050302D01*
X174826993Y-69971603D01*
X174831417Y-69962567D01*
X174712578Y-69897614D01*
X174692214Y-69936228D01*
X174667882Y-69970484D01*
X174643110Y-69996464D01*
X174614775Y-70018484D01*
X174585026Y-70035138D01*
X174551777Y-70047875D01*
X174515488Y-70056345D01*
X174475430Y-70060573D01*
X174469938Y-70060799D01*
X174457955Y-70060799D01*
X174409871Y-70057974D01*
X174368924Y-70047971D01*
X174316141Y-70017588D01*
X174293931Y-69998440D01*
X174248318Y-69943297D01*
X174214523Y-69872675D01*
X174192507Y-69782668D01*
X174183705Y-69667716D01*
X174183640Y-69655737D01*
X174185954Y-69588964D01*
X174192389Y-69530063D01*
X174215993Y-69429409D01*
X174250655Y-69350460D01*
X174270804Y-69318224D01*
X174294157Y-69290026D01*
X174322970Y-69263599D01*
X174354104Y-69242069D01*
X174389315Y-69224490D01*
X174423819Y-69213125D01*
X174461134Y-69206632D01*
X174486195Y-69205414D01*
G37*
G36*
X175259529Y-68971170D02*
G01*
X175120225Y-68974824D01*
X175048029Y-68982022D01*
X174975826Y-68995136D01*
X174999716Y-69117334D01*
X175088246Y-69105151D01*
X175162061Y-69102832D01*
X175202306Y-69103340D01*
X175225335Y-69103672D01*
X175227854Y-70010652D01*
X175232698Y-70067307D01*
X175241453Y-70096869D01*
X175256832Y-70125375D01*
X175274229Y-70145629D01*
X175297387Y-70163797D01*
X175307309Y-70169716D01*
X175363823Y-70189887D01*
X175456186Y-70201622D01*
X175482554Y-70202154D01*
X175540449Y-70199657D01*
X175599233Y-70191951D01*
X175652598Y-70179867D01*
X175703055Y-70162766D01*
X175742647Y-70143919D01*
X175777692Y-70121032D01*
X175784117Y-70115906D01*
X175726033Y-70018361D01*
X175672633Y-70047525D01*
X175592945Y-70070226D01*
X175492996Y-70080752D01*
X175481638Y-70080872D01*
X175431413Y-70079349D01*
X175395114Y-70071128D01*
X175381977Y-70062794D01*
X175372068Y-70050732D01*
X175361601Y-70012685D01*
X175361195Y-70007294D01*
X175358600Y-68971170D01*
X175259529Y-68971170D01*
G37*
G36*
X176266583Y-69305985D02*
G01*
X176353170Y-69322862D01*
X176389591Y-69336792D01*
X176422346Y-69354392D01*
X176452874Y-69376606D01*
X176480017Y-69402732D01*
X176506790Y-69436612D01*
X176530126Y-69475303D01*
X176541485Y-69499912D01*
X176558413Y-69549944D01*
X176570401Y-69603995D01*
X176578084Y-69664059D01*
X176580578Y-69722675D01*
X176579171Y-69776791D01*
X176565050Y-69891038D01*
X176537872Y-69982959D01*
X176499506Y-70055405D01*
X176450523Y-70111163D01*
X176389966Y-70152018D01*
X176354527Y-70167008D01*
X176315419Y-70178081D01*
X176271464Y-70185101D01*
X176223373Y-70187500D01*
X176221693Y-70187500D01*
X176147141Y-70181360D01*
X176068332Y-70158697D01*
X176033895Y-70141453D01*
X176002744Y-70120444D01*
X175974256Y-70095170D01*
X175949229Y-70066238D01*
X175926746Y-70032193D01*
X175908072Y-69994470D01*
X175892442Y-69950646D01*
X175881112Y-69903077D01*
X175873798Y-69848681D01*
X175871358Y-69790529D01*
X175871463Y-69786254D01*
X176006302Y-69786254D01*
X176009473Y-69843366D01*
X176026908Y-69920111D01*
X176057013Y-69977787D01*
X176098730Y-70019219D01*
X176124448Y-70034389D01*
X176153248Y-70045507D01*
X176186650Y-70052657D01*
X176223373Y-70055074D01*
X176244380Y-70054282D01*
X176306114Y-70042316D01*
X176337855Y-70026922D01*
X176368621Y-70004394D01*
X176371254Y-70001857D01*
X176391480Y-69977988D01*
X176408099Y-69949913D01*
X176423196Y-69911961D01*
X176434032Y-69868420D01*
X176442161Y-69805506D01*
X176444718Y-69733895D01*
X176444718Y-69718401D01*
X176440028Y-69648405D01*
X176421826Y-69569210D01*
X176392649Y-69511024D01*
X176353477Y-69470085D01*
X176329743Y-69455328D01*
X176302825Y-69444384D01*
X176271743Y-69437396D01*
X176237035Y-69435003D01*
X176187691Y-69439126D01*
X176156548Y-69447030D01*
X176128845Y-69458885D01*
X176103511Y-69475234D01*
X176081554Y-69495502D01*
X176060851Y-69522479D01*
X176043878Y-69553844D01*
X176028280Y-69596281D01*
X176017161Y-69644095D01*
X176008880Y-69711626D01*
X176006302Y-69786254D01*
X175871463Y-69786254D01*
X175872635Y-69738714D01*
X175887018Y-69617685D01*
X175914868Y-69518662D01*
X175953527Y-69440730D01*
X176001497Y-69381607D01*
X176058754Y-69339213D01*
X176091235Y-69323981D01*
X176126740Y-69312751D01*
X176165752Y-69305738D01*
X176208031Y-69303340D01*
X176266583Y-69305985D01*
G37*
G36*
X176911222Y-69736871D02*
G01*
X176913677Y-69681119D01*
X176921097Y-69631863D01*
X176931845Y-69593601D01*
X176946583Y-69560132D01*
X176963712Y-69533463D01*
X176984308Y-69510639D01*
X177034643Y-69476784D01*
X177101535Y-69455884D01*
X177187292Y-69448741D01*
X177225132Y-69451056D01*
X177256803Y-69457487D01*
X177283206Y-69467418D01*
X177304482Y-69479990D01*
X177335969Y-69512589D01*
X177354691Y-69552618D01*
X177358186Y-69564680D01*
X177489772Y-69513542D01*
X177459502Y-69453489D01*
X177438396Y-69423297D01*
X177411844Y-69394453D01*
X177392304Y-69377834D01*
X177361540Y-69357345D01*
X177327883Y-69341055D01*
X177252977Y-69321638D01*
X177196680Y-69317995D01*
X177128629Y-69320505D01*
X177066114Y-69328307D01*
X177016880Y-69339562D01*
X176971937Y-69355293D01*
X176935330Y-69373433D01*
X176902317Y-69395573D01*
X176874671Y-69420146D01*
X176850298Y-69448558D01*
X176812133Y-69516202D01*
X176786802Y-69602687D01*
X176775639Y-69714080D01*
X176775362Y-69736871D01*
X176777961Y-69812648D01*
X176786387Y-69882793D01*
X176797936Y-69934681D01*
X176814284Y-69982807D01*
X176832971Y-70021897D01*
X176856051Y-70057981D01*
X176881832Y-70088889D01*
X176911983Y-70117097D01*
X176920686Y-70124073D01*
X176982525Y-70159306D01*
X177057745Y-70181623D01*
X177150784Y-70191586D01*
X177196680Y-70192384D01*
X177246774Y-70190048D01*
X177291959Y-70183459D01*
X177371833Y-70158685D01*
X177438473Y-70120407D01*
X177493116Y-70070816D01*
X177532570Y-70020290D01*
X177542742Y-70006302D01*
X177435046Y-69928678D01*
X177409628Y-69965735D01*
X177378991Y-69998154D01*
X177351936Y-70018520D01*
X177320477Y-70035198D01*
X177287283Y-70046816D01*
X177249359Y-70054573D01*
X177193246Y-70058280D01*
X177182102Y-70058280D01*
X177123118Y-70055750D01*
X177090324Y-70050430D01*
X177056971Y-70040487D01*
X177024293Y-70024482D01*
X176993521Y-70000976D01*
X176965887Y-69968530D01*
X176942623Y-69925704D01*
X176929493Y-69888411D01*
X176919593Y-69844712D01*
X176911222Y-69736871D01*
G37*
G36*
X177847235Y-68967138D02*
G01*
X177862503Y-69014584D01*
X177870027Y-69081003D01*
X177870027Y-69434239D01*
X177907878Y-69409839D01*
X178007146Y-69356778D01*
X178089430Y-69326786D01*
X178150296Y-69317995D01*
X178217840Y-69326149D01*
X178283631Y-69351957D01*
X178334528Y-69390756D01*
X178367973Y-69437905D01*
X178383548Y-69490720D01*
X178387822Y-69560940D01*
X178381029Y-69640548D01*
X178375560Y-69658421D01*
X178344191Y-69713659D01*
X178298005Y-69763406D01*
X178243414Y-69798924D01*
X178277500Y-69831604D01*
X178301770Y-69868788D01*
X178333753Y-69950072D01*
X178343984Y-69980173D01*
X178370725Y-70039427D01*
X178403316Y-70080214D01*
X178441632Y-70111326D01*
X178369886Y-70203757D01*
X178335374Y-70183423D01*
X178306583Y-70159689D01*
X178263383Y-70105408D01*
X178234722Y-70047687D01*
X178215039Y-69993300D01*
X178211815Y-69983786D01*
X178202759Y-69962513D01*
X178184399Y-69933554D01*
X178160857Y-69907320D01*
X178125961Y-69878582D01*
X178086285Y-69853839D01*
X178032647Y-69828399D01*
X177977639Y-69808862D01*
X177921018Y-69794272D01*
X177870867Y-69786025D01*
X177869188Y-70077132D01*
X177869672Y-70143493D01*
X177870027Y-70187500D01*
X177735846Y-70187500D01*
X177735846Y-69581472D01*
X177870027Y-69581472D01*
X177870027Y-69658485D01*
X178033564Y-69690647D01*
X178039166Y-69691915D01*
X178120376Y-69702983D01*
X178127181Y-69702819D01*
X178152928Y-69698985D01*
X178175882Y-69690513D01*
X178197852Y-69676535D01*
X178216295Y-69658456D01*
X178232364Y-69634879D01*
X178244010Y-69608380D01*
X178253641Y-69549797D01*
X178247688Y-69506978D01*
X178228972Y-69472806D01*
X178198815Y-69449681D01*
X178158005Y-69441109D01*
X178141651Y-69442159D01*
X178115128Y-69447992D01*
X178085343Y-69459885D01*
X178022155Y-69491259D01*
X177942404Y-69535517D01*
X177870027Y-69581472D01*
X177735846Y-69581472D01*
X177735846Y-69136645D01*
X177734536Y-69101375D01*
X177727518Y-69048705D01*
X177716231Y-69003990D01*
X177846901Y-68966285D01*
X177847235Y-68967138D01*
G37*
G36*
X206803971Y-68877448D02*
G01*
X206912812Y-68891547D01*
X206994734Y-68917128D01*
X207062028Y-68956304D01*
X207092577Y-68982595D01*
X207121127Y-69013886D01*
X207155120Y-69065949D01*
X207183014Y-69139235D01*
X207192110Y-69210044D01*
X207189541Y-69264276D01*
X207172570Y-69347938D01*
X207141604Y-69413573D01*
X207120951Y-69440834D01*
X207096947Y-69464443D01*
X207068540Y-69485130D01*
X207036678Y-69501937D01*
X206998777Y-69515681D01*
X206957102Y-69525041D01*
X206987419Y-69572652D01*
X207104555Y-69753251D01*
X207167304Y-69838740D01*
X207174676Y-69845578D01*
X207207463Y-69873074D01*
X207245080Y-69890947D01*
X207194628Y-70005512D01*
X207179373Y-70002346D01*
X207148241Y-69991046D01*
X207119352Y-69974605D01*
X207092421Y-69953318D01*
X207069912Y-69929415D01*
X207001075Y-69841037D01*
X206925750Y-69728510D01*
X206805959Y-69533201D01*
X206804145Y-69530155D01*
X206620051Y-69503461D01*
X206611041Y-69501914D01*
X206611880Y-69986660D01*
X206476860Y-69986660D01*
X206476860Y-69036097D01*
X206475983Y-69005414D01*
X206609285Y-69005414D01*
X206611041Y-69372008D01*
X206678233Y-69385381D01*
X206747680Y-69398959D01*
X206833225Y-69407117D01*
X206875052Y-69404522D01*
X206934241Y-69394325D01*
X206989769Y-69374438D01*
X207026134Y-69345176D01*
X207039806Y-69324533D01*
X207049954Y-69299408D01*
X207057180Y-69264381D01*
X207059608Y-69221951D01*
X207058595Y-69199918D01*
X207044655Y-69144127D01*
X207030545Y-69117519D01*
X207010912Y-69091510D01*
X206995251Y-69075425D01*
X206970191Y-69056327D01*
X206940738Y-69040662D01*
X206899724Y-69026269D01*
X206851096Y-69015874D01*
X206766910Y-69007141D01*
X206663171Y-69004498D01*
X206609285Y-69005414D01*
X206475983Y-69005414D01*
X206472585Y-68886575D01*
X206477809Y-68886085D01*
X206541414Y-68880379D01*
X206658897Y-68873752D01*
X206803971Y-68877448D01*
G37*
G36*
X207774698Y-69114441D02*
G01*
X207818267Y-69120293D01*
X207857717Y-69130424D01*
X207894985Y-69145243D01*
X207928155Y-69163856D01*
X207960341Y-69188271D01*
X207988121Y-69216084D01*
X208015577Y-69252248D01*
X208037896Y-69291149D01*
X208059838Y-69343385D01*
X208075257Y-69396145D01*
X208090081Y-69485600D01*
X208093595Y-69556258D01*
X208092755Y-69592971D01*
X207848447Y-69608239D01*
X207506572Y-69621135D01*
X207510951Y-69675228D01*
X207530693Y-69740631D01*
X207564442Y-69792759D01*
X207611793Y-69831867D01*
X207641046Y-69846430D01*
X207674193Y-69857289D01*
X207712133Y-69864214D01*
X207754326Y-69866599D01*
X207771881Y-69866120D01*
X207812511Y-69861085D01*
X207848845Y-69851344D01*
X207886878Y-69834854D01*
X207919155Y-69814683D01*
X207955722Y-69782785D01*
X207981625Y-69751653D01*
X208086725Y-69845839D01*
X208084420Y-69848390D01*
X208058336Y-69875990D01*
X207999280Y-69924876D01*
X207928147Y-69963528D01*
X207845634Y-69988416D01*
X207750891Y-69997269D01*
X207735476Y-69997042D01*
X207645099Y-69985277D01*
X207605132Y-69973090D01*
X207568351Y-69956894D01*
X207534306Y-69936537D01*
X207503518Y-69912374D01*
X207475000Y-69883440D01*
X207449970Y-69850753D01*
X207427305Y-69812336D01*
X207408513Y-69770135D01*
X207392745Y-69721261D01*
X207381343Y-69668582D01*
X207373997Y-69608704D01*
X207371552Y-69545115D01*
X207371996Y-69520199D01*
X207375597Y-69490465D01*
X207506572Y-69490465D01*
X207758726Y-69482656D01*
X207957735Y-69468178D01*
X207956741Y-69459272D01*
X207938156Y-69383994D01*
X207904889Y-69323926D01*
X207859646Y-69279877D01*
X207804438Y-69252522D01*
X207773484Y-69245426D01*
X207740664Y-69243017D01*
X207708855Y-69244938D01*
X207674886Y-69251644D01*
X207643689Y-69262793D01*
X207614317Y-69278687D01*
X207588195Y-69298542D01*
X207564547Y-69323014D01*
X207544725Y-69350841D01*
X207528481Y-69382455D01*
X207516601Y-69416574D01*
X207509228Y-69452794D01*
X207506572Y-69490465D01*
X207375597Y-69490465D01*
X207384803Y-69414444D01*
X207413327Y-69324287D01*
X207455166Y-69250283D01*
X207508744Y-69192106D01*
X207573582Y-69149413D01*
X207610400Y-69133936D01*
X207650215Y-69122582D01*
X207693506Y-69115515D01*
X207739824Y-69113110D01*
X207774698Y-69114441D01*
G37*
G36*
X208438817Y-69500311D02*
G01*
X208519416Y-69533446D01*
X208597103Y-69558719D01*
X208695746Y-69591576D01*
X208737174Y-69608825D01*
X208769460Y-69627165D01*
X208816858Y-69668332D01*
X208831856Y-69690297D01*
X208840631Y-69715833D01*
X208842962Y-69741272D01*
X208840590Y-69765233D01*
X208833756Y-69786883D01*
X208807475Y-69824197D01*
X208763330Y-69854112D01*
X208699778Y-69874266D01*
X208636195Y-69880033D01*
X208593312Y-69877603D01*
X208556147Y-69870367D01*
X208527545Y-69859838D01*
X208503350Y-69845554D01*
X208484546Y-69828761D01*
X208469470Y-69808747D01*
X208450033Y-69758569D01*
X208444770Y-69704636D01*
X208310665Y-69703796D01*
X208313108Y-69749627D01*
X208320435Y-69792251D01*
X208331765Y-69829197D01*
X208347403Y-69863001D01*
X208366343Y-69892187D01*
X208389205Y-69918242D01*
X208415439Y-69940626D01*
X208445445Y-69959745D01*
X208517607Y-69987909D01*
X208608398Y-70001381D01*
X208638790Y-70002154D01*
X208748593Y-69992724D01*
X208786557Y-69985133D01*
X208821459Y-69973392D01*
X208855674Y-69956370D01*
X208885859Y-69935657D01*
X208913308Y-69910215D01*
X208934838Y-69883197D01*
X208952555Y-69852244D01*
X208964789Y-69820421D01*
X208972617Y-69785226D01*
X208975464Y-69745470D01*
X208973068Y-69703670D01*
X208966068Y-69666473D01*
X208955212Y-69634559D01*
X208940583Y-69606173D01*
X208899877Y-69557460D01*
X208840161Y-69515114D01*
X208750610Y-69473825D01*
X208659947Y-69440816D01*
X208525141Y-69390478D01*
X208500976Y-69376673D01*
X208484444Y-69358872D01*
X208474079Y-69322671D01*
X208473850Y-69314763D01*
X208476225Y-69298560D01*
X208483075Y-69284285D01*
X208510219Y-69260405D01*
X208560382Y-69242400D01*
X208640470Y-69234697D01*
X208711412Y-69243950D01*
X208751840Y-69256386D01*
X208790286Y-69273360D01*
X208822898Y-69293117D01*
X208850001Y-69316011D01*
X208856625Y-69323235D01*
X208953177Y-69228744D01*
X208906858Y-69186081D01*
X208839824Y-69149522D01*
X208751665Y-69122036D01*
X208650519Y-69108712D01*
X208628487Y-69108225D01*
X208577885Y-69110701D01*
X208529280Y-69118264D01*
X208487497Y-69129820D01*
X208449202Y-69145962D01*
X208418840Y-69164254D01*
X208392514Y-69186388D01*
X208372840Y-69209589D01*
X208357334Y-69236045D01*
X208346995Y-69263793D01*
X208341040Y-69294518D01*
X208339669Y-69318121D01*
X208342031Y-69354838D01*
X208348794Y-69387586D01*
X208359555Y-69416672D01*
X208373792Y-69441997D01*
X208412465Y-69483264D01*
X208438817Y-69500311D01*
G37*
G36*
X209584537Y-69114441D02*
G01*
X209628107Y-69120293D01*
X209667557Y-69130424D01*
X209704825Y-69145243D01*
X209737994Y-69163856D01*
X209770181Y-69188271D01*
X209797960Y-69216084D01*
X209825417Y-69252248D01*
X209847735Y-69291149D01*
X209869677Y-69343385D01*
X209885096Y-69396145D01*
X209899921Y-69485600D01*
X209903434Y-69556258D01*
X209902595Y-69592971D01*
X209658287Y-69608239D01*
X209316412Y-69621135D01*
X209320791Y-69675228D01*
X209340533Y-69740631D01*
X209374282Y-69792759D01*
X209421632Y-69831867D01*
X209450886Y-69846430D01*
X209484033Y-69857289D01*
X209521972Y-69864214D01*
X209564166Y-69866599D01*
X209581721Y-69866120D01*
X209622350Y-69861085D01*
X209658684Y-69851344D01*
X209696718Y-69834854D01*
X209728995Y-69814683D01*
X209765561Y-69782785D01*
X209791464Y-69751653D01*
X209896565Y-69845839D01*
X209894259Y-69848390D01*
X209868175Y-69875990D01*
X209809119Y-69924876D01*
X209737986Y-69963528D01*
X209655473Y-69988416D01*
X209560731Y-69997269D01*
X209545315Y-69997042D01*
X209454939Y-69985277D01*
X209414972Y-69973090D01*
X209378191Y-69956894D01*
X209344146Y-69936537D01*
X209313358Y-69912374D01*
X209284839Y-69883440D01*
X209259810Y-69850753D01*
X209237145Y-69812336D01*
X209218353Y-69770135D01*
X209202584Y-69721261D01*
X209191183Y-69668582D01*
X209183836Y-69608704D01*
X209181391Y-69545115D01*
X209181835Y-69520199D01*
X209185436Y-69490465D01*
X209316412Y-69490465D01*
X209568565Y-69482656D01*
X209767574Y-69468178D01*
X209766581Y-69459272D01*
X209747995Y-69383994D01*
X209714728Y-69323926D01*
X209669486Y-69279877D01*
X209614278Y-69252522D01*
X209583324Y-69245426D01*
X209550503Y-69243017D01*
X209518695Y-69244938D01*
X209484726Y-69251644D01*
X209453528Y-69262793D01*
X209424156Y-69278687D01*
X209398034Y-69298542D01*
X209374387Y-69323014D01*
X209354565Y-69350841D01*
X209338321Y-69382455D01*
X209326441Y-69416574D01*
X209319068Y-69452794D01*
X209316412Y-69490465D01*
X209185436Y-69490465D01*
X209194643Y-69414444D01*
X209223166Y-69324287D01*
X209265006Y-69250283D01*
X209318583Y-69192106D01*
X209383422Y-69149413D01*
X209420239Y-69133936D01*
X209460055Y-69122582D01*
X209503346Y-69115515D01*
X209549664Y-69113110D01*
X209584537Y-69114441D01*
G37*
G36*
X210326432Y-69613808D02*
G01*
X210329685Y-69504500D01*
X210338339Y-69244467D01*
X210440081Y-69241948D01*
X210710962Y-69241948D01*
X210710962Y-69116316D01*
X210695544Y-69116316D01*
X210440081Y-69117995D01*
X210335820Y-69117995D01*
X210337500Y-68923211D01*
X210202479Y-68922372D01*
X210201639Y-69122269D01*
X210188817Y-69122269D01*
X210142372Y-69124530D01*
X210101653Y-69132573D01*
X210118750Y-69257290D01*
X210188817Y-69247902D01*
X210200800Y-69247902D01*
X210195191Y-69452890D01*
X210190572Y-69613808D01*
X210190572Y-69650521D01*
X210195784Y-69753082D01*
X210205415Y-69800780D01*
X210222498Y-69846908D01*
X210223850Y-69849731D01*
X210242692Y-69883423D01*
X210264031Y-69911434D01*
X210286816Y-69933373D01*
X210311976Y-69951033D01*
X210372006Y-69975975D01*
X210453912Y-69989374D01*
X210546022Y-69992384D01*
X210613570Y-69989461D01*
X210673861Y-69978764D01*
X210729738Y-69955672D01*
X210786053Y-69913220D01*
X210825028Y-69864083D01*
X210848560Y-69813265D01*
X210851405Y-69804908D01*
X210853615Y-69798440D01*
X210745996Y-69750584D01*
X210745095Y-69753027D01*
X210725443Y-69793825D01*
X210705396Y-69818148D01*
X210675928Y-69839427D01*
X210634974Y-69852099D01*
X210544266Y-69859959D01*
X210451988Y-69857440D01*
X210425651Y-69852408D01*
X210402895Y-69843132D01*
X210367935Y-69813752D01*
X210343321Y-69768079D01*
X210328984Y-69700760D01*
X210326432Y-69648002D01*
X210326432Y-69613808D01*
G37*
G36*
X200486195Y-69205414D02*
G01*
X200516101Y-69207901D01*
X200544970Y-69215542D01*
X200571229Y-69227736D01*
X200596443Y-69244996D01*
X200643839Y-69296078D01*
X200676705Y-69350662D01*
X200792949Y-69281435D01*
X200765543Y-69236898D01*
X200735616Y-69197568D01*
X200704311Y-69164388D01*
X200671037Y-69136264D01*
X200636967Y-69113819D01*
X200601412Y-69096284D01*
X200565318Y-69083925D01*
X200528155Y-69076396D01*
X200488714Y-69073752D01*
X200401290Y-69082965D01*
X200319930Y-69109910D01*
X200246617Y-69153438D01*
X200184950Y-69211292D01*
X200161429Y-69242127D01*
X200130742Y-69292778D01*
X200098740Y-69362732D01*
X200079378Y-69420345D01*
X200063385Y-69487133D01*
X200053549Y-69551908D01*
X200048346Y-69623781D01*
X200047780Y-69657493D01*
X200050225Y-69727712D01*
X200057576Y-69793225D01*
X200068936Y-69850519D01*
X200084638Y-69903984D01*
X200103767Y-69951744D01*
X200126909Y-69996255D01*
X200184187Y-70074821D01*
X200200737Y-70092474D01*
X200259665Y-70137437D01*
X200331507Y-70169463D01*
X200416869Y-70188061D01*
X200488714Y-70192384D01*
X200491309Y-70192384D01*
X200534636Y-70189990D01*
X200575547Y-70182996D01*
X200651039Y-70155869D01*
X200718467Y-70111684D01*
X200777600Y-70050302D01*
X200826993Y-69971603D01*
X200831417Y-69962567D01*
X200712578Y-69897614D01*
X200692214Y-69936228D01*
X200667882Y-69970484D01*
X200643110Y-69996464D01*
X200614775Y-70018484D01*
X200585026Y-70035138D01*
X200551777Y-70047875D01*
X200515488Y-70056345D01*
X200475430Y-70060573D01*
X200469938Y-70060799D01*
X200457955Y-70060799D01*
X200409871Y-70057974D01*
X200368924Y-70047971D01*
X200316141Y-70017588D01*
X200293931Y-69998440D01*
X200248318Y-69943297D01*
X200214523Y-69872675D01*
X200192507Y-69782668D01*
X200183705Y-69667716D01*
X200183640Y-69655737D01*
X200185954Y-69588964D01*
X200192389Y-69530063D01*
X200215993Y-69429409D01*
X200250655Y-69350460D01*
X200270804Y-69318224D01*
X200294157Y-69290026D01*
X200322970Y-69263599D01*
X200354104Y-69242069D01*
X200389315Y-69224490D01*
X200423819Y-69213125D01*
X200461134Y-69206632D01*
X200486195Y-69205414D01*
G37*
G36*
X201259529Y-68971170D02*
G01*
X201120225Y-68974824D01*
X201048029Y-68982022D01*
X200975826Y-68995136D01*
X200999716Y-69117334D01*
X201088246Y-69105151D01*
X201162061Y-69102832D01*
X201202306Y-69103340D01*
X201225335Y-69103672D01*
X201227854Y-70010652D01*
X201232698Y-70067307D01*
X201241453Y-70096869D01*
X201256832Y-70125375D01*
X201274229Y-70145629D01*
X201297387Y-70163797D01*
X201307309Y-70169716D01*
X201363823Y-70189887D01*
X201456186Y-70201622D01*
X201482554Y-70202154D01*
X201540449Y-70199657D01*
X201599233Y-70191951D01*
X201652598Y-70179867D01*
X201703055Y-70162766D01*
X201742647Y-70143919D01*
X201777692Y-70121032D01*
X201784117Y-70115906D01*
X201726033Y-70018361D01*
X201672633Y-70047525D01*
X201592945Y-70070226D01*
X201492996Y-70080752D01*
X201481638Y-70080872D01*
X201431413Y-70079349D01*
X201395114Y-70071128D01*
X201381977Y-70062794D01*
X201372068Y-70050732D01*
X201361601Y-70012685D01*
X201361195Y-70007294D01*
X201358600Y-68971170D01*
X201259529Y-68971170D01*
G37*
G36*
X202266583Y-69305985D02*
G01*
X202353170Y-69322862D01*
X202389591Y-69336792D01*
X202422346Y-69354392D01*
X202452874Y-69376606D01*
X202480017Y-69402732D01*
X202506790Y-69436612D01*
X202530126Y-69475303D01*
X202541485Y-69499912D01*
X202558413Y-69549944D01*
X202570401Y-69603995D01*
X202578084Y-69664059D01*
X202580578Y-69722675D01*
X202579171Y-69776791D01*
X202565050Y-69891038D01*
X202537872Y-69982959D01*
X202499506Y-70055405D01*
X202450523Y-70111163D01*
X202389966Y-70152018D01*
X202354527Y-70167008D01*
X202315419Y-70178081D01*
X202271464Y-70185101D01*
X202223373Y-70187500D01*
X202221693Y-70187500D01*
X202147141Y-70181360D01*
X202068332Y-70158697D01*
X202033895Y-70141453D01*
X202002744Y-70120444D01*
X201974256Y-70095170D01*
X201949229Y-70066238D01*
X201926746Y-70032193D01*
X201908072Y-69994470D01*
X201892442Y-69950646D01*
X201881112Y-69903077D01*
X201873798Y-69848681D01*
X201871358Y-69790529D01*
X201871463Y-69786254D01*
X202006302Y-69786254D01*
X202009473Y-69843366D01*
X202026908Y-69920111D01*
X202057013Y-69977787D01*
X202098730Y-70019219D01*
X202124448Y-70034389D01*
X202153248Y-70045507D01*
X202186650Y-70052657D01*
X202223373Y-70055074D01*
X202244380Y-70054282D01*
X202306114Y-70042316D01*
X202337855Y-70026922D01*
X202368621Y-70004394D01*
X202371254Y-70001857D01*
X202391480Y-69977988D01*
X202408099Y-69949913D01*
X202423196Y-69911961D01*
X202434032Y-69868420D01*
X202442161Y-69805506D01*
X202444718Y-69733895D01*
X202444718Y-69718401D01*
X202440028Y-69648405D01*
X202421826Y-69569210D01*
X202392649Y-69511024D01*
X202353477Y-69470085D01*
X202329743Y-69455328D01*
X202302825Y-69444384D01*
X202271743Y-69437396D01*
X202237035Y-69435003D01*
X202187691Y-69439126D01*
X202156548Y-69447030D01*
X202128845Y-69458885D01*
X202103511Y-69475234D01*
X202081554Y-69495502D01*
X202060851Y-69522479D01*
X202043878Y-69553844D01*
X202028280Y-69596281D01*
X202017161Y-69644095D01*
X202008880Y-69711626D01*
X202006302Y-69786254D01*
X201871463Y-69786254D01*
X201872635Y-69738714D01*
X201887018Y-69617685D01*
X201914868Y-69518662D01*
X201953527Y-69440730D01*
X202001497Y-69381607D01*
X202058754Y-69339213D01*
X202091235Y-69323981D01*
X202126740Y-69312751D01*
X202165752Y-69305738D01*
X202208031Y-69303340D01*
X202266583Y-69305985D01*
G37*
G36*
X202911222Y-69736871D02*
G01*
X202913677Y-69681119D01*
X202921097Y-69631863D01*
X202931845Y-69593601D01*
X202946583Y-69560132D01*
X202963712Y-69533463D01*
X202984308Y-69510639D01*
X203034643Y-69476784D01*
X203101535Y-69455884D01*
X203187292Y-69448741D01*
X203225132Y-69451056D01*
X203256803Y-69457487D01*
X203283206Y-69467418D01*
X203304482Y-69479990D01*
X203335969Y-69512589D01*
X203354691Y-69552618D01*
X203358186Y-69564680D01*
X203489772Y-69513542D01*
X203459502Y-69453489D01*
X203438396Y-69423297D01*
X203411844Y-69394453D01*
X203392304Y-69377834D01*
X203361540Y-69357345D01*
X203327883Y-69341055D01*
X203252977Y-69321638D01*
X203196680Y-69317995D01*
X203128629Y-69320505D01*
X203066114Y-69328307D01*
X203016880Y-69339562D01*
X202971937Y-69355293D01*
X202935330Y-69373433D01*
X202902317Y-69395573D01*
X202874671Y-69420146D01*
X202850298Y-69448558D01*
X202812133Y-69516202D01*
X202786802Y-69602687D01*
X202775639Y-69714080D01*
X202775362Y-69736871D01*
X202777961Y-69812648D01*
X202786387Y-69882793D01*
X202797936Y-69934681D01*
X202814284Y-69982807D01*
X202832971Y-70021897D01*
X202856051Y-70057981D01*
X202881832Y-70088889D01*
X202911983Y-70117097D01*
X202920686Y-70124073D01*
X202982525Y-70159306D01*
X203057745Y-70181623D01*
X203150784Y-70191586D01*
X203196680Y-70192384D01*
X203246774Y-70190048D01*
X203291959Y-70183459D01*
X203371833Y-70158685D01*
X203438473Y-70120407D01*
X203493116Y-70070816D01*
X203532570Y-70020290D01*
X203542742Y-70006302D01*
X203435046Y-69928678D01*
X203409628Y-69965735D01*
X203378991Y-69998154D01*
X203351936Y-70018520D01*
X203320477Y-70035198D01*
X203287283Y-70046816D01*
X203249359Y-70054573D01*
X203193246Y-70058280D01*
X203182102Y-70058280D01*
X203123118Y-70055750D01*
X203090324Y-70050430D01*
X203056971Y-70040487D01*
X203024293Y-70024482D01*
X202993521Y-70000976D01*
X202965887Y-69968530D01*
X202942623Y-69925704D01*
X202929493Y-69888411D01*
X202919593Y-69844712D01*
X202911222Y-69736871D01*
G37*
G36*
X203847235Y-68967138D02*
G01*
X203862503Y-69014584D01*
X203870027Y-69081003D01*
X203870027Y-69434239D01*
X203907878Y-69409839D01*
X204007146Y-69356778D01*
X204089430Y-69326786D01*
X204150296Y-69317995D01*
X204217840Y-69326149D01*
X204283631Y-69351957D01*
X204334528Y-69390756D01*
X204367973Y-69437905D01*
X204383548Y-69490720D01*
X204387822Y-69560940D01*
X204381029Y-69640548D01*
X204375560Y-69658421D01*
X204344191Y-69713659D01*
X204298005Y-69763406D01*
X204243414Y-69798924D01*
X204277500Y-69831604D01*
X204301770Y-69868788D01*
X204333753Y-69950072D01*
X204343984Y-69980173D01*
X204370725Y-70039427D01*
X204403316Y-70080214D01*
X204441632Y-70111326D01*
X204369886Y-70203757D01*
X204335374Y-70183423D01*
X204306583Y-70159689D01*
X204263383Y-70105408D01*
X204234722Y-70047687D01*
X204215039Y-69993300D01*
X204211815Y-69983786D01*
X204202759Y-69962513D01*
X204184399Y-69933554D01*
X204160857Y-69907320D01*
X204125961Y-69878582D01*
X204086285Y-69853839D01*
X204032647Y-69828399D01*
X203977639Y-69808862D01*
X203921018Y-69794272D01*
X203870867Y-69786025D01*
X203869188Y-70077132D01*
X203869672Y-70143493D01*
X203870027Y-70187500D01*
X203735846Y-70187500D01*
X203735846Y-69581472D01*
X203870027Y-69581472D01*
X203870027Y-69658485D01*
X204033564Y-69690647D01*
X204039166Y-69691915D01*
X204120376Y-69702983D01*
X204127181Y-69702819D01*
X204152928Y-69698985D01*
X204175882Y-69690513D01*
X204197852Y-69676535D01*
X204216295Y-69658456D01*
X204232364Y-69634879D01*
X204244010Y-69608380D01*
X204253641Y-69549797D01*
X204247688Y-69506978D01*
X204228972Y-69472806D01*
X204198815Y-69449681D01*
X204158005Y-69441109D01*
X204141651Y-69442159D01*
X204115128Y-69447992D01*
X204085343Y-69459885D01*
X204022155Y-69491259D01*
X203942404Y-69535517D01*
X203870027Y-69581472D01*
X203735846Y-69581472D01*
X203735846Y-69136645D01*
X203734536Y-69101375D01*
X203727518Y-69048705D01*
X203716231Y-69003990D01*
X203846901Y-68966285D01*
X203847235Y-68967138D01*
G37*
D11*
G36*
X173502128Y-106050406D02*
G01*
X173762430Y-106050406D01*
X173762430Y-106481067D01*
X173502128Y-106481067D01*
X173502128Y-107290000D01*
X172974930Y-107290000D01*
X172974930Y-106487295D01*
X172048028Y-106491509D01*
X171863564Y-106142730D01*
X171942260Y-106054619D01*
X172449930Y-106054619D01*
X172974930Y-106050406D01*
X172974930Y-105384356D01*
X172853408Y-105575509D01*
X172719368Y-105751705D01*
X172449930Y-106054619D01*
X171942260Y-106054619D01*
X171975312Y-106017612D01*
X172149541Y-105825984D01*
X172497931Y-105416520D01*
X172751764Y-105073114D01*
X172910006Y-104807254D01*
X172991416Y-104609495D01*
X173502128Y-104605282D01*
X173502128Y-106050406D01*
G37*
G36*
X175031394Y-104593565D02*
G01*
X175132673Y-104599550D01*
X175225803Y-104616314D01*
X175312806Y-104643893D01*
X175391958Y-104681371D01*
X175468003Y-104731422D01*
X175535901Y-104791119D01*
X175602347Y-104867876D01*
X175659736Y-104954434D01*
X175715500Y-105065227D01*
X175760722Y-105185871D01*
X175802186Y-105340905D01*
X175831162Y-105504582D01*
X175852064Y-105717657D01*
X175858400Y-105933719D01*
X175845435Y-106255105D01*
X175800366Y-106564862D01*
X175728413Y-106809145D01*
X175634035Y-106997350D01*
X175519203Y-107138563D01*
X175382586Y-107239472D01*
X175304755Y-107275790D01*
X175219357Y-107302600D01*
X175124794Y-107319418D01*
X175021807Y-107325170D01*
X175009812Y-107325110D01*
X174799363Y-107301448D01*
X174707662Y-107274341D01*
X174624658Y-107237790D01*
X174546907Y-107190187D01*
X174477761Y-107133538D01*
X174411551Y-107062071D01*
X174354504Y-106981384D01*
X174299805Y-106878967D01*
X174255459Y-106766810D01*
X174214733Y-106621225D01*
X174212411Y-106608562D01*
X174744836Y-106608562D01*
X174769645Y-106690545D01*
X174826437Y-106811773D01*
X174893353Y-106875132D01*
X174939830Y-106892843D01*
X174995062Y-106898722D01*
X175073902Y-106886896D01*
X175123936Y-106863665D01*
X175167236Y-106829175D01*
X175211936Y-106772764D01*
X175248094Y-106702532D01*
X175296550Y-106536925D01*
X175323492Y-106339686D01*
X175337613Y-105898731D01*
X175335415Y-105797981D01*
X174744836Y-106608562D01*
X174212411Y-106608562D01*
X174186178Y-106465509D01*
X174164704Y-106249472D01*
X174158286Y-106024394D01*
X174159647Y-105993436D01*
X174681271Y-105993436D01*
X174685301Y-106096385D01*
X175261592Y-105296062D01*
X175245160Y-105243650D01*
X175190836Y-105106534D01*
X175135089Y-105043837D01*
X175086947Y-105024313D01*
X175023822Y-105018175D01*
X175013095Y-105018409D01*
X174960944Y-105026904D01*
X174914523Y-105046854D01*
X174866266Y-105084114D01*
X174825108Y-105134403D01*
X174780535Y-105218173D01*
X174746160Y-105317707D01*
X174711943Y-105480626D01*
X174692313Y-105655663D01*
X174681271Y-105993436D01*
X174159647Y-105993436D01*
X174174972Y-105644749D01*
X174222535Y-105340377D01*
X174296214Y-105101759D01*
X174392381Y-104917743D01*
X174509865Y-104778951D01*
X174650777Y-104679057D01*
X174731709Y-104642867D01*
X174820656Y-104616147D01*
X174919738Y-104599313D01*
X175027852Y-104593558D01*
X175031394Y-104593565D01*
G37*
G36*
X177220176Y-104581835D02*
G01*
X177138722Y-104705613D01*
X177046121Y-104824238D01*
X176917895Y-104965941D01*
X176786381Y-105090927D01*
X176630221Y-105217908D01*
X176486836Y-105317167D01*
X176327097Y-105410748D01*
X176274773Y-105437845D01*
X176570062Y-105876933D01*
X176796414Y-105725627D01*
X177014641Y-105530006D01*
X177183356Y-105339293D01*
X177187386Y-107313447D01*
X177716416Y-107313447D01*
X177716416Y-104674342D01*
X177220176Y-104581835D01*
G37*
G36*
X178625000Y-104639904D02*
G01*
X178499176Y-104910876D01*
X178393274Y-105171132D01*
X178914244Y-105302290D01*
X178955094Y-105089066D01*
X179264855Y-105095294D01*
X179841146Y-105089066D01*
X179531678Y-105530835D01*
X179282098Y-105936830D01*
X179182408Y-106129917D01*
X179098130Y-106322672D01*
X179037654Y-106492055D01*
X178989285Y-106665035D01*
X178955023Y-106832680D01*
X178931851Y-107006583D01*
X178918274Y-107290000D01*
X179453532Y-107290000D01*
X179459362Y-107087178D01*
X179476725Y-106898946D01*
X179504028Y-106729661D01*
X179541593Y-106568958D01*
X179648776Y-106259187D01*
X179811686Y-105926919D01*
X180073900Y-105491552D01*
X180230041Y-105248208D01*
X180407178Y-104972196D01*
X180202015Y-104637889D01*
X180117934Y-104637889D01*
X179659941Y-104644888D01*
X179176744Y-104652177D01*
X178912353Y-104646237D01*
X178625000Y-104639904D01*
G37*
D12*
X189344819Y-87030476D02*
X188868628Y-87363809D01*
X189344819Y-87601904D02*
X188344819Y-87601904D01*
X188344819Y-87601904D02*
X188344819Y-87220952D01*
X188344819Y-87220952D02*
X188392438Y-87125714D01*
X188392438Y-87125714D02*
X188440057Y-87078095D01*
X188440057Y-87078095D02*
X188535295Y-87030476D01*
X188535295Y-87030476D02*
X188678152Y-87030476D01*
X188678152Y-87030476D02*
X188773390Y-87078095D01*
X188773390Y-87078095D02*
X188821009Y-87125714D01*
X188821009Y-87125714D02*
X188868628Y-87220952D01*
X188868628Y-87220952D02*
X188868628Y-87601904D01*
X189344819Y-86601904D02*
X188344819Y-86601904D01*
X188344819Y-86601904D02*
X189344819Y-86030476D01*
X189344819Y-86030476D02*
X188344819Y-86030476D01*
X189344819Y-85030476D02*
X189344819Y-85601904D01*
X189344819Y-85316190D02*
X188344819Y-85316190D01*
X188344819Y-85316190D02*
X188487676Y-85411428D01*
X188487676Y-85411428D02*
X188582914Y-85506666D01*
X188582914Y-85506666D02*
X188630533Y-85601904D01*
X200233333Y-74759580D02*
X200185714Y-74807200D01*
X200185714Y-74807200D02*
X200042857Y-74854819D01*
X200042857Y-74854819D02*
X199947619Y-74854819D01*
X199947619Y-74854819D02*
X199804762Y-74807200D01*
X199804762Y-74807200D02*
X199709524Y-74711961D01*
X199709524Y-74711961D02*
X199661905Y-74616723D01*
X199661905Y-74616723D02*
X199614286Y-74426247D01*
X199614286Y-74426247D02*
X199614286Y-74283390D01*
X199614286Y-74283390D02*
X199661905Y-74092914D01*
X199661905Y-74092914D02*
X199709524Y-73997676D01*
X199709524Y-73997676D02*
X199804762Y-73902438D01*
X199804762Y-73902438D02*
X199947619Y-73854819D01*
X199947619Y-73854819D02*
X200042857Y-73854819D01*
X200042857Y-73854819D02*
X200185714Y-73902438D01*
X200185714Y-73902438D02*
X200233333Y-73950057D01*
X201185714Y-74854819D02*
X200614286Y-74854819D01*
X200900000Y-74854819D02*
X200900000Y-73854819D01*
X200900000Y-73854819D02*
X200804762Y-73997676D01*
X200804762Y-73997676D02*
X200709524Y-74092914D01*
X200709524Y-74092914D02*
X200614286Y-74140533D01*
X177433333Y-74559580D02*
X177385714Y-74607200D01*
X177385714Y-74607200D02*
X177242857Y-74654819D01*
X177242857Y-74654819D02*
X177147619Y-74654819D01*
X177147619Y-74654819D02*
X177004762Y-74607200D01*
X177004762Y-74607200D02*
X176909524Y-74511961D01*
X176909524Y-74511961D02*
X176861905Y-74416723D01*
X176861905Y-74416723D02*
X176814286Y-74226247D01*
X176814286Y-74226247D02*
X176814286Y-74083390D01*
X176814286Y-74083390D02*
X176861905Y-73892914D01*
X176861905Y-73892914D02*
X176909524Y-73797676D01*
X176909524Y-73797676D02*
X177004762Y-73702438D01*
X177004762Y-73702438D02*
X177147619Y-73654819D01*
X177147619Y-73654819D02*
X177242857Y-73654819D01*
X177242857Y-73654819D02*
X177385714Y-73702438D01*
X177385714Y-73702438D02*
X177433333Y-73750057D01*
X177814286Y-73750057D02*
X177861905Y-73702438D01*
X177861905Y-73702438D02*
X177957143Y-73654819D01*
X177957143Y-73654819D02*
X178195238Y-73654819D01*
X178195238Y-73654819D02*
X178290476Y-73702438D01*
X178290476Y-73702438D02*
X178338095Y-73750057D01*
X178338095Y-73750057D02*
X178385714Y-73845295D01*
X178385714Y-73845295D02*
X178385714Y-73940533D01*
X178385714Y-73940533D02*
X178338095Y-74083390D01*
X178338095Y-74083390D02*
X177766667Y-74654819D01*
X177766667Y-74654819D02*
X178385714Y-74654819D01*
X175796666Y-64274819D02*
X175796666Y-64989104D01*
X175796666Y-64989104D02*
X175749047Y-65131961D01*
X175749047Y-65131961D02*
X175653809Y-65227200D01*
X175653809Y-65227200D02*
X175510952Y-65274819D01*
X175510952Y-65274819D02*
X175415714Y-65274819D01*
X176701428Y-64608152D02*
X176701428Y-65274819D01*
X176463333Y-64227200D02*
X176225238Y-64941485D01*
X176225238Y-64941485D02*
X176844285Y-64941485D01*
X197466666Y-102454819D02*
X197466666Y-103169104D01*
X197466666Y-103169104D02*
X197419047Y-103311961D01*
X197419047Y-103311961D02*
X197323809Y-103407200D01*
X197323809Y-103407200D02*
X197180952Y-103454819D01*
X197180952Y-103454819D02*
X197085714Y-103454819D01*
X198085714Y-102883390D02*
X197990476Y-102835771D01*
X197990476Y-102835771D02*
X197942857Y-102788152D01*
X197942857Y-102788152D02*
X197895238Y-102692914D01*
X197895238Y-102692914D02*
X197895238Y-102645295D01*
X197895238Y-102645295D02*
X197942857Y-102550057D01*
X197942857Y-102550057D02*
X197990476Y-102502438D01*
X197990476Y-102502438D02*
X198085714Y-102454819D01*
X198085714Y-102454819D02*
X198276190Y-102454819D01*
X198276190Y-102454819D02*
X198371428Y-102502438D01*
X198371428Y-102502438D02*
X198419047Y-102550057D01*
X198419047Y-102550057D02*
X198466666Y-102645295D01*
X198466666Y-102645295D02*
X198466666Y-102692914D01*
X198466666Y-102692914D02*
X198419047Y-102788152D01*
X198419047Y-102788152D02*
X198371428Y-102835771D01*
X198371428Y-102835771D02*
X198276190Y-102883390D01*
X198276190Y-102883390D02*
X198085714Y-102883390D01*
X198085714Y-102883390D02*
X197990476Y-102931009D01*
X197990476Y-102931009D02*
X197942857Y-102978628D01*
X197942857Y-102978628D02*
X197895238Y-103073866D01*
X197895238Y-103073866D02*
X197895238Y-103264342D01*
X197895238Y-103264342D02*
X197942857Y-103359580D01*
X197942857Y-103359580D02*
X197990476Y-103407200D01*
X197990476Y-103407200D02*
X198085714Y-103454819D01*
X198085714Y-103454819D02*
X198276190Y-103454819D01*
X198276190Y-103454819D02*
X198371428Y-103407200D01*
X198371428Y-103407200D02*
X198419047Y-103359580D01*
X198419047Y-103359580D02*
X198466666Y-103264342D01*
X198466666Y-103264342D02*
X198466666Y-103073866D01*
X198466666Y-103073866D02*
X198419047Y-102978628D01*
X198419047Y-102978628D02*
X198371428Y-102931009D01*
X198371428Y-102931009D02*
X198276190Y-102883390D01*
X201611666Y-64274819D02*
X201611666Y-64989104D01*
X201611666Y-64989104D02*
X201564047Y-65131961D01*
X201564047Y-65131961D02*
X201468809Y-65227200D01*
X201468809Y-65227200D02*
X201325952Y-65274819D01*
X201325952Y-65274819D02*
X201230714Y-65274819D01*
X202611666Y-65274819D02*
X202040238Y-65274819D01*
X202325952Y-65274819D02*
X202325952Y-64274819D01*
X202325952Y-64274819D02*
X202230714Y-64417676D01*
X202230714Y-64417676D02*
X202135476Y-64512914D01*
X202135476Y-64512914D02*
X202040238Y-64560533D01*
X203248095Y-76924819D02*
X203248095Y-77734342D01*
X203248095Y-77734342D02*
X203295714Y-77829580D01*
X203295714Y-77829580D02*
X203343333Y-77877200D01*
X203343333Y-77877200D02*
X203438571Y-77924819D01*
X203438571Y-77924819D02*
X203629047Y-77924819D01*
X203629047Y-77924819D02*
X203724285Y-77877200D01*
X203724285Y-77877200D02*
X203771904Y-77829580D01*
X203771904Y-77829580D02*
X203819523Y-77734342D01*
X203819523Y-77734342D02*
X203819523Y-76924819D01*
X204819523Y-77924819D02*
X204248095Y-77924819D01*
X204533809Y-77924819D02*
X204533809Y-76924819D01*
X204533809Y-76924819D02*
X204438571Y-77067676D01*
X204438571Y-77067676D02*
X204343333Y-77162914D01*
X204343333Y-77162914D02*
X204248095Y-77210533D01*
X168936666Y-72654819D02*
X168936666Y-73369104D01*
X168936666Y-73369104D02*
X168889047Y-73511961D01*
X168889047Y-73511961D02*
X168793809Y-73607200D01*
X168793809Y-73607200D02*
X168650952Y-73654819D01*
X168650952Y-73654819D02*
X168555714Y-73654819D01*
X169317619Y-72654819D02*
X169984285Y-72654819D01*
X169984285Y-72654819D02*
X169555714Y-73654819D01*
X197466666Y-107044819D02*
X197466666Y-107759104D01*
X197466666Y-107759104D02*
X197419047Y-107901961D01*
X197419047Y-107901961D02*
X197323809Y-107997200D01*
X197323809Y-107997200D02*
X197180952Y-108044819D01*
X197180952Y-108044819D02*
X197085714Y-108044819D01*
X197990476Y-108044819D02*
X198180952Y-108044819D01*
X198180952Y-108044819D02*
X198276190Y-107997200D01*
X198276190Y-107997200D02*
X198323809Y-107949580D01*
X198323809Y-107949580D02*
X198419047Y-107806723D01*
X198419047Y-107806723D02*
X198466666Y-107616247D01*
X198466666Y-107616247D02*
X198466666Y-107235295D01*
X198466666Y-107235295D02*
X198419047Y-107140057D01*
X198419047Y-107140057D02*
X198371428Y-107092438D01*
X198371428Y-107092438D02*
X198276190Y-107044819D01*
X198276190Y-107044819D02*
X198085714Y-107044819D01*
X198085714Y-107044819D02*
X197990476Y-107092438D01*
X197990476Y-107092438D02*
X197942857Y-107140057D01*
X197942857Y-107140057D02*
X197895238Y-107235295D01*
X197895238Y-107235295D02*
X197895238Y-107473390D01*
X197895238Y-107473390D02*
X197942857Y-107568628D01*
X197942857Y-107568628D02*
X197990476Y-107616247D01*
X197990476Y-107616247D02*
X198085714Y-107663866D01*
X198085714Y-107663866D02*
X198276190Y-107663866D01*
X198276190Y-107663866D02*
X198371428Y-107616247D01*
X198371428Y-107616247D02*
X198419047Y-107568628D01*
X198419047Y-107568628D02*
X198466666Y-107473390D01*
X207936666Y-64274819D02*
X207936666Y-64989104D01*
X207936666Y-64989104D02*
X207889047Y-65131961D01*
X207889047Y-65131961D02*
X207793809Y-65227200D01*
X207793809Y-65227200D02*
X207650952Y-65274819D01*
X207650952Y-65274819D02*
X207555714Y-65274819D01*
X208317619Y-64274819D02*
X208936666Y-64274819D01*
X208936666Y-64274819D02*
X208603333Y-64655771D01*
X208603333Y-64655771D02*
X208746190Y-64655771D01*
X208746190Y-64655771D02*
X208841428Y-64703390D01*
X208841428Y-64703390D02*
X208889047Y-64751009D01*
X208889047Y-64751009D02*
X208936666Y-64846247D01*
X208936666Y-64846247D02*
X208936666Y-65084342D01*
X208936666Y-65084342D02*
X208889047Y-65179580D01*
X208889047Y-65179580D02*
X208841428Y-65227200D01*
X208841428Y-65227200D02*
X208746190Y-65274819D01*
X208746190Y-65274819D02*
X208460476Y-65274819D01*
X208460476Y-65274819D02*
X208365238Y-65227200D01*
X208365238Y-65227200D02*
X208317619Y-65179580D01*
X188196666Y-64274819D02*
X188196666Y-64989104D01*
X188196666Y-64989104D02*
X188149047Y-65131961D01*
X188149047Y-65131961D02*
X188053809Y-65227200D01*
X188053809Y-65227200D02*
X187910952Y-65274819D01*
X187910952Y-65274819D02*
X187815714Y-65274819D01*
X189101428Y-64274819D02*
X188910952Y-64274819D01*
X188910952Y-64274819D02*
X188815714Y-64322438D01*
X188815714Y-64322438D02*
X188768095Y-64370057D01*
X188768095Y-64370057D02*
X188672857Y-64512914D01*
X188672857Y-64512914D02*
X188625238Y-64703390D01*
X188625238Y-64703390D02*
X188625238Y-65084342D01*
X188625238Y-65084342D02*
X188672857Y-65179580D01*
X188672857Y-65179580D02*
X188720476Y-65227200D01*
X188720476Y-65227200D02*
X188815714Y-65274819D01*
X188815714Y-65274819D02*
X189006190Y-65274819D01*
X189006190Y-65274819D02*
X189101428Y-65227200D01*
X189101428Y-65227200D02*
X189149047Y-65179580D01*
X189149047Y-65179580D02*
X189196666Y-65084342D01*
X189196666Y-65084342D02*
X189196666Y-64846247D01*
X189196666Y-64846247D02*
X189149047Y-64751009D01*
X189149047Y-64751009D02*
X189101428Y-64703390D01*
X189101428Y-64703390D02*
X189006190Y-64655771D01*
X189006190Y-64655771D02*
X188815714Y-64655771D01*
X188815714Y-64655771D02*
X188720476Y-64703390D01*
X188720476Y-64703390D02*
X188672857Y-64751009D01*
X188672857Y-64751009D02*
X188625238Y-64846247D01*
X214536666Y-72114819D02*
X214536666Y-72829104D01*
X214536666Y-72829104D02*
X214489047Y-72971961D01*
X214489047Y-72971961D02*
X214393809Y-73067200D01*
X214393809Y-73067200D02*
X214250952Y-73114819D01*
X214250952Y-73114819D02*
X214155714Y-73114819D01*
X214965238Y-72210057D02*
X215012857Y-72162438D01*
X215012857Y-72162438D02*
X215108095Y-72114819D01*
X215108095Y-72114819D02*
X215346190Y-72114819D01*
X215346190Y-72114819D02*
X215441428Y-72162438D01*
X215441428Y-72162438D02*
X215489047Y-72210057D01*
X215489047Y-72210057D02*
X215536666Y-72305295D01*
X215536666Y-72305295D02*
X215536666Y-72400533D01*
X215536666Y-72400533D02*
X215489047Y-72543390D01*
X215489047Y-72543390D02*
X214917619Y-73114819D01*
X214917619Y-73114819D02*
X215536666Y-73114819D01*
X180448095Y-76324819D02*
X180448095Y-77134342D01*
X180448095Y-77134342D02*
X180495714Y-77229580D01*
X180495714Y-77229580D02*
X180543333Y-77277200D01*
X180543333Y-77277200D02*
X180638571Y-77324819D01*
X180638571Y-77324819D02*
X180829047Y-77324819D01*
X180829047Y-77324819D02*
X180924285Y-77277200D01*
X180924285Y-77277200D02*
X180971904Y-77229580D01*
X180971904Y-77229580D02*
X181019523Y-77134342D01*
X181019523Y-77134342D02*
X181019523Y-76324819D01*
X181448095Y-76420057D02*
X181495714Y-76372438D01*
X181495714Y-76372438D02*
X181590952Y-76324819D01*
X181590952Y-76324819D02*
X181829047Y-76324819D01*
X181829047Y-76324819D02*
X181924285Y-76372438D01*
X181924285Y-76372438D02*
X181971904Y-76420057D01*
X181971904Y-76420057D02*
X182019523Y-76515295D01*
X182019523Y-76515295D02*
X182019523Y-76610533D01*
X182019523Y-76610533D02*
X181971904Y-76753390D01*
X181971904Y-76753390D02*
X181400476Y-77324819D01*
X181400476Y-77324819D02*
X182019523Y-77324819D01*
X181996666Y-64274819D02*
X181996666Y-64989104D01*
X181996666Y-64989104D02*
X181949047Y-65131961D01*
X181949047Y-65131961D02*
X181853809Y-65227200D01*
X181853809Y-65227200D02*
X181710952Y-65274819D01*
X181710952Y-65274819D02*
X181615714Y-65274819D01*
X182949047Y-64274819D02*
X182472857Y-64274819D01*
X182472857Y-64274819D02*
X182425238Y-64751009D01*
X182425238Y-64751009D02*
X182472857Y-64703390D01*
X182472857Y-64703390D02*
X182568095Y-64655771D01*
X182568095Y-64655771D02*
X182806190Y-64655771D01*
X182806190Y-64655771D02*
X182901428Y-64703390D01*
X182901428Y-64703390D02*
X182949047Y-64751009D01*
X182949047Y-64751009D02*
X182996666Y-64846247D01*
X182996666Y-64846247D02*
X182996666Y-65084342D01*
X182996666Y-65084342D02*
X182949047Y-65179580D01*
X182949047Y-65179580D02*
X182901428Y-65227200D01*
X182901428Y-65227200D02*
X182806190Y-65274819D01*
X182806190Y-65274819D02*
X182568095Y-65274819D01*
X182568095Y-65274819D02*
X182472857Y-65227200D01*
X182472857Y-65227200D02*
X182425238Y-65179580D01*
D13*
G04 #@! TO.C,RN1*
X189890000Y-79910000D02*
X189890000Y-95310000D01*
X189890000Y-92690000D02*
X192510000Y-92690000D01*
X189890000Y-95310000D02*
X192510000Y-95310000D01*
X192510000Y-79910000D02*
X189890000Y-79910000D01*
X192510000Y-95310000D02*
X192510000Y-79910000D01*
G04 #@! TO.C,C1*
X204765000Y-73680000D02*
X203235000Y-73680000D01*
X204765000Y-75520000D02*
X203235000Y-75520000D01*
G04 #@! TO.C,C2*
X181915000Y-73220000D02*
X180385000Y-73220000D01*
X181915000Y-75060000D02*
X180385000Y-75060000D01*
G04 #@! TO.C,J4*
X173480000Y-65820000D02*
X174860000Y-65820000D01*
X173480000Y-67200000D02*
X173480000Y-65820000D01*
X173480000Y-68470000D02*
X173480000Y-68580000D01*
X173480000Y-68470000D02*
X176130000Y-68470000D01*
X173480000Y-68580000D02*
X178780000Y-68580000D01*
X176130000Y-65820000D02*
X178780000Y-65820000D01*
X176130000Y-68470000D02*
X176130000Y-65820000D01*
X178780000Y-65820000D02*
X178780000Y-68580000D01*
G04 #@! TO.C,J8*
X186140000Y-101620000D02*
X186140000Y-104380000D01*
X193870000Y-101620000D02*
X186140000Y-101620000D01*
X193870000Y-101620000D02*
X193870000Y-104380000D01*
X193870000Y-104380000D02*
X186140000Y-104380000D01*
X195140000Y-101620000D02*
X196520000Y-101620000D01*
X196520000Y-101620000D02*
X196520000Y-103000000D01*
G04 #@! TO.C,J1*
X199295000Y-65820000D02*
X200675000Y-65820000D01*
X199295000Y-67200000D02*
X199295000Y-65820000D01*
X199295000Y-68470000D02*
X199295000Y-68580000D01*
X199295000Y-68470000D02*
X201945000Y-68470000D01*
X199295000Y-68580000D02*
X204595000Y-68580000D01*
X201945000Y-65820000D02*
X204595000Y-65820000D01*
X201945000Y-68470000D02*
X201945000Y-65820000D01*
X204595000Y-65820000D02*
X204595000Y-68580000D01*
G04 #@! TO.C,U1*
X201360000Y-78470000D02*
X201360000Y-98910000D01*
X201360000Y-98910000D02*
X206660000Y-98910000D01*
X203010000Y-78470000D02*
X201360000Y-78470000D01*
X206660000Y-78470000D02*
X205010000Y-78470000D01*
X206660000Y-98910000D02*
X206660000Y-78470000D01*
X205010000Y-78470000D02*
G75*
G02*
X203010000Y-78470000I-1000000J0D01*
G01*
G04 #@! TO.C,J7*
X166620000Y-74200000D02*
X168000000Y-74200000D01*
X166620000Y-75580000D02*
X166620000Y-74200000D01*
X166620000Y-76850000D02*
X166620000Y-102360000D01*
X166620000Y-76850000D02*
X169270000Y-76850000D01*
X166620000Y-102360000D02*
X171920000Y-102360000D01*
X169270000Y-74200000D02*
X171920000Y-74200000D01*
X169270000Y-76850000D02*
X169270000Y-74200000D01*
X171920000Y-74200000D02*
X171920000Y-102360000D01*
G04 #@! TO.C,J9*
X186140000Y-106210000D02*
X186140000Y-108970000D01*
X193870000Y-106210000D02*
X186140000Y-106210000D01*
X193870000Y-106210000D02*
X193870000Y-108970000D01*
X193870000Y-108970000D02*
X186140000Y-108970000D01*
X195140000Y-106210000D02*
X196520000Y-106210000D01*
X196520000Y-106210000D02*
X196520000Y-107590000D01*
G04 #@! TO.C,J3*
X205620000Y-65820000D02*
X207000000Y-65820000D01*
X205620000Y-67200000D02*
X205620000Y-65820000D01*
X205620000Y-68470000D02*
X205620000Y-68580000D01*
X205620000Y-68470000D02*
X208270000Y-68470000D01*
X205620000Y-68580000D02*
X210920000Y-68580000D01*
X208270000Y-65820000D02*
X210920000Y-65820000D01*
X208270000Y-68470000D02*
X208270000Y-65820000D01*
X210920000Y-65820000D02*
X210920000Y-68580000D01*
G04 #@! TO.C,J6*
X185880000Y-65820000D02*
X187260000Y-65820000D01*
X185880000Y-67200000D02*
X185880000Y-65820000D01*
X185880000Y-68470000D02*
X185880000Y-68580000D01*
X185880000Y-68470000D02*
X188530000Y-68470000D01*
X185880000Y-68580000D02*
X191180000Y-68580000D01*
X188530000Y-65820000D02*
X191180000Y-65820000D01*
X188530000Y-68470000D02*
X188530000Y-65820000D01*
X191180000Y-65820000D02*
X191180000Y-68580000D01*
G04 #@! TO.C,J2*
X212220000Y-73660000D02*
X213600000Y-73660000D01*
X212220000Y-75040000D02*
X212220000Y-73660000D01*
X212220000Y-76310000D02*
X212220000Y-104360000D01*
X212220000Y-76310000D02*
X214870000Y-76310000D01*
X212220000Y-104360000D02*
X217520000Y-104360000D01*
X214870000Y-73660000D02*
X217520000Y-73660000D01*
X214870000Y-76310000D02*
X214870000Y-73660000D01*
X217520000Y-73660000D02*
X217520000Y-104360000D01*
G04 #@! TO.C,U2*
X178560000Y-77870000D02*
X178560000Y-98310000D01*
X178560000Y-98310000D02*
X183860000Y-98310000D01*
X180210000Y-77870000D02*
X178560000Y-77870000D01*
X183860000Y-77870000D02*
X182210000Y-77870000D01*
X183860000Y-98310000D02*
X183860000Y-77870000D01*
X182210000Y-77870000D02*
G75*
G02*
X180210000Y-77870000I-1000000J0D01*
G01*
G04 #@! TO.C,J5*
X179680000Y-65820000D02*
X181060000Y-65820000D01*
X179680000Y-67200000D02*
X179680000Y-65820000D01*
X179680000Y-68470000D02*
X179680000Y-68580000D01*
X179680000Y-68470000D02*
X182330000Y-68470000D01*
X179680000Y-68580000D02*
X184980000Y-68580000D01*
X182330000Y-65820000D02*
X184980000Y-65820000D01*
X182330000Y-68470000D02*
X182330000Y-65820000D01*
X184980000Y-65820000D02*
X184980000Y-68580000D01*
G04 #@! TD*
M02*
