G04 #@! TF.GenerationSoftware,KiCad,Pcbnew,9.0.2*
G04 #@! TF.CreationDate,2025-07-03T21:31:51+02:00*
G04 #@! TF.ProjectId,clock divider,636c6f63-6b20-4646-9976-696465722e6b,rev?*
G04 #@! TF.SameCoordinates,Original*
G04 #@! TF.FileFunction,Copper,L1,Top*
G04 #@! TF.FilePolarity,Positive*
%FSLAX46Y46*%
G04 Gerber Fmt 4.6, Leading zero omitted, Abs format (unit mm)*
G04 Created by KiCad (PCBNEW 9.0.2) date 2025-07-03 21:31:51*
%MOMM*%
%LPD*%
G01*
G04 APERTURE LIST*
G04 Aperture macros list*
%AMRoundRect*
0 Rectangle with rounded corners*
0 $1 Rounding radius*
0 $2 $3 $4 $5 $6 $7 $8 $9 X,Y pos of 4 corners*
0 Add a 4 corners polygon primitive as box body*
4,1,4,$2,$3,$4,$5,$6,$7,$8,$9,$2,$3,0*
0 Add four circle primitives for the rounded corners*
1,1,$1+$1,$2,$3*
1,1,$1+$1,$4,$5*
1,1,$1+$1,$6,$7*
1,1,$1+$1,$8,$9*
0 Add four rect primitives between the rounded corners*
20,1,$1+$1,$2,$3,$4,$5,0*
20,1,$1+$1,$4,$5,$6,$7,0*
20,1,$1+$1,$6,$7,$8,$9,0*
20,1,$1+$1,$8,$9,$2,$3,0*%
G04 Aperture macros list end*
G04 #@! TA.AperFunction,ComponentPad*
%ADD10R,1.600000X1.600000*%
G04 #@! TD*
G04 #@! TA.AperFunction,ComponentPad*
%ADD11C,1.600000*%
G04 #@! TD*
G04 #@! TA.AperFunction,ComponentPad*
%ADD12R,1.700000X1.700000*%
G04 #@! TD*
G04 #@! TA.AperFunction,ComponentPad*
%ADD13C,1.700000*%
G04 #@! TD*
G04 #@! TA.AperFunction,ComponentPad*
%ADD14RoundRect,0.250000X-0.550000X-0.550000X0.550000X-0.550000X0.550000X0.550000X-0.550000X0.550000X0*%
G04 #@! TD*
G04 #@! TA.AperFunction,ViaPad*
%ADD15C,0.600000*%
G04 #@! TD*
G04 #@! TA.AperFunction,Conductor*
%ADD16C,0.200000*%
G04 #@! TD*
G04 APERTURE END LIST*
D10*
G04 #@! TO.P,RN1,1,R1*
G04 #@! TO.N,GND*
X191200000Y-93960000D03*
D11*
G04 #@! TO.P,RN1,2,R1.2*
G04 #@! TO.N,Net-(J1-Pin_1)*
X191200000Y-91420000D03*
G04 #@! TO.P,RN1,3,R2.2*
G04 #@! TO.N,Net-(J3-Pin_1)*
X191200000Y-88880000D03*
G04 #@! TO.P,RN1,4,R3.2*
G04 #@! TO.N,Net-(J5-Pin_1)*
X191200000Y-86340000D03*
G04 #@! TO.P,RN1,5,R4.2*
G04 #@! TO.N,Net-(J4-Pin_1)*
X191200000Y-83800000D03*
G04 #@! TO.P,RN1,6,R5.2*
G04 #@! TO.N,Net-(J6-Pin_1)*
X191200000Y-81260000D03*
G04 #@! TD*
G04 #@! TO.P,C1,1*
G04 #@! TO.N,VCC*
X205250000Y-74600000D03*
G04 #@! TO.P,C1,2*
G04 #@! TO.N,GND*
X202750000Y-74600000D03*
G04 #@! TD*
G04 #@! TO.P,C2,1*
G04 #@! TO.N,VCC*
X182400000Y-74140000D03*
G04 #@! TO.P,C2,2*
G04 #@! TO.N,GND*
X179900000Y-74140000D03*
G04 #@! TD*
D12*
G04 #@! TO.P,J4,1,Pin_1*
G04 #@! TO.N,Net-(J4-Pin_1)*
X174860000Y-67200000D03*
D13*
G04 #@! TO.P,J4,2,Pin_2*
X177400000Y-67200000D03*
G04 #@! TD*
D12*
G04 #@! TO.P,J8,1,Pin_1*
G04 #@! TO.N,VCC*
X195140000Y-103000000D03*
D13*
G04 #@! TO.P,J8,2,Pin_2*
X192600000Y-103000000D03*
G04 #@! TO.P,J8,3,Pin_3*
X190060000Y-103000000D03*
G04 #@! TO.P,J8,4,Pin_4*
X187520000Y-103000000D03*
G04 #@! TD*
D12*
G04 #@! TO.P,J1,1,Pin_1*
G04 #@! TO.N,Net-(J1-Pin_1)*
X200675000Y-67200000D03*
D13*
G04 #@! TO.P,J1,2,Pin_2*
X203215000Y-67200000D03*
G04 #@! TD*
D14*
G04 #@! TO.P,U1,1,Q11*
G04 #@! TO.N,Net-(J2-Pin_23)*
X200200000Y-79800000D03*
D11*
G04 #@! TO.P,U1,2,Q5*
G04 #@! TO.N,Net-(J2-Pin_11)*
X200200000Y-82340000D03*
G04 #@! TO.P,U1,3,Q4*
G04 #@! TO.N,Net-(J2-Pin_10)*
X200200000Y-84880000D03*
G04 #@! TO.P,U1,4,Q6*
G04 #@! TO.N,Net-(J2-Pin_13)*
X200200000Y-87420000D03*
G04 #@! TO.P,U1,5,Q3*
G04 #@! TO.N,Net-(J2-Pin_7)*
X200200000Y-89960000D03*
G04 #@! TO.P,U1,6,Q2*
G04 #@! TO.N,Net-(J2-Pin_5)*
X200200000Y-92500000D03*
G04 #@! TO.P,U1,7,Q1*
G04 #@! TO.N,Net-(J2-Pin_3)*
X200200000Y-95040000D03*
G04 #@! TO.P,U1,8,VSS*
G04 #@! TO.N,GND*
X200200000Y-97580000D03*
G04 #@! TO.P,U1,9,Q0*
G04 #@! TO.N,Net-(J2-Pin_1)*
X207820000Y-97580000D03*
G04 #@! TO.P,U1,10,CLK*
G04 #@! TO.N,Net-(J1-Pin_1)*
X207820000Y-95040000D03*
G04 #@! TO.P,U1,11,Reset*
G04 #@! TO.N,Net-(J3-Pin_1)*
X207820000Y-92500000D03*
G04 #@! TO.P,U1,12,Q8*
G04 #@! TO.N,Net-(J2-Pin_17)*
X207820000Y-89960000D03*
G04 #@! TO.P,U1,13,Q7*
G04 #@! TO.N,Net-(J2-Pin_15)*
X207820000Y-87420000D03*
G04 #@! TO.P,U1,14,Q9*
G04 #@! TO.N,Net-(J2-Pin_19)*
X207820000Y-84880000D03*
G04 #@! TO.P,U1,15,Q10*
G04 #@! TO.N,Net-(J2-Pin_21)*
X207820000Y-82340000D03*
G04 #@! TO.P,U1,16,VDD*
G04 #@! TO.N,VCC*
X207820000Y-79800000D03*
G04 #@! TD*
D12*
G04 #@! TO.P,J7,1,Pin_1*
G04 #@! TO.N,Net-(J7-Pin_1)*
X168000000Y-75580000D03*
D13*
G04 #@! TO.P,J7,2,Pin_2*
X170540000Y-75580000D03*
G04 #@! TO.P,J7,3,Pin_3*
G04 #@! TO.N,Net-(J7-Pin_3)*
X168000000Y-78120000D03*
G04 #@! TO.P,J7,4,Pin_4*
X170540000Y-78120000D03*
G04 #@! TO.P,J7,5,Pin_5*
G04 #@! TO.N,Net-(J7-Pin_5)*
X168000000Y-80660000D03*
G04 #@! TO.P,J7,6,Pin_6*
X170540000Y-80660000D03*
G04 #@! TO.P,J7,7,Pin_7*
G04 #@! TO.N,Net-(J7-Pin_7)*
X168000000Y-83200000D03*
G04 #@! TO.P,J7,8,Pin_8*
X170540000Y-83200000D03*
G04 #@! TO.P,J7,9,Pin_9*
G04 #@! TO.N,Net-(J7-Pin_10)*
X168000000Y-85740000D03*
G04 #@! TO.P,J7,10,Pin_10*
X170540000Y-85740000D03*
G04 #@! TO.P,J7,11,Pin_11*
G04 #@! TO.N,Net-(J7-Pin_11)*
X168000000Y-88280000D03*
G04 #@! TO.P,J7,12,Pin_12*
X170540000Y-88280000D03*
G04 #@! TO.P,J7,13,Pin_13*
G04 #@! TO.N,Net-(J7-Pin_13)*
X168000000Y-90820000D03*
G04 #@! TO.P,J7,14,Pin_14*
X170540000Y-90820000D03*
G04 #@! TO.P,J7,15,Pin_15*
G04 #@! TO.N,Net-(J7-Pin_15)*
X168000000Y-93360000D03*
G04 #@! TO.P,J7,16,Pin_16*
X170540000Y-93360000D03*
G04 #@! TO.P,J7,17,Pin_17*
G04 #@! TO.N,Net-(J7-Pin_17)*
X168000000Y-95900000D03*
G04 #@! TO.P,J7,18,Pin_18*
X170540000Y-95900000D03*
G04 #@! TO.P,J7,19,Pin_19*
G04 #@! TO.N,Net-(J7-Pin_19)*
X168000000Y-98440000D03*
G04 #@! TO.P,J7,20,Pin_20*
X170540000Y-98440000D03*
G04 #@! TO.P,J7,21,Pin_21*
G04 #@! TO.N,Net-(J7-Pin_21)*
X168000000Y-100980000D03*
G04 #@! TO.P,J7,22,Pin_22*
X170540000Y-100980000D03*
G04 #@! TD*
D12*
G04 #@! TO.P,J9,1,Pin_1*
G04 #@! TO.N,GND*
X195140000Y-107590000D03*
D13*
G04 #@! TO.P,J9,2,Pin_2*
X192600000Y-107590000D03*
G04 #@! TO.P,J9,3,Pin_3*
X190060000Y-107590000D03*
G04 #@! TO.P,J9,4,Pin_4*
X187520000Y-107590000D03*
G04 #@! TD*
D12*
G04 #@! TO.P,J3,1,Pin_1*
G04 #@! TO.N,Net-(J3-Pin_1)*
X207000000Y-67200000D03*
D13*
G04 #@! TO.P,J3,2,Pin_2*
X209540000Y-67200000D03*
G04 #@! TD*
D12*
G04 #@! TO.P,J6,1,Pin_1*
G04 #@! TO.N,Net-(J6-Pin_1)*
X187260000Y-67200000D03*
D13*
G04 #@! TO.P,J6,2,Pin_2*
X189800000Y-67200000D03*
G04 #@! TD*
D12*
G04 #@! TO.P,J2,1,Pin_1*
G04 #@! TO.N,Net-(J2-Pin_1)*
X213600000Y-75040000D03*
D13*
G04 #@! TO.P,J2,2,Pin_2*
X216140000Y-75040000D03*
G04 #@! TO.P,J2,3,Pin_3*
G04 #@! TO.N,Net-(J2-Pin_3)*
X213600000Y-77580000D03*
G04 #@! TO.P,J2,4,Pin_4*
X216140000Y-77580000D03*
G04 #@! TO.P,J2,5,Pin_5*
G04 #@! TO.N,Net-(J2-Pin_5)*
X213600000Y-80120000D03*
G04 #@! TO.P,J2,6,Pin_6*
X216140000Y-80120000D03*
G04 #@! TO.P,J2,7,Pin_7*
G04 #@! TO.N,Net-(J2-Pin_7)*
X213600000Y-82660000D03*
G04 #@! TO.P,J2,8,Pin_8*
X216140000Y-82660000D03*
G04 #@! TO.P,J2,9,Pin_9*
G04 #@! TO.N,Net-(J2-Pin_10)*
X213600000Y-85200000D03*
G04 #@! TO.P,J2,10,Pin_10*
X216140000Y-85200000D03*
G04 #@! TO.P,J2,11,Pin_11*
G04 #@! TO.N,Net-(J2-Pin_11)*
X213600000Y-87740000D03*
G04 #@! TO.P,J2,12,Pin_12*
X216140000Y-87740000D03*
G04 #@! TO.P,J2,13,Pin_13*
G04 #@! TO.N,Net-(J2-Pin_13)*
X213600000Y-90280000D03*
G04 #@! TO.P,J2,14,Pin_14*
X216140000Y-90280000D03*
G04 #@! TO.P,J2,15,Pin_15*
G04 #@! TO.N,Net-(J2-Pin_15)*
X213600000Y-92820000D03*
G04 #@! TO.P,J2,16,Pin_16*
X216140000Y-92820000D03*
G04 #@! TO.P,J2,17,Pin_17*
G04 #@! TO.N,Net-(J2-Pin_17)*
X213600000Y-95360000D03*
G04 #@! TO.P,J2,18,Pin_18*
X216140000Y-95360000D03*
G04 #@! TO.P,J2,19,Pin_19*
G04 #@! TO.N,Net-(J2-Pin_19)*
X213600000Y-97900000D03*
G04 #@! TO.P,J2,20,Pin_20*
X216140000Y-97900000D03*
G04 #@! TO.P,J2,21,Pin_21*
G04 #@! TO.N,Net-(J2-Pin_21)*
X213600000Y-100440000D03*
G04 #@! TO.P,J2,22,Pin_22*
X216140000Y-100440000D03*
G04 #@! TO.P,J2,23,Pin_23*
G04 #@! TO.N,Net-(J2-Pin_23)*
X213600000Y-102980000D03*
G04 #@! TO.P,J2,24,Pin_24*
X216140000Y-102980000D03*
G04 #@! TD*
D14*
G04 #@! TO.P,U2,1,Q5*
G04 #@! TO.N,Net-(J7-Pin_11)*
X177400000Y-79200000D03*
D11*
G04 #@! TO.P,U2,2,Q1*
G04 #@! TO.N,Net-(J7-Pin_3)*
X177400000Y-81740000D03*
G04 #@! TO.P,U2,3,Q0*
G04 #@! TO.N,Net-(J7-Pin_1)*
X177400000Y-84280000D03*
G04 #@! TO.P,U2,4,Q2*
G04 #@! TO.N,Net-(J7-Pin_5)*
X177400000Y-86820000D03*
G04 #@! TO.P,U2,5,Q6*
G04 #@! TO.N,Net-(J7-Pin_13)*
X177400000Y-89360000D03*
G04 #@! TO.P,U2,6,Q7*
G04 #@! TO.N,Net-(J7-Pin_15)*
X177400000Y-91900000D03*
G04 #@! TO.P,U2,7,Q3*
G04 #@! TO.N,Net-(J7-Pin_7)*
X177400000Y-94440000D03*
G04 #@! TO.P,U2,8,VSS*
G04 #@! TO.N,GND*
X177400000Y-96980000D03*
G04 #@! TO.P,U2,9,Q8*
G04 #@! TO.N,Net-(J7-Pin_17)*
X185020000Y-96980000D03*
G04 #@! TO.P,U2,10,Q4*
G04 #@! TO.N,Net-(J7-Pin_10)*
X185020000Y-94440000D03*
G04 #@! TO.P,U2,11,Q9*
G04 #@! TO.N,Net-(J7-Pin_19)*
X185020000Y-91900000D03*
G04 #@! TO.P,U2,12,Cout*
G04 #@! TO.N,Net-(J7-Pin_21)*
X185020000Y-89360000D03*
G04 #@! TO.P,U2,13,CKEN*
G04 #@! TO.N,Net-(J5-Pin_1)*
X185020000Y-86820000D03*
G04 #@! TO.P,U2,14,CLK*
G04 #@! TO.N,Net-(J4-Pin_1)*
X185020000Y-84280000D03*
G04 #@! TO.P,U2,15,Reset*
G04 #@! TO.N,Net-(J6-Pin_1)*
X185020000Y-81740000D03*
G04 #@! TO.P,U2,16,VDD*
G04 #@! TO.N,VCC*
X185020000Y-79200000D03*
G04 #@! TD*
D12*
G04 #@! TO.P,J5,1,Pin_1*
G04 #@! TO.N,Net-(J5-Pin_1)*
X181060000Y-67200000D03*
D13*
G04 #@! TO.P,J5,2,Pin_2*
X183600000Y-67200000D03*
G04 #@! TD*
D15*
G04 #@! TO.N,VCC*
X203200000Y-79000000D03*
G04 #@! TO.N,Net-(J2-Pin_23)*
X195200000Y-95200000D03*
G04 #@! TD*
D16*
G04 #@! TO.N,Net-(J1-Pin_1)*
X193719000Y-93939000D02*
X191200000Y-91420000D01*
X200675000Y-67200000D02*
X203215000Y-67200000D01*
X207820000Y-95040000D02*
X206719000Y-93939000D01*
X206719000Y-93939000D02*
X193719000Y-93939000D01*
G04 #@! TO.N,Net-(J2-Pin_11)*
X218460000Y-87740000D02*
X216140000Y-87740000D01*
X210551240Y-81239000D02*
X213312240Y-84000000D01*
X219600000Y-86600000D02*
X218460000Y-87740000D01*
X219600000Y-85200000D02*
X219600000Y-86600000D01*
X201301000Y-81239000D02*
X210551240Y-81239000D01*
X213312240Y-84000000D02*
X218400000Y-84000000D01*
X200200000Y-82340000D02*
X201301000Y-81239000D01*
X218400000Y-84000000D02*
X219600000Y-85200000D01*
G04 #@! TO.N,Net-(J2-Pin_1)*
X221200000Y-77800000D02*
X218440000Y-75040000D01*
X221200000Y-94467760D02*
X221200000Y-77800000D01*
X207820000Y-97580000D02*
X209291000Y-99051000D01*
X209291000Y-99051000D02*
X216616760Y-99051000D01*
X216616760Y-99051000D02*
X221200000Y-94467760D01*
X218440000Y-75040000D02*
X216140000Y-75040000D01*
X213600000Y-75040000D02*
X216140000Y-75040000D01*
G04 #@! TO.N,Net-(J2-Pin_21)*
X213600000Y-100440000D02*
X216140000Y-100440000D01*
G04 #@! TO.N,Net-(J2-Pin_17)*
X207820000Y-89960000D02*
X213220000Y-95360000D01*
X213220000Y-95360000D02*
X213600000Y-95360000D01*
G04 #@! TO.N,Net-(J2-Pin_10)*
X201301000Y-83779000D02*
X212179000Y-83779000D01*
X200200000Y-84880000D02*
X201301000Y-83779000D01*
X212179000Y-83779000D02*
X213600000Y-85200000D01*
G04 #@! TO.N,Net-(J2-Pin_19)*
X216140000Y-97900000D02*
X213600000Y-97900000D01*
G04 #@! TO.N,Net-(J3-Pin_1)*
X207820000Y-92500000D02*
X206719000Y-91399000D01*
X207000000Y-67200000D02*
X209540000Y-67200000D01*
X195800000Y-78400000D02*
X195800000Y-84280000D01*
X206719000Y-91399000D02*
X193719000Y-91399000D01*
X193719000Y-91399000D02*
X191200000Y-88880000D01*
X195800000Y-84280000D02*
X191200000Y-88880000D01*
X207000000Y-67200000D02*
X195800000Y-78400000D01*
G04 #@! TO.N,Net-(J5-Pin_1)*
X186600000Y-85240000D02*
X185020000Y-86820000D01*
X186600000Y-70200000D02*
X186600000Y-85240000D01*
X183600000Y-67200000D02*
X186600000Y-70200000D01*
X185020000Y-86820000D02*
X190720000Y-86820000D01*
X190720000Y-86820000D02*
X191200000Y-86340000D01*
G04 #@! TO.N,Net-(J7-Pin_11)*
X170540000Y-88280000D02*
X168000000Y-88280000D01*
X176299000Y-80301000D02*
X177400000Y-79200000D01*
X176299000Y-82521000D02*
X176299000Y-80301000D01*
X170540000Y-88280000D02*
X176299000Y-82521000D01*
G04 #@! TO.N,Net-(J7-Pin_17)*
X170540000Y-95900000D02*
X168000000Y-95900000D01*
G04 #@! TO.N,Net-(J7-Pin_1)*
X177580000Y-75580000D02*
X180000000Y-78000000D01*
X170540000Y-75580000D02*
X168000000Y-75580000D01*
X180000000Y-78000000D02*
X180000000Y-81680000D01*
X180000000Y-81680000D02*
X177400000Y-84280000D01*
X170540000Y-75580000D02*
X177580000Y-75580000D01*
G04 #@! TO.N,Net-(J7-Pin_10)*
X170540000Y-85740000D02*
X168000000Y-85740000D01*
G04 #@! TO.N,Net-(J7-Pin_19)*
X170540000Y-98440000D02*
X168000000Y-98440000D01*
G04 #@! TO.N,Net-(J7-Pin_15)*
X171350000Y-92550000D02*
X172000000Y-91900000D01*
X171350000Y-92550000D02*
X170540000Y-93360000D01*
X172000000Y-91900000D02*
X177400000Y-91900000D01*
X170540000Y-93360000D02*
X168000000Y-93360000D01*
G04 #@! TO.N,GND*
X184760000Y-100400000D02*
X191200000Y-93960000D01*
X177400000Y-96980000D02*
X180820000Y-100400000D01*
X180820000Y-100400000D02*
X184760000Y-100400000D01*
G04 #@! TO.N,VCC*
X207820000Y-79800000D02*
X204000000Y-79800000D01*
X192600000Y-103000000D02*
X195140000Y-103000000D01*
X204000000Y-79800000D02*
X203200000Y-79000000D01*
X190060000Y-103000000D02*
X192600000Y-103000000D01*
X187520000Y-103000000D02*
X190060000Y-103000000D01*
G04 #@! TO.N,Net-(J2-Pin_3)*
X213600000Y-77580000D02*
X216140000Y-77580000D01*
G04 #@! TO.N,Net-(J2-Pin_23)*
X199180000Y-102980000D02*
X195200000Y-99000000D01*
X213600000Y-102980000D02*
X199180000Y-102980000D01*
X195200000Y-99000000D02*
X195200000Y-95200000D01*
G04 #@! TO.N,Net-(J2-Pin_15)*
X207820000Y-87420000D02*
X213220000Y-92820000D01*
X213220000Y-92820000D02*
X213600000Y-92820000D01*
G04 #@! TO.N,Net-(J2-Pin_13)*
X209301000Y-85981000D02*
X213600000Y-90280000D01*
X201639000Y-85981000D02*
X209301000Y-85981000D01*
X200200000Y-87420000D02*
X201639000Y-85981000D01*
G04 #@! TO.N,Net-(J2-Pin_7)*
X199170000Y-77200000D02*
X209000000Y-77200000D01*
X213600000Y-81800000D02*
X213600000Y-82660000D01*
X197800000Y-87560000D02*
X197800000Y-78570000D01*
X209000000Y-77200000D02*
X213600000Y-81800000D01*
X197800000Y-78570000D02*
X199170000Y-77200000D01*
X200200000Y-89960000D02*
X197800000Y-87560000D01*
G04 #@! TO.N,Net-(J2-Pin_5)*
X213600000Y-80120000D02*
X216140000Y-80120000D01*
G04 #@! TO.N,Net-(J7-Pin_13)*
X172000000Y-89360000D02*
X177400000Y-89360000D01*
X170540000Y-90820000D02*
X172000000Y-89360000D01*
X170540000Y-90820000D02*
X168000000Y-90820000D01*
G04 #@! TO.N,Net-(J7-Pin_3)*
X170540000Y-78120000D02*
X168000000Y-78120000D01*
G04 #@! TO.N,Net-(J7-Pin_21)*
X170540000Y-100980000D02*
X168000000Y-100980000D01*
G04 #@! TO.N,Net-(J7-Pin_7)*
X170540000Y-83200000D02*
X168000000Y-83200000D01*
G04 #@! TO.N,Net-(J7-Pin_5)*
X170540000Y-80660000D02*
X168000000Y-80660000D01*
G04 #@! TD*
G04 #@! TA.AperFunction,Conductor*
G04 #@! TO.N,VCC*
G36*
X208766942Y-77820185D02*
G01*
X208787584Y-77836819D01*
X212563044Y-81612279D01*
X212596529Y-81673602D01*
X212591545Y-81743294D01*
X212572326Y-81775952D01*
X212572759Y-81776267D01*
X212444949Y-81952182D01*
X212410607Y-82019582D01*
X212362633Y-82070377D01*
X212294812Y-82087172D01*
X212228677Y-82064634D01*
X212212447Y-82050971D01*
X211038829Y-80877354D01*
X211038828Y-80877352D01*
X210919957Y-80758481D01*
X210919949Y-80758475D01*
X210819532Y-80700500D01*
X210819531Y-80700499D01*
X210819531Y-80700500D01*
X210783025Y-80679423D01*
X210630297Y-80638499D01*
X210472183Y-80638499D01*
X210464587Y-80638499D01*
X210464571Y-80638500D01*
X209054137Y-80638500D01*
X208987098Y-80618815D01*
X208941343Y-80566011D01*
X208931399Y-80496853D01*
X208943652Y-80458205D01*
X209024755Y-80299031D01*
X209087990Y-80104417D01*
X209120000Y-79902317D01*
X209120000Y-79697682D01*
X209087990Y-79495582D01*
X209024755Y-79300968D01*
X208931859Y-79118650D01*
X208899474Y-79074077D01*
X208899474Y-79074076D01*
X208220000Y-79753551D01*
X208220000Y-79747339D01*
X208192741Y-79645606D01*
X208140080Y-79554394D01*
X208065606Y-79479920D01*
X207974394Y-79427259D01*
X207872661Y-79400000D01*
X207866446Y-79400000D01*
X208545922Y-78720524D01*
X208545921Y-78720523D01*
X208501359Y-78688147D01*
X208501350Y-78688141D01*
X208319031Y-78595244D01*
X208124417Y-78532009D01*
X207922317Y-78500000D01*
X207717683Y-78500000D01*
X207515582Y-78532009D01*
X207320968Y-78595244D01*
X207138644Y-78688143D01*
X207094077Y-78720523D01*
X207094077Y-78720524D01*
X207773554Y-79400000D01*
X207767339Y-79400000D01*
X207665606Y-79427259D01*
X207574394Y-79479920D01*
X207499920Y-79554394D01*
X207447259Y-79645606D01*
X207420000Y-79747339D01*
X207420000Y-79753553D01*
X206740524Y-79074077D01*
X206740523Y-79074077D01*
X206708143Y-79118644D01*
X206615244Y-79300968D01*
X206552009Y-79495582D01*
X206520000Y-79697682D01*
X206520000Y-79902317D01*
X206552009Y-80104417D01*
X206615244Y-80299031D01*
X206696348Y-80458205D01*
X206709244Y-80526874D01*
X206682968Y-80591615D01*
X206625861Y-80631872D01*
X206585863Y-80638500D01*
X201613449Y-80638500D01*
X201546410Y-80618815D01*
X201500655Y-80566011D01*
X201490091Y-80501897D01*
X201494992Y-80453920D01*
X201500500Y-80400009D01*
X201500499Y-79199992D01*
X201495120Y-79147339D01*
X201489999Y-79097203D01*
X201489998Y-79097200D01*
X201456750Y-78996865D01*
X201434814Y-78930666D01*
X201342712Y-78781344D01*
X201218656Y-78657288D01*
X201069334Y-78565186D01*
X200902797Y-78510001D01*
X200902795Y-78510000D01*
X200800010Y-78499500D01*
X199599998Y-78499500D01*
X199599981Y-78499501D01*
X199497203Y-78510000D01*
X199497200Y-78510001D01*
X199330668Y-78565185D01*
X199330663Y-78565187D01*
X199181342Y-78657289D01*
X199057289Y-78781342D01*
X198965187Y-78930663D01*
X198965185Y-78930668D01*
X198953826Y-78964949D01*
X198910001Y-79097203D01*
X198910001Y-79097204D01*
X198910000Y-79097204D01*
X198899500Y-79199983D01*
X198899500Y-80400001D01*
X198899501Y-80400018D01*
X198910000Y-80502796D01*
X198910001Y-80502799D01*
X198965185Y-80669331D01*
X198965187Y-80669336D01*
X198992471Y-80713571D01*
X199057288Y-80818656D01*
X199181344Y-80942712D01*
X199330666Y-81034814D01*
X199412570Y-81061954D01*
X199470015Y-81101727D01*
X199496838Y-81166243D01*
X199484523Y-81235018D01*
X199446451Y-81279978D01*
X199352787Y-81348028D01*
X199352782Y-81348032D01*
X199208028Y-81492786D01*
X199087715Y-81658386D01*
X198994781Y-81840776D01*
X198931522Y-82035465D01*
X198899500Y-82237648D01*
X198899500Y-82442351D01*
X198931522Y-82644534D01*
X198994781Y-82839223D01*
X199045394Y-82938555D01*
X199084503Y-83015311D01*
X199087715Y-83021613D01*
X199208028Y-83187213D01*
X199352786Y-83331971D01*
X199445734Y-83399500D01*
X199518390Y-83452287D01*
X199609840Y-83498883D01*
X199611080Y-83499515D01*
X199661876Y-83547490D01*
X199678671Y-83615311D01*
X199656134Y-83681446D01*
X199611080Y-83720485D01*
X199518386Y-83767715D01*
X199352786Y-83888028D01*
X199208028Y-84032786D01*
X199087715Y-84198386D01*
X198994781Y-84380776D01*
X198931522Y-84575465D01*
X198899500Y-84777648D01*
X198899500Y-84982351D01*
X198931522Y-85184534D01*
X198994781Y-85379223D01*
X199056563Y-85500475D01*
X199084503Y-85555311D01*
X199087715Y-85561613D01*
X199208028Y-85727213D01*
X199352786Y-85871971D01*
X199491542Y-85972781D01*
X199518390Y-85992287D01*
X199603137Y-86035468D01*
X199611080Y-86039515D01*
X199661876Y-86087490D01*
X199678671Y-86155311D01*
X199656134Y-86221446D01*
X199611080Y-86260485D01*
X199518386Y-86307715D01*
X199352786Y-86428028D01*
X199208028Y-86572786D01*
X199087715Y-86738386D01*
X198994781Y-86920776D01*
X198931522Y-87115465D01*
X198899500Y-87317648D01*
X198899500Y-87510902D01*
X198879815Y-87577941D01*
X198827011Y-87623696D01*
X198757853Y-87633640D01*
X198694297Y-87604615D01*
X198687819Y-87598583D01*
X198436819Y-87347583D01*
X198403334Y-87286260D01*
X198400500Y-87259902D01*
X198400500Y-78870097D01*
X198420185Y-78803058D01*
X198436819Y-78782416D01*
X199382417Y-77836819D01*
X199443740Y-77803334D01*
X199470098Y-77800500D01*
X208699903Y-77800500D01*
X208766942Y-77820185D01*
G37*
G04 #@! TD.AperFunction*
G04 #@! TA.AperFunction,Conductor*
G36*
X223842539Y-60520185D02*
G01*
X223888294Y-60572989D01*
X223899500Y-60624500D01*
X223899500Y-109375500D01*
X223879815Y-109442539D01*
X223827011Y-109488294D01*
X223775500Y-109499500D01*
X161024500Y-109499500D01*
X160957461Y-109479815D01*
X160911706Y-109427011D01*
X160900500Y-109375500D01*
X160900500Y-106249223D01*
X161699500Y-106249223D01*
X161699500Y-106550776D01*
X161699501Y-106550793D01*
X161738861Y-106849766D01*
X161816913Y-107141060D01*
X161932314Y-107419661D01*
X161932318Y-107419671D01*
X162083099Y-107680831D01*
X162266679Y-107920078D01*
X162266685Y-107920085D01*
X162479914Y-108133314D01*
X162479921Y-108133320D01*
X162719168Y-108316900D01*
X162980328Y-108467681D01*
X162980329Y-108467681D01*
X162980332Y-108467683D01*
X163166072Y-108544619D01*
X163258939Y-108583086D01*
X163258940Y-108583086D01*
X163258942Y-108583087D01*
X163550232Y-108661138D01*
X163849217Y-108700500D01*
X163849224Y-108700500D01*
X164150776Y-108700500D01*
X164150783Y-108700500D01*
X164449768Y-108661138D01*
X164741058Y-108583087D01*
X165019668Y-108467683D01*
X165280832Y-108316900D01*
X165520080Y-108133319D01*
X165733319Y-107920080D01*
X165916900Y-107680832D01*
X166030707Y-107483713D01*
X186169500Y-107483713D01*
X186169500Y-107696287D01*
X186202754Y-107906243D01*
X186207249Y-107920078D01*
X186268444Y-108108414D01*
X186364951Y-108297820D01*
X186489890Y-108469786D01*
X186640213Y-108620109D01*
X186812179Y-108745048D01*
X186812181Y-108745049D01*
X186812184Y-108745051D01*
X187001588Y-108841557D01*
X187203757Y-108907246D01*
X187413713Y-108940500D01*
X187413714Y-108940500D01*
X187626286Y-108940500D01*
X187626287Y-108940500D01*
X187836243Y-108907246D01*
X188038412Y-108841557D01*
X188227816Y-108745051D01*
X188289136Y-108700500D01*
X188399786Y-108620109D01*
X188399788Y-108620106D01*
X188399792Y-108620104D01*
X188550104Y-108469792D01*
X188550106Y-108469788D01*
X188550109Y-108469786D01*
X188675048Y-108297820D01*
X188675047Y-108297820D01*
X188675051Y-108297816D01*
X188679514Y-108289054D01*
X188727488Y-108238259D01*
X188795308Y-108221463D01*
X188861444Y-108243999D01*
X188900486Y-108289056D01*
X188904951Y-108297820D01*
X189029890Y-108469786D01*
X189180213Y-108620109D01*
X189352179Y-108745048D01*
X189352181Y-108745049D01*
X189352184Y-108745051D01*
X189541588Y-108841557D01*
X189743757Y-108907246D01*
X189953713Y-108940500D01*
X189953714Y-108940500D01*
X190166286Y-108940500D01*
X190166287Y-108940500D01*
X190376243Y-108907246D01*
X190578412Y-108841557D01*
X190767816Y-108745051D01*
X190829136Y-108700500D01*
X190939786Y-108620109D01*
X190939788Y-108620106D01*
X190939792Y-108620104D01*
X191090104Y-108469792D01*
X191090106Y-108469788D01*
X191090109Y-108469786D01*
X191215048Y-108297820D01*
X191215047Y-108297820D01*
X191215051Y-108297816D01*
X191219514Y-108289054D01*
X191267488Y-108238259D01*
X191335308Y-108221463D01*
X191401444Y-108243999D01*
X191440486Y-108289056D01*
X191444951Y-108297820D01*
X191569890Y-108469786D01*
X191720213Y-108620109D01*
X191892179Y-108745048D01*
X191892181Y-108745049D01*
X191892184Y-108745051D01*
X192081588Y-108841557D01*
X192283757Y-108907246D01*
X192493713Y-108940500D01*
X192493714Y-108940500D01*
X192706286Y-108940500D01*
X192706287Y-108940500D01*
X192916243Y-108907246D01*
X193118412Y-108841557D01*
X193307816Y-108745051D01*
X193479792Y-108620104D01*
X193593329Y-108506566D01*
X193654648Y-108473084D01*
X193724340Y-108478068D01*
X193780274Y-108519939D01*
X193797189Y-108550917D01*
X193846202Y-108682328D01*
X193846206Y-108682335D01*
X193932452Y-108797544D01*
X193932455Y-108797547D01*
X194047664Y-108883793D01*
X194047671Y-108883797D01*
X194182517Y-108934091D01*
X194182516Y-108934091D01*
X194189444Y-108934835D01*
X194242127Y-108940500D01*
X196037872Y-108940499D01*
X196097483Y-108934091D01*
X196232331Y-108883796D01*
X196347546Y-108797546D01*
X196433796Y-108682331D01*
X196484091Y-108547483D01*
X196490500Y-108487873D01*
X196490499Y-106692128D01*
X196484091Y-106632517D01*
X196482810Y-106629083D01*
X196433797Y-106497671D01*
X196433793Y-106497664D01*
X196347547Y-106382456D01*
X196347548Y-106382456D01*
X196347546Y-106382454D01*
X196232331Y-106296204D01*
X196232328Y-106296202D01*
X196106370Y-106249223D01*
X218699500Y-106249223D01*
X218699500Y-106550776D01*
X218699501Y-106550793D01*
X218738861Y-106849766D01*
X218816913Y-107141060D01*
X218932314Y-107419661D01*
X218932318Y-107419671D01*
X219083099Y-107680831D01*
X219266679Y-107920078D01*
X219266685Y-107920085D01*
X219479914Y-108133314D01*
X219479921Y-108133320D01*
X219719168Y-108316900D01*
X219980328Y-108467681D01*
X219980329Y-108467681D01*
X219980332Y-108467683D01*
X220166072Y-108544619D01*
X220258939Y-108583086D01*
X220258940Y-108583086D01*
X220258942Y-108583087D01*
X220550232Y-108661138D01*
X220849217Y-108700500D01*
X220849224Y-108700500D01*
X221150776Y-108700500D01*
X221150783Y-108700500D01*
X221449768Y-108661138D01*
X221741058Y-108583087D01*
X222019668Y-108467683D01*
X222280832Y-108316900D01*
X222520080Y-108133319D01*
X222733319Y-107920080D01*
X222916900Y-107680832D01*
X223067683Y-107419668D01*
X223183087Y-107141058D01*
X223261138Y-106849768D01*
X223300500Y-106550783D01*
X223300500Y-106249217D01*
X223261138Y-105950232D01*
X223183087Y-105658942D01*
X223067683Y-105380332D01*
X222916900Y-105119168D01*
X222733319Y-104879920D01*
X222733314Y-104879914D01*
X222520085Y-104666685D01*
X222520078Y-104666679D01*
X222280831Y-104483099D01*
X222019671Y-104332318D01*
X222019661Y-104332314D01*
X221741060Y-104216913D01*
X221449766Y-104138861D01*
X221150793Y-104099501D01*
X221150788Y-104099500D01*
X221150783Y-104099500D01*
X220849217Y-104099500D01*
X220849211Y-104099500D01*
X220849206Y-104099501D01*
X220550233Y-104138861D01*
X220258939Y-104216913D01*
X219980338Y-104332314D01*
X219980328Y-104332318D01*
X219719168Y-104483099D01*
X219479921Y-104666679D01*
X219479914Y-104666685D01*
X219266685Y-104879914D01*
X219266679Y-104879921D01*
X219083099Y-105119168D01*
X218932318Y-105380328D01*
X218932314Y-105380338D01*
X218816913Y-105658939D01*
X218738861Y-105950233D01*
X218699501Y-106249206D01*
X218699500Y-106249223D01*
X196106370Y-106249223D01*
X196097482Y-106245908D01*
X196097483Y-106245908D01*
X196037883Y-106239501D01*
X196037881Y-106239500D01*
X196037873Y-106239500D01*
X196037864Y-106239500D01*
X194242129Y-106239500D01*
X194242123Y-106239501D01*
X194182516Y-106245908D01*
X194047671Y-106296202D01*
X194047664Y-106296206D01*
X193932455Y-106382452D01*
X193932452Y-106382455D01*
X193846206Y-106497664D01*
X193846203Y-106497669D01*
X193797189Y-106629083D01*
X193755317Y-106685016D01*
X193689853Y-106709433D01*
X193621580Y-106694581D01*
X193593326Y-106673430D01*
X193479786Y-106559890D01*
X193307820Y-106434951D01*
X193118414Y-106338444D01*
X193118413Y-106338443D01*
X193118412Y-106338443D01*
X192916243Y-106272754D01*
X192916241Y-106272753D01*
X192916240Y-106272753D01*
X192754957Y-106247208D01*
X192706287Y-106239500D01*
X192493713Y-106239500D01*
X192445042Y-106247208D01*
X192283760Y-106272753D01*
X192081585Y-106338444D01*
X191892179Y-106434951D01*
X191720213Y-106559890D01*
X191569890Y-106710213D01*
X191444949Y-106882182D01*
X191440484Y-106890946D01*
X191392509Y-106941742D01*
X191324688Y-106958536D01*
X191258553Y-106935998D01*
X191219516Y-106890946D01*
X191215050Y-106882182D01*
X191090109Y-106710213D01*
X190939786Y-106559890D01*
X190767820Y-106434951D01*
X190578414Y-106338444D01*
X190578413Y-106338443D01*
X190578412Y-106338443D01*
X190376243Y-106272754D01*
X190376241Y-106272753D01*
X190376240Y-106272753D01*
X190214957Y-106247208D01*
X190166287Y-106239500D01*
X189953713Y-106239500D01*
X189905042Y-106247208D01*
X189743760Y-106272753D01*
X189541585Y-106338444D01*
X189352179Y-106434951D01*
X189180213Y-106559890D01*
X189029890Y-106710213D01*
X188904949Y-106882182D01*
X188900484Y-106890946D01*
X188852509Y-106941742D01*
X188784688Y-106958536D01*
X188718553Y-106935998D01*
X188679516Y-106890946D01*
X188675050Y-106882182D01*
X188550109Y-106710213D01*
X188399786Y-106559890D01*
X188227820Y-106434951D01*
X188038414Y-106338444D01*
X188038413Y-106338443D01*
X188038412Y-106338443D01*
X187836243Y-106272754D01*
X187836241Y-106272753D01*
X187836240Y-106272753D01*
X187674957Y-106247208D01*
X187626287Y-106239500D01*
X187413713Y-106239500D01*
X187365042Y-106247208D01*
X187203760Y-106272753D01*
X187001585Y-106338444D01*
X186812179Y-106434951D01*
X186640213Y-106559890D01*
X186489890Y-106710213D01*
X186364951Y-106882179D01*
X186268444Y-107071585D01*
X186202753Y-107273760D01*
X186184636Y-107388148D01*
X186169500Y-107483713D01*
X166030707Y-107483713D01*
X166067683Y-107419668D01*
X166183087Y-107141058D01*
X166261138Y-106849768D01*
X166300500Y-106550783D01*
X166300500Y-106249217D01*
X166261138Y-105950232D01*
X166183087Y-105658942D01*
X166067683Y-105380332D01*
X165916900Y-105119168D01*
X165733319Y-104879920D01*
X165733314Y-104879914D01*
X165520085Y-104666685D01*
X165520078Y-104666679D01*
X165280831Y-104483099D01*
X165019671Y-104332318D01*
X165019661Y-104332314D01*
X164741062Y-104216914D01*
X164704760Y-104207187D01*
X164632352Y-104187785D01*
X164449766Y-104138861D01*
X164150793Y-104099501D01*
X164150788Y-104099500D01*
X164150783Y-104099500D01*
X163849217Y-104099500D01*
X163849211Y-104099500D01*
X163849206Y-104099501D01*
X163550233Y-104138861D01*
X163258939Y-104216913D01*
X162980338Y-104332314D01*
X162980328Y-104332318D01*
X162719168Y-104483099D01*
X162479921Y-104666679D01*
X162479914Y-104666685D01*
X162266685Y-104879914D01*
X162266679Y-104879921D01*
X162083099Y-105119168D01*
X161932318Y-105380328D01*
X161932314Y-105380338D01*
X161816913Y-105658939D01*
X161738861Y-105950233D01*
X161699501Y-106249206D01*
X161699500Y-106249223D01*
X160900500Y-106249223D01*
X160900500Y-102893753D01*
X186170000Y-102893753D01*
X186170000Y-103106246D01*
X186203242Y-103316127D01*
X186203242Y-103316130D01*
X186268904Y-103518217D01*
X186365375Y-103707550D01*
X186404728Y-103761716D01*
X187037037Y-103129408D01*
X187054075Y-103192993D01*
X187119901Y-103307007D01*
X187212993Y-103400099D01*
X187327007Y-103465925D01*
X187390590Y-103482962D01*
X186758282Y-104115269D01*
X186758282Y-104115270D01*
X186812449Y-104154624D01*
X187001782Y-104251095D01*
X187203870Y-104316757D01*
X187413754Y-104350000D01*
X187626246Y-104350000D01*
X187836127Y-104316757D01*
X187836130Y-104316757D01*
X188038217Y-104251095D01*
X188227554Y-104154622D01*
X188281716Y-104115270D01*
X188281717Y-104115270D01*
X187649408Y-103482962D01*
X187712993Y-103465925D01*
X187827007Y-103400099D01*
X187920099Y-103307007D01*
X187985925Y-103192993D01*
X188002962Y-103129409D01*
X188635270Y-103761717D01*
X188635270Y-103761716D01*
X188674622Y-103707554D01*
X188679514Y-103697954D01*
X188727488Y-103647157D01*
X188795308Y-103630361D01*
X188861444Y-103652897D01*
X188900486Y-103697954D01*
X188905375Y-103707550D01*
X188944728Y-103761716D01*
X189577037Y-103129408D01*
X189594075Y-103192993D01*
X189659901Y-103307007D01*
X189752993Y-103400099D01*
X189867007Y-103465925D01*
X189930590Y-103482962D01*
X189298282Y-104115269D01*
X189298282Y-104115270D01*
X189352449Y-104154624D01*
X189541782Y-104251095D01*
X189743870Y-104316757D01*
X189953754Y-104350000D01*
X190166246Y-104350000D01*
X190376127Y-104316757D01*
X190376130Y-104316757D01*
X190578217Y-104251095D01*
X190767554Y-104154622D01*
X190821716Y-104115270D01*
X190821717Y-104115270D01*
X190189408Y-103482962D01*
X190252993Y-103465925D01*
X190367007Y-103400099D01*
X190460099Y-103307007D01*
X190525925Y-103192993D01*
X190542962Y-103129408D01*
X191175270Y-103761717D01*
X191175270Y-103761716D01*
X191214622Y-103707554D01*
X191219514Y-103697954D01*
X191267488Y-103647157D01*
X191335308Y-103630361D01*
X191401444Y-103652897D01*
X191440486Y-103697954D01*
X191445375Y-103707550D01*
X191484728Y-103761716D01*
X192117037Y-103129408D01*
X192134075Y-103192993D01*
X192199901Y-103307007D01*
X192292993Y-103400099D01*
X192407007Y-103465925D01*
X192470590Y-103482962D01*
X191838282Y-104115269D01*
X191838282Y-104115270D01*
X191892449Y-104154624D01*
X192081782Y-104251095D01*
X192283870Y-104316757D01*
X192493754Y-104350000D01*
X192706246Y-104350000D01*
X192916127Y-104316757D01*
X192916130Y-104316757D01*
X193118217Y-104251095D01*
X193307554Y-104154622D01*
X193361716Y-104115270D01*
X193361717Y-104115270D01*
X192729408Y-103482962D01*
X192792993Y-103465925D01*
X192907007Y-103400099D01*
X193000099Y-103307007D01*
X193065925Y-103192993D01*
X193082962Y-103129408D01*
X193752356Y-103798803D01*
X193785841Y-103860126D01*
X193784926Y-103874831D01*
X193787497Y-103874555D01*
X193796401Y-103957373D01*
X193796403Y-103957380D01*
X193846645Y-104092086D01*
X193846649Y-104092093D01*
X193932809Y-104207187D01*
X193932812Y-104207190D01*
X194047906Y-104293350D01*
X194047913Y-104293354D01*
X194182620Y-104343596D01*
X194182627Y-104343598D01*
X194242155Y-104349999D01*
X194242172Y-104350000D01*
X194890000Y-104350000D01*
X194890000Y-103433012D01*
X194947007Y-103465925D01*
X195074174Y-103500000D01*
X195205826Y-103500000D01*
X195332993Y-103465925D01*
X195390000Y-103433012D01*
X195390000Y-104350000D01*
X196037828Y-104350000D01*
X196037844Y-104349999D01*
X196097372Y-104343598D01*
X196097379Y-104343596D01*
X196232086Y-104293354D01*
X196232093Y-104293350D01*
X196347187Y-104207190D01*
X196347190Y-104207187D01*
X196433350Y-104092093D01*
X196433354Y-104092086D01*
X196483596Y-103957379D01*
X196483598Y-103957372D01*
X196489999Y-103897844D01*
X196490000Y-103897827D01*
X196490000Y-103250000D01*
X195573012Y-103250000D01*
X195605925Y-103192993D01*
X195640000Y-103065826D01*
X195640000Y-102934174D01*
X195605925Y-102807007D01*
X195573012Y-102750000D01*
X196490000Y-102750000D01*
X196490000Y-102102172D01*
X196489999Y-102102155D01*
X196483598Y-102042627D01*
X196483596Y-102042620D01*
X196433354Y-101907913D01*
X196433350Y-101907906D01*
X196347190Y-101792812D01*
X196347187Y-101792809D01*
X196232093Y-101706649D01*
X196232086Y-101706645D01*
X196097379Y-101656403D01*
X196097372Y-101656401D01*
X196037844Y-101650000D01*
X195390000Y-101650000D01*
X195390000Y-102566988D01*
X195332993Y-102534075D01*
X195205826Y-102500000D01*
X195074174Y-102500000D01*
X194947007Y-102534075D01*
X194890000Y-102566988D01*
X194890000Y-101650000D01*
X194242155Y-101650000D01*
X194182627Y-101656401D01*
X194182620Y-101656403D01*
X194047913Y-101706645D01*
X194047906Y-101706649D01*
X193932812Y-101792809D01*
X193932809Y-101792812D01*
X193846649Y-101907906D01*
X193846645Y-101907913D01*
X193796403Y-102042619D01*
X193796401Y-102042626D01*
X193787497Y-102125444D01*
X193784434Y-102125114D01*
X193785336Y-102142094D01*
X193752356Y-102201195D01*
X193082962Y-102870590D01*
X193065925Y-102807007D01*
X193000099Y-102692993D01*
X192907007Y-102599901D01*
X192792993Y-102534075D01*
X192729409Y-102517037D01*
X193361716Y-101884728D01*
X193307550Y-101845375D01*
X193118217Y-101748904D01*
X192916129Y-101683242D01*
X192706246Y-101650000D01*
X192493754Y-101650000D01*
X192283872Y-101683242D01*
X192283869Y-101683242D01*
X192081782Y-101748904D01*
X191892439Y-101845380D01*
X191838282Y-101884727D01*
X191838282Y-101884728D01*
X192470591Y-102517037D01*
X192407007Y-102534075D01*
X192292993Y-102599901D01*
X192199901Y-102692993D01*
X192134075Y-102807007D01*
X192117037Y-102870591D01*
X191484728Y-102238282D01*
X191484727Y-102238282D01*
X191445380Y-102292440D01*
X191440483Y-102302051D01*
X191392506Y-102352845D01*
X191324684Y-102369638D01*
X191258550Y-102347098D01*
X191219516Y-102302048D01*
X191214626Y-102292452D01*
X191175270Y-102238282D01*
X190542962Y-102870590D01*
X190525925Y-102807007D01*
X190460099Y-102692993D01*
X190367007Y-102599901D01*
X190252993Y-102534075D01*
X190189409Y-102517037D01*
X190821716Y-101884728D01*
X190767550Y-101845375D01*
X190578217Y-101748904D01*
X190376129Y-101683242D01*
X190166246Y-101650000D01*
X189953754Y-101650000D01*
X189743872Y-101683242D01*
X189743869Y-101683242D01*
X189541782Y-101748904D01*
X189352439Y-101845380D01*
X189298282Y-101884727D01*
X189298282Y-101884728D01*
X189930591Y-102517037D01*
X189867007Y-102534075D01*
X189752993Y-102599901D01*
X189659901Y-102692993D01*
X189594075Y-102807007D01*
X189577037Y-102870591D01*
X188944728Y-102238282D01*
X188944727Y-102238282D01*
X188905380Y-102292440D01*
X188900483Y-102302051D01*
X188852506Y-102352845D01*
X188784684Y-102369638D01*
X188718550Y-102347098D01*
X188679516Y-102302048D01*
X188674626Y-102292452D01*
X188635270Y-102238282D01*
X188635269Y-102238282D01*
X188002962Y-102870590D01*
X187985925Y-102807007D01*
X187920099Y-102692993D01*
X187827007Y-102599901D01*
X187712993Y-102534075D01*
X187649409Y-102517037D01*
X188281716Y-101884728D01*
X188227550Y-101845375D01*
X188038217Y-101748904D01*
X187836129Y-101683242D01*
X187626246Y-101650000D01*
X187413754Y-101650000D01*
X187203872Y-101683242D01*
X187203869Y-101683242D01*
X187001782Y-101748904D01*
X186812439Y-101845380D01*
X186758282Y-101884727D01*
X186758282Y-101884728D01*
X187390591Y-102517037D01*
X187327007Y-102534075D01*
X187212993Y-102599901D01*
X187119901Y-102692993D01*
X187054075Y-102807007D01*
X187037037Y-102870591D01*
X186404728Y-102238282D01*
X186404727Y-102238282D01*
X186365380Y-102292439D01*
X186268904Y-102481782D01*
X186203242Y-102683869D01*
X186203242Y-102683872D01*
X186170000Y-102893753D01*
X160900500Y-102893753D01*
X160900500Y-74682135D01*
X166649500Y-74682135D01*
X166649500Y-76477870D01*
X166649501Y-76477876D01*
X166655908Y-76537483D01*
X166706202Y-76672328D01*
X166706206Y-76672335D01*
X166792452Y-76787544D01*
X166792455Y-76787547D01*
X166907664Y-76873793D01*
X166907671Y-76873797D01*
X167039082Y-76922810D01*
X167095016Y-76964681D01*
X167119433Y-77030145D01*
X167104582Y-77098418D01*
X167083431Y-77126673D01*
X166969889Y-77240215D01*
X166844951Y-77412179D01*
X166748444Y-77601585D01*
X166748443Y-77601587D01*
X166748443Y-77601588D01*
X166715598Y-77702672D01*
X166682753Y-77803760D01*
X166665926Y-77910001D01*
X166649500Y-78013713D01*
X166649500Y-78226287D01*
X166682754Y-78436243D01*
X166735961Y-78599998D01*
X166748444Y-78638414D01*
X166844951Y-78827820D01*
X166969890Y-78999786D01*
X167120213Y-79150109D01*
X167292182Y-79275050D01*
X167300946Y-79279516D01*
X167351742Y-79327491D01*
X167368536Y-79395312D01*
X167345998Y-79461447D01*
X167300946Y-79500484D01*
X167292182Y-79504949D01*
X167120213Y-79629890D01*
X166969890Y-79780213D01*
X166844951Y-79952179D01*
X166748444Y-80141585D01*
X166748443Y-80141587D01*
X166748443Y-80141588D01*
X166719511Y-80230631D01*
X166682753Y-80343760D01*
X166657564Y-80502797D01*
X166649500Y-80553713D01*
X166649500Y-80766287D01*
X166657795Y-80818657D01*
X166669535Y-80892786D01*
X166682754Y-80976243D01*
X166741696Y-81157648D01*
X166748444Y-81178414D01*
X166844951Y-81367820D01*
X166969890Y-81539786D01*
X167120213Y-81690109D01*
X167292182Y-81815050D01*
X167300946Y-81819516D01*
X167351742Y-81867491D01*
X167368536Y-81935312D01*
X167345998Y-82001447D01*
X167300946Y-82040484D01*
X167292182Y-82044949D01*
X167120213Y-82169890D01*
X166969890Y-82320213D01*
X166844951Y-82492179D01*
X166748444Y-82681585D01*
X166748443Y-82681587D01*
X166748443Y-82681588D01*
X166719310Y-82771250D01*
X166682753Y-82883760D01*
X166649500Y-83093713D01*
X166649500Y-83306286D01*
X166680104Y-83499515D01*
X166682754Y-83516243D01*
X166741696Y-83697648D01*
X166748444Y-83718414D01*
X166844951Y-83907820D01*
X166969890Y-84079786D01*
X167120213Y-84230109D01*
X167292182Y-84355050D01*
X167300946Y-84359516D01*
X167351742Y-84407491D01*
X167368536Y-84475312D01*
X167345998Y-84541447D01*
X167300946Y-84580484D01*
X167292182Y-84584949D01*
X167120213Y-84709890D01*
X166969890Y-84860213D01*
X166844951Y-85032179D01*
X166748444Y-85221585D01*
X166748443Y-85221587D01*
X166748443Y-85221588D01*
X166720362Y-85308011D01*
X166682753Y-85423760D01*
X166658062Y-85579653D01*
X166649500Y-85633713D01*
X166649500Y-85846287D01*
X166650914Y-85855212D01*
X166680104Y-86039515D01*
X166682754Y-86056243D01*
X166741696Y-86237648D01*
X166748444Y-86258414D01*
X166844951Y-86447820D01*
X166969890Y-86619786D01*
X167120213Y-86770109D01*
X167292182Y-86895050D01*
X167300946Y-86899516D01*
X167351742Y-86947491D01*
X167368536Y-87015312D01*
X167345998Y-87081447D01*
X167300946Y-87120484D01*
X167292182Y-87124949D01*
X167120213Y-87249890D01*
X166969890Y-87400213D01*
X166844951Y-87572179D01*
X166748444Y-87761585D01*
X166748443Y-87761587D01*
X166748443Y-87761588D01*
X166720385Y-87847942D01*
X166682753Y-87963760D01*
X166654668Y-88141086D01*
X166649500Y-88173713D01*
X166649500Y-88386287D01*
X166653567Y-88411966D01*
X166680104Y-88579515D01*
X166682754Y-88596243D01*
X166746932Y-88793763D01*
X166748444Y-88798414D01*
X166844951Y-88987820D01*
X166969890Y-89159786D01*
X167120213Y-89310109D01*
X167292182Y-89435050D01*
X167300946Y-89439516D01*
X167351742Y-89487491D01*
X167368536Y-89555312D01*
X167345998Y-89621447D01*
X167300946Y-89660484D01*
X167292182Y-89664949D01*
X167120213Y-89789890D01*
X166969890Y-89940213D01*
X166844951Y-90112179D01*
X166748444Y-90301585D01*
X166748443Y-90301587D01*
X166748443Y-90301588D01*
X166719973Y-90389208D01*
X166682753Y-90503760D01*
X166664627Y-90618205D01*
X166649500Y-90713713D01*
X166649500Y-90926287D01*
X166651836Y-90941036D01*
X166669535Y-91052786D01*
X166682754Y-91136243D01*
X166746932Y-91333763D01*
X166748444Y-91338414D01*
X166844951Y-91527820D01*
X166969890Y-91699786D01*
X167120213Y-91850109D01*
X167292182Y-91975050D01*
X167300946Y-91979516D01*
X167351742Y-92027491D01*
X167368536Y-92095312D01*
X167345998Y-92161447D01*
X167300946Y-92200484D01*
X167292182Y-92204949D01*
X167120213Y-92329890D01*
X166969890Y-92480213D01*
X166844951Y-92652179D01*
X166748444Y-92841585D01*
X166748443Y-92841587D01*
X166748443Y-92841588D01*
X166719973Y-92929208D01*
X166682753Y-93043760D01*
X166658506Y-93196853D01*
X166649500Y-93253713D01*
X166649500Y-93466287D01*
X166653567Y-93491966D01*
X166680104Y-93659515D01*
X166682754Y-93676243D01*
X166713712Y-93771523D01*
X166748444Y-93878414D01*
X166844951Y-94067820D01*
X166969890Y-94239786D01*
X167120213Y-94390109D01*
X167292182Y-94515050D01*
X167300946Y-94519516D01*
X167351742Y-94567491D01*
X167368536Y-94635312D01*
X167345998Y-94701447D01*
X167300946Y-94740484D01*
X167292182Y-94744949D01*
X167120213Y-94869890D01*
X166969890Y-95020213D01*
X166844951Y-95192179D01*
X166748444Y-95381585D01*
X166748443Y-95381587D01*
X166748443Y-95381588D01*
X166715598Y-95482672D01*
X166682753Y-95583760D01*
X166659341Y-95731578D01*
X166649500Y-95793713D01*
X166649500Y-96006287D01*
X166653567Y-96031966D01*
X166680104Y-96199515D01*
X166682754Y-96216243D01*
X166714943Y-96315311D01*
X166748444Y-96418414D01*
X166844951Y-96607820D01*
X166969890Y-96779786D01*
X167120213Y-96930109D01*
X167292182Y-97055050D01*
X167300946Y-97059516D01*
X167351742Y-97107491D01*
X167368536Y-97175312D01*
X167345998Y-97241447D01*
X167300946Y-97280484D01*
X167292182Y-97284949D01*
X167120213Y-97409890D01*
X166969890Y-97560213D01*
X166844951Y-97732179D01*
X166748444Y-97921585D01*
X166748443Y-97921587D01*
X166748443Y-97921588D01*
X166715598Y-98022672D01*
X166682753Y-98123760D01*
X166649500Y-98333713D01*
X166649500Y-98546286D01*
X166681965Y-98751265D01*
X166682754Y-98756243D01*
X166736267Y-98920939D01*
X166748444Y-98958414D01*
X166844951Y-99147820D01*
X166969890Y-99319786D01*
X167120213Y-99470109D01*
X167292182Y-99595050D01*
X167300946Y-99599516D01*
X167351742Y-99647491D01*
X167368536Y-99715312D01*
X167345998Y-99781447D01*
X167300946Y-99820484D01*
X167292182Y-99824949D01*
X167120213Y-99949890D01*
X166969890Y-100100213D01*
X166844951Y-100272179D01*
X166748444Y-100461585D01*
X166748443Y-100461587D01*
X166748443Y-100461588D01*
X166715598Y-100562672D01*
X166682753Y-100663760D01*
X166666816Y-100764385D01*
X166649500Y-100873713D01*
X166649500Y-101086287D01*
X166657858Y-101139056D01*
X166682753Y-101296239D01*
X166748444Y-101498414D01*
X166844951Y-101687820D01*
X166969890Y-101859786D01*
X167120213Y-102010109D01*
X167292179Y-102135048D01*
X167292181Y-102135049D01*
X167292184Y-102135051D01*
X167481588Y-102231557D01*
X167683757Y-102297246D01*
X167893713Y-102330500D01*
X167893714Y-102330500D01*
X168106286Y-102330500D01*
X168106287Y-102330500D01*
X168316243Y-102297246D01*
X168518412Y-102231557D01*
X168707816Y-102135051D01*
X168729789Y-102119086D01*
X168879786Y-102010109D01*
X168879788Y-102010106D01*
X168879792Y-102010104D01*
X169030104Y-101859792D01*
X169030106Y-101859788D01*
X169030109Y-101859786D01*
X169155048Y-101687820D01*
X169155049Y-101687819D01*
X169155051Y-101687816D01*
X169159514Y-101679055D01*
X169207488Y-101628259D01*
X169275308Y-101611463D01*
X169341444Y-101633999D01*
X169380484Y-101679054D01*
X169384582Y-101687097D01*
X169384951Y-101687820D01*
X169509890Y-101859786D01*
X169660213Y-102010109D01*
X169832179Y-102135048D01*
X169832181Y-102135049D01*
X169832184Y-102135051D01*
X170021588Y-102231557D01*
X170223757Y-102297246D01*
X170433713Y-102330500D01*
X170433714Y-102330500D01*
X170646286Y-102330500D01*
X170646287Y-102330500D01*
X170856243Y-102297246D01*
X171058412Y-102231557D01*
X171247816Y-102135051D01*
X171269789Y-102119086D01*
X171419786Y-102010109D01*
X171419788Y-102010106D01*
X171419792Y-102010104D01*
X171570104Y-101859792D01*
X171570604Y-101859104D01*
X171570606Y-101859102D01*
X171678933Y-101710000D01*
X171695051Y-101687816D01*
X171791557Y-101498412D01*
X171857246Y-101296243D01*
X171890500Y-101086287D01*
X171890500Y-100873713D01*
X171857246Y-100663757D01*
X171791557Y-100461588D01*
X171695051Y-100272184D01*
X171695049Y-100272181D01*
X171695048Y-100272179D01*
X171570109Y-100100213D01*
X171419786Y-99949890D01*
X171247820Y-99824951D01*
X171247115Y-99824591D01*
X171239054Y-99820485D01*
X171188259Y-99772512D01*
X171171463Y-99704692D01*
X171193999Y-99638556D01*
X171239054Y-99599515D01*
X171247816Y-99595051D01*
X171321895Y-99541230D01*
X171419786Y-99470109D01*
X171419788Y-99470106D01*
X171419792Y-99470104D01*
X171570104Y-99319792D01*
X171570106Y-99319788D01*
X171570109Y-99319786D01*
X171695048Y-99147820D01*
X171695047Y-99147820D01*
X171695051Y-99147816D01*
X171791557Y-98958412D01*
X171857246Y-98756243D01*
X171890500Y-98546287D01*
X171890500Y-98333713D01*
X171857246Y-98123757D01*
X171791557Y-97921588D01*
X171695051Y-97732184D01*
X171695049Y-97732181D01*
X171695048Y-97732179D01*
X171570109Y-97560213D01*
X171419786Y-97409890D01*
X171247820Y-97284951D01*
X171246994Y-97284530D01*
X171239054Y-97280485D01*
X171188259Y-97232512D01*
X171171463Y-97164692D01*
X171193999Y-97098556D01*
X171239054Y-97059515D01*
X171247816Y-97055051D01*
X171295774Y-97020208D01*
X171419786Y-96930109D01*
X171419788Y-96930106D01*
X171419792Y-96930104D01*
X171570104Y-96779792D01*
X171570106Y-96779788D01*
X171570109Y-96779786D01*
X171695048Y-96607820D01*
X171695047Y-96607820D01*
X171695051Y-96607816D01*
X171791557Y-96418412D01*
X171857246Y-96216243D01*
X171890500Y-96006287D01*
X171890500Y-95793713D01*
X171857246Y-95583757D01*
X171791557Y-95381588D01*
X171695051Y-95192184D01*
X171695049Y-95192181D01*
X171695048Y-95192179D01*
X171570109Y-95020213D01*
X171419786Y-94869890D01*
X171247820Y-94744951D01*
X171247002Y-94744534D01*
X171239054Y-94740485D01*
X171188259Y-94692512D01*
X171171463Y-94624692D01*
X171193999Y-94558556D01*
X171239054Y-94519515D01*
X171247816Y-94515051D01*
X171315378Y-94465965D01*
X171419786Y-94390109D01*
X171419788Y-94390106D01*
X171419792Y-94390104D01*
X171570104Y-94239792D01*
X171570106Y-94239788D01*
X171570109Y-94239786D01*
X171695048Y-94067820D01*
X171695047Y-94067820D01*
X171695051Y-94067816D01*
X171791557Y-93878412D01*
X171857246Y-93676243D01*
X171890500Y-93466287D01*
X171890500Y-93253713D01*
X171857246Y-93043757D01*
X171843507Y-93001476D01*
X171841511Y-92931637D01*
X171873755Y-92875479D01*
X172212416Y-92536819D01*
X172273739Y-92503334D01*
X172300097Y-92500500D01*
X176170398Y-92500500D01*
X176237437Y-92520185D01*
X176280883Y-92568205D01*
X176287715Y-92581614D01*
X176408028Y-92747213D01*
X176552786Y-92891971D01*
X176700403Y-92999219D01*
X176718390Y-93012287D01*
X176797346Y-93052517D01*
X176811080Y-93059515D01*
X176861876Y-93107490D01*
X176878671Y-93175311D01*
X176856134Y-93241446D01*
X176811080Y-93280485D01*
X176718386Y-93327715D01*
X176552786Y-93448028D01*
X176408028Y-93592786D01*
X176287715Y-93758386D01*
X176194781Y-93940776D01*
X176131522Y-94135465D01*
X176104927Y-94303385D01*
X176099500Y-94337648D01*
X176099500Y-94542352D01*
X176100972Y-94551643D01*
X176131522Y-94744534D01*
X176194781Y-94939223D01*
X176248045Y-95043757D01*
X176287481Y-95121155D01*
X176287715Y-95121613D01*
X176408028Y-95287213D01*
X176552786Y-95431971D01*
X176700403Y-95539219D01*
X176718390Y-95552287D01*
X176809840Y-95598883D01*
X176811080Y-95599515D01*
X176861876Y-95647490D01*
X176878671Y-95715311D01*
X176856134Y-95781446D01*
X176811080Y-95820485D01*
X176718386Y-95867715D01*
X176552786Y-95988028D01*
X176408028Y-96132786D01*
X176287715Y-96298386D01*
X176194781Y-96480776D01*
X176131522Y-96675465D01*
X176099500Y-96877648D01*
X176099500Y-97082351D01*
X176131522Y-97284534D01*
X176194781Y-97479223D01*
X176287715Y-97661613D01*
X176408028Y-97827213D01*
X176552786Y-97971971D01*
X176700403Y-98079219D01*
X176718390Y-98092287D01*
X176834607Y-98151503D01*
X176900776Y-98185218D01*
X176900778Y-98185218D01*
X176900781Y-98185220D01*
X176996248Y-98216239D01*
X177095465Y-98248477D01*
X177178383Y-98261610D01*
X177297648Y-98280500D01*
X177297649Y-98280500D01*
X177502351Y-98280500D01*
X177502352Y-98280500D01*
X177704534Y-98248477D01*
X177718842Y-98243827D01*
X177788682Y-98241831D01*
X177844842Y-98274077D01*
X180335139Y-100764374D01*
X180335149Y-100764385D01*
X180339479Y-100768715D01*
X180339480Y-100768716D01*
X180451284Y-100880520D01*
X180451286Y-100880521D01*
X180451290Y-100880524D01*
X180509126Y-100913915D01*
X180588216Y-100959577D01*
X180700019Y-100989534D01*
X180740942Y-101000500D01*
X180740943Y-101000500D01*
X184673331Y-101000500D01*
X184673347Y-101000501D01*
X184680943Y-101000501D01*
X184839054Y-101000501D01*
X184839057Y-101000501D01*
X184991785Y-100959577D01*
X185070875Y-100913914D01*
X185128716Y-100880520D01*
X185240520Y-100768716D01*
X185240520Y-100768714D01*
X185250724Y-100758511D01*
X185250728Y-100758506D01*
X190712416Y-95296818D01*
X190773739Y-95263333D01*
X190800097Y-95260499D01*
X192047871Y-95260499D01*
X192047872Y-95260499D01*
X192107483Y-95254091D01*
X192242331Y-95203796D01*
X192357546Y-95117546D01*
X192443796Y-95002331D01*
X192494091Y-94867483D01*
X192500500Y-94807873D01*
X192500499Y-93869095D01*
X192520183Y-93802057D01*
X192572987Y-93756302D01*
X192642146Y-93746358D01*
X192705702Y-93775383D01*
X192712180Y-93781415D01*
X193234139Y-94303374D01*
X193234149Y-94303385D01*
X193238479Y-94307715D01*
X193238480Y-94307716D01*
X193350284Y-94419520D01*
X193430730Y-94465965D01*
X193487215Y-94498577D01*
X193639943Y-94539501D01*
X193639946Y-94539501D01*
X193805653Y-94539501D01*
X193805669Y-94539500D01*
X194446591Y-94539500D01*
X194513630Y-94559185D01*
X194559385Y-94611989D01*
X194569329Y-94681147D01*
X194549693Y-94732391D01*
X194490609Y-94820814D01*
X194490602Y-94820827D01*
X194430264Y-94966498D01*
X194430261Y-94966510D01*
X194399500Y-95121153D01*
X194399500Y-95278846D01*
X194430261Y-95433489D01*
X194430264Y-95433501D01*
X194490602Y-95579172D01*
X194490609Y-95579185D01*
X194578602Y-95710874D01*
X194599480Y-95777551D01*
X194599500Y-95779765D01*
X194599500Y-98913330D01*
X194599499Y-98913348D01*
X194599499Y-99079054D01*
X194599498Y-99079054D01*
X194640423Y-99231785D01*
X194669358Y-99281900D01*
X194669359Y-99281904D01*
X194669360Y-99281904D01*
X194719479Y-99368714D01*
X194719481Y-99368717D01*
X194838349Y-99487585D01*
X194838355Y-99487590D01*
X198695139Y-103344374D01*
X198695149Y-103344385D01*
X198699479Y-103348715D01*
X198699480Y-103348716D01*
X198811284Y-103460520D01*
X198876917Y-103498412D01*
X198898095Y-103510639D01*
X198898097Y-103510641D01*
X198936151Y-103532611D01*
X198948215Y-103539577D01*
X199100943Y-103580501D01*
X199100946Y-103580501D01*
X199266653Y-103580501D01*
X199266669Y-103580500D01*
X212314281Y-103580500D01*
X212381320Y-103600185D01*
X212424765Y-103648205D01*
X212444947Y-103687814D01*
X212444948Y-103687815D01*
X212569890Y-103859786D01*
X212720213Y-104010109D01*
X212892179Y-104135048D01*
X212892181Y-104135049D01*
X212892184Y-104135051D01*
X213081588Y-104231557D01*
X213283757Y-104297246D01*
X213493713Y-104330500D01*
X213493714Y-104330500D01*
X213706286Y-104330500D01*
X213706287Y-104330500D01*
X213916243Y-104297246D01*
X214118412Y-104231557D01*
X214307816Y-104135051D01*
X214366953Y-104092086D01*
X214479786Y-104010109D01*
X214479788Y-104010106D01*
X214479792Y-104010104D01*
X214630104Y-103859792D01*
X214630106Y-103859788D01*
X214630109Y-103859786D01*
X214755048Y-103687820D01*
X214755047Y-103687820D01*
X214755051Y-103687816D01*
X214759514Y-103679054D01*
X214807488Y-103628259D01*
X214875308Y-103611463D01*
X214941444Y-103633999D01*
X214980486Y-103679056D01*
X214984951Y-103687820D01*
X215109890Y-103859786D01*
X215260213Y-104010109D01*
X215432179Y-104135048D01*
X215432181Y-104135049D01*
X215432184Y-104135051D01*
X215621588Y-104231557D01*
X215823757Y-104297246D01*
X216033713Y-104330500D01*
X216033714Y-104330500D01*
X216246286Y-104330500D01*
X216246287Y-104330500D01*
X216456243Y-104297246D01*
X216658412Y-104231557D01*
X216847816Y-104135051D01*
X216906953Y-104092086D01*
X217019786Y-104010109D01*
X217019788Y-104010106D01*
X217019792Y-104010104D01*
X217170104Y-103859792D01*
X217170106Y-103859788D01*
X217170109Y-103859786D01*
X217295048Y-103687820D01*
X217295047Y-103687820D01*
X217295051Y-103687816D01*
X217391557Y-103498412D01*
X217457246Y-103296243D01*
X217490500Y-103086287D01*
X217490500Y-102873713D01*
X217457246Y-102663757D01*
X217391557Y-102461588D01*
X217295051Y-102272184D01*
X217295049Y-102272181D01*
X217295048Y-102272179D01*
X217170109Y-102100213D01*
X217019786Y-101949890D01*
X216847820Y-101824951D01*
X216847115Y-101824591D01*
X216839054Y-101820485D01*
X216788259Y-101772512D01*
X216771463Y-101704692D01*
X216793999Y-101638556D01*
X216839054Y-101599515D01*
X216847816Y-101595051D01*
X216869789Y-101579086D01*
X217019786Y-101470109D01*
X217019788Y-101470106D01*
X217019792Y-101470104D01*
X217170104Y-101319792D01*
X217170106Y-101319788D01*
X217170109Y-101319786D01*
X217295048Y-101147820D01*
X217295047Y-101147820D01*
X217295051Y-101147816D01*
X217391557Y-100958412D01*
X217457246Y-100756243D01*
X217490500Y-100546287D01*
X217490500Y-100333713D01*
X217457246Y-100123757D01*
X217391557Y-99921588D01*
X217295051Y-99732184D01*
X217295049Y-99732181D01*
X217295048Y-99732179D01*
X217170109Y-99560213D01*
X217151126Y-99541230D01*
X217117641Y-99479907D01*
X217122625Y-99410215D01*
X217151126Y-99365868D01*
X219352302Y-97164692D01*
X221558506Y-94958488D01*
X221558511Y-94958484D01*
X221568714Y-94948280D01*
X221568716Y-94948280D01*
X221680520Y-94836476D01*
X221738838Y-94735466D01*
X221759577Y-94699545D01*
X221800500Y-94546817D01*
X221800500Y-94388703D01*
X221800500Y-77720943D01*
X221759577Y-77568216D01*
X221731440Y-77519480D01*
X221680524Y-77431290D01*
X221680521Y-77431286D01*
X221680520Y-77431284D01*
X221568716Y-77319480D01*
X221568715Y-77319479D01*
X221564385Y-77315149D01*
X221564374Y-77315139D01*
X218927590Y-74678355D01*
X218927588Y-74678352D01*
X218808717Y-74559481D01*
X218808712Y-74559477D01*
X218684335Y-74487669D01*
X218684333Y-74487668D01*
X218671785Y-74480423D01*
X218519057Y-74439499D01*
X218360943Y-74439499D01*
X218353347Y-74439499D01*
X218353331Y-74439500D01*
X217425719Y-74439500D01*
X217358680Y-74419815D01*
X217315235Y-74371795D01*
X217295052Y-74332185D01*
X217295051Y-74332184D01*
X217170109Y-74160213D01*
X217019786Y-74009890D01*
X216847820Y-73884951D01*
X216658414Y-73788444D01*
X216658413Y-73788443D01*
X216658412Y-73788443D01*
X216456243Y-73722754D01*
X216456241Y-73722753D01*
X216456240Y-73722753D01*
X216294957Y-73697208D01*
X216246287Y-73689500D01*
X216033713Y-73689500D01*
X215985042Y-73697208D01*
X215823760Y-73722753D01*
X215621585Y-73788444D01*
X215432179Y-73884951D01*
X215260215Y-74009889D01*
X215146673Y-74123431D01*
X215085350Y-74156915D01*
X215015658Y-74151931D01*
X214959725Y-74110059D01*
X214942810Y-74079082D01*
X214893797Y-73947671D01*
X214893793Y-73947664D01*
X214807547Y-73832455D01*
X214807544Y-73832452D01*
X214692335Y-73746206D01*
X214692328Y-73746202D01*
X214557482Y-73695908D01*
X214557483Y-73695908D01*
X214497883Y-73689501D01*
X214497881Y-73689500D01*
X214497873Y-73689500D01*
X214497864Y-73689500D01*
X212702129Y-73689500D01*
X212702123Y-73689501D01*
X212642516Y-73695908D01*
X212507671Y-73746202D01*
X212507664Y-73746206D01*
X212392455Y-73832452D01*
X212392452Y-73832455D01*
X212306206Y-73947664D01*
X212306202Y-73947671D01*
X212255908Y-74082517D01*
X212249501Y-74142116D01*
X212249500Y-74142135D01*
X212249500Y-75937870D01*
X212249501Y-75937876D01*
X212255908Y-75997483D01*
X212306202Y-76132328D01*
X212306206Y-76132335D01*
X212392452Y-76247544D01*
X212392455Y-76247547D01*
X212507664Y-76333793D01*
X212507671Y-76333797D01*
X212639082Y-76382810D01*
X212695016Y-76424681D01*
X212719433Y-76490145D01*
X212704582Y-76558418D01*
X212683431Y-76586673D01*
X212569889Y-76700215D01*
X212444951Y-76872179D01*
X212348444Y-77061585D01*
X212282753Y-77263760D01*
X212256220Y-77431284D01*
X212249500Y-77473713D01*
X212249500Y-77686287D01*
X212254538Y-77718095D01*
X212270707Y-77820185D01*
X212282754Y-77896243D01*
X212345540Y-78089479D01*
X212348444Y-78098414D01*
X212444951Y-78287820D01*
X212569890Y-78459786D01*
X212720213Y-78610109D01*
X212892182Y-78735050D01*
X212900946Y-78739516D01*
X212951742Y-78787491D01*
X212968536Y-78855312D01*
X212945998Y-78921447D01*
X212900946Y-78960484D01*
X212892182Y-78964949D01*
X212720213Y-79089890D01*
X212569890Y-79240213D01*
X212444951Y-79412180D01*
X212392975Y-79514188D01*
X212345000Y-79564984D01*
X212277179Y-79581779D01*
X212211044Y-79559241D01*
X212194809Y-79545574D01*
X209487590Y-76838355D01*
X209487588Y-76838352D01*
X209368717Y-76719481D01*
X209368716Y-76719480D01*
X209281904Y-76669360D01*
X209281904Y-76669359D01*
X209281900Y-76669358D01*
X209231785Y-76640423D01*
X209079057Y-76599499D01*
X208920943Y-76599499D01*
X208913347Y-76599499D01*
X208913331Y-76599500D01*
X199256670Y-76599500D01*
X199256654Y-76599499D01*
X199249058Y-76599499D01*
X199090943Y-76599499D01*
X199014579Y-76619961D01*
X198938214Y-76640423D01*
X198938209Y-76640426D01*
X198801290Y-76719475D01*
X198801282Y-76719481D01*
X197319481Y-78201282D01*
X197319479Y-78201285D01*
X197303906Y-78228259D01*
X197273734Y-78280519D01*
X197240423Y-78338215D01*
X197199499Y-78490943D01*
X197199499Y-78490945D01*
X197199499Y-78659046D01*
X197199500Y-78659059D01*
X197199500Y-87473330D01*
X197199499Y-87473348D01*
X197199499Y-87639054D01*
X197199498Y-87639054D01*
X197199499Y-87639057D01*
X197240423Y-87791785D01*
X197244861Y-87799471D01*
X197244863Y-87799481D01*
X197244866Y-87799480D01*
X197319477Y-87928712D01*
X197319481Y-87928717D01*
X197438349Y-88047585D01*
X197438355Y-88047590D01*
X198905921Y-89515157D01*
X198939406Y-89576480D01*
X198936173Y-89641149D01*
X198931523Y-89655460D01*
X198931523Y-89655462D01*
X198899500Y-89857648D01*
X198899500Y-90062351D01*
X198931522Y-90264534D01*
X198994781Y-90459223D01*
X199025502Y-90519515D01*
X199064597Y-90596243D01*
X199075788Y-90618205D01*
X199088684Y-90686874D01*
X199062408Y-90751614D01*
X199005302Y-90791872D01*
X198965303Y-90798500D01*
X194019097Y-90798500D01*
X193952058Y-90778815D01*
X193931416Y-90762181D01*
X192494077Y-89324842D01*
X192460592Y-89263519D01*
X192463828Y-89198841D01*
X192468477Y-89184534D01*
X192500500Y-88982352D01*
X192500500Y-88777648D01*
X192468477Y-88575466D01*
X192463825Y-88561151D01*
X192461832Y-88491312D01*
X192494075Y-88435158D01*
X196158506Y-84770728D01*
X196158511Y-84770724D01*
X196168714Y-84760520D01*
X196168716Y-84760520D01*
X196280520Y-84648716D01*
X196359577Y-84511784D01*
X196400500Y-84359057D01*
X196400500Y-78700096D01*
X196420185Y-78633057D01*
X196436814Y-78612420D01*
X200551586Y-74497648D01*
X201449500Y-74497648D01*
X201449500Y-74702352D01*
X201452702Y-74722567D01*
X201481522Y-74904534D01*
X201544781Y-75099223D01*
X201587248Y-75182567D01*
X201637585Y-75281359D01*
X201637715Y-75281613D01*
X201758028Y-75447213D01*
X201902786Y-75591971D01*
X202057749Y-75704556D01*
X202068390Y-75712287D01*
X202184607Y-75771503D01*
X202250776Y-75805218D01*
X202250778Y-75805218D01*
X202250781Y-75805220D01*
X202355137Y-75839127D01*
X202445465Y-75868477D01*
X202546557Y-75884488D01*
X202647648Y-75900500D01*
X202647649Y-75900500D01*
X202852351Y-75900500D01*
X202852352Y-75900500D01*
X203054534Y-75868477D01*
X203249219Y-75805220D01*
X203431610Y-75712287D01*
X203530417Y-75640500D01*
X203597213Y-75591971D01*
X203597215Y-75591968D01*
X203597219Y-75591966D01*
X203741966Y-75447219D01*
X203741968Y-75447215D01*
X203741971Y-75447213D01*
X203862286Y-75281611D01*
X203862415Y-75281359D01*
X203889795Y-75227621D01*
X203937769Y-75176826D01*
X204005589Y-75160030D01*
X204071725Y-75182567D01*
X204110765Y-75227621D01*
X204138141Y-75281350D01*
X204138147Y-75281359D01*
X204170523Y-75325921D01*
X204170524Y-75325922D01*
X204850000Y-74646446D01*
X204850000Y-74652661D01*
X204877259Y-74754394D01*
X204929920Y-74845606D01*
X205004394Y-74920080D01*
X205095606Y-74972741D01*
X205197339Y-75000000D01*
X205203553Y-75000000D01*
X204524076Y-75679474D01*
X204568650Y-75711859D01*
X204750968Y-75804755D01*
X204945582Y-75867990D01*
X205147683Y-75900000D01*
X205352317Y-75900000D01*
X205554417Y-75867990D01*
X205749031Y-75804755D01*
X205931349Y-75711859D01*
X205975921Y-75679474D01*
X205296447Y-75000000D01*
X205302661Y-75000000D01*
X205404394Y-74972741D01*
X205495606Y-74920080D01*
X205570080Y-74845606D01*
X205622741Y-74754394D01*
X205650000Y-74652661D01*
X205650000Y-74646447D01*
X206329474Y-75325921D01*
X206361859Y-75281349D01*
X206454755Y-75099031D01*
X206517990Y-74904417D01*
X206550000Y-74702317D01*
X206550000Y-74497682D01*
X206517990Y-74295582D01*
X206454755Y-74100968D01*
X206361859Y-73918650D01*
X206329474Y-73874077D01*
X206329474Y-73874076D01*
X205650000Y-74553551D01*
X205650000Y-74547339D01*
X205622741Y-74445606D01*
X205570080Y-74354394D01*
X205495606Y-74279920D01*
X205404394Y-74227259D01*
X205302661Y-74200000D01*
X205296446Y-74200000D01*
X205975922Y-73520524D01*
X205975921Y-73520523D01*
X205931359Y-73488147D01*
X205931350Y-73488141D01*
X205749031Y-73395244D01*
X205554417Y-73332009D01*
X205352317Y-73300000D01*
X205147683Y-73300000D01*
X204945582Y-73332009D01*
X204750968Y-73395244D01*
X204568644Y-73488143D01*
X204524077Y-73520523D01*
X204524077Y-73520524D01*
X205203554Y-74200000D01*
X205197339Y-74200000D01*
X205095606Y-74227259D01*
X205004394Y-74279920D01*
X204929920Y-74354394D01*
X204877259Y-74445606D01*
X204850000Y-74547339D01*
X204850000Y-74553553D01*
X204170524Y-73874077D01*
X204170523Y-73874077D01*
X204138143Y-73918644D01*
X204110765Y-73972378D01*
X204062790Y-74023174D01*
X203994969Y-74039969D01*
X203928834Y-74017431D01*
X203889795Y-73972378D01*
X203877205Y-73947669D01*
X203862287Y-73918390D01*
X203862285Y-73918387D01*
X203862284Y-73918385D01*
X203741971Y-73752786D01*
X203597213Y-73608028D01*
X203431613Y-73487715D01*
X203431612Y-73487714D01*
X203431610Y-73487713D01*
X203374051Y-73458385D01*
X203249223Y-73394781D01*
X203054534Y-73331522D01*
X202879995Y-73303878D01*
X202852352Y-73299500D01*
X202647648Y-73299500D01*
X202623329Y-73303351D01*
X202445465Y-73331522D01*
X202250776Y-73394781D01*
X202068386Y-73487715D01*
X201902786Y-73608028D01*
X201758028Y-73752786D01*
X201637715Y-73918386D01*
X201544781Y-74100776D01*
X201481522Y-74295465D01*
X201450149Y-74493553D01*
X201449500Y-74497648D01*
X200551586Y-74497648D01*
X206462416Y-68586817D01*
X206523739Y-68553333D01*
X206550097Y-68550499D01*
X207897871Y-68550499D01*
X207897872Y-68550499D01*
X207957483Y-68544091D01*
X208092331Y-68493796D01*
X208207546Y-68407546D01*
X208293796Y-68292331D01*
X208342810Y-68160916D01*
X208384681Y-68104984D01*
X208450145Y-68080566D01*
X208518418Y-68095417D01*
X208546673Y-68116569D01*
X208660213Y-68230109D01*
X208832179Y-68355048D01*
X208832181Y-68355049D01*
X208832184Y-68355051D01*
X209021588Y-68451557D01*
X209223757Y-68517246D01*
X209433713Y-68550500D01*
X209433714Y-68550500D01*
X209646286Y-68550500D01*
X209646287Y-68550500D01*
X209856243Y-68517246D01*
X210058412Y-68451557D01*
X210247816Y-68355051D01*
X210334138Y-68292335D01*
X210419786Y-68230109D01*
X210419788Y-68230106D01*
X210419792Y-68230104D01*
X210570104Y-68079792D01*
X210570106Y-68079788D01*
X210570109Y-68079786D01*
X210695048Y-67907820D01*
X210695047Y-67907820D01*
X210695051Y-67907816D01*
X210791557Y-67718412D01*
X210857246Y-67516243D01*
X210890500Y-67306287D01*
X210890500Y-67093713D01*
X210857246Y-66883757D01*
X210791557Y-66681588D01*
X210695051Y-66492184D01*
X210695049Y-66492181D01*
X210695048Y-66492179D01*
X210570109Y-66320213D01*
X210419786Y-66169890D01*
X210247820Y-66044951D01*
X210058414Y-65948444D01*
X210058413Y-65948443D01*
X210058412Y-65948443D01*
X209856243Y-65882754D01*
X209856241Y-65882753D01*
X209856240Y-65882753D01*
X209694957Y-65857208D01*
X209646287Y-65849500D01*
X209433713Y-65849500D01*
X209385042Y-65857208D01*
X209223760Y-65882753D01*
X209021585Y-65948444D01*
X208832179Y-66044951D01*
X208660215Y-66169889D01*
X208546673Y-66283431D01*
X208485350Y-66316915D01*
X208415658Y-66311931D01*
X208359725Y-66270059D01*
X208342810Y-66239082D01*
X208293797Y-66107671D01*
X208293793Y-66107664D01*
X208207547Y-65992455D01*
X208207544Y-65992452D01*
X208092335Y-65906206D01*
X208092328Y-65906202D01*
X207957482Y-65855908D01*
X207957483Y-65855908D01*
X207897883Y-65849501D01*
X207897881Y-65849500D01*
X207897873Y-65849500D01*
X207897864Y-65849500D01*
X206102129Y-65849500D01*
X206102123Y-65849501D01*
X206042516Y-65855908D01*
X205907671Y-65906202D01*
X205907664Y-65906206D01*
X205792455Y-65992452D01*
X205792452Y-65992455D01*
X205706206Y-66107664D01*
X205706202Y-66107671D01*
X205655908Y-66242517D01*
X205649501Y-66302116D01*
X205649500Y-66302135D01*
X205649500Y-67649902D01*
X205629815Y-67716941D01*
X205613181Y-67737583D01*
X195319481Y-78031282D01*
X195319479Y-78031284D01*
X195295863Y-78072189D01*
X195285881Y-78089480D01*
X195240423Y-78168215D01*
X195199499Y-78320943D01*
X195199499Y-78320945D01*
X195199499Y-78489046D01*
X195199500Y-78489059D01*
X195199500Y-83979902D01*
X195179815Y-84046941D01*
X195163181Y-84067583D01*
X192712181Y-86518583D01*
X192650858Y-86552068D01*
X192581166Y-86547084D01*
X192525233Y-86505212D01*
X192500816Y-86439748D01*
X192500500Y-86430902D01*
X192500500Y-86237648D01*
X192468477Y-86035465D01*
X192415354Y-85871971D01*
X192405220Y-85840781D01*
X192405218Y-85840778D01*
X192405218Y-85840776D01*
X192349147Y-85730732D01*
X192312287Y-85658390D01*
X192283927Y-85619355D01*
X192191971Y-85492786D01*
X192047213Y-85348028D01*
X191881614Y-85227715D01*
X191862906Y-85218183D01*
X191788917Y-85180483D01*
X191738123Y-85132511D01*
X191721328Y-85064690D01*
X191743865Y-84998555D01*
X191788917Y-84959516D01*
X191881610Y-84912287D01*
X191920874Y-84883760D01*
X192047213Y-84791971D01*
X192047215Y-84791968D01*
X192047219Y-84791966D01*
X192191966Y-84647219D01*
X192191968Y-84647215D01*
X192191971Y-84647213D01*
X192268813Y-84541447D01*
X192312287Y-84481610D01*
X192405220Y-84299219D01*
X192468477Y-84104534D01*
X192500500Y-83902352D01*
X192500500Y-83697648D01*
X192486618Y-83610000D01*
X192468477Y-83495465D01*
X192415354Y-83331971D01*
X192405220Y-83300781D01*
X192405218Y-83300778D01*
X192405218Y-83300776D01*
X192347354Y-83187213D01*
X192312287Y-83118390D01*
X192294358Y-83093713D01*
X192191971Y-82952786D01*
X192047213Y-82808028D01*
X191881614Y-82687715D01*
X191869583Y-82681585D01*
X191788917Y-82640483D01*
X191738123Y-82592511D01*
X191721328Y-82524690D01*
X191743865Y-82458555D01*
X191788917Y-82419516D01*
X191881610Y-82372287D01*
X191920874Y-82343760D01*
X192047213Y-82251971D01*
X192047215Y-82251968D01*
X192047219Y-82251966D01*
X192191966Y-82107219D01*
X192191968Y-82107215D01*
X192191971Y-82107213D01*
X192312286Y-81941612D01*
X192405218Y-81759223D01*
X192405218Y-81759222D01*
X192405220Y-81759219D01*
X192468477Y-81564534D01*
X192500500Y-81362352D01*
X192500500Y-81157648D01*
X192491643Y-81101727D01*
X192468477Y-80955465D01*
X192424025Y-80818656D01*
X192405220Y-80760781D01*
X192405218Y-80760778D01*
X192405218Y-80760776D01*
X192357852Y-80667816D01*
X192312287Y-80578390D01*
X192303293Y-80566011D01*
X192191971Y-80412786D01*
X192047213Y-80268028D01*
X191881613Y-80147715D01*
X191881612Y-80147714D01*
X191881610Y-80147713D01*
X191796637Y-80104417D01*
X191699223Y-80054781D01*
X191504534Y-79991522D01*
X191329995Y-79963878D01*
X191302352Y-79959500D01*
X191097648Y-79959500D01*
X191073329Y-79963351D01*
X190895465Y-79991522D01*
X190700776Y-80054781D01*
X190518386Y-80147715D01*
X190352786Y-80268028D01*
X190208028Y-80412786D01*
X190087715Y-80578386D01*
X189994781Y-80760776D01*
X189931522Y-80955465D01*
X189908357Y-81101727D01*
X189899500Y-81157648D01*
X189899500Y-81362352D01*
X189900366Y-81367820D01*
X189931522Y-81564534D01*
X189994781Y-81759223D01*
X190087714Y-81941612D01*
X190208028Y-82107213D01*
X190352786Y-82251971D01*
X190507749Y-82364556D01*
X190518390Y-82372287D01*
X190609840Y-82418883D01*
X190611080Y-82419515D01*
X190661876Y-82467490D01*
X190678671Y-82535311D01*
X190656134Y-82601446D01*
X190611080Y-82640485D01*
X190518386Y-82687715D01*
X190352786Y-82808028D01*
X190208028Y-82952786D01*
X190087715Y-83118386D01*
X189994781Y-83300776D01*
X189931522Y-83495465D01*
X189903122Y-83674780D01*
X189899500Y-83697648D01*
X189899500Y-83902352D01*
X189900366Y-83907820D01*
X189931522Y-84104534D01*
X189994781Y-84299223D01*
X190042167Y-84392222D01*
X190082804Y-84471976D01*
X190087715Y-84481613D01*
X190208028Y-84647213D01*
X190352786Y-84791971D01*
X190507749Y-84904556D01*
X190518390Y-84912287D01*
X190609840Y-84958883D01*
X190611080Y-84959515D01*
X190661876Y-85007490D01*
X190678671Y-85075311D01*
X190656134Y-85141446D01*
X190611080Y-85180485D01*
X190518386Y-85227715D01*
X190352786Y-85348028D01*
X190208028Y-85492786D01*
X190087715Y-85658386D01*
X189994781Y-85840778D01*
X189931522Y-86035468D01*
X189931522Y-86035469D01*
X189918942Y-86114898D01*
X189889013Y-86178033D01*
X189829701Y-86214964D01*
X189796469Y-86219500D01*
X186769097Y-86219500D01*
X186702058Y-86199815D01*
X186656303Y-86147011D01*
X186646359Y-86077853D01*
X186675384Y-86014297D01*
X186681407Y-86007827D01*
X186958509Y-85730724D01*
X186958514Y-85730721D01*
X186968714Y-85720520D01*
X186968716Y-85720520D01*
X187080520Y-85608716D01*
X187159577Y-85471784D01*
X187200500Y-85319057D01*
X187200500Y-70289060D01*
X187200501Y-70289047D01*
X187200501Y-70120944D01*
X187159576Y-69968214D01*
X187159573Y-69968209D01*
X187080524Y-69831290D01*
X187080518Y-69831282D01*
X184933757Y-67684522D01*
X184900272Y-67623199D01*
X184903507Y-67558523D01*
X184917246Y-67516243D01*
X184950500Y-67306287D01*
X184950500Y-67093713D01*
X184917246Y-66883757D01*
X184851557Y-66681588D01*
X184755051Y-66492184D01*
X184630104Y-66320208D01*
X184612031Y-66302135D01*
X185909500Y-66302135D01*
X185909500Y-68097870D01*
X185909501Y-68097876D01*
X185915908Y-68157483D01*
X185966202Y-68292328D01*
X185966206Y-68292335D01*
X186052452Y-68407544D01*
X186052455Y-68407547D01*
X186167664Y-68493793D01*
X186167671Y-68493797D01*
X186302517Y-68544091D01*
X186302516Y-68544091D01*
X186309444Y-68544835D01*
X186362127Y-68550500D01*
X188157872Y-68550499D01*
X188217483Y-68544091D01*
X188352331Y-68493796D01*
X188467546Y-68407546D01*
X188553796Y-68292331D01*
X188602810Y-68160916D01*
X188644681Y-68104984D01*
X188710145Y-68080566D01*
X188778418Y-68095417D01*
X188806673Y-68116569D01*
X188920213Y-68230109D01*
X189092179Y-68355048D01*
X189092181Y-68355049D01*
X189092184Y-68355051D01*
X189281588Y-68451557D01*
X189483757Y-68517246D01*
X189693713Y-68550500D01*
X189693714Y-68550500D01*
X189906286Y-68550500D01*
X189906287Y-68550500D01*
X190116243Y-68517246D01*
X190318412Y-68451557D01*
X190507816Y-68355051D01*
X190594138Y-68292335D01*
X190679786Y-68230109D01*
X190679788Y-68230106D01*
X190679792Y-68230104D01*
X190830104Y-68079792D01*
X190830106Y-68079788D01*
X190830109Y-68079786D01*
X190955048Y-67907820D01*
X190955047Y-67907820D01*
X190955051Y-67907816D01*
X191051557Y-67718412D01*
X191117246Y-67516243D01*
X191150500Y-67306287D01*
X191150500Y-67093713D01*
X191117246Y-66883757D01*
X191051557Y-66681588D01*
X190955051Y-66492184D01*
X190830104Y-66320208D01*
X190812031Y-66302135D01*
X199324500Y-66302135D01*
X199324500Y-68097870D01*
X199324501Y-68097876D01*
X199330908Y-68157483D01*
X199381202Y-68292328D01*
X199381206Y-68292335D01*
X199467452Y-68407544D01*
X199467455Y-68407547D01*
X199582664Y-68493793D01*
X199582671Y-68493797D01*
X199717517Y-68544091D01*
X199717516Y-68544091D01*
X199724444Y-68544835D01*
X199777127Y-68550500D01*
X201572872Y-68550499D01*
X201632483Y-68544091D01*
X201767331Y-68493796D01*
X201882546Y-68407546D01*
X201968796Y-68292331D01*
X202017810Y-68160916D01*
X202059681Y-68104984D01*
X202125145Y-68080566D01*
X202193418Y-68095417D01*
X202221673Y-68116569D01*
X202335213Y-68230109D01*
X202507179Y-68355048D01*
X202507181Y-68355049D01*
X202507184Y-68355051D01*
X202696588Y-68451557D01*
X202898757Y-68517246D01*
X203108713Y-68550500D01*
X203108714Y-68550500D01*
X203321286Y-68550500D01*
X203321287Y-68550500D01*
X203531243Y-68517246D01*
X203733412Y-68451557D01*
X203922816Y-68355051D01*
X204009138Y-68292335D01*
X204094786Y-68230109D01*
X204094788Y-68230106D01*
X204094792Y-68230104D01*
X204245104Y-68079792D01*
X204245106Y-68079788D01*
X204245109Y-68079786D01*
X204370048Y-67907820D01*
X204370047Y-67907820D01*
X204370051Y-67907816D01*
X204466557Y-67718412D01*
X204532246Y-67516243D01*
X204565500Y-67306287D01*
X204565500Y-67093713D01*
X204532246Y-66883757D01*
X204466557Y-66681588D01*
X204370051Y-66492184D01*
X204370049Y-66492181D01*
X204370048Y-66492179D01*
X204245109Y-66320213D01*
X204094786Y-66169890D01*
X203922820Y-66044951D01*
X203733414Y-65948444D01*
X203733413Y-65948443D01*
X203733412Y-65948443D01*
X203531243Y-65882754D01*
X203531241Y-65882753D01*
X203531240Y-65882753D01*
X203369957Y-65857208D01*
X203321287Y-65849500D01*
X203108713Y-65849500D01*
X203060042Y-65857208D01*
X202898760Y-65882753D01*
X202696585Y-65948444D01*
X202507179Y-66044951D01*
X202335215Y-66169889D01*
X202221673Y-66283431D01*
X202160350Y-66316915D01*
X202090658Y-66311931D01*
X202034725Y-66270059D01*
X202017810Y-66239082D01*
X201968797Y-66107671D01*
X201968793Y-66107664D01*
X201882547Y-65992455D01*
X201882544Y-65992452D01*
X201767335Y-65906206D01*
X201767328Y-65906202D01*
X201632482Y-65855908D01*
X201632483Y-65855908D01*
X201572883Y-65849501D01*
X201572881Y-65849500D01*
X201572873Y-65849500D01*
X201572864Y-65849500D01*
X199777129Y-65849500D01*
X199777123Y-65849501D01*
X199717516Y-65855908D01*
X199582671Y-65906202D01*
X199582664Y-65906206D01*
X199467455Y-65992452D01*
X199467452Y-65992455D01*
X199381206Y-66107664D01*
X199381202Y-66107671D01*
X199330908Y-66242517D01*
X199324501Y-66302116D01*
X199324500Y-66302135D01*
X190812031Y-66302135D01*
X190679792Y-66169896D01*
X190679786Y-66169890D01*
X190507820Y-66044951D01*
X190318414Y-65948444D01*
X190318413Y-65948443D01*
X190318412Y-65948443D01*
X190116243Y-65882754D01*
X190116241Y-65882753D01*
X190116240Y-65882753D01*
X189954957Y-65857208D01*
X189906287Y-65849500D01*
X189693713Y-65849500D01*
X189645042Y-65857208D01*
X189483760Y-65882753D01*
X189281585Y-65948444D01*
X189092179Y-66044951D01*
X188920215Y-66169889D01*
X188806673Y-66283431D01*
X188745350Y-66316915D01*
X188675658Y-66311931D01*
X188619725Y-66270059D01*
X188602810Y-66239082D01*
X188553797Y-66107671D01*
X188553793Y-66107664D01*
X188467547Y-65992455D01*
X188467544Y-65992452D01*
X188352335Y-65906206D01*
X188352328Y-65906202D01*
X188217482Y-65855908D01*
X188217483Y-65855908D01*
X188157883Y-65849501D01*
X188157881Y-65849500D01*
X188157873Y-65849500D01*
X188157864Y-65849500D01*
X186362129Y-65849500D01*
X186362123Y-65849501D01*
X186302516Y-65855908D01*
X186167671Y-65906202D01*
X186167664Y-65906206D01*
X186052455Y-65992452D01*
X186052452Y-65992455D01*
X185966206Y-66107664D01*
X185966202Y-66107671D01*
X185915908Y-66242517D01*
X185909501Y-66302116D01*
X185909500Y-66302135D01*
X184612031Y-66302135D01*
X184479792Y-66169896D01*
X184479786Y-66169890D01*
X184307820Y-66044951D01*
X184118414Y-65948444D01*
X184118413Y-65948443D01*
X184118412Y-65948443D01*
X183916243Y-65882754D01*
X183916241Y-65882753D01*
X183916240Y-65882753D01*
X183754957Y-65857208D01*
X183706287Y-65849500D01*
X183493713Y-65849500D01*
X183445042Y-65857208D01*
X183283760Y-65882753D01*
X183081585Y-65948444D01*
X182892179Y-66044951D01*
X182720215Y-66169889D01*
X182606673Y-66283431D01*
X182545350Y-66316915D01*
X182475658Y-66311931D01*
X182419725Y-66270059D01*
X182402810Y-66239082D01*
X182353797Y-66107671D01*
X182353793Y-66107664D01*
X182267547Y-65992455D01*
X182267544Y-65992452D01*
X182152335Y-65906206D01*
X182152328Y-65906202D01*
X182017482Y-65855908D01*
X182017483Y-65855908D01*
X181957883Y-65849501D01*
X181957881Y-65849500D01*
X181957873Y-65849500D01*
X181957864Y-65849500D01*
X180162129Y-65849500D01*
X180162123Y-65849501D01*
X180102516Y-65855908D01*
X179967671Y-65906202D01*
X179967664Y-65906206D01*
X179852455Y-65992452D01*
X179852452Y-65992455D01*
X179766206Y-66107664D01*
X179766202Y-66107671D01*
X179715908Y-66242517D01*
X179709501Y-66302116D01*
X179709500Y-66302135D01*
X179709500Y-68097870D01*
X179709501Y-68097876D01*
X179715908Y-68157483D01*
X179766202Y-68292328D01*
X179766206Y-68292335D01*
X179852452Y-68407544D01*
X179852455Y-68407547D01*
X179967664Y-68493793D01*
X179967671Y-68493797D01*
X180102517Y-68544091D01*
X180102516Y-68544091D01*
X180109444Y-68544835D01*
X180162127Y-68550500D01*
X181957872Y-68550499D01*
X182017483Y-68544091D01*
X182152331Y-68493796D01*
X182267546Y-68407546D01*
X182353796Y-68292331D01*
X182402810Y-68160916D01*
X182444681Y-68104984D01*
X182510145Y-68080566D01*
X182578418Y-68095417D01*
X182606673Y-68116569D01*
X182720213Y-68230109D01*
X182892179Y-68355048D01*
X182892181Y-68355049D01*
X182892184Y-68355051D01*
X183081588Y-68451557D01*
X183283757Y-68517246D01*
X183493713Y-68550500D01*
X183493714Y-68550500D01*
X183706286Y-68550500D01*
X183706287Y-68550500D01*
X183916243Y-68517246D01*
X183958523Y-68503507D01*
X184028362Y-68501511D01*
X184084522Y-68533757D01*
X185963181Y-70412416D01*
X185996666Y-70473739D01*
X185999500Y-70500097D01*
X185999500Y-78061395D01*
X185979815Y-78128434D01*
X185927011Y-78174189D01*
X185857853Y-78184133D01*
X185802615Y-78161713D01*
X185701353Y-78088142D01*
X185519031Y-77995244D01*
X185324417Y-77932009D01*
X185122317Y-77900000D01*
X184917683Y-77900000D01*
X184715582Y-77932009D01*
X184520968Y-77995244D01*
X184338644Y-78088143D01*
X184294077Y-78120523D01*
X184294077Y-78120524D01*
X184973553Y-78800000D01*
X184967339Y-78800000D01*
X184865606Y-78827259D01*
X184774394Y-78879920D01*
X184699920Y-78954394D01*
X184647259Y-79045606D01*
X184620000Y-79147339D01*
X184620000Y-79153553D01*
X183940524Y-78474077D01*
X183940523Y-78474077D01*
X183908143Y-78518644D01*
X183815244Y-78700968D01*
X183752009Y-78895582D01*
X183720000Y-79097682D01*
X183720000Y-79302317D01*
X183752009Y-79504417D01*
X183815244Y-79699031D01*
X183908141Y-79881350D01*
X183908147Y-79881359D01*
X183940523Y-79925921D01*
X183940524Y-79925922D01*
X184620000Y-79246446D01*
X184620000Y-79252661D01*
X184647259Y-79354394D01*
X184699920Y-79445606D01*
X184774394Y-79520080D01*
X184865606Y-79572741D01*
X184967339Y-79600000D01*
X184973552Y-79600000D01*
X184294076Y-80279474D01*
X184338652Y-80311861D01*
X184431628Y-80359234D01*
X184482425Y-80407208D01*
X184499220Y-80475029D01*
X184476683Y-80541164D01*
X184431630Y-80580203D01*
X184338388Y-80627713D01*
X184172786Y-80748028D01*
X184028028Y-80892786D01*
X183907715Y-81058386D01*
X183814781Y-81240776D01*
X183751522Y-81435465D01*
X183719500Y-81637648D01*
X183719500Y-81842351D01*
X183751522Y-82044534D01*
X183814781Y-82239223D01*
X183907715Y-82421613D01*
X184028028Y-82587213D01*
X184172786Y-82731971D01*
X184320403Y-82839219D01*
X184338390Y-82852287D01*
X184429840Y-82898883D01*
X184431080Y-82899515D01*
X184481876Y-82947490D01*
X184498671Y-83015311D01*
X184476134Y-83081446D01*
X184431080Y-83120485D01*
X184338386Y-83167715D01*
X184172786Y-83288028D01*
X184028028Y-83432786D01*
X183907715Y-83598386D01*
X183814781Y-83780776D01*
X183751522Y-83975465D01*
X183719500Y-84177648D01*
X183719500Y-84382351D01*
X183751522Y-84584534D01*
X183814781Y-84779223D01*
X183907715Y-84961613D01*
X184028028Y-85127213D01*
X184172786Y-85271971D01*
X184277235Y-85347856D01*
X184338390Y-85392287D01*
X184429840Y-85438883D01*
X184431080Y-85439515D01*
X184481876Y-85487490D01*
X184498671Y-85555311D01*
X184476134Y-85621446D01*
X184431080Y-85660485D01*
X184338386Y-85707715D01*
X184172786Y-85828028D01*
X184028028Y-85972786D01*
X183907715Y-86138386D01*
X183814781Y-86320776D01*
X183751522Y-86515465D01*
X183719500Y-86717648D01*
X183719500Y-86922351D01*
X183751522Y-87124534D01*
X183814781Y-87319223D01*
X183907715Y-87501613D01*
X184028028Y-87667213D01*
X184172786Y-87811971D01*
X184320403Y-87919219D01*
X184338390Y-87932287D01*
X184429840Y-87978883D01*
X184431080Y-87979515D01*
X184481876Y-88027490D01*
X184498671Y-88095311D01*
X184476134Y-88161446D01*
X184431080Y-88200485D01*
X184338386Y-88247715D01*
X184172786Y-88368028D01*
X184028028Y-88512786D01*
X183907715Y-88678386D01*
X183814781Y-88860776D01*
X183751522Y-89055465D01*
X183719500Y-89257648D01*
X183719500Y-89462351D01*
X183751522Y-89664534D01*
X183814781Y-89859223D01*
X183907715Y-90041613D01*
X184028028Y-90207213D01*
X184172786Y-90351971D01*
X184277472Y-90428028D01*
X184338390Y-90472287D01*
X184429840Y-90518883D01*
X184431080Y-90519515D01*
X184481876Y-90567490D01*
X184498671Y-90635311D01*
X184476134Y-90701446D01*
X184431080Y-90740485D01*
X184338386Y-90787715D01*
X184172786Y-90908028D01*
X184028028Y-91052786D01*
X183907715Y-91218386D01*
X183814781Y-91400776D01*
X183751522Y-91595465D01*
X183724927Y-91763385D01*
X183719500Y-91797648D01*
X183719500Y-92002352D01*
X183721451Y-92014668D01*
X183751522Y-92204534D01*
X183814781Y-92399223D01*
X183907715Y-92581613D01*
X184028028Y-92747213D01*
X184172786Y-92891971D01*
X184320403Y-92999219D01*
X184338390Y-93012287D01*
X184417346Y-93052517D01*
X184431080Y-93059515D01*
X184481876Y-93107490D01*
X184498671Y-93175311D01*
X184476134Y-93241446D01*
X184431080Y-93280485D01*
X184338386Y-93327715D01*
X184172786Y-93448028D01*
X184028028Y-93592786D01*
X183907715Y-93758386D01*
X183814781Y-93940776D01*
X183751522Y-94135465D01*
X183724927Y-94303385D01*
X183719500Y-94337648D01*
X183719500Y-94542352D01*
X183720972Y-94551643D01*
X183751522Y-94744534D01*
X183814781Y-94939223D01*
X183868045Y-95043757D01*
X183907481Y-95121155D01*
X183907715Y-95121613D01*
X184028028Y-95287213D01*
X184172786Y-95431971D01*
X184320403Y-95539219D01*
X184338390Y-95552287D01*
X184429840Y-95598883D01*
X184431080Y-95599515D01*
X184481876Y-95647490D01*
X184498671Y-95715311D01*
X184476134Y-95781446D01*
X184431080Y-95820485D01*
X184338386Y-95867715D01*
X184172786Y-95988028D01*
X184028028Y-96132786D01*
X183907715Y-96298386D01*
X183814781Y-96480776D01*
X183751522Y-96675465D01*
X183719500Y-96877648D01*
X183719500Y-97082351D01*
X183751522Y-97284534D01*
X183814781Y-97479223D01*
X183907715Y-97661613D01*
X184028028Y-97827213D01*
X184172786Y-97971971D01*
X184320403Y-98079219D01*
X184338390Y-98092287D01*
X184454607Y-98151503D01*
X184520776Y-98185218D01*
X184520778Y-98185218D01*
X184520781Y-98185220D01*
X184616248Y-98216239D01*
X184715465Y-98248477D01*
X184798383Y-98261610D01*
X184917648Y-98280500D01*
X184917649Y-98280500D01*
X185122351Y-98280500D01*
X185122352Y-98280500D01*
X185324534Y-98248477D01*
X185519219Y-98185220D01*
X185701610Y-98092287D01*
X185819981Y-98006286D01*
X185867213Y-97971971D01*
X185867215Y-97971968D01*
X185867219Y-97971966D01*
X186011966Y-97827219D01*
X186011968Y-97827215D01*
X186011971Y-97827213D01*
X186117217Y-97682352D01*
X186132287Y-97661610D01*
X186225220Y-97479219D01*
X186288477Y-97284534D01*
X186320500Y-97082352D01*
X186320500Y-96877648D01*
X186288477Y-96675466D01*
X186266497Y-96607820D01*
X186247145Y-96548259D01*
X186225220Y-96480781D01*
X186225218Y-96480778D01*
X186225218Y-96480776D01*
X186179020Y-96390109D01*
X186132287Y-96298390D01*
X186124556Y-96287749D01*
X186011971Y-96132786D01*
X185867213Y-95988028D01*
X185701614Y-95867715D01*
X185695006Y-95864348D01*
X185608917Y-95820483D01*
X185558123Y-95772511D01*
X185541328Y-95704690D01*
X185563865Y-95638555D01*
X185608917Y-95599516D01*
X185701610Y-95552287D01*
X185819980Y-95466287D01*
X185867213Y-95431971D01*
X185867215Y-95431968D01*
X185867219Y-95431966D01*
X186011966Y-95287219D01*
X186011968Y-95287215D01*
X186011971Y-95287213D01*
X186117217Y-95142352D01*
X186132287Y-95121610D01*
X186225220Y-94939219D01*
X186288477Y-94744534D01*
X186320500Y-94542352D01*
X186320500Y-94337648D01*
X186297555Y-94192781D01*
X186288477Y-94135465D01*
X186247145Y-94008259D01*
X186225220Y-93940781D01*
X186225218Y-93940778D01*
X186225218Y-93940776D01*
X186179020Y-93850109D01*
X186132287Y-93758390D01*
X186123545Y-93746358D01*
X186011971Y-93592786D01*
X185867213Y-93448028D01*
X185701614Y-93327715D01*
X185684147Y-93318815D01*
X185608917Y-93280483D01*
X185558123Y-93232511D01*
X185541328Y-93164690D01*
X185563865Y-93098555D01*
X185608917Y-93059516D01*
X185701610Y-93012287D01*
X185722770Y-92996913D01*
X185867213Y-92891971D01*
X185867215Y-92891968D01*
X185867219Y-92891966D01*
X186011966Y-92747219D01*
X186011968Y-92747215D01*
X186011971Y-92747213D01*
X186081016Y-92652179D01*
X186132287Y-92581610D01*
X186225220Y-92399219D01*
X186288477Y-92204534D01*
X186320500Y-92002352D01*
X186320500Y-91797648D01*
X186288477Y-91595466D01*
X186266497Y-91527820D01*
X186247145Y-91468259D01*
X186225220Y-91400781D01*
X186225218Y-91400778D01*
X186225218Y-91400776D01*
X186188695Y-91329097D01*
X186132287Y-91218390D01*
X186119177Y-91200346D01*
X186011971Y-91052786D01*
X185867213Y-90908028D01*
X185701614Y-90787715D01*
X185684147Y-90778815D01*
X185608917Y-90740483D01*
X185558123Y-90692511D01*
X185541328Y-90624690D01*
X185563865Y-90558555D01*
X185608917Y-90519516D01*
X185701610Y-90472287D01*
X185812619Y-90391635D01*
X185867213Y-90351971D01*
X185867215Y-90351968D01*
X185867219Y-90351966D01*
X186011966Y-90207219D01*
X186011968Y-90207215D01*
X186011971Y-90207213D01*
X186081016Y-90112179D01*
X186132287Y-90041610D01*
X186225220Y-89859219D01*
X186288477Y-89664534D01*
X186320500Y-89462352D01*
X186320500Y-89257648D01*
X186288477Y-89055466D01*
X186266497Y-88987820D01*
X186247145Y-88928259D01*
X186225220Y-88860781D01*
X186225218Y-88860778D01*
X186225218Y-88860776D01*
X186191073Y-88793763D01*
X186132287Y-88678390D01*
X186119177Y-88660346D01*
X186011971Y-88512786D01*
X185867213Y-88368028D01*
X185701614Y-88247715D01*
X185695006Y-88244348D01*
X185608917Y-88200483D01*
X185558123Y-88152511D01*
X185541328Y-88084690D01*
X185563865Y-88018555D01*
X185608917Y-87979516D01*
X185701610Y-87932287D01*
X185780988Y-87874616D01*
X185867213Y-87811971D01*
X185867215Y-87811968D01*
X185867219Y-87811966D01*
X186011966Y-87667219D01*
X186011968Y-87667215D01*
X186011971Y-87667213D01*
X186132284Y-87501614D01*
X186132285Y-87501613D01*
X186132287Y-87501610D01*
X186139117Y-87488204D01*
X186187091Y-87437409D01*
X186249602Y-87420500D01*
X190434349Y-87420500D01*
X190448712Y-87424153D01*
X190460503Y-87423290D01*
X190480540Y-87432248D01*
X190493593Y-87435568D01*
X190500693Y-87439429D01*
X190518390Y-87452287D01*
X190612560Y-87500269D01*
X190614029Y-87501068D01*
X190637643Y-87524602D01*
X190661876Y-87547490D01*
X190662291Y-87549168D01*
X190663517Y-87550390D01*
X190670659Y-87582960D01*
X190678671Y-87615311D01*
X190678113Y-87616947D01*
X190678484Y-87618638D01*
X190666888Y-87649885D01*
X190656134Y-87681446D01*
X190654724Y-87682667D01*
X190654177Y-87684143D01*
X190645490Y-87690668D01*
X190611080Y-87720485D01*
X190518386Y-87767715D01*
X190352786Y-87888028D01*
X190208028Y-88032786D01*
X190087715Y-88198386D01*
X189994781Y-88380776D01*
X189931522Y-88575465D01*
X189902374Y-88759500D01*
X189899500Y-88777648D01*
X189899500Y-88982352D01*
X189900366Y-88987820D01*
X189931522Y-89184534D01*
X189994781Y-89379223D01*
X190036335Y-89460776D01*
X190081797Y-89550000D01*
X190087715Y-89561613D01*
X190208028Y-89727213D01*
X190352786Y-89871971D01*
X190501733Y-89980185D01*
X190518390Y-89992287D01*
X190588883Y-90028205D01*
X190611080Y-90039515D01*
X190661876Y-90087490D01*
X190678671Y-90155311D01*
X190656134Y-90221446D01*
X190611080Y-90260485D01*
X190518386Y-90307715D01*
X190352786Y-90428028D01*
X190208028Y-90572786D01*
X190087715Y-90738386D01*
X189994781Y-90920776D01*
X189931522Y-91115465D01*
X189902374Y-91299500D01*
X189899500Y-91317648D01*
X189899500Y-91522352D01*
X189900366Y-91527820D01*
X189931522Y-91724534D01*
X189994781Y-91919223D01*
X190045395Y-92018556D01*
X190082804Y-92091976D01*
X190087715Y-92101613D01*
X190208028Y-92267213D01*
X190352784Y-92411969D01*
X190389068Y-92438330D01*
X190431735Y-92493659D01*
X190437715Y-92563273D01*
X190405109Y-92625068D01*
X190344271Y-92659426D01*
X190329440Y-92661938D01*
X190292519Y-92665907D01*
X190157671Y-92716202D01*
X190157664Y-92716206D01*
X190042455Y-92802452D01*
X190042452Y-92802455D01*
X189956206Y-92917664D01*
X189956202Y-92917671D01*
X189905908Y-93052517D01*
X189899501Y-93112116D01*
X189899500Y-93112135D01*
X189899500Y-94359902D01*
X189879815Y-94426941D01*
X189863181Y-94447583D01*
X184547584Y-99763181D01*
X184486261Y-99796666D01*
X184459903Y-99799500D01*
X181120097Y-99799500D01*
X181053058Y-99779815D01*
X181032416Y-99763181D01*
X178694077Y-97424842D01*
X178660592Y-97363519D01*
X178663828Y-97298841D01*
X178668477Y-97284534D01*
X178700500Y-97082352D01*
X178700500Y-96877648D01*
X178668477Y-96675466D01*
X178646497Y-96607820D01*
X178627145Y-96548259D01*
X178605220Y-96480781D01*
X178605218Y-96480778D01*
X178605218Y-96480776D01*
X178559020Y-96390109D01*
X178512287Y-96298390D01*
X178504556Y-96287749D01*
X178391971Y-96132786D01*
X178247213Y-95988028D01*
X178081614Y-95867715D01*
X178075006Y-95864348D01*
X177988917Y-95820483D01*
X177938123Y-95772511D01*
X177921328Y-95704690D01*
X177943865Y-95638555D01*
X177988917Y-95599516D01*
X178081610Y-95552287D01*
X178199980Y-95466287D01*
X178247213Y-95431971D01*
X178247215Y-95431968D01*
X178247219Y-95431966D01*
X178391966Y-95287219D01*
X178391968Y-95287215D01*
X178391971Y-95287213D01*
X178497217Y-95142352D01*
X178512287Y-95121610D01*
X178605220Y-94939219D01*
X178668477Y-94744534D01*
X178700500Y-94542352D01*
X178700500Y-94337648D01*
X178677555Y-94192781D01*
X178668477Y-94135465D01*
X178627145Y-94008259D01*
X178605220Y-93940781D01*
X178605218Y-93940778D01*
X178605218Y-93940776D01*
X178559020Y-93850109D01*
X178512287Y-93758390D01*
X178503545Y-93746358D01*
X178391971Y-93592786D01*
X178247213Y-93448028D01*
X178081614Y-93327715D01*
X178064147Y-93318815D01*
X177988917Y-93280483D01*
X177938123Y-93232511D01*
X177921328Y-93164690D01*
X177943865Y-93098555D01*
X177988917Y-93059516D01*
X178081610Y-93012287D01*
X178102770Y-92996913D01*
X178247213Y-92891971D01*
X178247215Y-92891968D01*
X178247219Y-92891966D01*
X178391966Y-92747219D01*
X178391968Y-92747215D01*
X178391971Y-92747213D01*
X178461016Y-92652179D01*
X178512287Y-92581610D01*
X178605220Y-92399219D01*
X178668477Y-92204534D01*
X178700500Y-92002352D01*
X178700500Y-91797648D01*
X178668477Y-91595466D01*
X178646497Y-91527820D01*
X178627145Y-91468259D01*
X178605220Y-91400781D01*
X178605218Y-91400778D01*
X178605218Y-91400776D01*
X178568695Y-91329097D01*
X178512287Y-91218390D01*
X178499177Y-91200346D01*
X178391971Y-91052786D01*
X178247213Y-90908028D01*
X178081614Y-90787715D01*
X178064147Y-90778815D01*
X177988917Y-90740483D01*
X177938123Y-90692511D01*
X177921328Y-90624690D01*
X177943865Y-90558555D01*
X177988917Y-90519516D01*
X178081610Y-90472287D01*
X178192619Y-90391635D01*
X178247213Y-90351971D01*
X178247215Y-90351968D01*
X178247219Y-90351966D01*
X178391966Y-90207219D01*
X178391968Y-90207215D01*
X178391971Y-90207213D01*
X178461016Y-90112179D01*
X178512287Y-90041610D01*
X178605220Y-89859219D01*
X178668477Y-89664534D01*
X178700500Y-89462352D01*
X178700500Y-89257648D01*
X178668477Y-89055466D01*
X178646497Y-88987820D01*
X178627145Y-88928259D01*
X178605220Y-88860781D01*
X178605218Y-88860778D01*
X178605218Y-88860776D01*
X178571073Y-88793763D01*
X178512287Y-88678390D01*
X178499177Y-88660346D01*
X178391971Y-88512786D01*
X178247213Y-88368028D01*
X178081614Y-88247715D01*
X178075006Y-88244348D01*
X177988917Y-88200483D01*
X177938123Y-88152511D01*
X177921328Y-88084690D01*
X177943865Y-88018555D01*
X177988917Y-87979516D01*
X178081610Y-87932287D01*
X178160988Y-87874616D01*
X178247213Y-87811971D01*
X178247215Y-87811968D01*
X178247219Y-87811966D01*
X178391966Y-87667219D01*
X178391968Y-87667215D01*
X178391971Y-87667213D01*
X178475821Y-87551801D01*
X178512287Y-87501610D01*
X178605220Y-87319219D01*
X178668477Y-87124534D01*
X178700500Y-86922352D01*
X178700500Y-86717648D01*
X178668477Y-86515466D01*
X178665145Y-86505212D01*
X178627145Y-86388259D01*
X178605220Y-86320781D01*
X178605218Y-86320778D01*
X178605218Y-86320776D01*
X178571503Y-86254607D01*
X178512287Y-86138390D01*
X178495219Y-86114898D01*
X178391971Y-85972786D01*
X178247213Y-85828028D01*
X178081614Y-85707715D01*
X178075006Y-85704348D01*
X177988917Y-85660483D01*
X177938123Y-85612511D01*
X177921328Y-85544690D01*
X177943865Y-85478555D01*
X177988917Y-85439516D01*
X178081610Y-85392287D01*
X178142765Y-85347856D01*
X178247213Y-85271971D01*
X178247215Y-85271968D01*
X178247219Y-85271966D01*
X178391966Y-85127219D01*
X178391968Y-85127215D01*
X178391971Y-85127213D01*
X178461016Y-85032179D01*
X178512287Y-84961610D01*
X178605220Y-84779219D01*
X178668477Y-84584534D01*
X178700500Y-84382352D01*
X178700500Y-84177648D01*
X178668477Y-83975466D01*
X178663825Y-83961151D01*
X178661832Y-83891312D01*
X178694075Y-83835158D01*
X180358506Y-82170728D01*
X180358511Y-82170724D01*
X180368714Y-82160520D01*
X180368716Y-82160520D01*
X180480520Y-82048716D01*
X180542357Y-81941610D01*
X180559577Y-81911785D01*
X180600500Y-81759058D01*
X180600500Y-81600943D01*
X180600500Y-78089059D01*
X180600501Y-78089046D01*
X180600501Y-77920945D01*
X180600501Y-77920943D01*
X180559577Y-77768215D01*
X180530639Y-77718095D01*
X180480520Y-77631284D01*
X180368716Y-77519480D01*
X180368715Y-77519479D01*
X180364385Y-77515149D01*
X180364374Y-77515139D01*
X178067590Y-75218355D01*
X178067588Y-75218352D01*
X177948717Y-75099481D01*
X177948709Y-75099475D01*
X177846560Y-75040500D01*
X177811788Y-75020424D01*
X177811787Y-75020423D01*
X177750693Y-75004053D01*
X177659057Y-74979499D01*
X177500943Y-74979499D01*
X177493347Y-74979499D01*
X177493331Y-74979500D01*
X171825719Y-74979500D01*
X171758680Y-74959815D01*
X171715235Y-74911795D01*
X171695052Y-74872185D01*
X171695051Y-74872184D01*
X171570109Y-74700213D01*
X171419786Y-74549890D01*
X171247820Y-74424951D01*
X171058414Y-74328444D01*
X171058413Y-74328443D01*
X171058412Y-74328443D01*
X170856243Y-74262754D01*
X170856241Y-74262753D01*
X170856240Y-74262753D01*
X170694957Y-74237208D01*
X170646287Y-74229500D01*
X170433713Y-74229500D01*
X170385042Y-74237208D01*
X170223760Y-74262753D01*
X170021585Y-74328444D01*
X169832179Y-74424951D01*
X169660215Y-74549889D01*
X169546673Y-74663431D01*
X169485350Y-74696915D01*
X169415658Y-74691931D01*
X169359725Y-74650059D01*
X169342810Y-74619082D01*
X169293796Y-74487669D01*
X169293793Y-74487664D01*
X169207547Y-74372455D01*
X169207544Y-74372452D01*
X169092335Y-74286206D01*
X169092328Y-74286202D01*
X168957482Y-74235908D01*
X168957483Y-74235908D01*
X168897883Y-74229501D01*
X168897881Y-74229500D01*
X168897873Y-74229500D01*
X168897864Y-74229500D01*
X167102129Y-74229500D01*
X167102123Y-74229501D01*
X167042516Y-74235908D01*
X166907671Y-74286202D01*
X166907664Y-74286206D01*
X166792455Y-74372452D01*
X166792452Y-74372455D01*
X166706206Y-74487664D01*
X166706204Y-74487669D01*
X166655908Y-74622517D01*
X166649501Y-74682116D01*
X166649500Y-74682135D01*
X160900500Y-74682135D01*
X160900500Y-74037648D01*
X178599500Y-74037648D01*
X178599500Y-74242352D01*
X178602731Y-74262753D01*
X178631522Y-74444534D01*
X178694781Y-74639223D01*
X178737248Y-74722567D01*
X178787585Y-74821359D01*
X178787715Y-74821613D01*
X178908028Y-74987213D01*
X179052786Y-75131971D01*
X179171682Y-75218352D01*
X179218390Y-75252287D01*
X179334607Y-75311503D01*
X179400776Y-75345218D01*
X179400778Y-75345218D01*
X179400781Y-75345220D01*
X179505137Y-75379127D01*
X179595465Y-75408477D01*
X179696557Y-75424488D01*
X179797648Y-75440500D01*
X179797649Y-75440500D01*
X180002351Y-75440500D01*
X180002352Y-75440500D01*
X180204534Y-75408477D01*
X180399219Y-75345220D01*
X180581610Y-75252287D01*
X180708592Y-75160030D01*
X180747213Y-75131971D01*
X180747215Y-75131968D01*
X180747219Y-75131966D01*
X180891966Y-74987219D01*
X180891968Y-74987215D01*
X180891971Y-74987213D01*
X181012286Y-74821611D01*
X181012415Y-74821359D01*
X181039795Y-74767621D01*
X181087769Y-74716826D01*
X181155589Y-74700030D01*
X181221725Y-74722567D01*
X181260765Y-74767621D01*
X181288141Y-74821350D01*
X181288147Y-74821359D01*
X181320523Y-74865921D01*
X181320524Y-74865922D01*
X182000000Y-74186446D01*
X182000000Y-74192661D01*
X182027259Y-74294394D01*
X182079920Y-74385606D01*
X182154394Y-74460080D01*
X182245606Y-74512741D01*
X182347339Y-74540000D01*
X182353553Y-74540000D01*
X181674076Y-75219474D01*
X181718650Y-75251859D01*
X181900968Y-75344755D01*
X182095582Y-75407990D01*
X182297683Y-75440000D01*
X182502317Y-75440000D01*
X182704417Y-75407990D01*
X182899031Y-75344755D01*
X183081349Y-75251859D01*
X183125921Y-75219474D01*
X182446447Y-74540000D01*
X182452661Y-74540000D01*
X182554394Y-74512741D01*
X182645606Y-74460080D01*
X182720080Y-74385606D01*
X182772741Y-74294394D01*
X182800000Y-74192661D01*
X182800000Y-74186447D01*
X183479474Y-74865921D01*
X183511859Y-74821349D01*
X183604755Y-74639031D01*
X183667990Y-74444417D01*
X183700000Y-74242317D01*
X183700000Y-74037682D01*
X183667990Y-73835582D01*
X183604755Y-73640968D01*
X183511859Y-73458650D01*
X183479474Y-73414077D01*
X183479474Y-73414076D01*
X182800000Y-74093551D01*
X182800000Y-74087339D01*
X182772741Y-73985606D01*
X182720080Y-73894394D01*
X182645606Y-73819920D01*
X182554394Y-73767259D01*
X182452661Y-73740000D01*
X182446446Y-73740000D01*
X183125922Y-73060524D01*
X183125921Y-73060523D01*
X183081359Y-73028147D01*
X183081350Y-73028141D01*
X182899031Y-72935244D01*
X182704417Y-72872009D01*
X182502317Y-72840000D01*
X182297683Y-72840000D01*
X182095582Y-72872009D01*
X181900968Y-72935244D01*
X181718644Y-73028143D01*
X181674077Y-73060523D01*
X181674077Y-73060524D01*
X182353554Y-73740000D01*
X182347339Y-73740000D01*
X182245606Y-73767259D01*
X182154394Y-73819920D01*
X182079920Y-73894394D01*
X182027259Y-73985606D01*
X182000000Y-74087339D01*
X182000000Y-74093553D01*
X181320524Y-73414077D01*
X181320523Y-73414077D01*
X181288143Y-73458644D01*
X181260765Y-73512378D01*
X181212790Y-73563174D01*
X181144969Y-73579969D01*
X181078834Y-73557431D01*
X181039795Y-73512378D01*
X181027446Y-73488141D01*
X181012287Y-73458390D01*
X181012285Y-73458387D01*
X181012284Y-73458385D01*
X180891971Y-73292786D01*
X180747213Y-73148028D01*
X180581613Y-73027715D01*
X180581612Y-73027714D01*
X180581610Y-73027713D01*
X180524653Y-72998691D01*
X180399223Y-72934781D01*
X180204534Y-72871522D01*
X180029995Y-72843878D01*
X180002352Y-72839500D01*
X179797648Y-72839500D01*
X179773329Y-72843351D01*
X179595465Y-72871522D01*
X179400776Y-72934781D01*
X179218386Y-73027715D01*
X179052786Y-73148028D01*
X178908028Y-73292786D01*
X178787715Y-73458386D01*
X178694781Y-73640776D01*
X178631522Y-73835465D01*
X178602702Y-74017431D01*
X178599500Y-74037648D01*
X160900500Y-74037648D01*
X160900500Y-66302135D01*
X173509500Y-66302135D01*
X173509500Y-68097870D01*
X173509501Y-68097876D01*
X173515908Y-68157483D01*
X173566202Y-68292328D01*
X173566206Y-68292335D01*
X173652452Y-68407544D01*
X173652455Y-68407547D01*
X173767664Y-68493793D01*
X173767671Y-68493797D01*
X173902517Y-68544091D01*
X173902516Y-68544091D01*
X173909444Y-68544835D01*
X173962127Y-68550500D01*
X175757872Y-68550499D01*
X175817483Y-68544091D01*
X175952331Y-68493796D01*
X176067546Y-68407546D01*
X176153796Y-68292331D01*
X176202810Y-68160916D01*
X176244681Y-68104984D01*
X176310145Y-68080566D01*
X176378418Y-68095417D01*
X176406673Y-68116569D01*
X176520213Y-68230109D01*
X176692179Y-68355048D01*
X176692181Y-68355049D01*
X176692184Y-68355051D01*
X176881588Y-68451557D01*
X177083757Y-68517246D01*
X177293713Y-68550500D01*
X177293714Y-68550500D01*
X177506286Y-68550500D01*
X177506287Y-68550500D01*
X177716243Y-68517246D01*
X177918412Y-68451557D01*
X178107816Y-68355051D01*
X178194138Y-68292335D01*
X178279786Y-68230109D01*
X178279788Y-68230106D01*
X178279792Y-68230104D01*
X178430104Y-68079792D01*
X178430106Y-68079788D01*
X178430109Y-68079786D01*
X178555048Y-67907820D01*
X178555047Y-67907820D01*
X178555051Y-67907816D01*
X178651557Y-67718412D01*
X178717246Y-67516243D01*
X178750500Y-67306287D01*
X178750500Y-67093713D01*
X178717246Y-66883757D01*
X178651557Y-66681588D01*
X178555051Y-66492184D01*
X178555049Y-66492181D01*
X178555048Y-66492179D01*
X178430109Y-66320213D01*
X178279786Y-66169890D01*
X178107820Y-66044951D01*
X177918414Y-65948444D01*
X177918413Y-65948443D01*
X177918412Y-65948443D01*
X177716243Y-65882754D01*
X177716241Y-65882753D01*
X177716240Y-65882753D01*
X177554957Y-65857208D01*
X177506287Y-65849500D01*
X177293713Y-65849500D01*
X177245042Y-65857208D01*
X177083760Y-65882753D01*
X176881585Y-65948444D01*
X176692179Y-66044951D01*
X176520215Y-66169889D01*
X176406673Y-66283431D01*
X176345350Y-66316915D01*
X176275658Y-66311931D01*
X176219725Y-66270059D01*
X176202810Y-66239082D01*
X176153797Y-66107671D01*
X176153793Y-66107664D01*
X176067547Y-65992455D01*
X176067544Y-65992452D01*
X175952335Y-65906206D01*
X175952328Y-65906202D01*
X175817482Y-65855908D01*
X175817483Y-65855908D01*
X175757883Y-65849501D01*
X175757881Y-65849500D01*
X175757873Y-65849500D01*
X175757864Y-65849500D01*
X173962129Y-65849500D01*
X173962123Y-65849501D01*
X173902516Y-65855908D01*
X173767671Y-65906202D01*
X173767664Y-65906206D01*
X173652455Y-65992452D01*
X173652452Y-65992455D01*
X173566206Y-66107664D01*
X173566202Y-66107671D01*
X173515908Y-66242517D01*
X173509501Y-66302116D01*
X173509500Y-66302135D01*
X160900500Y-66302135D01*
X160900500Y-63649223D01*
X161699500Y-63649223D01*
X161699500Y-63950776D01*
X161699501Y-63950793D01*
X161738861Y-64249766D01*
X161816913Y-64541060D01*
X161932314Y-64819661D01*
X161932318Y-64819671D01*
X162083099Y-65080831D01*
X162266679Y-65320078D01*
X162266685Y-65320085D01*
X162479914Y-65533314D01*
X162479921Y-65533320D01*
X162719168Y-65716900D01*
X162980328Y-65867681D01*
X162980329Y-65867681D01*
X162980332Y-65867683D01*
X163073335Y-65906206D01*
X163258939Y-65983086D01*
X163258940Y-65983086D01*
X163258942Y-65983087D01*
X163550232Y-66061138D01*
X163849217Y-66100500D01*
X163849224Y-66100500D01*
X164150776Y-66100500D01*
X164150783Y-66100500D01*
X164449768Y-66061138D01*
X164741058Y-65983087D01*
X165019668Y-65867683D01*
X165280832Y-65716900D01*
X165520080Y-65533319D01*
X165733319Y-65320080D01*
X165916900Y-65080832D01*
X166067683Y-64819668D01*
X166183087Y-64541058D01*
X166261138Y-64249768D01*
X166300500Y-63950783D01*
X166300500Y-63649223D01*
X218699500Y-63649223D01*
X218699500Y-63950776D01*
X218699501Y-63950793D01*
X218738861Y-64249766D01*
X218816913Y-64541060D01*
X218932314Y-64819661D01*
X218932318Y-64819671D01*
X219083099Y-65080831D01*
X219266679Y-65320078D01*
X219266685Y-65320085D01*
X219479914Y-65533314D01*
X219479921Y-65533320D01*
X219719168Y-65716900D01*
X219980328Y-65867681D01*
X219980329Y-65867681D01*
X219980332Y-65867683D01*
X220073335Y-65906206D01*
X220258939Y-65983086D01*
X220258940Y-65983086D01*
X220258942Y-65983087D01*
X220550232Y-66061138D01*
X220849217Y-66100500D01*
X220849224Y-66100500D01*
X221150776Y-66100500D01*
X221150783Y-66100500D01*
X221449768Y-66061138D01*
X221741058Y-65983087D01*
X222019668Y-65867683D01*
X222280832Y-65716900D01*
X222520080Y-65533319D01*
X222733319Y-65320080D01*
X222916900Y-65080832D01*
X223067683Y-64819668D01*
X223183087Y-64541058D01*
X223261138Y-64249768D01*
X223300500Y-63950783D01*
X223300500Y-63649217D01*
X223261138Y-63350232D01*
X223183087Y-63058942D01*
X223067683Y-62780332D01*
X222916900Y-62519168D01*
X222733319Y-62279920D01*
X222733314Y-62279914D01*
X222520085Y-62066685D01*
X222520078Y-62066679D01*
X222280831Y-61883099D01*
X222019671Y-61732318D01*
X222019661Y-61732314D01*
X221741060Y-61616913D01*
X221449766Y-61538861D01*
X221150793Y-61499501D01*
X221150788Y-61499500D01*
X221150783Y-61499500D01*
X220849217Y-61499500D01*
X220849211Y-61499500D01*
X220849206Y-61499501D01*
X220550233Y-61538861D01*
X220258939Y-61616913D01*
X219980338Y-61732314D01*
X219980328Y-61732318D01*
X219719168Y-61883099D01*
X219479921Y-62066679D01*
X219479914Y-62066685D01*
X219266685Y-62279914D01*
X219266679Y-62279921D01*
X219083099Y-62519168D01*
X218932318Y-62780328D01*
X218932314Y-62780338D01*
X218816913Y-63058939D01*
X218738861Y-63350233D01*
X218699501Y-63649206D01*
X218699500Y-63649223D01*
X166300500Y-63649223D01*
X166300500Y-63649217D01*
X166261138Y-63350232D01*
X166183087Y-63058942D01*
X166067683Y-62780332D01*
X165916900Y-62519168D01*
X165733319Y-62279920D01*
X165733314Y-62279914D01*
X165520085Y-62066685D01*
X165520078Y-62066679D01*
X165280831Y-61883099D01*
X165019671Y-61732318D01*
X165019661Y-61732314D01*
X164741060Y-61616913D01*
X164449766Y-61538861D01*
X164150793Y-61499501D01*
X164150788Y-61499500D01*
X164150783Y-61499500D01*
X163849217Y-61499500D01*
X163849211Y-61499500D01*
X163849206Y-61499501D01*
X163550233Y-61538861D01*
X163258939Y-61616913D01*
X162980338Y-61732314D01*
X162980328Y-61732318D01*
X162719168Y-61883099D01*
X162479921Y-62066679D01*
X162479914Y-62066685D01*
X162266685Y-62279914D01*
X162266679Y-62279921D01*
X162083099Y-62519168D01*
X161932318Y-62780328D01*
X161932314Y-62780338D01*
X161816913Y-63058939D01*
X161738861Y-63350233D01*
X161699501Y-63649206D01*
X161699500Y-63649223D01*
X160900500Y-63649223D01*
X160900500Y-60624500D01*
X160920185Y-60557461D01*
X160972989Y-60511706D01*
X161024500Y-60500500D01*
X223775500Y-60500500D01*
X223842539Y-60520185D01*
G37*
G04 #@! TD.AperFunction*
G04 #@! TD*
M02*
