M48
; DRILL file {KiCad 9.0.7} date 2026-02-17T19:46:36+0100
; FORMAT={-:-/ absolute / metric / decimal}
; #@! TF.CreationDate,2026-02-17T19:46:36+01:00
; #@! TF.GenerationSoftware,Kicad,Pcbnew,9.0.7
; #@! TF.FileFunction,Plated,1,2,PTH
FMAT,2
METRIC
; #@! TA.AperFunction,Plated,PTH,ViaDrill
T1C0.800
; #@! TA.AperFunction,Plated,PTH,ComponentDrill
T2C0.800
; #@! TA.AperFunction,Plated,PTH,ComponentDrill
T3C1.000
%
G90
G05
T1
X107.0Y-104.6
X107.8Y-98.3
X114.9Y-98.2
X117.65Y-110.85
X132.3Y-104.0
X134.9Y-102.1
T2
X93.98Y-93.98
X93.98Y-101.6
X96.52Y-93.98
X99.06Y-93.98
X104.14Y-101.6
X104.14Y-109.22
X106.68Y-93.98
X109.22Y-93.98
X109.22Y-101.6
X111.76Y-93.98
X114.3Y-109.22
X119.38Y-93.98
X119.38Y-101.6
X121.92Y-93.98
X124.46Y-93.98
X124.46Y-99.06
X124.46Y-109.22
X129.54Y-83.82
X129.54Y-91.44
X129.54Y-93.98
X129.54Y-96.52
X129.54Y-99.06
X129.54Y-101.6
X129.54Y-104.14
X129.54Y-106.68
X129.54Y-109.22
X129.54Y-114.3
X137.16Y-91.44
X137.16Y-93.98
X137.16Y-96.52
X137.16Y-99.06
X137.16Y-101.6
X137.16Y-104.14
X137.16Y-106.68
X137.16Y-109.22
X139.7Y-83.82
X139.7Y-114.3
X142.24Y-101.6
X142.24Y-104.1
X147.32Y-91.44
X147.32Y-99.06
X152.4Y-83.82
X154.94Y-83.82
X154.94Y-104.14
X157.48Y-83.82
X157.48Y-91.44
X157.48Y-99.06
X165.1Y-104.14
T3
X96.52Y-109.22
X99.06Y-109.22
X121.92Y-86.36
X124.46Y-86.36
X165.1Y-96.52
X167.64Y-96.52
M30
